<svg xmlns="http://www.w3.org/2000/svg" width="24" height="24" viewBox="0 0 24 24">
  <path fill="#000000" d="M14,21.5 L14,11 C14,10.4477153 14.4477153,10 15,10 C15.5522847,10 16,10.4477153 16,11 L16,14.5000001 C16,14.7761424 16.2238576,15 16.5,15 C16.7761424,15 17,14.7761424 17,14.5 L17,9.88888889 C17,9.02477159 16.4237977,8.26669613 15.5912052,8.03542043 L13.4323118,7.43572782 C12.6145714,7.20857771 12.4337257,6.13021841 13.1326228,5.64872136 C13.672247,5.27695352 14,4.66694414 14,4 C14,2.8954305 13.1045695,2 12,2 C10.8954305,2 10,2.8954305 10,4 C10,4.66694414 10.327753,5.27695352 10.8673772,5.64872136 C11.5662743,6.13021841 11.3854286,7.20857771 10.5676882,7.43572782 L8.40879477,8.03542043 C7.57620228,8.26669613 7,9.02477159 7,9.88888889 L7,14.5 C7,14.7761424 7.22385763,15 7.5,15 C7.77614237,15 8,14.7761424 8,14.5 L8,11 C8,10.4477153 8.44771525,10 9,10 C9.55228475,10 10,10.4477153 10,11 L10,21.5 C10,21.7761424 10.2238576,22 10.5,22 C10.7761424,22 11,21.7761424 11,21.5 L11,17 C11,16.4477153 11.4477153,16 12,16 C12.5522847,16 13,16.4477153 13,17 L13,21.5000002 C13,21.7761424 13.2238576,22 13.5,22 C13.7761424,22 14,21.7761424 14,21.5 Z M16.126493,6.10838462 C17.824725,6.58011573 19,8.12635598 19,9.88888889 L19,14.5 C19,15.8807119 17.8807119,17 16.5,17 C16.3287671,17 16.161555,16.9827849 16,16.9499909 L16,21.5 C16,22.8807119 14.8807119,24 13.5,24 C12.937197,24 12.4178303,23.8140276 12,23.5001831 C11.5821697,23.8140276 11.062803,24 10.5,24 C9.11928813,24 8,22.8807119 8,21.5 L8,16.9499909 C7.83844503,16.9827849 7.67123292,17 7.5,17 C6.11928813,17 5,15.8807119 5,14.5 L5,9.88888889 C5,8.12635598 6.17527502,6.58011573 7.87350705,6.10838462 L8.49832875,5.93482303 C8.17722826,5.35413236 8,4.69180451 8,4 C8,1.790861 9.790861,0 12,0 C14.209139,0 16,1.790861 16,4 C16,4.69180451 15.8227717,5.35413236 15.5016712,5.93482303 L16.126493,6.10838462 Z"/>
</svg>
