<svg xmlns="http://www.w3.org/2000/svg" width="24" height="24" viewBox="0 0 24 24">
  <path fill="#000000" d="M13,19 L14,19 C14.5522847,19 15,19.4477153 15,20 C15,20.5522847 14.5522847,21 14,21 L13,21 L13,22 C13,22.5522847 12.5522847,23 12,23 C11.4477153,23 11,22.5522847 11,22 L11,21 L10,21 C9.44771525,21 9,20.5522847 9,20 C9,19.4477153 9.44771525,19 10,19 L11,19 L11,17 C11,16.9792934 11.0006294,16.9587338 11.00187,16.9383392 C7.05465313,16.4470716 4,13.080262 4,9 C4,4.581722 7.581722,1 12,1 C16.418278,1 20,4.581722 20,9 C20,13.080262 16.9453469,16.4470716 12.99813,16.9383392 C12.9993706,16.9587338 13,16.9792934 13,17 L13,19 Z M12,15 C15.3137085,15 18,12.3137085 18,9 C18,5.6862915 15.3137085,3 12,3 C8.6862915,3 6,5.6862915 6,9 C6,12.3137085 8.6862915,15 12,15 Z"/>
</svg>
