<svg xmlns="http://www.w3.org/2000/svg" width="24" height="24" viewBox="0 0 24 24">
  <path fill="#000000" d="M10,17 L10,21.5 C10,22.8807119 8.88071187,24 7.5,24 C6.11928813,24 5,22.8807119 5,21.5 L5,19 L3.81971031,19 C2.99128319,19 2.31971031,18.3284271 2.31971031,17.5 C2.31971031,17.2613923 2.37663274,17.0262271 2.48575094,16.8140318 L2.68968703,16.4174501 C2.55831055,16.3773358 2.42859314,16.325429 2.30188568,16.2612958 C1.12280317,15.6645018 0.641549967,14.2314323 1.22143449,13.0439422 L3.27892614,8.83060204 C3.34046822,8.7045759 3.41190194,8.58456775 3.49247835,8.47148525 C3.99492926,7.53005026 4.75903117,6.75736891 5.68843277,6.24444144 C5.24872485,5.59610032 5,4.81941694 5,4 C5,1.790861 6.790861,0 9,0 C9.34529957,0 9.68038008,0.0437530031 10,0.126017485 L10,2.26756439 C9.70582663,2.09739429 9.36428714,2 9,2 C7.8954305,2 7,2.8954305 7,4 C7,4.71415254 7.37650514,5.36188584 7.97969232,5.72070827 C8.69925944,6.1487625 8.60563767,7.21871603 7.82266442,7.51529681 L7.10677471,7.78646715 C6.29404287,8.09432012 5.62706984,8.69218264 5.23182302,9.46106627 L5.13346411,9.61568126 C5.11160272,9.64394649 5.09241455,9.67478413 5.07609248,9.70820854 L3.01860083,13.9215487 C2.91851464,14.1265057 3.00157738,14.3738489 3.20508321,14.4768536 C3.38009701,14.565437 3.58855215,14.518183 3.70972439,14.3738431 L5.69676018,10.5656107 C5.95224166,10.0759704 6.55628224,9.88614712 7.04592258,10.1416286 C7.53556291,10.3971101 7.72538616,11.0011507 7.46990468,11.490791 L6.90683593,12.5699344 C6.88996765,12.6159363 6.86957108,12.6624722 6.84542501,12.7094276 L4.63906369,17 L9,17 L10,17 Z M8,19 L7,19 L7,21.5 C7,21.7761424 7.22385763,22 7.5,22 C7.77614237,22 8,21.7761424 8,21.5 L8,19 Z M14,17 C14,16.4477153 14.4477153,16 15,16 C15.5522847,16 16,16.4477153 16,17 L16,21.5000002 C16,21.7761424 16.2238576,22 16.5,22 C16.7761424,22 17,21.7761424 17,21.5 L17,11 C17,10.4477153 17.4477153,10 18,10 C18.5522847,10 19,10.4477153 19,11 L19,14.5000001 C19,14.7761424 19.2238576,15 19.5,15 C19.7761424,15 20,14.7761424 20,14.5 L20,9.88888889 C20,9.02477159 19.4237977,8.26669613 18.5912052,8.03542043 L16.4323118,7.43572782 C15.6145714,7.20857771 15.4337257,6.13021841 16.1326228,5.64872136 C16.672247,5.27695352 17,4.66694414 17,4 C17,2.8954305 16.1045695,2 15,2 C14.6357129,2 14.2941734,2.09739429 14,2.26756439 L14,0.126017485 C14.3196199,0.0437530031 14.6547004,0 15,0 C17.209139,0 19,1.790861 19,4 C19,4.69180451 18.8227717,5.35413236 18.5016712,5.93482303 L19.126493,6.10838462 C20.824725,6.58011573 22,8.12635598 22,9.88888889 L22,14.5 C22,15.8807119 20.8807119,17 19.5,17 C19.3287671,17 19.161555,16.9827849 19,16.9499909 L19,21.5 C19,22.8807119 17.8807119,24 16.5,24 C15.154077,24 14.0565698,22.9364051 14.002118,21.6038549 L14,17 Z M12,0 C12.5522847,-1.01453063e-16 13,0.44771525 13,1 L13,23 C13,23.5522847 12.5522847,24 12,24 C11.4477153,24 11,23.5522847 11,23 L11,1 C11,0.44771525 11.4477153,1.01453063e-16 12,0 Z"/>
</svg>
