<svg xmlns="http://www.w3.org/2000/svg" width="24" height="24" viewBox="0 0 24 24">
  <path fill="#000000" d="M15,7 L15,8 C15,9.1045695 14.1045695,10 13,10 L12,10 C10.8954305,10 10,9.1045695 10,8 L10,7 L3,7 C2.44771525,7 2,7.44771525 2,8 L2,19 C2,19.5522847 2.44771525,20 3,20 L21,20 C21.5522847,20 22,19.5522847 22,19 L22,8 C22,7.44771525 21.5522847,7 21,7 L15,7 Z M10,5 L10,4 C10,2.8954305 10.8954305,2 12,2 L13,2 C14.1045695,2 15,2.8954305 15,4 L15,5 L21,5 C22.6568542,5 24,6.34314575 24,8 L24,19 C24,20.6568542 22.6568542,22 21,22 L3,22 C1.34314575,22 3.33066907e-16,20.6568542 0,19 L0,8 C-1.66533454e-16,6.34314575 1.34314575,5 3,5 L10,5 Z M5.87417165,14.5249447 C5.57033442,14.2624842 5.33429593,13.9263221 5.18858458,13.62259 C5.00122384,13.2320407 4.78690068,12.4126512 4.87160553,11.936022 C4.98687862,11.287387 4.68918485,10.3316729 5.04427589,9.89769645 C5.39936692,9.46371995 6.04992631,9 6.78587941,9 C7.10923387,9 7.37350066,9.38129418 7.77530676,9.27161486 C8.19865968,9.156054 8.75154181,9.65439547 8.9506171,9.89769645 C9.30570813,10.3316729 8.96666404,11.2934536 9.1057138,11.936022 C9.21278031,12.4307913 8.9796842,13.2120892 8.80035793,13.5979742 C8.65643337,13.9076797 8.42551744,14.2488704 8.12548573,14.5154068 C8.13495198,14.8192894 8.28231872,15.1030851 8.5268747,15.285609 L9.64403203,16.1193972 C9.86804973,16.2865924 10,16.5497224 10,16.8292544 C10,17.1378974 9.82488942,17.4198128 9.54821283,17.5565993 C8.93136705,17.8615673 8.07951858,18.0140493 6.99266936,18.0140493 C5.91017394,18.0140493 5.06379468,17.8627865 4.45353158,17.5602608 L4.45352515,17.5602738 C4.17573409,17.4225645 4,17.1393056 4,16.8292544 C4,16.5497224 4.13195027,16.2865924 4.35596797,16.1193972 L5.4731253,15.285609 C5.71512087,15.1049961 5.86195162,14.8252208 5.87417165,14.5249447 Z M13,12 L19,12 C19.5522847,12 20,12.4477153 20,13 C20,13.5522847 19.5522847,14 19,14 L13,14 C12.4477153,14 12,13.5522847 12,13 C12,12.4477153 12.4477153,12 13,12 Z M13,15 L15,15 C15.5522847,15 16,15.4477153 16,16 C16,16.5522847 15.5522847,17 15,17 L13,17 C12.4477153,17 12,16.5522847 12,16 C12,15.4477153 12.4477153,15 13,15 Z M12,4 L12,8 L13,8 L13,4 L12,4 Z"/>
</svg>
