<svg xmlns="http://www.w3.org/2000/svg" width="24" height="24" viewBox="0 0 24 24">
  <path fill="#000000" fill-rule="evenodd" d="M16.3633679,9.15084468 C17.3901689,10.4962219 18,12.1768941 18,14 C18,18.418278 14.418278,22 10,22 C5.581722,22 2,18.418278 2,14 C2,9.581722 5.581722,6 10,6 C11.8742939,6 13.5980435,6.64455678 14.961682,7.72410351 L17.6857855,5 L16,5 C15.4477153,5 15,4.55228475 15,4 C15,3.44771525 15.4477153,3 16,3 L20,3 C20.5522847,3 21,3.44771525 21,4 L21,8 C21,8.55228475 20.5522847,9 20,9 C19.4477153,9 19,8.55228475 19,8 L19,6.51421259 L16.3633679,9.15084468 Z M10,20 C13.3137085,20 16,17.3137085 16,14 C16,10.6862915 13.3137085,8 10,8 C6.6862915,8 4,10.6862915 4,14 C4,17.3137085 6.6862915,20 10,20 Z"/>
</svg>
