<svg xmlns="http://www.w3.org/2000/svg" width="24" height="24" viewBox="0 0 24 24">
  <path fill="#000000" d="M20.2012249,6.31496869 C21.2656076,7.49540046 21.9359242,9.04292287 21.9957358,10.7557035 C22.130657,14.6193417 19.1079347,17.8608146 15.2442965,17.9957358 C14.6396234,18.0168514 14.0415149,17.9606894 13.4608957,17.8302054 C13.0600545,17.7401234 12.6690364,17.6149392 12.2917781,17.4564539 C11.8380142,17.2658288 11.4059364,17.0277658 11.002501,16.7467362 L11.0001513,16.7450987 C10.9128071,16.8060116 10.824071,16.8649392 10.7340112,16.9218287 C10.5984602,17.0074543 10.4599857,17.0884152 10.318824,17.1645499 C10.1620744,17.2490918 10.0020954,17.3276374 9.83921173,17.3999894 C9.68044153,17.4705141 9.51899734,17.535116 9.35517771,17.5936354 C9.15456436,17.6652983 8.95053518,17.7277876 8.74362806,17.7808574 C8.49824629,17.8437957 8.24927332,17.8933736 7.99754196,17.9293361 C7.99917155,17.952679 8,17.9762428 8,18 L8,19 L9,19 C9.55228475,19 10,19.4477153 10,20 C10,20.5522847 9.55228475,21 9,21 L8,21 L8,22 C8,22.5522847 7.55228475,23 7,23 C6.44771525,23 6,22.5522847 6,22 L6,21 L5,21 C4.44771525,21 4,20.5522847 4,20 C4,19.4477153 4.44771525,19 5,19 L6,19 L6,18 C6,17.9762852 6.0008255,17.9527631 6.00244933,17.929461 C2.60896116,17.4452857 0,14.5273206 0,11 C0,7.13400675 3.13400675,4 7,4 C7.6050416,4 8.20082578,4.07700153 8.77653747,4.22766932 C9.17399067,4.33168561 9.56040167,4.47043985 9.93189916,4.6419948 C10.3055105,4.8145259 10.6628128,5.01967205 10.9998332,5.25467921 C11.0203429,5.24037485 11.0409303,5.22617949 11.0615946,5.21209385 C11.1940747,5.12178971 11.3296395,5.03604542 11.468058,4.9550307 C11.6217617,4.86506982 11.778902,4.78098882 11.9391614,4.70299639 C12.0953736,4.62697359 12.2544649,4.55677675 12.4161424,4.49257574 C12.6141326,4.41395524 12.8158566,4.34438353 13.0207856,4.28412503 C13.5809112,4.11942244 14.1625771,4.02497664 14.7557035,4.00426421 C16.1828528,3.95442706 17.525113,4.33542296 18.6572745,5.03049197 L20.6877665,3 L19.001981,3 C18.4496963,3 18.001981,2.55228475 18.001981,2 C18.001981,1.44771525 18.4496963,1 19.001981,1 L23.001981,1 C23.2781234,1 23.5281234,1.11192881 23.7090878,1.29289322 C23.8900522,1.47385763 24.001981,1.72385763 24.001981,2 L24.001981,6 C24.001981,6.55228475 23.5542657,7 23.001981,7 C22.4496963,7 22.001981,6.55228475 22.001981,6 L22.001981,4.51421259 L20.2012249,6.31496869 Z M12.4994758,6.66880353 C12.6243376,6.82715826 12.742376,6.99087877 12.8532126,7.15950937 C13.0195668,7.4126063 13.1694032,7.67631479 13.301653,7.94903998 C13.4345945,8.22319152 13.5495472,8.506003 13.6456412,8.79586168 C13.8794732,9.50119425 14,10.2430706 14,11 C14,11.5315502 13.9405701,12.0560945 13.8238574,12.5663565 C13.7553819,12.8657279 13.6673394,13.1594996 13.5604478,13.4460819 C13.367441,13.9635438 12.7914923,14.2265666 12.2740305,14.0335597 C11.7565686,13.8405529 11.4935457,13.2646042 11.6865526,12.7471424 C11.7627033,12.5429779 11.8254189,12.3337145 11.874208,12.1204112 C11.9575174,11.7561866 12,11.381224 12,11 C12,10.457616 11.913987,9.92818177 11.7472446,9.42521863 C11.678778,9.21869558 11.596856,9.01714764 11.5020751,8.82169067 C11.4077035,8.62707788 11.3007288,8.43880498 11.1819027,8.25801894 C11.041602,8.04456066 10.8850859,7.84200852 10.7138747,7.65221989 C10.4962675,7.41100086 10.2557153,7.19128024 9.99587799,6.99646719 C9.71472388,6.78567187 9.41226242,6.60498528 9.09340177,6.45773766 C8.82861779,6.33546226 8.55333046,6.23661082 8.27017673,6.1625075 C7.8594202,6.05500964 7.43379396,6 7,6 C4.23857625,6 2,8.23857625 2,11 C2,13.7614237 4.23857625,16 7,16 C7.42553076,16 7.84321095,15.9470666 8.24673004,15.8435675 C8.39413078,15.8057605 8.53946661,15.7612476 8.68237818,15.7101969 C8.79910225,15.6685009 8.91415064,15.6224643 9.02731714,15.5721964 C9.14346974,15.5206021 9.25758097,15.4645764 9.3694209,15.4042562 C9.41340232,15.3805351 9.45702341,15.3561548 9.50026999,15.3311247 C9.42586998,15.2367847 9.35388028,15.1405204 9.2843842,15.0424253 C9.10929839,14.7952882 8.95034998,14.5369696 8.80866277,14.269026 C8.66623454,13.999681 8.54148187,13.7210536 8.43533046,13.4347251 C8.17702512,12.7379829 8.03068066,12.0007647 8.00426421,11.2442965 C7.98571337,10.71307 8.02680075,10.1867713 8.12563449,9.67274691 C8.18362037,9.37116813 8.26135668,9.07450268 8.35818157,8.78436456 C8.53301165,8.26048205 9.09943012,7.97751914 9.62331264,8.15234922 C10.1471952,8.3271793 10.4301581,8.89359777 10.255328,9.41748029 C10.1863488,9.62417795 10.1309747,9.8355027 10.0896595,10.0503787 C10.019112,10.4172889 9.98974134,10.7935058 10.0030459,11.1744975 C10.0219748,11.7165511 10.1264124,12.242661 10.3106064,12.7394985 C10.3862388,12.9435063 10.4751449,13.1420724 10.5766894,13.3341025 C10.6777954,13.5253032 10.7912755,13.7097281 10.9163385,13.886257 C11.0640034,14.0946888 11.2274931,14.2916553 11.4052235,14.4753531 C11.6311166,14.7088308 11.8791904,14.9200224 12.1456683,15.1056486 C12.4340078,15.3065034 12.7425909,15.4765241 13.0663961,15.612554 C13.3352862,15.7255141 13.6138557,15.8146979 13.8994231,15.8788742 C14.313681,15.9719713 14.7409678,16.0120933 15.1744975,15.9969541 C17.934239,15.9005818 20.0933264,13.5852441 19.9969541,10.8255025 C19.9005818,8.06576095 17.5852441,5.90667357 14.8255025,6.00304586 C14.400231,6.01789667 13.9846526,6.08537464 13.5849914,6.20289334 C13.4389999,6.24582154 13.2953061,6.29537946 13.1542632,6.35138659 C13.0390654,6.39713083 12.9256937,6.44715451 12.8143505,6.50134122 C12.7074089,6.55338581 12.6023892,6.60924619 12.4994758,6.66880353 Z"/>
</svg>
