<svg xmlns="http://www.w3.org/2000/svg" width="24" height="24" viewBox="0 0 24 24">
  <path fill="#000000" d="M11,6 L20,6 C21.6568542,6 23,7.34314575 23,9 L23,19 C23,20.6568542 21.6568542,22 20,22 L3,22 C1.34314575,22 -6.9388939e-15,20.6568542 -7.10542736e-15,19 L-7.88860905e-31,6 C-1.66533454e-16,4.34314575 1.34314575,3 3,3 L8,3 C9.65685425,3 11,4.34314575 11,6 Z M10,8 C9.44771525,8 9,7.55228475 9,7 L9,6 C9,5.44771525 8.55228475,5 8,5 L3,5 C2.44771525,5 2,5.44771525 2,6 L2,19 C2,19.5522847 2.44771525,20 3,20 L20,20 C20.5522847,20 21,19.5522847 21,19 L21,9 C21,8.44771525 20.5522847,8 20,8 L10,8 Z M18,13 L18,15 C18,15.5522847 17.5522847,16 17,16 C16.4477153,16 16,15.5522847 16,15 L16,14 L15,14 C15,14.5522847 14.5522847,15 14,15 C13.4477153,15 13,14.5522847 13,14 L11,14 C10.9434818,14 10.8880587,13.9953113 10.8340984,13.9863016 C10.4261546,15.158644 9.31133193,16 8,16 C6.34314575,16 5,14.6568542 5,13 C5,11.3431458 6.34314575,10 8,10 C9.31133193,10 10.4261546,10.841356 10.8340984,12.0136984 C10.8880587,12.0046887 10.9434818,12 11,12 L17,12 C17.5522847,12 18,12.4477153 18,13 Z M8,14 C8.55228475,14 9,13.5522847 9,13 C9,12.4477153 8.55228475,12 8,12 C7.44771525,12 7,12.4477153 7,13 C7,13.5522847 7.44771525,14 8,14 Z"/>
</svg>
