<svg xmlns="http://www.w3.org/2000/svg" width="24" height="24" viewBox="0 0 24 24">
  <path fill="#000000" d="M13.1707057,13 L10.8292943,13 C10.9398458,13.3127789 11,13.6493646 11,14 C11,15.6568542 9.65685425,17 8,17 C6.34314575,17 5,15.6568542 5,14 C5,12.3431458 6.34314575,11 8,11 L3,11 C2.44771525,11 2,10.5522847 2,10 C2,9.44771525 2.44771525,9 3,9 L5.35120455,9 C5.35120455,8.82522647 5.37411347,8.65120687 5.41934591,8.482388 L7.10498019,2.19117541 C7.4577185,0.874667012 8.81091031,0.0933769874 10.1274187,0.446115295 C10.3849154,0.5151076 10.6295326,0.625365228 10.8517616,0.772602295 L11.447699,1.1674386 C11.7825039,1.38926244 12.2175343,1.38926244 12.5523392,1.1674386 L13.1482767,0.772602295 C14.2844713,0.0198204606 15.8157892,0.330637923 16.5685711,1.46683253 C16.7158081,1.68906154 16.8260658,1.93367871 16.8950581,2.19117541 L18.5806924,8.482388 C18.6270315,8.65533752 18.6492216,8.82906822 18.6493297,9 L21,9 C21.5522847,9 22,9.44771525 22,10 C22,10.5522847 21.5522847,11 21,11 L16,11 C17.6568542,11 19,12.3431458 19,14 C19,15.6568542 17.6568542,17 16,17 C14.3431458,17 13,15.6568542 13,14 C13,13.6493646 13.0601542,13.3127789 13.1707057,13 Z M20.6756566,14.6130487 C20.6806165,14.6001424 20.685571,14.5872171 20.6905202,14.5742727 C20.7399445,14.4454426 20.8843755,14.3809086 21.0132611,14.4301876 C21.0710833,14.4522956 21.118639,14.4950826 21.1467115,14.5502559 L22.9158249,18.0272461 C23.0410503,18.2733623 22.9430489,18.5743942 22.6969326,18.6996196 C22.6762536,18.7101412 22.6548673,18.7192107 22.6329288,18.7267623 L20.3333113,19.518327 C20.0722045,19.608204 19.9333955,19.8927326 20.0232725,20.1538393 C20.0366511,20.1927062 20.0547715,20.229775 20.0772233,20.2642066 L21.3652081,22.2394236 C21.5160394,22.4707341 21.450798,22.7805212 21.2194875,22.9313524 C21.1402104,22.9830469 21.0478895,23.0111796 20.953256,23.0124805 L12.0570275,22.9960144 L3.03592633,23.0122681 C2.94115401,23.0109887 2.84869737,22.9827984 2.76933357,22.9309832 C2.53810875,22.7800207 2.47304333,22.4701966 2.62400589,22.2389718 L3.91308128,20.2645337 C3.93563957,20.2299818 3.95383394,20.1927704 3.96724935,20.1537481 C4.05702674,19.8926071 3.91810908,19.6081315 3.65696806,19.5183541 L1.35429793,18.7267216 C1.33221711,18.7191305 1.31069516,18.710002 1.28989007,18.6994031 C1.04383668,18.5740542 0.945986335,18.2729732 1.07133521,18.0269198 L2.84281842,14.5495893 C2.87089499,14.4944765 2.91840945,14.4517315 2.97617438,14.4296196 C3.10509214,14.3802711 3.24960553,14.4447747 3.29895405,14.5736925 C3.30928561,14.6006803 3.31964026,14.6275853 3.330018,14.6544075 C3.90986504,18.8027739 7.57057478,22 12,22 C16.4441344,22 20.1144393,18.781504 20.6756566,14.6130487 Z M7.35120455,9 L16.6488337,9 L16.380899,8 L7.61913927,8 L7.35120455,9 Z M8.42294343,5 L15.5770948,5 L14.9631994,2.70878741 C14.9501205,2.6599734 14.9292188,2.61360099 14.9013068,2.57147272 C14.7586009,2.35608273 14.4683069,2.29716063 14.2529169,2.43986653 L13.6569794,2.83470284 C12.6525647,3.50017436 11.3474736,3.50017436 10.3430588,2.83470284 L9.74712139,2.43986653 C9.70499313,2.4119546 9.65862071,2.3910529 9.60980671,2.37797394 C9.36023438,2.31110485 9.10370792,2.45921508 9.03683883,2.70878741 L8.42294343,5 Z M8,15 C8.55228475,15 9,14.5522847 9,14 C9,13.4477153 8.55228475,13 8,13 C7.44771525,13 7,13.4477153 7,14 C7,14.5522847 7.44771525,15 8,15 Z M16,15 C16.5522847,15 17,14.5522847 17,14 C17,13.4477153 16.5522847,13 16,13 C15.4477153,13 15,13.4477153 15,14 C15,14.5522847 15.4477153,15 16,15 Z"/>
</svg>
