<svg xmlns="http://www.w3.org/2000/svg" width="24" height="24" viewBox="0 0 24 24">
  <path fill="#000000" d="M16,7 C16,4.790861 14.209139,3 12,3 C9.790861,3 8,4.790861 8,7 C8,7.55228475 7.55228475,8 7,8 C6.44771525,8 6,7.55228475 6,7 C6,3.6862915 8.6862915,1 12,1 C15.3137085,1 18,3.6862915 18,7 L18,10 C19.6568542,10 21,11.3431458 21,13 L21,20 C21,21.6568542 19.6568542,23 18,23 L6,23 C4.34314575,23 3,21.6568542 3,20 L3,13 C3,11.3431458 4.34314575,10 6,10 L16,10 L16,7 Z M6,12 C5.44771525,12 5,12.4477153 5,13 L5,20 C5,20.5522847 5.44771525,21 6,21 L18,21 C18.5522847,21 19,20.5522847 19,20 L19,13 C19,12.4477153 18.5522847,12 18,12 L6,12 Z M13,17.7324356 L13,19 C13,19.5522847 12.5522847,20 12,20 C11.4477153,20 11,19.5522847 11,19 L11,17.7324356 C10.4021986,17.3866262 10,16.7402824 10,16 C10,14.8954305 10.8954305,14 12,14 C13.1045695,14 14,14.8954305 14,16 C14,16.7402824 13.5978014,17.3866262 13,17.7324356 Z"/>
</svg>
