<svg xmlns="http://www.w3.org/2000/svg" width="24" height="24" viewBox="0 0 24 24">
  <path fill="#000000" d="M5,6 L5,5 C5,3.34314575 6.34314575,2 8,2 C9.65685425,2 11,3.34314575 11,5 L11,6 L12.1111111,6 C12.6020309,6 13,6.39796911 13,6.88888889 L13,10 L20,10 C21.6568542,10 23,11.3431458 23,13 L23,20 C23,21.6568542 21.6568542,23 20,23 L3,23 C1.34314575,23 3.33066907e-16,21.6568542 0,20 L0,13 C-1.66533454e-16,11.3431458 1.34314575,10 3,10 L3,6.88888889 C3,6.39796911 3.39796911,6 3.88888889,6 L5,6 Z M9,6 L9,5 C9,4.44771525 8.55228475,4 8,4 C7.44771525,4 7,4.44771525 7,5 L7,6 L9,6 Z M13,12 L13,12.1111111 C13,12.6020309 12.6020309,13 12.1111111,13 L3.88888889,13 C3.39796911,13 3,12.6020309 3,12.1111111 L3,12 C2.44771525,12 2,12.4477153 2,13 L2,20 C2,20.5522847 2.44771525,21 3,21 L20,21 C20.5522847,21 21,20.5522847 21,20 L21,13 C21,12.4477153 20.5522847,12 20,12 L13,12 Z M6.85151587,14.9432711 C7.07771846,14.7848823 7.38949135,14.8398563 7.54788011,15.0660589 C7.70626887,15.2922615 7.6512949,15.6040344 7.42509231,15.7624231 L6.3717234,16.5 L7.42509231,17.2375769 C7.6512949,17.3959656 7.70626887,17.7077385 7.54788011,17.9339411 C7.38949135,18.1601437 7.07771846,18.2151177 6.85151587,18.0567289 L6,17.4604911 L6,18.5 C6,18.7761424 5.77614237,19 5.5,19 C5.22385763,19 5,18.7761424 5,18.5 L5,17.4604911 L4.14848413,18.0567289 C3.92228154,18.2151177 3.61050865,18.1601437 3.45211989,17.9339411 C3.29373113,17.7077385 3.3487051,17.3959656 3.57490769,17.2375769 L4.6282766,16.5 L3.57490769,15.7624231 C3.3487051,15.6040344 3.29373113,15.2922615 3.45211989,15.0660589 C3.61050865,14.8398563 3.92228154,14.7848823 4.14848413,14.9432711 L5,15.5395089 L5,14.5 C5,14.2238576 5.22385763,14 5.5,14 C5.77614237,14 6,14.2238576 6,14.5 L6,15.5395089 L6.85151587,14.9432711 Z M12.8515159,14.9432711 C13.0777185,14.7848823 13.3894914,14.8398563 13.5478801,15.0660589 C13.7062689,15.2922615 13.6512949,15.6040344 13.4250923,15.7624231 L12.3717234,16.5 L13.4250923,17.2375769 C13.6512949,17.3959656 13.7062689,17.7077385 13.5478801,17.9339411 C13.3894914,18.1601437 13.0777185,18.2151177 12.8515159,18.0567289 L12,17.4604911 L12,18.5 C12,18.7761424 11.7761424,19 11.5,19 C11.2238576,19 11,18.7761424 11,18.5 L11,17.4604911 L10.1484841,18.0567289 C9.92228154,18.2151177 9.61050865,18.1601437 9.45211989,17.9339411 C9.29373113,17.7077385 9.3487051,17.3959656 9.57490769,17.2375769 L10.6282766,16.5 L9.57490769,15.7624231 C9.3487051,15.6040344 9.29373113,15.2922615 9.45211989,15.0660589 C9.61050865,14.8398563 9.92228154,14.7848823 10.1484841,14.9432711 L11,15.5395089 L11,14.5 C11,14.2238576 11.2238576,14 11.5,14 C11.7761424,14 12,14.2238576 12,14.5 L12,15.5395089 L12.8515159,14.9432711 Z M18.8515159,14.9432711 C19.0777185,14.7848823 19.3894914,14.8398563 19.5478801,15.0660589 C19.7062689,15.2922615 19.6512949,15.6040344 19.4250923,15.7624231 L18.3717234,16.5 L19.4250923,17.2375769 C19.6512949,17.3959656 19.7062689,17.7077385 19.5478801,17.9339411 C19.3894914,18.1601437 19.0777185,18.2151177 18.8515159,18.0567289 L18,17.4604911 L18,18.5 C18,18.7761424 17.7761424,19 17.5,19 C17.2238576,19 17,18.7761424 17,18.5 L17,17.4604911 L16.1484841,18.0567289 C15.9222815,18.2151177 15.6105086,18.1601437 15.4521199,17.9339411 C15.2937311,17.7077385 15.3487051,17.3959656 15.5749077,17.2375769 L16.6282766,16.5 L15.5749077,15.7624231 C15.3487051,15.6040344 15.2937311,15.2922615 15.4521199,15.0660589 C15.6105086,14.8398563 15.9222815,14.7848823 16.1484841,14.9432711 L17,15.5395089 L17,14.5 C17,14.2238576 17.2238576,14 17.5,14 C17.7761424,14 18,14.2238576 18,14.5 L18,15.5395089 L18.8515159,14.9432711 Z"/>
</svg>
