<svg xmlns="http://www.w3.org/2000/svg" width="24" height="24" viewBox="0 0 24 24">
  <path fill="#000000" d="M2,13 L2,12 C2,10.3431458 3.34314575,9 5,9 C6.65685425,9 8,10.3431458 8,12 L8,13 L9.11111111,13 C9.60203089,13 10,13.3979691 10,13.8888889 L10,16 L12,16 L12,11 C12,10.4477153 12.4477153,10 13,10 C13.5522847,10 14,10.4477153 14,11 L14,16 L21,16 C22.6568542,16 24,17.3431458 24,19 L24,21 C24,22.6568542 22.6568542,24 21,24 L5,24 C3.34314575,24 2,22.6568542 2,21 L2,20 L0.888888889,20 C0.397969111,20 4.96144686e-16,19.6020309 0,19.1111111 L0,13.8888889 C-6.01203334e-17,13.3979691 0.397969111,13 0.888888889,13 L2,13 Z M4,20 L4,21 C4,21.5522847 4.44771525,22 5,22 L21,22 C21.5522847,22 22,21.5522847 22,21 L22,19 C22,18.4477153 21.5522847,18 21,18 L10,18 L10,19.1111111 C10,19.6020309 9.60203089,20 9.11111111,20 L4,20 Z M4,13 L6,13 L6,12 C6,11.4477153 5.55228475,11 5,11 C4.44771525,11 4,11.4477153 4,12 L4,13 Z M17,21 C16.4477153,21 16,20.5522847 16,20 C16,19.4477153 16.4477153,19 17,19 C17.5522847,19 18,19.4477153 18,20 C18,20.5522847 17.5522847,21 17,21 Z M20,21 C19.4477153,21 19,20.5522847 19,20 C19,19.4477153 19.4477153,19 20,19 C20.5522847,19 21,19.4477153 21,20 C21,20.5522847 20.5522847,21 20,21 Z M13.0824933,4.99659141 C12.532091,5.04215089 12.0489684,4.63289486 12.0034089,4.08249248 C11.9578494,3.5320901 12.3671055,3.04896756 12.9175079,3.00340807 C15.0739888,2.82490565 16.945329,3.37646413 18.471675,4.65722049 C20.006505,5.94509578 20.8512519,7.72583325 20.997805,9.9337699 C21.0343827,10.4848421 20.6173026,10.9612264 20.0662304,10.9978041 C19.5151583,11.0343819 19.0387739,10.6173017 19.0021962,10.0662296 C18.8905533,8.38424136 18.2878914,7.1138223 17.1860998,6.18930938 C16.0758242,5.25767753 14.7279066,4.86039254 13.0824933,4.99659141 Z M13.0531397,2.00412405 C12.5019783,2.03933176 12.0266322,1.62106866 11.9914245,1.06990729 C11.9562168,0.518745911 12.3744799,0.0433998526 12.9256413,0.00819214984 C15.6173038,-0.163748875 18.1098149,0.61663943 20.3624212,2.32903593 C22.6773516,4.08881019 23.8922542,6.66449252 23.9994688,9.96755339 C24.0173861,10.5195474 23.5844313,10.9815518 23.0324373,10.9994691 C22.4804433,11.0173864 22.0184389,10.5844316 22.0005216,10.0324376 C21.9120574,7.30704045 20.9651264,5.29947736 19.1520685,3.92121877 C17.2766865,2.49558244 15.2572947,1.86332457 13.0531397,2.00412405 Z M13.0628663,7.99800894 C12.5116738,8.03272597 12.0367003,7.61403987 12.0019832,7.06284737 C11.9672662,6.51165487 12.3859523,6.03668135 12.9371448,6.00196433 C14.3933135,5.9102471 15.5601174,6.18943205 16.399592,6.89344524 C17.2015791,7.56602009 17.72677,8.54448543 17.9914273,9.79254429 C18.1059946,10.3328153 17.7608935,10.8636666 17.2206224,10.9782339 C16.6803514,11.0928011 16.1495001,10.7477 16.0349328,10.207429 C15.8570431,9.36854468 15.5447894,8.78679544 15.1144342,8.4258843 C14.7215665,8.09641149 14.0503653,7.93581102 13.0628663,7.99800894 Z"/>
</svg>
