<svg xmlns="http://www.w3.org/2000/svg" width="24" height="24" viewBox="0 0 24 24">
  <path fill="#000000" d="M16,20 L8,20 L8,21 C8,21.5522847 7.55228475,22 7,22 L5,22 C4.44771525,22 4,21.5522847 4,21 L4,20 C2.34314575,20 1,18.6568542 1,17 L1,5 C1,3.34314575 2.34314575,2 4,2 L20,2 C21.6568542,2 23,3.34314575 23,5 L23,17 C23,18.6568542 21.6568542,20 20,20 L20,21 C20,21.5522847 19.5522847,22 19,22 L17,22 C16.4477153,22 16,21.5522847 16,21 L16,20 Z M4,4 C3.44771525,4 3,4.44771525 3,5 L3,17 C3,17.5522847 3.44771525,18 4,18 L20,18 C20.5522847,18 21,17.5522847 21,17 L21,5 C21,4.44771525 20.5522847,4 20,4 L4,4 Z M18,10.9146471 L18,14 C18,14.5522847 17.5522847,15 17,15 C16.4477153,15 16,14.5522847 16,14 L16,10.9146471 C15.4174038,10.7087289 15,10.1531094 15,9.5 L15,8.5 C15,7.67157288 15.6715729,7 16.5,7 L17.5,7 C18.3284271,7 19,7.67157288 19,8.5 L19,9.5 C19,10.1531094 18.5825962,10.7087289 18,10.9146471 Z M9,15 C6.790861,15 5,13.209139 5,11 C5,8.790861 6.790861,7 9,7 C11.209139,7 13,8.790861 13,11 C13,13.209139 11.209139,15 9,15 Z M9,13 C10.1045695,13 11,12.1045695 11,11 C11,9.8954305 10.1045695,9 9,9 C7.8954305,9 7,9.8954305 7,11 C7,12.1045695 7.8954305,13 9,13 Z"/>
</svg>
