<svg width="25" height="24" viewBox="0 0 25 24" fill="none" xmlns="http://www.w3.org/2000/svg">
<path d="M20.0255 18.2882V11.2767L19.0243 11.6271V16.2974C19.0243 17.1593 18.4727 17.9246 17.655 18.1972L12.6486 19.8659C12.2375 20.003 11.7931 20.003 11.3821 19.8659L6.37571 18.1972C5.55798 17.9246 5.00642 17.1593 5.00642 16.2974V11.6268L1.35764 10.3497C0.313761 9.98428 -0.23628 8.84186 0.129094 7.79797C0.312886 7.27288 0.706835 6.8479 1.21652 6.6249L11.2127 2.25141C11.7244 2.02754 12.3063 2.02753 12.818 2.25136L22.8156 6.62485C23.8289 7.06811 24.291 8.24885 23.8477 9.26212C23.6247 9.77189 23.1997 10.1659 22.6745 10.3497L22.0281 10.5759V18.2882C22.6267 18.6345 23.0294 19.2816 23.0294 20.0229C23.0294 21.1289 22.1328 22.0254 21.0268 22.0254C19.9208 22.0254 19.0243 21.1289 19.0243 20.0229C19.0243 19.2816 19.427 18.6345 20.0255 18.2882V18.2882Z" fill="white"/>
</svg>
