<svg xmlns="http://www.w3.org/2000/svg" width="24" height="24" viewBox="0 0 24 24">
  <path d="M5,22 L5,14 C4.44771525,14 4,13.5522847 4,13 C4,12.4477153 4.44771525,12 5,12 L6.18825734,12 L6.4365131,10.4761076 C6.62317096,9.06322223 7.53279731,7.90385631 8.76317672,7.35058297 C8.28315737,6.69072052 8,5.87842773 8,5 C8,2.790861 9.790861,1 12,1 C14.209139,1 16,2.790861 16,5 C16,5.87846417 15.7168191,6.6907879 15.2367636,7.35066507 C16.4670504,7.903971 17.376596,9.06329212 17.5632446,10.4761076 L17.7685761,12 L19,12 C19.5522847,12 20,12.4477153 20,13 C20,13.5522847 19.5522847,14 19,14 L19,22 C19.5522847,22 20,22.4477153 20,23 C20,23.5522847 19.5522847,24 19,24 L5,24 C4.44771525,24 4,23.5522847 4,23 C4,22.4477153 4.44771525,22 5,22 Z M17,22 L17,14 L7,14 L7,22 L17,22 L17,22 Z M15.7860551,12 L15.5804728,10.7380538 C15.4490649,9.74337729 14.6010201,9 13.5977009,9 L10.4020568,9 C9.3987376,9 8.55069277,9.74337729 8.41928495,10.7380538 L8.21370257,12 L15.7860551,12 L15.7860551,12 Z M12,7 C13.1045695,7 14,6.1045695 14,5 C14,3.8954305 13.1045695,3 12,3 C10.8954305,3 10,3.8954305 10,5 C10,6.1045695 10.8954305,7 12,7 Z M12,19.6 L10.8295629,20.4144619 C10.6028984,20.5721889 10.2912875,20.5163041 10.1335604,20.2896396 C10.0462348,20.1641466 10.0211231,20.0055976 10.0653953,19.8592616 L10.4783096,18.4944272 L9.34202536,17.6329579 C9.12197484,17.4661275 9.07883142,17.1524985 9.24566183,16.932448 C9.33802761,16.8106169 9.48105671,16.7377399 9.63391141,16.734625 L11.0595436,16.7055728 L11.5277184,15.3586936 C11.6183842,15.0978597 11.903331,14.9599112 12.1641649,15.050577 C12.3085758,15.1007742 12.4220844,15.2142828 12.4722816,15.3586936 L12.9404564,16.7055728 L14.3660886,16.734625 C14.6421736,16.7402512 14.8614239,16.9686233 14.8557977,17.2447083 C14.8526827,17.397563 14.7798058,17.5405921 14.6579746,17.6329579 L13.5216904,18.4944272 L13.9346047,19.8592616 C14.0145689,20.1235727 13.8651262,20.4026629 13.6008151,20.482627 C13.4544791,20.5268992 13.2959301,20.5017876 13.1704371,20.4144619 L12,19.6 Z M11,9 L13,9 L13,10 C13,10.5522847 12.5522847,11 12,11 C11.4477153,11 11,10.5522847 11,10 L11,9 Z"/>
</svg>
