<svg xmlns="http://www.w3.org/2000/svg" width="24" height="24" viewBox="0 0 24 24">
  <path d="M21,16 L21,21 L22,21 C22.5522847,21 23,21.4477153 23,22 C23,22.5522847 22.5522847,23 22,23 L2,23 C1.44771525,23 1,22.5522847 1,22 C1,21.4477153 1.44771525,21 2,21 L3,21 L3,16 C2.44771525,16 2,15.5522847 2,15 C2,14.4477153 2.44771525,14 3,14 L5,14 L5,10 C4.44771525,10 4,9.55228475 4,9 C4,8.44771525 4.44771525,8 5,8 L6.08295844,8 C6.50447689,5.48749513 8.48749513,3.50447689 11,3.08295844 L11,1 C11,0.44771525 11.4477153,0 12,0 C12.5522847,0 13,0.44771525 13,1 L13,3.08295844 C15.5125049,3.50447689 17.4955231,5.48749513 17.9170416,8 L19,8 C19.5522847,8 20,8.44771525 20,9 C20,9.55228475 19.5522847,10 19,10 L19,14 L21,14 C21.5522847,14 22,14.4477153 22,15 C22,15.5522847 21.5522847,16 21,16 Z M19,16 L17,16 L17,21 L19,21 L19,16 Z M15,16 L13,16 L13,21 L15,21 L15,16 Z M11,16 L9,16 L9,21 L11,21 L11,16 Z M17,14 L17,10 L15,10 L15,14 L17,14 Z M13,14 L13,10 L11,10 L11,14 L13,14 Z M9,14 L9,10 L7,10 L7,14 L9,14 Z M7,21 L7,16 L5,16 L5,21 L7,21 Z M8.12601749,8 L15.8739825,8 C15.4299397,6.27477279 13.8638394,5 12,5 C10.1361606,5 8.57006028,6.27477279 8.12601749,8 Z"/>
</svg>
