<svg xmlns="http://www.w3.org/2000/svg" width="24" height="24" viewBox="0 0 24 24">
  <path d="M2.47117613,17.6147094 C2.17290829,17.148557 2,16.594471 2,16 C2,14.3431458 3.34314575,13 5,13 C6.65685425,13 8,14.3431458 8,16 C8,16.5944986 7.82707562,17.1486086 7.52878224,17.6147745 C8.41815096,18.2348923 9.00007605,19.2654075 9.00007605,20.4318385 C8.99985131,20.47994 8.99985131,20.47994 8.99872773,20.5280288 L8.95588213,22.0560575 C8.92553432,23.13837 8.03940571,24 6.95666789,24 L3.04334967,24 C1.96061186,24 1.07448325,23.13837 1.04413544,22.0560575 L1.00128984,20.5280288 C0.967629735,19.3275883 1.55460401,18.2538723 2.47117613,17.6147094 L2.47117613,17.6147094 Z M4,19.0662463 C3.40549311,19.2539181 2.98216274,19.8178532 3.00050407,20.4719712 L3.04334967,22 L6.95666789,22 L6.9995135,20.4719712 C6.99998228,20.4519075 6.99998228,20.4519075 7.00007605,20.4318385 C7.00007605,19.7915262 6.57977013,19.2493815 6,19.0662463 L6,20 C6,20.5522847 5.55228475,21 5,21 C4.44771525,21 4,20.5522847 4,20 L4,19.0662463 L4,19.0662463 Z M5,17 C5.55228475,17 6,16.5522847 6,16 C6,15.4477153 5.55228475,15 5,15 C4.44771525,15 4,15.4477153 4,16 C4,16.5522847 4.44771525,17 5,17 Z M2.47117613,4.61470945 C2.17290829,4.14855701 2,3.59447095 2,3 C2,1.34314575 3.34314575,0 5,0 C6.65685425,0 8,1.34314575 8,3 C8,3.59449861 7.82707562,4.14860857 7.52878224,4.61477451 C8.41815096,5.23489234 9.00007605,6.2654075 9.00007605,7.43183855 C8.99985131,7.47993996 8.99985131,7.47993996 8.99872773,7.52802877 L8.95588213,9.05605755 C8.92553432,10.13837 8.03940571,11 6.95666789,11 L3.04334967,11 C1.96061186,11 1.07448325,10.13837 1.04413544,9.05605755 L1.00128984,7.52802877 C0.967629735,6.32758826 1.55460401,5.25387228 2.47117613,4.61470945 L2.47117613,4.61470945 Z M5,4 C5.55228475,4 6,3.55228475 6,3 C6,2.44771525 5.55228475,2 5,2 C4.44771525,2 4,2.44771525 4,3 C4,3.55228475 4.44771525,4 5,4 Z M4,6.06624629 C3.40549311,6.25391812 2.98216274,6.8178532 3.00050407,7.47197123 L3.04334967,9 L6.95666789,9 L6.9995135,7.47197123 C6.99998228,7.45190752 6.99998228,7.45190752 7.00007605,7.43183855 C7.00007605,6.79152619 6.57977013,6.24938154 6,6.06624629 L6,7 C6,7.55228475 5.55228475,8 5,8 C4.44771525,8 4,7.55228475 4,7 L4,6.06624629 L4,6.06624629 Z M11,3 L23,3 C23.5522847,3 24,3.44771525 24,4 L24,8 C24,8.55228475 23.5522847,9 23,9 L11,9 C10.4477153,9 10,8.55228475 10,8 L10,4 C10,3.44771525 10.4477153,3 11,3 Z M19,7 L22,7 L22,5 L19,5 L19,7 Z M11,16 L23,16 C23.5522847,16 24,16.4477153 24,17 L24,21 C24,21.5522847 23.5522847,22 23,22 L11,22 C10.4477153,22 10,21.5522847 10,21 L10,17 C10,16.4477153 10.4477153,16 11,16 Z M15,20 L22,20 L22,18 L15,18 L15,20 Z"/>
</svg>
