<svg xmlns="http://www.w3.org/2000/svg" width="24" height="24" viewBox="0 0 24 24">
  <path d="M11,12 L8,12 C6.8954305,12 6,11.1045695 6,10 L6,3 C6,1.8954305 6.8954305,1 8,1 L19,1 C20.1045695,1 21,1.8954305 21,3 L21,10 C21,11.1045695 20.1045695,12 19,12 L16,12 L16,15.3395398 C16.9787438,15.702964 17.7396862,16.5676941 17.9192385,17.6718513 C17.9621764,17.9358982 17.9696038,18.2045021 17.9413232,18.4705183 L17.7337662,20.4228636 C17.5175298,22.4568501 15.8016291,24 13.7561807,24 L9.96428488,24 C8.92307331,24 7.86212825,23.8739656 6.78224969,23.623026 C6.5990253,23.8527726 6.31670605,24 6,24 L4,24 C2.8954305,24 2,23.1045695 2,22 L2,17 C2,15.8954305 2.8954305,15 4,15 L6,15 C6.22321421,15 6.42934706,15.073134 6.59574401,15.1967475 C8.12055278,13.595856 9.46403261,12.7677204 10.7175607,12.7354715 C10.8132338,12.7354715 10.9074998,12.741496 11,12.7531864 L11,12 Z M14,12 L13,12 L13,15.4323855 L14,15.2697708 L14,12 L14,12 Z M5,17 L4,17 L4,22 L5,22 L5,17 Z M6.53968217,21.4945267 C7.71932365,21.8322283 8.86034818,22 9.96428488,22 L13.7561807,22 C14.7789049,22 15.6368552,21.228425 15.7449735,20.2114318 L15.9525305,18.2590865 C15.9619574,18.1704144 15.9594815,18.0808798 15.9451689,17.9928642 C15.8565237,17.4477399 15.342752,17.0776905 14.7976277,17.1663358 L10.9724493,17.7883662 C10.0654138,17.9358635 9.456389,16.8846532 10.0355012,16.1711423 L10.8962408,15.1106446 C10.9295281,15.069636 10.9476964,15.0184252 10.9476964,14.9656071 C10.9476964,14.8385067 10.8446612,14.7354715 10.7434719,14.7351357 C9.8807927,14.7574963 8.41447653,15.9410543 6.53968217,18.3414068 L6.53968217,21.4945267 Z M8,3 L8,10 L19,10 L19,3 L8,3 Z M10,4 L16,4 C16.5522847,4 17,4.44771525 17,5 C17,5.55228475 16.5522847,6 16,6 L10,6 C9.44771525,6 9,5.55228475 9,5 C9,4.44771525 9.44771525,4 10,4 Z M10,7 L14,7 C14.5522847,7 15,7.44771525 15,8 C15,8.55228475 14.5522847,9 14,9 L10,9 C9.44771525,9 9,8.55228475 9,8 C9,7.44771525 9.44771525,7 10,7 Z"/>
</svg>
