<svg xmlns="http://www.w3.org/2000/svg" width="24" height="24" viewBox="0 0 24 24">
  <path d="M8,4 C7.44771525,4 7,4.44771525 7,5 L7,19 C7,19.5522847 7.44771525,20 8,20 C8.55228475,20 9,19.5522847 9,19 L9,5 C9,4.44771525 8.55228475,4 8,4 Z M8,2 C9.65685425,2 11,3.34314575 11,5 L11,19 C11,20.6568542 9.65685425,22 8,22 C6.34314575,22 5,20.6568542 5,19 L5,5 C5,3.34314575 6.34314575,2 8,2 Z M16,4 C15.4477153,4 15,4.44771525 15,5 L15,19 C15,19.5522847 15.4477153,20 16,20 C16.5522847,20 17,19.5522847 17,19 L17,5 C17,4.44771525 16.5522847,4 16,4 Z M16,2 C17.6568542,2 19,3.34314575 19,5 L19,19 C19,20.6568542 17.6568542,22 16,22 C14.3431458,22 13,20.6568542 13,19 L13,5 C13,3.34314575 14.3431458,2 16,2 Z"/>
</svg>
