<svg xmlns="http://www.w3.org/2000/svg" width="24" height="24" viewBox="0 0 24 24">
  <path d="M5.64921894,15.7781746 L4,15.7781746 C2.8954305,15.7781746 2,14.8827441 2,13.7781746 L2,9.77817459 C2,8.67360509 2.8954305,7.77817459 4,7.77817459 L5.64921894,7.77817459 L10.375305,3.99730578 C11.0300683,3.47349511 12,3.93966838 12,4.77817459 L12,18.7781746 C12,19.6166808 11.0300683,20.0828541 10.375305,19.5590434 L5.64921894,15.7781746 Z M10,6.85879944 L6.62469505,9.5590434 C6.447382,9.70089384 6.2270715,9.77817459 6,9.77817459 L4,9.77817459 L4,13.7781746 L6,13.7781746 C6.2270715,13.7781746 6.447382,13.8554553 6.62469505,13.9973058 L10,16.6975497 L10,6.85879944 Z M18.4852814,20.263456 C18.0947571,20.6539803 17.4615921,20.6539803 17.0710678,20.263456 C16.6805435,19.8729317 16.6805435,19.2397667 17.0710678,18.8492424 C20.9763107,14.9439995 20.9763107,8.6123497 17.0710678,4.70710678 C16.6805435,4.31658249 16.6805435,3.68341751 17.0710678,3.29289322 C17.4615921,2.90236893 18.0947571,2.90236893 18.4852814,3.29289322 C23.1715729,7.97918472 23.1715729,15.5771645 18.4852814,20.263456 Z M15.6568542,17.4350288 C15.26633,17.8255531 14.633165,17.8255531 14.2426407,17.4350288 C13.8521164,17.0445046 13.8521164,16.4113396 14.2426407,16.0208153 C16.5857864,13.6776695 16.5857864,9.87867966 14.2426407,7.53553391 C13.8521164,7.14500961 13.8521164,6.51184464 14.2426407,6.12132034 C14.633165,5.73079605 15.26633,5.73079605 15.6568542,6.12132034 C18.7810486,9.24551468 18.7810486,14.3108345 15.6568542,17.4350288 Z"/>
</svg>
