<svg xmlns="http://www.w3.org/2000/svg" width="24" height="24" viewBox="0 0 24 24">
  <path d="M11,14.2287994 L3.66436384,20.7493649 C3.01946258,21.3226104 2,20.8648044 2,20.0019555 L2,4.00195555 C2,3.13910672 3.01946258,2.68130067 3.66436384,3.25454623 L11,9.77511171 L11,4.00195555 C11,3.13910672 12.0194626,2.68130067 12.6643638,3.25454623 L21.6643638,11.2545462 C22.1118787,11.6523372 22.1118787,12.3515739 21.6643638,12.7493649 L12.6643638,20.7493649 C12.0194626,21.3226104 11,20.8648044 11,20.0019555 L11,14.2287994 Z M19.4948007,12.0019555 L13,6.22879939 L13,17.7751117 L19.4948007,12.0019555 Z M4,6.22879939 L4,17.7751117 L10.4948007,12.0019555 L4,6.22879939 Z"/>
</svg>
