<svg xmlns="http://www.w3.org/2000/svg" width="24" height="24" viewBox="0 0 24 24">
  <path d="M12,23 C7.5,23 4,19 4,14 C4,9 8.5,1 12,1 C15.5,1 20,9 20,14 C20,19 16.5,23 12,23 Z M12,21 C15.3178862,21 18,17.9680452 18,14 C18,11.988794 17.0515478,9.09679204 15.5939142,6.64796772 C14.8885535,5.46296168 14.1168301,4.47446201 13.383741,3.81029587 C12.7641244,3.24893378 12.265193,3 12,3 C11.734807,3 11.2358756,3.24893378 10.616259,3.81029587 C9.88316993,4.47446201 9.11144651,5.46296168 8.40608577,6.64796772 C6.94845225,9.09679204 6,11.988794 6,14 C6,17.9680452 8.68211384,21 12,21 Z M12,19 C9.70316251,19 8,17.4051266 8,15 C8,12.7327125 10.2521105,10 12,10 C13.7478895,10 16,12.7327125 16,15 C16,17.4051266 14.2968375,19 12,19 Z M12,17 C13.2205657,17 14,16.2701231 14,15 C14,13.7610923 12.5486309,12 12,12 C11.4513691,12 10,13.7610923 10,15 C10,16.2701231 10.7794343,17 12,17 Z"/>
</svg>
