<svg xmlns="http://www.w3.org/2000/svg" width="24" height="24" viewBox="0 0 24 24">
  <path d="M23,12 L23,16 C23,16.7402824 22.5978014,17.3866262 22,17.7324356 L22,18 C22,20.209139 20.209139,22 18,22 L6,22 C3.790861,22 2,20.209139 2,18 L2,17.7324356 C1.40219863,17.3866262 1,16.7402824 1,16 L1,12 C1,11.2597176 1.40219863,10.6133738 2,10.2675644 L2,10 C2,4.66666667 5.33333333,2 12,2 C18.6666667,2 22,4.66666667 22,10 L22,10.2675644 C22.5978014,10.6133738 23,11.2597176 23,12 Z M12,4 C6.35208282,4 4,5.88166626 4,10 L7,10 L10,12 L13,10 L20,10 C20,5.88166626 17.6479172,4 12,4 Z M4,18 C4,19.1045695 4.8954305,20 6,20 L18,20 C19.1045695,20 20,19.1045695 20,18 L4,18 Z M11.1094004,13.6641006 C10.4376016,14.1119665 9.56239843,14.1119665 8.89059961,13.6641006 L6.39444872,12 L3,12 L3,16 L21,16 L21,12 L13.6055513,12 L11.1094004,13.6641006 Z M17,9 C16.4477153,9 16,8.55228475 16,8 C16,7.44771525 16.4477153,7 17,7 C17.5522847,7 18,7.44771525 18,8 C18,8.55228475 17.5522847,9 17,9 Z M14,7 C13.4477153,7 13,6.55228475 13,6 C13,5.44771525 13.4477153,5 14,5 C14.5522847,5 15,5.44771525 15,6 C15,6.55228475 14.5522847,7 14,7 Z M8,7 C7.44771525,7 7,6.55228475 7,6 C7,5.44771525 7.44771525,5 8,5 C8.55228475,5 9,5.44771525 9,6 C9,6.55228475 8.55228475,7 8,7 Z M11,9 C10.4477153,9 10,8.55228475 10,8 C10,7.44771525 10.4477153,7 11,7 C11.5522847,7 12,7.44771525 12,8 C12,8.55228475 11.5522847,9 11,9 Z"/>
</svg>
