<svg xmlns="http://www.w3.org/2000/svg" width="24" height="24" viewBox="0 0 24 24">
  <path d="M14.0521575,10.1003211 C14.0181977,10.2263606 14.0005853,10.35792 14.0005853,10.4925765 C14.0005853,11.3210036 14.6721582,11.9925765 15.5005853,11.9925765 C16.1865246,11.9925765 16.7649266,11.5321547 16.9436022,10.9035002 L14.0521575,10.1003211 Z M2.2135838,5.37509149 C2.24135491,5.33985002 2.27141128,5.30657931 2.30349109,5.27547838 C3.05608086,4.52607479 4.13802229,3.80582402 5.55337169,3.09814932 C6.93371892,2.40797571 9.10834499,2.05665502 12.1237078,2.00052158 C12.9385929,1.98533452 13.7245823,2.30235994 14.3008953,2.878673 L21.7025444,10.280322 C21.7082432,10.2859423 21.7138727,10.2916288 21.7194315,10.2973802 C21.9464595,10.5310836 22.0276161,10.8138129 22.0005853,11.0809821 L22.0005853,20.9925765 C22.0005853,21.6105159 21.445718,22.0805591 20.8361863,21.9789704 L11.5239311,20.4269279 C11.1857071,20.3705572 10.8999486,20.1448264 10.7668013,19.8288438 C10.3017605,18.7252187 9.21885088,17.9925765 8.00058528,17.9925765 C7.13389928,17.9925765 6.32892588,18.3607718 5.76243926,18.9948428 C5.53400692,19.2505281 5.19050803,19.3713574 4.8523082,19.3149908 L2.8361863,18.9789704 C2.35399833,18.8986058 2.00058528,18.4814157 2.00058528,17.9925765 L2.00058528,13.9425675 C2.00058528,13.4669661 2.33555746,13.0571666 2.80165309,12.9625542 C3.49391888,12.8220317 4.00058528,12.2090321 4.00058528,11.4925765 C4.00058528,10.7761209 3.49391888,10.1631214 2.80165309,10.0225988 C2.33555746,9.92798641 2.00058528,9.51818693 2.00058528,9.04258557 L2.00058528,6.02302584 C1.99292263,5.79827582 2.06031728,5.56859379 2.2135838,5.37509149 Z M5.2082119,5.5679427 L17.6054018,9.01160655 L12.8866818,4.29288656 C12.6945793,4.10078406 12.432591,3.99511222 12.1609542,4.00017473 C9.41891436,4.05122003 7.49903619,4.36138504 6.44779888,4.8870037 C5.989849,5.11597864 5.57658515,5.34323696 5.2082119,5.5679427 Z M4.00058528,7.30821772 L4.00058528,8.32925263 C5.19442476,8.89550198 6.00058528,10.11099 6.00058528,11.4925765 C6.00058528,12.874163 5.19442476,14.089651 4.00058528,14.6559004 L4.00058528,17.1454494 L4.67577722,17.2579814 C5.57973061,16.4523225 6.75394257,15.9925765 8.00058528,15.9925765 C9.83473943,15.9925765 11.4851086,16.9895316 12.3578508,18.538327 L20.0005853,19.8121161 L20.0005853,11.7526622 L18.8711439,11.4389284 C18.458356,12.9121664 17.1056423,13.9925765 15.5005853,13.9925765 C13.5675887,13.9925765 12.0005853,12.4255731 12.0005853,10.4925765 C12.0005853,10.1750119 12.0431989,9.86356008 12.1250712,9.56501937 L4.00058528,7.30821772 Z"/>
</svg>
