<svg xmlns="http://www.w3.org/2000/svg" width="24" height="24" viewBox="0 0 24 24">
  <path d="M15,17 C15.5522847,17 16,16.5522847 16,16 L16,7 C16,4.790861 14.209139,3 12,3 C9.790861,3 8,4.790861 8,7 L8,16 C8,16.5522847 8.44771525,17 9,17 L10,17 L10,10 C10,9.44771525 10.4477153,9 11,9 C11.5522847,9 12,9.44771525 12,10 L12,17 L15,17 Z M13,19 L13,23 C13,23.5522847 12.5522847,24 12,24 C11.4477153,24 11,23.5522847 11,23 L11,19 L9,19 C7.34314575,19 6,17.6568542 6,16 L6,7 C6,3.6862915 8.6862915,1 12,1 C15.3137085,1 18,3.6862915 18,7 L18,16 C18,17.6568542 16.6568542,19 15,19 L13,19 Z"/>
</svg>
