<svg xmlns="http://www.w3.org/2000/svg" width="24" height="24" viewBox="0 0 24 24">
  <path d="M6.91578446,10.4104203 C5.82619241,12.8620024 4.73077317,16.0112102 3.63246622,19.8542956 C5.95225812,18.5056509 8.27337496,17.31514 10.5958344,16.2829358 C13.1731913,15.1374439 16.4616464,13.9508377 20.4648169,12.7205112 C19.1164552,8.09211982 15.3598665,4.50336652 10.663802,3.37637731 C9.20609984,5.72325704 7.95687957,8.06795629 6.91578446,10.4104203 Z M10.9829605,0.372355191 C17.2573791,1.72019971 22.2085702,6.63395292 23.6059481,12.8956533 C23.7205821,13.4093326 23.4174301,13.9239468 22.9125714,14.0726916 C18.1245781,15.4833617 14.287912,16.8306475 11.4081114,18.1105589 C8.45146599,19.4246235 5.49251508,21.0052078 2.53129847,22.8527006 C1.76185965,23.3327508 0.802061344,22.6229065 1.03573797,21.7466192 C2.38153262,16.6998893 3.73064091,12.6525644 5.08816137,9.59814335 C6.39298509,6.66228996 8.00967909,3.72970749 9.93760877,0.800298136 C10.1644194,0.455668843 10.5795944,0.285705748 10.9829605,0.372355191 Z M11.5019729,11.0042818 C10.6735458,11.0042818 10.0019729,10.3327089 10.0019729,9.50428181 C10.0019729,8.67585469 10.6735458,8.00428181 11.5019729,8.00428181 C12.3304,8.00428181 13.0019729,8.67585469 13.0019729,9.50428181 C13.0019729,10.3327089 12.3304,11.0042818 11.5019729,11.0042818 Z M8.50197291,15.0042818 C7.67354579,15.0042818 7.00197291,14.3327089 7.00197291,13.5042818 C7.00197291,12.6758547 7.67354579,12.0042818 8.50197291,12.0042818 C9.33040004,12.0042818 10.0019729,12.6758547 10.0019729,13.5042818 C10.0019729,14.3327089 9.33040004,15.0042818 8.50197291,15.0042818 Z M15.5019729,13.0042818 C14.6735458,13.0042818 14.0019729,12.3327089 14.0019729,11.5042818 C14.0019729,10.6758547 14.6735458,10.0042818 15.5019729,10.0042818 C16.3304,10.0042818 17.0019729,10.6758547 17.0019729,11.5042818 C17.0019729,12.3327089 16.3304,13.0042818 15.5019729,13.0042818 Z M12.0019729,14.0042818 C11.4496882,14.0042818 11.0019729,13.5565666 11.0019729,13.0042818 C11.0019729,12.4519971 11.4496882,12.0042818 12.0019729,12.0042818 C12.5542577,12.0042818 13.0019729,12.4519971 13.0019729,13.0042818 C13.0019729,13.5565666 12.5542577,14.0042818 12.0019729,14.0042818 Z"/>
</svg>
