<?xml version="1.0" encoding="UTF-8"?>
<svg width="24px" height="24px" viewBox="0 0 24 24" version="1.1" xmlns="http://www.w3.org/2000/svg" xmlns:xlink="http://www.w3.org/1999/xlink">
    <!-- Generator: Sketch 52.3 (67297) - http://www.bohemiancoding.com/sketch -->
    <title>jollycons-[category]/icons/svg/icon-christmas-and-new-year-fireworks</title>
    <desc>Created with Sketch.</desc>
    <g id="icons" stroke="none" stroke-width="1" fill="none" fill-rule="evenodd">
        <g id="icons---export" transform="translate(-252.000000, -218.000000)">
            <g id="row-3" transform="translate(60.000000, 218.000000)" fill="#000000" fill-rule="nonzero">
                <g id="icon---14" transform="translate(192.000000, 0.000000)">
                    <path d="M21.0292807,8.37200461 L6.62168656,22.729904 C6.23111964,23.1201796 5.59815815,23.1200615 5.2077369,22.7296402 L5.20747299,22.7299041 C4.8169487,22.3393799 4.8169487,21.7062149 5.20747299,21.3156906 L12.5792987,13.9819803 L9.04376456,10.4464462 C8.26271598,9.66539757 8.26271598,8.39906761 9.04376456,7.61801903 L13.993512,2.66827156 L14.7093728,1.99795868 C14.7246213,1.9805672 14.7405411,1.96355905 14.7571321,1.94696799 C15.0193422,1.74276418 14.9675938,1.77049899 15.2254273,1.67585599 L21.0985683,0.087199447 C21.8982561,-0.129112304 22.7218866,0.343807499 22.9381983,1.14349539 C23.0071521,1.39841221 23.0075857,1.66701501 22.9394552,1.92215309 L21.3664686,7.81274399 C21.3208237,7.98367709 21.2355393,8.13344689 21.1231409,8.25480757 C21.0963716,8.29705554 21.0649281,8.33638385 21.0292807,8.37200461 Z M17.3316704,3.17800341 L19.8591099,5.70544286 L20.7833403,2.24434322 L17.3316704,3.17800341 Z M13.993512,12.5677665 L18.9432595,7.61801903 L15.4077256,4.08248512 L10.4579781,9.03223259 L13.993512,12.5677665 Z M1.2650225,17.0931903 L0.510301041,16.9108329 C0.376091929,16.8784051 0.293581934,16.7433191 0.326009809,16.60911 C0.341522876,16.5449061 0.381813772,16.4894505 0.438081478,16.4548566 L1.09951273,16.0482027 L1.03972308,15.2740684 C1.02909093,15.1364072 1.13206833,15.0161917 1.26972954,15.0055595 C1.33558485,15.0004733 1.40077689,15.0216554 1.45106531,15.0644791 L2.04220962,15.5678746 L2.75997904,15.2717907 C2.88761712,15.2191392 3.03377065,15.2799279 3.08642208,15.407566 C3.11160984,15.4686264 3.11160984,15.5371733 3.08642208,15.5982337 L2.79033811,16.3160031 L3.29373365,16.9071474 C3.38325048,17.0122683 3.37060093,17.1700533 3.26548009,17.2595701 C3.21519167,17.3023938 3.14999963,17.3235759 3.08414432,17.3184897 L2.31001005,17.2587 L1.90335618,17.9201313 C1.83104255,18.037751 1.67707116,18.0744788 1.55945148,18.0021651 C1.50318377,17.9675712 1.46289288,17.9121156 1.44737981,17.8479117 L1.2650225,17.0931903 Z M0.99114145,13.1530117 L0.571165138,13.0515361 C0.436956026,13.0191083 0.354446031,12.8840223 0.386873906,12.7498132 C0.402386974,12.6856093 0.442677869,12.6301536 0.498945575,12.5955598 L0.867009124,12.369271 L0.83373826,11.9384921 C0.823106105,11.8008309 0.926083505,11.6806154 1.06374472,11.6699832 C1.12960003,11.6648969 1.19479207,11.6860791 1.24508049,11.7289028 L1.57403179,12.0090249 L1.97344558,11.8442645 C2.10108366,11.791613 2.24723719,11.8524017 2.29988862,11.9800398 C2.32507637,12.0411002 2.32507637,12.1096472 2.29988862,12.1707075 L2.13512816,12.5701213 L2.41525032,12.8990726 C2.50476714,13.0041935 2.49211759,13.1619785 2.38699675,13.2514953 C2.33670833,13.2943189 2.27151629,13.3155011 2.20566098,13.3104148 L1.77488211,13.277144 L1.54859334,13.6452075 C1.47627971,13.7628272 1.32230832,13.799555 1.20468864,13.7272414 C1.14842093,13.6926475 1.10813004,13.6371918 1.09261697,13.572988 L0.99114145,13.1530117 Z M4.7927587,17.4005898 L4.60053789,17.0136421 C4.53911113,16.8899877 4.58955658,16.7399498 4.71321096,16.678523 C4.77236559,16.6491373 4.84074558,16.6443557 4.90341422,16.6652227 L5.31334816,16.8017201 L5.62195782,16.4993339 C5.72057821,16.4027022 5.87886125,16.4043145 5.97549287,16.5029348 C6.02172017,16.5501135 6.04739831,16.6136692 6.04691826,16.6797189 L6.04377805,17.1117692 L6.42673012,17.311832 C6.54910764,17.3757647 6.59648648,17.526799 6.53255373,17.6491765 C6.50196914,17.7077203 6.44945912,17.7517815 6.38649379,17.7717354 L5.97461909,17.9022598 L5.90268683,18.3282916 C5.8796999,18.4644359 5.7506986,18.556168 5.61455436,18.5331811 C5.54942475,18.5221844 5.49129363,18.4858601 5.45285897,18.4321426 L5.20144661,18.0807607 L4.77403796,18.1440002 C4.63745374,18.1642092 4.51034771,18.0698684 4.4901387,17.9332842 C4.48047097,17.8679441 4.49705398,17.8014333 4.53626539,17.7482801 L4.7927587,17.4005898 Z M9.04422289,13.4268767 C9.28180603,13.0875728 9.74946537,13.0051119 10.0887693,13.242695 C10.4280731,13.4802782 10.5105341,13.9479375 10.272951,14.2872414 L8.55222165,16.7446975 C8.31463851,17.0840014 7.84697918,17.1664624 7.50767529,16.9288792 C7.1683714,16.6912961 7.08591045,16.2236367 7.32349359,15.8843329 L9.04422289,13.4268767 Z M7.86241716,11.7224322 C8.22113662,11.5153254 8.67982943,11.6382318 8.88693621,11.9969513 C9.09404299,12.3556707 8.97113662,12.8143636 8.61241716,13.0214703 L5.06206338,15.071268 C4.70334391,15.2783748 4.2446511,15.1554685 4.03754432,14.796749 C3.83043754,14.4380295 3.95334391,13.9793367 4.31206338,13.7722299 L7.86241716,11.7224322 Z M6.73531046,9.5437061 C7.14549292,9.48605872 7.52474395,9.77184487 7.58239134,10.1820273 C7.64003872,10.5922098 7.35425257,10.9714608 6.94407011,11.0291082 L2.87739825,11.4695595 C2.46721579,11.5272069 2.08796476,11.2414207 2.03031737,10.8312383 C1.97266999,10.4210558 2.25845613,10.0418048 2.6686386,9.98415739 L6.73531046,9.5437061 Z" id="fireworks"></path>
                </g>
            </g>
            <g id="slices" transform="translate(60.000000, 58.000000)"></g>
        </g>
    </g>
</svg>