<?xml version="1.0" encoding="UTF-8"?>
<svg width="24px" height="24px" viewBox="0 0 24 24" version="1.1" xmlns="http://www.w3.org/2000/svg" xmlns:xlink="http://www.w3.org/1999/xlink">
    <!-- Generator: Sketch 52.3 (67297) - http://www.bohemiancoding.com/sketch -->
    <title>jollycons-[category]/icons/svg/icon-christmas-and-new-year-present</title>
    <desc>Created with Sketch.</desc>
    <g id="icons" stroke="none" stroke-width="1" fill="none" fill-rule="evenodd">
        <g id="icons---export" transform="translate(-188.000000, -58.000000)">
            <g id="row-1" transform="translate(60.000000, 58.000000)" fill="#000000" fill-rule="nonzero">
                <g id="icon---3" transform="translate(128.000000, 0.000000)">
                    <path d="M19.5,7 C20.3284271,7 21,7.67157288 21,8.5 L21,12.5 C21,13.1531094 20.5825962,13.7087289 20,13.9146471 L20,20 C20,21.1045695 19.1045695,22 18,22 L6,22 C4.8954305,22 4,21.1045695 4,20 L4,13.9146471 C3.41740381,13.7087289 3,13.1531094 3,12.5 L3,8.5 C3,7.67157288 3.67157288,7 4.5,7 L7.21407078,7 C6.31553861,5.37491674 6.63746434,3.38029363 8.09999981,2.53589838 C9.37607829,1.79915413 10.9763245,2.25221596 11.9999998,3.43628397 C13.0236752,2.25221596 14.6239213,1.79915413 15.8999998,2.53589838 C17.3625353,3.38029363 17.684461,5.37491674 16.7859288,7 L19.5,7 Z M13,20 L18,20 L18,14 L13,14 L13,20 Z M11,20 L11,14 L6,14 L6,20 L11,20 Z M11,12 L11,9 L5,9 L5,12 L11,12 Z M13,12 L19,12 L19,9 L13,9 L13,12 Z M10.5999998,6.8660254 C11.0304748,6.61749055 11.1516938,5.82158739 10.7160252,5.0669873 C10.2803566,4.31238721 9.5304748,4.01941434 9.09999981,4.26794919 C8.66952482,4.51648404 8.54830584,5.31238721 8.9839744,6.0669873 C9.41964297,6.82158739 10.1695248,7.11456026 10.5999998,6.8660254 Z M13.3999998,6.8660254 C13.8304748,7.11456026 14.5803566,6.82158739 15.0160252,6.0669873 C15.4516938,5.31238721 15.3304748,4.51648404 14.8999998,4.26794919 C14.4695248,4.01941434 13.719643,4.31238721 13.2839744,5.0669873 C12.8483058,5.82158739 12.9695248,6.61749055 13.3999998,6.8660254 Z" id="present"></path>
                </g>
            </g>
            <g id="slices" transform="translate(60.000000, 58.000000)"></g>
        </g>
    </g>
</svg>