<svg xmlns="http://www.w3.org/2000/svg" width="24" height="24" viewBox="0 0 24 24">
  <path d="M5.41421356,6 L21,6 C21.5522847,6 22,6.44771525 22,7 C22,7.55228475 21.5522847,8 21,8 L5.41421356,8 L7.70710678,10.2928932 C8.09763107,10.6834175 8.09763107,11.3165825 7.70710678,11.7071068 C7.31658249,12.0976311 6.68341751,12.0976311 6.29289322,11.7071068 L2.29289322,7.70710678 C1.90236893,7.31658249 1.90236893,6.68341751 2.29289322,6.29289322 L6.29289322,2.29289322 C6.68341751,1.90236893 7.31658249,1.90236893 7.70710678,2.29289322 C8.09763107,2.68341751 8.09763107,3.31658249 7.70710678,3.70710678 L5.41421356,6 Z M18.5857864,18 L3,18 C2.44771525,18 2,17.5522847 2,17 C2,16.4477153 2.44771525,16 3,16 L18.5857864,16 L16.2928932,13.7071068 C15.9023689,13.3165825 15.9023689,12.6834175 16.2928932,12.2928932 C16.6834175,11.9023689 17.3165825,11.9023689 17.7071068,12.2928932 L21.7071068,16.2928932 C22.0976311,16.6834175 22.0976311,17.3165825 21.7071068,17.7071068 L17.7071068,21.7071068 C17.3165825,22.0976311 16.6834175,22.0976311 16.2928932,21.7071068 C15.9023689,21.3165825 15.9023689,20.6834175 16.2928932,20.2928932 L18.5857864,18 Z" transform="matrix(0 -1 -1 0 24 24)"/>
</svg>
