<svg xmlns="http://www.w3.org/2000/svg" width="24" height="24" viewBox="0 0 24 24">
  <path d="M6.70710678,15.2928932 C7.09763107,15.6834175 7.09763107,16.3165825 6.70710678,16.7071068 C6.31658249,17.0976311 5.68341751,17.0976311 5.29289322,16.7071068 L1.29289322,12.7071068 C0.902368927,12.3165825 0.902368927,11.6834175 1.29289322,11.2928932 L5.29289322,7.29289322 C5.68341751,6.90236893 6.31658249,6.90236893 6.70710678,7.29289322 C7.09763107,7.68341751 7.09763107,8.31658249 6.70710678,8.70710678 L4.41421356,11 L19.5857864,11 L17.2928932,8.70710678 C16.9023689,8.31658249 16.9023689,7.68341751 17.2928932,7.29289322 C17.6834175,6.90236893 18.3165825,6.90236893 18.7071068,7.29289322 L22.7071068,11.2928932 C23.0976311,11.6834175 23.0976311,12.3165825 22.7071068,12.7071068 L18.7071068,16.7071068 C18.3165825,17.0976311 17.6834175,17.0976311 17.2928932,16.7071068 C16.9023689,16.3165825 16.9023689,15.6834175 17.2928932,15.2928932 L19.5857864,13 L4.41421356,13 L6.70710678,15.2928932 Z" transform="rotate(90 12 12)"/>
</svg>
