<svg xmlns="http://www.w3.org/2000/svg" width="24" height="24" viewBox="0 0 24 24">
  <path d="M7,4.41421356 L3.70710678,7.70710678 C3.31658249,8.09763107 2.68341751,8.09763107 2.29289322,7.70710678 C1.90236893,7.31658249 1.90236893,6.68341751 2.29289322,6.29289322 L7.29289322,1.29289322 C7.68341751,0.902368927 8.31658249,0.902368927 8.70710678,1.29289322 L13.7071068,6.29289322 C14.0976311,6.68341751 14.0976311,7.31658249 13.7071068,7.70710678 C13.3165825,8.09763107 12.6834175,8.09763107 12.2928932,7.70710678 L9,4.41421356 L9,12 C9,13.6568542 10.3431458,15 12,15 L19.5857864,15 L16.2928932,11.7071068 C15.9023689,11.3165825 15.9023689,10.6834175 16.2928932,10.2928932 C16.6834175,9.90236893 17.3165825,9.90236893 17.7071068,10.2928932 L22.7071068,15.2928932 C23.0976311,15.6834175 23.0976311,16.3165825 22.7071068,16.7071068 L17.7071068,21.7071068 C17.3165825,22.0976311 16.6834175,22.0976311 16.2928932,21.7071068 C15.9023689,21.3165825 15.9023689,20.6834175 16.2928932,20.2928932 L19.5857864,17 L12,17 C9.23857625,17 7,14.7614237 7,12 L7,4.41421356 Z"/>
</svg>
