<?xml version="1.0" encoding="UTF-8"?>
<svg width="24px" height="24px" viewBox="0 0 24 24" version="1.1" xmlns="http://www.w3.org/2000/svg" xmlns:xlink="http://www.w3.org/1999/xlink">
    <!-- Generator: Sketch 52.3 (67297) - http://www.bohemiancoding.com/sketch -->
    <title>jollycons-[category]/icons/svg/icon-ecommerce-discount</title>
    <desc>Created with Sketch.</desc>
    <g id="icons" stroke="none" stroke-width="1" fill="none" fill-rule="evenodd">
        <g id="icons---ecommerce---export" transform="translate(-316.000000, -218.000000)">
            <g id="row-3" transform="translate(60.000000, 218.000000)" fill="#000000" fill-rule="nonzero">
                <g id="icon---15" transform="translate(256.000000, 0.000000)">
                    <path d="M12,20.4394671 L9.25213366,21.4011044 C8.80291601,21.5583116 8.30514417,21.3771375 8.06207434,20.9679582 L6.57521514,18.4650069 L3.85209886,17.4353693 C3.40692732,17.2670455 3.14206845,16.8082965 3.21888152,16.3386047 L3.6887474,13.4654981 L2.26455756,10.9263646 C2.03173284,10.5112703 2.12371735,9.98960016 2.48447163,9.67916988 L4.69120712,7.78026647 L5.23233797,4.91972576 C5.32080135,4.45208825 5.72658867,4.11159226 6.20248322,4.10567725 L9.11353226,4.06949507 L11.3667827,2.22602597 C11.7351411,1.92465801 12.2648589,1.92465801 12.6332173,2.22602597 L14.8864677,4.06949507 L17.7975168,4.10567725 C18.2734113,4.11159226 18.6791987,4.45208825 18.767662,4.91972576 L19.3087929,7.78026647 L21.5155284,9.67916988 C21.8762826,9.98960016 21.9682672,10.5112703 21.7354424,10.9263646 L20.3112526,13.4654981 L20.7811185,16.3386047 C20.8579315,16.8082965 20.5930727,17.2670455 20.1479011,17.4353693 L17.4247849,18.4650069 L15.9379257,20.9679582 C15.6948558,21.3771375 15.197084,21.5583116 14.7478663,21.4011044 L12,20.4394671 Z M11.6696851,18.4361292 C11.8835365,18.3612903 12.1164635,18.3612903 12.3303149,18.4361292 L14.63628,19.2431197 L15.8840282,17.1426834 C15.9997423,16.9478924 16.1781748,16.7981697 16.3901001,16.7180387 L18.6752952,15.8539835 L18.2809914,13.4429188 C18.2444243,13.2193207 18.2848716,12.9899323 18.3957086,12.7923254 L19.5908657,10.6615256 L17.7390089,9.06799652 C17.5672707,8.92021526 17.4508072,8.71849449 17.4086939,8.49587425 L16.9545857,6.09535472 L14.5116804,6.06499122 C14.2851293,6.06217536 14.0662495,5.98250961 13.8908913,5.83904249 L12,4.29203301 L10.1091087,5.83904249 C9.93375052,5.98250961 9.71487066,6.06217536 9.48831964,6.06499122 L7.04541432,6.09535472 L6.59130606,8.49587425 C6.54919281,8.71849449 6.43272927,8.92021526 6.26099111,9.06799652 L4.40913435,10.6615256 L5.60429145,12.7923254 C5.71512835,12.9899323 5.75557572,13.2193207 5.71900863,13.4429188 L5.32470478,15.8539835 L7.60989995,16.7180387 C7.82182519,16.7981697 8.00025769,16.9478924 8.11597181,17.1426834 L9.36372003,19.2431197 L11.6696851,18.4361292 Z M10,11 C9.44771525,11 9,10.5522847 9,10 C9,9.44771525 9.44771525,9 10,9 C10.5522847,9 11,9.44771525 11,10 C11,10.5522847 10.5522847,11 10,11 Z M14,15 C13.4477153,15 13,14.5522847 13,14 C13,13.4477153 13.4477153,13 14,13 C14.5522847,13 15,13.4477153 15,14 C15,14.5522847 14.5522847,15 14,15 Z M14.1213203,11.2928932 L11.2928932,14.1213203 C10.9023689,14.5118446 10.2692039,14.5118446 9.87867966,14.1213203 C9.48815536,13.7307961 9.48815536,13.0976311 9.87867966,12.7071068 L12.7071068,9.87867966 C13.0976311,9.48815536 13.7307961,9.48815536 14.1213203,9.87867966 C14.5118446,10.2692039 14.5118446,10.9023689 14.1213203,11.2928932 Z" id="discount"></path>
                </g>
            </g>
            <g id="slices" transform="translate(60.000000, 58.000000)"></g>
        </g>
    </g>
</svg>