<?xml version="1.0" encoding="UTF-8"?>
<svg width="24px" height="24px" viewBox="0 0 24 24" version="1.1" xmlns="http://www.w3.org/2000/svg" xmlns:xlink="http://www.w3.org/1999/xlink">
    <!-- Generator: Sketch 52.3 (67297) - http://www.bohemiancoding.com/sketch -->
    <title>jollycons-[category]/icons/svg/icon-ecommerce-pricetag</title>
    <desc>Created with Sketch.</desc>
    <g id="icons" stroke="none" stroke-width="1" fill="none" fill-rule="evenodd">
        <g id="icons---ecommerce---export" transform="translate(-252.000000, -218.000000)">
            <g id="row-3" transform="translate(60.000000, 218.000000)" fill="#000000" fill-rule="nonzero">
                <g id="icon---14" transform="translate(192.000000, 0.000000)">
                    <path d="M11.6962352,5.02559021 L2.95405845,13.767767 L10.732233,21.5459415 L19.4744098,12.8037648 L20.0497753,8.23606684 L16.2639332,4.45022466 L11.6962352,5.02559021 Z M11.1063908,3.08408489 L16.4998131,2.40470778 C16.8063148,2.3660996 17.1134543,2.47131863 17.3318963,2.68976071 L21.8102393,7.16810366 C22.0286814,7.38654574 22.1339004,7.69368516 22.0952922,8.00018686 L21.4159151,13.3936092 C21.388164,13.613919 21.2878758,13.818726 21.1308622,13.9757395 L12.1464466,22.9601551 C11.365398,23.7412037 10.0990681,23.7412037 9.31801948,22.9601551 L1.53984489,15.1819805 C0.758796308,14.4009319 0.758796308,13.134602 1.53984489,12.3535534 L10.5242605,3.36913782 C10.681274,3.21212425 10.886081,3.11183599 11.1063908,3.08408489 Z M7.90058433,14.4286335 C7.83490078,14.0229248 8.11054563,13.6407859 8.51625433,13.5751024 C8.92196303,13.5094188 9.30410195,13.7850637 9.3697855,14.1907724 C9.50178348,15.0060866 10.0890814,15.3552185 10.4668658,14.9774341 C10.5527154,14.8915845 10.5301981,14.7354363 10.2466639,14.0948312 L10.2395227,14.0786975 C9.71283869,12.8887916 9.62079899,12.2716797 10.319319,11.5731597 C10.9591421,10.9333366 11.7187823,10.8781854 12.3807465,11.1740076 L12.6944324,10.8603217 C12.8896946,10.6650595 13.206277,10.6650595 13.4015392,10.8603217 L13.7468416,11.205624 C13.9421037,11.4008862 13.9421037,11.7174687 13.7468416,11.9127308 L13.5041046,12.1554678 C13.6990783,12.4489479 13.8459948,12.7814453 13.9255703,13.1322393 C14.0164913,13.5330475 13.765278,13.9316728 13.3644698,14.0225938 C12.9636615,14.1135147 12.5650362,13.8623015 12.4741153,13.4614932 C12.3154676,12.7621243 11.6663178,12.3309792 11.3717282,12.6255689 C11.2996745,12.6976225 11.321955,12.8470097 11.6004936,13.4762956 L11.6076464,13.4924554 C12.1369645,14.6883743 12.2281828,15.3209354 11.5192749,16.0298433 C10.8008908,16.7482274 9.94408327,16.7953978 9.24024274,16.4193296 L9.19190261,16.4676698 C8.99664047,16.6629319 8.68005798,16.6629319 8.48479583,16.4676698 L8.13949347,16.1223674 C7.94423132,15.9271053 7.94423132,15.6105228 8.13949347,15.4152606 L8.20643491,15.3483192 C8.06058563,15.0717827 7.95450866,14.7617089 7.90058433,14.4286335 Z M15.3284271,9.17157288 C14.7426407,8.58578644 14.7426407,7.63603897 15.3284271,7.05025253 C15.9142136,6.46446609 16.863961,6.46446609 17.4497475,7.05025253 C18.0355339,7.63603897 18.0355339,8.58578644 17.4497475,9.17157288 C16.863961,9.75735931 15.9142136,9.75735931 15.3284271,9.17157288 Z" id="pricetag"></path>
                </g>
            </g>
            <g id="slices" transform="translate(60.000000, 58.000000)"></g>
        </g>
    </g>
</svg>