<?xml version="1.0" encoding="UTF-8"?>
<svg width="24px" height="24px" viewBox="0 0 24 24" version="1.1" xmlns="http://www.w3.org/2000/svg" xmlns:xlink="http://www.w3.org/1999/xlink">
    <!-- Generator: Sketch 52.3 (67297) - http://www.bohemiancoding.com/sketch -->
    <title>jollycons-[category]/icons/svg/icon-ecommerce-shopping-basket</title>
    <desc>Created with Sketch.</desc>
    <g id="icons" stroke="none" stroke-width="1" fill="none" fill-rule="evenodd">
        <g id="icons---ecommerce---export" transform="translate(-124.000000, -58.000000)">
            <g id="row-1" transform="translate(60.000000, 58.000000)" fill="#000000" fill-rule="nonzero">
                <g id="icon---2" transform="translate(64.000000, 0.000000)">
                    <path d="M17.4641016,7 L20.5,7 C21.3284271,7 22,7.67157288 22,8.5 L22,11.5 C22,12.2224107 21.4893153,12.8255445 20.8092642,12.9680834 L19.1502025,20.4338609 C18.9468525,21.348936 18.1352257,22 17.1978284,22 L6.80217161,22 C5.86477431,22 5.05314751,21.348936 4.84979749,20.4338609 L3.19075637,12.9680877 C2.51069494,12.8255567 2,12.2224179 2,11.5 L2,8.5 C2,7.67157288 2.67157288,7 3.5,7 L6.53589838,7 L9.1339746,2.5 C9.41011697,2.02170738 10.0217074,1.85783222 10.5,2.1339746 C10.9782926,2.41011697 11.1421678,3.02170738 10.8660254,3.5 L8.84529946,7 L15.1547005,7 L13.1339746,3.5 C12.8578322,3.02170738 13.0217074,2.41011697 13.5,2.1339746 C13.9782926,1.85783222 14.589883,2.02170738 14.8660254,2.5 L17.4641016,7 Z M5.24661605,13 L6.80217161,20 L17.1978284,20 L18.7537624,13 L5.24661605,13 Z M10,15 C10.5522847,15 11,15.4477153 11,16 L11,17 C11,17.5522847 10.5522847,18 10,18 C9.44771525,18 9,17.5522847 9,17 L9,16 C9,15.4477153 9.44771525,15 10,15 Z M14,15 C14.5522847,15 15,15.4477153 15,16 L15,17 C15,17.5522847 14.5522847,18 14,18 C13.4477153,18 13,17.5522847 13,17 L13,16 C13,15.4477153 13.4477153,15 14,15 Z M4,9 L4,11 L20,11 L20,9 L4,9 Z" id="shopping-basket"></path>
                </g>
            </g>
            <g id="slices" transform="translate(60.000000, 58.000000)"></g>
        </g>
    </g>
</svg>