<?xml version="1.0" encoding="UTF-8"?>
<svg width="24px" height="24px" viewBox="0 0 24 24" version="1.1" xmlns="http://www.w3.org/2000/svg" xmlns:xlink="http://www.w3.org/1999/xlink">
    <!-- Generator: Sketch 52.3 (67297) - http://www.bohemiancoding.com/sketch -->
    <title>jollycons-[category]/icons/svg/icon-ecommerce-store</title>
    <desc>Created with Sketch.</desc>
    <g id="icons" stroke="none" stroke-width="1" fill="none" fill-rule="evenodd">
        <g id="icons---ecommerce---export" transform="translate(-252.000000, -58.000000)">
            <g id="row-1" transform="translate(60.000000, 58.000000)" fill="#000000" fill-rule="nonzero">
                <g id="icon---4" transform="translate(192.000000, 0.000000)">
                    <path d="M4,11.6458244 C3.37763659,10.9406912 3,10.0144465 3,9 C3,8.81875605 3.04925783,8.64091965 3.14250707,8.48550424 L6.14250707,3.48550424 C6.32323032,3.18429883 6.64873715,3 7,3 L17,3 C17.3512629,3 17.6767697,3.18429883 17.8574929,3.48550424 L20.8574929,8.48550424 C20.9507422,8.64091965 21,8.81875605 21,9 C21,10.0144465 20.6223634,10.9406912 20,11.6458244 L20,19 C20,20.1045695 19.1045695,21 18,21 L6,21 C4.8954305,21 4,20.1045695 4,19 L4,11.6458244 Z M6,12.8739825 L6,19 L11,19 L11,15.5 C11,14.6715729 11.6715729,14 12.5,14 L15.5,14 C16.3284271,14 17,14.6715729 17,15.5 L17,19 L18,19 L18,12.8739825 C17.6803801,12.956247 17.3452996,13 17,13 C16.0711293,13 15.1958292,12.6804655 14.5,12.1229907 C13.8041708,12.6804655 12.9288707,13 12,13 C11.0711293,13 10.1958292,12.6804655 9.5,12.1229907 C8.80417081,12.6804655 7.92887074,13 7,13 C6.65470043,13 6.31961992,12.956247 6,12.8739825 Z M13,19 L15,19 L15,16 L13,16 L13,19 Z M16.4338096,5 L7.56619038,5 L5.01559701,9.25098895 C5.13906044,10.237088 5.9804364,11 7,11 C7.67862068,11 8.29806688,10.6605044 8.66726675,10.1052232 C9.06294217,9.51012236 9.93705783,9.51012236 10.3327333,10.1052232 C10.7019331,10.6605044 11.3213793,11 12,11 C12.6786207,11 13.2980669,10.6605044 13.6672667,10.1052232 C14.0629422,9.51012236 14.9370578,9.51012236 15.3327333,10.1052232 C15.7019331,10.6605044 16.3213793,11 17,11 C18.0195636,11 18.8609396,10.237088 18.984403,9.25098895 L16.4338096,5 Z" id="store"></path>
                </g>
            </g>
            <g id="slices" transform="translate(60.000000, 58.000000)"></g>
        </g>
    </g>
</svg>