<?xml version="1.0" encoding="UTF-8"?>
<svg width="24px" height="24px" viewBox="0 0 24 24" version="1.1" xmlns="http://www.w3.org/2000/svg" xmlns:xlink="http://www.w3.org/1999/xlink">
    <!-- Generator: Sketch 52.3 (67297) - http://www.bohemiancoding.com/sketch -->
    <title>jollycons-[category]/icons/svg/icon-ecommerce-voucher</title>
    <desc>Created with Sketch.</desc>
    <g id="icons" stroke="none" stroke-width="1" fill="none" fill-rule="evenodd">
        <g id="icons---ecommerce---export" transform="translate(-188.000000, -218.000000)">
            <g id="row-3" transform="translate(60.000000, 218.000000)" fill="#000000" fill-rule="nonzero">
                <g id="icon---13" transform="translate(128.000000, 0.000000)">
                    <path d="M9.29289322,11.8786797 C8.90236893,11.4881554 8.90236893,10.8549904 9.29289322,10.4644661 C9.68341751,10.0739418 10.3165825,10.0739418 10.7071068,10.4644661 C11.0976311,10.8549904 11.0976311,11.4881554 10.7071068,11.8786797 C10.3165825,12.2692039 9.68341751,12.2692039 9.29289322,11.8786797 Z M9.29289322,17.5355339 C8.90236893,17.1450096 8.90236893,16.5118446 9.29289322,16.1213203 C9.68341751,15.7307961 10.3165825,15.7307961 10.7071068,16.1213203 C11.0976311,16.5118446 11.0976311,17.1450096 10.7071068,17.5355339 C10.3165825,17.9260582 9.68341751,17.9260582 9.29289322,17.5355339 Z M12,15 L8,15 C7.44771525,15 7,14.5522847 7,14 C7,13.4477153 7.44771525,13 8,13 L12,13 C12.5522847,13 13,13.4477153 13,14 C13,14.5522847 12.5522847,15 12,15 Z M6.90380592,17.0961941 C7.88073512,18.0731233 8.17017336,19.5026447 7.72640013,20.7472154 L8.67157288,21.6923882 L20.6923882,9.67157288 L19.7472154,8.72640013 C18.5026447,9.17017336 17.0731233,8.88073512 16.0961941,7.90380592 C15.1192649,6.92687672 14.8298266,5.49735534 15.2735999,4.25278459 L14.3284271,3.30761184 L2.30761184,15.3284271 L3.25278459,16.2735999 C4.49735534,15.8298266 5.92687672,16.1192649 6.90380592,17.0961941 Z M2.34297359,18.192216 L0.893398282,16.7426407 C0.112349699,15.9615921 0.112349699,14.6952621 0.893398282,13.9142136 L12.9142136,1.89339828 C13.6952621,1.1123497 14.9615921,1.1123497 15.7426407,1.89339828 L17.192216,3.34297359 C17.5285169,3.67927453 17.5814278,4.20590762 17.3187495,4.60238809 C16.9286081,5.19125836 17.003797,5.98298176 17.5104076,6.48959236 C18.0170182,6.99620296 18.8087416,7.07139186 19.3976119,6.68125047 C19.7940924,6.41857217 20.3207255,6.47148306 20.6570264,6.80778401 L22.1066017,8.25735931 C22.8876503,9.0384079 22.8876503,10.3047379 22.1066017,11.0857864 L10.0857864,23.1066017 C9.30473785,23.8876503 8.0384079,23.8876503 7.25735931,23.1066017 L5.80778401,21.6570264 C5.47148306,21.3207255 5.41857217,20.7940924 5.68125047,20.3976119 C6.07139186,19.8087416 5.99620296,19.0170182 5.48959236,18.5104076 C4.98298176,18.003797 4.19125836,17.9286081 3.60238809,18.3187495 C3.20590762,18.5814278 2.67927453,18.5285169 2.34297359,18.192216 Z" id="voucher"></path>
                </g>
            </g>
            <g id="slices" transform="translate(60.000000, 58.000000)"></g>
        </g>
    </g>
</svg>