<?xml version="1.0" encoding="UTF-8"?>
<svg width="24px" height="24px" viewBox="0 0 24 24" version="1.1" xmlns="http://www.w3.org/2000/svg" xmlns:xlink="http://www.w3.org/1999/xlink">
    <!-- Generator: Sketch 52.3 (67297) - http://www.bohemiancoding.com/sketch -->
    <title>jollycons-[category]/icons/svg/icon-ecommerce-wallet</title>
    <desc>Created with Sketch.</desc>
    <g id="icons" stroke="none" stroke-width="1" fill="none" fill-rule="evenodd">
        <g id="icons---ecommerce---export" transform="translate(-188.000000, -58.000000)">
            <g id="row-1" transform="translate(60.000000, 58.000000)" fill="#000000" fill-rule="nonzero">
                <g id="icon---3" transform="translate(128.000000, 0.000000)">
                    <path d="M19,11 L19,9 L7,9 C6.44771525,9 6,9.44771525 6,10 L6,18 L19,18 L19,16 L16.5,16 C15.1192881,16 14,14.8807119 14,13.5 C14,12.1192881 15.1192881,11 16.5,11 L19,11 Z M19.5727328,7.08321113 C20.3982022,7.32949929 21,8.09447095 21,9 L21,18 C21,19.1045695 20.1045695,20 19,20 L6,20 C4.8954305,20 4,19.1045695 4,18 L4,7 C4,5.34314575 5.34314575,4 7,4 L18.0727328,4 C18.9011599,4 19.5727328,4.67157288 19.5727328,5.5 L19.5727328,7.08321113 Z M17.5727328,7 L17.5727328,6 L7,6 C6.44771525,6 6,6.44771525 6,7 L6,7.17070571 C6.31277893,7.06015422 6.64936458,7 7,7 L17.5727328,7 Z M19,13 L16.5,13 C16.2238576,13 16,13.2238576 16,13.5 C16,13.7761424 16.2238576,14 16.5,14 L19,14 L19,13 Z" id="wallet"></path>
                </g>
            </g>
            <g id="slices" transform="translate(60.000000, 58.000000)"></g>
        </g>
    </g>
</svg>