<svg xmlns="http://www.w3.org/2000/svg" width="24" height="24" viewBox="0 0 24 24">
  <path d="M5.55459892,11.5594257 C6.29429395,11.9148415 6.74180588,12.6860553 6.68333688,13.5046214 L6.14795269,21 L17.8177897,21 L17.1721467,13.6044525 C17.0981734,12.7571225 17.5682076,11.9556982 18.3438464,11.6066646 C19.947344,10.8850985 21,9.28887915 21,7.5 C21,5.01471863 18.9852814,3 16.5,3 C15.321,3 14.2183593,3.45267605 13.3847996,4.25260027 C12.6109441,4.9952295 11.3890559,4.9952295 10.6152004,4.25260027 C9.78164072,3.45267605 8.67899999,3 7.5,3 C5.01471863,3 3,5.01471863 3,7.5 C3,9.24866353 4.00544937,10.8150754 5.55459892,11.5594257 Z M4.68841948,13.3621273 C2.50635006,12.3136656 1,10.0827463 1,7.5 C1,3.91014913 3.91014913,1 7.5,1 C9.24649214,1 10.8321055,1.68880406 12,2.80957219 C13.1678945,1.68880406 14.7535079,1 16.5,1 C20.0898509,1 23,3.91014913 23,7.5 C23,10.1403543 21.4257024,12.4130116 19.1645684,13.4305109 L19.8102114,20.8260584 C19.9062767,21.9264426 19.0921154,22.8963564 17.9917313,22.9924217 C17.9338883,22.9974715 17.8758528,23 17.8177897,23 L6.14795269,23 C5.04338319,23 4.14795269,22.1045695 4.14795269,21 C4.14795269,20.9524567 4.14964797,20.9049284 4.15303529,20.8575059 L4.68841948,13.3621273 Z"/>
</svg>
