<svg xmlns="http://www.w3.org/2000/svg" width="24" height="24" viewBox="0 0 24 24">
  <path d="M6.70673365,19.0449525 L5.82933563,18.0390625 C5.46629981,17.6228613 5.50939885,16.9911649 5.92560004,16.6281291 C6.34180124,16.2650932 6.97349765,16.3081923 7.33653348,16.7243935 L8.52037226,18.0816014 C10.7222661,16.8472889 13.3690992,15.1545364 16.4501372,13.00629 L13.2220219,9.77817459 C12.8314976,9.3876503 12.8314976,8.75448532 13.2220219,8.36396103 C13.6125461,7.97343674 14.2457111,7.97343674 14.6362354,8.36396103 L17.9668545,11.6945801 C19.1321788,10.1284217 19.0041459,7.90344235 17.5827574,6.48205386 L17.421774,6.32107092 C17.3231846,6.25534551 17.2363279,6.17073638 17.1679459,6.06724356 L16.8776088,5.77690731 C16.7423427,5.64164118 16.5975497,5.51625443 16.4443426,5.40171039 C14.6750337,4.07890118 12.1683743,4.44085998 10.8455619,6.21016532 C10.1320147,7.16456256 9.4636171,8.07836736 8.84046767,8.95125693 L10.4059204,10.7951945 C10.7633555,11.2162153 10.7118092,11.8472786 10.2907884,12.2047138 C9.86976757,12.562149 9.23870429,12.5106026 8.8812691,12.0895818 L7.65368345,10.6436159 C5.80845212,13.3263942 4.45044999,15.5669232 3.58314909,17.3538221 C2.97870809,18.5991511 2.63365516,19.5842488 2.53638587,20.2670324 C2.52362492,20.3566081 2.51587178,20.4355648 2.51212329,20.5036744 C2.58905742,20.5018276 2.67941876,20.4952617 2.78288535,20.482678 C3.47860369,20.3980646 4.47899984,20.0755423 5.74402432,19.5032631 C6.0516117,19.3641149 6.37253307,19.2113396 6.70673365,19.0449525 Z M17.0075558,1.25 C17.0075558,-0.0833333333 19.0075558,-0.0833333333 19.0075558,1.25 L19.0075558,3.07842712 L19.4217693,2.66421356 C19.8122936,2.27368927 20.4454586,2.27368927 20.8359829,2.66421356 C21.2265072,3.05473785 21.2265072,3.68790283 20.8359829,4.07842712 L20.4217693,4.49264069 L22.2501964,4.49264069 C22.8024812,4.49264069 23.2501964,4.94035594 23.2501964,5.49264069 C23.2501964,6.04492544 22.8024812,6.49264069 22.2501964,6.49264069 L20.0532791,6.49264069 C21.2606143,8.76112678 20.9085109,11.6415797 18.9969689,13.5531217 C18.7531851,13.7969054 18.4888432,14.0192238 18.2068777,14.2176087 C8.42544076,21.0996179 2.68886422,23.6947644 0.99714812,22.0030483 C-0.702734287,20.3031659 2.04613321,14.6396779 9.2437506,5.01258424 C11.0744924,2.56390649 14.4169158,1.91230658 17.0075558,3.38463119 L17.0075558,1.25 Z"/>
</svg>
