<svg xmlns="http://www.w3.org/2000/svg" width="24" height="24" viewBox="0 0 24 24">
  <path d="M12.4501574,5.38376188 C12.4429984,5.39095723 12.4358561,5.39816789 12.4287304,5.40539386 C10.6604546,7.1985531 9.78393712,10.0715984 9.8959385,14.1103122 C13.9818107,14.2277775 16.8475963,13.3541996 18.5806112,11.5967976 C18.5941601,11.5830579 18.6076522,11.569252 18.6210874,11.5553796 C15.6912951,10.6232633 13.3811494,8.31042882 12.4501574,5.38376188 Z M19.8387717,9.81563308 C20.6887305,8.11018957 21.0490271,5.83382992 20.8803889,2.94125665 C18.075052,2.81902121 15.857172,3.2202163 14.1779486,4.11216775 C14.7968682,6.94024222 17.0145966,9.17539874 19.8387717,9.81563308 Z M10.1550808,16.1162628 L8.45807066,22.3386333 C8.41228114,22.5065282 8.32346925,22.6595671 8.20041362,22.7826227 C7.80988933,23.173147 7.17672435,23.173147 6.78620006,22.7826227 L1.22314413,17.2195668 C1.1000885,17.0965111 1.0112766,16.9434723 0.965487087,16.7755774 C0.820171357,16.242753 1.13430916,15.6930119 1.6671335,15.5476962 L7.890302,13.8504684 C7.82139285,9.45956163 8.85951573,6.17643736 11.0046706,4.00109555 C13.205817,1.7689743 16.5267439,0.749659958 20.9674512,0.943152512 C21.9923627,0.987810428 22.8172845,1.80070277 22.8769989,2.82484728 C23.1435496,7.39687956 22.1861069,10.7889624 20.0046709,13.0010959 C17.88268,15.1529478 14.5994833,16.1913368 10.1550808,16.1162628 Z M3.85582973,17.0238252 L6.98194158,20.1499371 L8.11095376,16.0102258 C8.07558985,16.0072428 8.04016257,16.0041991 8.00467193,16.0010946 C8.00155227,15.9656091 7.99849469,15.9301857 7.99549917,15.8948245 L3.85582973,17.0238252 Z M17.0046721,6.00109472 C16.4523873,6.00109472 16.0046721,5.55337947 16.0046721,5.00109472 C16.0046721,4.44880997 16.4523873,4.00109472 17.0046721,4.00109472 C17.5569568,4.00109472 18.0046721,4.44880997 18.0046721,5.00109472 C18.0046721,5.55337947 17.5569568,6.00109472 17.0046721,6.00109472 Z"/>
</svg>
