<svg xmlns="http://www.w3.org/2000/svg" width="24" height="24" viewBox="0 0 24 24">
  <path d="M21,11 C21,14.0742459 19.2279398,17.5422829 15.6838195,21.404111 C13.8166824,23.4386313 10.6537639,23.5743174 8.6192464,21.7071771 C8.51394017,21.6105343 8.41282633,21.5094205 8.31618349,21.4041143 C4.77206116,17.5422848 3,14.0742467 3,11 C3,5 8.08094727,4.03357925 12,4 C15.8318502,3.96716792 21,5 21,11 Z M19,11 C19,7.35949059 16.5337707,5.96122713 12.0171358,5.99992659 C7.33825981,6.04001616 5,7.36290738 5,11 C5,13.4860808 6.55248239,16.524389 9.78971,20.0518127 C9.84769573,20.1149964 9.90836407,20.1756648 9.97154784,20.2336505 C11.1922589,21.3539352 13.0900094,21.272523 14.2102928,20.0518096 C17.4475185,16.5243872 19,13.48608 19,11 Z M5.97697088,0.655613229 C6.98137191,-0.0044042054 8.09724233,-0.0739255036 9.32458213,0.447049334 C10.5519219,0.968024172 11.2770612,1.81900773 11.5,3 C10.495599,3.66001743 9.37972855,3.72953873 8.15238875,3.20856389 C6.92504894,2.68758906 6.19990965,1.8366055 5.97697088,0.655613229 Z M18.0230291,0.655613229 C17.8000903,1.8366055 17.0749511,2.68758906 15.8476113,3.20856389 C14.6202714,3.72953873 13.504401,3.66001743 12.5,3 C12.7229388,1.81900773 13.4480781,0.968024172 14.6754179,0.447049334 C15.9027577,-0.0739255036 17.0186281,-0.0044042054 18.0230291,0.655613229 Z M12,19 C11.4477153,19 11,18.5522847 11,18 C11,17.4477153 11.4477153,17 12,17 C12.5522847,17 13,17.4477153 13,18 C13,18.5522847 12.5522847,19 12,19 Z M14,16 C13.4477153,16 13,15.5522847 13,15 C13,14.4477153 13.4477153,14 14,14 C14.5522847,14 15,14.4477153 15,15 C15,15.5522847 14.5522847,16 14,16 Z M14,10 C13.4477153,10 13,9.55228475 13,9 C13,8.44771525 13.4477153,8 14,8 C14.5522847,8 15,8.44771525 15,9 C15,9.55228475 14.5522847,10 14,10 Z M12,13 C11.4477153,13 11,12.5522847 11,12 C11,11.4477153 11.4477153,11 12,11 C12.5522847,11 13,11.4477153 13,12 C13,12.5522847 12.5522847,13 12,13 Z M8,13 C7.44771525,13 7,12.5522847 7,12 C7,11.4477153 7.44771525,11 8,11 C8.55228475,11 9,11.4477153 9,12 C9,12.5522847 8.55228475,13 8,13 Z M16,13 C15.4477153,13 15,12.5522847 15,12 C15,11.4477153 15.4477153,11 16,11 C16.5522847,11 17,11.4477153 17,12 C17,12.5522847 16.5522847,13 16,13 Z M10,16 C9.44771525,16 9,15.5522847 9,15 C9,14.4477153 9.44771525,14 10,14 C10.5522847,14 11,14.4477153 11,15 C11,15.5522847 10.5522847,16 10,16 Z M10,10 C9.44771525,10 9,9.55228475 9,9 C9,8.44771525 9.44771525,8 10,8 C10.5522847,8 11,8.44771525 11,9 C11,9.55228475 10.5522847,10 10,10 Z"/>
</svg>
