<?xml version="1.0" encoding="UTF-8"?>
<svg width="24px" height="24px" viewBox="0 0 24 24" version="1.1" xmlns="http://www.w3.org/2000/svg" xmlns:xlink="http://www.w3.org/1999/xlink">
    <!-- Generator: Sketch 52.3 (67297) - http://www.bohemiancoding.com/sketch -->
    <title>jollycons-[category]/icons/svg/icon-travel-backpack</title>
    <desc>Created with Sketch.</desc>
    <g id="icons" stroke="none" stroke-width="1" fill="none" fill-rule="evenodd">
        <g id="icons---export" transform="translate(-188.000000, -58.000000)">
            <g id="row-1" transform="translate(60.000000, 58.000000)" fill="#000000" fill-rule="nonzero">
                <g id="icon---3" transform="translate(128.000000, 0.000000)">
                    <path d="M14,3 L10,3 L10,8 L14,8 L14,3 Z M16,10.001 L16,12 C16,12.5522847 15.5522847,13 15,13 C14.4477153,13 14,12.5522847 14,12 L14,10.001 L10,10.001 L10,12 C10,12.5522847 9.55228475,13 9,13 C8.44771525,13 8,12.5522847 8,12 L8,10.001 L7,10.001 L7,19.3076923 C7,20.242328 7.8954305,21 9,21 L15,21 C16.1045695,21 17,20.242328 17,19.3076923 L17,10.001 L16,10.001 Z M16,3 L16,8 C17.1045695,8 18,7.1045695 18,6 L18,5 C18,3.8954305 17.1045695,3 16,3 Z M8,8 L8,3 C6.8954305,3 6,3.8954305 6,5 L6,6 C6,7.1045695 6.8954305,8 8,8 Z M5,8.6458244 C4.37763659,7.94069119 4,7.01444647 4,6 L4,5 C4,2.790861 5.790861,1 8,1 L16,1 C18.209139,1 20,2.790861 20,5 L20,6 C20,7.01444647 19.6223634,7.94069119 19,8.6458244 L19,13 L20,13 C21.1045695,13 22,13.8954305 22,15 L22,18 C22,19.1045695 21.1045695,20 20,20 L19,20 C18.9580085,20 18.9163193,19.9987059 18.87497,19.9961554 C18.4322658,21.723333 16.8652237,23 15,23 L9,23 C7.13477634,23 5.56773423,21.723333 5.12503,19.9961554 C5.08368073,19.9987059 5.04199149,20 5,20 L4,20 C2.8954305,20 2,19.1045695 2,18 L2,15 C2,13.8954305 2.8954305,13 4,13 L5,13 L5,8.6458244 Z M19,15 L19,18 L20,18 L20,15 L19,15 Z M4,15 L4,18 L5,18 L5,15 L4,15 Z M9,17 L15,17 C15.5522847,17 16,17.4477153 16,18 C16,18.5522847 15.5522847,19 15,19 L9,19 C8.44771525,19 8,18.5522847 8,18 C8,17.4477153 8.44771525,17 9,17 Z" id="backpack"></path>
                </g>
            </g>
            <g id="slices" transform="translate(60.000000, 58.000000)"></g>
        </g>
    </g>
</svg>