<?xml version="1.0" encoding="UTF-8"?>
<svg width="24px" height="24px" viewBox="0 0 24 24" version="1.1" xmlns="http://www.w3.org/2000/svg" xmlns:xlink="http://www.w3.org/1999/xlink">
    <!-- Generator: Sketch 52.3 (67297) - http://www.bohemiancoding.com/sketch -->
    <title>jollycons-[category]/icons/svg/icon-travel-ice-cream</title>
    <desc>Created with Sketch.</desc>
    <g id="icons" stroke="none" stroke-width="1" fill="none" fill-rule="evenodd">
        <g id="icons---export" transform="translate(-316.000000, -138.000000)">
            <g id="row-2" transform="translate(60.000000, 138.000000)" fill="#000000" fill-rule="nonzero">
                <g id="icon---10" transform="translate(256.000000, 0.000000)">
                    <path d="M15.9260835,4.21396652 C17.7123755,4.80728675 19,6.48467477 19,8.46124977 C19,10.1608035 18.0480099,11.6391568 16.6455843,12.3973465 C16.6409748,12.416905 16.6360658,12.4364015 16.6308582,12.4558291 L13.9324699,22.5225038 C13.6478636,23.5842632 12.5519483,24.2154623 11.4846747,23.9323265 C10.7926166,23.7487312 10.2520789,23.2109863 10.0675301,22.5225038 L7.4108968,12.6116015 C5.99235556,12.0000324 5,10.5946392 5,8.95866642 C5,7.10376481 6.27572458,5.54528515 8.00193201,5.10420542 C8.00064714,5.06273797 8,5.02111078 8,4.97933321 C8,2.78160816 9.790861,1 12,1 C13.9459551,1 15.567358,2.38239368 15.9260681,4.21388752 L15.9260835,4.21396652 Z M15.7682145,6.3174784 C15.3253731,7.55155463 14.2873739,8.50435135 12.998068,8.83379421 C12.9993529,8.87526166 13,8.91688886 13,8.95866642 C13,9.41644573 12.9222988,9.85617072 12.7793013,10.2655008 C13.2275151,10.6886912 13.8332788,10.948333 14.5,10.948333 C15.8807119,10.948333 17,9.83482793 17,8.46124977 C17,7.54817762 16.50541,6.75002632 15.7682145,6.3174784 Z M12.4367576,6.92141596 C13.3312778,6.72319366 14,5.92895417 14,4.97933321 C14,3.88047069 13.1045695,2.98966661 12,2.98966661 C10.8954305,2.98966661 10,3.88047069 10,4.97933321 C10,5.02178519 10.0013364,5.06392665 10.0039697,5.10571822 C11.034713,5.37077172 11.9043113,6.03437019 12.4367576,6.92141596 Z M14.4318565,12.9374968 C13.3805143,12.9219709 12.416524,12.5477663 11.6580238,11.9324107 C11.0825326,12.4418669 10.3581702,12.7884833 9.55798286,12.8995911 L12,22.0098411 L14.4318565,12.9374968 Z M9,10.948333 C10.1045695,10.948333 11,10.0575289 11,8.95866642 C11,7.8598039 10.1045695,6.96899982 9,6.96899982 C7.8954305,6.96899982 7,7.8598039 7,8.95866642 C7,10.0575289 7.8954305,10.948333 9,10.948333 Z" id="ice-cream"></path>
                </g>
            </g>
            <g id="slices" transform="translate(60.000000, 58.000000)"></g>
        </g>
    </g>
</svg>