<?xml version="1.0" encoding="UTF-8"?>
<svg width="24px" height="24px" viewBox="0 0 24 24" version="1.1" xmlns="http://www.w3.org/2000/svg" xmlns:xlink="http://www.w3.org/1999/xlink">
    <!-- Generator: Sketch 52.3 (67297) - http://www.bohemiancoding.com/sketch -->
    <title>jollycons-[category]/icons/svg/icon-travel-swimming-shorts</title>
    <desc>Created with Sketch.</desc>
    <g id="icons" stroke="none" stroke-width="1" fill="none" fill-rule="evenodd">
        <g id="icons---export" transform="translate(-188.000000, -218.000000)">
            <g id="row-3" transform="translate(60.000000, 218.000000)" fill="#000000" fill-rule="nonzero">
                <g id="icon---13" transform="translate(128.000000, 0.000000)">
                    <path d="M19.6611631,4.30627405 L22.8998982,15.7854971 C23.2452807,16.7532887 22.7546466,17.8263698 21.7918649,18.1837586 L14.5155922,20.8847436 C13.5434371,21.2456119 12.4716986,20.7359188 12.1230336,19.7589296 L12.0101973,19.4427525 L11.897361,19.7589296 C11.548696,20.7359188 10.4769575,21.2456119 9.50480238,20.8847436 L2.22852965,18.1837586 C1.26574796,17.8263698 0.775113823,16.7532887 1.09994192,15.8498889 L4.3797859,4.24188232 C4.70956773,3.31780527 5.68622297,2.81177899 6.61364778,3.06503253 C10.2063319,3.33418935 13.814119,3.33418794 17.406803,3.06502832 C18.3342691,2.81198723 19.3119467,3.32131135 19.6611631,4.30627405 Z M13.9635734,11.1693641 L14.1160254,11.4334187 C14.3921678,11.9117113 14.2282926,12.5233017 13.75,12.7994441 C13.2717074,13.0755864 12.660117,12.9117113 12.3839746,12.4334187 L12,11.7683552 L11.6160254,12.4334187 C11.339883,12.9117113 10.7282926,13.0755864 10.25,12.7994441 C9.77170738,12.5233017 9.60783222,11.9117113 9.8839746,11.4334187 L10.0367894,11.1687356 C8.32025868,11.1146066 6.60540074,10.9898353 4.89658189,10.7944219 L4.61345431,10.7620446 L3.03467397,16.3496556 L10.0598514,18.9574329 L11.0683761,16.1314599 C11.3842768,15.246279 12.6361178,15.246279 12.9520185,16.1314599 L13.9605432,18.9574329 L20.9836001,16.3504428 L19.4068971,10.7620495 L19.1238127,10.7944219 C17.4083466,10.9905955 15.6867944,11.1155762 13.9635734,11.1693641 Z M18.85669,8.81192075 L17.7909031,5.03439495 C17.7517837,5.0421664 17.712188,5.04759976 17.6723254,5.0506491 C13.9030794,5.33898242 10.1173152,5.33898242 6.34806914,5.0506491 C6.30894992,5.04765662 6.27008763,5.04236821 6.2316804,5.0348273 L5.16443851,8.81200418 C9.7138737,9.32914985 14.3072595,9.32912204 18.85669,8.81192075 Z" id="swimming-shorts"></path>
                </g>
            </g>
            <g id="slices" transform="translate(60.000000, 58.000000)"></g>
        </g>
    </g>
</svg>