<?xml version="1.0" encoding="UTF-8"?>
<svg width="24px" height="24px" viewBox="0 0 24 24" version="1.1" xmlns="http://www.w3.org/2000/svg" xmlns:xlink="http://www.w3.org/1999/xlink">
    <!-- Generator: Sketch 52.3 (67297) - http://www.bohemiancoding.com/sketch -->
    <title>jollycons-[category]/icons/svg/icon-travel-camp-fire</title>
    <desc>Created with Sketch.</desc>
    <g id="icons" stroke="none" stroke-width="1" fill="none" fill-rule="evenodd">
        <g id="icons---export" transform="translate(-60.000000, -138.000000)">
            <g id="row-2" transform="translate(60.000000, 138.000000)" fill="#000000" fill-rule="nonzero">
                <g id="icon---6">
                    <path d="M16.4250942,20.0699514 L19.153056,20.8009065 C19.7511287,20.9611596 20.1060516,21.5759042 19.9457985,22.1739769 C19.7855454,22.7720496 19.1708009,23.1269725 18.5727281,22.9667194 L12.0934683,21.230607 L5.61420853,22.9667194 C5.01613581,23.1269725 4.40139126,22.7720496 4.24113816,22.1739769 C4.08088505,21.5759042 4.43580798,20.9611596 5.03388071,20.8009065 L7.76184249,20.0699514 L5.03388071,19.3389962 C4.43580798,19.1787431 4.08088505,18.5639986 4.24113816,17.9659258 C4.40139126,17.3678531 5.01613581,17.0129302 5.61420853,17.1731833 L12.0934683,18.9092957 L18.5727281,17.1731833 C19.1708009,17.0129302 19.7855454,17.3678531 19.9457985,17.9659258 C20.1060516,18.5639986 19.7511287,19.1787431 19.153056,19.3389962 L16.4250942,20.0699514 Z M10.9981883,5.15170793 C10.9993941,5.04638834 11,4.93760221 11,4.82531973 C11,2.59474923 11.6582355,1.46312342 13.1533124,1.43247643 C15.3941375,1.38654264 19,7.29932553 19,10.8253197 C19,15.4587358 16.2824807,17.8253197 12,17.8253197 C8.13400675,17.8253197 5,14.691313 5,10.8253197 C5,8.05082097 6.10777961,5.29233713 8.05522314,4.11858087 C8.80360739,3.66751738 9.3677927,3.99468361 9.9371019,4.64423587 C10.1715219,4.91169695 10.2983215,5.08889248 10.79217,5.80842722 C10.8711862,5.92342523 10.9027133,5.96911066 10.9488129,6.0352613 C10.9827902,5.79801213 10.9942475,5.49591756 10.9981883,5.15170793 Z M7,10.8253197 C7,13.5867435 9.23857625,16.0107233 12,16.0107233 C15.234663,16.0107233 17,14.2879551 17,10.8253197 C17,8.2728323 14.0373533,3.41477497 13.194301,3.43205637 C13.0745312,3.62853564 13,4.08312053 13,4.82531973 C13,4.94513428 12.9993516,5.06154708 12.9980572,5.17460427 C12.9712341,7.51745526 12.6894467,8.62260764 11.5323202,8.78972091 C10.6388086,8.91876265 10.2124091,8.47660473 9.30795397,7.17875678 C9.25865847,7.10802021 9.22470456,7.05881813 9.14319692,6.94019036 C8.87736708,6.55287764 8.73013583,6.34099083 8.61963596,6.19349904 C7.63687775,7.1333582 7,8.96355899 7,10.8253197 Z" id="camp-fire"></path>
                </g>
            </g>
            <g id="slices" transform="translate(60.000000, 58.000000)"></g>
        </g>
    </g>
</svg>