<?xml version="1.0" encoding="UTF-8"?>
<svg width="24px" height="24px" viewBox="0 0 24 24" version="1.1" xmlns="http://www.w3.org/2000/svg" xmlns:xlink="http://www.w3.org/1999/xlink">
    <!-- Generator: Sketch 52.3 (67297) - http://www.bohemiancoding.com/sketch -->
    <title>jollycons-[category]/icons/svg/icon-travel-camper</title>
    <desc>Created with Sketch.</desc>
    <g id="icons" stroke="none" stroke-width="1" fill="none" fill-rule="evenodd">
        <g id="icons---export" transform="translate(-188.000000, -138.000000)">
            <g id="row-2" transform="translate(60.000000, 138.000000)" fill="#000000" fill-rule="nonzero">
                <g id="icon---8" transform="translate(128.000000, 0.000000)">
                    <path d="M18.7158729,10 L19.400002,11.9113226 L22.3096121,13.2761548 C22.7309337,13.4737872 22.9999997,13.8971975 22.9999997,14.3625689 L22.9999997,17.2 C22.9999997,18.4712931 22.0115476,19.5117207 20.7612574,19.5946683 C20.7405211,19.596044 20.3261061,19.5971563 19.8243088,19.5980019 C19.3637558,20.9931413 18.0494601,22 16.5,22 C15.103802,22 13.8985475,21.1824737 13.3368156,20 L9.66318442,20 C9.10145245,21.1824737 7.89619798,22 6.5,22 C5.10380202,22 3.89854755,21.1824737 3.33681558,20 L1.00001381,20 C0,20 0,20 0,18.2 L0,7.6 L0.001,6.4 C0.001,4.52015818 1.53523274,3 3.42322003,3 L20.5287468,3 C22.4167341,3 23.9509668,4.52015818 23.9509668,6.4 C23.9509668,8.27984182 22.4167341,10 20.5287468,10 L18.7158729,10 Z M16.5916166,10 L14.9937994,10 C14.441515,10 13.9938,9.55228475 13.9938,9 C13.9938,8.44771525 14.441515,8 14.9937994,8 L20.5287468,8 C21.3162706,8 21.9509681,7.17112498 21.9509681,6.4 C21.9509681,5.62887502 21.3162706,5 20.5287468,5 L3.42322003,5 C2.63569625,5 2.00099872,5.62887502 2.00099872,6.4 L2.00099872,12.4 C2.00099872,12.4151226 2.00066304,12.4301668 1.99999872,12.4451255 L1.99999872,18 L3.03544443,18 C3.27805926,16.3038529 4.73676405,15 6.5,15 C8.26323595,15 9.72194074,16.3038529 9.96455557,18 L13.0354444,18 C13.2780593,16.3038529 14.736764,15 16.5,15 C18.1199571,15 19.482864,16.1005626 19.8818111,17.5947782 C20.2965631,17.5914386 20.7052806,17.5865405 20.7246101,17.5802094 C20.8845094,17.5278368 21.000001,17.3774057 21.000001,17.2 L21.000001,14.9662693 C21.000001,14.9080979 20.9663678,14.8551716 20.9137026,14.8304676 L17.8538772,13.3951728 C17.817716,13.3782104 17.7898133,13.3475262 17.776353,13.3099207 L16.5916166,10 Z M9.0000087,8 C9.55229309,8 10.0000081,8.44771525 10.0000081,9 L10.0000081,13 C10.0000081,13.5522847 9.55229309,14 9.0000087,14 C8.4477243,14 8.00000934,13.5522847 8.00000934,13 L8.00000934,9 C8.00000934,8.44771525 8.4477243,8 9.0000087,8 Z M5.00001125,8 C5.55229565,8 6.00001061,8.44771525 6.00001061,9 L6.00001061,13 C6.00001061,13.5522847 5.55229565,14 5.00001125,14 C4.44772686,14 4.00001189,13.5522847 4.00001189,13 L4.00001189,9 C4.00001189,8.44771525 4.44772686,8 5.00001125,8 Z M14.8779838,11 C15.1134373,11 15.3169864,11.1642697 15.3667078,11.3944136 L15.6691705,13.3944136 C15.6766663,13.429109 15.6804462,13.4645041 15.6804462,13.5 C15.6804462,13.7761424 15.4565887,14 15.1804465,14 L12.5282072,14 C12.252065,14 12.0282075,13.7761424 12.0282075,13.5 L12.0282075,11.5 C12.0282075,11.2238576 12.252065,11 12.5282072,11 L14.8779838,11 Z M16.5,20 C17.3284271,20 18,19.3284271 18,18.5 C18,17.6715729 17.3284271,17 16.5,17 C15.6715729,17 15,17.6715729 15,18.5 C15,19.3284271 15.6715729,20 16.5,20 Z M6.5,20 C7.32842712,20 8,19.3284271 8,18.5 C8,17.6715729 7.32842712,17 6.5,17 C5.67157288,17 5,17.6715729 5,18.5 C5,19.3284271 5.67157288,20 6.5,20 Z" id="camper"></path>
                </g>
            </g>
            <g id="slices" transform="translate(60.000000, 58.000000)"></g>
        </g>
    </g>
</svg>