<?xml version="1.0" encoding="UTF-8"?>
<svg width="24px" height="24px" viewBox="0 0 24 24" version="1.1" xmlns="http://www.w3.org/2000/svg" xmlns:xlink="http://www.w3.org/1999/xlink">
    <!-- Generator: Sketch 52.3 (67297) - http://www.bohemiancoding.com/sketch -->
    <title>jollycons-[category]/icons/svg/icon-travel-shirt</title>
    <desc>Created with Sketch.</desc>
    <g id="icons" stroke="none" stroke-width="1" fill="none" fill-rule="evenodd">
        <g id="icons---export" transform="translate(-124.000000, -218.000000)">
            <g id="row-3" transform="translate(60.000000, 218.000000)" fill="#000000" fill-rule="nonzero">
                <g id="icon---12" transform="translate(64.000000, 0.000000)">
                    <path d="M8.08448092,3.87478407 C8.14911171,2.82854478 9.01810978,2 10.0806248,2 L13.9193752,2 C14.3735181,2 14.8141392,2.1545615 15.1687652,2.43826238 C15.6215577,2.80049637 15.8751899,3.31941874 15.9141556,3.85547511 C15.9713085,3.86170733 16.0354795,3.86869775 16.1082156,3.87662026 C16.2347499,3.89056499 16.2347499,3.89056499 16.3603677,3.9047156 C16.7637416,3.9505034 17.0227274,3.98474157 17.1961161,4.01941932 L20.4559616,4.67138842 C21.9241336,4.96502282 23,6.1720959 23,7.60434321 L23,13.555354 C23,13.9129718 22.7245699,14.2304671 22.3162278,14.3435558 L19,15.2619713 L19,20 C19,21.7012916 17.44155,23 15.6,23 L8.4,23 C6.55845002,23 5,21.7012916 5,20 L5,15.2619713 L1.68377223,14.3435558 C1.27543009,14.2304671 1,13.9129718 1,13.555354 L1,7.60434321 C1,6.1720959 2.07586639,4.96502282 3.5440384,4.67138842 L6.80388386,4.01941932 C7.05682501,3.9688311 7.41969374,3.93056998 8.08448092,3.87478407 Z M13,8.13158897 L13,21 L15.6,21 C16.4094168,21 17,20.5078473 17,20 L17,12 C17,11.4477153 17.4477153,11 18,11 C18.5522847,11 19,11.4477153 19,12 L19,13.1866891 L21,12.6327974 L21,10 L21,7.60434321 C21,7.16179593 20.6290576,6.74561541 20.0637293,6.63254977 L16.8038839,5.98058068 C16.7068182,5.96116754 16.4777047,5.9308785 16.1347922,5.89195381 C16.0137484,5.87831824 16.0137484,5.87831824 15.8898702,5.86466585 C15.5885424,5.8318479 15.4299111,5.81455452 15.3081047,5.80084945 C15.2137199,5.79022973 15.1328068,5.78082058 15.0628372,5.77223451 L13.5617376,7.64860904 C13.4694741,7.76393844 13.3647195,7.86869304 13.2493901,7.96095656 C13.1694093,8.02494122 13.0860229,8.0817902 13,8.13158897 Z M11,8.13188911 C10.7900801,8.01080665 10.5987859,7.84926348 10.4382624,7.64860904 L8.96606602,5.80836359 C8.75911373,5.82600346 8.20386252,5.87175129 8.30463505,5.8633554 C7.70149377,5.91360629 7.3474223,5.95031944 7.19611614,5.98058068 L3.93627067,6.63254977 C3.37094244,6.74561541 3,7.16179593 3,7.60434321 L3,12.6327974 L5,13.1866891 L5,12 C5,11.4477153 5.44771525,11 6,11 C6.55228475,11 7,11.4477153 7,12 L7,20 C7,20.5078473 7.59058318,21 8.4,21 L11,21 L11,8.13188911 Z M13.9193752,4 L10.0806248,4 L12,6.39921894 L13.9193752,4 Z" id="shirt"></path>
                </g>
            </g>
            <g id="slices" transform="translate(60.000000, 58.000000)"></g>
        </g>
    </g>
</svg>