<?xml version="1.0" encoding="UTF-8"?>
<svg width="24px" height="24px" viewBox="0 0 24 24" version="1.1" xmlns="http://www.w3.org/2000/svg" xmlns:xlink="http://www.w3.org/1999/xlink">
    <!-- Generator: Sketch 52.3 (67297) - http://www.bohemiancoding.com/sketch -->
    <title>jollycons-[category]/icons/svg/icon-travel-passport</title>
    <desc>Created with Sketch.</desc>
    <g id="icons" stroke="none" stroke-width="1" fill="none" fill-rule="evenodd">
        <g id="icons---export" transform="translate(-252.000000, -58.000000)">
            <g id="row-1" transform="translate(60.000000, 58.000000)" fill="#000000" fill-rule="nonzero">
                <g id="icon---4" transform="translate(192.000000, 0.000000)">
                    <path d="M11.5427506,7.375 L12.4572494,7.375 C12.2602744,6.84271461 12.0809995,6.625 12,6.625 C11.9190005,6.625 11.7397256,6.84271461 11.5427506,7.375 Z M7,2 L17,2 C18.6568542,2 20,3.34314575 20,5 L20,19 C20,20.6568542 18.6568542,22 17,22 L7,22 C5.34314575,22 4,20.6568542 4,19 L4,5 C4,3.34314575 5.34314575,2 7,2 Z M7,4 C6.44771525,4 6,4.44771525 6,5 L6,19 C6,19.5522847 6.44771525,20 7,20 L17,20 C17.5522847,20 18,19.5522847 18,19 L18,5 C18,4.44771525 17.5522847,4 17,4 L7,4 Z M12,14.5 C9.51471863,14.5 7.5,12.4852814 7.5,10 C7.5,7.98932524 8.83024483,6.23920726 10.7311733,5.68149671 C11.1400348,5.56154144 11.5661743,5.5 12,5.5 C14.4852814,5.5 16.5,7.51471863 16.5,10 C16.5,10.4440098 16.4355345,10.8799385 16.3099909,11.2974855 C15.7427646,13.18403 13.999785,14.5 12,14.5 Z M9,16 L15,16 C15.5522847,16 16,16.4477153 16,17 C16,17.5522847 15.5522847,18 15,18 L9,18 C8.44771525,18 8,17.5522847 8,17 C8,16.4477153 8.44771525,16 9,16 Z M8.53544443,10.5 C8.58594751,10.8530726 8.68914529,11.1891467 8.83681558,11.5 L10.1453793,11.5 C10.0815544,11.1846519 10.0372532,10.84932 10.0154734,10.5 L8.53544443,10.5 Z M8.53565437,9.5 L10.0154734,9.5 C10.0372532,9.15067995 10.0815544,8.81534812 10.1453793,8.5 L8.83731789,8.5 C8.68920919,8.812049 8.58617173,9.14842602 8.53565437,9.5 Z M15.4646245,10.5 L13.9845266,10.5 C13.9627468,10.84932 13.9184456,11.1846519 13.8546207,11.5 L15.1636135,11.5 C15.2380347,11.3430468 15.3013135,11.1792633 15.3523413,11.0095495 C15.4023585,10.8431966 15.4399072,10.6730204 15.4646245,10.5 Z M15.4645556,9.5 C15.4140525,9.14692735 15.3108547,8.8108533 15.1631844,8.5 L13.8546207,8.5 C13.9184456,8.81534812 13.9627468,9.15067995 13.9845266,9.5 L15.4645556,9.5 Z M11.0177424,10.5 C11.0430485,10.8536358 11.0948277,11.1907747 11.1692225,11.5 L12.8307775,11.5 C12.9051723,11.1907747 12.9569515,10.8536358 12.9822576,10.5 L11.0177424,10.5 Z M11.0177424,9.5 L12.9822576,9.5 C12.9569515,9.14636424 12.9051723,8.80922526 12.8307775,8.5 L11.1692225,8.5 C11.0948277,8.80922526 11.0430485,9.14636424 11.0177424,9.5 Z M9.55050863,12.5 C9.92310532,12.8651154 10.376979,13.1476003 10.8824746,13.3177997 C10.7146737,13.0912756 10.5649836,12.8151738 10.4386573,12.5 L9.55050863,12.5 Z M14.4501513,12.5 L13.5613427,12.5 C13.4351477,12.8148461 13.2856375,13.0907014 13.1180488,13.3170928 C13.6209458,13.1475716 14.0757801,12.8664402 14.4501513,12.5 Z M11.5427506,12.625 C11.7397256,13.1572854 11.9190005,13.375 12,13.375 C12.0809995,13.375 12.2602744,13.1572854 12.4572494,12.625 L11.5427506,12.625 Z M9.54979476,7.5 L10.4386573,7.5 C10.5650257,7.18472122 10.7147735,6.90854045 10.8826423,6.681974 C10.373017,6.85331813 9.92018685,7.13647143 9.54979476,7.5 Z M14.4494914,7.5 C14.0768947,7.13488456 13.623021,6.85239966 13.1175254,6.68220034 C13.2853263,6.90872437 13.4350164,7.1848262 13.5613427,7.5 L14.4494914,7.5 Z" id="passport"></path>
                </g>
            </g>
            <g id="slices" transform="translate(60.000000, 58.000000)"></g>
        </g>
    </g>
</svg>