<svg xmlns="http://www.w3.org/2000/svg" width="24" height="24" viewBox="0 0 24 24">
  <path d="M11.6472738,17.1732002 L17.1685236,11.6307188 L11.4942298,5.99130407 L5.96525701,11.5202768 L11.6472738,17.1732002 Z M20.3850288,2.74492069 C22.7281746,5.0714816 22.7281746,8.84358215 20.3850288,11.1701431 L11.1926407,20.2974673 C8.84949494,22.6240282 5.05050506,22.6240282 2.70735931,20.2974673 C0.364213562,17.9709064 0.364213562,14.1988058 2.70735931,11.8722449 L11.8997475,2.74492069 C14.2428932,0.418359771 18.0418831,0.418359771 20.3850288,2.74492069 Z M10.7549079,10.0304576 C10.320992,9.59654169 10.3159669,8.89805017 10.743684,8.47033309 C11.1714011,8.04261602 11.8698926,8.04764113 12.3038085,8.48155701 C12.7377244,8.91547289 12.7427495,9.61396441 12.3150324,10.0416815 C11.8873153,10.4693986 11.1888238,10.4643734 10.7549079,10.0304576 Z M13.1119305,12.3874802 C12.6780146,11.9535643 12.6729895,11.2550728 13.1007066,10.8273557 C13.5284237,10.3996386 14.2269152,10.4046637 14.6608311,10.8385796 C15.094747,11.2724955 15.0997721,11.970987 14.672055,12.3987041 C14.2443379,12.8264211 13.5458464,12.821396 13.1119305,12.3874802 Z M8.43155707,12.3538084 C7.99764119,11.9198925 7.99261607,11.221401 8.42033315,10.7936839 C8.84805023,10.3659669 9.54654175,10.370992 9.98045763,10.8049078 C10.4143735,11.2388237 10.4193986,11.9373152 9.99168155,12.3650323 C9.56396447,12.7927494 8.86547295,12.7877243 8.43155707,12.3538084 Z M10.7885797,14.710831 C10.3546638,14.2769151 10.3496387,13.5784236 10.7773558,13.1507065 C11.2050728,12.7229894 11.9035644,12.7280146 12.3374802,13.1619304 C12.7713961,13.5958463 12.7764212,14.2943378 12.3487042,14.7220549 C11.9209871,15.149772 11.2224955,15.1447469 10.7885797,14.710831 Z M10.2311581,18.4724552 L4.54914122,12.9363926 L4.12157288,13.355122 C2.55947571,14.8849265 2.55947571,17.3652297 4.12157288,18.8950342 C5.68367004,20.4248387 8.21632996,20.4248387 9.77842712,18.8950342 L10.2311581,18.4724552 Z M18.5827439,10.2164985 L18.9708153,9.82842706 C20.5329124,8.2663299 20.5329124,5.73367001 18.9708153,4.17157285 C17.4087181,2.6094757 14.8760582,2.6094757 13.313961,4.17157285 L12.9084501,4.5770838 L18.5827439,10.2164985 Z"/>
</svg>
