<svg xmlns="http://www.w3.org/2000/svg" width="24" height="24" viewBox="0 0 24 24">
  <path d="M9.00234165,4 L9.00234165,5 L15.0023416,5 L15.0023416,4 L9.00234165,4 Z M16.0023416,6.73243561 L16.0023416,7 L17.0023416,7 C17.8724819,7 18.523514,7.39603042 18.8163611,8.13255365 C18.9888063,8.56626077 19.0103614,8.88632133 19.0036363,9.74835572 C19.002656,9.87513732 19.0023416,9.92986489 19.0023416,10 L19.0023416,20 C19.0023416,21.6568542 17.6591959,23 16.0023416,23 L8.00234165,23 C6.3454874,23 5.00234165,21.6568542 5.00234165,20 L5.00234165,10 C5.00234165,9.92986489 5.00202729,9.87513732 5.00104698,9.74835572 C4.99432184,8.88632133 5.01587697,8.56626077 5.18832216,8.13255365 C5.48116929,7.39603042 6.13220139,7 7.00234165,7 L8.00896536,7 L8.00539626,6.73419901 C7.40591077,6.38882646 7.00234165,5.74154254 7.00234165,5 L7.00234165,4 C7.00234165,2.8954305 7.89777215,2 9.00234165,2 L15.0023416,2 C16.1069111,2 17.0023416,2.8954305 17.0023416,4 L17.0023416,5 C17.0023416,5.74028236 16.600143,6.38662619 16.0023416,6.73243561 Z M14.0023416,7 L10.0091457,7 L10.0223931,7.98657348 C10.0298789,8.54405883 9.58001886,9 9.02248325,9 L7.01912784,9 C7.00366534,9.12926598 6.99798944,9.34863547 7.00098612,9.73275326 C7.00199345,9.86242086 7.00234165,9.92304087 7.00234165,10 L7.00234165,20 C7.00234165,20.5522847 7.4500569,21 8.00234165,21 L16.0023416,21 C16.5546264,21 17.0023416,20.5522847 17.0023416,20 L17.0023416,10 C17.0023416,9.92304087 17.0026898,9.86242086 17.0036972,9.73275326 C17.0066939,9.34863547 17.001018,9.12926598 16.9855555,9 L15.0023416,9 C14.4500569,9 14.0023416,8.55228475 14.0023416,8 L14.0023416,7 Z M13,14 L14,14 C14.5522847,14 15,14.4477153 15,15 C15,15.5522847 14.5522847,16 14,16 L13,16 L13,17.25 C13,17.6642136 12.6642136,18 12.25,18 L11.75,18 C11.3357864,18 11,17.6642136 11,17.25 L11,16 L10,16 C9.44771525,16 9,15.5522847 9,15 C9,14.4477153 9.44771525,14 10,14 L11,14 L11,12.75 C11,12.3357864 11.3357864,12 11.75,12 L12.25,12 C12.6642136,12 13,12.3357864 13,12.75 L13,14 Z"/>
</svg>
