<svg xmlns="http://www.w3.org/2000/svg" width="24" height="24" viewBox="0 0 24 24">
  <path d="M10.0409348,20.3261244 C10.1945188,19.9665104 10.3371737,19.5656035 10.4680885,19.1263056 C10.5391598,18.8878186 10.6062585,18.6399938 10.6695066,18.3833988 L6.17976312,13.8936553 C5.44709821,14.0526925 4.78781611,14.2529344 4.21357352,14.4987631 L10.0409348,20.3261244 Z M9.05251703,21.909004 L2.64291753,15.4994045 C2.28789545,15.8544265 1.68861895,15.8307546 1.30439602,15.4465316 C0.920173085,15.0623087 0.896501118,14.4630322 1.2515232,14.1080101 C1.75540079,13.6041325 2.39146541,13.1855814 3.14489293,12.8406195 C4.3953861,12.2680727 5.93049381,11.9103894 7.69696212,11.7081634 C8.46271069,11.6205002 9.22857715,11.5666288 10.0485002,11.5336063 C10.4190389,11.5186829 11.3104796,11.4951153 11.4886781,11.4886781 C11.4951153,11.3104796 11.5186829,10.4190389 11.5336063,10.0485002 C11.5666288,9.22857715 11.6205002,8.46271069 11.7081634,7.69696212 C11.9103894,5.93049381 12.2680727,4.3953861 12.8406195,3.14489293 C13.1855814,2.39146541 13.6041325,1.75540079 14.1080101,1.2515232 C14.4630322,0.896501118 15.0623087,0.920173085 15.4465316,1.30439602 C15.8307546,1.68861895 15.8544265,2.28789545 15.4994045,2.64291753 L21.909004,9.05251703 C22.264026,8.69749495 22.8633025,8.72116691 23.2475255,9.10538985 C23.6317484,9.48961278 23.6554204,10.0888893 23.3003983,10.4439114 C22.508761,11.2355487 21.3208609,11.8330809 19.7962455,12.2874303 C19.2131074,12.4612108 18.5871011,12.6118996 17.9230921,12.7417789 L17.9037329,12.7611381 L17.8906892,12.7480945 C17.3461098,12.8538627 16.7761164,12.9457105 16.1833782,13.02489 C15.2949491,13.1435685 14.394005,13.2289353 13.4701593,13.290363 C13.4135745,13.2941254 13.3573357,13.2977706 13.30131,13.30131 C13.2977706,13.3573357 13.2941254,13.4135745 13.290363,13.4701593 C13.2289353,14.394005 13.1435685,15.2949491 13.02489,16.1833782 C12.8474153,17.5119557 12.6062947,18.7262637 12.2874303,19.7962455 C11.8330809,21.3208609 11.2355487,22.508761 10.4439114,23.3003983 C10.0888893,23.6554204 9.48961278,23.6317484 9.10538985,23.2475255 C8.72116691,22.8633025 8.69749495,22.264026 9.05251703,21.909004 Z M13.3916359,11.3866839 C14.2089404,11.3289859 15.0058554,11.2512431 15.7884956,11.1466961 C15.9365084,11.1269241 16.0828672,11.1063342 16.2275073,11.0849122 L13.552778,8.41018322 C13.4925176,9.0116446 13.4527119,9.62306822 13.4265224,10.273334 C13.4166249,10.5190823 13.4020467,11.0321214 13.3916359,11.3866839 Z M13.8936553,6.17976312 L18.3833988,10.6695066 C18.6399938,10.6062585 18.8878186,10.5391598 19.1263056,10.4680885 C19.5656035,10.3371737 19.9665104,10.1945188 20.3261244,10.0409348 L14.4987631,4.21357352 C14.2529344,4.78781611 14.0526925,5.44709821 13.8936553,6.17976312 Z M11.3866839,13.3916359 C11.0321214,13.4020467 10.5190823,13.4166249 10.273334,13.4265224 C9.62306822,13.4527119 9.01164461,13.4925176 8.41018324,13.552778 L11.0849123,16.227507 C11.1063342,16.082867 11.1269241,15.9365083 11.1466961,15.7884956 C11.2512431,15.0058554 11.3289859,14.2089404 11.3866839,13.3916359 Z"/>
</svg>
