<svg xmlns="http://www.w3.org/2000/svg" width="24" height="24" viewBox="0 0 24 24">
  <path d="M22.3,11.25 C22.7142136,11.25 23.05,11.5857864 23.05,12 C23.05,12.4142136 22.7142136,12.75 22.3,12.75 L19.8150193,12.75 C19.7048005,12.9087488 19.5871435,13.0638329 19.46207,13.2147619 L13.5482327,20.3511241 C13.4687071,20.4470895 13.3803852,20.5354111 13.2844196,20.6149364 C12.4339248,21.3197289 11.1731154,21.2016139 10.4683229,20.3511191 L4.5515275,13.2111403 C4.42740613,13.0613593 4.31058439,12.9074862 4.20108379,12.75 L1.7,12.75 C1.28578644,12.75 0.95,12.4142136 0.95,12 C0.95,11.5857864 1.28578644,11.25 1.7,11.25 L3.4145769,11.25 C2.64953678,9.2059139 2.89401093,6.86410937 4.18236711,4.98995504 C4.33649401,4.76574872 4.50981109,4.55535873 4.70036286,4.36115885 C6.51708237,2.50965826 9.49076231,2.48146262 11.3422629,4.29818214 L12.0069879,4.95042002 L12.6587434,4.30855097 C12.8530307,4.11721084 13.0636025,3.94314345 13.2880753,3.7883192 C15.424683,2.31464983 18.3513909,2.85206755 19.8250603,4.98867528 C21.1169853,6.86177996 21.3640817,9.20458273 20.6001982,11.25 L22.3,11.25 Z M7.03647451,11.25 L7.82917961,9.6645898 C8.10557281,9.1118034 8.89442719,9.1118034 9.17082039,9.6645898 L10.6656657,12.6542803 L12.9305575,10.0119065 C13.1877926,9.71179894 13.633788,9.66284103 13.95,9.9 L15.75,11.25 L18.3987257,11.25 C19.3041401,9.66304628 19.2434365,7.66795001 18.1786876,6.12421785 C17.332161,4.89687665 15.6509591,4.58816537 14.4236179,5.4346919 C14.294673,5.5236283 14.1737132,5.62361861 14.0621079,5.73353098 L12.0095668,7.75493711 L9.9415215,5.72574072 C8.87843974,4.68262933 7.17103284,4.6988185 6.12792144,5.76190025 C6.01851175,5.87340459 5.91899775,5.99420486 5.83050224,6.12293808 C4.76811525,7.66837809 4.70976401,9.66361749 5.61689181,11.25 L7.03647451,11.25 Z M17.2497318,12.75 L15.5,12.75 C15.3377223,12.75 15.1798221,12.6973666 15.05,12.6 L13.6121442,11.5216082 L11.0694425,14.4880935 C10.7203681,14.8953469 10.069058,14.815167 9.82917961,14.3354102 L8.5,11.677051 L8.17082039,12.3354102 C8.04377638,12.5894982 7.78407904,12.75 7.5,12.75 L6.76686246,12.75 L12.0082799,19.0749794 L17.2497318,12.75 Z"/>
</svg>
