<svg xmlns="http://www.w3.org/2000/svg" width="24" height="24" viewBox="0 0 24 24">
  <path d="M12,5 L12,5.5 C12,6.32842712 11.3284271,7 10.5,7 C9.67157288,7 9,6.32842712 9,5.5 L9,2.5 C9,1.67157288 9.67157288,1 10.5,1 C11.3284271,1 12,1.67157288 12,2.5 L12,3 L13,3 C14.1045695,3 15,3.8954305 15,5 L15,10 C15,13.5264719 12.3922941,16.4438815 9,16.9291111 L9,17 C9,19.7518014 10.8394352,22 14,22 C17.1605648,22 19,19.7518014 19,17 L19,12.8292943 C17.8348076,12.4174579 17,11.3062188 17,10 C17,8.34314575 18.3431458,7 20,7 C21.6568542,7 23,8.34314575 23,10 C23,11.3062188 22.1651924,12.4174579 21,12.8292943 L21,17 C21,20 19,24 14,24 C9,24 7,20 7,17 L7,16.9291111 C3.60770586,16.4438815 1,13.5264719 1,10 L1,5 C1,3.8954305 1.8954305,3 3,3 L4,3 L4,2.5 C4,1.67157288 4.67157288,1 5.5,1 C6.32842712,1 7,1.67157288 7,2.5 L7,5.5 C7,6.32842712 6.32842712,7 5.5,7 C4.67157288,7 4,6.32842712 4,5.5 L4,5 L3,5 L3,10 C3,12.7614237 5.23857625,15 8,15 C10.7614237,15 13,12.7614237 13,10 L13,5 L12,5 Z M20,11 C20.5522847,11 21,10.5522847 21,10 C21,9.44771525 20.5522847,9 20,9 C19.4477153,9 19,9.44771525 19,10 C19,10.5522847 19.4477153,11 20,11 Z"/>
</svg>
