<svg xmlns="http://www.w3.org/2000/svg" width="24" height="24" viewBox="0 0 24 24">
  <path d="M15.9673616,2 C19.2525585,2 21.0159973,4.73901278 21.0159973,8.46842108 C21.0160575,8.60430093 21.0160575,8.60430093 21.0162396,8.75124142 C21.0189141,10.9437779 20.9775139,12.3100506 20.7970668,13.9165814 C20.2925477,18.408344 19.0813316,21 16.1003615,21 C15.2631476,21 14.4252192,20.7840517 13.6091072,20.3767043 C13.2360687,20.190509 13.0003612,20.0094169 13.0003615,19.592492 L13.0003615,15.2199999 C13.0003615,15.0984973 12.9018642,15 12.7803616,15 L11.2273371,15 C11.1058345,15 11,15.0984973 11,15.2199999 L11,19.5924944 C11,20.0094193 10.7716262,20.1905111 10.3985877,20.3767062 C9.58247684,20.7840524 8.93757416,21 8.10036154,21 C5.11939146,21 3.72381111,18.408344 3.21929202,13.9165814 C3.03884493,12.3100506 2.99744472,10.9437779 3.00011919,8.75124142 C3.00030127,8.60430093 3.00030127,8.60430093 3.00036152,8.46842108 C3.00036152,4.73901278 4.94816454,2 8.23336144,2 C9.39338568,2 10.7939,2.25582767 12.1003615,2.71359812 C13.4068231,2.25582767 14.8073374,2 15.9673616,2 Z M9.00036152,15.42 C9.00036152,14.0834709 10.0838324,13 11.4203615,13 L12.7803616,13 C14.1168907,13 15,14.0866614 15,15.4231913 L15,18.8590071 C15.3084718,18.9551764 15.669539,19.0031905 15.9604162,19.0031905 C17.3298772,19.0031905 18.3426899,17.0231203 18.7306246,13.5693156 C18.8991328,12.0690774 18.9487786,10.6193786 18.9462006,8.50597142 C18.946018,8.35872285 18.946018,8.35872285 18.9459567,8.22046751 C18.9459567,5.57665243 17.8551995,4.06732382 15.9775109,4.06732382 C14.9790422,4.06732382 13.6766478,4.31149579 12.5087713,4.76510571 C12.2525869,4.86460918 11.9684346,4.86460918 11.7122502,4.76510571 C10.5443737,4.31149579 9.2419793,4.06732382 8.24351066,4.06732382 C6.36582207,4.06732382 5.11367945,5.85474905 5.11367945,8.49856414 C5.11361812,8.63681948 5.11361812,8.63681948 5.11343548,8.78406805 C5.11085754,10.8974752 5.14020488,12.347174 5.30871308,13.8474122 C5.69664775,17.301217 6.73090061,19 8.10036154,19 C8.39123799,19 8.6918906,18.9519861 9.00036152,18.8558173 L9.00036152,15.42 Z"/>
</svg>
