<svg xmlns="http://www.w3.org/2000/svg" width="24" height="24" viewBox="0 0 24 24">
  <path d="M22,18.2675644 C22.5978014,18.6133738 23,19.2597176 23,20 C23,21.1045695 22.1045695,22 21,22 C19.8954305,22 19,21.1045695 19,20 C19,19.2597176 19.4021986,18.6133738 20,18.2675644 L20,17 L16,17 C15.9034151,17 15.8100283,16.9863071 15.721675,16.9607567 C14.8737681,19.8723914 12.1853488,22 9,22 C5.13400675,22 2,18.8659932 2,15 C2,11.8289794 4.10851105,9.15042787 7,8.28987868 L7,5 L2,5 C1.44771525,5 1,4.55228475 1,4 C1,3.44771525 1.44771525,3 2,3 L8,3 C8.55228475,3 9,3.44771525 9,4 L9,8 L18,8 C19,8 19.266261,8.17231714 19.4417419,8.6636636 C21.149667,13.4962655 22.0024197,15.9417109 22,16 L22,18.2675644 Z M19.5809951,15 L17.7952808,10 L13.8989827,10 C15.1955328,11.270517 16,13.0413118 16,15 L19.5809951,15 Z M9,20 C11.7614237,20 14,17.7614237 14,15 C14,12.2385763 11.7614237,10 9,10 C6.23857625,10 4,12.2385763 4,15 C4,17.7614237 6.23857625,20 9,20 Z"/>
</svg>
