<svg xmlns="http://www.w3.org/2000/svg" width="24" height="24" viewBox="0 0 24 24">
  <path d="M14,3 L5,3 L5,20 L19,20 L19,8 L16,8 C14.8954305,8 14,7.1045695 14,6 L14,3 Z M16,3.40653885 L16,6 L18.573526,6 L16,3.40653885 Z M5,1 L15.5965861,1 C16.1296935,1 16.6407387,1.2128378 17.0162454,1.59125321 L20.4196593,5.02103078 C20.7913991,5.3956502 21,5.90201795 21,6.42977757 L21,20 C21,21.1045695 20.1045695,22 19,22 L5,22 C3.8954305,22 3,21.1045695 3,20 L3,3 C3,1.8954305 3.8954305,1 5,1 Z M8,8 L11,8 C11.5522847,8 12,8.44771525 12,9 C12,9.55228475 11.5522847,10 11,10 L8,10 C7.44771525,10 7,9.55228475 7,9 C7,8.44771525 7.44771525,8 8,8 Z M8,14 L11,14 C11.5522847,14 12,14.4477153 12,15 C12,15.5522847 11.5522847,16 11,16 L8,16 C7.44771525,16 7,15.5522847 7,15 C7,14.4477153 7.44771525,14 8,14 Z M8,11 L14,11 C14.5522847,11 15,11.4477153 15,12 C15,12.5522847 14.5522847,13 14,13 L8,13 C7.44771525,13 7,12.5522847 7,12 C7,11.4477153 7.44771525,11 8,11 Z"/>
</svg>
