<svg xmlns="http://www.w3.org/2000/svg" width="24" height="24" viewBox="0 0 24 24">
  <path d="M5,18 L4,18 C3.44771525,18 3,17.5522847 3,17 C3,16.4477153 3.44771525,16 4,16 L5,16 L5,13 L4,13 C3.44771525,13 3,12.5522847 3,12 C3,11.4477153 3.44771525,11 4,11 L5,11 L5,8 L4,8 C3.44771525,8 3,7.55228475 3,7 C3,6.44771525 3.44771525,6 4,6 L5,6 L5,5 C5,3.34314575 6.34314575,2 8,2 L18,2 C19.6568542,2 21,3.34314575 21,5 L21,19 C21,20.6568542 19.6568542,22 18,22 L8,22 C6.34314575,22 5,20.6568542 5,19 L5,18 Z M8,4 C7.44771525,4 7,4.44771525 7,5 L7,19 C7,19.5522847 7.44771525,20 8,20 L18,20 C18.5522847,20 19,19.5522847 19,19 L19,5 C19,4.44771525 18.5522847,4 18,4 L8,4 Z M11.8741717,13.5249447 C11.5703344,13.2624842 11.3342959,12.9263221 11.1885846,12.62259 C11.0012238,12.2320407 10.7869007,11.4126512 10.8716055,10.936022 C10.9868786,10.287387 10.6891849,9.3316729 11.0442759,8.89769645 C11.3993669,8.46371995 12.0499263,8 12.7858794,8 C13.1092339,8 13.3735007,8.38129418 13.7753068,8.27161486 C14.1986597,8.156054 14.7515418,8.65439547 14.9506171,8.89769645 C15.3057081,9.3316729 14.966664,10.2934536 15.1057138,10.936022 C15.2127803,11.4307913 14.9796842,12.2120892 14.8003579,12.5979742 C14.6564334,12.9076797 14.4255174,13.2488704 14.1254857,13.5154068 C14.134952,13.8192894 14.2823187,14.1030851 14.5268747,14.285609 L15.644032,15.1193972 C15.8680497,15.2865924 16,15.5497224 16,15.8292544 C16,16.1378974 15.8248894,16.4198128 15.5482128,16.5565993 C14.9313671,16.8615673 14.0795186,17.0140493 12.9926694,17.0140493 C11.9101739,17.0140493 11.0637947,16.8627865 10.4535316,16.5602608 L10.4535252,16.5602738 C10.1757341,16.4225645 10,16.1393056 10,15.8292544 C10,15.5497224 10.1319503,15.2865924 10.355968,15.1193972 L11.4731253,14.285609 C11.7151209,14.1049961 11.8619516,13.8252208 11.8741717,13.5249447 Z"/>
</svg>
