<svg xmlns="http://www.w3.org/2000/svg" width="24" height="24" viewBox="0 0 24 24">
  <path d="M21,18.2361065 L21,19 C21,20.6568542 19.6568542,22 18,22 L12,22 C10.8954305,22 10,21.1045695 10,20 C10,18.8954305 10.8954305,18 12,18 C13.1045695,18 14,18.8954305 14,20 L18,20 C18.5522847,20 19,19.5522847 19,19 L18,19 C16.8954305,19 16,18.1045695 16,17 L16,12 C16,10.8954305 16.8954305,10 18,10 L18.0840133,10 C18.3845001,5.1854418 16.4184337,3 11.9411765,3 C7.46600719,3 5.53579222,5.1807664 5.90377771,10 L6,10 C7.1045695,10 8,10.8954305 8,12 L8,17 C8,18.1045695 7.1045695,19 6,19 L5,19 C3.34314575,19 2,17.6568542 2,16 L2,13 C2,11.725759 2.79443371,10.637068 3.91502539,10.2022026 C3.46160317,4.22372555 6.221264,1 11.9411765,1 C17.6577333,1 20.4525304,4.21810248 20.0739331,10.197943 C21.2003442,10.6299253 22,11.7215779 22,13 L22,16 C22,16.8884998 21.6137494,17.686786 21,18.2361065 L21,18.2361065 Z M4,13 L4,16 C4,16.5522847 4.44771525,17 5,17 L6,17 L6,12 L5,12 C4.44771525,12 4,12.4477153 4,13 Z M18,12 L18,17 L19,17 C19.5522847,17 20,16.5522847 20,16 L20,13 C20,12.4477153 19.5522847,12 19,12 L18,12 Z"/>
</svg>
