<svg xmlns="http://www.w3.org/2000/svg" width="24" height="24" viewBox="0 0 24 24">
  <path d="M2,12 L2,10.8552569 C2,10.4067631 2.15074585,9.97128528 2.42802321,9.61877437 L6.24706187,4.7635175 C6.62625837,4.28143376 7.20569152,4 7.81903866,4 L16.1829309,4 C16.7940395,4 17.371613,4.27939297 17.7509557,4.75850971 L21.5904081,9.60780798 C21.8785228,9.97170202 22.0311028,10.424475 22.0219985,10.888529 L22,12.0098086 L22,17 C22,18.1045695 21.1045695,19 20,19 L4,19 C2.8954305,19 2,18.1045695 2,17 L2,12 L2,12 Z M19.3499478,10 L16.1829309,6 L7.81903866,6 L4.67272631,10 L8.5,10 C8.77614237,10 9,10.2238576 9,10.5 L9,12 L15,12 L15,10.5 C15,10.2238576 15.2238576,10 15.5,10 L19.3499478,10 Z M7,12 L4,12 L4,17 L20,17 L20,12 L17,12 C17,13.1045695 16.1045695,14 15,14 L9,14 C7.8954305,14 7,13.1045695 7,12 Z"/>
</svg>
