<svg xmlns="http://www.w3.org/2000/svg" width="24" height="24" viewBox="0 0 24 24">
  <path d="M17.9300887,15.9994013 C16.5469363,18.390937 13.9613765,20 11,20 C10.8234849,20 10.648305,19.9942832 10.4746354,19.9830248 C9.78546508,21.1879826 8.48756095,22 7,22 C4.790861,22 3,20.209139 3,18 C3,17.0801673 3.31047991,16.232851 3.83235743,15.5571335 C3.29958837,14.4856667 3,13.2778197 3,12 C3,10.7221803 3.29958837,9.51433325 3.83235743,8.44286646 C3.31047991,7.76714897 3,6.91983272 3,6 C3,3.790861 4.790861,2 7,2 C8.48756095,2 9.78546508,2.8120174 10.4746354,4.01697522 C10.648305,4.00571675 10.8234849,4 11,4 C13.9613765,4 16.5469363,5.60906304 17.9300887,8.00059865 C17.9533447,8.00020009 17.976649,8 18,8 C20.209139,8 22,9.790861 22,12 C22,14.209139 20.209139,16 18,16 C17.976649,16 17.9533447,15.9997999 17.9300887,15.9994013 L17.9300887,15.9994013 Z M5.45969294,14.3073322 C5.93378335,14.109347 6.45412199,14 7,14 C9.209139,14 11,15.790861 11,18 C13.0415215,18 14.8449012,16.9803938 15.9286918,15.4226289 C14.7725232,14.7214369 14,13.4509347 14,12 C14,10.5490653 14.7725232,9.27856312 15.9286918,8.57737108 C14.8449012,7.01960616 13.0415215,6 11,6 C11,8.209139 9.209139,10 7,10 C6.45412199,10 5.93378335,9.89065297 5.45969294,9.69266778 C5.16353994,10.4029638 5,11.1823835 5,12 C5,12.8176165 5.16353994,13.5970362 5.45969294,14.3073322 L5.45969294,14.3073322 Z M18,14 C19.1045695,14 20,13.1045695 20,12 C20,10.8954305 19.1045695,10 18,10 C16.8954305,10 16,10.8954305 16,12 C16,13.1045695 16.8954305,14 18,14 Z M7,8 C8.1045695,8 9,7.1045695 9,6 C9,4.8954305 8.1045695,4 7,4 C5.8954305,4 5,4.8954305 5,6 C5,7.1045695 5.8954305,8 7,8 Z M7,20 C8.1045695,20 9,19.1045695 9,18 C9,16.8954305 8.1045695,16 7,16 C5.8954305,16 5,16.8954305 5,18 C5,19.1045695 5.8954305,20 7,20 Z"/>
</svg>
