<svg xmlns="http://www.w3.org/2000/svg" width="24" height="24" viewBox="0 0 24 24">
  <path d="M6,18 C4.34314575,18 3,16.6568542 3,15 L3,6 C3,4.34314575 4.34314575,3 6,3 L19,3 C20.6568542,3 22,4.34314575 22,6 L22,15 C22,16.6568542 20.6568542,18 19,18 L11.4142136,18 L8.04852814,21.3656854 C7.57989899,21.8343146 6.82010101,21.8343146 6.35147186,21.3656854 C6.12642821,21.1406418 6,20.8354171 6,20.5171573 L6,18 Z M8,18.5857864 L10.2928932,16.2928932 C10.4804296,16.1053568 10.7347835,16 11,16 L19,16 C19.5522847,16 20,15.5522847 20,15 L20,6 C20,5.44771525 19.5522847,5 19,5 L6,5 C5.44771525,5 5,5.44771525 5,6 L5,15 C5,15.5522847 5.44771525,16 6,16 L7,16 C7.55228475,16 8,16.4477153 8,17 L8,18.5857864 Z M8.5,12 C7.67157288,12 7,11.3284271 7,10.5 C7,9.67157288 7.67157288,9 8.5,9 C9.32842712,9 10,9.67157288 10,10.5 C10,11.3284271 9.32842712,12 8.5,12 Z M12.5,12 C11.6715729,12 11,11.3284271 11,10.5 C11,9.67157288 11.6715729,9 12.5,9 C13.3284271,9 14,9.67157288 14,10.5 C14,11.3284271 13.3284271,12 12.5,12 Z M16.5,12 C15.6715729,12 15,11.3284271 15,10.5 C15,9.67157288 15.6715729,9 16.5,9 C17.3284271,9 18,9.67157288 18,10.5 C18,11.3284271 17.3284271,12 16.5,12 Z"/>
</svg>
