<?xml version="1.0" encoding="utf-8"?>
<!-- Generator: Adobe Illustrator 25.2.3, SVG Export Plug-In . SVG Version: 6.00 Build 0)  -->
<svg version="1.1" id="Layer_1" xmlns="http://www.w3.org/2000/svg" xmlns:xlink="http://www.w3.org/1999/xlink" x="0px" y="0px"
	 viewBox="0 0 32 32" style="enable-background:new 0 0 32 32;" xml:space="preserve">
<style type="text/css">
	.st0{clip-path:url(#SVGID_2_);}
	.st1{fill:#3D3D3C;}
</style>
<g>
	<defs>
		<rect id="SVGID_1_" x="8.8" y="8" width="14.1" height="16"/>
	</defs>
	<clipPath id="SVGID_2_">
		<use xlink:href="#SVGID_1_"  style="overflow:visible;"/>
	</clipPath>
	<g class="st0">
		<path class="st1" d="M11.9,22H9v-9.3h2.9V22z M10.5,11.4c-0.9,0-1.7-0.8-1.7-1.7c0-0.4,0.2-0.9,0.5-1.2C9.6,8.2,10,8,10.5,8
			c0.4,0,0.9,0.2,1.2,0.5c0.3,0.3,0.5,0.7,0.5,1.2C12.2,10.6,11.4,11.4,10.5,11.4z M22.9,22h-2.9v-4.5c0-1.1,0-2.5-1.5-2.5
			c-1.5,0-1.7,1.2-1.7,2.4V22h-2.9v-9.3h2.8v1.3h0c0.4-0.7,1.3-1.5,2.8-1.5c3,0,3.5,1.9,3.5,4.4L22.9,22L22.9,22z"/>
	</g>
</g>
</svg>
