<?xml version="1.0" encoding="utf-8"?>
<!-- Generator: Adobe Illustrator 25.2.3, SVG Export Plug-In . SVG Version: 6.00 Build 0)  -->
<svg version="1.1" id="Layer_1" xmlns="http://www.w3.org/2000/svg" xmlns:xlink="http://www.w3.org/1999/xlink" x="0px" y="0px"
	 viewBox="0 0 32 32" style="enable-background:new 0 0 32 32;" xml:space="preserve">
<style type="text/css">
	.st0{clip-path:url(#SVGID_2_);}
	.st1{fill:#3D3D3C;}
</style>
<g>
	<defs>
		<rect id="SVGID_1_" x="8" y="9.6" width="16" height="13.3"/>
	</defs>
	<clipPath id="SVGID_2_">
		<use xlink:href="#SVGID_1_"  style="overflow:visible;"/>
	</clipPath>
	<g class="st0">
		<path class="st1" d="M22.4,12.7c0,0.1,0,0.3,0,0.4c0,4.2-3.3,9-9.3,9c-1.9,0-3.6-0.5-5-1.4c0.3,0,0.5,0,0.8,0
			c1.5,0,2.9-0.5,4.1-1.4c-1.4,0-2.6-0.9-3.1-2.2c0.2,0,0.4,0,0.6,0c0.3,0,0.6,0,0.9-0.1c-1.5-0.3-2.6-1.6-2.6-3.1v0
			c0.4,0.2,0.9,0.4,1.5,0.4c-0.9-0.6-1.5-1.5-1.5-2.6c0-0.6,0.2-1.1,0.4-1.6c1.6,1.9,4,3.2,6.8,3.3c-0.1-0.2-0.1-0.5-0.1-0.7
			c0-1.7,1.5-3.2,3.3-3.2c0.9,0,1.8,0.4,2.4,1c0.7-0.1,1.5-0.4,2.1-0.8c-0.2,0.7-0.8,1.4-1.4,1.7c0.7-0.1,1.3-0.2,1.9-0.5
			C23.6,11.7,23,12.3,22.4,12.7L22.4,12.7z"/>
	</g>
</g>
</svg>
