<?xml version="1.0" encoding="utf-8"?>
<!-- Generator: Adobe Illustrator 25.2.3, SVG Export Plug-In . SVG Version: 6.00 Build 0)  -->
<svg version="1.1" id="Layer_1" xmlns="http://www.w3.org/2000/svg" xmlns:xlink="http://www.w3.org/1999/xlink" x="0px" y="0px"
	 viewBox="0 0 32 32" style="enable-background:new 0 0 32 32;" xml:space="preserve">
<style type="text/css">
	.st0{fill:#3D3D3C;}
</style>
<path class="st0" d="M16,11.8c-2.3,0-4.1,1.8-4.1,4c0,2.2,1.8,4,4.1,4c2.3,0,4.1-1.8,4.1-4C20.1,13.6,18.3,11.8,16,11.8z M16,18.5
	c-1.5,0-2.7-1.2-2.7-2.6c0-1.4,1.2-2.6,2.7-2.6s2.7,1.2,2.7,2.6C18.7,17.3,17.5,18.5,16,18.5L16,18.5z M21.2,11.7
	c0,0.5-0.4,0.9-1,0.9c-0.5,0-1-0.4-1-0.9c0-0.5,0.4-0.9,1-0.9C20.8,10.7,21.2,11.2,21.2,11.7z M23.9,12.6c-0.1-1.3-0.4-2.4-1.3-3.3
	c-0.9-0.9-2.1-1.2-3.4-1.3C18,8,14,8,12.7,8.1c-1.3,0.1-2.4,0.3-3.4,1.3c-0.9,0.9-1.2,2-1.3,3.3c-0.1,1.3-0.1,5.2,0,6.5
	c0.1,1.3,0.4,2.4,1.3,3.3c0.9,0.9,2.1,1.2,3.4,1.3c1.3,0.1,5.3,0.1,6.6,0c1.3-0.1,2.4-0.3,3.4-1.3c0.9-0.9,1.2-2,1.3-3.3
	C24,17.8,24,13.9,23.9,12.6L23.9,12.6z M22.2,20.5c-0.3,0.7-0.8,1.2-1.5,1.5c-1.1,0.4-3.6,0.3-4.7,0.3c-1.2,0-3.7,0.1-4.7-0.3
	c-0.7-0.3-1.2-0.8-1.5-1.5c-0.4-1-0.3-3.5-0.3-4.6c0-1.1-0.1-3.6,0.3-4.6c0.3-0.7,0.8-1.2,1.5-1.5c1.1-0.4,3.6-0.3,4.7-0.3
	c1.2,0,3.7-0.1,4.7,0.3c0.7,0.3,1.2,0.8,1.5,1.5c0.4,1,0.3,3.5,0.3,4.6C22.6,17,22.7,19.5,22.2,20.5z"/>
</svg>
