<?xml version="1.0" encoding="UTF-8"?>
<svg width="24px" height="24px" viewBox="0 0 24 24" version="1.1" xmlns="http://www.w3.org/2000/svg" xmlns:xlink="http://www.w3.org/1999/xlink">
    <!-- Generator: Sketch 52.3 (67297) - http://www.bohemiancoding.com/sketch -->
    <title>jollycons-[category]/icons/svg/icon-travel-beach</title>
    <desc>Created with Sketch.</desc>
    <g id="icons" stroke="none" stroke-width="1" fill="none" fill-rule="evenodd">
        <g id="icons---export" transform="translate(-316.000000, -218.000000)">
            <g id="row-3" transform="translate(60.000000, 218.000000)" fill="#000000" fill-rule="nonzero">
                <g id="icon---15" transform="translate(256.000000, 0.000000)">
                    <path d="M16.0716318,10.1812443 L14.8421921,17.1537437 C19.51546,17.6740676 23,19.4781956 23,22 C23,22.5522847 22.5522847,23 22,23 L2,23 C1.44771525,23 1,22.5522847 1,22 C1,18.9881504 5.97037596,17 12,17 C12.2811615,17 12.5600199,17.004323 12.8361785,17.0128711 L14.1020163,9.83394795 L8.19316982,8.79205888 C7.64927551,8.69615564 7.286107,8.17749725 7.38201024,7.63360295 C7.92667001,4.5446839 11.4039653,2.66415588 15.3105924,2.98575039 C15.3125595,2.97062355 15.3148779,2.95546844 15.3175536,2.94029367 C15.4134568,2.39639937 15.9321152,2.03323086 16.4760095,2.1291341 C17.0199038,2.22503734 17.3830723,2.74369573 17.2871691,3.28759003 C17.2844934,3.30276479 17.2814886,3.31779887 17.2781633,3.33268623 C21.0591838,4.36663142 23.6835941,7.32305474 23.1389343,10.4119738 C23.0430311,10.9558681 22.5243727,11.3190366 21.9804784,11.2231334 L16.0716318,10.1812443 Z M12,19 C8.16339192,19 4.93060308,19.9322644 3.62243126,21 L20.3775687,21 C19.0693969,19.9322644 15.8366081,19 12,19 Z M4,7 C2.34314575,7 1,5.65685425 1,4 C1,2.34314575 2.34314575,1 4,1 C5.65685425,1 7,2.34314575 7,4 C7,5.65685425 5.65685425,7 4,7 Z M4,5 C4.55228475,5 5,4.55228475 5,4 C5,3.44771525 4.55228475,3 4,3 C3.44771525,3 3,3.44771525 3,4 C3,4.55228475 3.44771525,5 4,5 Z M17.1909728,5.39415834 L17.3974174,8.38416284 L21.1492339,9.04570931 C20.8385224,7.54979024 19.3322436,6.10275219 17.1909728,5.39415834 Z M13.4823376,7.69382864 L14.6908014,4.95282067 C12.4348578,4.88538968 10.5230118,5.73017541 9.71900703,7.03025192 L13.4823376,7.69382864 Z" id="beach"></path>
                </g>
            </g>
            <g id="slices" transform="translate(60.000000, 58.000000)"></g>
        </g>
    </g>
</svg>