<?xml version="1.0" encoding="UTF-8"?>
<svg width="24px" height="24px" viewBox="0 0 24 24" version="1.1" xmlns="http://www.w3.org/2000/svg" xmlns:xlink="http://www.w3.org/1999/xlink">
    <!-- Generator: Sketch 52.3 (67297) - http://www.bohemiancoding.com/sketch -->
    <title>jollycons-[category]/icons/svg/icon-travel-compass</title>
    <desc>Created with Sketch.</desc>
    <g id="icons" stroke="none" stroke-width="1" fill="none" fill-rule="evenodd">
        <g id="icons---export" transform="translate(-252.000000, -138.000000)">
            <g id="row-2" transform="translate(60.000000, 138.000000)" fill="#000000" fill-rule="nonzero">
                <g id="icon---9" transform="translate(192.000000, 0.000000)">
                    <path d="M12,23 C5.92486775,23 1,18.0751322 1,12 C1,5.92486775 5.92486775,1 12,1 C18.0751322,1 23,5.92486775 23,12 C23,18.0751322 18.0751322,23 12,23 Z M12,21 C16.9705627,21 21,16.9705627 21,12 C21,7.02943725 16.9705627,3 12,3 C7.02943725,3 3,7.02943725 3,12 C3,16.9705627 7.02943725,21 12,21 Z M9.68377223,9.0513167 L15.6837722,7.0513167 C16.4655303,6.79073069 17.2092693,7.53446974 16.9486833,8.31622777 L14.9486833,14.3162278 C14.8491483,14.6148328 14.6148328,14.8491483 14.3162278,14.9486833 L8.31622777,16.9486833 C7.53446974,17.2092693 6.79073069,16.4655303 7.0513167,15.6837722 L9.0513167,9.68377223 C9.1508517,9.38516724 9.38516724,9.1508517 9.68377223,9.0513167 Z M9.58113883,14.4188612 L13.2094306,13.2094306 L14.4188612,9.58113883 L10.7905694,10.7905694 L9.58113883,14.4188612 Z" id="compass"></path>
                </g>
            </g>
            <g id="slices" transform="translate(60.000000, 58.000000)"></g>
        </g>
    </g>
</svg>