<?xml version="1.0" encoding="UTF-8"?>
<svg width="24px" height="24px" viewBox="0 0 24 24" version="1.1" xmlns="http://www.w3.org/2000/svg" xmlns:xlink="http://www.w3.org/1999/xlink">
    <!-- Generator: Sketch 52.3 (67297) - http://www.bohemiancoding.com/sketch -->
    <title>jollycons-[category]/icons/svg/icon-travel-suitcase</title>
    <desc>Created with Sketch.</desc>
    <g id="icons" stroke="none" stroke-width="1" fill="none" fill-rule="evenodd">
        <g id="icons---export" transform="translate(-124.000000, -58.000000)">
            <g id="row-1" transform="translate(60.000000, 58.000000)" fill="#000000" fill-rule="nonzero">
                <g id="icon---2" transform="translate(64.000000, 0.000000)">
                    <path d="M8,6 L8,4 C8,2.8954305 8.8954305,2 10,2 L14,2 C15.1045695,2 16,2.8954305 16,4 L16,6 L21,6 C22.6568542,6 24,7.34314575 24,9 L24,20 C24,21.6568542 22.6568542,23 21,23 L3,23 C1.34314575,23 3.33066907e-16,21.6568542 0,20 L0,9 C-1.66533454e-16,7.34314575 1.34314575,6 3,6 L8,6 Z M18,21 L18,8 L20,8 L20,21 L21,21 C21.5522847,21 22,20.5522847 22,20 L22,9 C22,8.44771525 21.5522847,8 21,8 L3,8 C2.44771525,8 2,8.44771525 2,9 L2,20 C2,20.5522847 2.44771525,21 3,21 L4,21 L4,8 L6,8 L6,21 L8,21 L8,8 L10,8 L10,21 L14,21 L14,8 L16,8 L16,21 L18,21 Z M10,4 L10,6 L14,6 L14,4 L10,4 Z" id="suitcase"></path>
                </g>
            </g>
            <g id="slices" transform="translate(60.000000, 58.000000)"></g>
        </g>
    </g>
</svg>