<?xml version="1.0" encoding="UTF-8"?>
<svg width="24px" height="24px" viewBox="0 0 24 24" version="1.1" xmlns="http://www.w3.org/2000/svg" xmlns:xlink="http://www.w3.org/1999/xlink">
    <!-- Generator: Sketch 52.3 (67297) - http://www.bohemiancoding.com/sketch -->
    <title>jollycons-[category]/icons/svg/icon-travel-sunglasses</title>
    <desc>Created with Sketch.</desc>
    <g id="icons" stroke="none" stroke-width="1" fill="none" fill-rule="evenodd">
        <g id="icons---export" transform="translate(-252.000000, -218.000000)">
            <g id="row-3" transform="translate(60.000000, 218.000000)" fill="#000000">
                <g id="icon---14" transform="translate(192.000000, 0.000000)">
                    <path d="M4.10191456,12 L19.8980854,12 L17.8089855,7.24640841 C17.7512338,7.11500085 17.639796,7.01474814 17.5030343,6.97116558 C15.8343448,6.43939578 15,6.03843043 15,5.76826953 C15,5.3460056 15.3419278,5 15.763717,5 L17.7177359,5 C17.933659,5 18.1408009,5.08557853 18.2938822,5.23802891 C18.4525292,5.39602192 18.5896234,5.5743124 18.7016042,5.76826953 L22.5535045,12.4399798 C22.8667506,12.9825399 23.0207336,13.6025709 22.9977578,14.2288188 L22.9873177,14.5133825 C22.9957082,14.6013538 23,14.6905206 23,14.7806898 C23,16.5180303 22.132161,18.1405455 20.6870726,19.1049477 L20.5,19.2297935 C18.9863884,20.2399258 17.0136116,20.2399258 15.5,19.2297935 L14.850342,18.7962341 C13.6942712,18.0247123 13,16.7267002 13,15.3368278 L13,15 C12.6666667,14.7777778 12.3333333,14.6666667 12,14.6666667 C11.6666667,14.6666667 11.3333333,14.7777778 11,15 L11,15.3368278 C11,16.7267002 10.3057288,18.0247123 9.14965805,18.7962341 L8.5,19.2297935 C6.98638841,20.2399258 5.01361159,20.2399258 3.5,19.2297935 L3.31292744,19.1049477 C1.86783904,18.1405455 1,16.5180303 1,14.7806898 C1,14.6905206 1.0042918,14.6013538 1.01268228,14.5133825 L1.0022422,14.2288188 C0.979266395,13.6025709 1.13324943,12.9825399 1.44649554,12.4399798 L5.29839577,5.76826953 C5.41037658,5.5743124 5.54747085,5.39602192 5.70611775,5.23802891 C5.85919909,5.08557853 6.06634098,5 6.28226411,5 L6.96342121,5 L8.23628295,5 C8.65807223,5 9,5.3460056 9,5.76826953 C9,6.03843043 8.16565525,6.43939578 6.49696574,6.97116558 C6.36020399,7.01474814 6.24876624,7.11500085 6.19101448,7.24640841 L4.10191456,12 Z" id="sunglasses"></path>
                </g>
            </g>
            <g id="slices" transform="translate(60.000000, 58.000000)"></g>
        </g>
    </g>
</svg>