<?xml version="1.0" encoding="UTF-8"?>
<svg width="24px" height="24px" viewBox="0 0 24 24" version="1.1" xmlns="http://www.w3.org/2000/svg" xmlns:xlink="http://www.w3.org/1999/xlink">
    <!-- Generator: Sketch 52.3 (67297) - http://www.bohemiancoding.com/sketch -->
    <title>jollycons-[category]/icons/svg/icon-travel-tent</title>
    <desc>Created with Sketch.</desc>
    <g id="icons" stroke="none" stroke-width="1" fill="none" fill-rule="evenodd">
        <g id="icons---export" transform="translate(-124.000000, -138.000000)">
            <g id="row-2" transform="translate(60.000000, 138.000000)" fill="#000000" fill-rule="nonzero">
                <g id="icon---7" transform="translate(64.000000, 0.000000)">
                    <path d="M16.5803225,22 L20.3436363,22 L12,6.14709106 L3.65636371,22 L7.41967746,22 L11.1317569,15.5038611 C11.515651,14.8320463 12.484349,14.8320463 12.8682431,15.5038611 L16.5803225,22 Z M13.2560199,4.23934684 L22.8849182,22.5342536 C23.2353973,23.2001637 22.7525104,24 22,24 L2,24 C1.24748961,24 0.764602746,23.2001637 1.11508178,22.5342536 L10.7439801,4.23934684 L9.11508178,1.46574643 C8.85785713,0.977019594 9.04552673,0.37230643 9.53425357,0.115081778 C10.0229804,-0.142142875 10.6276936,0.0455267281 10.8849182,0.534253567 L12,2.79980918 L13.1150818,0.534253567 C13.3723064,0.0455267281 13.9770196,-0.142142875 14.4657464,0.115081778 C14.9544733,0.37230643 15.1421429,0.977019594 14.8849182,1.46574643 L13.2560199,4.23934684 Z M9.72317968,22 L14.2768203,22 L12,18.0155644 L9.72317968,22 Z" id="tent"></path>
                </g>
            </g>
            <g id="slices" transform="translate(60.000000, 58.000000)"></g>
        </g>
    </g>
</svg>