<?xml version="1.0" encoding="UTF-8"?>
<svg width="24px" height="24px" viewBox="0 0 24 24" version="1.1" xmlns="http://www.w3.org/2000/svg" xmlns:xlink="http://www.w3.org/1999/xlink">
    <!-- Generator: Sketch 52.3 (67297) - http://www.bohemiancoding.com/sketch -->
    <title>jollycons-[category]/icons/svg/icon-travel-trolley</title>
    <desc>Created with Sketch.</desc>
    <g id="icons" stroke="none" stroke-width="1" fill="none" fill-rule="evenodd">
        <g id="icons---export" transform="translate(-60.000000, -58.000000)">
            <g id="row-1" transform="translate(60.000000, 58.000000)" fill="#000000" fill-rule="nonzero">
                <g id="icon---1">
                    <path d="M15,22 L9,22 C9,22.5522847 8.55228475,23 8,23 C7.44771525,23 7,22.5522847 7,22 C7,21.9434818 7.0046887,21.8880587 7.01369835,21.8340984 C5.84135601,21.4261546 5,20.3113319 5,19 L5,7 C5,5.34314575 6.34314575,4 8,4 L8,3 C8,1.8954305 8.8954305,1 10,1 L14,1 C15.1045695,1 16,1.8954305 16,3 L16,4 C17.6568542,4 19,5.34314575 19,7 L19,19 C19,20.3113319 18.158644,21.4261546 16.9863016,21.8340984 C16.9953113,21.8880587 17,21.9434818 17,22 C17,22.5522847 16.5522847,23 16,23 C15.4477153,23 15,22.5522847 15,22 Z M8,6 C7.44771525,6 7,6.44771525 7,7 L7,19 C7,19.5522847 7.44771525,20 8,20 L16,20 C16.5522847,20 17,19.5522847 17,19 L17,7 C17,6.44771525 16.5522847,6 16,6 L8,6 Z M9.5,8 L14.5,8 C14.7761424,8 15,8.22385763 15,8.5 L15,11.5 C15,11.7761424 14.7761424,12 14.5,12 L9.5,12 C9.22385763,12 9,11.7761424 9,11.5 L9,8.5 C9,8.22385763 9.22385763,8 9.5,8 Z M10,3 L10,4 L14,4 L14,3 L10,3 Z" id="trolley"></path>
                </g>
            </g>
            <g id="slices" transform="translate(60.000000, 58.000000)"></g>
        </g>
    </g>
</svg>