<?xml version="1.0" encoding="UTF-8"?>
<svg width="24px" height="24px" viewBox="0 0 24 24" version="1.1" xmlns="http://www.w3.org/2000/svg" xmlns:xlink="http://www.w3.org/1999/xlink">
    <!-- Generator: Sketch 56.3 (81716) - https://sketch.com -->
    <title>jollycons-landmarks/jollycons-landmarks/svg/icon-landmarks-icon-egyptian-pyramid</title>
    <desc>Created with Sketch.</desc>
    <g id="icons" stroke="none" stroke-width="1" fill="none" fill-rule="evenodd">
        <g id="icons---export" transform="translate(-316.000000, -138.000000)">
            <g id="row-2" transform="translate(60.000000, 138.000000)" fill="#000000" fill-rule="nonzero">
                <g id="icon---10" transform="translate(256.000000, 0.000000)">
                    <path d="M13.8998286,15 L11.6566025,7.37303137 L6.72150517,15 L7.5,15 C7.77614237,15 8,15.2238576 8,15.5 L8,16.5 C8,16.7761424 7.77614237,17 7.5,17 L5.5,17 C5.4764125,17 5.45320649,16.9983667 5.43048888,16.995207 L2.83915223,21 L5,21 L5,20.5 C5,20.2238576 5.22385763,20 5.5,20 L7.5,20 C7.77614237,20 8,20.2238576 8,20.5 L8,21 L15.6645345,21 L14.4880639,17 L12.5,17 C12.2238576,17 12,16.7761424 12,16.5 L12,15.5 C12,15.2238576 12.2238576,15 12.5,15 L13.8998286,15 Z M22.9951013,23 L1.00100772,23 C0.208503954,23 -0.269091123,22.1221112 0.161437558,21.4567487 L11.0655515,4.60493633 C11.3100609,4.03630977 12.0940713,3.78085015 12.6142476,4.20715698 C12.7287557,4.29500694 12.8260329,4.40993959 12.8952594,4.55038463 L23.8346715,21.4567487 C24.2652002,22.1221112 23.7876051,23 22.9951013,23 Z M21.1653129,21 L14.9070141,11.3280836 L17.7516954,21 L21.1653129,21 Z M9.5,12 L11.5,12 C11.7761424,12 12,12.2238576 12,12.5 L12,13.5 C12,13.7761424 11.7761424,14 11.5,14 L9.5,14 C9.22385763,14 9,13.7761424 9,13.5 L9,12.5 C9,12.2238576 9.22385763,12 9.5,12 Z M10.5,18 L12.5,18 C12.7761424,18 13,18.2238576 13,18.5 L13,19.5 C13,19.7761424 12.7761424,20 12.5,20 L10.5,20 C10.2238576,20 10,19.7761424 10,19.5 L10,18.5 C10,18.2238576 10.2238576,18 10.5,18 Z" id="egyptian-pyramid"></path>
                </g>
            </g>
            <g id="slices" transform="translate(60.000000, 58.000000)"></g>
        </g>
    </g>
</svg>