<?xml version="1.0" encoding="UTF-8"?>
<svg width="24px" height="24px" viewBox="0 0 24 24" version="1.1" xmlns="http://www.w3.org/2000/svg" xmlns:xlink="http://www.w3.org/1999/xlink">
    <!-- Generator: Sketch 56.3 (81716) - https://sketch.com -->
    <title>jollycons-landmarks/jollycons-landmarks/svg/icon-landmarks-icon-eiffel-tower</title>
    <desc>Created with Sketch.</desc>
    <g id="icons" stroke="none" stroke-width="1" fill="none" fill-rule="evenodd">
        <g id="icons---export" transform="translate(-252.000000, -138.000000)">
            <g id="row-2" transform="translate(60.000000, 138.000000)" fill="#000000" fill-rule="nonzero">
                <g id="icon---9" transform="translate(192.000000, 0.000000)">
                    <path d="M7.21770366,14 C7.61831541,13.1015779 7.95381035,12.3120365 8.2240784,11.6316923 C8.74087049,10.3307746 9.2119096,8.60575191 9.63427848,6.46110679 C9.24395833,6.09611505 9,5.57654729 9,5 L9,4 C9,3.12418437 9.56295175,2.37985316 10.3467439,2.10911779 C10.4015605,1.7081867 10.4552233,1.29771761 10.5077221,0.877726039 C10.6542326,-0.294360172 12.354833,-0.288399154 12.4931231,0.884685353 C12.5423388,1.30217162 12.5925206,1.70922826 12.643652,2.10582782 C13.4324454,2.37378189 14,3.1206112 14,4 L14,5 C14,5.59530652 13.739908,6.12986529 13.3271602,6.49623992 C13.7569832,8.76147468 14.2339982,10.4602477 14.7516904,11.581781 C15.048045,12.2238064 15.4227747,13.029899 15.8758523,14 L16,14 C16.5522847,14 17,14.4477153 17,15 C17,15.2873187 16.8788276,15.5463361 16.6847977,15.7287373 C17.5538864,17.5829955 18.6271538,19.8646644 19.9044855,22.5734957 C20.2172642,23.2368039 19.7333541,24 19,24 L14.5916667,24 C14.185373,24 13.8194661,23.7541757 13.6658741,23.378032 L13.1031777,22 L9.89682226,22 L9.33412588,23.378032 C9.18053387,23.7541757 8.81462705,24 8.40833333,24 L4,24 C3.25565028,24 2.77220863,23.2158352 3.10656513,22.5508072 C4.42017759,19.9380599 5.5171916,17.686401 6.39693523,15.797762 C6.15578986,15.6151843 6,15.3257855 6,15 C6,14.4477153 6.44771525,14 7,14 L7.21770366,14 L7.21770366,14 Z M14.603288,16 L8.50713082,16 C7.72861715,17.6935559 6.76584381,19.6930514 5.61828427,22 L7.73651107,22 L8.04523717,21.2439361 C8.35242119,20.4916487 9.08423483,20 9.89682226,20 L13.1031777,20 C13.9157652,20 14.6475788,20.4916487 14.9547628,21.2439361 L15.2634889,22 L17.4231139,22 C16.3084105,19.6341826 15.3684987,17.6342482 14.603288,16 L14.603288,16 Z M13.6689689,14 C13.3867865,13.3942125 13.1424031,12.8675456 12.9358096,12.4199795 C12.3924778,11.2429006 11.9073374,9.58815474 11.475127,7.44703771 C11.0600709,9.43651971 10.5967109,11.0763727 10.0827879,12.3700682 C9.88791854,12.8606117 9.66123463,13.403886 9.40269827,14 L13.6689689,14 Z M11.0652607,17 L12.0091127,17 C12.3251577,17 12.6226016,17.1494027 12.8113023,17.4029307 L13.7028256,18.6007327 C13.7852636,18.711492 13.7623048,18.8681094 13.6515455,18.9505474 C13.608404,18.9826576 13.5560579,19 13.5022782,19 L9.51631517,19 C9.37824398,19 9.26631517,18.8880712 9.26631517,18.75 C9.26631517,18.6937294 9.28529884,18.6391044 9.32019529,18.5949613 L10.2807812,17.3798453 C10.4704359,17.139937 10.7594422,17 11.0652607,17 Z M11,4 L11,5 L12,5 L12,4 L11,4 Z" id="eiffel-tower"></path>
                </g>
            </g>
            <g id="slices" transform="translate(60.000000, 58.000000)"></g>
        </g>
    </g>
</svg>