<?xml version="1.0" encoding="UTF-8"?>
<svg width="24px" height="24px" viewBox="0 0 24 24" version="1.1" xmlns="http://www.w3.org/2000/svg" xmlns:xlink="http://www.w3.org/1999/xlink">
    <!-- Generator: Sketch 56.3 (81716) - https://sketch.com -->
    <title>jollycons-landmarks/jollycons-landmarks/svg/icon-landmarks-icon-leaning-tower-of-pisa</title>
    <desc>Created with Sketch.</desc>
    <g id="icons" stroke="none" stroke-width="1" fill="none" fill-rule="evenodd">
        <g id="icons---export" transform="translate(-188.000000, -138.000000)">
            <g id="row-2" transform="translate(60.000000, 138.000000)" fill="#000000">
                <g id="icon---8" transform="translate(128.000000, 0.000000)">
                    <path d="M5.35576293,22.000962 L5.96244033,18.5603235 C5.41854602,18.4644202 5.05537751,17.9457619 5.15128075,17.4018676 C5.24718399,16.8579733 5.76584238,16.4948047 6.30973668,16.590708 L7.00432939,12.651477 C6.46043509,12.5555737 6.09726658,12.0369153 6.19316982,11.493021 C6.28907306,10.9491267 6.80773144,10.5859582 7.35162575,10.6818615 L8.04621846,6.74263045 C7.50232416,6.64672721 7.13915564,6.12806882 7.23505888,5.58417452 C7.33096212,5.04028021 7.84962051,4.6771117 8.39351481,4.77301494 L9.37832257,4.94666312 L10.0729153,1.00743211 C10.1688185,0.463537805 10.6874769,0.100369293 11.2313712,0.196272533 L19.1098332,1.58545795 C19.6537275,1.68136119 20.016896,2.20001958 19.9209928,2.74391389 L19.2264001,6.6831449 L20.2112079,6.85679307 C20.7551022,6.95269632 21.1182707,7.4713547 21.0223674,8.01524901 C20.9264642,8.55914331 20.4078058,8.92231182 19.8639115,8.82640858 L19.1693188,12.7656396 C19.7132131,12.8615428 20.0763816,13.3802012 19.9804784,13.9240955 C19.8845751,14.4679898 19.3659167,14.8311583 18.8220224,14.7352551 L18.1274297,18.6744861 C18.671324,18.7703894 19.0344925,19.2890477 18.9385893,19.832942 C18.8426861,20.3768363 18.3240277,20.7400049 17.7801334,20.6441016 L17.5408823,22.000962 L20,22.000962 C20.5522847,22.000962 21,22.4486773 21,23.000962 C21,23.5532467 20.5522847,24.000962 20,24.000962 L3,24.000962 C2.44771525,24.000962 2,23.5532467 2,23.000962 C2,22.4486773 2.44771525,22.000962 3,22.000962 L5.35576293,22.000962 L5.35576293,22.000962 Z M7.38661615,22.000962 L8.40204276,22.000962 L8.56956723,21.0508835 C8.66547047,20.5069892 9.18412886,20.1438207 9.72802316,20.2397239 C10.2719175,20.3356272 10.635086,20.8542856 10.5391827,21.3981799 L10.432896,22.000962 L12.4637492,22.000962 L12.5087982,21.7454762 C12.6047015,21.2015819 13.1233599,20.8384134 13.6672542,20.9343167 C14.1804407,21.0248053 14.5327325,21.4916598 14.4903176,22.000962 L15.510029,22.000962 L15.8105179,20.2968053 L7.93205583,18.9076198 L7.38661615,22.000962 Z M13.3175536,5.64125583 L13.4912018,4.65644808 C13.587105,4.11255377 14.1057634,3.74938526 14.6496577,3.8452885 C15.193552,3.94119174 15.5567205,4.45985013 15.4608173,5.00374443 L15.2871691,5.98855219 L17.2567846,6.33584854 L17.7777291,3.38142528 L11.8688826,2.33953622 L11.3479381,5.29395948 L13.3175536,5.64125583 Z M17.894296,8.47911223 L10.015834,7.0899268 L9.32124125,11.0291578 L17.1997033,12.4183432 L17.894296,8.47911223 Z M16.8524069,14.3879587 L8.9739449,12.9987733 L8.27935219,16.9380043 L16.1578142,18.3271898 L16.8524069,14.3879587 Z M10.7699122,14.3308774 C11.3138065,14.4267807 11.676975,14.9454391 11.5810718,15.4893334 L11.2337754,17.4589489 L9.26415994,17.1116525 L9.6114563,15.142037 C9.70735954,14.5981427 10.2260179,14.2349742 10.7699122,14.3308774 Z M11.8118013,8.42203091 C12.3556956,8.51793415 12.7188641,9.03659254 12.6229609,9.58048684 L12.2756645,11.5501023 L10.306049,11.202806 L10.6533454,9.23319049 C10.7492486,8.68929618 11.267907,8.32612767 11.8118013,8.42203091 Z M14.7091432,15.0254701 C15.2530375,15.1213734 15.6162061,15.6400318 15.5203028,16.1839261 L15.1730065,18.1535416 L13.203391,17.8062452 L13.5506873,15.8366297 C13.6465905,15.2927354 14.1652489,14.9295669 14.7091432,15.0254701 Z M15.7510323,9.11662362 C16.2949266,9.21252686 16.6580951,9.73118525 16.5621919,10.2750796 L16.2148955,12.2446951 L14.24528,11.8973987 L14.5925764,9.9277832 C14.6884796,9.38388889 15.207138,9.02072038 15.7510323,9.11662362 Z" id="leaning-tower-of-pisa"></path>
                </g>
            </g>
            <g id="slices" transform="translate(60.000000, 58.000000)"></g>
        </g>
    </g>
</svg>