<?xml version="1.0" encoding="UTF-8"?>
<svg width="24px" height="24px" viewBox="0 0 24 24" version="1.1" xmlns="http://www.w3.org/2000/svg" xmlns:xlink="http://www.w3.org/1999/xlink">
    <!-- Generator: Sketch 56.3 (81716) - https://sketch.com -->
    <title>jollycons-landmarks/jollycons-landmarks/svg/icon-landmarks-icon-london-eye</title>
    <desc>Created with Sketch.</desc>
    <g id="icons" stroke="none" stroke-width="1" fill="none" fill-rule="evenodd">
        <g id="icons---export" transform="translate(-124.000000, -218.000000)">
            <g id="row-3" transform="translate(60.000000, 218.000000)" fill="#000000" fill-rule="nonzero">
                <g id="icon---12" transform="translate(64.000000, 0.000000)">
                    <path d="M16.3127884,18.9012907 L17.5804422,22 L18,22 C18.5522847,22 19,22.4477153 19,23 C19,23.5522847 18.5522847,24 18,24 L6,24 C5.44771525,24 5,23.5522847 5,23 C5,22.4477153 5.44771525,22 6,22 L6.41955779,22 L7.68721161,18.9012907 C7.12504084,18.5937876 6.59928329,18.2280351 6.1180557,17.81215 C4.77026765,18.3154376 3.2169717,17.7873487 2.47372056,16.5 C1.73076355,15.2131607 2.04952649,13.6046867 3.15821578,12.6889255 C3.05435127,12.1418701 3,11.5772823 3,11 C3,10.4227177 3.05435127,9.85812987 3.15821578,9.31107447 C2.04952649,8.39531327 1.73076355,6.78683928 2.47372056,5.5 C3.2169717,4.21265126 4.77026765,3.68456244 6.1180557,4.18785005 C6.96852729,3.45285794 7.95808084,2.8744469 9.04191321,2.49742007 C9.28101442,1.07983296 10.514403,0 12,0 C13.485597,0 14.7189856,1.07983296 14.9580868,2.49742007 C16.0419192,2.8744469 17.0314727,3.45285794 17.8819443,4.18785005 C19.2297323,3.68456244 20.7830283,4.21265126 21.5262794,5.5 C22.2692364,6.78683928 21.9504735,8.39531327 20.8417842,9.31107447 C20.9456487,9.85812987 21,10.4227177 21,11 C21,11.5772823 20.9456487,12.1418701 20.8417842,12.6889255 C21.9504735,13.6046867 22.2692364,15.2131607 21.5262794,16.5 C20.7830283,17.7873487 19.2297323,18.3154376 17.8819443,17.81215 C17.4007167,18.2280351 16.8749592,18.5937876 16.3127884,18.9012907 Z M15.549218,17.0347853 C15.8218189,16.8741152 16.0825803,16.6955014 16.3298778,16.5005682 C15.8126306,15.6029871 15.7749012,14.4616794 16.330127,13.5 C16.8854622,12.5381312 17.8930158,12.0001296 18.9291827,11.9994996 C18.9758527,11.673056 19,11.339348 19,11 C19,10.660652 18.9758527,10.326944 18.9291827,10.0005004 C17.8930158,9.99987045 16.8854622,9.46186877 16.330127,8.5 C15.7749012,7.53832062 15.8126306,6.39701288 16.3298778,5.49943183 C15.807961,5.08802881 15.2260746,4.74931497 14.5994867,4.49855857 C14.080978,5.39605547 13.1110184,6 12,6 C10.8889816,6 9.91902196,5.39605547 9.4005133,4.49855857 C8.77392542,4.74931497 8.19203897,5.08802881 7.67012223,5.49943183 C8.18736936,6.39701288 8.22509883,7.53832062 7.66987298,8.5 C7.11453779,9.46186877 6.10698416,9.99987045 5.0708173,10.0005004 C5.02414728,10.326944 5,10.660652 5,11 C5,11.339348 5.02414728,11.673056 5.0708173,11.9994996 C6.10698416,12.0001296 7.11453779,12.5381312 7.66987298,13.5 C8.22509883,14.4616794 8.18736936,15.6029871 7.67012223,16.5005682 C7.91741972,16.6955014 8.17818105,16.8741152 8.450782,17.0347853 L11.074453,10.6213672 C11.4133806,9.79287762 12.5866194,9.79287762 12.925547,10.6213672 L15.549218,17.0347853 Z M12,13.641081 L8.58044221,22 L15.4195578,22 L12,13.641081 Z M12,4 C12.5522847,4 13,3.55228475 13,3 C13,2.44771525 12.5522847,2 12,2 C11.4477153,2 11,2.44771525 11,3 C11,3.55228475 11.4477153,4 12,4 Z M18.0621778,7.5 C18.3383202,7.97829262 18.9499106,8.14216778 19.4282032,7.8660254 C19.9064959,7.58988303 20.070371,6.97829262 19.7942286,6.5 C19.5180863,6.02170738 18.9064959,5.85783222 18.4282032,6.1339746 C17.9499106,6.41011697 17.7860355,7.02170738 18.0621778,7.5 Z M18.0621778,14.5 C17.7860355,14.9782926 17.9499106,15.589883 18.4282032,15.8660254 C18.9064959,16.1421678 19.5180863,15.9782926 19.7942286,15.5 C20.070371,15.0217074 19.9064959,14.410117 19.4282032,14.1339746 C18.9499106,13.8578322 18.3383202,14.0217074 18.0621778,14.5 Z M5.93782217,14.5 C5.6616798,14.0217074 5.05008939,13.8578322 4.57179677,14.1339746 C4.09350415,14.410117 3.92962899,15.0217074 4.20577137,15.5 C4.48191374,15.9782926 5.09350415,16.1421678 5.57179677,15.8660254 C6.05008939,15.589883 6.21396455,14.9782926 5.93782217,14.5 Z M5.93782217,7.5 C6.21396455,7.02170738 6.05008939,6.41011697 5.57179677,6.1339746 C5.09350415,5.85783222 4.48191374,6.02170738 4.20577137,6.5 C3.92962899,6.97829262 4.09350415,7.58988303 4.57179677,7.8660254 C5.05008939,8.14216778 5.6616798,7.97829262 5.93782217,7.5 Z" id="london-eye"></path>
                </g>
            </g>
            <g id="slices" transform="translate(60.000000, 58.000000)"></g>
        </g>
    </g>
</svg>