<?xml version="1.0" encoding="UTF-8"?>
<svg width="24px" height="24px" viewBox="0 0 24 24" version="1.1" xmlns="http://www.w3.org/2000/svg" xmlns:xlink="http://www.w3.org/1999/xlink">
    <!-- Generator: Sketch 56.3 (81716) - https://sketch.com -->
    <title>jollycons-landmarks/jollycons-landmarks/svg/icon-landmarks-icon-sphinx-of-giza</title>
    <desc>Created with Sketch.</desc>
    <g id="icons" stroke="none" stroke-width="1" fill="none" fill-rule="evenodd">
        <g id="icons---export" transform="translate(-316.000000, -218.000000)">
            <g id="row-3" transform="translate(60.000000, 218.000000)" fill="#000000" fill-rule="nonzero">
                <g id="icon---15" transform="translate(256.000000, 0.000000)">
                    <path d="M5.29074765,13.6583457 C4.90824115,13.1177417 4.4362958,12.6405205 3.89091976,12.2491583 L2.66457369,11.3691315 C2.16365976,11.191319 1.86874134,10.62863 2.05751438,10.0948761 C2.07507904,10.0373262 2.09766872,9.98128662 2.12508151,9.9275744 C4.29644,4.70782343 7.65305997,2 12.1134462,2 C16.5759135,2 19.9335843,4.71035076 22.1048493,9.9348821 C22.1306559,9.98600537 22.1521251,10.0392321 22.1690273,10.0938861 C22.336813,10.5667681 22.1247555,11.0625656 21.7260036,11.2934557 L20.0813023,12.9644111 C19.7621632,13.2886446 19.4809364,13.6481236 19.2430438,14.0359176 L19.2068891,14.0948543 C19.6668283,14.8913085 19.9982592,15.7763013 20.1706287,16.724334 L20.5032061,18.5535096 C21.471803,19.1760164 22.1134462,20.2630763 22.1134462,21.5 L22.1134462,23 C22.1134462,23.5522847 21.6657309,24 21.1134462,24 L16.1134462,24 C15.5611614,24 15.1134462,23.5522847 15.1134462,23 L9.1134462,23 C9.1134462,23.5522847 8.66573095,24 8.1134462,24 L3.1134462,24 C2.56116145,24 2.1134462,23.5522847 2.1134462,23 L2.1134462,21.5 C2.1134462,20.2630763 2.75508936,19.1760164 3.72368627,18.5535096 L4.05626366,16.724334 C4.26080251,15.5993704 4.6893139,14.5631725 5.29074765,13.6583457 Z M13.1134462,12.8751281 C12.7938263,12.9566448 12.4587458,13 12.1134462,13 C11.7681466,13 11.4330661,12.9566448 11.1134462,12.8751281 L11.1134462,16 C11.1134462,16.5522847 10.6657309,17 10.1134462,17 L7.36188417,17 C6.91952094,17 6.52972065,16.7093582 6.40347347,16.2853926 L6.32077124,16.0076604 C6.19161695,16.3511777 6.09161819,16.710224 6.02400348,17.0821049 L5.855614,18.008247 C7.50877542,18.1212234 8.84658749,19.3821572 9.07800177,21 L15.1488906,21 C15.3803049,19.3821572 16.718117,18.1212234 18.3712784,18.008247 L18.2028889,17.0821049 C18.1437818,16.7570156 18.0599273,16.4417343 17.9534822,16.1380609 L17.7174014,16.5229014 C17.535557,16.81933 17.2127686,17 16.8650082,17 L14.1134462,17 C13.5611614,17 13.1134462,16.5522847 13.1134462,16 L13.1134462,12.8751281 L13.1134462,12.8751281 Z M8.24431531,5.05423489 C6.66023105,6.02692301 5.33462287,7.68059716 4.25388718,10.0479573 L5.05696008,10.6242429 C6.49764328,11.6580781 7.55401465,13.1412707 8.06008443,14.8407638 L8.10750129,15 L9.1134462,15 L9.1134462,11.6581351 C8.49108279,10.9594122 8.1134462,10.0415879 8.1134462,9.03636364 L8.1134462,6.06363636 C8.1134462,5.7148102 8.15892052,5.37650859 8.24431531,5.05423489 L8.24431531,5.05423489 Z M15.9825771,5.05423489 C16.0679719,5.37650859 16.1134462,5.7148102 16.1134462,6.06363636 L16.1134462,9.03636364 C16.1134462,10.0415879 15.7358096,10.9594122 15.1134462,11.6581351 L15.1134462,15 L16.3052916,15 L17.5382574,12.9901148 C17.8554476,12.4730562 18.2304166,11.9937509 18.6559353,11.5614396 L20.0273721,10.1681109 C18.9368233,7.73646154 17.5933257,6.04329593 15.9825771,5.05423489 L15.9825771,5.05423489 Z M7.1134462,22 L7.1134462,21.5 C7.1134462,20.6715729 6.44187332,20 5.6134462,20 C4.78501907,20 4.1134462,20.6715729 4.1134462,21.5 L4.1134462,22 L7.1134462,22 Z M20.1134462,22 L20.1134462,21.5 C20.1134462,20.6715729 19.4418733,20 18.6134462,20 C17.7850191,20 17.1134462,20.6715729 17.1134462,21.5 L17.1134462,22 L20.1134462,22 Z M12.1134462,4 C11.0088767,4 10.1134462,4.8954305 10.1134462,6 L10.1134462,9 C10.1134462,10.1045695 11.0088767,11 12.1134462,11 C13.2180157,11 14.1134462,10.1045695 14.1134462,9 L14.1134462,6 C14.1134462,4.8954305 13.2180157,4 12.1134462,4 Z" id="sphinx-of-giza"></path>
                </g>
            </g>
            <g id="slices" transform="translate(60.000000, 58.000000)"></g>
        </g>
    </g>
</svg>