<?xml version="1.0" encoding="UTF-8"?>
<svg width="24px" height="24px" viewBox="0 0 24 24" version="1.1" xmlns="http://www.w3.org/2000/svg" xmlns:xlink="http://www.w3.org/1999/xlink">
    <!-- Generator: Sketch 56.3 (81716) - https://sketch.com -->
    <title>jollycons-landmarks/jollycons-landmarks/svg/icon-landmarks-icon-taj-mahal</title>
    <desc>Created with Sketch.</desc>
    <g id="icons" stroke="none" stroke-width="1" fill="none" fill-rule="evenodd">
        <g id="icons---export" transform="translate(-252.000000, -218.000000)">
            <g id="row-3" transform="translate(60.000000, 218.000000)" fill="#000000">
                <g id="icon---14" transform="translate(192.000000, 0.000000)">
                    <path d="M21,7.34971453 C22.284535,8.00786327 23,9.00308601 23,10.2929477 C23,10.5430413 22.9884609,10.7791663 22.9639174,11 L23,11 C23.5522847,11 24,11.4477153 24,12 L24,22 C24,22.5522847 23.5522847,23 23,23 L1,23 C0.723857625,23 0.473857625,22.8880712 0.292893219,22.7071068 C0.111928813,22.5261424 0,22.2761424 0,22 L0,12 C0,11.4477153 0.44771525,11 1,11 L1.03311185,11 C1.01063751,10.7921895 1,10.5710271 1,10.3377067 C1,9.07231806 1.71364944,8.07435406 3,7.37195484 L3,7 C3,6.44771525 3.44771525,6 4,6 C4.55228475,6 5,6.44771525 5,7 L5,7.34971453 C5.44697483,7.57872809 5.82504638,7.84855474 6.12804673,8.15740662 C6.04316282,7.80555936 6,7.42646433 6,7.02183007 C6,5.06069335 7.71183659,3.24354102 11,1.40575813 L11,1 C11,0.44771525 11.4477153,0 12,0 C12.5522847,0 13,0.44771525 13,1 L13,1.40687075 C16.2908398,3.24204107 18,5.02164747 18,6.92918501 C18,7.41560045 17.9340499,7.86745703 17.8048054,8.28216778 C18.1182544,7.93843601 18.5191073,7.63454161 19,7.37195484 L19,7 C19,6.44771525 19.4477153,6 20,6 C20.5522847,6 21,6.44771525 21,7 L21,7.34971453 Z M9,21 L9,15.622716 C9,15.5788455 9.00282502,15.5356348 9.00830306,15.4932559 C9.06633621,14.0601658 10.0156441,13.005826 11.6508949,12.3952414 C11.8764149,12.3110347 12.1247423,12.3110064 12.3502815,12.3951618 C14.0230732,13.0193299 14.9809206,14.0886712 14.9970911,15.5458672 C14.9990186,15.5712308 15,15.5968588 15,15.622716 L15,21 L16,21 L16,11 L8,11 L8,21 L9,21 Z M6,13 L2,13 L2,21 L6,21 L6,13 Z M18,21 L22,21 L22,13 L18,13 L18,21 Z M4.99409413,18 L5,18 L5,18.5 C5,18.7761424 4.77614237,19 4.5,19 L3.5,19 C3.22385763,19 3,18.7761424 3,18.5 L3,17.3421998 C3,16.6991423 3.33185499,16.2517424 3.99556498,16 C4.65973629,16.2517424 4.99182194,16.6906366 4.99182194,17.3166826 C4.99182194,17.6466747 4.99257933,17.8744471 4.99409413,18 L4.99409413,18 Z M20.9940941,18 L21,18 L21,18.5 C21,18.7761424 20.7761424,19 20.5,19 L19.5,19 C19.2238576,19 19,18.7761424 19,18.5 L19,17.3421998 C19,16.6991423 19.331855,16.2517424 19.995565,16 C20.6597363,16.2517424 20.9918219,16.6906366 20.9918219,17.3166826 C20.9918219,17.6466747 20.9925793,17.8744471 20.9940941,18 L20.9940941,18 Z M3,10.3377067 C3,10.6242423 3.02168557,10.847159 3.05633723,11 L4.93920315,11 C4.97670007,10.8379258 5,10.5998264 5,10.2929477 C5,9.81273353 4.72133967,9.42674437 4.01907908,9.09296692 C3.29352969,9.46681708 3,9.87251388 3,10.3377067 Z M19,10.3377067 C19,10.6242423 19.0216856,10.847159 19.0563372,11 L20.9392031,11 C20.9767001,10.8379258 21,10.5998264 21,10.2929477 C21,9.81273353 20.7213397,9.42674437 20.0190791,9.09296692 C19.2935297,9.46681708 19,9.87251388 19,10.3377067 Z M8,7.02183007 C8,8.09613374 8.43495187,8.69135299 9.46730488,9 L14.4918078,9 C15.5469754,8.59425498 16,7.95240018 16,6.92918501 C16,5.97120894 14.7083531,4.64721066 11.9989303,3.13873968 C9.28830665,4.65115664 8,5.99978461 8,7.02183007 Z M11,21 L13,21 L13,15.6984129 C12.9979885,15.6715151 12.9970419,15.6443223 12.9972022,15.6168764 L12.9972992,15.5834484 C12.9972992,15.1205718 12.7164264,14.7436253 12.001569,14.413902 C11.2906556,14.7448024 11.0076623,15.1336842 11.005491,15.6271163 C11.0053408,15.6612341 11.0034835,15.6949466 11,15.728173 L11,21 Z" id="taj-mahal"></path>
                </g>
            </g>
            <g id="slices" transform="translate(60.000000, 58.000000)"></g>
        </g>
    </g>
</svg>