<svg xmlns="http://www.w3.org/2000/svg" width="24" height="24" viewBox="0 0 24 24">
  <path d="M14.1076729,16 L9.69345934,20.4142136 C9.31838659,20.7892863 8.80967876,21 8.27924578,21 L7.19345934,21 C6.86794477,21 6.54806529,20.9150514 6.2654395,20.7535509 C5.36850988,20.2410197 5.0568934,19.098426 5.56942461,18.2014963 L6.84912057,15.9620284 C5.02029082,15.7354882 3.44262728,14.5124491 2.78381533,12.7556172 L1.10825361,8.28745262 C0.779946751,7.41196767 1.22352224,6.43610159 2.09900719,6.10779473 C2.28909231,6.03651282 2.49044836,6 2.69345934,6 L3.27924578,6 C3.80967876,6 4.31838659,6.21071368 4.69345934,6.58578644 L7.10767291,9 L7.82742252,9 L6.56942461,6.79850365 C6.0568934,5.90157403 6.36850988,4.75898028 7.2654395,4.24644907 C7.54806529,4.08494862 7.86794477,4 8.19345934,4 L9.27924578,4 C9.80967876,4 10.3183866,4.21071368 10.6934593,4.58578644 L15.1076729,9 L19.1934593,9 C21.126456,9 22.6934593,10.5670034 22.6934593,12.5 C22.6934593,14.4329966 21.126456,16 19.1934593,16 L14.1076729,16 Z M8.8252162,12.5038611 C9.09922617,12.0243436 9.71008084,11.8577469 10.1895983,12.1317569 C10.6691157,12.4057668 10.8357125,13.0166215 10.5617025,13.4961389 L7.41663902,19 L8.27924578,19 L14.9863526,12.2928932 C15.3768769,11.9023689 16.0100418,11.9023689 16.4005661,12.2928932 C16.7910904,12.6834175 16.7910904,13.3165825 16.4005661,13.7071068 L16.1076729,14 L19.1934593,14 C20.0218865,14 20.6934593,13.3284271 20.6934593,12.5 C20.6934593,11.6715729 20.0218865,11 19.1934593,11 L6.69345934,11 C6.42824285,11 6.17388894,10.8946432 5.98635256,10.7071068 L3.27924578,8 L3.13645981,8 L4.65647368,12.0533703 C5.09556537,13.2242815 6.21492754,14 7.46546122,14 L7.97027967,14 L8.8252162,12.5038611 Z M10.1309247,9 L12.2792458,9 L9.27924578,6 L8.41663902,6 L10.1309247,9 Z"/>
</svg>
