<svg xmlns="http://www.w3.org/2000/svg" width="24" height="24" viewBox="0 0 24 24">
  <path d="M11.5317134,15 L12,15 C12.5522847,15 13,15.4477153 13,16 C13,16.5522847 12.5522847,17 12,17 L9.89998188,17 C9.43671155,19.2822403 7.41895791,21 5,21 C2.23857625,21 0,18.7614237 0,16 C0,13.2385763 2.23857625,11 5,11 C5.43890661,11 5.86460474,11.0565523 6.27020522,11.1627677 L5.96121091,9.88363272 L5,7 L4,7 C3.44771525,7 3,6.55228475 3,6 C3,5.44771525 3.44771525,5 4,5 L8,5 C8.55228475,5 9,5.44771525 9,6 C9,6.55228475 8.55228475,7 8,7 L7,7 L7.32745149,7.98235448 L17.1849145,6.99535863 L17,5 L15,5 C14.4477153,5 14,4.55228475 14,4 C14,3.44771525 14.4477153,3 15,3 L17,3 C18.1045695,3 19,3.8954305 19,5 L19.5588961,11.0308864 C22.05726,11.3087623 24,13.4275055 24,16 C24,18.7614237 21.7614237,21 19,21 C16.2385763,21 14,18.7614237 14,16 C14,13.7336359 15.5078744,11.8194547 17.5751205,11.205959 L17.3350039,8.61493066 L11.5317134,15 Z M5,13 C3.34314575,13 2,14.3431458 2,16 C2,17.6568542 3.34314575,19 5,19 C6.30621883,19 7.41745788,18.1651924 7.82929429,17 L5,17 C4.44771525,17 4,16.5522847 4,16 C4,15.4477153 4.44771525,15 5,15 L7.82929429,15 C7.41745788,13.8348076 6.30621883,13 5,13 Z M9.63278247,14.115715 L13.9864322,9.32561267 L8.02805514,9.92220567 L8.67803818,12.6129219 C9.08006491,13.0492615 9.40543574,13.5573153 9.63278247,14.115715 Z M16,16 C16,17.6568542 17.3431458,19 19,19 C20.6568542,19 22,17.6568542 22,16 C22,14.602171 21.0439896,13.4276302 19.7501405,13.0945493 L19.9900157,15.6829738 C20.0364744,16.1842954 19.6677351,16.628359 19.1664134,16.6748176 C19.1384481,16.6774093 19.1103778,16.6787071 19.0822926,16.6787071 L18.9939052,16.6787071 C18.4773724,16.6787071 18.0458359,16.285313 17.9981719,15.770984 L17.7659155,13.2647728 C16.7246111,13.735328 16,14.783043 16,16 Z"/>
</svg>
