<svg xmlns="http://www.w3.org/2000/svg" width="24" height="24" viewBox="0 0 24 24">
  <path d="M9.99790272,1.17260368 C9.99801012,1.11255438 10.0035263,1.0526368 10.0143843,0.993577225 C10.1142457,0.450406853 10.6355259,0.0910338936 11.1786963,0.190895254 C15.2012561,0.930418916 18.1416895,2.42023573 20,4.66032618 C21.8520281,6.8928435 23.1228209,9.94770244 23.8123784,13.824903 C23.8226579,13.882702 23.8278276,13.941294 23.8278276,14 C23.8278276,14.5522703 23.3801241,14.9999738 22.8278538,14.9999738 L12,14.9999977 L12,17.0056857 L22.9239426,17.0118967 C23.4762183,17.008732 23.9264918,17.4538743 23.9296566,18.00615 C23.9309544,18.2326332 23.8553311,18.452849 23.7151647,18.6307525 L22.6363636,20 C21.1438142,21.8943896 18.865188,23 16.4534634,23 L3.93119243,23 C2.31058044,23 0.995129454,21.6894286 0.989106729,20.0688278 L0.989106729,18.00615 C0.98705718,17.4546554 1.44851068,17.0031603 2,17 L10,17.0045486 L10,15 L2.24893065,15 C1.6966459,15 1.24893065,14.5522847 1.24893065,14 C1.24893065,13.7594799 1.33561934,13.5270176 1.49310553,13.3452265 L9.99368143,3.53275175 L9.99790272,1.17260368 Z M12,12.9999978 L21.6093579,12.9999978 C20.946966,10.0079329 19.8896359,7.65976138 18.4607119,5.93727254 C17.1068808,4.30530418 14.9718368,3.11616381 12,2.40677074 L12,12.9999978 Z M2.98909292,20.0613952 C2.99102148,20.5803356 3.41224842,21 3.93119243,21 L16.4534634,21 C18.1383651,21 19.7361751,20.2765532 20.8467081,19.0238331 L2.98909292,19.0238331 L2.98909292,20.0613952 Z M4.43829099,13 L10,13 L10,6.57994921 L4.43829099,13 Z"/>
</svg>
