<svg xmlns="http://www.w3.org/2000/svg" width="24" height="24" viewBox="0 0 24 24">
  <path d="M7,11 L7,15 L11,15 L11,11 L7,11 Z M13,11 L13,15 L17,15 L17,11 L13,11 Z M7,17 L7,20 C7,20.5522847 7.44771525,21 8,21 L16,21 C16.5522847,21 17,20.5522847 17,20 L17,17 L7,17 Z M11,9 L11,5.77051535 L1.53743894,8.06011927 C0.996851135,8.19092233 0.450619498,7.86660734 0.306667563,7.32937141 C0.167171345,6.80876443 0.476122656,6.27364507 0.996729629,6.13414885 C1.00184043,6.13277941 8.15711758,4.40135671 22.4625611,0.939880732 C23.0031489,0.809077672 23.5493805,1.13339266 23.6933324,1.67062859 C23.8328287,2.19123557 23.5238773,2.72635493 23.0032704,2.86585115 C22.9981596,2.86722059 19.6637361,3.67413232 13,5.28658634 L13,9 L17,9 C18.1045695,9 19,9.8954305 19,11 L19,20 C19,21.6568542 17.6568542,23 16,23 L8,23 C6.34314575,23 5,21.6568542 5,20 L5,11 C5,9.8954305 5.8954305,9 7,9 L11,9 Z"/>
</svg>
