<svg xmlns="http://www.w3.org/2000/svg" width="24" height="24" viewBox="0 0 24 24">
  <path d="M3,11.999973 L3,10.0000331 C3,8.97164285 3.77617861,8.12453885 4.77467162,8.01258529 L4.26835314,6.0435099 C4.13081564,5.50864183 4.4529157,4.96354942 4.98778376,4.82601192 C5.01658923,4.8186048 5.04571083,4.81248653 5.0750617,4.80767535 C7.93820087,4.3383515 9.81794221,4.40247074 10.7142857,5.00003307 C11.4377267,5.48232704 12.208488,6.48232704 13.0265697,8.00003307 L15.2634247,8.00003307 C16.1288039,8.00003307 16.8960203,8.55659531 17.1646356,9.37922951 L18.0203775,11.9999393 L22.5960611,11.999929 C23.1483726,11.999929 23.5961096,12.447666 23.5961096,12.9999775 C23.5961096,13.1291884 23.5710698,13.257175 23.5223749,13.3768591 C22.7159979,15.358803 21.5255468,16.8948029 19.9510216,17.9848588 C18.0291258,19.3154021 15.7121186,19.9871083 13,19.9999775 L1,19.9999775 C0.44771525,19.9999775 6.76353751e-17,19.5522622 0,18.9999775 L0,12.9999775 C-6.76353751e-17,12.4476927 0.44771525,11.9999775 1,11.9999775 L3,11.999973 Z M15.2634247,10.0000331 L5,10.0000331 L5,11.9999685 L15.9164568,11.999944 L15.2634247,10.0000331 Z M9.60488532,6.66413366 C9.32458717,6.47726823 8.2335033,6.41140194 6.48302133,6.62533592 L6.83650427,8.00003307 L10.7159827,8.00003307 C10.2821345,7.31146245 9.9031772,6.86299492 9.60488532,6.66413366 Z M2,18 L12.99051,18 C15.3137969,17.9889758 17.2366053,17.4315489 18.8126017,16.3404744 C19.6790651,15.7406151 20.4017302,14.9657382 20.984898,13.9999326 L2,13.9999752 L2,18 Z"/>
</svg>
