<svg xmlns="http://www.w3.org/2000/svg" width="24" height="24" viewBox="0 0 24 24">
  <path d="M17,9 L17,6 C17,5.44771525 17.4477153,5 18,5 C18.5522847,5 19,5.44771525 19,6 L19,9 L20.560392,9 C21.6649615,9 22.560392,9.8954305 22.560392,11 C22.560392,11.131704 22.5473826,11.2630859 22.5215533,11.3922323 L21.775984,15.1200788 C22.5305985,15.8476256 23,16.8689955 23,18 C23,20.209139 21.209139,22 19,22 C17.1361606,22 15.5700603,20.7252272 15.1260175,19 L10.5839563,19 C9.81239969,20.7659048 8.05031904,22 6,22 C3.23857625,22 1,19.7614237 1,17 C1,15.3641822 1.7855533,13.9118401 3,12.9996338 L3,5 C3,3.8954305 3.8954305,3 5,3 L9.71275638,3 C10.6007054,3 11.3823371,3.58544922 11.6320442,4.43756414 L12.9690389,9 L17,9 Z M19,14 C19.3231349,14 19.6373205,14.0383163 19.9382613,14.1106533 L20.560392,11 L5,11 L5,12.1000181 C5.32310994,12.0344303 5.65753416,12 6,12 C8.76142375,12 11,14.2385763 11,17 L15.1260175,17 C15.5700603,15.2747728 17.1361606,14 19,14 Z M9.71275638,5 L5,5 L5,9 L10.8849325,9 L9.71275638,5 Z M6,20 C7.65685425,20 9,18.6568542 9,17 C9,15.3431458 7.65685425,14 6,14 C4.34314575,14 3,15.3431458 3,17 C3,18.6568542 4.34314575,20 6,20 Z M19,20 C20.1045695,20 21,19.1045695 21,18 C21,16.8954305 20.1045695,16 19,16 C17.8954305,16 17,16.8954305 17,18 C17,19.1045695 17.8954305,20 19,20 Z"/>
</svg>
