<svg xmlns="http://www.w3.org/2000/svg" width="24" height="24" viewBox="0 0 24 24">
  <path d="M13,13 C12.4477153,13 12,12.5522847 12,12 L12,8 C12,7.44771525 12.4477153,7 13,7 L15.1605015,7 C14.4320095,6.35747614 13.491803,6 12.5147397,6 L1,6 C0.44771525,6 3.69000633e-15,5.55228475 2.88657986e-15,5 C1.95774253e-16,4.44771525 0.44771525,4 1,4 L12.5147397,4 C14.1060374,4 15.6321597,4.63214 16.7573778,5.75735664 L22.0675003,11.0674725 C22.6332264,11.6331979 22.8073747,12.481635 22.5102407,13.2244691 L22.0000277,14.5 C21.3960614,16.009914 19.933671,17 18.3074436,17 L1,17 C0.44771525,17 5.58162771e-16,16.5522847 0,16 C2.15281067e-15,15.4477153 0.44771525,15 1,15 L18.3074436,15 C19.1158622,15 19.8428352,14.5078155 20.1430747,13.7572178 L20.4459622,13 L13,13 Z M17.1715963,9 L14,9 L14,11 L19.1715988,11 L17.1715963,9 Z M1,20 C0.44771525,20 1.77635684e-15,19.5522847 1.77635684e-15,19 C1.77635684e-15,18.4477153 0.44771525,18 1,18 L23,18 C23.5522847,18 24,18.4477153 24,19 C24,19.5522847 23.5522847,20 23,20 L1,20 Z M9,9 L1,9 C0.44771525,9 8.8817842e-16,8.55228475 8.8817842e-16,8 C8.8817842e-16,7.44771525 0.44771525,7 1,7 L10,7 C10.5522847,7 11,7.44771525 11,8 L11,12 C11,12.5522847 10.5522847,13 10,13 L1,13 C0.44771525,13 8.8817842e-16,12.5522847 8.8817842e-16,12 C8.8817842e-16,11.4477153 0.44771525,11 1,11 L9,11 L9,9 Z"/>
</svg>
