<?xml version="1.0" encoding="UTF-8"?>
<svg width="24px" height="24px" viewBox="0 0 24 24" version="1.1" xmlns="http://www.w3.org/2000/svg" xmlns:xlink="http://www.w3.org/1999/xlink">
    <!-- Generator: Sketch 55.2 (78181) - https://sketchapp.com -->
    <title>jollycons-beauty/jollycons-beauty/svg/icon-beauty-nail-polish</title>
    <desc>Created with Sketch.</desc>
    <g id="icons" stroke="none" stroke-width="1" fill="none" fill-rule="evenodd">
        <g id="icons---export" transform="translate(-316.000000, -218.000000)">
            <g id="row-3" transform="translate(60.000000, 218.000000)" fill="#000000" fill-rule="nonzero">
                <g id="icon---15" transform="translate(256.000000, 0.000000)">
                    <path d="M11,10.1324383 C12.6280908,10.2795629 13.8425566,11.7067182 13.7207688,13.342875 C13.715913,13.4081111 13.7089246,13.4731709 13.6998151,13.5379501 L12.6112989,21.2785097 C12.4724669,22.2657589 11.6277488,23 10.6307857,23 L4.36921429,23 C3.37225119,23 2.52753306,22.2657589 2.38870113,21.2785097 L1.30017989,13.5379142 C1.06948518,11.8972158 2.21249673,10.380138 3.85319013,10.1494155 C3.90198241,10.1425541 3.9509339,10.1368961 4,10.1324464 L4,7 C4,6.44771525 4.44771525,6 5,6 L10,6 C10.5522847,6 11,6.44771525 11,7 L11,10.1324383 L11,10.1324383 Z M19.9982633,7.94057144 C19.9994157,7.96023371 20,7.98004862 20,8 L20,13 L20.66,13 C21.4000616,13 22,13.5999384 22,14.34 L22,22 C22,22.5522847 21.5522847,23 21,23 L17,23 C16.4477153,23 16,22.5522847 16,22 L16,14.34 C16,13.5999384 16.5999384,13 17.34,13 L18,13 L18,8 C18,7.98004862 18.0005843,7.96023371 18.0017367,7.94057144 C17.4220972,7.7959269 16.9275725,7.39604397 16.6700675,6.83811635 L15.7469905,4.83811635 C15.2841117,3.83521211 15.7218887,2.64696011 16.724793,2.18408123 C16.9875564,2.06280578 17.2735093,2 17.5629093,2 L20.4370907,2 C21.5416602,2 22.4370907,2.8954305 22.4370907,4 C22.4370907,4.28940004 22.3742849,4.57535287 22.2530095,4.83811635 L21.3299325,6.83811635 C21.0724275,7.39604397 20.5779028,7.7959269 19.9982633,7.94057144 L19.9982633,7.94057144 Z M20,15 L18,15 L18,21 L20,21 L20,15 Z M17.5629093,4 L18.4859862,6 L19.5140138,6 L20.4370907,4 L17.5629093,4 Z M6,8 L6,10 L9,10 L9,8 L6,8 Z M7.5,12 C6.39895056,12 5.29787532,12.0409795 4.19672335,12.1229442 C4.17497848,12.1245628 4.15329236,12.1268922 4.13169979,12.1299286 C3.58480511,12.2068357 3.20379858,12.7125318 3.28069542,13.2594214 L4.36921429,21 L10.6307857,21 L11.7193019,13.2594404 C11.7223384,13.2378473 11.7246679,13.2161606 11.7262865,13.1944152 C11.7672827,12.6436518 11.3540357,12.1639377 10.8032705,12.1229437 C9.70212056,12.0409793 8.60104738,12 7.5,12 Z" id="nail-polish"></path>
                </g>
            </g>
            <g id="slices" transform="translate(60.000000, 58.000000)"></g>
        </g>
    </g>
</svg>