<?xml version="1.0" encoding="UTF-8"?>
<svg width="24px" height="24px" viewBox="0 0 24 24" version="1.1" xmlns="http://www.w3.org/2000/svg" xmlns:xlink="http://www.w3.org/1999/xlink">
    <!-- Generator: Sketch 55.2 (78181) - https://sketchapp.com -->
    <title>jollycons-beauty/jollycons-beauty/svg/icon-beauty-safety-razor</title>
    <desc>Created with Sketch.</desc>
    <g id="icons" stroke="none" stroke-width="1" fill="none" fill-rule="evenodd">
        <g id="icons---export" transform="translate(-60.000000, -58.000000)">
            <g id="row-1" transform="translate(60.000000, 58.000000)" fill="#000000" fill-rule="nonzero">
                <g id="icon---1">
                    <path d="M12.9999915,13 L12.9999915,11 L10.9999915,11 L10.9999915,21 C10.9999915,21.5522847 11.4477068,22 11.9999915,22 C12.5522763,22 12.9999915,21.5522847 12.9999915,21 L12.9999915,15 L10.9999915,15 L10.9999915,13 L12.9999915,13 Z M13,7 L13,9 C14.1045656,9 14.9999915,9.89543332 14.9999915,11 L14.9999915,21 C14.9999915,22.6568542 13.6568458,24 11.9999915,24 C10.3431373,24 8.99999155,22.6568542 8.99999155,21 L8.99999155,11 C8.99999155,9.8954305 9.89542205,9 10.9999915,9 L11,7 L9.43209195,7 C7.66565907,7 6.10836757,5.84132739 5.60078681,4.14939154 L5.04217371,2.28734789 C4.84969014,1.64573596 5.33013748,1 6,1 L18,1 C18.6698625,1 19.1503099,1.64573596 18.9578263,2.28734789 L18.3992132,4.14939154 C17.8916324,5.84132739 16.3343409,7 14.567908,7 L13,7 Z M7.34403065,3 L7.51643938,3.57469577 C7.77022976,4.42066369 8.54887551,5 9.43209195,5 L14.567908,5 C15.4511245,5 16.2297702,4.42066369 16.4835606,3.57469577 L16.6559693,3 L7.34403065,3 Z" id="safety-razor"></path>
                </g>
            </g>
            <g id="slices" transform="translate(60.000000, 58.000000)"></g>
        </g>
    </g>
</svg>