<?xml version="1.0" encoding="UTF-8"?>
<svg width="24px" height="24px" viewBox="0 0 24 24" version="1.1" xmlns="http://www.w3.org/2000/svg" xmlns:xlink="http://www.w3.org/1999/xlink">
    <!-- Generator: Sketch 55.2 (78181) - https://sketchapp.com -->
    <title>jollycons-beauty/jollycons-beauty/svg/icon-beauty-scissors</title>
    <desc>Created with Sketch.</desc>
    <g id="icons" stroke="none" stroke-width="1" fill="none" fill-rule="evenodd">
        <g id="icons---export" transform="translate(-252.000000, -218.000000)">
            <g id="row-3" transform="translate(60.000000, 218.000000)" fill="#000000" fill-rule="nonzero">
                <g id="icon---14" transform="translate(192.000000, 0.000000)">
                    <path d="M10.8438828,16.5581615 C11.535016,17.2739284 11.9598881,18.2464013 11.9598881,19.3176701 C11.9598881,21.5170502 10.1690271,23.3 7.95988813,23.3 C5.75074913,23.3 3.95988813,21.5170502 3.95988813,19.3176701 C3.95988813,17.11829 5.75074913,15.3353402 7.95988813,15.3353402 C8.37137595,15.3353402 8.76835158,15.3971998 9.14194468,15.5120878 L10.2672441,13.7459865 L8.89540916,13.4050278 C8.42234858,13.2874524 8.00872178,13.0018809 7.73232967,12.6020334 C5.36727312,9.1808937 3.98823327,7.02582103 3.5464762,6.04187277 C2.9216736,4.65021775 3.57038204,3.01940248 5.24798911,1.10416513 C5.68739971,0.602512741 6.48796885,0.6631501 6.8460943,1.22521012 L12.5455749,10.1702602 L18.2450555,1.22521012 C18.603181,0.6631501 19.4037501,0.602512741 19.8431607,1.10416513 C21.5207678,3.01940248 22.1694762,4.65021775 21.5446736,6.04187277 C21.1029166,7.02582103 19.7238767,9.1808937 17.3588202,12.6020334 C17.0824281,13.0018809 16.6688013,13.2874524 16.1957407,13.4050278 L14.8239057,13.7459865 L15.9286299,15.4797959 C16.2696129,15.3856512 16.628905,15.3353402 17,15.3353402 C19.209139,15.3353402 21,17.11829 21,19.3176701 C21,21.5170502 19.209139,23.3 17,23.3 C14.790861,23.3 13,21.5170502 13,19.3176701 C13,18.2056774 13.4577888,17.2001347 14.1959705,16.4776542 L12.867177,14.3921792 L12.5455749,14.3122476 L12.2239728,14.3921792 L10.8438828,16.5581615 Z M9.37982735,11.4731611 L11.3134924,11.9537487 L5.91827394,3.486223 C5.37170454,4.30288753 5.21979672,4.88948708 5.37237671,5.22933635 C5.74348506,6.05592509 7.0955489,8.16884143 9.37982735,11.4731611 Z M17,21.308835 C18.1045695,21.308835 19,20.4173601 19,19.3176701 C19,18.2179801 18.1045695,17.3265051 17,17.3265051 C15.8954305,17.3265051 15,18.2179801 15,19.3176701 C15,20.4173601 15.8954305,21.308835 17,21.308835 Z M7.95988813,21.308835 C9.06445762,21.308835 9.95988813,20.4173601 9.95988813,19.3176701 C9.95988813,18.2179801 9.06445762,17.3265051 7.95988813,17.3265051 C6.85531863,17.3265051 5.95988813,18.2179801 5.95988813,19.3176701 C5.95988813,20.4173601 6.85531863,21.308835 7.95988813,21.308835 Z M15.7113225,11.4731611 C17.9956009,8.16884143 19.3476648,6.05592509 19.7187731,5.22933635 C19.8713531,4.88948708 19.7194453,4.30288753 19.1728759,3.486223 L13.7776575,11.9537487 L15.7113225,11.4731611 Z" id="scissors"></path>
                </g>
            </g>
            <g id="slices" transform="translate(60.000000, 58.000000)"></g>
        </g>
    </g>
</svg>