<?xml version="1.0" encoding="UTF-8"?>
<svg width="24px" height="24px" viewBox="0 0 24 24" version="1.1" xmlns="http://www.w3.org/2000/svg" xmlns:xlink="http://www.w3.org/1999/xlink">
    <!-- Generator: Sketch 55.2 (78181) - https://sketchapp.com -->
    <title>jollycons-beauty/jollycons-beauty/svg/icon-beauty-shaving-machine</title>
    <desc>Created with Sketch.</desc>
    <g id="icons" stroke="none" stroke-width="1" fill="none" fill-rule="evenodd">
        <g id="icons---export" transform="translate(-316.000000, -58.000000)">
            <g id="row-1" transform="translate(60.000000, 58.000000)" fill="#000000" fill-rule="nonzero">
                <g id="icon---5" transform="translate(256.000000, 0.000000)">
                    <path d="M6,5.5 C6,3.01471863 8.01471863,1 10.5,1 C11.6525317,1 12.7038653,1.43328035 13.5,2.14584024 C14.2961347,1.43328035 15.3474683,1 16.5,1 C18.9852814,1 21,3.01471863 21,5.5 C21,5.66900455 20.9906833,5.83583307 20.9725356,6 L21,6 L19.3913582,16.4561716 C19.252718,17.3573329 18.7219901,18.1132146 17.9889005,18.561047 L17.5971742,20.7155418 C17.2513628,22.6175045 15.5948392,24 13.6616946,24 L13.3383054,24 C13.2626974,24 13.1875126,23.9978852 13.1128128,23.9937072 C13.0757826,23.9978647 13.0381407,24 13,24 L8.3048535,24 C6.47963331,24 5,22.5203667 5,20.6951465 L5,20.390293 C5,19.8380083 4.55228475,19.390293 4,19.390293 L2.62832565,19.390293 C2.0760409,19.390293 1.62832565,18.9425777 1.62832565,18.390293 C1.62832565,17.8380083 2.0760409,17.390293 2.62832565,17.390293 L4,17.390293 C5.65685425,17.390293 7,18.7334388 7,20.390293 L7,20.6951465 C7,21.4157972 7.58420281,22 8.3048535,22 L9.87361925,22 C9.64893317,21.6109496 9.48702621,21.1786442 9.40282577,20.7155418 L9.01109946,18.561047 C8.27800994,18.1132146 7.74728198,17.3573329 7.60864178,16.4561716 L6,6 L6.02746439,6 C6.00931666,5.83583307 6,5.66900455 6,5.5 Z M17.9933752,9.7462771 C17.8655077,12.1170263 15.9026499,14 13.5,14 C11.0973501,14 9.13449227,12.1170263 9.00662477,9.7462771 C8.8581513,9.69406184 8.7132421,9.63427978 8.57236003,9.56739375 L9.58538517,16.1520572 C9.6604362,16.6398889 10.0801858,17 10.5737569,17 L16.4262431,17 C16.9198142,17 17.3395638,16.6398889 17.4146148,16.1520572 L18.42764,9.56739375 C18.2867579,9.63427978 18.1418487,9.69406184 17.9933752,9.7462771 Z M11.1236982,19 L11.3705656,20.3577709 C11.5434713,21.3087523 12.3717331,22 13.3383054,22 L13.6616946,22 C14.6282669,22 15.4565287,21.3087523 15.6294344,20.3577709 L15.8763018,19 L11.1236982,19 Z M12.1661724,3.63611002 C11.7100736,3.22789052 11.1254061,3 10.5,3 C9.11928813,3 8,4.11928813 8,5.5 C8,6.56964386 8.67804686,7.51064775 9.67014987,7.85955125 C10.4337019,8.12807777 10.9601304,8.83034371 11.0037221,9.6385627 C11.0749197,10.9586142 12.1705302,12 13.5,12 C14.8294698,12 15.9250803,10.9586142 15.9962779,9.6385627 C16.0398696,8.83034371 16.5662981,8.12807777 17.3298501,7.85955125 C18.3219531,7.51064775 19,6.56964386 19,5.5 C19,4.11928813 17.8807119,3 16.5,3 C15.8745939,3 15.2899264,3.22789052 14.8338276,3.63611002 C14.0744735,4.31575031 12.9255265,4.31575031 12.1661724,3.63611002 Z M10.5,7 C9.67157288,7 9,6.32842712 9,5.5 C9,4.67157288 9.67157288,4 10.5,4 C11.3284271,4 12,4.67157288 12,5.5 C12,6.32842712 11.3284271,7 10.5,7 Z M16.5,7 C15.6715729,7 15,6.32842712 15,5.5 C15,4.67157288 15.6715729,4 16.5,4 C17.3284271,4 18,4.67157288 18,5.5 C18,6.32842712 17.3284271,7 16.5,7 Z M13.5,11 C12.6715729,11 12,10.3284271 12,9.5 C12,8.67157288 12.6715729,8 13.5,8 C14.3284271,8 15,8.67157288 15,9.5 C15,10.3284271 14.3284271,11 13.5,11 Z" id="shaving-machine"></path>
                </g>
            </g>
            <g id="slices" transform="translate(60.000000, 58.000000)"></g>
        </g>
    </g>
</svg>