<svg xmlns="http://www.w3.org/2000/svg" width="24" height="24" viewBox="0 0 24 24">
  <path fill="#000000" d="M12.5,22 C7.80557963,22 3,14.8541414 3,9.925 C3,4.99585861 7.80557963,1 12.5,1 C17.1944204,1 22,4.99585861 22,9.925 C22,14.8541414 17.1944204,22 12.5,22 Z M12.5,20 C15.6837511,20 20,14.2007237 20,9.925 C20,6.32068391 16.3234403,3 12.5,3 C8.6765597,3 5,6.32068391 5,9.925 C5,14.2007237 9.31624887,20 12.5,20 Z M6.80796898,11.8435029 C5.87071068,10.9062446 5.90236893,9.35499039 6.87867966,8.37867966 C7.85499039,7.40236893 9.40624458,7.37071068 10.3435029,8.30796898 C11.2807612,9.24522728 12.0976311,11.6450096 11.1213203,12.6213203 C10.1450096,13.5976311 7.74522728,12.7807612 6.80796898,11.8435029 Z M18.192031,11.8435029 C17.2547727,12.7807612 14.8549904,13.5976311 13.8786797,12.6213203 C12.9023689,11.6450096 13.7192388,9.24522728 14.6564971,8.30796898 C15.5937554,7.37071068 17.1450096,7.40236893 18.1213203,8.37867966 C19.0976311,9.35499039 19.1292893,10.9062446 18.192031,11.8435029 Z M10.4670333,15.0221114 L14.4670333,15.0221114 C14.8294513,15.0221114 15.0714782,15.3956473 14.9233834,15.7264263 C14.2545243,17.2203649 13.4527778,18.0221114 12.4670333,18.0221114 C11.4812888,18.0221114 10.6795423,17.2203649 10.0106832,15.7264263 C9.86258838,15.3956473 10.1046153,15.0221114 10.4670333,15.0221114 Z"/>
</svg>
