<svg xmlns="http://www.w3.org/2000/svg" width="24" height="24" viewBox="0 0 24 24">
  <path fill="#000000" d="M20.0289141,6.74884191 L17.9997227,7.96635673 C17.9999073,7.97754903 18,7.9887637 18,8 C18,9.1045695 17.1045695,10 16,10 C15.733347,10 15.4788823,9.94781584 15.2462612,9.85310288 L13.4813594,11.2258042 C13.4936499,11.3154464 13.5,11.4069816 13.5,11.5 C13.5,11.9669473 13.3399773,12.3965193 13.0717801,12.7368679 L13.7850994,14.5201661 C14.7546261,14.6585385 15.5,15.4922235 15.5,16.5 C15.5,17.6045695 14.6045695,18.5 13.5,18.5 C13.0174392,18.5 12.574795,18.329097 12.2292923,18.0445158 L7.47322792,19.82804 C7.31672163,20.7765475 6.49284651,21.5 5.5,21.5 C4.3954305,21.5 3.5,20.6045695 3.5,19.5 C3.5,19.0330527 3.66002267,18.6034807 3.92821989,18.2631321 L3.2149006,16.4798339 C2.24537395,16.3414615 1.5,15.5077765 1.5,14.5 C1.5,13.3954305 2.3954305,12.5 3.5,12.5 C3.98256075,12.5 4.42520496,12.670903 4.77070767,12.9554842 L9.52677208,11.17196 C9.68327837,10.2234525 10.5071535,9.5 11.5,9.5 C11.766653,9.5 12.0211177,9.55218416 12.2537388,9.64689712 L14.0186406,8.27419576 C14.0063501,8.18455357 14,8.09301836 14,8 C14,6.8954305 14.8954305,6 16,6 C16.3524139,6 16.6835388,6.091149 16.9710859,6.25115809 L19.0002773,5.03364327 C19.0000927,5.02245097 19,5.0112363 19,5 C19,3.8954305 19.8954305,3 21,3 C22.1045695,3 23,3.8954305 23,5 C23,6.1045695 22.1045695,7 21,7 C20.6475861,7 20.3164612,6.908851 20.0289141,6.74884191 Z M10.2292923,13.0445158 L5.47322792,14.82804 C5.41723252,15.1674005 5.27580778,15.477952 5.07178011,15.7368679 L5.7850994,17.5201661 C6.15622543,17.5731338 6.49450661,17.7279849 6.77070767,17.9554842 L11.5267721,16.17196 C11.5827675,15.8325995 11.7241922,15.522048 11.9282199,15.2631321 L11.2149006,13.4798339 C10.8437746,13.4268662 10.5054934,13.2720151 10.2292923,13.0445158 Z M10,23 C9.44771525,23 9,22.5522847 9,22 C9,21.4477153 9.44771525,21 10,21 C10.5522847,21 11,21.4477153 11,22 C11,22.5522847 10.5522847,23 10,23 Z M20,18 C19.4477153,18 19,17.5522847 19,17 C19,16.4477153 19.4477153,16 20,16 C20.5522847,16 21,16.4477153 21,17 C21,17.5522847 20.5522847,18 20,18 Z M13,4 C12.4477153,4 12,3.55228475 12,3 C12,2.44771525 12.4477153,2 13,2 C13.5522847,2 14,2.44771525 14,3 C14,3.55228475 13.5522847,4 13,4 Z M5,5 C4.44771525,5 4,4.55228475 4,4 C4,3.44771525 4.44771525,3 5,3 C5.55228475,3 6,3.44771525 6,4 C6,4.55228475 5.55228475,5 5,5 Z M6,9 C5.44771525,9 5,8.55228475 5,8 C5,7.44771525 5.44771525,7 6,7 C6.55228475,7 7,7.44771525 7,8 C7,8.55228475 6.55228475,9 6,9 Z"/>
</svg>
