<svg xmlns="http://www.w3.org/2000/svg" width="24" height="24" viewBox="0 0 24 24">
  <path fill="#000000" d="M12.9827479,21.9520044 C12.6588881,21.9837735 12.3310272,22 12,22 C6.4771525,22 2,17.5228475 2,12 C2,10.272201 2.44202985,8.63097591 3.22848274,7.19606713 C4.33046816,5.18545901 6.10868987,3.57993005 8.2946199,2.70890611 C8.58297121,2.59400742 8.87841173,2.49189132 9.18033014,2.40331192 C10.0888688,2.13675714 11.0358343,2 12,2 C16.5205968,2 20.3405931,4.99962756 21.5781744,9.11706825 C21.8525555,10.0299361 22,10.9977493 22,12 C22,12.9867978 21.8567456,13.9555133 21.5777734,14.8833503 C21.4446377,15.3261478 21.2823525,15.7548009 21.0933242,16.1673578 C19.7568808,19.0841646 17.0836599,21.1963836 13.9241091,21.8141598 C13.6147192,21.8746537 13.3006659,21.9208179 12.9827479,21.9520044 Z M19.6624741,14.3074783 C19.8854321,13.5659397 20,12.7912079 20,12 C20,11.6813253 19.9813671,11.3670026 19.9451313,11.0580618 L19.609372,10.7302944 C19.1894421,10.3203598 18.4128682,9.88072657 18.2908561,9.30670516 C18.2729025,9.22224009 18.2748612,9.13475494 18.2965769,9.05117798 C18.3529009,8.83440499 19.0169507,8.59541639 19.2237703,8.55806096 C18.0658284,6.13218274 15.7219035,4.3810445 12.9422554,4.05490595 C13.1032185,4.57218434 12.8876885,5.79114007 12.6760713,5.9038144 C12.4644541,6.01648874 11.7697675,6.44055034 11.7066216,6.9054603 C11.6119027,7.60282523 12.4359336,8.61271412 12.0267834,9.22127613 C11.908175,9.53022458 10.859538,8.64290492 10.4297616,8.12875532 C9.99998526,7.61460572 9.854263,8.90351209 9.37572265,8.81913252 L9.09993464,8.77050365 L8.44850325,8.89866794 L8.31683471,8.89344184 C8.17819492,8.88793905 8.03992996,8.91139117 7.91085895,8.96230234 C7.39787325,9.16464601 7.14604812,9.74453504 7.34839178,10.2575207 C7.34957167,10.288682 7.22429917,11.0042053 7.91085895,11.8657802 C8.13839638,12.1513206 8.78316983,12.2882072 8.91629772,12.5268983 C9.2214865,13.0740851 8.79986225,14.2134304 8.13839638,13.9415183 C7.47693052,13.6696062 6.94289889,13.5367082 6.59490778,13.0625276 C6.24691667,12.5883471 6.32034757,12.2601564 5.74175375,11.6055285 C5.16315993,10.9509007 4.61038801,11.247151 4.40787123,10.8192349 C4.34501941,10.6864296 4.32546269,10.4441205 4.24930563,10.0145431 C4.0862412,10.6518023 4,11.3174698 4,12 C4,16.418278 7.581722,20 12,20 C12.3374169,20 12.6707273,19.9789221 12.9985331,19.9379012 C13.0210346,19.7208429 13.0674778,19.5066205 13.1372167,19.299184 L13.3086875,18.7891487 L13.2078472,18.2805384 C13.0638969,17.5544926 12.6331964,16.9171938 12.0132127,16.5128618 L11.9516291,16.4726992 C11.4342608,16.1352895 11.2522196,15.4635045 11.5284496,14.9110444 L11.7066216,14.5547004 C11.9096874,14.1485687 12.1769004,13.7778306 12.4979757,13.4567553 C12.7509175,13.2038135 13.1610171,13.2038135 13.4139589,13.4567553 C13.4188328,13.4616291 13.4236285,13.4665804 13.4283443,13.4716073 C13.673366,13.7327384 13.8479967,13.8893843 13.9522648,13.9415183 C14.1114467,14.0211092 14.6122738,14.1099351 15.4547462,14.207996 L17.1729937,14.7164989 C17.6043894,14.8441673 17.9970115,15.0776868 18.3151322,15.3958074 C18.6068105,15.6874857 18.6827355,16.1314472 18.5045629,16.5034781 C18.4272834,16.6648398 18.3560478,16.8120553 18.2908561,16.9451245 C18.8983868,16.1735432 19.3690406,15.283412 19.6624741,14.3074783 Z M12.0461539,11.7413881 C12.0254523,11.7505387 12.0027639,11.7605636 11.9779068,11.7715416 C11.8910521,11.8099002 11.8194978,11.8394666 11.747278,11.8657802 C11.5700846,11.9303414 11.4115799,11.9667926 11.2511086,11.9667926 C11.149292,11.9667926 11.0472826,11.970789 10.8944431,11.979521 C10.6386457,11.9941353 10.6437218,11.9938775 10.5696272,11.9938775 C10.4992652,11.9938775 10.4415935,11.9901119 10.380885,11.9774995 C10.1509516,11.92973 9.95110863,11.7986772 9.95110863,11.4667926 C9.95110863,10.9837814 10.1633879,10.6201602 10.5618439,10.4756095 C10.8352177,10.3764358 11.1316141,10.398315 11.4834397,10.494873 C11.6004739,10.5269929 11.7189959,10.5662981 11.8565904,10.6167946 C11.8532455,10.6155671 11.936009,10.6469232 12.0258148,10.680499 C12.3763255,10.6023664 12.7511086,10.7435159 12.7511086,11.2283061 C12.7511086,11.575032 12.4801429,11.761031 12.2049511,11.7599787 C12.1501123,11.759769 12.0995227,11.7533432 12.0461539,11.7413881 Z"/>
</svg>
