<svg xmlns="http://www.w3.org/2000/svg" width="24" height="24" viewBox="0 0 24 24">
  <path fill="#000000" d="M5,9 C5,9.46200069 4.68669954,9.85082614 4.26096966,9.96560529 C4.09067581,10.6151865 4,11.297004 4,12 C4,13.8192402 4.6072477,15.4966501 5.63010599,16.8405925 C6.08806314,16.324923 6.75608665,16 7.5,16 C8.88071187,16 10,17.1192881 10,18.5 C10,18.9218025 9.89553903,19.3192068 9.71107598,19.6677541 C10.4362581,19.883912 11.2045721,20 12,20 C12,19.4477153 12.4477153,19 13,19 C13.4679893,19 13.860894,19.3214753 13.9699301,19.7556419 C14.4093268,19.644378 14.8342351,19.4967546 15.241266,19.3161608 C15.0886507,19.0812701 15,18.8009878 15,18.5 C15,17.6715729 15.6715729,17 16.5,17 C16.9941247,17 17.432446,17.2389228 17.7057402,17.6075448 C19.1247003,16.1638933 20,14.1841652 20,12 C20,7.581722 16.418278,4 12,4 C8.85892555,4 6.14066124,5.81026543 4.83158693,8.44441646 C4.93796253,8.60332179 5,8.79441608 5,9 Z M12,22 C6.4771525,22 2,17.5228475 2,12 C2,6.4771525 6.4771525,2 12,2 C17.5228475,2 22,6.4771525 22,12 C22,17.5228475 17.5228475,22 12,22 Z M6.5,15 C5.67157288,15 5,14.3284271 5,13.5 C5,12.6715729 5.67157288,12 6.5,12 C7.32842712,12 8,12.6715729 8,13.5 C8,14.3284271 7.32842712,15 6.5,15 Z M13,17 C11.8954305,17 11,16.1045695 11,15 C11,13.8954305 11.8954305,13 13,13 C14.1045695,13 15,13.8954305 15,15 C15,16.1045695 14.1045695,17 13,17 Z M9,11 C8.44771525,11 8,10.5522847 8,10 C8,9.44771525 8.44771525,9 9,9 C9.55228475,9 10,9.44771525 10,10 C10,10.5522847 9.55228475,11 9,11 Z"/>
</svg>
