<svg xmlns="http://www.w3.org/2000/svg" width="24" height="24" viewBox="0 0 24 24">
  <path fill="#000000" d="M5.83171397,9.55290026 C5.17567871,9.68623819 4.59577853,9.83838513 4.1112223,9.99991164 C4.30716729,10.0652671 4.51991682,10.1295718 4.74806022,10.1917927 C6.61285891,10.7003742 9.2103074,11 12,11 C14.7896926,11 17.3871411,10.7003742 19.2519398,10.1917927 C19.4800832,10.1295718 19.6928327,10.0652671 19.8887777,9.99991164 C19.4042215,9.83838513 18.8243213,9.68623819 18.168286,9.55290026 L18,9.51869644 C16.2998613,9.18808634 14.2102701,9 12,9 C9.78972993,9 7.70013867,9.18808634 6,9.51916367 L5.83171397,9.55290026 Z M12,7 C13.5953969,7 15.1114664,7.09262947 16.479847,7.25924441 C16.0062105,5.39898113 14.184558,4 12,4 C9.81544201,4 7.99378945,5.39898113 7.520153,7.25924441 C8.88853364,7.09262947 10.4046031,7 12,7 Z M12,14 C9.43899938,14 7.32770435,13.4223744 7.03472115,12.6777052 C3.45418034,12.1828871 1,11.1696078 1,10 C1,9.01443001 2.74261281,8.13986248 5.43336239,7.5929727 C5.76808979,4.45202877 8.58032379,2 12,2 C15.4196762,2 18.2319102,4.45202877 18.5666376,7.5929727 C21.2573872,8.13986248 23,9.01443001 23,10 C23,11.1696078 20.5458197,12.1828871 16.9652788,12.6777052 C16.6722957,13.4223744 14.5610006,14 12,14 Z M5.83205029,20.5547002 C5.52569784,21.0142289 4.90482849,21.1384028 4.4452998,20.8320503 C3.98577112,20.5256978 3.86159725,19.9048285 4.16794971,19.4452998 L6.16794971,16.4452998 C6.47430216,15.9857711 7.09517151,15.8615972 7.5547002,16.1679497 C8.01422888,16.4743022 8.13840275,17.0951715 7.83205029,17.5547002 L5.83205029,20.5547002 Z M13,21 C13,21.5522847 12.5522847,22 12,22 C11.4477153,22 11,21.5522847 11,21 L11,18 C11,17.4477153 11.4477153,17 12,17 C12.5522847,17 13,17.4477153 13,18 L13,21 Z M19.8320503,19.4452998 C20.1384028,19.9048285 20.0142289,20.5256978 19.5547002,20.8320503 C19.0951715,21.1384028 18.4743022,21.0142289 18.1679497,20.5547002 L16.1679497,17.5547002 C15.8615972,17.0951715 15.9857711,16.4743022 16.4452998,16.1679497 C16.9048285,15.8615972 17.5256978,15.9857711 17.8320503,16.4452998 L19.8320503,19.4452998 Z"/>
</svg>
