<svg xmlns="http://www.w3.org/2000/svg" width="24" height="24" viewBox="0 0 24 24">
  <path fill="#000000" d="M9.90683593,12.5699344 C9.88996765,12.6159363 9.86957108,12.6624722 9.84542501,12.7094276 L7.63906369,17 L16.3612189,17 L14.1413185,12.683527 C14.112829,12.6281307 14.0895584,12.5733181 14.0711433,12.5192775 L13.5345061,11.490791 C13.2790246,11.0011507 13.4688478,10.3971101 13.9584882,10.1416286 C14.4481285,9.88614712 15.0521691,10.0759704 15.3076506,10.5656107 L17.3010305,14.3860019 C17.4235655,14.5207671 17.6251651,14.5628769 17.7952214,14.4768191 C17.9987977,14.3737982 18.0818964,14.1263792 17.9817795,13.9213592 L15.9243804,9.70820854 C15.907939,9.67453987 15.8885892,9.64349523 15.8665281,9.61506077 L15.7674503,9.45965352 C15.3721052,8.69143662 14.7054468,8.09412682 13.8932253,7.78646715 L13.1773356,7.51529681 C12.3943623,7.21871603 12.3007406,6.1487625 13.0203077,5.72070827 C13.6234949,5.36188584 14,4.71415254 14,4 C14,2.8954305 13.1045695,2 12,2 C10.8954305,2 10,2.8954305 10,4 C10,4.71415254 10.3765051,5.36188584 10.9796923,5.72070827 C11.6992594,6.1487625 11.6056377,7.21871603 10.8226644,7.51529681 L10.1067747,7.78646715 C9.29404287,8.09432012 8.62706984,8.69218264 8.23182302,9.46106627 L8.13346411,9.61568126 C8.11160272,9.64394649 8.09241455,9.67478413 8.07609248,9.70820854 L6.01860083,13.9215487 C5.91851464,14.1265057 6.00157738,14.3738489 6.20508321,14.4768536 C6.38009701,14.565437 6.58855215,14.518183 6.70972439,14.3738431 L8.69676018,10.5656107 C8.95224166,10.0759704 9.55628224,9.88614712 10.0459226,10.1416286 C10.5355629,10.3971101 10.7253862,11.0011507 10.4699047,11.490791 L9.90683593,12.5699344 Z M11,21.5 L11,19 L10,19 L10,21.5 C10,21.7761424 10.2238576,22 10.5,22 C10.7761424,22 11,21.7761424 11,21.5 Z M13,19 L13,21.5 C13,21.7761424 13.2238576,22 13.5,22 C13.7761424,22 14,21.7761424 14,21.5 L14,19 L13,19 Z M8,19 L6.81971031,19 C5.99128319,19 5.31971031,18.3284271 5.31971031,17.5 C5.31971031,17.2613923 5.37663274,17.0262271 5.48575094,16.8140318 L5.68968703,16.4174501 C5.55831055,16.3773358 5.42859314,16.325429 5.30188568,16.2612958 C4.12280317,15.6645018 3.64154997,14.2314323 4.22143449,13.0439422 L6.27892614,8.83060204 C6.34046822,8.7045759 6.41190194,8.58456775 6.49247835,8.47148525 C6.99492926,7.53005026 7.75903117,6.75736891 8.68843277,6.24444144 C8.24872485,5.59610032 8,4.81941694 8,4 C8,1.790861 9.790861,0 12,0 C14.209139,0 16,1.790861 16,4 C16,4.81941694 15.7512752,5.59610032 15.3115672,6.24444143 C16.2400903,6.75688403 17.003637,7.52859542 17.5061142,8.46885 C17.5874588,8.58270107 17.6595255,8.70359467 17.7215467,8.83060204 L19.7789458,13.0437527 C20.3588872,14.2313592 19.8775264,15.6645679 18.6982826,16.2613303 C18.5716111,16.3254331 18.4419328,16.3773185 18.3105969,16.4174197 L18.5145412,16.813978 C18.8934207,17.5506881 18.6033416,18.4550522 17.8666315,18.8339317 C17.6544224,18.9430678 17.4192376,19 17.1806095,19 L16,19 L16,21.5 C16,22.8807119 14.8807119,24 13.5,24 C12.937197,24 12.4178303,23.8140276 12,23.5001831 C11.5821697,23.8140276 11.062803,24 10.5,24 C9.11928813,24 8,22.8807119 8,21.5 L8,19 Z"/>
</svg>
