<svg xmlns="http://www.w3.org/2000/svg" width="24" height="24" viewBox="0 0 24 24">
  <path fill="#000000" fill-rule="evenodd" d="M8,8 C8.55228475,8 9,8.44771525 9,9 L9,10 C9,10.5522847 8.55228475,11 8,11 C7.44771525,11 7,10.5522847 7,10 L7,9 C7,8.44771525 7.44771525,8 8,8 Z M16,8 C16.5522847,8 17,8.44771525 17,9 L17,10 C17,10.5522847 16.5522847,11 16,11 C15.4477153,11 15,10.5522847 15,10 L15,9 C15,8.44771525 15.4477153,8 16,8 Z M16,3.99999978 C15.4477153,3.99999978 15,3.55228453 15,2.99999978 C15,2.44771503 15.4477153,1.99999978 16,1.99999978 L16.8333336,1.99999978 C19.6868048,1.99999978 22.0000003,4.31319525 22.0000003,7.16666648 L22.0000003,8 C22.0000003,8.55228475 21.552285,9 21.0000003,9 C20.4477155,9 20.0000003,8.55228475 20.0000003,8 L20.0000003,7.16666648 C20.0000003,5.41776475 18.5822353,3.99999978 16.8333336,3.99999978 L16,3.99999978 Z M20.0000006,16 C20.0000006,15.4477153 20.4477159,15 21.0000006,15 C21.5522854,15 22.0000006,15.4477153 22.0000006,16 L22.0000006,16.8333337 C22.0000007,19.6868049 19.6868053,22.0000005 16.833334,22.0000006 L16,22.0000006 C15.4477153,22.0000006 15,21.5522854 15,21.0000006 C15,20.4477159 15.4477153,20.0000006 16,20.0000006 L16.833334,20.0000006 C18.5822357,20.0000006 20.0000007,18.5822355 20.0000006,16.8333337 L20.0000006,16 Z M8.06918805,20.0000008 C8.6214728,20.0000008 9.06918805,20.447716 9.06918805,21.0000008 C9.06918805,21.5522855 8.6214728,22.0000008 8.06918805,22.0000008 L7.17616624,22.0000008 C4.31795748,22.000001 1.99999939,19.6873161 1.99999919,16.8333343 L1.99999919,16 C1.99999919,15.4477153 2.44771444,15 2.99999919,15 C3.55228393,15 3.99999919,15.4477153 3.99999919,16 L3.99999919,16.8333342 C3.99999931,18.5817256 5.42150851,20.0000009 7.17616617,20.0000008 L8.06918805,20.0000008 Z M3.99999954,8 C3.99999954,8.55228475 3.55228429,9 2.99999954,9 C2.44771479,9 1.99999954,8.55228475 1.99999954,8 L1.99999954,7.16666673 C1.99999933,4.31308385 4.31423655,1.99999984 7.16874391,1.99999962 L8.01499869,1.99999962 C8.56728344,1.99999962 9.01499869,2.44771487 9.01499869,2.99999962 C9.01499869,3.55228437 8.56728344,3.99999962 8.01499869,3.99999962 L7.16874399,3.99999962 C5.41858304,3.99999975 3.99999941,5.41787649 3.99999954,7.16666666 L3.99999954,8 Z M8.4254152,17.0213498 C8.00002883,16.6691214 7.9407226,16.03874 8.29295104,15.6133536 C8.64517948,15.1879672 9.27556084,15.128661 9.70094722,15.4808894 C10.091393,15.8041864 10.8586667,15.9988804 12.0100474,15.9988804 C13.161428,15.9988804 13.9287017,15.8041864 14.3191475,15.4808894 C14.7445339,15.128661 15.3749153,15.1879672 15.7271437,15.6133536 C16.0793721,16.03874 16.0200659,16.6691214 15.5946795,17.0213498 C14.7810308,17.6950672 13.5837271,17.9988804 12.0100474,17.9988804 C10.4363676,17.9988804 9.23906391,17.6950672 8.4254152,17.0213498 Z M11,9 C11,8.44771525 11.4477153,8 12,8 C12.5522847,8 13,8.44771525 13,9 L13,12 C13,13.1045695 12.1045695,14 11,14 C10.4477153,14 10,13.5522847 10,13 C10,12.4477153 10.4477153,12 11,12 L11,9 Z"/>
</svg>
