<svg xmlns="http://www.w3.org/2000/svg" width="24" height="24" viewBox="0 0 24 24">
  <path fill="#000000" d="M15,18 L15,17 C15,16.9763293 15.0008224,16.9528507 15.0024403,16.9295912 C14.8204772,16.903581 14.6398557,16.8704235 14.4608957,16.8302054 C14.0600545,16.7401234 13.6690364,16.6149392 13.2917781,16.4564539 C12.8380142,16.2658288 12.4059364,16.0277658 12.002501,15.7467362 L12.0001513,15.7450987 C11.9128071,15.8060116 11.824071,15.8649392 11.7340112,15.9218287 C11.5984602,16.0074543 11.4599857,16.0884152 11.318824,16.1645499 C11.1620744,16.2490918 11.0020954,16.3276374 10.8392117,16.3999894 C10.6804415,16.4705141 10.5189973,16.535116 10.3551777,16.5936354 C10.1545644,16.6652983 9.95053518,16.7277876 9.74362806,16.7808574 C9.49824629,16.8437957 9.24927332,16.8933736 8.99754196,16.9293361 C8.99917155,16.952679 9,16.9762428 9,17 L9,18 L10,18 C10.5522847,18 11,18.4477153 11,19 C11,19.5522847 10.5522847,20 10,20 L9,20 L9,21 C9,21.5522847 8.55228475,22 8,22 C7.44771525,22 7,21.5522847 7,21 L7,20 L6,20 C5.44771525,20 5,19.5522847 5,19 C5,18.4477153 5.44771525,18 6,18 L7,18 L7,17 C7,16.9762852 7.0008255,16.9527631 7.00244933,16.929461 C3.60896116,16.4452857 1,13.5273206 1,10 C1,6.13400675 4.13400675,3 8,3 C8.6050416,3 9.20082578,3.07700153 9.77653747,3.22766932 C10.1739907,3.33168561 10.5604017,3.47043985 10.9318992,3.6419948 C11.3055105,3.8145259 11.6628128,4.01967205 11.9998332,4.25467921 C12.0203429,4.24037485 12.0409303,4.22617949 12.0615946,4.21209385 C12.1940747,4.12178971 12.3296395,4.03604542 12.468058,3.9550307 C12.6217617,3.86506982 12.778902,3.78098882 12.9391614,3.70299639 C13.0953736,3.62697359 13.2544649,3.55677675 13.4161424,3.49257574 C13.6141326,3.41395524 13.8158566,3.34438353 14.0207856,3.28412503 C14.5809112,3.11942244 15.1625771,3.02497664 15.7557035,3.00426421 C19.6193417,2.86934299 22.8608146,5.89206533 22.9957358,9.75570352 C23.1217536,13.3643803 20.493123,16.4302957 16.9975293,16.9291553 C16.9991673,16.9525573 17,16.9761814 17,17 L17,18 L18,18 C18.5522847,18 19,18.4477153 19,19 C19,19.5522847 18.5522847,20 18,20 L17,20 L17,21 C17,21.5522847 16.5522847,22 16,22 C15.4477153,22 15,21.5522847 15,21 L15,20 L14,20 C13.4477153,20 13,19.5522847 13,19 C13,18.4477153 13.4477153,18 14,18 L15,18 Z M13.4994758,5.66880353 C13.6243376,5.82715826 13.742376,5.99087877 13.8532126,6.15950937 C14.0195668,6.4126063 14.1694032,6.67631479 14.301653,6.94903998 C14.4345945,7.22319152 14.5495472,7.506003 14.6456412,7.79586168 C14.8794732,8.50119425 15,9.24307064 15,10 C15,10.5315502 14.9405701,11.0560945 14.8238574,11.5663565 C14.7553819,11.8657279 14.6673394,12.1594996 14.5604478,12.4460819 C14.367441,12.9635438 13.7914923,13.2265666 13.2740305,13.0335597 C12.7565686,12.8405529 12.4935457,12.2646042 12.6865526,11.7471424 C12.7627033,11.5429779 12.8254189,11.3337145 12.874208,11.1204112 C12.9575174,10.7561866 13,10.381224 13,10 C13,9.45761602 12.913987,8.92818177 12.7472446,8.42521863 C12.678778,8.21869558 12.596856,8.01714764 12.5020751,7.82169067 C12.4077035,7.62707788 12.3007288,7.43880498 12.1819027,7.25801894 C12.041602,7.04456066 11.8850859,6.84200852 11.7138747,6.65221989 C11.4962675,6.41100086 11.2557153,6.19128024 10.995878,5.99646719 C10.7147239,5.78567187 10.4122624,5.60498528 10.0934018,5.45773766 C9.82861779,5.33546226 9.55333046,5.23661082 9.27017673,5.1625075 C8.8594202,5.05500964 8.43379396,5 8,5 C5.23857625,5 3,7.23857625 3,10 C3,12.7614237 5.23857625,15 8,15 C8.42553076,15 8.84321095,14.9470666 9.24673004,14.8435675 C9.39413078,14.8057605 9.53946661,14.7612476 9.68237818,14.7101969 C9.79910225,14.6685009 9.91415064,14.6224643 10.0273171,14.5721964 C10.1434697,14.5206021 10.257581,14.4645764 10.3694209,14.4042562 C10.4134023,14.3805351 10.4570234,14.3561548 10.50027,14.3311247 C10.42587,14.2367847 10.3538803,14.1405204 10.2843842,14.0424253 C10.1092984,13.7952882 9.95034998,13.5369696 9.80866277,13.269026 C9.66623454,12.999681 9.54148187,12.7210536 9.43533046,12.4347251 C9.17702512,11.7379829 9.03068066,11.0007647 9.00426421,10.2442965 C8.98571337,9.71307004 9.02680075,9.18677125 9.12563449,8.67274691 C9.18362037,8.37116813 9.26135668,8.07450268 9.35818157,7.78436456 C9.53301165,7.26048205 10.0994301,6.97751914 10.6233126,7.15234922 C11.1471952,7.3271793 11.4301581,7.89359777 11.255328,8.41748029 C11.1863488,8.62417795 11.1309747,8.8355027 11.0896595,9.05037869 C11.019112,9.41728895 10.9897413,9.79350576 11.0030459,10.1744975 C11.0219748,10.7165511 11.1264124,11.242661 11.3106064,11.7394985 C11.3862388,11.9435063 11.4751449,12.1420724 11.5766894,12.3341025 C11.6777954,12.5253032 11.7912755,12.7097281 11.9163385,12.886257 C12.0640034,13.0946888 12.2274931,13.2916553 12.4052235,13.4753531 C12.6311166,13.7088308 12.8791904,13.9200224 13.1456683,14.1056486 C13.4340078,14.3065034 13.7425909,14.4765241 14.0663961,14.612554 C14.3352862,14.7255141 14.6138557,14.8146979 14.8994231,14.8788742 C15.313681,14.9719713 15.7409678,15.0120933 16.1744975,14.9969541 C18.934239,14.9005818 21.0933264,12.5852441 20.9969541,9.82550252 C20.9005818,7.06576095 18.5852441,4.90667357 15.8255025,5.00304586 C15.400231,5.01789667 14.9846526,5.08537464 14.5849914,5.20289334 C14.4389999,5.24582154 14.2953061,5.29537946 14.1542632,5.35138659 C14.0390654,5.39713083 13.9256937,5.44715451 13.8143505,5.50134122 C13.7074089,5.55338581 13.6023892,5.60924619 13.4994758,5.66880353 Z"/>
</svg>
