<svg xmlns="http://www.w3.org/2000/svg" width="24" height="24" viewBox="0 0 24 24">
  <path fill="#000000" d="M4.10939757,14.9182033 C4.23233116,15.4566323 3.89550559,15.9927726 3.3570766,16.1157062 C2.81864761,16.2386398 2.28250731,15.9018142 2.15957371,15.3633852 C1.44748787,12.2445659 1.75254083,8.81692359 2.96873689,6.70948486 C3.24478831,6.23113973 3.85634754,6.06714828 4.33469266,6.3431997 C4.81303779,6.61925112 4.97702924,7.23081035 4.70097782,7.70915548 C3.76156063,9.33698856 3.50171616,12.2566583 4.10939757,14.9182033 Z M6.09399202,5.60370724 C5.72133126,6.01131294 5.08880032,6.03964141 4.68119462,5.66698064 C4.27358893,5.29431988 4.24526046,4.66178894 4.61792122,4.25418325 C5.61914638,3.15907178 6.85240293,2.2966917 8.22825097,1.73601494 C9.41586517,1.25204602 10.6912445,1 12,1 C13.1453614,1 14.2657605,1.19301092 15.3251359,1.56641465 C16.6838296,2.04532071 17.920839,2.81385736 18.953808,3.81357491 C19.3506676,4.19765946 19.3610238,4.83073974 18.9769392,5.22759929 C18.5928547,5.62445884 17.9597744,5.63481502 17.5629148,5.25073046 C16.73586,4.4502987 15.7461823,3.83542576 14.660277,3.45267091 C13.8137509,3.1542913 12.9181133,3 12,3 C10.9511443,3 9.93199178,3.20140936 8.9830134,3.58813094 C7.88297002,4.03641356 6.89580007,4.7267125 6.09399202,5.60370724 Z M19.3921856,7.93515885 C19.1804358,7.42507998 19.4222793,6.8399222 19.9323581,6.62817236 C20.442437,6.41642253 21.0275948,6.65826599 21.2393446,7.16834486 C21.7393315,8.37275064 22,9.66906271 22,11 C22,12.7484813 21.9283003,14.0016696 21.6389237,15.4665337 C21.531891,16.0083478 21.0058968,16.3608077 20.4640828,16.2537751 C19.9222687,16.1467424 19.5698088,15.6207482 19.6768415,15.0789342 C19.9342261,13.7760181 20,12.6264021 20,11 C20,9.93339694 19.7917093,8.89756143 19.3921856,7.93515885 Z M5.91884163,19.0323018 C5.64610486,19.5125445 5.03569435,19.6807613 4.5554516,19.4080246 C4.07520885,19.1352878 3.90699202,18.5248773 4.1797288,18.0446345 C4.54529932,17.4009275 4.79634628,16.5663892 4.93993811,15.5788269 C5.10425457,14.4487295 5.11798874,13.3085707 5.04440133,11.9233759 C5.03759416,11.795239 5.01625871,11.4226849 5.01493835,11.3986295 C5.00467891,11.2117146 5,11.0972281 5,11 C5,10.0650426 5.18392728,9.15401497 5.53662696,8.30802608 C5.86049712,7.53118795 6.32247556,6.81978904 6.89795107,6.20736479 C7.4911406,5.57608917 8.19673612,5.05870477 8.97860767,4.6840949 C9.91408421,4.23588988 10.9412874,4 12,4 C12.5522847,4 13,4.44771525 13,5 C13,5.55228475 12.5522847,6 12,6 C11.2420084,6 10.5099236,6.16811805 9.84277878,6.48776013 C9.2844541,6.75526435 8.7798706,7.12525485 8.35544782,7.57692794 C7.94384788,8.01495489 7.61372739,8.52330624 7.38262249,9.0776367 C7.13114036,9.68084419 7,10.3304079 7,11 C7,11.0487693 7.00365676,11.1382452 7.01193242,11.2890179 C7.01303538,11.3091126 7.0345102,11.6841004 7.04158511,11.8172771 C7.12158052,13.3230948 7.10646185,14.5781886 6.91912628,15.8666014 C6.74251839,17.0812338 6.4222464,18.1458922 5.91884163,19.0323018 Z M14.8898739,6.91913349 C14.4394853,6.59949532 14.3334911,5.9752653 14.6531293,5.5248767 C14.9727675,5.07448811 15.5969975,4.96849394 16.0473861,5.28813211 C16.6008898,5.68095046 17.0950641,6.15241556 17.5135652,6.68673217 C18.0194142,7.33256911 18.2793322,7.70666692 18.4884516,8.16860692 C18.9431352,9.17299312 19.1086473,10.5044248 19.1086473,13.3048985 C19.1086473,13.8571832 18.660932,14.3048985 18.1086473,14.3048985 C17.5563625,14.3048985 17.1086473,13.8571832 17.1086473,13.3048985 C17.1086473,10.7707183 16.9714662,9.66719033 16.6664527,8.9934222 C16.5464458,8.72832946 16.3442766,8.43734913 15.9390421,7.91997053 C15.6395691,7.53762173 15.2858419,7.20014969 14.8898739,6.91913349 Z M17.0191681,16.4281121 C17.003162,15.8760593 17.4377136,15.4155566 17.9897663,15.3995504 C18.5418191,15.3835442 19.0023218,15.8180959 19.018328,16.3701486 C19.0607812,17.8343588 18.9286333,18.9355827 18.5838317,19.7118014 C18.3596278,20.2165301 17.7687112,20.4439404 17.2639825,20.2197366 C16.7592538,19.9955327 16.5318435,19.4046161 16.7560474,18.8998874 C16.9533119,18.4558046 17.053703,17.6192192 17.0191681,16.4281121 Z M8.97802251,20.7114248 C8.79322629,21.2318754 8.2215108,21.503977 7.70106022,21.3191808 C7.18060965,21.1343845 6.90850803,20.5626691 7.09330425,20.0422185 C7.78769706,18.0865662 8.09648473,15.2875722 8.00035137,11.6621361 C7.98571194,11.1100454 8.42140227,10.6506198 8.97349296,10.6359804 C9.52558365,10.621341 9.98500919,11.0570313 9.99964863,11.609122 C10.101737,15.459137 9.76763358,18.4876047 8.97802251,20.7114248 Z M10.7596611,9.34387248 C10.3672104,9.73246083 9.73405319,9.72932979 9.34546484,9.33687911 C8.95687649,8.94442843 8.96000752,8.31127119 9.35245821,7.92268284 C10.0984558,7.18402705 10.9016913,7 12,7 C12.4449504,7 12.8813043,7.07305112 13.2951345,7.21461244 C14.123232,7.49788455 14.8352454,8.04699116 15.288737,8.72477832 C16.490234,10.3097228 16.7396431,14.7340561 15.4720526,21.0119835 C15.3627454,21.5533432 14.8352756,21.9035911 14.2939159,21.7942839 C13.7525561,21.6849767 13.4023083,21.1575069 13.5116155,20.6161472 C14.1640413,17.384913 14.3950694,14.739496 14.2807739,12.7119796 C14.1984023,11.250768 13.9342219,10.2486514 13.6618179,9.88662503 C13.4178765,9.52359654 13.0608315,9.24824244 12.6478091,9.10695746 C12.441672,9.03644297 12.2239884,9 12,9 C11.3897892,9 11.0218059,9.08430764 10.7596611,9.34387248 Z M11,11.050123 C11,10.4978383 11.4477153,10.050123 12,10.050123 C12.5522847,10.050123 13,10.4978383 13,11.050123 L13,16.3546152 C13,16.9069 12.5522847,17.3546152 12,17.3546152 C11.4477153,17.3546152 11,16.9069 11,16.3546152 L11,11.050123 Z M10.8187977,18.9846463 C10.8826073,18.4360601 11.3790522,18.0430711 11.9276384,18.1068807 C12.4762245,18.1706903 12.8692135,18.6671352 12.8054039,19.2157214 C12.7929106,19.3231289 12.767751,19.4964767 12.727595,19.7152253 C12.6607104,20.079578 12.5739571,20.4450474 12.4630706,20.7936592 C12.3111549,21.2712607 12.1254085,21.683256 11.88522,22.0197434 C11.5643523,22.4692569 10.939835,22.5735449 10.4903215,22.2526772 C10.0408081,21.9318095 9.93652005,21.3072922 10.2573878,20.8577787 C10.3574153,20.7176471 10.4630092,20.483434 10.5571632,20.1874273 C10.6397593,19.9277568 10.7077106,19.6414953 10.7604649,19.354117 C10.7920924,19.181827 10.8110757,19.0510337 10.8187977,18.9846463 Z"/>
</svg>
