<svg xmlns="http://www.w3.org/2000/svg" width="24" height="24" viewBox="0 0 24 24">
  <path fill="#000000" d="M9.17070571,13 L5.51983402,13 C5.47391405,13.1954676 5.3688551,13.3790217 5.20653005,13.5216561 C4.79165426,13.8862059 4.15980501,13.8454086 3.79525527,13.4305328 L3.4169478,13 L2,13 C1.44771525,13 1,12.5522847 1,12 C1,11.4477153 1.44771525,11 2,11 L3.43526636,11 L6.01233994,8.09155573 C8.94246568,4.78466239 13.9985687,4.47923191 17.305462,7.40935766 C17.5463786,7.62282565 17.7741921,7.85063916 17.9876601,8.09155573 L20.5647336,11 L22,11 C22.5522847,11 23,11.4477153 23,12 C23,12.5522847 22.5522847,13 22,13 L20.9095711,13 L20.5481855,13.4112748 C20.1836358,13.8261506 19.5517865,13.8669479 19.1369107,13.5023982 C18.9799276,13.3644577 18.8765034,13.1882463 18.8283323,13 L14.8292943,13 C14.4174579,14.1651924 13.3062188,15 12,15 C10.6937812,15 9.58254212,14.1651924 9.17070571,13 Z M14.8292943,11 L17.8925713,11 L16.490745,9.41792123 C16.3306441,9.2372338 16.1597839,9.06637367 15.9790965,8.90627268 C13.4989265,6.70867837 9.70684926,6.93775123 7.50925495,9.41792123 L6.10742875,11 L9.17070571,11 C9.58254212,9.83480763 10.6937812,9 12,9 C13.3062188,9 14.4174579,9.83480763 14.8292943,11 Z M3.99999954,6 C3.99999954,6.55228475 3.55228429,7 2.99999954,7 C2.44771479,7 1.99999954,6.55228475 1.99999954,6 L1.99999954,5.50000004 C1.9999994,3.56644506 3.57035047,1.99999977 5.50623341,1.99999962 L6.01499869,1.99999962 C6.56728344,1.99999962 7.01499869,2.44771487 7.01499869,2.99999962 C7.01499869,3.55228437 6.56728344,3.99999962 6.01499869,3.99999962 L5.50623349,3.99999962 C4.67380665,3.99999968 3.99999948,4.67213095 3.99999954,5.49999997 L3.99999954,6 Z M20.0149987,6 L20.0149987,5.49999997 C20.0149988,4.67213095 19.3411916,3.99999968 18.5087647,3.99999962 L17.9999995,3.99999962 C17.4477148,3.99999962 16.9999995,3.55228437 16.9999995,2.99999962 C16.9999995,2.44771487 17.4477148,1.99999962 17.9999995,1.99999962 L18.5087648,1.99999962 C20.4446478,1.99999977 22.0149988,3.56644506 22.0149987,5.50000004 L22.0149987,6 C22.0149987,6.55228475 21.5672834,7 21.0149987,7 C20.4627139,7 20.0149987,6.55228475 20.0149987,6 Z M3.99999954,17.9999996 L3.99999954,18.4999997 C3.99999948,19.3278687 4.67380665,19.9999999 5.50623349,20 L6.01499869,20 C6.56728344,20 7.01499869,20.4477153 7.01499869,21 C7.01499869,21.5522847 6.56728344,22 6.01499869,22 L5.50623341,22 C3.57035047,21.9999999 1.9999994,20.4335546 1.99999954,18.4999996 L1.99999954,17.9999996 C1.99999954,17.4477149 2.44771479,16.9999996 2.99999954,16.9999996 C3.55228429,16.9999996 3.99999954,17.4477149 3.99999954,17.9999996 Z M20.0149987,17.9999996 C20.0149987,17.4477149 20.4627139,16.9999996 21.0149987,16.9999996 C21.5672834,16.9999996 22.0149987,17.4477149 22.0149987,17.9999996 L22.0149987,18.4999996 C22.0149988,20.4335546 20.4446478,21.9999999 18.5087648,22 L17.9999995,22 C17.4477148,22 16.9999995,21.5522847 16.9999995,21 C16.9999995,20.4477153 17.4477148,20 17.9999995,20 L18.5087647,20 C19.3411916,19.9999999 20.0149988,19.3278687 20.0149987,18.4999997 L20.0149987,17.9999996 Z M17.0655602,14.3447206 C17.43011,13.9298448 18.0619592,13.8890475 18.476835,14.2535972 C18.8917108,14.618147 18.9325081,15.2499962 18.5679584,15.664872 L18.1728521,16.1145227 C18.0718647,16.2294514 17.9679444,16.341194 17.8611953,16.4496756 C17.473827,16.8433306 16.8406826,16.8484271 16.4470275,16.4610588 C16.0533725,16.0736906 16.0482761,15.4405461 16.4356443,15.0468911 C16.5160096,14.9652215 16.5943037,14.881034 16.6704539,14.7943713 L17.0655602,14.3447206 Z M14.273312,16.4521175 C14.7905314,16.2584619 15.3668095,16.5207622 15.5604651,17.0379816 C15.7541208,17.5552011 15.4918204,18.1314792 14.974601,18.3251348 C14.6173793,18.4588846 14.2510825,18.5668373 13.8786191,18.648324 C13.3390952,18.7663598 12.8060378,18.4246761 12.6880021,17.8851523 C12.5699663,17.3456284 12.9116499,16.812571 13.4511738,16.6945353 C13.7306925,16.6333828 14.0054698,16.5524021 14.273312,16.4521175 Z M10.8523486,16.6903034 C11.3914219,16.8103801 11.7310858,17.3447267 11.6110091,17.8838 C11.4909324,18.4228733 10.9565858,18.7625372 10.4175125,18.6424606 C10.0452872,18.5595487 9.67922241,18.4500242 9.32208095,18.3144302 C8.80575674,18.1184002 8.54610697,17.5409231 8.74213697,17.0245989 C8.93816696,16.5082747 9.51564413,16.2486249 10.0319683,16.4446549 C10.2993339,16.5461641 10.5734715,16.6281845 10.8523486,16.6903034 Z M7.90623643,15.0621265 C8.29543236,15.4539746 8.29328232,16.0871359 7.90143417,16.4763319 C7.50958602,16.8655278 6.87642469,16.8633778 6.48722876,16.4715296 C6.37256267,16.3560821 6.26143811,16.2371557 6.15396841,16.1148659 L5.77548242,15.68413 C5.41093266,15.2692542 5.45172996,14.637405 5.86660575,14.2728552 C6.28148153,13.9083055 6.91333078,13.9491028 7.27788054,14.3639785 L7.65632347,14.7946655 C7.73689344,14.886346 7.82023686,14.9755408 7.90623643,15.0621265 Z"/>
</svg>
