<svg xmlns="http://www.w3.org/2000/svg" width="24" height="24" viewBox="0 0 24 24">
  <path fill="#000000" d="M5.71974649,7.23395909 L4.97124647,8.01356067 C4.58874976,8.41195082 3.95571588,8.424835 3.55732573,8.04233829 C3.15893558,7.65984158 3.1460514,7.0268077 3.52854811,6.62841755 L4.30524005,5.81945264 L3,4.51421259 L3,6 C3,6.55228475 2.55228475,7 2,7 C1.44771525,7 1,6.55228475 1,6 L1,2 C1,1.44771525 1.44771525,1 2,1 L6,1 C6.55228475,1 7,1.44771525 7,2 C7,2.55228475 6.55228475,3 6,3 L4.31421453,3 L5.69067003,4.37645549 L6.48629119,3.54777481 C6.8687879,3.14938466 7.50182178,3.13650048 7.90021193,3.51899718 C8.29860208,3.90149389 8.31148626,4.53452777 7.92898955,4.93291792 L7.10517648,5.79096194 L7.91735837,6.60314384 C8.98823182,5.60834189 10.423073,5 12,5 C13.576927,5 15.0117682,5.60834189 16.0826416,6.60314384 L19.6857855,3 L18,3 C17.4477153,3 17,2.55228475 17,2 C17,1.44771525 17.4477153,1 18,1 L22,1 C22.5522847,1 23,1.44771525 23,2 L23,6 C23,6.55228475 22.5522847,7 22,7 C21.4477153,7 21,6.55228475 21,6 L21,4.51421259 L17.4251258,8.08908681 C17.386918,8.1272946 17.3463876,8.16176424 17.3039891,8.19249575 C17.7483145,9.03018248 18,9.98569909 18,11 C18,13.9729963 15.8377133,16.4409635 13,16.9170416 L13,19 L14,19 C14.5522847,19 15,19.4477153 15,20 C15,20.5522847 14.5522847,21 14,21 L13,21 L13,22 C13,22.5522847 12.5522847,23 12,23 C11.4477153,23 11,22.5522847 11,22 L11,21 L10,21 C9.44771525,21 9,20.5522847 9,20 C9,19.4477153 9.44771525,19 10,19 L11,19 L11,16.9170416 C8.16228666,16.4409635 6,13.9729963 6,11 C6,9.98569909 6.25168548,9.03018248 6.69601086,8.19249575 C6.65361237,8.16176424 6.61308201,8.1272946 6.57487422,8.08908681 L5.71974649,7.23395909 Z M12,15 C14.209139,15 16,13.209139 16,11 C16,8.790861 14.209139,7 12,7 C9.790861,7 8,8.790861 8,11 C8,13.209139 9.790861,15 12,15 Z"/>
</svg>
