<svg xmlns="http://www.w3.org/2000/svg" width="24" height="24" viewBox="0 0 24 24">
  <path fill="#000000" d="M20,19 L20,18 L4,18 L4,19 L20,19 Z M20,21 L4,21 L4,22 C4,22.5522847 3.55228475,23 3,23 C2.44771525,23 2,22.5522847 2,22 L2,2 C2,1.44771525 2.44771525,1 3,1 C3.55228475,1 4,1.44771525 4,2 L4,3 L8,3 C9.1045695,3 10,3.8954305 10,5 L10,6 L20,6 L20,5 C20,4.44771525 20.4477153,4 21,4 C21.5522847,4 22,4.44771525 22,5 L22,22 C22,22.5522847 21.5522847,23 21,23 C20.4477153,23 20,22.5522847 20,22 L20,21 Z M20,16 L20,11 L4,11 L4,13 L8,13 C9.1045695,13 10,13.8954305 10,15 L10,16 L20,16 Z M20,9 L20,8 L4,8 L4,9 L20,9 Z M4,15 L4,16 L8,16 L8,15 L4,15 Z M4,5 L4,6 L8,6 L8,5 L4,5 Z"/>
</svg>
