<svg xmlns="http://www.w3.org/2000/svg" width="24" height="24" viewBox="0 0 24 24">
  <path fill="#000000" d="M8.80145731,20 C8.81865733,20.1072373 8.81854417,20.2191263 8.79862313,20.3321041 L8.62497495,21.3169119 C8.52907171,21.8608062 8.01041333,22.2239747 7.46651902,22.1280714 C6.92262472,22.0321682 6.55945621,21.5135098 6.65535945,20.9696155 L6.82632882,20 L5,20 C3.34314575,20 2,18.6568542 2,17 L2,10.5 C2,9.67157288 2.67157288,9 3.5,9 L6,9 L6,4 C6,2.8954305 6.8954305,2 8,2 L16,2 C17.1045695,2 18,2.8954305 18,4 L18,9 L21,9 C21.5522847,9 22,9.44771525 22,10 L22,17 C22,18.6568542 20.6568542,20 19,20 L17.1267318,20 L17.2977012,20.9696155 C17.3936045,21.5135098 17.0304359,22.0321682 16.4865416,22.1280714 C15.9426473,22.2239747 15.4239889,21.8608062 15.3280857,21.3169119 L15.1544375,20.3321041 C15.1345165,20.2191263 15.1344033,20.1072373 15.1516033,20 L8.80145731,20 Z M18,11 L18,15 C18,15.5522847 17.5522847,16 17,16 L7,16 C6.44771525,16 6,15.5522847 6,15 L6,11 L4,11 L4,17 C4,17.5522847 4.44771525,18 5,18 L19,18 C19.5522847,18 20,17.5522847 20,17 L20,11 L18,11 Z M16,4 L8,4 L8,14 L16,14 L16,4 Z"/>
</svg>
