<svg xmlns="http://www.w3.org/2000/svg" width="24" height="24" viewBox="0 0 24 24">
  <path fill="#000000" d="M16,21 L16,21.6559693 C16,22.7605388 15.1045695,23.6559693 14,23.6559693 C13.8053509,23.6559693 13.6117443,23.6275539 13.4253042,23.5716219 L5.42530423,21.1716219 C4.57933631,20.9178315 4,20.1391858 4,19.2559693 L4,2 C4,0.8954305 4.8954305,-2.81996648e-14 6,-2.84217094e-14 L19,-2.84217094e-14 C20.1045695,-2.8643754e-14 21,0.8954305 21,2 L21,19 C21,20.1045695 20.1045695,21 19,21 L16,21 Z M11.9568195,2 L14.5972343,2.82616884 C15.4318385,3.08731111 16,3.86040958 16,4.7349148 L16,19 L19,19 L19,2 L11.9568195,2 Z M6,2.23176623 L6,19.2559693 L14,21.6559693 L14,4.7349148 L6,2.23176623 Z M11.5,14 C10.6715729,14 10,13.3284271 10,12.5 C10,11.6715729 10.6715729,11 11.5,11 C12.3284271,11 13,11.6715729 13,12.5 C13,13.3284271 12.3284271,14 11.5,14 Z"/>
</svg>
