<svg xmlns="http://www.w3.org/2000/svg" width="24" height="24" viewBox="0 0 24 24">
  <path fill="#000000" d="M6.99746356,19.1736482 L7.98227131,19.3472964 L7.63497495,21.3169119 C7.53907171,21.8608062 7.02041333,22.2239747 6.47651902,22.1280714 C5.93262472,22.0321682 5.56945621,21.5135098 5.66535945,20.9696155 L5.83900762,19.9848078 C5.93491087,19.4409134 6.45356925,19.0777449 6.99746356,19.1736482 Z M17.9755971,19.1736482 C18.5194914,19.0777449 19.0381498,19.4409134 19.134053,19.9848078 L19.3077012,20.9696155 C19.4036045,21.5135098 19.0404359,22.0321682 18.4965416,22.1280714 C17.9526473,22.2239747 17.4339889,21.8608062 17.3380857,21.3169119 L16.9907894,19.3472964 L17.9755971,19.1736482 Z M17,8.05050863 L17,7.68613556 C17,6.02928131 15.6568542,4.68613556 14,4.68613556 L10,4.68613556 C8.34314575,4.68613556 7,6.02928131 7,7.68613556 L7,8.05050863 C7.61859351,8.68177718 8,9.54634746 8,10.5 C7.99979241,10.5316813 7.99967916,10.548966 7.99940424,10.5649066 C7.99980032,10.5764819 8,10.5881083 8,10.5997828 L8,13.593526 C9.32953495,13.198377 10.6636534,13 12,13 C13.3363466,13 14.6704651,13.198377 16,13.593526 L16,10.5997828 C16,10.5881083 16.0001997,10.5764819 16.0005958,10.5649066 C16.0003208,10.548966 16.0002076,10.5316813 16,10.5 C16,9.54634746 16.3814065,8.68177718 17,8.05050863 Z M18.958839,7.04158231 C19.1352168,7.01420635 19.3159494,7 19.5,7 C21.4329966,7 23,8.56700338 23,10.5 C23,11.6970424 22.3932576,12.783797 21.4293462,13.4207837 C21.3556661,13.8573566 21.3021072,14.2647344 21.2685207,14.6425823 C21.2123993,15.273948 21.1817179,16.0654469 21.1772594,17.014058 C21.1695309,18.6654097 19.8286635,20 18.1772924,20 L5.82270759,20 C4.17134498,20 2.83048014,18.6654225 2.8227186,17.0140555 C2.81828182,16.0655131 2.78760513,15.2739975 2.73147933,14.6425823 C2.69789285,14.2647344 2.64433393,13.8573566 2.57065383,13.4207837 C1.60674243,12.783797 1,11.6970424 1,10.5 C1,8.56700338 2.56700338,7 4.5,7 C4.68405064,7 4.8647832,7.01420635 5.04116097,7.04158231 C5.35737458,4.58461114 7.45698093,2.68613556 10,2.68613556 L14,2.68613556 C16.5430191,2.68613556 18.6426254,4.58461114 18.958839,7.04158231 Z M10,8 C9.44771525,8 9,7.55228475 9,7 C9,6.44771525 9.44771525,6 10,6 C10.5522847,6 11,6.44771525 11,7 C11,7.55228475 10.5522847,8 10,8 Z M10,12 C9.44771525,12 9,11.5522847 9,11 C9,10.4477153 9.44771525,10 10,10 C10.5522847,10 11,10.4477153 11,11 C11,11.5522847 10.5522847,12 10,12 Z M14,8 C13.4477153,8 13,7.55228475 13,7 C13,6.44771525 13.4477153,6 14,6 C14.5522847,6 15,6.44771525 15,7 C15,7.55228475 14.5522847,8 14,8 Z M14,12 C13.4477153,12 13,11.5522847 13,11 C13,10.4477153 13.4477153,10 14,10 C14.5522847,10 15,10.4477153 15,11 C15,11.5522847 14.5522847,12 14,12 Z M6,10.6638988 C5.99786876,10.6298938 5.99744483,10.5954331 5.99881294,10.5606021 C5.99980024,10.5304511 5.99980024,10.5304511 6,10.5 C6,9.67157288 5.32842712,9 4.5,9 C3.67157288,9 3,9.67157288 3,10.5 C3,11.0954145 3.34971306,11.6267509 3.88304571,11.8679233 C4.17939184,12.0019306 4.39205615,12.271685 4.45319061,12.5911245 C4.58216795,13.2650561 4.67243158,13.8895811 4.72362461,14.4655027 C4.78525092,15.1587986 4.81801702,16.0042251 4.82269662,17.0046781 C4.8252838,17.5551343 5.27224531,18 5.82270759,18 L18.1772924,18 C18.7277531,18 19.1747052,17.5551403 19.1772814,17.004678 C19.181984,16.0041298 19.2147544,15.1587383 19.2763754,14.4655027 C19.3275684,13.8895811 19.4178321,13.2650561 19.5468094,12.5911245 C19.6079439,12.271685 19.8206082,12.0019306 20.1169543,11.8679233 C20.6502869,11.6267509 21,11.0954145 21,10.5 C21,9.67157288 20.3284271,9 19.5,9 C18.6715729,9 18,9.67157288 18,10.5 C18.0001998,10.5304511 18.0001998,10.5304511 18.0011871,10.5606021 C18.0025552,10.5954331 18.0021312,10.6298938 18,10.6638988 L18,15 C18,15.7074646 17.2854737,16.1912224 16.6286093,15.9284767 C15.0778989,15.3081925 13.5369363,15 12,15 C10.4630637,15 8.92210114,15.3081925 7.37139068,15.9284767 C6.71452628,16.1912224 6,15.7074646 6,15 L6,10.6638988 Z"/>
</svg>
