<svg xmlns="http://www.w3.org/2000/svg" width="24" height="24" viewBox="0 0 24 24">
  <path d="M11,4.06189375 L11,4 C11,3.44771525 11.4477153,3 12,3 C12.5522847,3 13,3.44771525 13,4 L13,4.06189375 C13.4357437,4.11623023 13.8606045,4.20561045 14.271673,4.32712512 C16.2558517,2.6362585 18.1291653,2.38652448 19.6213205,3.87867966 C21.0441715,5.30153066 20.8831822,7.07095599 19.3991188,8.95260207 C19.7863778,9.89185039 20,10.9209781 20,12 C20,14.8643292 18.4946702,17.3770697 16.2319705,18.7902619 L17.3485281,20.5216923 C17.3569841,20.534805 17.3651165,20.5481236 17.3729179,20.561636 C17.6358067,21.0169727 17.4797968,21.5992095 17.0244601,21.8620983 L16.9828947,21.8860961 C16.5211467,22.1526864 15.93145,22.0101162 15.6424888,21.5620281 L14.3991637,19.6340208 C13.6417737,19.8718113 12.8358569,20 12,20 C11.1791157,20 10.3871084,19.8763626 9.64158402,19.6466937 L8.40643135,21.5620281 C8.11747015,22.0101162 7.52777339,22.1526864 7.0660254,21.8860961 L7.02446006,21.8620983 C6.56912334,21.5992095 6.41311346,21.0169727 6.67600224,20.561636 C6.68380363,20.5481236 6.69193603,20.534805 6.70039207,20.5216923 L7.80296083,18.8119541 C5.52083571,17.4028771 4,14.8790437 4,12 C4,10.9209781 4.21362219,9.89185024 4.60088126,8.95260186 C3.11681809,7.07095586 2.95582883,5.30153061 4.37867978,3.87867966 C5.87083494,2.38652449 7.74414852,2.6362585 9.72832722,4.32712506 C10.1393956,4.20561042 10.5642563,4.11623022 11,4.06189375 L11,4.06189375 Z M7.67353621,5.26967695 C6.85812598,4.76415508 6.27036441,4.81542216 5.79289334,5.29289322 C5.33714368,5.74864288 5.26970181,6.30487651 5.70412922,7.06365305 C6.25520179,6.36178973 6.92110316,5.75436532 7.67353621,5.26967695 L7.67353621,5.26967695 Z M18.2958709,7.06365323 C18.7302984,6.3048766 18.6628566,5.74864292 18.2071069,5.29289322 C17.7296358,4.81542213 17.1418742,4.76415508 16.3264639,5.26967703 C17.078897,5.75436543 17.7447984,6.36178987 18.2958709,7.06365323 L18.2958709,7.06365323 Z M12,18 C15.3137085,18 18,15.3137085 18,12 C18,8.6862915 15.3137085,6 12,6 C8.6862915,6 6,8.6862915 6,12 C6,15.3137085 8.6862915,18 12,18 Z M22.2939847,15.344532 C22.130335,15.7992281 21.6290667,16.0351677 21.1743706,15.871518 C20.7196745,15.7078682 20.4837349,15.2065999 20.6473846,14.7519039 C20.9621085,13.8774527 21.125,12.9505099 21.125,12 C21.125,11.0806086 20.9726064,10.1831957 20.6776927,9.33382144 C20.5191852,8.87730736 20.7607672,8.37873382 21.2172813,8.22022627 C21.6737954,8.06171872 22.1723689,8.30330074 22.3308764,8.75981482 C22.6896668,9.79315893 22.875,10.884546 22.875,12 C22.875,13.153265 22.6768831,14.2806601 22.2939847,15.344532 Z M1.66745509,8.76462417 C1.82572562,8.30802786 2.32417367,8.06618704 2.78076998,8.22445756 C3.23736629,8.38272809 3.47920711,8.88117615 3.32093658,9.33777245 C3.02691933,10.1859859 2.875,11.0820395 2.875,12 C2.875,12.9482989 3.03713403,13.8731455 3.35043054,14.7458257 C3.51371572,15.2006528 3.27737429,15.7017318 2.82254719,15.865017 C2.36772008,16.0283022 1.86664107,15.7919608 1.70335589,15.3371337 C1.32219454,14.2754175 1.125,13.1505785 1.125,12 C1.125,10.8862846 1.30975568,9.79655495 1.66745509,8.76462417 Z M13,9 L13,11.5751826 L14.0057596,12.5453057 C14.4032627,12.9287242 14.4146804,13.5617863 14.0312619,13.9592893 C13.6478434,14.3567924 13.0147813,14.3682101 12.6172783,13.9847916 L11.3057593,12.7197429 C11.1103698,12.5312765 11,12.2714712 11,12 L11,9 C11,8.44771525 11.4477153,8 12,8 C12.5522847,8 13,8.44771525 13,9 Z"/>
</svg>
