<svg xmlns="http://www.w3.org/2000/svg" width="24" height="24" viewBox="0 0 24 24">
  <path d="M11,17 L7,17 C5.34314575,17 4,15.6568542 4,14 L4,8.68062485 L2.62469505,9.78086881 C2.19343311,10.1258784 1.56414074,10.055957 1.21913119,9.62469505 C0.874121642,9.19343311 0.944043017,8.56414074 1.37530495,8.21913119 L4.28685557,5.8898907 C4.3147442,5.86152338 4.3444637,5.83468195 4.37592328,5.8095551 L11.3759233,0.218636926 C11.7409101,-0.0728789754 12.2590899,-0.0728789754 12.6240767,0.218636926 L19.6240767,5.8095551 C19.6555363,5.83468195 19.6852558,5.86152338 19.7131444,5.8898907 L22.624695,8.21913119 C23.055957,8.56414074 23.1258784,9.19343311 22.7808688,9.62469505 C22.4358593,10.055957 21.8065669,10.1258784 21.375305,9.78086881 L20,8.68062485 L20,14 C20,15.6568542 18.6568542,17 17,17 L13,17 L13,18.1707057 C14.1651924,18.5825421 15,19.6937812 15,21 C15,22.6568542 13.6568542,24 12,24 C10.3431458,24 9,22.6568542 9,21 C9,19.6937812 9.83480763,18.5825421 11,18.1707057 L11,17 Z M17,15 C17.5522847,15 18,14.5522847 18,14 L18,7.07203035 L12,2.27981477 L6,7.07203035 L6,14 C6,14.5522847 6.44771525,15 7,15 L7.99963381,15 C7.37194482,14.1643395 7,13.1256059 7,12 C7,9.23857625 9.23857625,7 12,7 C14.7614237,7 17,9.23857625 17,12 C17,13.1256059 16.6280552,14.1643395 16.0003662,15 L17,15 Z M12,15 C13.6568542,15 15,13.6568542 15,12 C15,10.3431458 13.6568542,9 12,9 C10.3431458,9 9,10.3431458 9,12 C9,13.6568542 10.3431458,15 12,15 Z M12,22 C12.5522847,22 13,21.5522847 13,21 C13,20.4477153 12.5522847,20 12,20 C11.4477153,20 11,20.4477153 11,21 C11,21.5522847 11.4477153,22 12,22 Z M12.75,10.668201 L12.75,11.6893398 L13.3823263,12.3216661 C13.6752195,12.6145593 13.6752195,13.0894331 13.3823263,13.3823263 C13.0894331,13.6752195 12.6145593,13.6752195 12.3216661,13.3823263 L11.4696699,12.5303301 C11.3290176,12.3896778 11.25,12.1989124 11.25,12 L11.25,10.668201 C11.25,10.2539874 11.5857864,9.91820095 12,9.91820095 C12.4142136,9.91820095 12.75,10.2539874 12.75,10.668201 Z"/>
</svg>
