<svg xmlns="http://www.w3.org/2000/svg" width="24" height="24" viewBox="0 0 24 24">
  <path d="M18,4 L20,4 C21.6568542,4 23,5.34314575 23,7 L23,19 C23,20.6568542 21.6568542,22 20,22 L5,22 C3.34314575,22 2,20.6568542 2,19 L2,7 C2,5.34314575 3.34314575,4 5,4 L7,4 L7,3 C7,2.44771525 7.44771525,2 8,2 C8.55228475,2 9,2.44771525 9,3 L9,4 L16,4 L16,3 C16,2.44771525 16.4477153,2 17,2 C17.5522847,2 18,2.44771525 18,3 L18,4 Z M5,6 C4.44771525,6 4,6.44771525 4,7 L4,19 C4,19.5522847 4.44771525,20 5,20 L20,20 C20.5522847,20 21,19.5522847 21,19 L21,7 C21,6.44771525 20.5522847,6 20,6 L5,6 Z M6.5,9 L8.5,9 C8.77614237,9 9,9.22385763 9,9.5 L9,11.5 C9,11.7761424 8.77614237,12 8.5,12 L6.5,12 C6.22385763,12 6,11.7761424 6,11.5 L6,9.5 C6,9.22385763 6.22385763,9 6.5,9 Z M11.5,9 L13.5,9 C13.7761424,9 14,9.22385763 14,9.5 L14,11.5 C14,11.7761424 13.7761424,12 13.5,12 L11.5,12 C11.2238576,12 11,11.7761424 11,11.5 L11,9.5 C11,9.22385763 11.2238576,9 11.5,9 Z M16.5,9 L18.5,9 C18.7761424,9 19,9.22385763 19,9.5 L19,11.5 C19,11.7761424 18.7761424,12 18.5,12 L16.5,12 C16.2238576,12 16,11.7761424 16,11.5 L16,9.5 C16,9.22385763 16.2238576,9 16.5,9 Z M6.5,14 L8.5,14 C8.77614237,14 9,14.2238576 9,14.5 L9,16.5 C9,16.7761424 8.77614237,17 8.5,17 L6.5,17 C6.22385763,17 6,16.7761424 6,16.5 L6,14.5 C6,14.2238576 6.22385763,14 6.5,14 Z M11.5,14 L13.5,14 C13.7761424,14 14,14.2238576 14,14.5 L14,16.5 C14,16.7761424 13.7761424,17 13.5,17 L11.5,17 C11.2238576,17 11,16.7761424 11,16.5 L11,14.5 C11,14.2238576 11.2238576,14 11.5,14 Z M16.5,14 L18.5,14 C18.7761424,14 19,14.2238576 19,14.5 L19,16.5 C19,16.7761424 18.7761424,17 18.5,17 L16.5,17 C16.2238576,17 16,16.7761424 16,16.5 L16,14.5 C16,14.2238576 16.2238576,14 16.5,14 Z"/>
</svg>
