<svg xmlns="http://www.w3.org/2000/svg" width="24" height="24" viewBox="0 0 24 24">
  <path d="M15.4265682,4.48245588 C18.2186135,5.50327258 19.3360117,7.86033683 19.2110634,11.0778191 C19.1713732,12.0998593 19.0464268,12.9439183 18.7659642,14.4190685 C18.6912311,14.8121424 18.6717185,14.9162143 18.6432499,15.0776676 C18.374857,16.5997997 18.6914062,18.1148991 19.61772,19.6616654 C20.0580015,20.3968509 19.4300727,21.3090627 18.586152,21.1602567 L13.6271941,20.2858586 C13.0936998,21.9140546 11.4307743,22.9447531 9.69435856,22.6385762 C7.95794281,22.3323992 6.74782358,20.7951054 6.80337876,19.0826359 L3.81403569,18.555534 C2.97011495,18.406728 2.69204976,17.334765 3.35722722,16.7945018 C4.75670273,15.6578349 5.57235618,14.3423734 5.84074914,12.8202413 C5.86921768,12.6587882 5.88647651,12.5543191 5.95068946,12.1593909 C6.19167202,10.6772788 6.3629461,9.84138833 6.67520815,8.86740948 C7.65823914,5.80123025 9.51441362,3.96848704 12.4872178,3.964169 C12.4893165,3.92317828 12.4939595,3.88186484 12.5012701,3.84040476 C12.5971733,3.29651046 13.1158317,2.93334194 13.659726,3.02924518 L14.6445337,3.20289336 C15.188428,3.2987966 15.5515966,3.81745499 15.4556933,4.36134929 C15.4483828,4.4028094 15.4386157,4.44321936 15.4265682,4.48245588 L15.4265682,4.48245588 Z M8.82216432,19.4386022 C8.92382272,20.0480602 9.39850295,20.5555556 10.0416549,20.6689606 C10.6848069,20.7823657 11.304434,20.4678262 11.6084086,19.9298923 L8.82216432,19.4386022 Z M16.6736344,14.7303713 C16.7043097,14.5564033 16.7244433,14.4490189 16.8011603,14.0455105 C17.0638133,12.6640339 17.1778809,11.8934651 17.2125697,11.0002092 C17.3222284,8.17644514 16.3617996,6.55207078 13.6311683,6.0705868 C10.9005376,5.58910293 9.44246096,6.78702964 8.57972194,9.47800526 C8.30680711,10.3292559 8.15044546,11.0923673 7.92476553,12.4803639 C7.858848,12.8857757 7.84103985,12.9935699 7.81036465,13.1675377 C7.56599998,14.5533986 6.97991887,15.8077223 6.06404466,16.9214181 L17.0307357,18.8551416 C16.5510019,17.4953625 16.4292698,16.1162322 16.6736344,14.7303713 Z M17.4503699,4.67521473 C17.0369834,4.42493211 16.9047616,3.88692203 17.1550442,3.47353558 C17.4053269,3.06014913 17.9433369,2.92792734 18.3567234,3.17820996 C21.4725188,5.06465166 22.3412228,8.25526158 21.8390482,12.5786563 C21.7832923,13.0586782 21.3489586,13.4026137 20.8689367,13.3468578 C20.3889148,13.2911019 20.0449792,12.8567682 20.1007351,12.3767463 C20.5325202,8.65935961 19.8420079,6.12321921 17.4503699,4.67521473 Z M5.40441227,9.74400969 C5.29173864,10.2139399 4.81944491,10.5035536 4.34951471,10.3908799 C3.8795845,10.2782063 3.58997082,9.80591259 3.70264445,9.33598238 C4.71689583,5.10582347 6.64077415,2.41198485 10.2328065,1.72611212 C10.70748,1.63547662 11.1657535,1.94680095 11.256389,2.42147448 C11.3470245,2.896148 11.0357002,3.35442151 10.5610266,3.445057 C7.8026115,3.97175653 6.27582813,6.1095778 5.40441227,9.74400969 Z"/>
</svg>
