<svg xmlns="http://www.w3.org/2000/svg" width="24" height="24" viewBox="0 0 24 24">
  <path fill="#000000" d="M18.0009112,7 L21.0438902,7 C21.596175,7 22.0438902,7.44771525 22.0438902,8 L22.0438902,10.8795178 C22.0438902,10.9595499 22.0534978,11.0392926 22.0725067,11.1170344 L23.942767,18.7659312 C23.9807849,18.9214148 24,19.0809002 24,19.2409644 L24,22 C24,22.5522847 23.5522847,23 23,23 L2,23 C1.44771525,23 1,22.5522847 1,22 L1,19.198039 C1,19.0663351 1.01300937,18.9349531 1.03883865,18.8058068 L2.98058068,9.09709662 C2.99349531,9.03252344 3,8.96683247 3,8.90098049 L3,3 C3,2.44771525 3.44771525,2 4,2 L17.0009112,2 C17.5531959,2 18.0009112,2.44771525 18.0009112,3 L18.0009112,7 Z M5,6 L16.0009112,6 L16.0009112,4 L5,4 L5,6 Z M5,8 L5,9 C5,9.14913694 4.98331879,9.29780598 4.95026748,9.44323444 L3,19.125054 L3,21 L18,21 L18,19.1251384 L16.0506437,9.44323444 C16.0175924,9.29780598 16.0009112,9.14913694 16.0009112,9 L16.0009112,8 L5,8 Z M7.56883841,13.3190995 C8.38210852,12.5619828 9.09944703,12.265289 10.3219197,12.0072387 C10.4951916,11.9709703 10.5839682,11.9523618 10.6592839,11.9360898 C11.435903,11.768301 11.8246461,11.5993328 12.2151186,11.1993769 C12.5599965,10.786407 13.1233478,10.8763639 13.4061249,11.2273089 C13.4887006,11.3297908 13.5368353,11.4314948 13.580952,11.5578802 C13.6341424,11.7102596 13.681988,11.9145651 13.7230265,12.1557974 C13.8121458,12.6796579 13.8621673,13.3297384 13.852681,13.9838914 C13.8259923,15.8242817 13.3700195,17.4000431 12.3241747,18.3753092 C12.25595,18.438351 12.1895158,18.4967032 12.1222957,18.5527246 C10.9683287,19.5152718 9.36690286,19.6039699 8.13536292,18.876143 C9.56978591,17.9798295 10.6002113,16.8706824 11.2083053,15.5512971 C11.3816844,15.1751155 11.2172805,14.7296086 10.8410989,14.5562295 C10.4649173,14.3828505 10.0194104,14.5472544 9.84603135,14.9234359 C9.34685207,16.0065082 8.29093988,17.0339571 7.01261224,17.8003146 C6.07444507,16.3988504 6.28268621,14.4861411 7.56883841,13.3190995 Z M22,21 L22,19.1991591 L20.1200169,11.5465449 C20.0695096,11.3687559 20.0438902,11.184824 20.0438902,11 L20.0438902,9 L17.9816913,9 L20.0012238,18.8954518 C20.0154081,18.9649533 20.0221572,19.0357668 20.0213571,19.1066965 L20,21 L22,21 Z"/>
</svg>
