<svg xmlns="http://www.w3.org/2000/svg" width="24" height="24" viewBox="0 0 24 24">
  <path fill="#000000" d="M19.9409016,20.2311698 C19.8201391,21.7937024 18.5170138,23 16.9498215,23 L7.05020153,23 C5.48300922,23 4.17988386,21.7937024 4.05912137,20.2311698 L3.01658644,6.74192476 C2.40965005,6.39853788 2,5.74710839 2,5 L2,4 C2,2.8954305 2.8954305,2 4,2 L20,2 C21.1045695,2 22,2.8954305 22,4 L22,5 C22,5.74709853 21.5903608,6.39852069 20.9834376,6.74191116 L19.9409016,20.2311698 Z M18.9575265,7 L5.04249644,7 L6.05317481,20.0770566 C6.09342897,20.5979008 6.52780409,21 7.05020153,21 L16.9498215,21 C17.4722189,21 17.906594,20.5979008 17.9468482,20.0770566 L18.9575265,7 Z M12,17.25 C13.7949254,17.25 15.25,15.7949254 15.25,14 C15.25,13.9463449 15.2487147,13.8929155 15.2461549,13.8397326 L15.2507606,13.8381828 C15.2700564,13.3720092 15.6540845,13 16.125,13 C16.6082492,13 17,13.3917508 17,13.875 C17,13.8873418 16.9997445,13.899624 16.9992384,13.9118414 C16.9997455,13.9411668 17,13.9705537 17,14 C17,16.7614237 14.7614237,19 12,19 C11.2601313,19 10.5577959,18.8393003 9.92599404,18.5509008 L10.0531874,19.025593 C10.1782615,19.4923759 9.90125185,19.9721707 9.43446901,20.0972448 C8.96768617,20.2223189 8.48789133,19.9453092 8.36281724,19.4785264 L7.5719939,16.5271335 C7.44691982,16.0603506 7.7239295,15.5805558 8.19071234,15.4554817 L11.069317,14.6841619 C11.5360999,14.5590878 12.0158947,14.8360975 12.1409688,15.3028803 C12.2660429,15.7696632 11.9890332,16.249458 11.5222504,16.3745321 L10.2236268,16.7224972 C10.7401419,17.0596977 11.353068,17.25 12,17.25 Z M12,10.75 C10.2334172,10.75 8.79603722,12.1594849 8.75108402,13.9152307 C8.72769285,14.3801672 8.34453597,14.75 7.875,14.75 C7.41508394,14.75 7.03804374,14.3951663 7.0027061,13.9443256 C7.00042554,13.9332243 7.00057678,13.9225288 7.00076156,13.9118414 C7.00025552,13.899624 7,13.8873418 7,13.875 C7,13.8448025 7.00152971,13.8149623 7.00451587,13.7855527 C7.11684004,11.1236055 9.3104227,9 12,9 C12.7350504,9 13.4330546,9.15861345 14.0616533,9.44348091 L13.8505986,8.65581416 C13.7255245,8.18903132 14.0025342,7.70923649 14.469317,7.5841624 C14.9360999,7.45908832 15.4158947,7.73609799 15.5409688,8.20288084 L16.3317921,11.1542737 C16.4568662,11.6210566 16.1798565,12.1008514 15.7130737,12.2259255 L12.834469,12.9972453 C12.3676862,13.1223194 11.8878913,12.8453097 11.7628172,12.3785269 C11.6377432,11.911744 11.9147528,11.4319492 12.3815357,11.3068751 L13.3557075,11.0458465 C12.9421428,10.855753 12.4826131,10.75 12,10.75 Z M4,5 L20,5 L20,4 L4,4 L4,5 Z"/>
</svg>
