<svg xmlns="http://www.w3.org/2000/svg" width="24" height="24" viewBox="0 0 24 24">
  <path fill="#000000" fill-rule="evenodd" d="M17.4781004,5.02261865 L18.2874057,4.06048948 C18.6429184,3.63784406 19.2737402,3.58342226 19.6963856,3.93893498 C20.119031,4.2944477 20.1734528,4.92526951 19.8179401,5.34791493 L16.2044838,9.64371272 C16.0144789,9.86959693 15.7343869,10 15.4392166,10 L9.84714092,10 C9.29485617,10 8.84714092,9.55228475 8.84714092,9 C8.84714092,8.44771525 9.29485617,8 9.84714092,8 L10.763608,8 L9.59258874,6.20037416 L9.03115911,7.04581846 C8.73476705,7.49214861 8.13926847,7.62557905 7.6807622,7.34839525 L5.66593022,6.13035568 C5.21407444,5.85719235 5.05245299,5.2798011 5.2968306,4.81175042 L7.00264471,1.54464478 C7.19209243,1.18180003 7.57295925,0.983696687 7.95675245,1.00951368 C7.989121,1.00645193 8.02209934,1.00487972 8.05564264,1.00487972 L14.4569072,1.00487972 C14.8049022,1.00487972 15.1278732,1.18579167 15.3096448,1.48254004 L17.4781004,5.02261865 Z M13.1728251,8 L14.9736442,8 L16.1275965,6.62814292 L13.8967579,3.00487972 L9.89941267,3.00487972 L13.1728251,8 Z M15.5087487,22 L15.838339,22.6139725 C16.031128,23.1315156 15.7678628,23.7073535 15.2503197,23.9001425 C14.7327767,24.0929316 14.1569387,23.8296664 13.9641497,23.3121233 L12.1124985,18.7169283 C12.0094618,18.4403257 12.0338886,18.1323325 12.1792374,17.8754293 L14.9940841,13.0185447 C15.2660421,12.5378606 15.8761791,12.3686546 16.3568633,12.6406126 C16.8375475,12.9125706 17.0067535,13.5227077 16.7347955,14.0033919 L16.1709417,15 L18.5341588,15 L18.0146999,13.7710627 C17.8056951,13.2765986 18.0243891,12.7053256 18.5101551,12.4768328 L20.6237883,11.4826299 C21.097796,11.2596679 21.6635338,11.4402792 21.9206632,11.8966561 L23.8876877,15.3879123 C24.0070147,15.5997048 24.0408248,15.8364249 24.0002487,16.0582138 C23.9902492,16.237334 23.9306389,16.418603 23.8120012,16.5836558 L20.218067,21.5836558 C20.0301872,21.8450404 19.7279676,22 19.4060658,22 L15.5087487,22 Z M15.0393961,17 L14.2103845,18.4652732 L14.7741153,20 L18.8933274,20 L21.0496879,17 L15.0393961,17 Z M2.21768863,11.2642108 L0.827255556,10.941434 C0.289276332,10.8165468 -0.0456009598,10.2791875 0.0792861891,9.74120825 C0.204173338,9.20322902 0.741532705,8.86835173 1.27951193,8.99323888 L6.74757064,10.2626007 C7.03509536,10.329347 7.27844443,10.519709 7.41244897,10.7827077 L9.87688664,15.619439 C10.1276187,16.1115283 9.93195993,16.713704 9.43987062,16.964436 C8.9477813,17.215168 8.34560562,17.0195093 8.09487359,16.52742 L7.75485668,15.8600992 L6.56975904,18 L7.92581797,18 C8.47810272,18 8.92581797,18.4477153 8.92581797,19 C8.92581797,19.0575266 8.92085403,19.1149459 8.91098138,19.171619 L8.56257425,21.171619 C8.47915516,21.6504788 8.06348232,22 7.57741085,22 L3.91719929,22 C3.89175979,22 3.86654216,21.9990501 3.84157994,21.9971837 C3.46314402,22.0253464 3.07129932,21.8425009 2.87340848,21.4524107 L0.168117164,16.1196351 C0.0224091737,15.8324098 0.0239582038,15.4925872 0.172278631,15.2067022 L2.21768863,11.2642108 Z M6.55396928,13.7277471 L5.72740164,12.1055167 L4.1258391,11.7337281 L2.06944158,15.6723475 L3.68955175,18.8659718 L6.55396928,13.7277471 Z"/>
</svg>
