<svg xmlns="http://www.w3.org/2000/svg" width="24" height="24" viewBox="0 0 24 24">
  <path fill="#000000" d="M13.9132146,22 L18,22 C18.5522847,22 19,22.4477153 19,23 C19,23.5522847 18.5522847,24 18,24 L4,24 C3.44771525,24 3,23.5522847 3,23 C3,22.4477153 3.44771525,22 4,22 L8.08678536,22 L8.65195576,15.7831256 L3.80523942,17.643019 C2.73362655,18.0542429 1.52249731,17.6182283 0.958901984,16.6183185 C0.399695582,15.6261954 0.625131144,14.3766055 1.49577355,13.642438 L5.67099765,10.1216886 C5.84080874,9.97849572 6.02225232,9.84969643 6.21344649,9.73662657 L7.77083251,8.81560786 L7.77083251,8.09256924 C7.77083251,7.87738978 7.78819579,7.66256116 7.82275331,7.45017477 L8.71939584,1.93951761 C8.90133421,0.821346296 9.86712373,3.91467202e-16 11,0 C12.1328763,-1.95733601e-16 13.0986658,0.821346296 13.2806042,1.93951761 L14.1772467,7.45017477 C14.2118042,7.66256116 14.2291675,7.87738978 14.2291675,8.09256924 L14.2291675,8.81560786 L15.7865535,9.73662657 C15.9777477,9.84969643 16.1591913,9.97849572 16.3290024,10.1216886 L20.5042265,13.642438 C21.3748689,14.3766055 21.6003044,15.6261954 21.041098,16.6183185 C20.4775027,17.6182283 19.2663735,18.0542429 18.1947606,17.643019 L13.3480442,15.7831256 L13.9132146,22 Z M13.1073259,13.1352237 L13.1352017,13.4418577 L13.5558898,13.6906475 C13.6521484,13.7475736 13.753012,13.7963259 13.85742,13.8363917 L18.9112995,15.7757825 C19.0571892,15.8317667 19.2220728,15.7724075 19.2988009,15.6362794 C19.3861579,15.4812939 19.3509413,15.2860879 19.214933,15.1713992 L15.0397089,11.6506498 C14.9548033,11.5790533 14.8640815,11.5146537 14.7684844,11.4581188 L13.9999978,11.0036453 C13.9990059,11.8377203 13.6576356,12.5920594 13.1073259,13.1352237 Z M8.89267412,13.1352237 C8.34236442,12.5920594 8.00099406,11.8377203 8.00000217,11.0036453 L7.23151555,11.4581188 C7.13591846,11.5146537 7.04519668,11.5790533 6.96029113,11.6506498 L2.78506703,15.1713992 C2.64905874,15.2860879 2.61384209,15.4812939 2.70119909,15.6362794 C2.77792717,15.7724075 2.94281075,15.8317667 3.08870053,15.7757825 L8.14258001,13.8363917 C8.246988,13.7963259 8.34785159,13.7475736 8.44411017,13.6906475 L8.86479829,13.4418577 L8.89267412,13.1352237 Z M9.77083251,8.26255622 C10.1459561,8.09385739 10.5620173,8 11,8 C11.4379827,8 11.8540439,8.09385739 12.2291675,8.26255622 L12.2291675,8.09256924 C12.2291675,7.98497951 12.2204859,7.8775652 12.2032071,7.771372 L11.3065646,2.26071484 C11.2821079,2.11040744 11.1522841,2 11,2 C10.8477159,2 10.7178921,2.11040744 10.6934354,2.26071484 L9.79679291,7.771372 C9.77951415,7.8775652 9.77083251,7.98497951 9.77083251,8.09256924 L9.77083251,8.26255622 Z M11.9049672,22 L11.2360863,14.6423101 L11,14.5026916 L10.7639137,14.6423101 L10.0950328,22 L11.9049672,22 Z M11,12 C11.5522847,12 12,11.5522847 12,11 C12,10.4477153 11.5522847,10 11,10 C10.4477153,10 10,10.4477153 10,11 C10,11.5522847 10.4477153,12 11,12 Z"/>
</svg>
