<svg xmlns="http://www.w3.org/2000/svg" width="24" height="24" viewBox="0 0 24 24">
  <path d="M12,20 C8.09149116,20 4.59690768,17.663334 1.53670952,13.1167665 C1.08229948,12.4416448 1.08228246,11.5585064 1.53667883,10.8832791 C4.59688447,6.33668152 8.09147804,4 12,4 C15.9085088,4 19.4030923,6.336666 22.4632905,10.8832335 C22.9177005,11.5583552 22.9177175,12.4414936 22.4633212,13.1167209 C19.4031155,17.6633185 15.908522,20 12,20 Z M12,18 C15.1554912,18 18.0833863,16.0422449 20.8040978,12.0000393 C18.0833657,7.95774132 15.1554802,6 12,6 C8.84450884,6 5.9166137,7.95775512 3.19590224,11.9999607 C5.91663435,16.0422587 8.84451983,18 12,18 Z M12,16 C9.790861,16 8,14.209139 8,12 C8,9.790861 9.790861,8 12,8 C14.209139,8 16,9.790861 16,12 C16,14.209139 14.209139,16 12,16 Z M12,14 C13.1045695,14 14,13.1045695 14,12 C14,10.8954305 13.1045695,10 12,10 C10.8954305,10 10,10.8954305 10,12 C10,13.1045695 10.8954305,14 12,14 Z"/>
</svg>
