<svg xmlns="http://www.w3.org/2000/svg" width="24" height="24" viewBox="0 0 24 24">
  <path d="M20,18 C20.5522847,18 21,18.4477153 21,19 C21,19.5522847 20.5522847,20 20,20 L10,20 C9.44771525,20 9,19.5522847 9,19 C9,18.4477153 9.44771525,18 10,18 L20,18 Z M20,11 C20.5522847,11 21,11.4477153 21,12 C21,12.5522847 20.5522847,13 20,13 L10,13 C9.44771525,13 9,12.5522847 9,12 C9,11.4477153 9.44771525,11 10,11 L20,11 Z M20,4 C20.5522847,4 21,4.44771525 21,5 C21,5.55228475 20.5522847,6 20,6 L10,6 C9.44771525,6 9,5.55228475 9,5 C9,4.44771525 9.44771525,4 10,4 L20,4 Z M3,4 C3,3.44771525 3.44771525,3 4,3 L6,3 C6.55228475,3 7,3.44771525 7,4 L7,6 C7,6.55228475 6.55228475,7 6,7 L4,7 C3.44771525,7 3,6.55228475 3,6 L3,4 Z M3,11 C3,10.4477153 3.44771525,10 4,10 L6,10 C6.55228475,10 7,10.4477153 7,11 L7,13 C7,13.5522847 6.55228475,14 6,14 L4,14 C3.44771525,14 3,13.5522847 3,13 L3,11 Z M3,18 C3,17.4477153 3.44771525,17 4,17 L6,17 C6.55228475,17 7,17.4477153 7,18 L7,20 C7,20.5522847 6.55228475,21 6,21 L4,21 C3.44771525,21 3,20.5522847 3,20 L3,18 Z"/>
</svg>
