<?xml version="1.0" encoding="UTF-8"?>
<svg width="24px" height="24px" viewBox="0 0 24 24" version="1.1" xmlns="http://www.w3.org/2000/svg" xmlns:xlink="http://www.w3.org/1999/xlink">
    <!-- Generator: Sketch 52.3 (67297) - http://www.bohemiancoding.com/sketch -->
    <title>jollycons-[category]/icons/svg/icon-ui-1-sync</title>
    <desc>Created with Sketch.</desc>
    <g id="icons" stroke="none" stroke-width="1" fill="none" fill-rule="evenodd">
        <g id="icons---export" transform="translate(-316.000000, -138.000000)">
            <g id="row-2" transform="translate(60.000000, 138.000000)" fill="#000000" fill-rule="nonzero">
                <g id="icon---10" transform="translate(256.000000, 0.000000)">
                    <path d="M3.48412471,14 C3.50280685,13.9994736 3.52144541,13.9994768 3.54002054,14 L9,14 C9.55228475,14 10,14.4477153 10,15 C10,15.5522847 9.55228475,16 9,16 L5.06909032,16 C6.47130991,18.4279293 9.08629878,20 12,20 C15.4168197,20 18.4229335,17.838146 19.5441657,14.6692346 C19.7283852,14.1485796 20.2997989,13.8758447 20.8204539,14.0600642 C21.3411089,14.2442837 21.6138438,14.8156973 21.4296243,15.3363523 C20.0278776,19.2980747 16.2707808,22 12,22 C8.77684725,22 5.84632683,20.4610669 4,18.0031963 L4,21 C4,21.5522847 3.55228475,22 3,22 C2.44771525,22 2,21.5522847 2,21 L2,15 C2,14.4477153 2.44771525,14 3,14 L3.48412472,14 Z M20.5391588,10 C20.5050583,10.001752 20.4710756,10.0017329 20.4373307,10 L15,10 C14.4477153,10 14,9.55228475 14,9 C14,8.44771525 14.4477153,8 15,8 L18.9309104,8 C17.5286991,5.57208573 14.9137154,4 12,4 C8.58219579,4 5.57540562,6.16309901 4.45492915,9.33332491 C4.27088791,9.85404295 3.69956764,10.1269734 3.17884961,9.94293217 C2.65813158,9.75889093 2.38520111,9.18757066 2.56924235,8.66685263 C3.97004661,4.70347986 7.72798679,2 12,2 C15.2231662,2 18.1536809,3.538945 20,5.99680315 L20,3 C20,2.44771525 20.4477153,2 21,2 C21.5522847,2 22,2.44771525 22,3 L22,9 C22,9.55228475 21.5522847,10 21,10 L20.5391588,10 Z" id="sync"></path>
                </g>
            </g>
            <g id="slices" transform="translate(60.000000, 58.000000)"></g>
        </g>
    </g>
</svg>