<svg xmlns="http://www.w3.org/2000/svg" width="24" height="24" viewBox="0 0 24 24">
  <path d="M5,4 L14.6201952,4 C15.7878948,4 16.8972928,4.51025091 17.6572216,5.39683451 L21.0857931,9.39683451 C22.3697579,10.8947934 22.3697579,13.1052066 21.0857931,14.6031655 L17.6572216,18.6031655 C16.8972928,19.4897491 15.7878948,20 14.6201952,20 L5,20 C2.790861,20 1,18.209139 1,16 L1,8 C1,5.790861 2.790861,4 5,4 Z M5,6 C3.8954305,6 3,6.8954305 3,8 L3,16 C3,17.1045695 3.8954305,18 5,18 L14.6201952,18 C15.204045,18 15.758744,17.7448745 16.1387084,17.3015827 L19.5672799,13.3015827 C20.2092623,12.5526033 20.2092623,11.4473967 19.5672799,10.6984173 L16.1387084,6.69841725 C15.758744,6.25512546 15.204045,6 14.6201952,6 L5,6 Z"/>
</svg>
