<svg xmlns="http://www.w3.org/2000/svg" width="24" height="24" viewBox="0 0 24 24">
  <path d="M8,6 L8,4 C8,2.8954305 8.8954305,2 10,2 L14,2 C15.1045695,2 16,2.8954305 16,4 L16,6 L21,6 C21.5522847,6 22,6.44771525 22,7 C22,7.55228475 21.5522847,8 21,8 L19,8 L19,20 C19,21.1045695 18.1045695,22 17,22 L7,22 C5.8954305,22 5,21.1045695 5,20 L5,8 L3,8 C2.44771525,8 2,7.55228475 2,7 C2,6.44771525 2.44771525,6 3,6 L8,6 Z M10,6 L14,6 L14,4 L10,4 L10,6 Z M7,8 L7,20 L17,20 L17,8 L7,8 Z M9,11 C9,10.4477153 9.44771525,10 10,10 C10.5522847,10 11,10.4477153 11,11 L11,17 C11,17.5522847 10.5522847,18 10,18 C9.44771525,18 9,17.5522847 9,17 L9,11 Z M13,11 C13,10.4477153 13.4477153,10 14,10 C14.5522847,10 15,10.4477153 15,11 L15,17 C15,17.5522847 14.5522847,18 14,18 C13.4477153,18 13,17.5522847 13,17 L13,11 Z"/>
</svg>
