<svg xmlns="http://www.w3.org/2000/svg" width="24" height="24" viewBox="0 0 24 24">
  <path d="M12,15 C12,15.5522847 11.5522847,16 11,16 C10.4477153,16 10,15.5522847 10,15 L10,12 L7,12 C6.44771525,12 6,11.5522847 6,11 C6,10.4477153 6.44771525,10 7,10 L10,10 L10,7 C10,6.44771525 10.4477153,6 11,6 C11.5522847,6 12,6.44771525 12,7 L12,10 L15,10 C15.5522847,10 16,10.4477153 16,11 C16,11.5522847 15.5522847,12 15,12 L12,12 L12,15 Z M21.7071068,20.2928932 C22.0976311,20.6834175 22.0976311,21.3165825 21.7071068,21.7071068 C21.3165825,22.0976311 20.6834175,22.0976311 20.2928932,21.7071068 L16.6176858,18.0318994 C15.078015,19.2635271 13.1250137,20 11,20 C6.02943725,20 2,15.9705627 2,11 C2,6.02943725 6.02943725,2 11,2 C15.9705627,2 20,6.02943725 20,11 C20,13.1250137 19.2635271,15.078015 18.0318994,16.6176858 L21.7071068,20.2928932 Z M11,18 C14.8659932,18 18,14.8659932 18,11 C18,7.13400675 14.8659932,4 11,4 C7.13400675,4 4,7.13400675 4,11 C4,14.8659932 7.13400675,18 11,18 Z"/>
</svg>
