<svg xmlns="http://www.w3.org/2000/svg" width="24" height="24" viewBox="0 0 24 24">
  <path d="M7,22 C7,22.5522847 6.55228475,23 6,23 C5.44771525,23 5,22.5522847 5,22 L5,8 C5,6.34314575 6.34314575,5 8,5 L15,5 C15.5522847,5 16,5.44771525 16,6 C16,6.55228475 15.5522847,7 15,7 L8,7 C7.44771525,7 7,7.44771525 7,8 L7,22 Z M21,7 C20.4477153,7 20,6.55228475 20,6 C20,5.44771525 20.4477153,5 21,5 L22,5 C22.5522847,5 23,5.44771525 23,6 C23,6.55228475 22.5522847,7 22,7 L21,7 Z M17,2 C17,1.44771525 17.4477153,1 18,1 C18.5522847,1 19,1.44771525 19,2 L19,16 C19,17.6568542 17.6568542,19 16,19 L9,19 C8.44771525,19 8,18.5522847 8,18 C8,17.4477153 8.44771525,17 9,17 L16,17 C16.5522847,17 17,16.5522847 17,16 L17,2 Z M3,17 C3.55228475,17 4,17.4477153 4,18 C4,18.5522847 3.55228475,19 3,19 L2,19 C1.44771525,19 1,18.5522847 1,18 C1,17.4477153 1.44771525,17 2,17 L3,17 Z"/>
</svg>
