<svg xmlns="http://www.w3.org/2000/svg" width="24" height="24" viewBox="0 0 24 24">
  <path fill-rule="evenodd" d="M18.96025,8.414 C19.23025,8.851 19.16625,9.424 18.79725,9.793 C18.35825,10.231 17.64825,10.231 17.21125,9.793 L14.21125,6.793 C13.77325,6.355 13.77325,5.645 14.21125,5.207 C14.58025,4.838 15.15225,4.775 15.59025,5.044 C16.15625,5.392 16.89825,5.101 17.07725,4.461 C17.31625,3.604 18.10125,3 19.00425,3 C20.10825,3 21.00425,3.896 21.00425,5 C21.00425,5.904 20.39925,6.688 19.54325,6.927 C18.90325,7.106 18.61225,7.848 18.96025,8.414 Z M9.71125,16.879 C8.99325,17.597 8.02025,18 7.00425,18 C6.73825,18 6.48425,18.106 6.29725,18.293 L4.29725,20.293 C4.13525,20.455 3.87325,20.455 3.71125,20.293 C3.54925,20.131 3.54925,19.869 3.71125,19.707 L5.71125,17.707 C5.89825,17.52 6.00425,17.265 6.00425,17 C6.00425,15.985 6.40725,15.011 7.12525,14.293 L7.50425,13.914 L8.29725,14.707 C8.68825,15.098 9.32025,15.098 9.71125,14.707 C10.10225,14.317 10.10225,13.684 9.71125,13.293 L8.91825,12.5 L10.50425,10.914 L11.29725,11.707 C11.68825,12.098 12.32025,12.098 12.71125,11.707 C13.10225,11.317 13.10225,10.684 12.71125,10.293 L11.91825,9.5 L13.00425,8.414 L15.59025,11 L9.71125,16.879 Z M19.00425,1 C17.57025,1 16.28725,1.76 15.57925,2.932 C14.59325,2.747 13.54525,3.045 12.79725,3.793 C12.02425,4.566 11.74525,5.642 11.95225,6.638 L5.71125,12.879 C4.72025,13.87 4.12225,15.181 4.02025,16.57 L2.29725,18.293 C1.35425,19.236 1.35425,20.764 2.29725,21.707 C3.23925,22.65 4.76925,22.65 5.71125,21.707 L7.43425,19.984 C8.82225,19.882 10.13425,19.284 11.12525,18.293 L17.36625,12.052 C18.36125,12.259 19.43925,11.98 20.21125,11.207 C20.95925,10.459 21.25725,9.411 21.07225,8.425 C22.24325,7.717 23.00425,6.434 23.00425,5 C23.00425,2.791 21.21325,1 19.00425,1 Z"/>
</svg>
