<svg xmlns="http://www.w3.org/2000/svg" width="24" height="24" viewBox="0 0 24 24">
  <path d="M8.7553887,14.0046185 L4.00200475,14.0046185 C3.1110999,14.0046185 2.66493311,12.9274766 3.29489797,12.2975117 L14.294898,1.29751172 C15.012062,0.580347725 16.2181325,1.26321324 15.9721473,2.24715413 L14.2827812,9.0046185 L19.0020048,9.0046185 C19.8721097,9.0046185 20.3271103,10.0389416 19.7391589,10.6803431 L8.73915889,22.6803431 C8.04770855,23.4346526 6.80383875,22.7865933 7.02581769,21.787688 L8.7553887,14.0046185 Z M13.1562317,5.26460513 L6.41621832,12.0046185 L10.0020048,12.0046185 C10.6417527,12.0046185 11.1169726,12.5970353 10.9781918,13.221549 L9.78830649,18.5760329 L16.7287697,11.0046185 L13.0020048,11.0046185 C12.3514336,11.0046185 11.8740756,10.3932296 12.0318623,9.76208288 L13.1562317,5.26460513 Z"/>
</svg>
