<svg xmlns="http://www.w3.org/2000/svg" width="24" height="24" viewBox="0 0 24 24">
  <path d="M9,13 L9,11 L7,11 C6.44771525,11 6,10.5522847 6,10 C6,9.44771525 6.44771525,9 7,9 L9,9 L9,7 C9,6.44771525 9.44771525,6 10,6 C10.5522847,6 11,6.44771525 11,7 L11,9 L13,9 L13,7 C13,6.44771525 13.4477153,6 14,6 C14.5522847,6 15,6.44771525 15,7 L15,9 L17,9 C17.5522847,9 18,9.44771525 18,10 C18,10.5522847 17.5522847,11 17,11 L15,11 L15,13 L17,13 C17.5522847,13 18,13.4477153 18,14 C18,14.5522847 17.5522847,15 17,15 L15,15 L15,17 C15,17.5522847 14.5522847,18 14,18 C13.4477153,18 13,17.5522847 13,17 L13,15 L11,15 L11,17 C11,17.5522847 10.5522847,18 10,18 C9.44771525,18 9,17.5522847 9,17 L9,15 L7,15 C6.44771525,15 6,14.5522847 6,14 C6,13.4477153 6.44771525,13 7,13 L9,13 Z M11,13 L13,13 L13,11 L11,11 L11,13 Z M6,3 L18,3 C19.6568542,3 21,4.34314575 21,6 L21,18 C21,19.6568542 19.6568542,21 18,21 L6,21 C4.34314575,21 3,19.6568542 3,18 L3,6 C3,4.34314575 4.34314575,3 6,3 Z M6,5 C5.44771525,5 5,5.44771525 5,6 L5,18 C5,18.5522847 5.44771525,19 6,19 L18,19 C18.5522847,19 19,18.5522847 19,18 L19,6 C19,5.44771525 18.5522847,5 18,5 L6,5 Z"/>
</svg>
