<svg xmlns="http://www.w3.org/2000/svg" width="24" height="24" viewBox="0 0 24 24">
  <path d="M6,15 C6.88849981,15 7.68678595,15.3862506 8.23610651,16 L15.7638935,16 C16.313214,15.3862506 17.1115002,15 18,15 C18.8884998,15 19.686786,15.3862506 20.2361065,16 L22,16 L22,12.7345908 L16.8578644,12 L3.43091669,12 L2,12.4589137 L2,16 L3.76389349,16 C4.31321405,15.3862506 5.11150019,15 6,15 Z M2,18 C0.8954305,18 1.3527075e-16,17.1045695 0,16 L0,12.4589137 C1.1096945e-15,11.5896524 0.56148288,10.8199251 1.38921679,10.55446 L2.96789521,10.0481572 L5.49026978,5.84865084 C5.8114913,5.31384851 6.36387062,4.95956993 6.98391134,4.89067652 L13.3930574,4.17854918 C14.3303649,4.0744039 15.2130604,4.63918108 15.511287,5.53386112 L17,10 L22.2828427,10.7546918 C23.2681402,10.8954486 24,11.7392901 24,12.7345908 L24,16 C24,17.1045695 23.1045695,18 22,18 L21,18 C21,19.6568542 19.6568542,21 18,21 C16.3431458,21 15,19.6568542 15,18 L9,18 C9,19.6568542 7.65685425,21 6,21 C4.34314575,21 3,19.6568542 3,18 L2,18 Z M13.6139204,6.16631665 L7.20477439,6.87844399 L5.32985557,10 L14.8918149,10 L13.6139204,6.16631665 Z M18,19 C18.5522847,19 19,18.5522847 19,18 C19,17.4477153 18.5522847,17 18,17 C17.4477153,17 17,17.4477153 17,18 C17,18.5522847 17.4477153,19 18,19 Z M6,19 C6.55228475,19 7,18.5522847 7,18 C7,17.4477153 6.55228475,17 6,17 C5.44771525,17 5,17.4477153 5,18 C5,18.5522847 5.44771525,19 6,19 Z"/>
</svg>
