<svg xmlns="http://www.w3.org/2000/svg" width="24" height="24" viewBox="0 0 24 24">
  <path d="M2.45304777,7.59935543 C2.41319331,7.58796844 2.37044521,7.60234841 2.34557565,7.63550782 C2.31243857,7.6796906 2.32139287,7.74237074 2.36557565,7.77550782 L8.4,12.3013261 C9.40722337,13.0567436 10,14.2422969 10,15.5013261 L10,16.0013261 L14.5462318,16.0013261 L20.9822227,8.64590785 C20.8570656,7.40272823 20.0691776,6.22466789 18.5592083,5.11505373 L18.9701425,6.75879046 C19.1040912,7.29458537 18.7783305,7.83751986 18.2425356,7.97146858 C17.7067407,8.10541731 17.1638062,7.77965662 17.0298575,7.24386171 L16.969227,7.00133971 C14.2168356,7.00473894 12.7184645,7.46406118 12.2053928,8.27189786 L15.2425356,9.03118358 C15.7783305,9.16513231 16.1040912,9.7080668 15.9701425,10.2438617 C15.8361938,10.7796566 15.2932593,11.1054173 14.7574644,10.9714686 L2.45304777,7.59935543 Z M5,17.0013261 C4.44771525,17.0013261 4,16.5536108 4,16.0013261 C4,15.4490413 4.44771525,15.0013261 5,15.0013261 L7.82929429,15.0013261 C7.63383803,14.4483295 7.28084681,13.9697494 6.82424304,13.6195084 L6.77206899,13.5803778 C6.27554336,13.2163183 5.66287874,13.0013261 5,13.0013261 C3.34314575,13.0013261 2,14.3444718 2,16.0013261 C2,17.6581803 3.34314575,19.0013261 5,19.0013261 C6.30621883,19.0013261 7.41745788,18.1665185 7.82929429,17.0013261 L5,17.0013261 Z M19.058301,13.8818601 L19.8944272,15.5541125 C20.1414164,16.048091 19.9411921,16.648764 19.4472136,16.8957533 C18.9532351,17.1427425 18.3525621,16.9425182 18.1055728,16.4485397 L17.6353486,15.5080913 L16.2184879,17.1273607 C16.6637857,18.226249 17.7413784,19.0013261 19,19.0013261 C20.6568542,19.0013261 22,17.6581803 22,16.0013261 C22,14.6022909 21.0423391,13.4269295 19.7467904,13.095015 L19.058301,13.8818601 Z M14.4160437,18.0013261 L9.58305436,18.0033892 C8.81102708,19.768192 7.04952049,21.0013261 5,21.0013261 C2.23857625,21.0013261 0,18.7627498 0,16.0013261 C0,13.7263539 1.51935041,11.8062451 3.59869983,11.200351 L1.16557565,9.37550782 C0.237737275,8.67962904 0.04969687,7.3633462 0.745575655,6.43550782 C1.26783637,5.7391602 2.16554638,5.43718078 3.00249002,5.67630753 L10.2135066,7.73659799 C10.8438445,6.04354156 12.8520339,5.17100486 16,5.02382449 L16,3.00132608 C16,2.25345627 16.7909134,1.77023223 17.4563632,2.1115325 C21.0891118,3.97472055 23,6.26778639 23,9.00132608 C23,9.24354923 22.9120818,9.4775392 22.7525767,9.65983069 L21.153367,11.4874989 C22.8369474,12.2921127 24,14.0108967 24,16.0013261 C24,18.7627498 21.7614237,21.0013261 19,21.0013261 C16.949681,21.0013261 15.1876003,19.7672309 14.4160437,18.0013261 Z"/>
</svg>
