<svg xmlns="http://www.w3.org/2000/svg" width="24" height="24" viewBox="0 0 24 24">
  <path d="M6,15 C6.88849981,15 7.68678595,15.3862506 8.23610651,16 L15.7638935,16 C16.313214,15.3862506 17.1115002,15 18,15 C18.8884998,15 19.686786,15.3862506 20.2361065,16 L22,16 L22,14 C22,12.8954305 21.1045695,12 20,12 L2,12 L2,16 L3.76389349,16 C4.31321405,15.3862506 5.11150019,15 6,15 Z M3,18 L2,18 C0.8954305,18 1.3527075e-16,17.1045695 0,16 L6.66133815e-16,12 C1.02139046e-15,10.8954305 0.8954305,10 2,10 L9,10 L9,6 C9,4.8954305 9.8954305,4 11,4 L13.9296325,4 C14.5983389,4 15.2228015,4.33420227 15.5937331,4.89059961 L19,10 L20,10 C22.209139,10 24,11.790861 24,14 L24,16 C24,17.1045695 23.1045695,18 22,18 L21,18 C21,19.6568542 19.6568542,21 18,21 C16.3431458,21 15,19.6568542 15,18 L9,18 C9,19.6568542 7.65685425,21 6,21 C4.34314575,21 3,19.6568542 3,18 Z M13.9296325,6 L11,6 L11,10 L16.5962991,10 L13.9296325,6 Z M18,19 C18.5522847,19 19,18.5522847 19,18 C19,17.4477153 18.5522847,17 18,17 C17.4477153,17 17,17.4477153 17,18 C17,18.5522847 17.4477153,19 18,19 Z M6,19 C6.55228475,19 7,18.5522847 7,18 C7,17.4477153 6.55228475,17 6,17 C5.44771525,17 5,17.4477153 5,18 C5,18.5522847 5.44771525,19 6,19 Z"/>
</svg>
