<?xml version="1.0" encoding="UTF-8"?>
<svg width="24px" height="24px" viewBox="0 0 24 24" version="1.1" xmlns="http://www.w3.org/2000/svg" xmlns:xlink="http://www.w3.org/1999/xlink">
    <!-- Generator: Sketch 52.3 (67297) - http://www.bohemiancoding.com/sketch -->
    <title>jollycons-[category]/icons/svg/icon-education-ring-stand</title>
    <desc>Created with Sketch.</desc>
    <g id="icons" stroke="none" stroke-width="1" fill="none" fill-rule="evenodd">
        <g id="icons---export" transform="translate(-316.000000, -218.000000)">
            <g id="row-3" transform="translate(60.000000, 218.000000)" fill="#000000" fill-rule="nonzero">
                <g id="icon---15" transform="translate(256.000000, 0.000000)">
                    <path d="M15,3 C14.4477153,3 14,2.55228475 14,2 C14,1.44771525 14.4477153,1 15,1 L21,1 C21.5522847,1 22,1.44771525 22,2 C22,2.55228475 21.5522847,3 21,3 L21,5 C21.5522847,5 22,5.44771525 22,6 C22,6.55228475 21.5522847,7 21,7 L21,9 C21,10.6568542 19.6568542,12 18,12 C16.3431458,12 15,10.6568542 15,9 L15,7 L10,7 L10,7.5 C10,8.32842712 9.32842712,9 8.5,9 L8,9 L8,18 L14.2675644,18 C14.6133738,17.4021986 15.2597176,17 16,17 L16.0504466,17 C15.9334873,16.7530545 15.7678716,15.9778551 16,15.4889275 C16.2321284,15 17,14 18,13 C19,14 19.7618864,15 20,15.4889275 C20.2381136,15.9778551 20.165769,16.5415511 19.9490646,17 L20,17 C21.1045695,17 22,17.8954305 22,19 L22,21 C22,22.1045695 21.1045695,23 20,23 L4,23 C2.8954305,23 2,22.1045695 2,21 L2,20 C2,18.8954305 2.8954305,18 4,18 L6,18 L6,9 L5.5,9 C4.67157288,9 4,8.32842712 4,7.5 L4,7 L3,7 C2.44771525,7 2,6.55228475 2,6 C2,5.44771525 2.44771525,5 3,5 L4,5 L4,4.5 C4,3.67157288 4.67157288,3 5.5,3 L6,3 L6,2 C6,1.44771525 6.44771525,1 7,1 C7.55228475,1 8,1.44771525 8,2 L8,3 L8.5,3 C9.32842712,3 10,3.67157288 10,4.5 L10,5 L15,5 L15,3 Z M14,20 L4,20 L4,21 L14,21 L14,20 Z M16,19 L16,21 L20,21 L20,19 L16,19 Z M19,6 L19,3 L17,3 L17,6 L19,6 Z M6,5 L6,7 L8,7 L8,5 L6,5 Z" id="ring-stand"></path>
                </g>
            </g>
            <g id="slices" transform="translate(60.000000, 58.000000)"></g>
        </g>
    </g>
</svg>