<?xml version="1.0" encoding="UTF-8"?>
<svg width="24px" height="24px" viewBox="0 0 24 24" version="1.1" xmlns="http://www.w3.org/2000/svg" xmlns:xlink="http://www.w3.org/1999/xlink">
    <!-- Generator: Sketch 52.3 (67297) - http://www.bohemiancoding.com/sketch -->
    <title>jollycons-[category]/icons/svg/icon-education-abacus</title>
    <desc>Created with Sketch.</desc>
    <g id="icons" stroke="none" stroke-width="1" fill="none" fill-rule="evenodd">
        <g id="icons---export" transform="translate(-124.000000, -218.000000)">
            <g id="row-3" transform="translate(60.000000, 218.000000)" fill="#000000">
                <g id="icon---12" transform="translate(64.000000, 0.000000)">
                    <path d="M19,2 C19,1.44771525 19.4477153,1 20,1 C20.5522847,1 21,1.44771525 21,2 L21,18 C21,18.0166861 20.9995913,18.0332767 20.9987834,18.0497624 C22.1405097,18.2809273 23,19.2900913 23,20.5 L23,21.5 C23,22.3284271 22.3284271,23 21.5,23 L2.5,23 C1.67157288,23 1,22.3284271 1,21.5 L1,20.5 C1,19.2900913 1.85949034,18.2809273 3.00121658,18.0497624 C3.00040868,18.0332767 3,18.0166861 3,18 L3,2 C3,1.44771525 3.44771525,1 4,1 C4.55228475,1 5,1.44771525 5,2 L5,4.76389349 C5.53075649,4.28885357 6.23164556,4 7,4 C8.04348538,4 8.96253923,4.53275467 9.5,5.34110244 C10.0374608,4.53275467 10.9565146,4 12,4 C13.0434854,4 13.9625392,4.53275467 14.5,5.34110244 C15.0374608,4.53275467 15.9565146,4 17,4 C17.7683544,4 18.4692435,4.28885357 19,4.76389349 L19,2 Z M17,10 C15.9565146,10 15.0374608,9.46724533 14.5,8.65889756 C13.9625392,9.46724533 13.0434854,10 12,10 C10.9565146,10 10.0374608,9.46724533 9.5,8.65889756 C8.96253923,9.46724533 8.04348538,10 7,10 C6.23164556,10 5.53075649,9.71114643 5,9.23610651 L5,13 L9.17070571,13 C9.58254212,11.8348076 10.6937812,11 12,11 C13.0434854,11 13.9625392,11.5327547 14.5,12.3411024 C15.0374608,11.5327547 15.9565146,11 17,11 C17.7683544,11 18.4692435,11.2888536 19,11.7638935 L19,9.23610651 C18.4692435,9.71114643 17.7683544,10 17,10 Z M17,17 C15.9565146,17 15.0374608,16.4672453 14.5,15.6588976 C13.9625392,16.4672453 13.0434854,17 12,17 C10.6937812,17 9.58254212,16.1651924 9.17070571,15 L5,15 L5,18 L19,18 L19,16.2361065 C18.4692435,16.7111464 17.7683544,17 17,17 Z M21,20.5 C21,20.2238576 20.7761424,20 20.5,20 L3.5,20 C3.22385763,20 3,20.2238576 3,20.5 L3,21 L21,21 L21,20.5 Z M17,8 C17.5522847,8 18,7.55228475 18,7 C18,6.44771525 17.5522847,6 17,6 C16.4477153,6 16,6.44771525 16,7 C16,7.55228475 16.4477153,8 17,8 Z M12,15 C12.5522847,15 13,14.5522847 13,14 C13,13.4477153 12.5522847,13 12,13 C11.4477153,13 11,13.4477153 11,14 C11,14.5522847 11.4477153,15 12,15 Z M17,15 C17.5522847,15 18,14.5522847 18,14 C18,13.4477153 17.5522847,13 17,13 C16.4477153,13 16,13.4477153 16,14 C16,14.5522847 16.4477153,15 17,15 Z M7,8 C7.55228475,8 8,7.55228475 8,7 C8,6.44771525 7.55228475,6 7,6 C6.44771525,6 6,6.44771525 6,7 C6,7.55228475 6.44771525,8 7,8 Z M12,8 C12.5522847,8 13,7.55228475 13,7 C13,6.44771525 12.5522847,6 12,6 C11.4477153,6 11,6.44771525 11,7 C11,7.55228475 11.4477153,8 12,8 Z" id="abacus"></path>
                </g>
            </g>
            <g id="slices" transform="translate(60.000000, 58.000000)"></g>
        </g>
    </g>
</svg>