<?xml version="1.0" encoding="UTF-8"?>
<svg width="24px" height="24px" viewBox="0 0 24 24" version="1.1" xmlns="http://www.w3.org/2000/svg" xmlns:xlink="http://www.w3.org/1999/xlink">
    <!-- Generator: Sketch 52.3 (67297) - http://www.bohemiancoding.com/sketch -->
    <title>jollycons-[category]/icons/svg/icon-education-microscope</title>
    <desc>Created with Sketch.</desc>
    <g id="icons" stroke="none" stroke-width="1" fill="none" fill-rule="evenodd">
        <g id="icons---export" transform="translate(-188.000000, -218.000000)">
            <g id="row-3" transform="translate(60.000000, 218.000000)" fill="#000000" fill-rule="nonzero">
                <g id="icon---13" transform="translate(128.000000, 0.000000)">
                    <path d="M17.7855538,4.56700353 C18.2214371,5.3033483 18.1443716,6.25916744 17.5543573,6.91790473 C19.6523368,8.56560832 21,11.1254224 21,14 C21,16.8272661 19.6963331,19.3500445 17.6573343,21 L20,21 C20.5522847,21 21,21.4477153 21,22 C21,22.5522847 20.5522847,23 20,23 L5,23 C4.44771525,23 4,22.5522847 4,22 C4,21.4477153 4.44771525,21 5,21 L6.34266566,21 C4.79940491,19.7511951 3.67738266,18.0023893 3.22301642,16 L2,16 C1.44771525,16 1,15.5522847 1,15 C1,14.4477153 1.44771525,14 2,14 L10,14 C10.5522847,14 11,14.4477153 11,15 C11,15.5522847 10.5522847,16 10,16 L9.76389349,16 C10.313214,16.6137494 11.1115002,17 12,17 C13.6568542,17 15,15.6568542 15,14 C15,12.777065 14.2682524,11.7250388 13.2187161,11.2578802 L12.527817,11.9487792 C12.9183413,12.3393035 12.9183413,12.9724685 12.527817,13.3629928 C12.1372927,13.7535171 11.5041278,13.7535171 11.1136035,13.3629928 L6.87096277,9.1203521 C6.48043848,8.72982781 6.48043848,8.09666283 6.87096277,7.70613854 C7.26148706,7.31561424 7.89465204,7.31561424 8.28517633,7.70613854 L13.2349238,2.75639107 C13.89438,2.09693492 14.8997829,1.99427181 15.666952,2.44840173 C15.6806695,2.43288082 15.6949513,2.41768391 15.7097975,2.40283768 L17.1240111,0.988624115 C17.5145354,0.598099823 18.1477004,0.598099823 18.5382247,0.988624115 L19.2453314,1.6957309 C19.6358557,2.08625519 19.6358557,2.71942017 19.2453314,3.10994446 L17.8311179,4.52415802 C17.8162716,4.53900425 17.8010747,4.55328609 17.7855538,4.56700353 Z M9.6993899,9.1203521 L11.1136035,10.5345657 L16.0633509,5.58481819 L14.6491374,4.17060463 L9.6993899,9.1203521 Z M16.1294295,8.34716671 L14.6912558,9.78534049 C16.0796554,10.6737427 17,12.2293923 17,14 C17,16.7614237 14.7614237,19 12,19 C9.94968096,19 8.18760031,17.7659048 7.41604369,16 L5.28987868,16 C6.15042787,18.8914889 8.82897936,21 12,21 C15.8659932,21 19,17.8659932 19,14 C19,11.6783225 17.8697317,9.62063321 16.1294295,8.34716671 Z" id="microscope"></path>
                </g>
            </g>
            <g id="slices" transform="translate(60.000000, 58.000000)"></g>
        </g>
    </g>
</svg>