<?xml version="1.0" encoding="UTF-8"?>
<svg width="24px" height="24px" viewBox="0 0 24 24" version="1.1" xmlns="http://www.w3.org/2000/svg" xmlns:xlink="http://www.w3.org/1999/xlink">
    <!-- Generator: Sketch 52.3 (67297) - http://www.bohemiancoding.com/sketch -->
    <title>jollycons-[category]/icons/svg/icon-education-school-bus</title>
    <desc>Created with Sketch.</desc>
    <g id="icons" stroke="none" stroke-width="1" fill="none" fill-rule="evenodd">
        <g id="icons---export" transform="translate(-252.000000, -138.000000)">
            <g id="row-2" transform="translate(60.000000, 138.000000)" fill="#000000" fill-rule="nonzero">
                <g id="icon---9" transform="translate(192.000000, 0.000000)">
                    <path d="M3,13 L3,7.0462232 C2.22399882,7.0333131 2,7.13156592 2,7.17427616 L2,9 C2,9.55228475 1.55228475,10 1,10 C0.44771525,10 6.76353751e-17,9.55228475 0,9 L0,7 C-1.24121731e-17,6.89864692 0.0150782079,6.80081553 0.0431138204,6.70862666 C0.274009526,5.53712455 1.41889632,5.04103877 3.1529777,5.05529377 C3.15761808,5.0441209 3.16236183,5.03298533 3.16720864,5.02188851 C4.41215768,2.17156883 7.42370141,0.789726833 12,0.789726833 C16.5762288,0.789726833 19.5877492,2.17152522 20.8325919,5.02143213 C20.8375098,5.03267995 20.8423217,5.04396765 20.8470272,5.05529373 C22.5811058,5.0410397 23.7259907,5.53712565 23.9568862,6.70862666 C23.9849218,6.80081553 24,6.89864692 24,7 L24,9 C24,9.55228475 23.5522847,10 23,10 C22.4477153,10 22,9.55228475 22,9 L22,7.17427571 C22,7.13156592 21.7760012,7.0333131 21,7.0462232 L21,18 C21.5522847,18 22,18.4477153 22,19 C22,19.5522847 21.5522847,20 21,20 L19,20 L19,22 C19,22.5522847 18.5522847,23 18,23 L17,23 C16.4477153,23 16,22.5522847 16,22 L16,20 L8,20 L8,22 C8,22.5522847 7.55228475,23 7,23 L6,23 C5.44771525,23 5,22.5522847 5,22 L5,20 L3,20 C2.44771525,20 2,19.5522847 2,19 C2,18.4477153 2.44771525,18 3,18 L3.00000482,13 L3,13 Z M19,11 L19,7 L5,7 L5,11 L19,11 Z M11,7 L13,7 L13,11 L11,11 L11,7 Z M19,13 L5.00000046,13 L5.00000046,17.9999955 L19,17.9999955 L19,13 Z M7.5,17 C6.67157288,17 6,16.3284271 6,15.5 C6,14.6715729 6.67157288,14 7.5,14 C8.32842712,14 9,14.6715729 9,15.5 C9,16.3284271 8.32842712,17 7.5,17 Z M16.5,17 C15.6715729,17 15,16.3284271 15,15.5 C15,14.6715729 15.6715729,14 16.5,14 C17.3284271,14 18,14.6715729 18,15.5 C18,16.3284271 17.3284271,17 16.5,17 Z M10.5,14 L13.5,14 C13.7761424,14 14,14.2238576 14,14.5 L14,16.5 C14,16.7761424 13.7761424,17 13.5,17 L10.5,17 C10.2238576,17 10,16.7761424 10,16.5 L10,14.5 C10,14.2238576 10.2238576,14 10.5,14 Z M5.47920995,5 L18.520821,5 C17.4233348,3.5443406 15.2913341,2.78972683 12,2.78972683 C8.70866629,2.78972683 6.57666675,3.54433929 5.47920995,5 Z" id="school-bus"></path>
                </g>
            </g>
            <g id="slices" transform="translate(60.000000, 58.000000)"></g>
        </g>
    </g>
</svg>