<?xml version="1.0" encoding="UTF-8"?>
<svg width="24px" height="24px" viewBox="0 0 24 24" version="1.1" xmlns="http://www.w3.org/2000/svg" xmlns:xlink="http://www.w3.org/1999/xlink">
    <!-- Generator: Sketch 52.3 (67297) - http://www.bohemiancoding.com/sketch -->
    <title>jollycons-[category]/icons/svg/icon-education-ruler</title>
    <desc>Created with Sketch.</desc>
    <g id="icons" stroke="none" stroke-width="1" fill="none" fill-rule="evenodd">
        <g id="icons---export" transform="translate(-252.000000, -218.000000)">
            <g id="row-3" transform="translate(60.000000, 218.000000)" fill="#000000" fill-rule="nonzero">
                <g id="icon---14" transform="translate(192.000000, 0.000000)">
                    <path d="M18.8950785,1.58345558 L22.4165444,5.10492152 C23.1944852,5.8828623 23.1944852,7.1441535 22.4165444,7.92209428 L6.92209428,23.4165444 C6.1441535,24.1944852 4.8828623,24.1944852 4.10492152,23.4165444 L0.583455581,19.8950785 C-0.194485194,19.1171377 -0.194485194,17.8558465 0.583455581,17.0779057 L16.0779057,1.58345558 C16.8558465,0.805514806 18.1171377,0.805514806 18.8950785,1.58345558 Z M14.6693193,5.80921471 L13.260733,7.21780109 L13.9650262,7.92209428 C14.3539965,8.31106466 14.3539965,8.94171027 13.9650262,9.33068065 C13.5760558,9.71965104 12.9454102,9.71965104 12.5564398,9.33068065 L11.8521466,8.62638746 L10.4435602,10.0349738 L11.8521466,11.4435602 C12.241117,11.8325306 12.241117,12.4631762 11.8521466,12.8521466 C11.4631762,13.241117 10.8325306,13.241117 10.4435602,12.8521466 L9.03497384,11.4435602 L7.62638746,12.8521466 L8.33068065,13.5564398 C8.71965104,13.9454102 8.71965104,14.5760558 8.33068065,14.9650262 C7.94171027,15.3539965 7.31106466,15.3539965 6.92209428,14.9650262 L6.21780109,14.260733 L4.80921471,15.6693193 L6.21780109,17.0779057 C6.60677147,17.4668761 6.60677147,18.0975217 6.21780109,18.4864921 C5.8288307,18.8754625 5.1981851,18.8754625 4.80921471,18.4864921 L3.40062833,17.0779057 L1.99204196,18.4864921 L5.5135079,22.007958 L21.007958,6.5135079 L17.4864921,2.99204196 L16.0779057,4.40062833 L17.4864921,5.80921471 C17.8754625,6.1981851 17.8754625,6.8288307 17.4864921,7.21780109 C17.0975217,7.60677147 16.4668761,7.60677147 16.0779057,7.21780109 L14.6693193,5.80921471 Z" id="ruler"></path>
                </g>
            </g>
            <g id="slices" transform="translate(60.000000, 58.000000)"></g>
        </g>
    </g>
</svg>