<?xml version="1.0" encoding="UTF-8"?>
<svg width="24px" height="24px" viewBox="0 0 24 24" version="1.1" xmlns="http://www.w3.org/2000/svg" xmlns:xlink="http://www.w3.org/1999/xlink">
    <!-- Generator: Sketch 52.3 (67297) - http://www.bohemiancoding.com/sketch -->
    <title>jollycons-[category]/icons/svg/icon-education-school-bell</title>
    <desc>Created with Sketch.</desc>
    <g id="icons" stroke="none" stroke-width="1" fill="none" fill-rule="evenodd">
        <g id="icons---export" transform="translate(-188.000000, -138.000000)">
            <g id="row-2" transform="translate(60.000000, 138.000000)" fill="#000000" fill-rule="nonzero">
                <g id="icon---8" transform="translate(128.000000, 0.000000)">
                    <path d="M14.8310137,17.1208231 C14.8925603,17.2466892 14.9415503,17.3805217 14.9761889,17.5209149 L15.3513821,19.0416041 C17.6864039,17.6934606 19.3802669,15.3854959 19.9221692,12.685013 C19.3675508,12.3295103 19,11.7076782 19,11 C19,9.8954305 19.8954305,9 21,9 C22.1045695,9 23,9.8954305 23,11 C23,11.7640032 22.5716131,12.4279513 21.9419382,12.7647454 C21.3198793,16.3894804 18.990187,19.4670319 15.773255,21.0862603 C15.7363189,21.9510016 15.1364691,22.7239648 14.2536797,22.9417717 C14.0969204,22.9804483 13.9360545,23 13.7745945,23 L5.22536043,23 C4.12079093,23 3.22536043,22.1045695 3.22536043,21 C3.22536043,20.83854 3.24491216,20.6776741 3.2835887,20.5209149 L4.02376604,17.5209149 C4.05840704,17.380512 4.10740141,17.2466707 4.16895395,17.1207971 C2.23635397,15.5627026 1,13.1757343 1,10.5 C1,5.80557963 4.80557963,2 9.5,2 C14.1944204,2 18,5.80557963 18,10.5 C18,13.1757492 16.7636323,15.5627292 14.8310137,17.1208231 Z M13.0859339,18.2088016 C11.9963753,18.7164985 10.7812953,19 9.5,19 C8.21868883,19 7.00359462,18.7164915 5.91402566,18.2087828 L5.22536043,21 L13.7745945,21 L13.0859339,18.2088016 Z M9.5,17 C13.0898509,17 16,14.0898509 16,10.5 C16,6.91014913 13.0898509,4 9.5,4 C5.91014913,4 3,6.91014913 3,10.5 C3,14.0898509 5.91014913,17 9.5,17 Z M9.5,13 C8.11928813,13 7,11.8807119 7,10.5 C7,9.11928813 8.11928813,8 9.5,8 C10.8807119,8 12,9.11928813 12,10.5 C12,11.8807119 10.8807119,13 9.5,13 Z M9.5,11.05 C9.80375661,11.05 10.05,10.8037566 10.05,10.5 C10.05,10.1962434 9.80375661,9.95 9.5,9.95 C9.19624339,9.95 8.95,10.1962434 8.95,10.5 C8.95,10.8037566 9.19624339,11.05 9.5,11.05 Z M9.22315576,5.13399105 C9.70640492,5.13399105 10.0981558,5.5257419 10.0981558,6.00899105 C10.0981558,6.49224021 9.70640492,6.88399105 9.22315576,6.88399105 C7.22112354,6.88399105 5.91614045,8.13756033 5.91614045,10.1395926 C5.91614045,10.6228417 5.47172123,11.0419425 4.98847207,11.0419425 C4.50522292,11.0419425 4.09077315,10.6195051 4.09077315,10.136256 C4.09077315,7.16772543 6.25462523,5.13399105 9.22315576,5.13399105 Z" id="school-bell"></path>
                </g>
            </g>
            <g id="slices" transform="translate(60.000000, 58.000000)"></g>
        </g>
    </g>
</svg>