<?xml version="1.0" encoding="UTF-8"?>
<svg width="24px" height="24px" viewBox="0 0 24 24" version="1.1" xmlns="http://www.w3.org/2000/svg" xmlns:xlink="http://www.w3.org/1999/xlink">
    <!-- Generator: Sketch 52.3 (67297) - http://www.bohemiancoding.com/sketch -->
    <title>jollycons-[category]/icons/svg/icon-travel-flip-flops</title>
    <desc>Created with Sketch.</desc>
    <g id="icons" stroke="none" stroke-width="1" fill="none" fill-rule="evenodd">
        <g id="icons---export" transform="translate(-60.000000, -218.000000)">
            <g id="row-3" transform="translate(60.000000, 218.000000)" fill="#000000" fill-rule="nonzero">
                <g id="icon---11">
                    <path d="M7.08522792,5 C7.2194253,5 7.3535653,5.00554861 7.48730424,5.0166316 C10.1669181,5.23869222 12.1591586,7.59096415 11.937098,10.270578 L11.1627675,19.6143579 C11.1563175,19.6921906 11.1407721,19.7689999 11.1164085,19.843202 C10.4266818,21.947734 9.08295498,23 7.08522792,23 C5.07508883,23 3.72710189,21.9346178 3.04126712,19.8038533 C3.02544314,19.754691 3.01345164,19.7043767 3.00535947,19.6533685 C2.33511982,15.4066254 2,11.8858057 2,9.09090909 C2,7.45454545 4.03409117,5 7.08522792,5 Z M16.9607744,1 C20.0119112,1 22.0460024,3.45454545 22.0460024,5.09090909 C22.0460024,7.88580566 21.7108825,11.4066254 21.0406429,15.6533685 C21.0325507,15.7043767 21.0205592,15.754691 21.0047352,15.8038533 C20.3189005,17.9346178 18.9709135,19 16.9607744,19 C14.9630474,19 13.6193205,17.947734 12.9295939,15.843202 C12.9052302,15.7689999 12.8896848,15.6921906 12.8832348,15.6143579 L12.1089044,6.27057801 C11.8868437,3.59096415 13.8790843,1.23869222 16.5586981,1.0166316 C16.6924371,1.00554861 16.8265771,1 16.9607744,1 Z M14.5298094,11.2668739 L14.8663283,15.3276192 C15.2931739,16.5560275 15.8898841,17 16.9607744,17 C18.0491669,17 18.6502036,16.5404489 19.0776029,15.2621644 C19.3582524,13.476452 19.5776627,11.8264242 19.7361445,10.3132154 L18.1250407,8.05348537 C18.0468166,7.94376844 17.9472255,7.85099228 17.8322481,7.78072833 C17.3609936,7.49273944 16.7455051,7.64130561 16.4575163,8.11256016 L14.5356478,11.2574358 C14.5337164,11.2605963 14.5317702,11.2637424 14.5298094,11.2668739 Z M18.2732612,5.79190367 C18.4795871,5.86198711 18.6814297,5.95578117 18.8751481,6.07416467 C19.2200802,6.2849565 19.5188535,6.56328499 19.7535258,6.89243578 L19.9859365,7.21841438 C20.0260001,6.46368332 20.0460024,5.75444306 20.0460024,5.09090909 C20.0460024,4.30618614 18.625298,3 16.9607744,3 C16.8817059,3 16.8026711,3.00326922 16.7238727,3.00979927 C15.1450549,3.1406365 13.9712348,4.5265857 14.1020719,6.10540178 L14.2499243,7.88952456 L14.7509526,7.06966014 C15.1359197,6.43971391 15.7159545,6.0019697 16.3658588,5.78664773 C16.4945937,5.38313932 16.8725347,5.09090909 17.3187296,5.09090909 C17.7668596,5.09090909 18.1461423,5.38567944 18.2732612,5.79190367 Z M6.25736651,9.70628545 C6.40806998,9.34491263 6.76473341,9.09090909 7.18072255,9.09090909 C7.66967486,9.09090909 8.07666528,9.44182963 8.16357761,9.90555448 C8.6892977,10.1454298 9.15148085,10.5394707 9.47548551,11.0696601 L9.81762459,11.6295241 L9.94393047,10.1054018 C10.0747676,8.5265857 8.90094742,7.1406365 7.32212967,7.00979927 C7.24333123,7.00326922 7.16429648,7 7.08522792,7 C5.42070437,7 4,8.30618614 4,9.09090909 C4,9.82282987 4.02433782,10.6103638 4.07309265,11.4532218 L4.4729123,10.8924358 C4.70758463,10.563285 5.00635789,10.2849565 5.35128998,10.0741647 C5.63934259,9.89813252 5.94535818,9.77646924 6.25736651,9.70628545 Z M9.53773108,15.0069753 L7.76892184,12.1125602 C7.48093295,11.6413056 6.86544454,11.4927394 6.39419,11.7807283 C6.27921264,11.8509923 6.17962155,11.9437684 6.10139744,12.0534854 L4.35831467,14.4983287 C4.35011014,14.5098364 4.34170663,14.5211181 4.33311218,14.5321725 C4.48955475,15.9852187 4.70122786,17.5622088 4.96839945,19.2621644 C5.39579873,20.5404489 5.99683546,21 7.08522792,21 C8.15611827,21 8.7528285,20.5560275 9.17967404,19.3276192 L9.53773108,15.0069753 Z" id="flip-flops"></path>
                </g>
            </g>
            <g id="slices" transform="translate(60.000000, 58.000000)"></g>
        </g>
    </g>
</svg>