<?xml version="1.0" encoding="UTF-8"?>
<svg width="24px" height="24px" viewBox="0 0 24 24" version="1.1" xmlns="http://www.w3.org/2000/svg" xmlns:xlink="http://www.w3.org/1999/xlink">
    <!-- Generator: Sketch 52.3 (67297) - http://www.bohemiancoding.com/sketch -->
    <title>jollycons-[category]/icons/svg/icon-travel-hotel</title>
    <desc>Created with Sketch.</desc>
    <g id="icons" stroke="none" stroke-width="1" fill="none" fill-rule="evenodd">
        <g id="icons---export" transform="translate(-316.000000, -58.000000)">
            <g id="row-1" transform="translate(60.000000, 58.000000)" fill="#000000" fill-rule="nonzero">
                <g id="icon---5" transform="translate(256.000000, 0.000000)">
                    <path d="M16,9 L22.5,9 C23.3284271,9 24,9.67157288 24,10.5 L24,21.5 C24,22.3284271 23.3284271,23 22.5,23 L1.5,23 C0.671572875,23 0,22.3284271 0,21.5 L0,3.5 C0,2.67157288 0.671572875,2 1.5,2 L14.5,2 C15.3284271,2 16,2.67157288 16,3.5 L16,9 Z M10,21 L14,21 L14,4 L2,4 L2,21 L6,21 L6,19.5 C6,18.6715729 6.67157288,18 7.5,18 L8.5,18 C9.32842712,18 10,18.6715729 10,19.5 L10,21 Z M16,11 L16,21 L22,21 L22,11 L16,11 Z M3.5,12 L4.5,12 C4.77614237,12 5,12.2238576 5,12.5 L5,13.5 C5,13.7761424 4.77614237,14 4.5,14 L3.5,14 C3.22385763,14 3,13.7761424 3,13.5 L3,12.5 C3,12.2238576 3.22385763,12 3.5,12 Z M7.5,12 L8.5,12 C8.77614237,12 9,12.2238576 9,12.5 L9,13.5 C9,13.7761424 8.77614237,14 8.5,14 L7.5,14 C7.22385763,14 7,13.7761424 7,13.5 L7,12.5 C7,12.2238576 7.22385763,12 7.5,12 Z M11.5,12 L12.5,12 C12.7761424,12 13,12.2238576 13,12.5 L13,13.5 C13,13.7761424 12.7761424,14 12.5,14 L11.5,14 C11.2238576,14 11,13.7761424 11,13.5 L11,12.5 C11,12.2238576 11.2238576,12 11.5,12 Z M3.5,9 L4.5,9 C4.77614237,9 5,9.22385763 5,9.5 L5,10.5 C5,10.7761424 4.77614237,11 4.5,11 L3.5,11 C3.22385763,11 3,10.7761424 3,10.5 L3,9.5 C3,9.22385763 3.22385763,9 3.5,9 Z M7.5,9 L8.5,9 C8.77614237,9 9,9.22385763 9,9.5 L9,10.5 C9,10.7761424 8.77614237,11 8.5,11 L7.5,11 C7.22385763,11 7,10.7761424 7,10.5 L7,9.5 C7,9.22385763 7.22385763,9 7.5,9 Z M11.5,9 L12.5,9 C12.7761424,9 13,9.22385763 13,9.5 L13,10.5 C13,10.7761424 12.7761424,11 12.5,11 L11.5,11 C11.2238576,11 11,10.7761424 11,10.5 L11,9.5 C11,9.22385763 11.2238576,9 11.5,9 Z M3.5,6 L4.5,6 C4.77614237,6 5,6.22385763 5,6.5 L5,7.5 C5,7.77614237 4.77614237,8 4.5,8 L3.5,8 C3.22385763,8 3,7.77614237 3,7.5 L3,6.5 C3,6.22385763 3.22385763,6 3.5,6 Z M7.5,6 L8.5,6 C8.77614237,6 9,6.22385763 9,6.5 L9,7.5 C9,7.77614237 8.77614237,8 8.5,8 L7.5,8 C7.22385763,8 7,7.77614237 7,7.5 L7,6.5 C7,6.22385763 7.22385763,6 7.5,6 Z M11.5,6 L12.5,6 C12.7761424,6 13,6.22385763 13,6.5 L13,7.5 C13,7.77614237 12.7761424,8 12.5,8 L11.5,8 C11.2238576,8 11,7.77614237 11,7.5 L11,6.5 C11,6.22385763 11.2238576,6 11.5,6 Z M3.5,15 L4.5,15 C4.77614237,15 5,15.2238576 5,15.5 L5,16.5 C5,16.7761424 4.77614237,17 4.5,17 L3.5,17 C3.22385763,17 3,16.7761424 3,16.5 L3,15.5 C3,15.2238576 3.22385763,15 3.5,15 Z M7.5,15 L8.5,15 C8.77614237,15 9,15.2238576 9,15.5 L9,16.5 C9,16.7761424 8.77614237,17 8.5,17 L7.5,17 C7.22385763,17 7,16.7761424 7,16.5 L7,15.5 C7,15.2238576 7.22385763,15 7.5,15 Z M11.5,15 L12.5,15 C12.7761424,15 13,15.2238576 13,15.5 L13,16.5 C13,16.7761424 12.7761424,17 12.5,17 L11.5,17 C11.2238576,17 11,16.7761424 11,16.5 L11,15.5 C11,15.2238576 11.2238576,15 11.5,15 Z M18.2,12 L19.8,12 C19.9104569,12 20,12.0895431 20,12.2 L20,13.8 C20,13.9104569 19.9104569,14 19.8,14 L18.2,14 C18.0895431,14 18,13.9104569 18,13.8 L18,12.2 C18,12.0895431 18.0895431,12 18.2,12 Z M18.2,15 L19.8,15 C19.9104569,15 20,15.0895431 20,15.2 L20,16.8 C20,16.9104569 19.9104569,17 19.8,17 L18.2,17 C18.0895431,17 18,16.9104569 18,16.8 L18,15.2 C18,15.0895431 18.0895431,15 18.2,15 Z M18.2,18 L19.8,18 C19.9104569,18 20,18.0895431 20,18.2 L20,19.8 C20,19.9104569 19.9104569,20 19.8,20 L18.2,20 C18.0895431,20 18,19.9104569 18,19.8 L18,18.2 C18,18.0895431 18.0895431,18 18.2,18 Z" id="hotel"></path>
                </g>
            </g>
            <g id="slices" transform="translate(60.000000, 58.000000)"></g>
        </g>
    </g>
</svg>