<svg xmlns="http://www.w3.org/2000/svg" width="24" height="24" viewBox="0 0 24 24">
  <path d="M19.0205313,6.25124462 C19.1390376,5.54120402 19.7563163,5 20.5,5 C21.3284271,5 22,5.67157288 22,6.5 C22,7.32842712 21.3284271,8 20.5,8 C20.3577209,8 20.2200684,7.9801908 20.0896502,7.94317995 L18.9998352,8.57579083 L18.9998352,10.3885086 L20.5494423,10.8312535 C20.7177163,10.8793318 20.8757482,10.9481309 21.0210892,11.0344041 L22.7725644,11.5646185 C23.3494466,11.7392548 23.6612283,12.3055686 23.4689482,12.8295157 C23.2766681,13.3534629 22.6531389,13.6366352 22.0762567,13.4619989 L22,13.4389141 L22,21 C22.5522847,21 23,21.4477153 23,22 C23,22.5522847 22.5522847,23 22,23 L2,23 C1.44771525,23 1,22.5522847 1,22 C1,21.4477153 1.44771525,21 2,21 L2,13.4389141 L1.92374326,13.4619989 C1.34686107,13.6366352 0.723331863,13.3534629 0.531051799,12.8295157 C0.338771735,12.3055686 0.650553362,11.7392548 1.22743555,11.5646185 L2.97891083,11.0344041 C3.1242518,10.9481309 3.28228373,10.8793318 3.45055774,10.8312535 L5,10.3885557 L5,8.57579083 L3.91023908,7.94321135 C3.77985367,7.98020201 3.64223887,8 3.5,8 C2.67157288,8 2,7.32842712 2,6.5 C2,5.67157288 2.67157288,5 3.5,5 C4.24372064,5 4.86102374,5.54125784 4.97948633,6.25135054 L6.50202576,7.13514733 C6.81028473,7.3140841 7,7.64357054 7,8 L7,9.81712225 L9.92269828,8.9323501 C10.4995805,8.75771377 11.1231097,9.04088613 11.3153897,9.56483326 C11.459335,9.95707193 11.3207859,10.3730544 11,10.6306753 L11,21 L13,21 L13,10.6306753 C12.6792141,10.3730544 12.540665,9.95707193 12.6846103,9.56483326 C12.8768903,9.04088613 13.5004195,8.75771377 14.0773017,8.9323501 L16.9998352,9.81707237 L16.9998352,8 C16.9998352,7.64357054 17.1895505,7.3140841 17.4978095,7.13514733 L19.0205313,6.25124462 Z M15,21 L20,21 L20,12.8334653 L15.3460772,11.4246092 L15,11.32573 L15,21 Z M9,21 L9,11.32573 L8.65392275,11.4246092 L4,12.8334653 L4,21 L9,21 Z"/>
</svg>
