<svg xmlns="http://www.w3.org/2000/svg" width="24" height="24" viewBox="0 0 24 24">
  <path d="M14,3 L5,3 L5,20 L19,20 L19,8 L16,8 C14.8954305,8 14,7.1045695 14,6 L14,3 Z M16,3.40653885 L16,6 L18.573526,6 L16,3.40653885 Z M5,1 L15.5965861,1 C16.1296935,1 16.6407387,1.2128378 17.0162454,1.59125321 L20.4196593,5.02103078 C20.7913991,5.3956502 21,5.90201795 21,6.42977757 L21,20 C21,21.1045695 20.1045695,22 19,22 L5,22 C3.8954305,22 3,21.1045695 3,20 L3,3 C3,1.8954305 3.8954305,1 5,1 Z M10.5994793,14.3028435 C10.9036335,13.9454443 11.445657,13.8974999 11.8101229,14.1957567 C12.1745888,14.4940135 12.2234812,15.0255278 11.919327,15.382927 L9.78912355,18.0611028 C9.46334476,18.4439123 8.87174483,18.4672545 8.51565526,18.1113488 L7.24598574,16.842335 C6.91353283,16.5100537 6.9187197,15.9764057 7.25757094,15.6503988 C7.59642218,15.3243919 8.14062171,15.3294782 8.47307462,15.6617594 L9.07770555,16.2660781 L10.5994793,14.3028435 Z M10.5994793,9.30284347 C10.9036335,8.94544426 11.445657,8.89749989 11.8101229,9.19575672 C12.1745888,9.49401355 12.2234812,10.0255278 11.919327,10.382927 L9.78912355,13.0611028 C9.46334476,13.4439123 8.87174483,13.4672545 8.51565526,13.1113488 L7.24598574,11.842335 C6.91353283,11.5100537 6.9187197,10.9764057 7.25757094,10.6503988 C7.59642218,10.3243919 8.14062171,10.3294782 8.47307462,10.6617594 L9.07770555,11.2660781 L10.5994793,9.30284347 Z M14,15 L16,15 C16.5522847,15 17,15.4477153 17,16 C17,16.5522847 16.5522847,17 16,17 L14,17 C13.4477153,17 13,16.5522847 13,16 C13,15.4477153 13.4477153,15 14,15 Z M14,10 L16,10 C16.5522847,10 17,10.4477153 17,11 C17,11.5522847 16.5522847,12 16,12 L14,12 C13.4477153,12 13,11.5522847 13,11 C13,10.4477153 13.4477153,10 14,10 Z"/>
</svg>
