<svg xmlns="http://www.w3.org/2000/svg" width="24" height="24" viewBox="0 0 24 24">
  <path d="M8.44668194,15.5789388 L8.98994949,19.3818117 C9.07601137,19.9842448 8.60854935,20.523233 8,20.523233 L5,20.523233 C4.55351964,20.523233 4.16113364,20.2272557 4.03847605,19.7979542 L2.44140644,14.2082105 C1.00660482,13.6005952 8.8817842e-15,12.1794667 8.8817842e-15,10.523233 C8.8817842e-15,8.31409405 1.790861,6.52323304 4,6.52323304 L5.8074176,6.52323304 L14.2572186,3.14331262 C15.2827857,2.73308581 16.4467266,3.23191762 16.8569534,4.25748465 C16.9514496,4.4937252 17,4.74582715 17,5.00026601 L17,16.0462001 C17,17.1507696 16.1045695,18.0462001 15,18.0462001 C14.7455611,18.0462001 14.4934592,17.9976497 14.2572186,17.9031535 L8.44668194,15.5789388 L8.44668194,15.5789388 Z M6.30393411,14.7218397 L5.8074176,14.523233 L4.61144427,14.523233 L5.75430141,18.523233 L6.84699031,18.523233 L6.30393411,14.7218397 L6.30393411,14.7218397 Z M7,8.20026601 L7,12.8462001 L15,16.0462001 L15,5.00026601 L7,8.20026601 Z M5,8.52323304 L4,8.52323304 C2.8954305,8.52323304 2,9.41866355 2,10.523233 C2,11.6278025 2.8954305,12.523233 4,12.523233 L5,12.523233 L5,8.52323304 Z M19.3257652,7.60135111 C18.8025546,7.77818177 18.235059,7.49738533 18.0582284,6.9741747 C17.8813977,6.45096407 18.1621941,5.88346848 18.6854048,5.70663782 L22.6208107,4.3765799 C23.1440213,4.19974924 23.7115169,4.48054568 23.8883476,5.00375631 C24.0651782,5.52696693 23.7843818,6.09446253 23.2611712,6.27129319 L19.3257652,7.60135111 Z M19.3257652,13.3765799 L23.2611712,14.7066378 C23.7843818,14.8834685 24.0651782,15.4509641 23.8883476,15.9741747 C23.7115169,16.4973853 23.1440213,16.7781818 22.6208107,16.6013511 L18.6854048,15.2712932 C18.1621941,15.0944625 17.8813977,14.5269669 18.0582284,14.0037563 C18.235059,13.4805457 18.8025546,13.1997492 19.3257652,13.3765799 Z M19,9.52323304 L23,9.52323304 C23.5522847,9.52323304 24,9.97094829 24,10.523233 C24,11.0755178 23.5522847,11.523233 23,11.523233 L19,11.523233 C18.4477153,11.523233 18,11.0755178 18,10.523233 C18,9.97094829 18.4477153,9.52323304 19,9.52323304 Z"/>
</svg>
