<svg xmlns="http://www.w3.org/2000/svg" width="24" height="24" viewBox="0 0 24 24">
  <path d="M16.9168641,4.8582444 C17.0985733,4.81589719 17.2879482,4.79350565 17.4825529,4.79350565 C18.8536289,4.79350565 19.9651057,5.90498242 19.9651057,7.2760585 L19.9651057,17 C19.9651057,20.3137085 17.2788142,23 13.9651057,23 L11.4133735,23 C9.26117082,23 7.27382596,21.8472796 6.20521392,19.9791097 C4.89335764,17.6856845 3.88822939,16.2306594 3.26042225,15.6723792 C2.35295651,14.8654114 2.05341892,13.5736841 2.51311465,12.4496864 C3.07822536,11.0679394 4.60001918,10.3658155 6,10.7957259 L6,5.5 C6,4.11928813 7.11928813,3 8.5,3 C8.68501881,3 8.86534331,3.02009868 9.0389093,3.05823181 C9.2475211,1.88822511 10.2700325,1 11.5,1 C12.7299675,1 13.7524789,1.88822511 13.9610907,3.05823181 C14.1346567,3.02009868 14.3149812,3 14.5,3 C15.6588575,3 16.6335534,3.78848938 16.9168641,4.8582444 L16.9168641,4.8582444 Z M15,11.5742164 L15,5.5 C15,5.22385763 14.7761424,5 14.5,5 C14.2238576,5 14,5.22385763 14,5.5 L14,11 C14,11.5522847 13.5522847,12 13,12 C12.4477153,12 12,11.5522847 12,11 L12,3.5 C12,3.22385763 11.7761424,3 11.5,3 C11.2238576,3 11,3.22385763 11,3.5 L11,10.5040305 C11,11.0563153 10.5522847,11.5040305 10,11.5040305 C9.44771525,11.5040305 9,11.0563153 9,10.5040305 L9,5.5 C9,5.22385763 8.77614237,5 8.5,5 C8.22385763,5 8,5.22385763 8,5.5 L8,12 C8,12.0234524 7.99919267,12.0467162 7.99760429,12.0697652 C8.58892426,12.6532042 9.12795862,13.3995609 9.61876828,14.303955 C10.2837765,14.0635928 11.0266324,13.9453309 11.8417031,13.9453309 C12.3939878,13.9453309 12.8417031,14.3930462 12.8417031,14.9453309 C12.8417031,15.4976157 12.3939878,15.9453309 11.8417031,15.9453309 C10.9555767,15.9453309 10.2494042,16.1268287 9.70296741,16.4760473 C9.19121231,16.8031015 8.50846156,16.6021985 8.25540341,16.0500941 C7.4204752,14.2285068 6.48336653,13.1414922 5.48922415,12.7349051 C5.04825207,12.5545937 4.54460628,12.7658633 4.3642787,13.2067806 C4.2257647,13.5454599 4.31602037,13.9346789 4.58945495,14.1778318 C5.43078867,14.9259914 6.52452837,16.5092906 7.94126614,18.9860726 C8.6536742,20.2315193 9.9785716,21 11.4133735,21 L13.9651057,21 C16.1742447,21 17.9651057,19.209139 17.9651057,17 L17.9651057,7.2760585 C17.9651057,7.00955192 17.7490594,6.79350565 17.4825529,6.79350565 C17.2160463,6.79350565 17,7.00955192 17,7.2760585 L17,11.5742164 C17,12.1265012 16.5522847,12.5742164 16,12.5742164 C15.4477153,12.5742164 15,12.1265012 15,11.5742164 Z"/>
</svg>
