<svg xmlns="http://www.w3.org/2000/svg" width="24" height="24" viewBox="0 0 24 24">
  <path d="M18.9838199,14.6640449 C19.8227432,15.2194555 20.4468064,16.0866741 20.6796061,17.124484 L21.4016594,20.343363 C21.76431,21.9600419 20.7477192,23.5646055 19.1310403,23.927256 C18.9155069,23.9756041 18.6952929,24 18.4744034,24 L13.5256183,24 C11.868764,24 10.5256183,22.6568542 10.5256183,21 C10.5256183,20.7791104 10.5500141,20.5588965 10.5983622,20.343363 L11.3204156,17.124484 C11.553214,16.0866797 12.1772717,15.2194649 13.0161882,14.6640538 C12.3841911,13.9566919 12,13.0232123 12,12 L12,11.9915666 L8.98945304,11.9830996 C7.39148306,14.0257067 6.36395528,14.9689298 5.42041285,14.9689298 C4.21730868,14.9689298 3.73261234,13.9613229 3.52624548,12.007255 C2.09124041,11.7795115 1,10.5371099 1,9.04455886 L1,4 C1,2.34314575 2.34314575,1 4,1 L13,1 C14.6568542,1 16,2.34314575 16,4 L16,8 C18.209139,8 20,9.790861 20,12 C20,13.0232079 19.6158122,13.956684 18.9838199,14.6640449 L18.9838199,14.6640449 Z M14,8.53512878 L14,4 C14,3.44771525 13.5522847,3 13,3 L4,3 C3.44771525,3 3,3.44771525 3,4 L3,9.04455886 C3,9.5880657 3.43410354,10.0320612 3.97747245,10.0443051 L4.47448368,10.0555044 C4.99422305,10.0672158 5.41830065,10.4752123 5.45008535,10.994111 C5.49553605,11.7361132 5.57151309,12.3116227 5.66986372,12.7071615 C5.73772898,12.6477357 5.81094479,12.5800906 5.88904126,12.5043367 C6.36133293,12.0462121 6.9703217,11.3336285 7.70631801,10.3733862 C7.89615937,10.1257032 8.19074546,9.98084533 8.50281244,9.981723 L12.5391439,9.993075 C12.8902607,9.38889437 13.3950538,8.88507127 14,8.53512878 L14,8.53512878 Z M15,16.0124242 C14.1608683,16.106249 13.460272,16.722576 13.2719196,17.562242 L12.5498663,20.781121 C12.5337502,20.8529655 12.5256183,20.9263701 12.5256183,21 C12.5256183,21.5522847 12.9733335,22 13.5256183,22 L18.4744034,22 C18.5480332,22 18.6214379,21.991868 18.6932823,21.975752 C19.2321753,21.8548685 19.5710389,21.320014 19.4501554,20.781121 L18.7281021,17.562242 C18.539748,16.7225688 17.8391413,16.1062384 17,16.0124242 L17,18 C17,18.5522847 16.5522847,19 16,19 C15.4477153,19 15,18.5522847 15,18 L15,16.0124242 L15,16.0124242 Z M5,4 L12,4 C12.5522847,4 13,4.44771525 13,5 C13,5.55228475 12.5522847,6 12,6 L5,6 C4.44771525,6 4,5.55228475 4,5 C4,4.44771525 4.44771525,4 5,4 Z M5,7 L10,7 C10.5522847,7 11,7.44771525 11,8 C11,8.55228475 10.5522847,9 10,9 L5,9 C4.44771525,9 4,8.55228475 4,8 C4,7.44771525 4.44771525,7 5,7 Z M16,14 C17.1045695,14 18,13.1045695 18,12 C18,10.8954305 17.1045695,10 16,10 C14.8954305,10 14,10.8954305 14,12 C14,13.1045695 14.8954305,14 16,14 Z"/>
</svg>
