<svg xmlns="http://www.w3.org/2000/svg" width="24" height="24" viewBox="0 0 24 24">
  <path d="M4.02630541,4.29213387 C4.0088774,4.19722857 4,4.09984951 4,4 C4,2.0087429 7.53060016,1 12,1 C16.4693998,1 20,2.0087429 20,4 C20,4.10114546 19.9908907,4.19975593 19.9730117,4.29582797 L19.9716751,4.3103092 L19.0007414,13.0487129 L19.0395798,15.9511627 C21.4575985,16.7290564 23,17.952005 23,19.5 C23,22.270638 18.0589656,24 12,24 C5.94103439,24 1,22.270638 1,19.5 C1,17.9455688 2.55525392,16.7188926 4.99062592,15.941483 L4.99982358,13.0537973 L4.02630541,4.29213387 Z M9.57737751,6.8914543 L9.93245293,12.912859 C10.2818092,12.9523132 10.6376484,12.9814327 11,13.0001968 L11,6.98258944 C10.5098526,6.96520637 10.0343762,6.93481515 9.57737751,6.8914543 Z M14.422623,6.89145425 C13.9656242,6.93481513 13.4901476,6.96520637 13,6.98258944 L13,13.0001985 C13.3623518,12.9814327 13.7181912,12.9523132 14.0675476,12.912859 L14.422623,6.89145425 Z M17.7469921,6.22168563 C17.3535163,6.36253892 16.9169025,6.48435937 16.4440032,6.58707763 L16.092333,12.5507363 C16.4268478,12.467133 16.7544923,12.3725214 17.0752989,12.2669248 L17.7469921,6.22168563 Z M6.25300786,6.22168563 L6.9247011,12.2669248 C7.2455079,12.3725215 7.5731525,12.4671331 7.90766752,12.5507365 L7.55599732,6.58707774 C7.08309781,6.48435946 6.6464838,6.36253897 6.25300786,6.22168563 Z M6.99561545,14.3781607 L6.98425751,17.9440855 C8.65470854,18.6437397 10.3257412,18.9942447 12.0033886,18.9999297 C13.6802401,19.005612 15.366115,18.6667962 17.0665355,17.9789785 L17.0183,14.3742717 C15.465087,14.8091 13.7915376,15.0256816 12,15.0256816 C10.2138113,15.0256816 8.54490741,14.8103913 6.99561545,14.3781607 L6.99561545,14.3781607 Z M19.0681954,18.0896419 L19.0737273,18.5030535 C19.0800492,18.9754975 18.8040081,19.4061843 18.3720994,19.5977522 C16.2521149,20.5377141 14.1246418,21.0071294 11.9966114,20.9999182 C9.86002974,20.992678 7.74237672,20.5050195 5.65166147,19.5426896 C5.24259432,19.3544011 4.98106201,18.9446805 4.98249468,18.4943587 L4.98384752,18.0696226 C3.66495097,18.5727263 3,19.1453511 3,19.5 C3,19.8785393 3.75755509,20.5054107 5.25928261,21.0310154 C7.00878688,21.6433419 9.41802839,22 12,22 C14.5819716,22 16.9912131,21.6433419 18.7407174,21.0310154 C20.2424449,20.5054107 21,19.8785393 21,19.5 C21,19.1500467 20.3525405,18.5878512 19.0681954,18.0896419 L19.0681954,18.0896419 Z M12,18 C11.4477153,18 11,17.5522847 11,17 C11,16.4477153 11.4477153,16 12,16 C12.5522847,16 13,16.4477153 13,17 C13,17.5522847 12.5522847,18 12,18 Z M9,17.5 C8.44771525,17.5 8,17.0522847 8,16.5 C8,15.9477153 8.44771525,15.5 9,15.5 C9.55228475,15.5 10,15.9477153 10,16.5 C10,17.0522847 9.55228475,17.5 9,17.5 Z M15,17.5 C14.4477153,17.5 14,17.0522847 14,16.5 C14,15.9477153 14.4477153,15.5 15,15.5 C15.5522847,15.5 16,15.9477153 16,16.5 C16,17.0522847 15.5522847,17.5 15,17.5 Z M7.32497366,4.45268961 C8.53307561,4.7978616 10.2057566,5 12,5 C13.7942434,5 15.4669244,4.7978616 16.6750263,4.45268961 C17.1666504,4.3122256 17.5548843,4.15463393 17.8113962,4 C17.5548843,3.84536607 17.1666504,3.6877744 16.6750263,3.54731039 C15.4669244,3.2021384 13.7942434,3 12,3 C10.2057566,3 8.53307561,3.2021384 7.32497366,3.54731039 C6.83334959,3.6877744 6.44511574,3.84536607 6.18860384,4 C6.44511574,4.15463393 6.83334959,4.3122256 7.32497366,4.45268961 Z"/>
</svg>
