<svg xmlns="http://www.w3.org/2000/svg" width="24" height="24" viewBox="0 0 24 24">
  <path d="M2.38866117,6.9636127 C2.30183097,6.69072829 2.26236957,6.39768834 2.27944874,6.09476061 C2.28537574,5.98963542 2.29816438,5.88500974 2.31773297,5.78155199 C2.57524786,4.42008914 3.63850499,3.35420887 4.99932918,3.09334006 L12.9297323,1.57308873 C13.9917954,1.36949217 15.0910409,1.60459261 15.9769128,2.22480255 L21.5735241,6.1430595 C21.8408149,6.33019305 22,6.63596102 22,6.96224816 L22,12.4870373 C22,12.4944034 22,12.501751 21.9997619,12.5090791 L21.9997619,13.5248807 C21.9997619,14.0066855 21.6562028,14.4199903 21.1825118,14.5080401 L15.5602908,15.5531002 L16.6205602,20.99 L17,20.99 C17.5522847,20.99 18,21.4377153 18,21.99 C18,22.5387549 17.5579895,22.9842727 17.0105767,22.9899452 L17.0125375,23 L2.75890458,23 L2.75695445,22.99 L2,22.99 C1.44771525,22.99 1,22.5422847 1,21.99 C1,21.4377153 1.44771525,20.99 2,20.99 L2.36692727,20.99 L0.0195506631,8.95300996 C-0.138988048,8.13989436 0.391651365,7.35221291 1.20476696,7.1936742 L2.38866117,6.9636127 L2.38866117,6.9636127 Z M14.2629336,8.9004497 L14.6489091,8.9449013 C15.1975673,9.00808857 15.5911192,9.50408732 15.527932,10.0527455 C15.4647447,10.6014037 14.9687459,10.9949557 14.4200877,10.9317684 L9.94703224,10.4166204 C9.62688352,10.3797499 9.33050273,10.590362 9.26001545,10.9048238 C9.17698004,11.275266 9.36552425,11.6530929 9.71145505,11.8094713 L13.2371128,13.4032481 C13.7957596,13.6557849 14.4183668,13.7311033 15.0211173,13.6190639 L19.9997619,12.693632 L19.9997619,9.81944005 C19.9997619,9.81207392 19.9998415,9.80472638 20,9.79739826 L20,7.48285579 L14.8298646,3.86317987 C14.3869286,3.5530749 13.8373058,3.43552468 13.3062743,3.53732296 L5.37587117,5.0575743 C4.82121775,5.16390087 4.38784862,5.59833916 4.28288906,6.15325288 C4.27950966,6.17111954 4.27730112,6.18918789 4.27627756,6.20734251 C4.26812487,6.35194418 4.33457383,6.48349956 4.44217451,6.56456153 L11.9938978,5.09706487 C12.8067739,4.93905776 13.593913,5.46966076 13.7523805,6.28241117 L14.2629336,8.9004497 Z M13.5277541,15.5794508 C13.14578,15.5059265 12.7716325,15.387685 12.4132764,15.2256897 L8.88761863,13.6319129 C7.6775215,13.0848874 7.01797686,11.7632147 7.30844222,10.4673745 C7.60263592,9.15490119 8.83964448,8.27586625 10.1758536,8.42975332 L12.1784423,8.66038528 L11.884999,7.15565272 L2.07840184,9.06159592 L4.40655285,21 L14.5848349,21 L13.5277541,15.5794508 Z"/>
</svg>
