<svg xmlns="http://www.w3.org/2000/svg" width="24" height="24" viewBox="0 0 24 24">
  <path d="M3,20 C1.8954305,20 1,19.1045695 1,18 L1,6 C1,4.8954305 1.8954305,4 3,4 L21,4 C22.1045695,4 23,4.8954305 23,6 L23,18 C23,19.1045695 22.1045695,20 21,20 L3,20 Z M21,18 L21,6 L3,6 L3,18 L5.21922359,18 L5.84049141,15.5149287 C6.06307491,14.6245947 6.86304112,14 7.78077641,14 L16.2192236,14 C17.1369589,14 17.9369251,14.6245947 18.1595086,15.5149287 L18.7807764,18 L21,18 Z M16.2192236,16 L7.78077641,16 L7.28077641,18 L16.7192236,18 L16.2192236,16 Z M15.5,13 C14.1192881,13 13,11.8807119 13,10.5 C13,9.11928813 14.1192881,8 15.5,8 C16.8807119,8 18,9.11928813 18,10.5 C18,11.8807119 16.8807119,13 15.5,13 Z M15.5,11 C15.7761424,11 16,10.7761424 16,10.5 C16,10.2238576 15.7761424,10 15.5,10 C15.2238576,10 15,10.2238576 15,10.5 C15,10.7761424 15.2238576,11 15.5,11 Z M8.5,13 C7.11928813,13 6,11.8807119 6,10.5 C6,9.11928813 7.11928813,8 8.5,8 C9.88071187,8 11,9.11928813 11,10.5 C11,11.8807119 9.88071187,13 8.5,13 Z M8.5,11 C8.77614237,11 9,10.7761424 9,10.5 C9,10.2238576 8.77614237,10 8.5,10 C8.22385763,10 8,10.2238576 8,10.5 C8,10.7761424 8.22385763,11 8.5,11 Z"/>
</svg>
