<svg xmlns="http://www.w3.org/2000/svg" width="24" height="24" viewBox="0 0 24 24">
  <path d="M6,2 L18,2 C20.209139,2 22,3.790861 22,6 L22,18 C22,20.209139 20.209139,22 18,22 L6,22 C3.790861,22 2,20.209139 2,18 L2,6 C2,3.790861 3.790861,2 6,2 Z M6,4 C4.8954305,4 4,4.8954305 4,6 L4,18 C4,19.1045695 4.8954305,20 6,20 L18,20 C19.1045695,20 20,19.1045695 20,18 L20,6 C20,4.8954305 19.1045695,4 18,4 L6,4 Z M6,19 C5.44771525,19 5,18.5522847 5,18 C5,17.4477153 5.44771525,17 6,17 C6.55228475,17 7,17.4477153 7,18 C7,18.5522847 6.55228475,19 6,19 Z M6,16 C5.44771525,16 5,15.5522847 5,15 C5,14.4477153 5.44771525,14 6,14 C6.55228475,14 7,14.4477153 7,15 C7,15.5522847 6.55228475,16 6,16 Z M5,9 C5,8.44771525 5.44771525,8 6,8 C6.55228475,8 7,8.44771525 7,9 L7,12 C7,12.5522847 6.55228475,13 6,13 C5.44771525,13 5,12.5522847 5,12 L5,9 Z M18,5 C18.5522847,5 19,5.44771525 19,6 C19,6.55228475 18.5522847,7 18,7 L9,7 C8.44771525,7 8,6.55228475 8,6 C8,5.44771525 8.44771525,5 9,5 L18,5 Z M10,16 C10.5522847,16 11,16.4477153 11,17 L11,18 C11,18.5522847 10.5522847,19 10,19 L9,19 C8.44771525,19 8,18.5522847 8,18 L8,17 C8,16.4477153 8.44771525,16 9,16 L10,16 Z M10,12 C10.5522847,12 11,12.4477153 11,13 L11,14 C11,14.5522847 10.5522847,15 10,15 L9,15 C8.44771525,15 8,14.5522847 8,14 L8,13 C8,12.4477153 8.44771525,12 9,12 L10,12 Z M17,16 L18,16 C18.5522847,16 19,16.4477153 19,17 L19,18 C19,18.5522847 18.5522847,19 18,19 L17,19 C16.4477153,19 16,18.5522847 16,18 L16,17 C16,16.4477153 16.4477153,16 17,16 Z M17,12 L18,12 C18.5522847,12 19,12.4477153 19,13 L19,14 C19,14.5522847 18.5522847,15 18,15 L17,15 C16.4477153,15 16,14.5522847 16,14 L16,13 C16,12.4477153 16.4477153,12 17,12 Z M13,16 L14,16 C14.5522847,16 15,16.4477153 15,17 L15,18 C15,18.5522847 14.5522847,19 14,19 L13,19 C12.4477153,19 12,18.5522847 12,18 L12,17 C12,16.4477153 12.4477153,16 13,16 Z M13,12 L14,12 C14.5522847,12 15,12.4477153 15,13 L15,14 C15,14.5522847 14.5522847,15 14,15 L13,15 C12.4477153,15 12,14.5522847 12,14 L12,13 C12,12.4477153 12.4477153,12 13,12 Z M10,8 C10.5522847,8 11,8.44771525 11,9 L11,10 C11,10.5522847 10.5522847,11 10,11 L9,11 C8.44771525,11 8,10.5522847 8,10 L8,9 C8,8.44771525 8.44771525,8 9,8 L10,8 Z M17,8 L18,8 C18.5522847,8 19,8.44771525 19,9 L19,10 C19,10.5522847 18.5522847,11 18,11 L17,11 C16.4477153,11 16,10.5522847 16,10 L16,9 C16,8.44771525 16.4477153,8 17,8 Z M13,8 L14,8 C14.5522847,8 15,8.44771525 15,9 L15,10 C15,10.5522847 14.5522847,11 14,11 L13,11 C12.4477153,11 12,10.5522847 12,10 L12,9 C12,8.44771525 12.4477153,8 13,8 Z"/>
</svg>
