<svg xmlns="http://www.w3.org/2000/svg" width="24" height="24" viewBox="0 0 24 24">
  <path d="M18,10.8292943 C16.8348076,10.4174579 16,9.30621883 16,8 C16,6.69378117 16.8348076,5.58254212 18,5.17070571 L18,4 C18,3.44771525 18.4477153,3 19,3 C19.5522847,3 20,3.44771525 20,4 L20,5.17070571 C21.1651924,5.58254212 22,6.69378117 22,8 C22,9.30621883 21.1651924,10.4174579 20,10.8292943 L20,20 C20,20.5522847 19.5522847,21 19,21 C18.4477153,21 18,20.5522847 18,20 L18,10.8292943 Z M9,16 C9,14.6937812 9.83480763,13.5825421 11,13.1707057 L11,4 C11,3.44771525 11.4477153,3 12,3 C12.5522847,3 13,3.44771525 13,4 L13,13.1707057 C14.1651924,13.5825421 15,14.6937812 15,16 C15,17.3062188 14.1651924,18.4174579 13,18.8292943 L13,20 C13,20.5522847 12.5522847,21 12,21 C11.4477153,21 11,20.5522847 11,20 L11,18.8292943 C9.83480763,18.4174579 9,17.3062188 9,16 Z M2,12 C2,10.6937812 2.83480763,9.58254212 4,9.17070571 L4,4 C4,3.44771525 4.44771525,3 5,3 C5.55228475,3 6,3.44771525 6,4 L6,9.17070571 C7.16519237,9.58254212 8,10.6937812 8,12 C8,13.3062188 7.16519237,14.4174579 6,14.8292943 L6,20 C6,20.5522847 5.55228475,21 5,21 C4.44771525,21 4,20.5522847 4,20 L4,14.8292943 C2.83480763,14.4174579 2,13.3062188 2,12 Z M5,13 C5.55228475,13 6,12.5522847 6,12 C6,11.4477153 5.55228475,11 5,11 C4.44771525,11 4,11.4477153 4,12 C4,12.5522847 4.44771525,13 5,13 Z M12,17 C12.5522847,17 13,16.5522847 13,16 C13,15.4477153 12.5522847,15 12,15 C11.4477153,15 11,15.4477153 11,16 C11,16.5522847 11.4477153,17 12,17 Z M19,9 C19.5522847,9 20,8.55228475 20,8 C20,7.44771525 19.5522847,7 19,7 C18.4477153,7 18,7.44771525 18,8 C18,8.55228475 18.4477153,9 19,9 Z"/>
</svg>
