<svg xmlns="http://www.w3.org/2000/svg" width="24" height="24" viewBox="0 0 24 24">
  <path d="M6.43021172,19.3156908 C7.73713017,18.5611411 8.29134902,17.2636825 7.85043673,16.5 C7.40952444,15.7363175 6.00878293,15.5675558 4.70186448,16.3221055 C3.39494603,17.0766553 2.84072718,18.3741138 3.28163947,19.1377963 C3.72255176,19.9014788 5.12329328,20.0702405 6.43021172,19.3156908 Z M8,2.97061363 C8,2.16885741 8.89622056,1.6930993 9.56030456,2.14232697 L12.5603046,4.17171333 C13.0177547,4.48116099 13.1377343,5.10285446 12.8282867,5.56030456 C12.518839,6.01775465 11.8971455,6.13773433 11.4396954,5.82828667 L10,4.85438723 L10,16.9337121 C10.0707352,18.4700762 9.07258975,20.0995142 7.43021172,21.0477416 C5.25726787,22.3022913 2.61550095,21.9840106 1.54958867,20.1377963 C0.483676377,18.2915821 1.52892063,15.8446045 3.70186448,14.5900547 C5.12494099,13.7684411 6.7490973,13.6214199 8,14.1363797 L8,2.97061363 Z M21,8 C21.5522847,8 22,8.44771525 22,9 C22,9.55228475 21.5522847,10 21,10 L13,10 C12.4477153,10 12,9.55228475 12,9 C12,8.44771525 12.4477153,8 13,8 L21,8 Z M21,12 C21.5522847,12 22,12.4477153 22,13 C22,13.5522847 21.5522847,14 21,14 L13,14 C12.4477153,14 12,13.5522847 12,13 C12,12.4477153 12.4477153,12 13,12 L21,12 Z M21,16 C21.5522847,16 22,16.4477153 22,17 C22,17.5522847 21.5522847,18 21,18 L13,18 C12.4477153,18 12,17.5522847 12,17 C12,16.4477153 12.4477153,16 13,16 L21,16 Z"/>
</svg>
