<?xml version="1.0" encoding="UTF-8"?>
<svg width="24px" height="24px" viewBox="0 0 24 24" version="1.1" xmlns="http://www.w3.org/2000/svg" xmlns:xlink="http://www.w3.org/1999/xlink">
    <!-- Generator: Sketch 55.2 (78181) - https://sketchapp.com -->
    <title>jollycons-beauty/jollycons-beauty/svg/icon-beauty-makeup-brush</title>
    <desc>Created with Sketch.</desc>
    <g id="icons" stroke="none" stroke-width="1" fill="none" fill-rule="evenodd">
        <g id="icons---export" transform="translate(-252.000000, -138.000000)">
            <g id="row-2" transform="translate(60.000000, 138.000000)" fill="#000000" fill-rule="nonzero">
                <g id="icon---9" transform="translate(192.000000, 0.000000)">
                    <path d="M14.372617,11.7159816 L14.6591139,12.0024785 L21.0230749,9.88115815 L14.1189324,2.9770156 L11.997612,9.34097664 L12.570096,9.91346065 L13.3477069,8.17496484 C13.5450204,7.7338332 14.0625824,7.53617957 14.5037141,7.73349309 C14.9448457,7.93080661 15.1424994,8.44836867 14.9451858,8.88950031 L14.5798904,9.7061872 L16.3737236,8.90382455 C16.8148553,8.70651103 17.3324173,8.90416466 17.5297309,9.3452963 C17.7270444,9.78642794 17.5293907,10.30399 17.0882591,10.5013035 L14.372617,11.7159816 L14.372617,11.7159816 Z M7.31801948,14.56066 L3.42893219,18.4497473 C2.84314575,19.0355337 2.84314575,19.9852812 3.42893219,20.5710676 C4.01471863,21.156854 4.96446609,21.156854 5.55025253,20.5710676 L9.43933983,16.6819803 L7.31801948,14.56066 L7.31801948,14.56066 Z M8.73223305,13.1464464 L10.8535534,15.2677667 L12.9748737,13.1464464 L10.8535534,11.0251261 L8.73223305,13.1464464 L8.73223305,13.1464464 Z M14.9290685,14.0206787 L6.96446609,21.9852812 C5.59763107,23.3521162 3.38155365,23.3521162 2.01471863,21.9852812 C0.647883605,20.6184461 0.647883605,18.4023687 2.01471863,17.0355337 L9.97950255,9.07074977 L12.2215658,2.34456007 C12.5708613,1.29667344 13.7035013,0.730353464 14.7513879,1.07964901 C15.0459448,1.17783463 15.3135962,1.34325232 15.5331459,1.56280204 L22.4372885,8.46694459 C23.2183371,9.24799317 23.2183371,10.5143231 22.4372885,11.2953717 C22.2177388,11.5149214 21.9500873,11.6803391 21.6555305,11.7785247 L14.9290685,14.0206787 L14.9290685,14.0206787 Z" id="makeup-brush"></path>
                </g>
            </g>
            <g id="slices" transform="translate(60.000000, 58.000000)"></g>
        </g>
    </g>
</svg>