<?xml version="1.0" encoding="UTF-8"?>
<svg width="24px" height="24px" viewBox="0 0 24 24" version="1.1" xmlns="http://www.w3.org/2000/svg" xmlns:xlink="http://www.w3.org/1999/xlink">
    <!-- Generator: Sketch 55.2 (78181) - https://sketchapp.com -->
    <title>jollycons-beauty/jollycons-beauty/svg/icon-beauty-mascara</title>
    <desc>Created with Sketch.</desc>
    <g id="icons" stroke="none" stroke-width="1" fill="none" fill-rule="evenodd">
        <g id="icons---export" transform="translate(-188.000000, -138.000000)">
            <g id="row-2" transform="translate(60.000000, 138.000000)" fill="#000000">
                <g id="icon---8" transform="translate(128.000000, 0.000000)">
                    <path d="M18.8890875,3.69669891 L18.5355341,3.34314552 C18.1450098,2.95262122 18.1450098,2.31945624 18.5355341,1.92893195 C18.9260584,1.53840766 19.5592233,1.53840766 19.9497476,1.92893195 L20.303301,2.28248534 L21.1317282,1.45405822 C21.5222524,1.06353393 22.1554174,1.06353393 22.5459417,1.45405822 C22.936466,1.84458251 22.936466,2.47774749 22.5459417,2.86827178 L21.7175146,3.69669891 L22.071068,4.0502523 C22.4615923,4.44077659 22.4615923,5.07394157 22.071068,5.46446586 C21.6805437,5.85499015 21.0473787,5.85499015 20.6568544,5.46446586 L20.303301,5.11091247 L19.5961942,5.81801925 L20.303301,6.52512603 C20.6938253,6.91565032 20.6938253,7.5488153 20.303301,7.93933959 C19.9127767,8.32986388 19.2796118,8.32986388 18.8890875,7.93933959 L18.1819807,7.23223281 L17.4748739,7.93933959 L18.1819807,8.64644637 C18.572505,9.03697067 18.572505,9.67013564 18.1819807,10.0606599 C17.7914564,10.4511842 17.1582914,10.4511842 16.7677671,10.0606599 L16.0606603,9.35355316 L14.0606603,11.3535532 L14.7677671,12.0606599 C15.1582914,12.4511842 15.1582914,13.0843492 14.7677671,13.4748735 L13.0104078,15.2322328 L13.4770983,15.6989233 C14.0004008,16.2222258 14.0004008,17.0706669 13.4770983,17.5939695 L9.47487391,21.5961938 C7.52225245,23.5488153 4.35642755,23.5488153 2.40380609,21.5961938 C0.451184635,19.6435724 0.451184635,16.4777475 2.40380609,14.525126 L6.40603048,10.5229016 C6.92933303,9.9995991 7.7777741,9.9995991 8.30107665,10.5229016 L8.76776712,10.9895921 L10.5251264,9.23223281 C10.9156507,8.84170852 11.5488157,8.84170852 11.93934,9.23223281 L12.6464468,9.93933959 L14.6464468,7.93933959 L13.93934,7.23223281 C13.5488157,6.84170852 13.5488157,6.20854354 13.93934,5.81801925 C14.3298643,5.42749496 14.9630293,5.42749496 15.3535536,5.81801925 L16.0606603,6.52512603 L16.7677671,5.81801925 L16.0606603,5.11091247 C15.6701361,4.72038818 15.6701361,4.0872232 16.0606603,3.69669891 C16.4511846,3.30617461 17.0843496,3.30617461 17.4748739,3.69669891 L18.1819807,4.40380569 L18.8890875,3.69669891 Z M11.5953592,13.8188543 L12.6464468,12.7677667 L11.2322332,11.3535532 L10.1824655,12.4033208 L11.5953592,13.8188543 Z M7.35355356,12.4038057 L3.81801966,15.9393396 C2.64644678,17.1109125 2.64644678,19.0104074 3.81801966,20.1819803 C4.98959253,21.3535532 6.88908747,21.3535532 8.06066034,20.1819803 L11.5961942,16.6464464 L7.35355356,12.4038057 Z" id="mascara"></path>
                </g>
            </g>
            <g id="slices" transform="translate(60.000000, 58.000000)"></g>
        </g>
    </g>
</svg>