<?xml version="1.0" encoding="UTF-8"?>
<svg width="24px" height="24px" viewBox="0 0 24 24" version="1.1" xmlns="http://www.w3.org/2000/svg" xmlns:xlink="http://www.w3.org/1999/xlink">
    <!-- Generator: Sketch 55.2 (78181) - https://sketchapp.com -->
    <title>jollycons-beauty/jollycons-beauty/svg/icon-beauty-nail</title>
    <desc>Created with Sketch.</desc>
    <g id="icons" stroke="none" stroke-width="1" fill="none" fill-rule="evenodd">
        <g id="icons---export" transform="translate(-188.000000, -58.000000)">
            <g id="row-1" transform="translate(60.000000, 58.000000)" fill="#000000" fill-rule="nonzero">
                <g id="icon---3" transform="translate(128.000000, 0.000000)">
                    <path d="M7.9375,5.29879265 L7.9375,3.66458641 C7.9375,2.94374377 8.31613842,2.27587845 8.93464829,1.90566063 C9.93469763,1.30706699 10.9607096,1 12,1 C13.0392859,1 14.0652936,1.30706436 15.065301,1.90563028 C15.6838629,2.27584049 16.0625,2.9437456 16.0625,3.66462875 L16.0625,5.29879265 C17.8406972,6.56815314 19,8.64869173 19,11 L19,22 C19,22.5522847 18.5522847,23 18,23 C17.4477153,23 17,22.5522847 17,22 L17,11 C17,9.91205053 16.6525253,8.90525814 16.0625,8.08454701 L16.0625,9.9375 C16.0625,12.1811568 14.2436568,14 12,14 C9.7563432,14 7.9375,12.1811568 7.9375,9.9375 L7.9375,8.08454701 C7.34747473,8.90525814 7,9.91205053 7,11 L7,22 C7,22.5522847 6.55228475,23 6,23 C5.44771525,23 5,22.5522847 5,22 L5,11 C5,8.64869173 6.15930281,6.56815314 7.9375,5.29879265 L7.9375,5.29879265 Z M13.912312,10.7115935 C13.3621734,10.3333923 12.7320706,10.1502915 12,10.1502915 C11.2679294,10.1502915 10.6378266,10.3333923 10.087688,10.7115935 C10.3938165,11.4671085 11.1346765,12 12,12 C12.8653235,12 13.6061835,11.4671085 13.912312,10.7115935 L13.912312,10.7115935 Z M9.41973886,19.7604209 C8.95826819,20.0638401 8.33820236,19.9357142 8.03478308,19.4742435 C7.7313638,19.0127728 7.85948978,18.392707 8.32096045,18.0892877 C9.35861406,17.4070253 10.6533199,17.0751457 12.1851748,17.0751457 C13.7170297,17.0751457 15.0117356,17.4070253 16.0493892,18.0892877 C16.5108599,18.392707 16.6389859,19.0127728 16.3355666,19.4742435 C16.0321473,19.9357142 15.4120815,20.0638401 14.9506108,19.7604209 C14.2651677,19.3097386 13.3499901,19.0751457 12.1851748,19.0751457 C11.0203596,19.0751457 10.105182,19.3097386 9.41973886,19.7604209 Z M14.0625,8.53486209 L14.0625,3.66462875 C14.0625,3.6470482 14.0532715,3.63076932 14.0381631,3.62172694 C13.3370411,3.20206228 12.6618814,3 12,3 C11.3381156,3 10.6629528,3.2020641 9.96182741,3.62173262 C9.94674044,3.63076314 9.9375,3.64706198 9.9375,3.66462284 L9.9375,8.53486209 C10.5703186,8.27960193 11.2598728,8.15029145 12,8.15029145 C12.7401272,8.15029145 13.4296814,8.27960193 14.0625,8.53486209 Z" id="nail"></path>
                </g>
            </g>
            <g id="slices" transform="translate(60.000000, 58.000000)"></g>
        </g>
    </g>
</svg>