<?xml version="1.0" encoding="UTF-8"?>
<svg width="24px" height="24px" viewBox="0 0 24 24" version="1.1" xmlns="http://www.w3.org/2000/svg" xmlns:xlink="http://www.w3.org/1999/xlink">
    <!-- Generator: Sketch 55.2 (78181) - https://sketchapp.com -->
    <title>jollycons-beauty/jollycons-beauty/svg/icon-beauty-razor-blade</title>
    <desc>Created with Sketch.</desc>
    <g id="icons" stroke="none" stroke-width="1" fill="none" fill-rule="evenodd">
        <g id="icons---export" transform="translate(-316.000000, -138.000000)">
            <g id="row-2" transform="translate(60.000000, 138.000000)" fill="#000000">
                <g id="icon---10" transform="translate(256.000000, 0.000000)">
                    <path d="M13.6258695,12.2883441 C13.8651858,12.8944466 13.8068076,13.5216196 13.4142136,13.9142136 C13.0216196,14.3068076 12.3944466,14.3651858 11.7883441,14.1258695 L10.232233,15.6819805 L10.9393398,16.3890873 L9.52512627,17.8033009 L6.69669914,14.9748737 L8.1109127,13.5606602 L8.81801948,14.267767 L10.3741305,12.7116559 C10.1348142,12.1055534 10.1931924,11.4783804 10.5857864,11.0857864 C10.9783804,10.6931924 11.6055534,10.6348142 12.2116559,10.8741305 L13.767767,9.31801948 C13.3772427,8.92749519 13.3772427,8.29433021 13.767767,7.90380592 C14.1582912,7.51328163 14.7914562,7.51328163 15.1819805,7.90380592 L16.5961941,9.31801948 C16.9867184,9.70854378 16.9867184,10.3417088 16.5961941,10.732233 C16.2056698,11.1227573 15.5725048,11.1227573 15.1819805,10.732233 L13.6258695,12.2883441 L13.6258695,12.2883441 Z M18.0104076,2.24695167 L22.2530483,6.48959236 C23.0340969,7.27064094 23.0340969,8.5369709 22.2530483,9.31801948 C23.0340969,10.0990681 23.0340969,11.365398 22.2530483,12.1464466 L11.6464466,22.7530483 C10.865398,23.5340969 9.59906807,23.5340969 8.81801948,22.7530483 C8.0369709,23.5340969 6.77064094,23.5340969 5.98959236,22.7530483 L1.74695167,18.5104076 C0.965903089,17.7293591 0.965903089,16.4630291 1.74695167,15.6819805 C0.965903089,14.9009319 0.965903089,13.634602 1.74695167,12.8535534 L12.3535534,2.24695167 C13.134602,1.46590309 14.4009319,1.46590309 15.1819805,2.24695167 C15.9630291,1.46590309 17.2293591,1.46590309 18.0104076,2.24695167 Z M14.4748737,4.36827202 L13.767767,3.66116524 L3.16116524,14.267767 L3.86827202,14.9748737 C4.25879631,15.365398 4.25879631,15.998563 3.86827202,16.3890873 L3.16116524,17.0961941 L7.40380592,21.3388348 L8.1109127,20.631728 C8.501437,20.2412037 9.13460197,20.2412037 9.52512627,20.631728 L10.232233,21.3388348 L20.8388348,10.732233 L20.131728,10.0251263 C19.7412037,9.63460197 19.7412037,9.001437 20.131728,8.6109127 L20.8388348,7.90380592 L16.5961941,3.66116524 L15.8890873,4.36827202 C15.498563,4.75879631 14.865398,4.75879631 14.4748737,4.36827202 Z" id="razor-blade"></path>
                </g>
            </g>
            <g id="slices" transform="translate(60.000000, 58.000000)"></g>
        </g>
    </g>
</svg>