<?xml version="1.0" encoding="UTF-8"?>
<svg width="24px" height="24px" viewBox="0 0 24 24" version="1.1" xmlns="http://www.w3.org/2000/svg" xmlns:xlink="http://www.w3.org/1999/xlink">
    <!-- Generator: Sketch 55.2 (78181) - https://sketchapp.com -->
    <title>jollycons-beauty/jollycons-beauty/svg/icon-beauty-straight-razor</title>
    <desc>Created with Sketch.</desc>
    <g id="icons" stroke="none" stroke-width="1" fill="none" fill-rule="evenodd">
        <g id="icons---export" transform="translate(-124.000000, -58.000000)">
            <g id="row-1" transform="translate(60.000000, 58.000000)" fill="#000000" fill-rule="nonzero">
                <g id="icon---2" transform="translate(64.000000, 0.000000)">
                    <path d="M7.00595336,12.0585902 L5.07059452,12.5893046 C5.20697512,13.4814164 5.36881863,14.3680653 5.55612554,15.2492751 C5.81010358,16.4441478 6.11091837,17.6291143 6.45859232,18.8042276 L8.35841016,18.2149586 C8.03585491,17.0964822 7.75385263,15.9692994 7.51242074,14.8334517 C7.31700873,13.9141105 7.14818578,12.9891447 7.00595334,12.0585902 L7.00595336,12.0585902 Z M6.74199595,10.0571388 C6.69210925,9.60810312 6.6483098,9.15779394 6.61059779,8.70621515 C6.6080418,8.67565536 6.60356769,8.64531532 6.59720376,8.6153754 C6.5136653,8.22235785 6.12734032,7.97147547 5.73432276,8.05501393 C5.08593158,8.19283373 4.6416151,8.79188098 4.69789851,9.45236164 C4.7302241,9.83167123 4.76702397,10.210016 4.80829815,10.5873977 L6.74199595,10.0571388 L6.74199595,10.0571388 Z M8.95148068,20.1250025 L7.06638065,20.7097065 C7.0874268,20.7711935 7.10860364,20.8326532 7.12991118,20.8940854 C7.34713748,21.520363 7.99669526,21.8869001 8.64508643,21.7490803 C8.67501323,21.7427192 8.70450896,21.7344766 8.7333979,21.7244015 C9.11278669,21.5920897 9.31308466,21.177271 9.1807778,20.7978848 C9.10268035,20.5739495 9.02624793,20.3496553 8.95148069,20.1250025 L8.95148068,20.1250025 Z M8.49929795,7.98648818 L15.1715726,1.31421356 C16.7336697,-0.247883605 19.2663296,-0.247883605 20.8284268,1.31421356 L21.8920361,2.37782281 C22.2825604,2.7683471 22.2825604,3.40151208 21.8920361,3.79203637 L16.0769657,9.60710678 C15.7211757,9.96289673 15.1564375,9.9989196 14.7583256,9.69121868 C12.7778574,8.16051387 11.6110273,7.71463527 11.4731107,7.84784433 C10.9938693,8.32708564 10.2101724,9.1085353 9.12184554,10.1923677 L8.80890958,10.5053037 C8.97407642,11.8211618 9.1940114,13.125245 9.46871594,14.4176283 C9.87960234,16.3506968 10.4130743,18.2578394 11.0692325,20.1392963 C11.5652625,21.5616485 10.8143427,23.1168094 9.39199552,23.6128531 C9.28368889,23.650625 9.17310741,23.6815272 9.06090981,23.7053755 C7.42596706,24.0528933 5.78808899,23.1286598 5.24034574,21.5494803 C4.57385092,19.6278931 4.02986681,17.6799034 3.60848464,15.7057286 L2.93608178,16.3781315 C2.54555749,16.7686558 1.91239251,16.7686558 1.52186822,16.3781315 C1.13134393,15.9876072 1.13134393,15.3544422 1.52186822,14.9639179 L3.16167275,13.3241134 C2.96329465,12.0998574 2.81111053,10.8658633 2.70512147,9.62218412 C2.5632002,7.95675093 3.68355663,6.44623654 5.31849938,6.09871873 C6.71961502,5.8009024 8.09804277,6.63677543 8.49929795,7.98648818 L8.49929795,7.98648818 Z M16.5857861,2.72842712 L13.0647534,6.24945986 C13.7224324,6.5413103 14.4572316,6.9899095 15.275284,7.58036134 L19.7707157,3.08492959 L19.4142133,2.72842712 C18.6331647,1.94737854 17.3668347,1.94737854 16.5857861,2.72842712 Z" id="straight-razor"></path>
                </g>
            </g>
            <g id="slices" transform="translate(60.000000, 58.000000)"></g>
        </g>
    </g>
</svg>