<?xml version="1.0" encoding="UTF-8"?>
<svg width="24px" height="24px" viewBox="0 0 24 24" version="1.1" xmlns="http://www.w3.org/2000/svg" xmlns:xlink="http://www.w3.org/1999/xlink">
    <!-- Generator: Sketch 55.2 (78181) - https://sketchapp.com -->
    <title>jollycons-files-2/icons/svg/icon-files-2-code-1</title>
    <desc>Created with Sketch.</desc>
    <g id="icons" stroke="none" stroke-width="1" fill="none" fill-rule="evenodd">
        <g id="icons---export" transform="translate(-188.000000, -138.000000)">
            <g id="row-2" transform="translate(60.000000, 138.000000)" fill="#000000" fill-rule="nonzero">
                <g id="icon---8" transform="translate(128.000000, 0.000000)">
                    <path d="M5,1 L15.5965861,1 C16.1296935,1 16.6407387,1.2128378 17.0162454,1.59125321 L20.4196593,5.02103078 C20.7913991,5.3956502 21,5.90201795 21,6.42977757 L21,20 C21,21.1045695 20.1045695,22 19,22 L5,22 C3.8954305,22 3,21.1045695 3,20 L3,3 C3,1.8954305 3.8954305,1 5,1 Z M14,3 L5,3 L5,20 L19,20 L19,8 L16,8 C14.8954305,8 14,7.1045695 14,6 L14,3 Z M16,3.40653885 L16,6 L18.573526,6 L16,3.40653885 Z M6.71017692,14.4268098 C5.64752475,14.1050174 5.83444059,12.5813955 6.8829914,12.4755288 C6.90760451,12.3756857 6.92672497,12.2110582 6.92572419,11.9827026 L6.92572419,11.0742758 C6.92572419,9.92868491 7.8544091,9 9,9 C9.55228475,9 10,9.44771525 10,10 C10,10.5522847 9.55228475,11 9,11 C8.9589786,11 8.92572419,11.0332544 8.92572419,11.0742758 L8.92571446,11.9782905 C8.92826534,12.5564361 8.83265992,13.0640761 8.63721932,13.4676796 C8.91053467,13.8817049 9.03720317,14.3903613 9,14.9567565 L9,16 C9.55228475,16 10,16.4477153 10,17 C10,17.5522847 9.55228475,18 9,18 C7.8954305,18 7,17.1045695 7,16 L7.00203768,14.8929504 C7.02229821,14.5760645 6.97607472,14.507329 6.71017692,14.4268098 Z M17.2889894,14.4268098 C17.0230916,14.507329 16.9768681,14.5760645 16.9971286,14.8929504 L16.9991663,16 C16.9991663,17.1045695 16.1037358,18 14.9991663,18 C14.4468815,18 13.9991663,17.5522847 13.9991663,17 C13.9991663,16.4477153 14.4468815,16 14.9991663,16 L14.9991663,14.9567565 C14.9619631,14.3903613 15.0886316,13.8817049 15.361947,13.4676796 C15.1665064,13.0640761 15.070901,12.5564361 15.0734518,11.9782905 L15.0734421,11.0742758 C15.0734421,11.0332544 15.0401877,11 14.9991663,11 C14.4468815,11 13.9991663,10.5522847 13.9991663,10 C13.9991663,9.44771525 14.4468815,9 14.9991663,9 C16.1447572,9 17.0734421,9.92868491 17.0734421,11.0742758 L17.0734421,11.9827026 C17.0724413,12.2110582 17.0915618,12.3756857 17.1161749,12.4755288 C18.1647257,12.5813955 18.3516415,14.1050174 17.2889894,14.4268098 Z M11.996,12.612 C11.6879985,12.612 11.4331677,12.5093344 11.2315,12.304 C11.0298323,12.0986656 10.929,11.8456682 10.929,11.545 C10.929,11.2443318 11.0298323,10.9913344 11.2315,10.786 C11.4331677,10.5806656 11.6879985,10.478 11.996,10.478 C12.2966682,10.478 12.5478323,10.5806656 12.7495,10.786 C12.9511677,10.9913344 13.052,11.2443318 13.052,11.545 C13.052,11.8456682 12.9511677,12.0986656 12.7495,12.304 C12.5478323,12.5093344 12.2966682,12.612 11.996,12.612 Z M11.963,13.932 C12.2856683,13.932 12.5478323,14.0493322 12.7495,14.284 C12.9511677,14.5186678 13.052,14.8523312 13.052,15.285 C13.052,16.1356709 12.7476697,16.8763302 12.139,17.507 C12.0289995,17.6170005 11.9006674,17.672 11.754,17.672 C11.6073326,17.672 11.4790006,17.6225005 11.369,17.5235 C11.2589995,17.4244995 11.204,17.3126673 11.204,17.188 C11.204,17.0706661 11.2516662,16.9643338 11.347,16.869 C11.603668,16.5976653 11.7796662,16.3043349 11.875,15.989 C11.5963319,15.9669999 11.3690009,15.8661676 11.193,15.6865 C11.0169991,15.5068324 10.929,15.2776681 10.929,14.999 C10.929,14.6983318 11.027999,14.4453344 11.226,14.24 C11.424001,14.0346656 11.6696652,13.932 11.963,13.932 Z" id="file-code-1"></path>
                </g>
            </g>
            <g id="slices" transform="translate(60.000000, 58.000000)"></g>
        </g>
    </g>
</svg>