<?xml version="1.0" encoding="UTF-8"?>
<svg width="24px" height="24px" viewBox="0 0 24 24" version="1.1" xmlns="http://www.w3.org/2000/svg" xmlns:xlink="http://www.w3.org/1999/xlink">
    <!-- Generator: Sketch 55.2 (78181) - https://sketchapp.com -->
    <title>jollycons-files-2/icons/svg/icon-files-2-code-2</title>
    <desc>Created with Sketch.</desc>
    <g id="icons" stroke="none" stroke-width="1" fill="none" fill-rule="evenodd">
        <g id="icons---export" transform="translate(-252.000000, -138.000000)">
            <g id="row-2" transform="translate(60.000000, 138.000000)" fill="#000000" fill-rule="nonzero">
                <g id="icon---9" transform="translate(192.000000, 0.000000)">
                    <path d="M5,1 L15.5965861,1 C16.1296935,1 16.6407387,1.2128378 17.0162454,1.59125321 L20.4196593,5.02103078 C20.7913991,5.3956502 21,5.90201795 21,6.42977757 L21,20 C21,21.1045695 20.1045695,22 19,22 L5,22 C3.8954305,22 3,21.1045695 3,20 L3,3 C3,1.8954305 3.8954305,1 5,1 Z M14,3 L5,3 L5,20 L19,20 L19,8 L16,8 C14.8954305,8 14,7.1045695 14,6 L14,3 Z M16,3.40653885 L16,6 L18.573526,6 L16,3.40653885 Z M7.71101064,14.4268098 C6.64835846,14.1050174 6.8352743,12.5813955 7.88382511,12.4755288 C7.90843822,12.3756857 7.92755868,12.2110582 7.9265579,11.9827026 L7.9265579,11.0742758 C7.9265579,9.92868491 8.85524281,9 10.0008337,9 C10.5531185,9 11.0008337,9.44771525 11.0008337,10 C11.0008337,10.5522847 10.5531185,11 10.0008337,11 C9.95981231,11 9.9265579,11.0332544 9.9265579,11.0742758 L9.92654817,11.9782905 C9.92909905,12.5564361 9.83349363,13.0640761 9.63805304,13.4676796 C9.91136839,13.8817049 10.0380369,14.3903613 10.0008337,14.9567565 L10.0008337,16 C10.5531185,16 11.0008337,16.4477153 11.0008337,17 C11.0008337,17.5522847 10.5531185,18 10.0008337,18 C8.89626421,18 8.00083371,17.1045695 8.00083371,16 L8.0028714,14.8929504 C8.02313192,14.5760645 7.97690843,14.507329 7.71101064,14.4268098 Z M16.2898231,14.4268098 C16.0239253,14.507329 15.9777018,14.5760645 15.9979623,14.8929504 L16,16 C16,17.1045695 15.1045695,18 14,18 C13.4477153,18 13,17.5522847 13,17 C13,16.4477153 13.4477153,16 14,16 L14,14.9567565 C13.9627968,14.3903613 14.0894653,13.8817049 14.3627807,13.4676796 C14.1673401,13.0640761 14.0717347,12.5564361 14.0742855,11.9782905 L14.0742758,11.0742758 C14.0742758,11.0332544 14.0410214,11 14,11 C13.4477153,11 13,10.5522847 13,10 C13,9.44771525 13.4477153,9 14,9 C15.1455909,9 16.0742758,9.92868491 16.0742758,11.0742758 L16.0742758,11.9827026 C16.073275,12.2110582 16.0923955,12.3756857 16.1170086,12.4755288 C17.1655594,12.5813955 17.3524753,14.1050174 16.2898231,14.4268098 Z" id="file-code-2"></path>
                </g>
            </g>
            <g id="slices" transform="translate(60.000000, 58.000000)"></g>
        </g>
    </g>
</svg>