<?xml version="1.0" encoding="UTF-8"?>
<svg width="24px" height="24px" viewBox="0 0 24 24" version="1.1" xmlns="http://www.w3.org/2000/svg" xmlns:xlink="http://www.w3.org/1999/xlink">
    <!-- Generator: Sketch 55.2 (78181) - https://sketchapp.com -->
    <title>jollycons-files-1/icons/svg/icon-files-1-file-audio</title>
    <desc>Created with Sketch.</desc>
    <g id="icons" stroke="none" stroke-width="1" fill="none" fill-rule="evenodd">
        <g id="icons---export" transform="translate(-188.000000, -218.000000)">
            <g id="row-3" transform="translate(60.000000, 218.000000)" fill="#000000" fill-rule="nonzero">
                <g id="icon---13" transform="translate(128.000000, 0.000000)">
                    <path d="M5,1 L15.5965861,1 C16.1296935,1 16.6407387,1.2128378 17.0162454,1.59125321 L20.4196593,5.02103078 C20.7913991,5.3956502 21,5.90201795 21,6.42977757 L21,20 C21,21.1045695 20.1045695,22 19,22 L5,22 C3.8954305,22 3,21.1045695 3,20 L3,3 C3,1.8954305 3.8954305,1 5,1 Z M16,3.40653885 L16,6 L18.573526,6 L16,3.40653885 Z M14,3 L5,3 L5,20 L19,20 L19,8 L16,8 C14.8954305,8 14,7.1045695 14,6 L14,3 Z M9,15.9167888 L9,11.9081079 C9,11.2185165 9.47016764,10.6177662 10.1395535,10.452059 L15.1395535,9.21430333 C15.943707,9.01523419 16.7569797,9.50575206 16.9560489,10.3099056 C16.9852415,10.4278314 17,10.5488668 17,10.6703522 L17,16.0005748 C16.9996609,16.8310642 16.421141,17.6245058 15.3496291,17.8916637 C14.2778701,18.1588832 13.2465695,17.7238832 13.0461548,16.9200639 C12.8457402,16.1162446 13.5521044,15.2479961 14.6238635,14.9807765 C14.7469511,14.9500873 14.8731059,14.9289338 15,14.9167888 L15,11.3092204 L11,12.2994249 L11,16.95 L10.998335,16.9499819 C10.9993926,16.9664988 10.9999279,16.9831725 10.9999279,17 C10.9999279,17.8306981 10.4213882,18.6244441 9.34962914,18.8916637 C8.27787007,19.1588832 7.2465695,18.7238832 7.04615484,17.9200639 C6.84574018,17.1162446 7.55210439,16.2479961 8.62386345,15.9807765 C8.74695109,15.9500873 8.87310594,15.9289338 9,15.9167888 L9,15.9167888 Z" id="file-audio"></path>
                </g>
            </g>
            <g id="slices" transform="translate(60.000000, 58.000000)"></g>
        </g>
    </g>
</svg>