<?xml version="1.0" encoding="UTF-8"?>
<svg width="24px" height="24px" viewBox="0 0 24 24" version="1.1" xmlns="http://www.w3.org/2000/svg" xmlns:xlink="http://www.w3.org/1999/xlink">
    <!-- Generator: Sketch 55.2 (78181) - https://sketchapp.com -->
    <title>jollycons-files-1/icons/svg/icon-files-1-file-video1</title>
    <desc>Created with Sketch.</desc>
    <g id="icons" stroke="none" stroke-width="1" fill="none" fill-rule="evenodd">
        <g id="icons---export" transform="translate(-188.000000, -138.000000)">
            <g id="row-2" transform="translate(60.000000, 138.000000)" fill="#000000" fill-rule="nonzero">
                <g id="icon---8" transform="translate(128.000000, 0.000000)">
                    <path d="M5,1 L15.5965861,1 C16.1296935,1 16.6407387,1.2128378 17.0162454,1.59125321 L20.4196593,5.02103078 C20.7913991,5.3956502 21,5.90201795 21,6.42977757 L21,20 C21,21.1045695 20.1045695,22 19,22 L5,22 C3.8954305,22 3,21.1045695 3,20 L3,3 C3,1.8954305 3.8954305,1 5,1 Z M16,3.40653885 L16,6 L18.573526,6 L16,3.40653885 Z M14,3 L5,3 L5,20 L19,20 L19,8 L16,8 C14.8954305,8 14,7.1045695 14,6 L14,3 Z M14,12 L16.2226499,10.5182334 C16.4524142,10.3650572 16.7628489,10.4271441 16.9160251,10.6569084 C16.970781,10.7390422 17,10.8355461 17,10.9342585 L17,16.0657415 C17,16.3418838 16.7761424,16.5657415 16.5,16.5657415 C16.4012875,16.5657415 16.3047837,16.5365224 16.2226499,16.4817666 L14,15 L14,15.5 C14,16.3284271 13.3284271,17 12.5,17 L8.5,17 C7.67157288,17 7,16.3284271 7,15.5 L7,11.5 C7,10.6715729 7.67157288,10 8.5,10 L12.5,10 C13.3284271,10 14,10.6715729 14,11.5 L14,12 Z" id="file-video1"></path>
                </g>
            </g>
            <g id="slices" transform="translate(60.000000, 58.000000)"></g>
        </g>
    </g>
</svg>