<?xml version="1.0" encoding="UTF-8"?>
<svg width="24px" height="24px" viewBox="0 0 24 24" version="1.1" xmlns="http://www.w3.org/2000/svg" xmlns:xlink="http://www.w3.org/1999/xlink">
    <!-- Generator: Sketch 55.2 (78181) - https://sketchapp.com -->
    <title>jollycons-files-1/icons/svg/icon-files-1-file-database</title>
    <desc>Created with Sketch.</desc>
    <g id="icons" stroke="none" stroke-width="1" fill="none" fill-rule="evenodd">
        <g id="icons---export" transform="translate(-60.000000, -58.000000)">
            <g id="row-1" transform="translate(60.000000, 58.000000)" fill="#000000" fill-rule="nonzero">
                <g id="icon---1">
                    <path d="M5,1 L15.5965861,1 C16.1296935,1 16.6407387,1.2128378 17.0162454,1.59125321 L20.4196593,5.02103078 C20.7913991,5.3956502 21,5.90201795 21,6.42977757 L21,20 C21,21.1045695 20.1045695,22 19,22 L5,22 C3.8954305,22 3,21.1045695 3,20 L3,3 C3,1.8954305 3.8954305,1 5,1 Z M14,3 L5,3 L5,20 L19,20 L19,8 L16,8 C14.8954305,8 14,7.1045695 14,6 L14,3 Z M16,3.40653885 L16,6 L18.573526,6 L16,3.40653885 Z M7.18064707,11.1435227 C7.19383047,11.0900299 7.2093204,11.0369634 7.22707836,10.9844006 L7.25406768,10.9935187 C7.92457512,9.74462507 9.83940223,9 12,9 C14.690563,9 17,10.1547185 17,12 L17,16 C17,17.8452815 14.690563,19 12,19 C9.30943703,19 7,17.8452815 7,16 L7,12 C7,11.6949345 7.06312003,11.4087429 7.18064707,11.1435227 L7.18064707,11.1435227 Z M9,13.9054945 L9,16 C9,16.0895041 9.17722212,16.2990042 9.61878647,16.5197864 C10.217417,16.8191017 11.0728005,17 12,17 C12.9271995,17 13.782583,16.8191017 14.3812135,16.5197864 C14.8227779,16.2990042 15,16.0895041 15,16 L15,13.9054945 C14.1644704,14.2726075 13.1170193,14.4750001 12,14.4750001 C10.8829807,14.4750001 9.83552959,14.2726075 9,13.9054945 Z M9.04008634,11.9039543 C9.44984813,12.3053107 10.5834319,12.7250001 12,12.7250001 C13.4165681,12.7250001 14.5501519,12.3053107 14.9599137,11.9039543 C14.885659,11.7970819 14.704115,11.6416643 14.3812135,11.4802136 C13.782583,11.1808983 12.9271995,11 12,11 C11.0728005,11 10.217417,11.1808983 9.61878647,11.4802136 C9.29588504,11.6416643 9.11434099,11.7970819 9.04008634,11.9039543 L9.04008634,11.9039543 Z" id="file-database"></path>
                </g>
            </g>
            <g id="slices" transform="translate(60.000000, 58.000000)"></g>
        </g>
    </g>
</svg>