<?xml version="1.0" encoding="UTF-8"?>
<svg width="24px" height="24px" viewBox="0 0 24 24" version="1.1" xmlns="http://www.w3.org/2000/svg" xmlns:xlink="http://www.w3.org/1999/xlink">
    <!-- Generator: Sketch 55.2 (78181) - https://sketchapp.com -->
    <title>jollycons-files-1/icons/svg/icon-files-1-file-settings</title>
    <desc>Created with Sketch.</desc>
    <g id="icons" stroke="none" stroke-width="1" fill="none" fill-rule="evenodd">
        <g id="icons---export" transform="translate(-316.000000, -218.000000)">
            <g id="row-3" transform="translate(60.000000, 218.000000)" fill="#000000" fill-rule="nonzero">
                <g id="icon---15" transform="translate(256.000000, 0.000000)">
                    <path d="M5,1 L15.5965861,1 C16.1296935,1 16.6407387,1.2128378 17.0162454,1.59125321 L20.4196593,5.02103078 C20.7913991,5.3956502 21,5.90201795 21,6.42977757 L21,20 C21,21.1045695 20.1045695,22 19,22 L5,22 C3.8954305,22 3,21.1045695 3,20 L3,3 C3,1.8954305 3.8954305,1 5,1 Z M16,3.40653885 L16,6 L18.573526,6 L16,3.40653885 Z M14,3 L5,3 L5,20 L19,20 L19,8 L16,8 C14.8954305,8 14,7.1045695 14,6 L14,3 Z M10.5302899,9.7298457 L10.7170385,8.80256933 C10.8110505,8.33576495 11.2211783,8 11.6973554,8 L12.3026446,8 C12.7788217,8 13.1889495,8.33576495 13.2829615,8.80256933 L13.4697101,9.7298457 C13.524229,10.0005527 13.7878768,10.1758078 14.0585838,10.1212888 C14.0790332,10.1171704 14.0992048,10.1117763 14.1189803,10.1051382 L15.0370899,9.79695326 C15.4867396,9.64601783 15.9805628,9.83171669 16.2193458,10.2415325 L16.5141162,10.7474379 C16.7557865,11.1622091 16.6686328,11.6901896 16.3064828,12.0052883 L15.5967708,12.622793 C15.3884451,12.8040526 15.3665037,13.1198738 15.5477632,13.3281995 C15.5629459,13.3456492 15.579321,13.3620244 15.5967708,13.377207 L16.3064828,13.9947117 C16.6686328,14.3098104 16.7557865,14.8377909 16.5141162,15.2525621 L16.2193458,15.7584675 C15.9805628,16.1682833 15.4867396,16.3539822 15.0370899,16.2030467 L14.1189803,15.8948618 C13.857193,15.8069868 13.5737357,15.9479705 13.4858607,16.2097578 C13.4792225,16.2295334 13.4738285,16.2497049 13.4697101,16.2701543 L13.2829615,17.1974307 C13.1889495,17.664235 12.7788217,18 12.3026446,18 L11.6973554,18 C11.2211783,18 10.8110505,17.664235 10.7170385,17.1974307 L10.5302899,16.2701543 C10.475771,15.9994473 10.2121232,15.8241922 9.94141618,15.8787112 C9.92096683,15.8828296 9.90079525,15.8882237 9.8810197,15.8948618 L8.96291009,16.2030467 C8.5132604,16.3539822 8.01943717,16.1682833 7.78065418,15.7584675 L7.48588377,15.2525621 C7.24421346,14.8377909 7.33136721,14.3098104 7.69351716,13.9947117 L8.40322923,13.377207 C8.6115549,13.1959474 8.63349633,12.8801262 8.45223677,12.6718005 C8.43705414,12.6543508 8.42067896,12.6379756 8.40322923,12.622793 L7.69351716,12.0052883 C7.33136721,11.6901896 7.24421346,11.1622091 7.48588377,10.7474379 L7.78065418,10.2415325 C8.01943717,9.83171669 8.5132604,9.64601783 8.96291009,9.79695326 L9.8810197,10.1051382 C10.142807,10.1930132 10.4262643,10.0520295 10.5141393,9.79024218 C10.5207775,9.77046663 10.5261715,9.75029505 10.5302899,9.7298457 Z M12,14 C12.5522847,14 13,13.5522847 13,13 C13,12.4477153 12.5522847,12 12,12 C11.4477153,12 11,12.4477153 11,13 C11,13.5522847 11.4477153,14 12,14 Z" id="file-settings"></path>
                </g>
            </g>
            <g id="slices" transform="translate(60.000000, 58.000000)"></g>
        </g>
    </g>
</svg>