<?xml version="1.0" encoding="UTF-8"?>
<svg width="24px" height="24px" viewBox="0 0 24 24" version="1.1" xmlns="http://www.w3.org/2000/svg" xmlns:xlink="http://www.w3.org/1999/xlink">
    <!-- Generator: Sketch 55.2 (78181) - https://sketchapp.com -->
    <title>jollycons-files-2/icons/svg/icon-files-2-pdf</title>
    <desc>Created with Sketch.</desc>
    <g id="icons" stroke="none" stroke-width="1" fill="none" fill-rule="evenodd">
        <g id="icons---export" transform="translate(-188.000000, -58.000000)">
            <g id="row-1" transform="translate(60.000000, 58.000000)" fill="#000000" fill-rule="nonzero">
                <g id="icon---3" transform="translate(128.000000, 0.000000)">
                    <path d="M5,1 L15.5965861,1 C16.1296935,1 16.6407387,1.2128378 17.0162454,1.59125321 L20.4196593,5.02103078 C20.7913991,5.3956502 21,5.90201795 21,6.42977757 L21,20 C21,21.1045695 20.1045695,22 19,22 L5,22 C3.8954305,22 3,21.1045695 3,20 L3,3 C3,1.8954305 3.8954305,1 5,1 Z M14,3 L5,3 L5,20 L19,20 L19,8 L16,8 C14.8954305,8 14,7.1045695 14,6 L14,3 Z M16,3.40653885 L16,6 L18.573526,6 L16,3.40653885 Z M9.57507773,7.8220405 C9.34332195,6.5789345 9.96054591,5.65252707 11.2998849,5.33559559 C12.7248651,4.99839856 13.5900988,5.71897482 13.5666514,7.08770935 C13.5531078,7.87831187 13.2878606,8.8912869 12.7336135,10.460239 C12.9504812,10.7388724 13.1872975,11.0314272 13.4453679,11.3402165 L13.5067356,11.4250397 C13.8440461,11.9673192 14.177112,12.4675896 14.4997348,12.9135181 C15.5439815,12.7063954 16.3325873,12.6347002 16.9492553,12.7200712 C18.0242103,12.8688873 18.6526179,13.5696455 18.4645808,14.7345286 C18.076755,16.1608398 17.1724152,16.8173187 16.0272468,16.3926021 C15.355052,16.1433006 14.6539344,15.5235073 13.888504,14.5825236 C13.3974589,14.6983451 12.8412884,14.8413973 12.0258304,15.0578321 C11.6407024,15.1600508 11.2893345,15.2577579 10.9633984,15.3538575 C10.425554,16.8561263 10.0822572,17.6364594 9.65548262,18.2142089 C8.90204919,19.2341755 7.85945841,19.357352 6.93229045,18.4023832 C5.9864507,17.4281826 6.04042822,16.3379516 6.99013582,15.5101721 C7.57718141,14.9984942 8.49864624,14.5684214 9.79958373,14.14406 C9.90511633,13.8425926 10.0418327,13.4517636 10.0923831,13.3083638 C10.2620424,12.827079 10.4045116,12.4326087 10.5477931,12.0508445 C10.8253505,11.3113108 10.9468307,10.9870388 11.0475555,10.7131508 C10.2251287,9.57512759 9.72610624,8.63213656 9.57507773,7.8220405 Z M11.9521418,12.5779163 C11.8349462,12.8901763 11.717743,13.2127529 11.5842425,13.588834 L11.5730198,13.6261256 C11.5955821,13.6201068 11.6182519,13.6140748 11.6410309,13.6080289 C12.1344127,13.4770779 12.5354379,13.3722908 12.8862449,13.2836881 L12.872889,13.2662273 L12.9094232,13.2581971 C12.6950181,12.9435348 12.4784429,12.6105706 12.2608156,12.2618923 C12.2190939,12.2118451 12.1778849,12.1621757 12.1371828,12.1128736 L12.1234552,12.1508094 L12.1160751,12.1409904 C12.068138,12.2688224 12.0139881,12.4131308 11.9521418,12.5779163 Z M16.5488448,14.9862112 C16.7534171,15.0620823 16.8376881,15.0009083 16.9999946,14.4210293 C17.0296014,14.2330933 17.0423043,14.2472587 16.7435581,14.2059005 C16.4655203,14.1674092 16.0827697,14.1820411 15.5928089,14.2487966 C15.9711545,14.6406732 16.2987333,14.8934506 16.5488448,14.9862112 Z M7.97572317,16.6409318 C7.67035821,16.9070925 7.66554707,17.0042675 8.00850016,17.3575039 C8.26420486,17.6208759 8.22552767,17.6254454 8.44896123,17.3229704 C8.65576438,17.0430089 8.8621574,16.6353043 9.1209535,15.9921109 C8.60300124,16.212093 8.21936659,16.4285685 7.97572317,16.6409318 Z M12.0668714,7.06201699 C12.0737639,6.65967415 12.1057624,6.68632287 11.6452951,6.79528452 C11.0781061,6.92950003 10.9659171,7.09788741 11.0496703,7.54712803 C11.1173459,7.91013069 11.3240002,8.37639967 11.6629575,8.93574103 C11.9290359,8.08731696 12.0595991,7.48653613 12.0668714,7.06201699 Z" id="file-pdf"></path>
                </g>
            </g>
            <g id="slices" transform="translate(60.000000, 58.000000)"></g>
        </g>
    </g>
</svg>