<svg xmlns="http://www.w3.org/2000/svg" width="24" height="24" viewBox="0 0 24 24">
  <path d="M11,15 L13,15 L19,15 L19,10 L5,10 L5,15 L11,15 Z M13,17 L13,19 L17,19 C17.5522847,19 18,19.4477153 18,20 C18,20.5522847 17.5522847,21 17,21 L7,21 C6.44771525,21 6,20.5522847 6,20 C6,19.4477153 6.44771525,19 7,19 L11,19 L11,17 L5,17 C3.8954305,17 3,16.1045695 3,15 L3,4 C3,2.8954305 3.8954305,2 5,2 L9.714319,2 C9.98417432,2 10.242575,2.1090637 10.4308218,2.3024158 L12.136391,4.05424038 L19,4.05424038 C20.1045695,4.05424038 21,4.94967088 21,6.05424038 L21,15 C21,16.1045695 20.1045695,17 19,17 L13,17 Z M19,8 L19,6.05424038 L11.714319,6.05424038 C11.4444637,6.05424038 11.186063,5.94517668 10.9978162,5.75182458 L9.29224697,4 L5,4 L5,8 L19,8 Z"/>
</svg>
