<svg xmlns="http://www.w3.org/2000/svg" width="24" height="24" viewBox="0 0 24 24">
  <path d="M9.02627104,5.07483141 C9.57267572,5.15520782 9.95046628,5.66331429 9.87008987,6.20971898 C9.78971346,6.75612366 9.28160699,7.13391422 8.7352023,7.05353781 C8.67454501,7.04486808 8.67454501,7.04486808 8.61355889,7.03716767 C8.55264903,7.02998223 8.55264903,7.02998223 8.49142061,7.02377116 C8.4100642,7.01585423 8.32833272,7.00990447 8.24626992,7.00593743 C8.16448501,7.00198381 8.08238137,7 8,7 C7.33366885,7 6.68716438,7.12986456 6.08640999,7.37897469 C5.48015661,7.63036505 4.92895528,7.99997691 4.46446609,8.46446609 C3.99997691,8.92895528 3.63036505,9.48015661 3.37897469,10.08641 C3.12986456,10.6871644 3,11.3336688 3,12 C3,13.3450234 3.53218703,14.6032548 4.46446609,15.5355339 C4.92895528,16.0000231 5.48015661,16.3696349 6.08640999,16.6210253 C6.68716438,16.8701354 7.33366885,17 8,17 C8.33128015,17 8.65786725,16.9679204 8.97686903,16.9048146 C9.29884552,16.8411203 9.61227367,16.7459698 9.91359001,16.6210253 C10.2160173,16.4956201 10.5052299,16.340611 10.7772755,16.1584903 C11.0496035,15.9761806 11.3036465,15.7674213 11.5355339,15.5355339 C12.0000231,15.0710447 12.3696349,14.5198434 12.6210253,13.91359 C12.8701354,13.3128356 13,12.6663312 13,12 C13,11.6687199 12.9679204,11.3421328 12.9048146,11.023131 C12.873028,10.8624491 12.8333989,10.703851 12.7861126,10.547763 C12.7680999,10.4891779 12.7680999,10.4891779 12.7491589,10.431005 C12.576012,9.90656378 12.8607924,9.34105689 13.3852336,9.16791001 C13.9096748,8.99476313 14.4751817,9.27954347 14.6483286,9.8039847 C14.6749186,9.88564961 14.6749186,9.88564961 14.7002056,9.96789435 C14.7665793,10.1869877 14.8221978,10.4095764 14.8667931,10.6350069 C14.955152,11.0816641 15,11.5382394 15,12 C15,12.9303928 14.8178655,13.8371127 14.4684912,14.6796643 C14.1162168,15.5292097 13.5990795,16.3004155 12.9497475,16.9497475 C12.6257347,17.2737602 12.2706898,17.5655177 11.8898752,17.8204536 C11.5089708,18.0754497 11.1037237,18.2926498 10.6796643,18.4684912 C10.256787,18.6438424 9.81678322,18.7774187 9.36499311,18.8667931 C8.91833593,18.955152 8.46176059,19 8,19 C7.06960722,19 6.16288726,18.8178655 5.32033572,18.4684912 C4.4707903,18.1162168 3.69958455,17.5990795 3.05025253,16.9497475 C1.7466189,15.6461138 1,13.8809085 1,12 C1,11.0696072 1.18213453,10.1628873 1.5315088,9.32033572 C1.88378318,8.4707903 2.40092052,7.69958455 3.05025253,7.05025253 C3.69958455,6.40092052 4.4707903,5.88378318 5.32033572,5.5315088 C6.16288726,5.18213453 7.06960722,5 8,5 C8.11458934,5 8.2288925,5.00276183 8.34284033,5.00827025 C8.45734375,5.01380553 8.57146405,5.02211308 8.68512879,5.03317397 C8.77074001,5.04185841 8.77074001,5.04185841 8.85596472,5.05191217 C8.94132328,5.06268992 8.94132328,5.06268992 9.02627104,5.07483141 Z M14.6350069,18.8667931 C14.0932215,18.7596156 13.7409022,18.2335272 13.8480797,17.6917418 C13.9552572,17.1499564 14.4813456,16.797637 15.023131,16.9048146 C15.3421328,16.9679204 15.6687199,17 16,17 C18.7614237,17 21,14.7614237 21,12 C21,9.23857625 18.7614237,7 16,7 C15.6687199,7 15.3421328,7.03207962 15.023131,7.09518545 C14.7011545,7.15887974 14.3877263,7.2540302 14.08641,7.37897469 C13.7839827,7.50437987 13.4947701,7.65938901 13.2227245,7.84150967 C12.9503965,8.02381937 12.6963535,8.23257869 12.4644661,8.46446609 C12.2325787,8.6963535 12.0238194,8.95039651 11.8415097,9.22272449 C11.659389,9.49477011 11.5043799,9.78398268 11.3789747,10.08641 C11.1298646,10.6871644 11,11.3336688 11,12 C11,12.3312801 11.0320796,12.6578672 11.0951854,12.976869 C11.126972,13.1375509 11.1666011,13.296149 11.2138874,13.452237 C11.2319001,13.5108221 11.2319001,13.5108221 11.2508411,13.568995 C11.423988,14.0934362 11.1392076,14.6589431 10.6147664,14.83209 C10.0903252,15.0052369 9.52481828,14.7204565 9.3516714,14.1960153 C9.32508139,14.1143504 9.32508139,14.1143504 9.29979435,14.0321056 C9.23342069,13.8130123 9.17780222,13.5904236 9.13320693,13.3649931 C9.04484796,12.9183359 9,12.4617606 9,12 C9,11.0696072 9.18213453,10.1628873 9.5315088,9.32033572 C9.70735022,8.89627629 9.92455034,8.49102917 10.1795464,8.11012482 C10.4344823,7.72931021 10.7262398,7.37426527 11.0502525,7.05025253 C11.3742653,6.72623979 11.7293102,6.43448235 12.1101248,6.17954639 C12.4910292,5.92455034 12.8962763,5.70735022 13.3203357,5.5315088 C13.743213,5.35615758 14.1832168,5.22258132 14.6350069,5.13320693 C15.0816641,5.04484796 15.5382394,5 16,5 C19.8659932,5 23,8.13400675 23,12 C23,15.8659932 19.8659932,19 16,19 C15.5382394,19 15.0816641,18.955152 14.6350069,18.8667931 Z"/>
</svg>
