<svg xmlns="http://www.w3.org/2000/svg" width="24" height="24" viewBox="0 0 24 24">
  <path fill-rule="evenodd" d="M7,19 C5.8954305,19 5,18.1045695 5,17 C5,15.8954305 5.8954305,15 7,15 C8.1045695,15 9,15.8954305 9,17 C9,18.1045695 8.1045695,19 7,19 Z M15,18 C15,18.5522847 14.5522847,19 14,19 C13.4477153,19 13,18.5522847 13,18 C13,14.1340068 9.86599325,11 6,11 C5.44771525,11 5,10.5522847 5,10 C5,9.44771525 5.44771525,9 6,9 C10.9705627,9 15,13.0294373 15,18 Z M20,18 C20,18.5522847 19.5522847,19 19,19 C18.4477153,19 18,18.5522847 18,18 C18,11.372583 12.627417,6 6,6 C5.44771525,6 5,5.55228475 5,5 C5,4.44771525 5.44771525,4 6,4 C13.7319865,4 20,10.2680135 20,18 Z"/>
</svg>
