<svg xmlns="http://www.w3.org/2000/svg" width="24" height="24" viewBox="0 0 24 24">
  <path d="M9.58578644,3 L17,3 C18.1045695,3 19,3.8954305 19,5 L19,19 C19,20.1045695 18.1045695,21 17,21 L7,21 C5.8954305,21 5,20.1045695 5,19 L5,7.58578644 L9.58578644,3 Z M10.4142136,5 L7,8.41421356 L7,19 L17,19 L17,5 L10.4142136,5 Z M11,17 C11,17.5522847 10.5522847,18 10,18 C9.44771525,18 9,17.5522847 9,17 L9,16.7324356 C8.40219863,16.3866262 8,15.7402824 8,15 L8,12 C8,11.2597176 8.40219863,10.6133738 9,10.2675644 L9,10 C9,9.44771525 9.44771525,9 10,9 C10.5522847,9 11,9.44771525 11,10 L13,10 C13,9.44771525 13.4477153,9 14,9 C14.5522847,9 15,9.44771525 15,10 L15,10.2675644 C15.5978014,10.6133738 16,11.2597176 16,12 L16,15 C16,15.7402824 15.5978014,16.3866262 15,16.7324356 L15,17 C15,17.5522847 14.5522847,18 14,18 C13.4477153,18 13,17.5522847 13,17 L11,17 Z M10,12 L10,15 L14,15 L14,12 L10,12 Z"/>
</svg>
