<svg xmlns="http://www.w3.org/2000/svg" width="24" height="24" viewBox="0 0 24 24">
  <path d="M23,6 L23,19 C23,20.6568542 21.6568542,22 20,22 L4,22 C2.34314575,22 1,20.6568542 1,19 L1,6 C1,4.34314575 2.34314575,3 4,3 L20,3 C21.6568542,3 23,4.34314575 23,6 Z M21,11 L3,11 L3,19 C3,19.5522847 3.44771525,20 4,20 L20,20 C20.5522847,20 21,19.5522847 21,19 L21,11 Z M21,9 L21,6 C21,5.44771525 20.5522847,5 20,5 L4,5 C3.44771525,5 3,5.44771525 3,6 L3,9 L21,9 Z M5,8 C4.44771525,8 4,7.55228475 4,7 C4,6.44771525 4.44771525,6 5,6 C5.55228475,6 6,6.44771525 6,7 C6,7.55228475 5.55228475,8 5,8 Z M8,8 C7.44771525,8 7,7.55228475 7,7 C7,6.44771525 7.44771525,6 8,6 C8.55228475,6 9,6.44771525 9,7 C9,7.55228475 8.55228475,8 8,8 Z M11,8 C10.4477153,8 10,7.55228475 10,7 C10,6.44771525 10.4477153,6 11,6 C11.5522847,6 12,6.44771525 12,7 C12,7.55228475 11.5522847,8 11,8 Z M6,14.9907251 C5.44771525,14.9907251 5,14.5430098 5,13.9907251 C5,13.4384403 5.44771525,12.9907251 6,12.9907251 L9,12.9907251 C9.55228475,12.9907251 10,13.4384403 10,13.9907251 C10,14.5430098 9.55228475,14.9907251 9,14.9907251 L6,14.9907251 Z M6,17.9907251 C5.44771525,17.9907251 5,17.5430098 5,16.9907251 C5,16.4384403 5.44771525,15.9907251 6,15.9907251 L13,15.9907251 C13.5522847,15.9907251 14,16.4384403 14,16.9907251 C14,17.5430098 13.5522847,17.9907251 13,17.9907251 L6,17.9907251 Z"/>
</svg>
