<svg xmlns="http://www.w3.org/2000/svg" width="24" height="24" viewBox="0 0 24 24">
  <path d="M11.9738679,21.040963 C12.6650637,21.040963 13.1496391,21.1518057 14.0617373,21.4349263 C14.6886504,21.6295238 14.8625198,21.6596431 14.874531,21.6563682 C18.5875404,20.6439948 19.9738679,18.4667488 19.9738679,14.040963 C19.9738679,10.9457661 19.210145,10.1253004 16.2247518,8.8929636 C16.2890287,8.9194964 16.271223,8.91916126 16.1290106,8.95062363 C15.8835372,9.00493095 15.6762121,9.07676489 14.9494367,9.35174493 C14.0908151,9.67660982 13.5958923,9.83646071 12.9792037,9.94742425 C12.6400764,10.008445 12.3067916,10.040963 11.9738679,10.040963 C11.0014376,10.040963 10.3026538,9.82742039 9.03565818,9.2967811 C8.37500326,9.02008759 8.16159097,8.93950401 7.93635282,8.88766023 C7.81291563,8.85924831 7.80363477,8.85956665 7.8355444,8.84582287 C4.85863688,10.1280052 3.97386795,11.0779066 3.97386795,14.040963 C3.97386795,18.3710267 5.48930046,20.7335793 9.21759109,21.6946596 C9.18464803,21.6861675 9.33170334,21.6569913 9.88876221,21.4679677 C10.7921922,21.161412 11.273531,21.040963 11.9738679,21.040963 Z M11,5 C11,3.34314575 12.3431458,2 14,2 L15.8073615,2 C16.3596463,2 16.8073615,2.44771525 16.8073615,3 C16.8073615,3.55228475 16.3596463,4 15.8073615,4 L14,4 C13.4477153,4 13,4.44771525 13,5 L13,7.89658602 C14.4534383,7.52351662 15.8814361,6.58755123 16.9878698,7.04427464 C19.4023938,8.04096301 21.9738679,9.16324859 21.9738679,14.040963 C21.9738679,18.9186774 20.3584015,22.2341679 15.4006373,23.5859309 C14.3148078,23.8819885 13.1645908,23.040963 11.9738679,23.040963 C10.8455509,23.040963 9.75360531,23.8982156 8.71835093,23.6313473 C3.67281207,22.3307062 1.97386795,18.7578248 1.97386795,14.040963 C1.97386795,9.32410122 4.64834771,8.04095558 7.04438915,7.00895778 C8.25283586,6.4884683 9.59522255,7.49831101 11,7.89265233 L11,5 Z M6.97386795,0.442886801 C8.17322669,0.52023707 9.10623939,1.13626247 9.77290605,2.29096301 C10.4395727,3.44566355 10.50656,4.56168895 9.97386795,5.63903922 C8.77450921,5.56168895 7.84149651,4.94566355 7.17482984,3.79096301 C6.50816318,2.63626247 6.44117588,1.52023707 6.97386795,0.442886801 Z"/>
</svg>
