<svg xmlns="http://www.w3.org/2000/svg" width="24" height="24" viewBox="0 0 24 24">
  <path fill="#050505" d="M21.0225565,2.04113263 C21.1048493,1.49501329 21.614278,1.11900758 22.1603973,1.20130039 C22.7065167,1.28359319 23.0825224,1.7930219 23.0002296,2.33914124 L22.5133759,5.57004617 C22.7352715,5.76413833 22.9175048,6.01049575 23.0393051,6.30063051 C23.8062079,8.12744455 23.7899242,10.4304762 22.9904542,13.2097254 C21.4062768,18.7169028 18.6326439,22.2637388 12.6515899,23.0032477 C6.67053586,23.7427566 0.583208437,19.8510952 0.403301037,16.6458643 C0.223393637,13.4406333 7.43910913,16.4929094 11.7960235,14.5419315 C16.1529379,12.5909537 15.2847336,8.72286452 17.7952364,6.8530944 C18.7173519,6.16632201 19.5628054,5.63890988 20.3315968,5.27085803 C20.3610836,5.25674148 20.3909122,5.24335004 20.4210555,5.23069577 C20.4635537,5.21285488 20.5063196,5.19659254 20.549288,5.18188207 L21.0225565,2.04113263 Z M12.4061748,21.0183619 C17.1098991,20.4367845 19.5422925,17.9621225 21.0683956,12.6568321 C21.7516755,10.2815023 21.7647561,8.43148103 21.1952124,7.07478932 C20.5528032,7.38233686 19.8147617,7.8427431 18.9898701,8.45710509 C18.5291561,8.80023531 18.2439439,9.27142925 17.7253316,10.513724 C17.6221057,10.7617952 17.5644762,10.9001268 17.5117177,11.0251716 C17.4248076,11.2311605 17.3484506,11.4073703 17.2710763,11.5789858 C16.2588694,13.8240502 14.9566927,15.3179792 12.6133951,16.3672818 C11.220886,16.9908319 9.64447767,17.2373914 7.72184938,17.251009 C6.95031377,17.2564737 6.28234407,17.2308671 5.0834683,17.1639453 C3.71114048,17.0873413 3.01295014,17.0632286 2.54258319,17.094534 C3.42575439,19.1187216 8.19874953,21.538576 12.4061748,21.0183619 Z M7.94808706,19.7471865 C7.4016979,19.6667046 7.02400542,19.1585252 7.1044873,18.612136 C7.18496917,18.0657469 7.69314855,17.6880544 8.23953771,17.7685363 C10.3656695,18.0817106 12.0493099,18.0234624 13.2815776,17.617725 C15.4743845,16.8957198 17.0809819,15.0820685 18.1126213,12.0746835 C18.2918239,11.5522805 18.8605877,11.2740617 19.3829906,11.4532644 C19.9053936,11.632467 20.1836124,12.2012308 20.0044097,12.7236337 C18.7831779,16.2837098 16.7469795,18.5823278 13.9070659,19.5173998 C12.3400649,20.0333518 10.356699,20.1019695 7.94808706,19.7471865 Z"/>
</svg>
