<svg xmlns="http://www.w3.org/2000/svg" width="24" height="24" viewBox="0 0 24 24">
  <path d="M1.71817715,14.3430047 C2.53890148,13.4308884 3,12.2526623 3,11 C3,10.37422 2.88547715,9.76584817 2.66499771,9.19613091 C2.37406975,8.44437519 3.04654769,7.67499255 3.83047228,7.86271036 C4.21003477,7.95360002 4.60158959,8 5,8 C7.76142375,8 10,5.76142375 10,3 C10,2.73415518 9.97934199,2.47130117 9.93854918,2.21290181 C9.84935292,1.6478939 10.2513997,1.12332903 10.8201735,1.06261479 C11.2103003,1.02097039 11.603958,1 12,1 C18.0751322,1 23,5.92486775 23,12 C23,18.0751322 18.0751322,23 12,23 C7.16533202,23 2.94015786,19.8530065 1.50787224,15.3127362 C1.40134674,14.9750559 1.48133605,14.6062193 1.71817715,14.3430047 Z M12,21 C16.9705627,21 21,16.9705627 21,12 C21,7.02943725 16.9705627,3 12,3 C12,6.86599325 8.86599325,10 5,10 C4.97629771,10 4.95260943,9.99988183 4.92893583,9.99964569 C4.97608339,10.3287487 5,10.6628396 5,11 C5,12.5447634 4.49668403,14.0132062 3.59026466,15.2136484 C4.90428162,18.6550773 8.22534633,21 12,21 Z M17,15 C16.4477153,15 16,14.5522847 16,14 C16,13.4477153 16.4477153,13 17,13 C17.5522847,13 18,13.4477153 18,14 C18,14.5522847 17.5522847,15 17,15 Z M14,9 C13.4477153,9 13,8.55228475 13,8 C13,7.44771525 13.4477153,7 14,7 C14.5522847,7 15,7.44771525 15,8 C15,8.55228475 14.5522847,9 14,9 Z M15,18 C14.4477153,18 14,17.5522847 14,17 C14,16.4477153 14.4477153,16 15,16 C15.5522847,16 16,16.4477153 16,17 C16,17.5522847 15.5522847,18 15,18 Z M13,16 C12.4477153,16 12,15.5522847 12,15 C12,14.4477153 12.4477153,14 13,14 C13.5522847,14 14,14.4477153 14,15 C14,15.5522847 13.5522847,16 13,16 Z M7,17 C6.44771525,17 6,16.5522847 6,16 C6,15.4477153 6.44771525,15 7,15 C7.55228475,15 8,15.4477153 8,16 C8,16.5522847 7.55228475,17 7,17 Z"/>
</svg>
