<svg xmlns="http://www.w3.org/2000/svg" width="24" height="24" viewBox="0 0 24 24">
  <path d="M6.9317642,20.7514484 C6.78311537,20.9303197 6.6349403,21.1097168 6.48723899,21.2896396 C5.54631277,22.4358047 3.85439293,22.6022036 2.70821677,21.6612909 C2.64038545,21.6056072 2.57532491,21.5466314 2.51326943,21.4845759 L2.29869688,21.2700046 C1.20688575,20.1781935 1.12211887,18.435963 2.1027815,17.2433173 C2.36681824,16.9222055 2.63038237,16.6044975 2.89347389,16.2901931 C1.2167609,12.7308612 3.78709232,10.0686174 6.92748299,6.92822672 C10.0519503,3.80375936 12.7031075,1.24358495 16.2353757,2.86903945 C16.5673726,2.59451539 16.90137,2.32217662 17.2373677,2.05202314 C18.4308858,1.09239172 20.1556118,1.1857928 21.2385194,2.26870038 L21.4838322,2.51401316 C22.5114759,3.54165691 22.5114759,5.20779664 21.4838322,6.23544039 C21.4160749,6.30319771 21.3446671,6.36720341 21.2699279,6.42717147 C21.0853179,6.57529802 20.9003098,6.72525018 20.7149037,6.87702794 C23.2552434,10.7790343 20.4373758,13.7026052 17.0696186,17.0703623 C13.7178417,20.4221393 10.8060457,23.2292328 6.9317642,20.7514484 Z M8.20679822,19.2435776 C10.2549747,20.4836638 11.9260375,19.3855163 15.6554051,15.6561488 C19.4220958,11.889458 20.5046368,10.2224769 19.2048996,8.14593228 C17.5022485,9.61326226 15.7667975,11.2310479 13.9985508,12.9992945 C11.9964696,15.0013757 10.0658854,17.0828034 8.20679822,19.2435776 Z M9.68047066,8.8320933 C11.2322156,7.28034836 12.8359019,5.78534369 14.4915294,4.34707928 C12.8940418,4.1412129 11.2622211,5.42191575 8.34169655,8.34244028 C5.37345601,11.3106808 4.09905823,12.9477634 4.35761577,14.5705512 C6.15423828,12.49686 7.92852324,10.5840407 9.68047066,8.8320933 Z M3.64760528,18.5135611 C3.32071754,18.9111099 3.34897319,19.4918538 3.71290639,19.855787 L3.92748299,20.0703623 C3.9433156,20.0861949 3.9599149,20.1012418 3.97722113,20.1154487 C4.26965475,20.3555118 4.70133776,20.3130571 4.94139685,20.0206353 C7.36345903,17.0701917 9.91114565,14.2582726 12.5843372,11.585081 C15.1227696,9.04664857 17.6003245,6.80735069 20.0182898,4.86723495 C20.0362243,4.85284491 20.0533595,4.83748599 20.0696186,4.82122683 C20.3162138,4.57463166 20.3162138,4.17482189 20.0696186,3.92822672 L19.8243058,3.68291395 C19.4633364,3.32194446 18.8884283,3.29081097 18.4905875,3.6106893 C15.9040834,5.69032526 13.4388622,7.90212887 11.0946842,10.2463069 C8.66117883,12.6798123 6.17848211,15.435602 3.64760528,18.5135611 Z"/>
</svg>
