<svg xmlns="http://www.w3.org/2000/svg" width="24" height="24" viewBox="0 0 24 24">
  <path d="M9.82594341,13.6751902 C11.004421,14.8536678 11.8063676,16.2014938 12.1710839,17.4637313 C14.7235471,14.268654 16.0955944,10.9301226 14.5833027,9.4178309 C13.0425064,7.87703458 9.2678559,9.1773249 6.15829696,11.366238 C7.38534972,11.7462473 8.68501138,12.5342582 9.82594341,13.6751902 Z M15.2904095,7.29651056 L18.1741541,4.41276601 L17.4964874,3.05743265 C17.2494981,2.56345415 17.4497225,1.96278111 17.943701,1.71579187 C18.4376795,1.46880262 19.0383525,1.66902696 19.2853418,2.16300546 L20.0089486,3.61021906 L21.3909146,3.61021906 C21.9431993,3.61021906 22.3909146,4.05793431 22.3909146,4.61021906 C22.3909146,5.16250381 21.9431993,5.61021906 21.3909146,5.61021906 L19.8051281,5.61021906 L16.7046231,8.71072412 C16.677631,8.73771618 16.6494798,8.76284262 16.6203297,8.78610343 C19.1694427,12.9148851 13.0589579,19.6345639 11.5937104,21.0998114 C10.0316132,22.6619086 6.70749705,21.8704524 4.16908916,19.3320445 C1.63068126,16.7936366 0.839225038,13.4695204 2.4013222,11.9074233 C3.86734498,10.4414005 11.0337482,4.76561173 15.2161399,7.37941583 C15.2390896,7.35075993 15.2638461,7.32307393 15.2904095,7.29651056 Z M10.1794968,19.6855979 C10.7785744,19.0865203 10.2691144,16.9467883 8.41172984,15.0894038 C6.55434533,13.2320193 4.41461333,12.7225593 3.81553577,13.3216368 C3.21645821,13.9207144 3.72591821,16.0604464 5.58330272,17.9178309 C7.44068723,19.7752154 9.58041924,20.2846754 10.1794968,19.6855979 Z"/>
</svg>
