<svg xmlns="http://www.w3.org/2000/svg" width="24" height="24" viewBox="0 0 24 24">
  <path d="M13,18 L13,20 L15,20 C15.5522847,20 16,20.4477153 16,21 C16,21.5522847 15.5522847,22 15,22 L9,22 C8.44771525,22 8,21.5522847 8,21 C8,20.4477153 8.44771525,20 9,20 L11,20 L11,18 L4,18 C2.8954305,18 2,17.1045695 2,16 L2,4 C2,2.8954305 2.8954305,2 4,2 L20,2 C21.1045695,2 22,2.8954305 22,4 L22,16 C22,17.1045695 21.1045695,18 20,18 L13,18 Z M4,13 L20,13 L20,4 L4,4 L4,13 Z M4,15 L4,16 L20,16 L20,15 L4,15 Z"/>
</svg>
