<svg xmlns="http://www.w3.org/2000/svg" width="24" height="24" viewBox="0 0 24 24">
  <path d="M10,5.0087262 L14,5.0087262 L14,4 L10,4 L10,5.0087262 Z M10,19.0087262 L10,20 L14,20 L14,19.0087262 L10,19.0087262 Z M18,9.0087262 L18.5,9.0087262 C18.7761424,9.0087262 19,9.23258383 19,9.5087262 L19,11.5087262 C19,11.7848686 18.7761424,12.0087262 18.5,12.0087262 L18,12.0087262 L18,15.0087262 C18,16.4892909 17.1956027,17.7819786 16,18.4735974 L16,20 C16,21.1045695 15.1045695,22 14,22 L10,22 C8.8954305,22 8,21.1045695 8,20 L8,18.4735974 C6.80439726,17.7819786 6,16.4892909 6,15.0087262 L6,9.0087262 C6,7.52816149 6.80439726,6.23547383 8,5.54385498 L8,4 C8,2.8954305 8.8954305,2 10,2 L14,2 C15.1045695,2 16,2.8954305 16,4 L16,5.54385498 C17.1956027,6.23547383 18,7.52816149 18,9.0087262 Z M10,7.0087262 C8.8954305,7.0087262 8,7.9041567 8,9.0087262 L8,15.0087262 C8,16.1132957 8.8954305,17.0087262 10,17.0087262 L14,17.0087262 C15.1045695,17.0087262 16,16.1132957 16,15.0087262 L16,9.0087262 C16,7.9041567 15.1045695,7.0087262 14,7.0087262 L10,7.0087262 Z"/>
</svg>
