<svg xmlns="http://www.w3.org/2000/svg" width="24" height="24" viewBox="0 0 24 24">
  <path d="M14,5 L14,4.5 C14,3.11928813 15.1192881,2 16.5,2 C17.8807119,2 19,3.11928813 19,4.5 L19,5 C20.6568542,5 22,6.34314575 22,8 L22,19 C22,20.6568542 20.6568542,22 19,22 L5,22 C3.34314575,22 2,20.6568542 2,19 L2,8 C2,6.34314575 3.34314575,5 5,5 L5,4.5 C5,3.11928813 6.11928813,2 7.5,2 C8.88071187,2 10,3.11928813 10,4.5 L10,5 L14,5 Z M14,7 L10,7 L10,7.5 C10,8.88071187 8.88071187,10 7.5,10 C6.11928813,10 5,8.88071187 5,7.5 L5,7 C4.44771525,7 4,7.44771525 4,8 L4,19 C4,19.5522847 4.44771525,20 5,20 L19,20 C19.5522847,20 20,19.5522847 20,19 L20,8 C20,7.44771525 19.5522847,7 19,7 L19,7.5 C19,8.88071187 17.8807119,10 16.5,10 C15.1192881,10 14,8.88071187 14,7.5 L14,7 Z M7.5,4 C7.22385763,4 7,4.22385763 7,4.5 L7,7.5 C7,7.77614237 7.22385763,8 7.5,8 C7.77614237,8 8,7.77614237 8,7.5 L8,4.5 C8,4.22385763 7.77614237,4 7.5,4 Z M16.5,4 C16.2238576,4 16,4.22385763 16,4.5 L16,7.5 C16,7.77614237 16.2238576,8 16.5,8 C16.7761424,8 17,7.77614237 17,7.5 L17,4.5 C17,4.22385763 16.7761424,4 16.5,4 Z M12,16.6065457 L10.2417776,17.8300245 C10.0151131,17.9877516 9.70350224,17.9318667 9.5457752,17.7052022 C9.4584495,17.5797093 9.43333781,17.4211603 9.47761002,17.2748243 L10.097887,15.2245797 L8.39096884,13.9304866 C8.17091833,13.7636562 8.12777491,13.4500272 8.29460531,13.2299767 C8.38697109,13.1081456 8.53000019,13.0352686 8.68285489,13.0321537 L10.8244295,12.9885117 L11.5277184,10.9652393 C11.6183842,10.7044054 11.903331,10.5664569 12.1641649,10.6571227 C12.3085758,10.7073199 12.4220844,10.8208284 12.4722816,10.9652393 L13.1755705,12.9885117 L15.3171451,13.0321537 C15.5932302,13.0377799 15.8124804,13.266152 15.8068542,13.542237 C15.8037393,13.6950917 15.7308623,13.8381208 15.6090312,13.9304866 L13.902113,15.2245797 L14.52239,17.2748243 C14.6023541,17.5391353 14.4529114,17.8182256 14.1886003,17.8981897 C14.0422643,17.9424619 13.8837153,17.9173502 13.7582224,17.8300245 L12,16.6065457 Z"/>
</svg>
