<svg xmlns="http://www.w3.org/2000/svg" width="24" height="24" viewBox="0 0 24 24">
  <path fill-rule="evenodd" d="M15.5953341,12.5294811 L16.143989,12.8284021 C17.562126,13.6010388 19.3349715,13.1739361 20.2456669,11.8402518 L21.6149253,9.83501662 L18.9552477,8.94034407 C18.9424625,8.93606403 18.9424625,8.93606403 18.9296527,8.93185843 C17.3206122,8.40618329 15.5911047,9.27262119 15.045264,10.8693259 C16.0906693,10.5137512 17.2182381,10.1836297 18.4338338,9.86236518 C18.9010418,9.73888881 19.3798861,10.0175384 19.5033625,10.4847464 C19.6268389,10.9519544 19.3481893,11.4307987 18.8809813,11.5542751 C17.6950406,11.8677022 16.6019087,12.1870621 15.5953341,12.5294811 L15.5953341,12.5294811 Z M18,6.77775476 C18.513911,6.78092958 19.0360717,6.86259754 19.550749,7.03074312 C19.5718474,7.03766996 19.5718474,7.03766996 19.5929051,7.04471939 L23.1913963,8.25519361 C23.8457241,8.47529893 24.1977311,9.18416709 23.9776257,9.83849496 C23.9410858,9.94712064 23.8897807,10.0502051 23.8251524,10.1448512 L21.8973343,12.9680793 C20.9788179,14.3132172 19.5242128,15.0946387 18,15.1999622 L18,17 L20,17 C20.5522847,17 21,17.4477153 21,18 L21,20 C21,21.6568542 19.6568542,23 18,23 L6,23 C4.34314575,23 3,21.6568542 3,20 L3,8 L1,8 C0.44771525,8 0,7.55228475 0,7 L0,5 C0,3.34314575 1.34314575,2 3,2 L15,2 C16.6568542,2 18,3.34314575 18,5 L18,6.77775476 Z M13.1770858,13.4895314 C12.4274362,13.8391181 11.7390056,14.2110554 11.1118262,14.6050877 C10.7026325,14.8621681 10.1625107,14.7388559 9.90543038,14.3296623 C9.64835,13.9204686 9.77166216,13.3803468 10.1808558,13.1232665 C10.9252941,12.655565 11.7424658,12.2191405 12.6324129,11.8136601 L13.1305207,10.2890004 C13.6082331,8.82676924 14.6849899,7.72788607 16,7.17545195 L16,5 C16,4.44771525 15.5522847,4 15,4 L5,4 L5,20 C5,20.5522847 5.44771525,21 6,21 C6.55228475,21 7,20.5522847 7,20 L7,18 C7,17.4477153 7.44771525,17 8,17 L16,17 L16,14.9410475 C15.7234732,14.8472694 15.4515366,14.7287094 15.1871368,14.5846577 L13.1770858,13.4895314 L13.1770858,13.4895314 Z M3,4 C2.44771525,4 2,4.44771525 2,5 L2,6 L3,6 L3,4 Z M8.82929429,21 L18,21 C18.5522847,21 19,20.5522847 19,20 L19,19 L9,19 L9,20 C9,20.3506354 8.93984578,20.6872211 8.82929429,21 Z M7,10 L10,10 C10.5522847,10 11,10.4477153 11,11 C11,11.5522847 10.5522847,12 10,12 L7,12 C6.44771525,12 6,11.5522847 6,11 C6,10.4477153 6.44771525,10 7,10 Z M7,7 L12,7 C12.5522847,7 13,7.44771525 13,8 C13,8.55228475 12.5522847,9 12,9 L7,9 C6.44771525,9 6,8.55228475 6,8 C6,7.44771525 6.44771525,7 7,7 Z M7,13 L8,13 C8.55228475,13 9,13.4477153 9,14 C9,14.5522847 8.55228475,15 8,15 L7,15 C6.44771525,15 6,14.5522847 6,14 C6,13.4477153 6.44771525,13 7,13 Z"/>
</svg>
