<svg xmlns="http://www.w3.org/2000/svg" width="24" height="24" viewBox="0 0 24 24">
  <path d="M18.2307469,13.9763304 L21.178986,19.0828302 C21.3455706,19.3713634 21.3900762,19.7144603 21.3026215,20.0359467 C21.1214078,20.7020945 20.4344856,21.0952113 19.7683378,20.9139975 L17.2166452,20.2198548 L16.5419442,22.7767567 C16.456939,23.0988994 16.2468476,23.3737773 15.9583145,23.540362 C15.3604487,23.88554 14.5959607,23.680696 14.2507827,23.0828302 L11.9839745,19.1566032 L9.7171663,23.0828302 C9.37198833,23.680696 8.60750032,23.88554 8.00963454,23.540362 C7.72110141,23.3737773 7.51101001,23.0988994 7.42600478,22.7767567 L6.75130377,20.2198548 L4.19961127,20.9139975 C3.53346345,21.0952113 2.84654121,20.7020945 2.6653275,20.0359467 C2.57787283,19.7144603 2.62237839,19.3713634 2.78896307,19.0828302 L5.70955735,14.0242125 L5.420939,13.9066048 C4.01518283,13.3337797 3.33581968,11.7333004 3.9002841,10.3241663 L4.40415924,9.0662879 L3.87840784,7.81739486 C3.28943661,6.41832666 3.94076407,4.80623462 5.33630896,4.20896297 L6.58205687,3.67580211 L7.09339522,2.420939 C7.66622029,1.01518283 9.26669956,0.33581968 10.6758337,0.900284103 L11.9337121,1.40415924 L13.1826051,0.87840784 C14.5816733,0.289436607 16.1937654,0.94076407 16.791037,2.33630896 L17.3241979,3.58205687 L18.579061,4.09339522 C19.9848172,4.66622029 20.6641803,6.26669956 20.0997159,7.67583365 L19.5958408,8.9337121 L20.1215922,10.1826051 C20.7105634,11.5816733 20.0592359,13.1937654 18.663691,13.791037 L18.2307469,13.9763304 L18.2307469,13.9763304 Z M10.8106852,17.1244066 C9.41317632,17.7084796 7.80528005,17.0570056 7.20896297,15.663691 L7.15082844,15.5278578 L5.43123897,18.5062741 L6.95554725,18.0916131 C6.96013911,18.0903702 6.96013911,18.0903702 6.96473721,18.0891506 C7.632245,17.9130124 8.31615522,18.3113461 8.49229345,18.9788539 L8.89534058,20.5062741 L10.829274,17.1566032 L10.8106852,17.1244066 L10.8106852,17.1244066 Z M16.8813346,15.6390798 C16.2879229,17.0040432 14.7130959,17.6560869 13.3241663,17.0997159 L13.200191,17.0500544 L13.138675,17.1566032 L15.0726084,20.5062741 L15.4756556,18.9788539 C15.6517938,18.3113461 16.335704,17.9130124 17.0032118,18.0891506 C17.0078099,18.0903702 17.0078099,18.0903702 17.0124018,18.0916131 L18.5367101,18.5062741 L16.8813346,15.6390798 L16.8813346,15.6390798 Z M12.3311415,3.40684636 C12.0885983,3.5089507 11.8155832,3.51133327 11.571295,3.41347744 L9.93213149,2.7568689 C9.54405657,2.60141564 9.10328526,2.78851196 8.94552949,3.1756566 L8.2791955,4.81089077 C8.17989026,5.05459335 7.98852415,5.24932892 7.74659179,5.35287223 L6.12323582,6.04764351 C5.73890335,6.21213186 5.55952805,6.65610132 5.72173047,7.0414041 L6.40684636,8.66885855 C6.5089507,8.9114017 6.51133327,9.18441683 6.41347744,9.42870501 L5.7568689,11.0678685 C5.60141564,11.4559434 5.78851196,11.8967147 6.1756566,12.0544705 L7.81089077,12.7208045 C8.05459335,12.8201097 8.24932892,13.0114759 8.35287223,13.2534082 L9.04764351,14.8767642 C9.21213186,15.2610966 9.65610132,15.440472 10.0414041,15.2782695 L11.6688585,14.5931536 C11.9114017,14.4910493 12.1844168,14.4886667 12.428705,14.5865226 L14.0678685,15.2431311 C14.4559434,15.3985844 14.8967147,15.211488 15.0544705,14.8243434 L15.7208045,13.1891092 C15.8201097,12.9454066 16.0114759,12.7506711 16.2534082,12.6471278 L17.8767642,11.9523565 C18.2610966,11.7878681 18.440472,11.3438987 18.2782695,10.9585959 L17.5931536,9.33114145 C17.4910493,9.0885983 17.4886667,8.81558317 17.5865226,8.57129499 L18.2431311,6.93213149 C18.3985844,6.54405657 18.211488,6.10328526 17.8243434,5.94552949 L16.1891092,5.2791955 C15.9454066,5.17989026 15.7506711,4.98852415 15.6471278,4.74659179 L14.9523565,3.12323582 C14.7878681,2.73890335 14.3438987,2.55952805 13.9585959,2.72173047 L12.3311415,3.40684636 Z M12,13 C9.790861,13 8,11.209139 8,9 C8,6.790861 9.790861,5 12,5 C14.209139,5 16,6.790861 16,9 C16,11.209139 14.209139,13 12,13 Z M12,11 C13.1045695,11 14,10.1045695 14,9 C14,7.8954305 13.1045695,7 12,7 C10.8954305,7 10,7.8954305 10,9 C10,10.1045695 10.8954305,11 12,11 Z"/>
</svg>
