<svg xmlns="http://www.w3.org/2000/svg" width="24" height="24" viewBox="0 0 24 24">
  <path d="M22.180197,7.11573947 C22.1027943,7.23767436 22.0109021,7.35305895 21.9045202,7.45944084 L16,13.363961 L16,22 C16,23.1045695 15.1045695,24 14,24 L2,24 C0.8954305,24 6.21724894e-14,23.1045695 6.21724894e-14,22 L6.21724894e-14,10 C6.21724894e-14,8.8954305 0.8954305,8 2,8 L10.0502525,8 L16.2476659,1.80258659 C16.3540478,1.6962047 16.4694324,1.60431244 16.5913673,1.52690982 C17.7606601,0.716117393 19.3778786,0.831579877 20.4195959,1.87329727 L21.8338095,3.28751083 C22.8755269,4.32922822 22.9909894,5.94644664 22.180197,7.11573947 L22.180197,7.11573947 Z M11.1843347,18.1639227 C11.0527948,18.3434542 10.8598126,18.481561 10.6212153,18.5412103 L4.96436103,19.9554239 C4.23198057,20.138519 3.56858779,19.4751262 3.75168291,18.7427457 L5.16589647,13.0858915 C5.22555402,12.8472613 5.36366737,12.6542895 5.54319125,12.5227623 C5.57250984,12.4831023 5.60513417,12.4451184 5.64106422,12.4091883 L8.05025253,10 L2,10 L2,22 L14,22 L14,15.363961 L11.2979185,18.0660426 C11.2619855,18.1019756 11.2239982,18.1346023 11.1843347,18.1639227 L11.1843347,18.1639227 Z M6.09619395,17.6109128 L8.85697806,16.9207168 L8.11111084,15.6120947 L6.7856876,14.8529382 L6.09619395,17.6109128 Z M10.5984137,15.9371202 L20.4195959,6.11593796 L17.5911688,3.28751083 L7.76795979,13.1107199 L9.34183984,14.0121838 C9.49681061,14.1009457 9.62518315,14.2295896 9.71361753,14.3847475 L10.5984137,15.9371202 L10.5984137,15.9371202 Z M11.0930828,13.8103898 C10.7500707,14.1507902 10.1960553,14.1486729 9.85565495,13.8056608 C9.51525456,13.4626487 9.51737179,12.9086334 9.86038391,12.568233 L17.4305663,5.05569087 C17.7735784,4.71529048 18.3275937,4.71740771 18.6679941,5.06041983 C19.0083945,5.40343196 19.0062772,5.95744727 18.6632651,6.29784766 L11.0930828,13.8103898 Z"/>
</svg>
