<svg xmlns="http://www.w3.org/2000/svg" width="24" height="24" viewBox="0 0 24 24">
  <path fill="#000000" d="M22,12 L23,12 C23.5522847,12 24,12.4477153 24,13 C24,13.5520956 23.5525914,13.9996932 23.0005676,13.9999998 C23.0005676,14.0763682 22.9961935,14.1526737 22.9874669,14.2285417 L22.6555379,17.1142708 C22.4215355,19.148645 21.1000559,20.8185374 19.3119248,21.5704386 C19.3514892,21.6519667 19.3805451,21.7402771 19.3970617,21.8339479 L19.5707099,22.8187557 C19.6666132,23.36265 19.3034447,23.8813084 18.7595503,23.9772116 C18.215656,24.0731149 17.6969977,23.7099464 17.6010944,23.1660521 L17.4274462,22.1812443 C17.4164047,22.1186246 17.4114483,22.0563394 17.4121524,21.9949954 C17.333687,21.9983211 17.2548299,22 17.1756169,22 L7.08697057,22 C7.08735579,22.0597258 7.08237324,22.1203268 7.07163184,22.1812443 L6.89798366,23.1660521 C6.80208042,23.7099464 6.28342204,24.0731149 5.73952773,23.9772116 C5.19563343,23.8813084 4.83246492,23.36265 4.92836816,22.8187557 L5.10201634,21.8339479 C5.10809625,21.799467 5.11587525,21.7657125 5.12525207,21.7327552 C3.11807727,21.0829677 1.59725165,19.3111347 1.34455895,17.1142708 L1.01263002,14.2285417 C1.00379802,14.1517579 0.999438545,14.0754905 0.999344866,13.9999998 C0.447361233,13.9996459 6.76086295e-17,13.5520664 0,13 C-6.76353751e-17,12.4477153 0.44771525,12 1,12 L20,12 L20,4 C20,3.44771525 19.5522847,3 19,3 C18.4803828,3 18.0533305,3.39631707 18.0046283,3.90316586 C18.5702962,5.02140422 18.4354684,6.37000708 17.9055533,6.89992221 C17.2426407,7.56283481 16.2928932,6.61308734 15.1213203,5.44151447 C13.9497475,4.26994159 13,3.32019413 13.6629126,2.65728152 C14.1568885,2.16330558 15.36227,2.01264408 16.4292985,2.45268547 C16.954409,1.5821404 17.9092214,1 19,1 C20.6568542,1 22,2.34314575 22,4 L22,12 Z M19.875,14 L2.99952929,14 L3.33145822,16.8857292 C3.53559327,18.6604418 5.03806567,20 6.82447994,20 L17.1756169,20 C18.9620312,20 20.4645036,18.6604418 20.6686387,16.8857292 L21.0005676,14 L19.75,14 L19.875,14 Z M12,6 C11.4477153,6 11,5.55228475 11,5 C11,4.44771525 11.4477153,4 12,4 C12.5522847,4 13,4.44771525 13,5 C13,5.55228475 12.5522847,6 12,6 Z M14,8 C13.4477153,8 13,7.55228475 13,7 C13,6.44771525 13.4477153,6 14,6 C14.5522847,6 15,6.44771525 15,7 C15,7.55228475 14.5522847,8 14,8 Z M16,10 C15.4477153,10 15,9.55228475 15,9 C15,8.44771525 15.4477153,8 16,8 C16.5522847,8 17,8.44771525 17,9 C17,9.55228475 16.5522847,10 16,10 Z M11,9 C10.4477153,9 10,8.55228475 10,8 C10,7.44771525 10.4477153,7 11,7 C11.5522847,7 12,7.44771525 12,8 C12,8.55228475 11.5522847,9 11,9 Z M13,11 C12.4477153,11 12,10.5522847 12,10 C12,9.44771525 12.4477153,9 13,9 C13.5522847,9 14,9.44771525 14,10 C14,10.5522847 13.5522847,11 13,11 Z"/>
</svg>
