<svg xmlns="http://www.w3.org/2000/svg" width="24" height="24" viewBox="0 0 24 24">
  <path fill="#000000" d="M16,15 L18,15 L18,10 L6,10 L6,15 L9.98986686,15 L11.3443476,11.2785946 C11.4387939,11.0191057 11.7257151,10.8853121 11.985204,10.9797584 L12.9248966,11.3217785 C13.1843856,11.4162248 13.3181791,11.7031459 13.2237329,11.9626349 L12.1182224,15 L14,15 L14,11.5 C14,11.2238576 14.2238576,11 14.5,11 L15.5,11 C15.7761424,11 16,11.2238576 16,11.5 L16,15 Z M11,8 L11,4.5 C11,4.22385763 11.2238576,4 11.5,4 L12.5,4 C12.7761424,4 13,4.22385763 13,4.5 L13,8 L18,8 L18,3 L6,3 L6,8 L8,8 L8,4.5 C8,4.22385763 8.22385763,4 8.5,4 L9.5,4 C9.77614237,4 10,4.22385763 10,4.5 L10,8 L11,8 Z M16,22 L18,22 L18,17 L6,17 L6,22 L11,22 L11,18.5 C11,18.2238576 11.2238576,18 11.5,18 L12.5,18 C12.7761424,18 13,18.2238576 13,18.5 L13,22 L14,22 L14,18.5 C14,18.2238576 14.2238576,18 14.5,18 L15.5,18 C15.7761424,18 16,18.2238576 16,18.5 L16,22 Z M6,1 L18,1 C19.1045695,1 20,1.8954305 20,3 L20,22 C20,23.1045695 19.1045695,24 18,24 L6,24 C4.8954305,24 4,23.1045695 4,22 L4,3 C4,1.8954305 4.8954305,1 6,1 Z"/>
</svg>
