<svg xmlns="http://www.w3.org/2000/svg" width="24" height="24" viewBox="0 0 24 24">
  <path fill="#000000" d="M5,14 L11,14 L11,3 L13,3 L13,14 L19,14 L19,3 L5,3 L5,14 Z M5,16 L5,20 L19,20 L19,16 L5,16 Z M18.8508443,22 L18.9939032,22.8113268 C19.0898064,23.3552211 18.7266379,23.8738795 18.1827436,23.9697827 C17.6388493,24.0656859 17.1201909,23.7025174 17.0242876,23.1586231 L16.8506395,22.1738154 C16.8403431,22.1154221 16.8353383,22.0573196 16.8352805,22 L7.16398207,22 C7.16392428,22.0573196 7.15891945,22.1154221 7.14862313,22.1738154 L6.97497495,23.1586231 C6.87907171,23.7025174 6.36041333,24.0656859 5.81651902,23.9697827 C5.27262472,23.8738795 4.90945621,23.3552211 5.00535945,22.8113268 L5.14841825,22 L5,22 C3.8954305,22 3,21.1045695 3,20 L3,3 C3,1.8954305 3.8954305,1 5,1 L19,1 C20.1045695,1 21,1.8954305 21,3 L21,20 C21,21.1045695 20.1045695,22 19,22 L18.8508443,22 Z M9,7 C9.55228475,7 10,7.44771525 10,8 L10,9 C10,9.55228475 9.55228475,10 9,10 C8.44771525,10 8,9.55228475 8,9 L8,8 C8,7.44771525 8.44771525,7 9,7 Z M15,7 C15.5522847,7 16,7.44771525 16,8 L16,9 C16,9.55228475 15.5522847,10 15,10 C14.4477153,10 14,9.55228475 14,9 L14,8 C14,7.44771525 14.4477153,7 15,7 Z M11,17 L13,17 C13.5522847,17 14,17.4477153 14,18 C14,18.5522847 13.5522847,19 13,19 L11,19 C10.4477153,19 10,18.5522847 10,18 C10,17.4477153 10.4477153,17 11,17 Z"/>
</svg>
