<svg xmlns="http://www.w3.org/2000/svg" width="24" height="24" viewBox="0 0 24 24">
  <path fill="#000000" d="M4.11851429,14.8684081 C2.89183126,14.4918901 2,13.3500942 2,12 C2,10.3431458 3.34314575,9 5,9 C6.65685425,9 8,10.3431458 8,12 C8,13.2017548 7.29337951,14.2384694 6.27295935,14.7173233 C6.45526825,14.910302 6.71357096,15.0307251 7,15.0307251 L9,15.0307251 L9,8.03072512 L7,8.03072512 C5.63388748,8.03072512 4.48104538,7.11760593 4.11851429,5.86840814 C2.89183126,5.4918901 2,4.35009423 2,3 C2,1.34314575 3.34314575,0 5,0 C6.65685425,0 8,1.34314575 8,3 C8,4.20175475 7.29337951,5.23846945 6.27295935,5.71732325 C6.45526825,5.91030201 6.71357096,6.03072512 7,6.03072512 L9,6.03072512 L9,3.5 C9,2.11928813 10.1192881,1 11.5,1 C12.8807119,1 14,2.11928813 14,3.5 L14,11.0307251 L16.3538296,11.0307251 C16.9061143,11.0307251 17.3538296,10.5830099 17.3538296,10.0307251 L17.3538296,9.93023619 C16.0075543,9.63470652 15,8.43501671 15,7 C15,5.34314575 16.3431458,4 18,4 C19.6568542,4 21,5.34314575 21,7 C21,8.16974249 20.3305239,9.18312046 19.3538296,9.67787611 L19.3538296,10.0307251 C19.3538296,11.6875794 18.0106838,13.0307251 16.3538296,13.0307251 L14,13.0307251 L14,19 L16,19 C17.6568542,19 19,20.3431458 19,22 L19,23 C19,23.5522847 18.5522847,24 18,24 L5,24 C4.44771525,24 4,23.5522847 4,23 L4,22 C4,20.3431458 5.34314575,19 7,19 L9,19 L9,17.0307251 L7,17.0307251 C5.63388748,17.0307251 4.48104538,16.1176059 4.11851429,14.8684081 Z M16,21 L7,21 C6.44771525,21 6,21.4477153 6,22 L17,22 C17,21.4477153 16.5522847,21 16,21 Z M11,19 L12,19 L12,3.5 C12,3.22385763 11.7761424,3 11.5,3 C11.2238576,3 11,3.22385763 11,3.5 L11,19 Z M18,8 C18.5522847,8 19,7.55228475 19,7 C19,6.44771525 18.5522847,6 18,6 C17.4477153,6 17,6.44771525 17,7 C17,7.55228475 17.4477153,8 18,8 Z M5,4 C5.55228475,4 6,3.55228475 6,3 C6,2.44771525 5.55228475,2 5,2 C4.44771525,2 4,2.44771525 4,3 C4,3.55228475 4.44771525,4 5,4 Z M5,13 C5.55228475,13 6,12.5522847 6,12 C6,11.4477153 5.55228475,11 5,11 C4.44771525,11 4,11.4477153 4,12 C4,12.5522847 4.44771525,13 5,13 Z"/>
</svg>
