<svg xmlns="http://www.w3.org/2000/svg" width="24" height="24" viewBox="0 0 24 24">
  <path fill="#000000" d="M4,8 L4,6 C4,4.8954305 4.8954305,4 6,4 L18,4 C19.1045695,4 20,4.8954305 20,6 L20,8 L22,8 C23.1045695,8 24,8.8954305 24,10 L24,16 C24,17.6568542 22.6568542,19 21,19 L19.8395344,19 L19.9839032,19.8187557 C20.0798064,20.36265 19.7166379,20.8813084 19.1727436,20.9772116 C18.6288493,21.0731149 18.1101909,20.7099464 18.0142876,20.1660521 L17.8406395,19.1812443 C17.8298981,19.1203268 17.8249155,19.0597258 17.8253007,19 L6.15396186,19 C6.15434708,19.0597258 6.14936453,19.1203268 6.13862313,19.1812443 L5.96497495,20.1660521 C5.86907171,20.7099464 5.35041333,21.0731149 4.80651902,20.9772116 C4.26262472,20.8813084 3.89945621,20.36265 3.99535945,19.8187557 L4.13972817,19 L3,19 C1.34314575,19 -8.65973959e-15,17.6568542 -8.8817842e-15,16 L-8.8817842e-15,10 C-9.1038288e-15,8.8954305 0.8954305,8 2,8 L4,8 Z M6,13 L11,13 L11,6 L6,6 L6,13 Z M13,13 L18,13 L18,6 L13,6 L13,13 Z M4,10 L2,10 L2,16 C2,16.5522847 2.44771525,17 3,17 L21,17 C21.5522847,17 22,16.5522847 22,16 L22,10 L20,10 L20,13.5 C20,14.3284271 19.3284271,15 18.5,15 L5.5,15 C4.67157288,15 4,14.3284271 4,13.5 L4,10 Z"/>
</svg>
