<svg xmlns="http://www.w3.org/2000/svg" width="24" height="24" viewBox="0 0 24 24">
  <path fill="#000000" d="M17.6551627,5.38646789 C17.3590352,5.68259534 16.9097519,5.76283503 16.529427,5.58751851 C14.7354361,4.7605513 12.4075972,4.97717909 11.5494108,5.83536555 C11.013556,6.37122032 11.5860764,7.28624478 14.3778379,10.0780062 C17.1695993,12.8697677 18.0846238,13.4422881 18.6204786,12.9064334 C19.478665,12.0482469 19.6952928,9.72040798 18.8683256,7.92641711 C18.6930091,7.54609218 18.7732488,7.0968089 19.0693762,6.80068145 L20.5060967,5.36396103 C20.8966209,4.97343674 20.8966209,4.34027176 20.5060967,3.94974747 C20.1155724,3.55922318 19.4824074,3.55922318 19.0918831,3.94974747 L17.6551627,5.38646789 Z M17.6776695,2.53553391 C18.8492424,1.36396103 20.7487373,1.36396103 21.9203102,2.53553391 C23.0918831,3.70710678 23.0918831,5.60660172 21.9203102,6.77817459 L20.9499069,7.74857787 C21.7776481,10.1330517 21.4087567,12.9465823 20.0346921,14.3206469 C18.9891206,15.3662185 17.6924691,15.3166318 16.3170891,14.4560721 C15.4332834,13.9030849 14.7286213,13.2572168 12.9636243,11.4922198 C11.1986273,9.7272228 10.5527592,9.02256073 9.99977198,8.13875502 C9.13921233,6.76337507 9.08962566,5.46672353 10.1351972,4.42115199 C11.5092618,3.0470874 14.3227924,2.67819607 16.7072663,3.50593718 L17.6776695,2.53553391 Z M7.07106781,21.627417 L7.77817459,20.9203102 C8.16869888,20.5297859 8.80186386,20.5297859 9.19238816,20.9203102 C9.58291245,21.3108345 9.58291245,21.9439995 9.19238816,22.3345238 L8.48528137,23.0416306 C8.09475708,23.4321549 7.4615921,23.4321549 7.07106781,23.0416306 C6.68054352,22.6511063 6.68054352,22.0179413 7.07106781,21.627417 Z M9.89949494,18.7989899 L10.6066017,18.0918831 C10.997126,17.7013588 11.630291,17.7013588 12.0208153,18.0918831 C12.4113396,18.4824074 12.4113396,19.1155724 12.0208153,19.5060967 L11.3137085,20.2132034 C10.9231842,20.6037277 10.2900192,20.6037277 9.89949494,20.2132034 C9.50897064,19.8226791 9.50897064,19.1895142 9.89949494,18.7989899 Z M12.7279221,15.9705627 L13.4350288,15.263456 C13.8255531,14.8729317 14.4587181,14.8729317 14.8492424,15.263456 C15.2397667,15.6539803 15.2397667,16.2871452 14.8492424,16.6776695 L14.1421356,17.3847763 C13.7516113,17.7753006 13.1184464,17.7753006 12.7279221,17.3847763 C12.3373978,16.994252 12.3373978,16.361087 12.7279221,15.9705627 Z M2.12132034,16.6776695 L2.82842712,15.9705627 C3.21895142,15.5800385 3.8521164,15.5800385 4.24264069,15.9705627 C4.63316498,16.361087 4.63316498,16.994252 4.24264069,17.3847763 L3.53553391,18.0918831 C3.14500961,18.4824074 2.51184464,18.4824074 2.12132034,18.0918831 C1.73079605,17.7013588 1.73079605,17.0681938 2.12132034,16.6776695 Z M4.94974747,13.8492424 L5.65685425,13.1421356 C6.04737854,12.7516113 6.68054352,12.7516113 7.07106781,13.1421356 C7.4615921,13.5326599 7.4615921,14.1658249 7.07106781,14.5563492 L6.36396103,15.263456 C5.97343674,15.6539803 5.34027176,15.6539803 4.94974747,15.263456 C4.55922318,14.8729317 4.55922318,14.2397667 4.94974747,13.8492424 Z M7.77817459,11.0208153 L8.48528137,10.3137085 C8.87580567,9.92318421 9.50897064,9.92318421 9.89949494,10.3137085 C10.2900192,10.7042328 10.2900192,11.3373978 9.89949494,11.7279221 L9.19238816,12.4350288 C8.80186386,12.8255531 8.16869888,12.8255531 7.77817459,12.4350288 C7.3876503,12.0445046 7.3876503,11.4113396 7.77817459,11.0208153 Z M4.5976634,19.1540126 L6.71898375,17.0326922 C7.10950804,16.642168 7.74267302,16.642168 8.13319731,17.0326922 C8.5237216,17.4232165 8.5237216,18.0563815 8.13319731,18.4469058 L6.01187696,20.5682262 C5.62135267,20.9587504 4.98818769,20.9587504 4.5976634,20.5682262 C4.20713911,20.1777019 4.20713911,19.5445369 4.5976634,19.1540126 Z M8.84030409,14.9113719 L10.9616244,12.7900516 C11.3521487,12.3995273 11.9853137,12.3995273 12.375838,12.7900516 C12.7663623,13.1805758 12.7663623,13.8137408 12.375838,14.2042651 L10.2545177,16.3255855 C9.86399336,16.7161098 9.23082838,16.7161098 8.84030409,16.3255855 C8.4497798,15.9350612 8.4497798,15.3018962 8.84030409,14.9113719 Z"/>
</svg>
