<svg xmlns="http://www.w3.org/2000/svg" width="24" height="24" viewBox="0 0 24 24">
  <path d="M13,12.4142136 L13,21 C13,21.5522847 12.5522847,22 12,22 C11.4477153,22 11,21.5522847 11,21 L11,12.4142136 L8.70710678,14.7071068 C8.31658249,15.0976311 7.68341751,15.0976311 7.29289322,14.7071068 C6.90236893,14.3165825 6.90236893,13.6834175 7.29289322,13.2928932 L11.2928932,9.29289322 C11.6834175,8.90236893 12.3165825,8.90236893 12.7071068,9.29289322 L16.7071068,13.2928932 C17.0976311,13.6834175 17.0976311,14.3165825 16.7071068,14.7071068 C16.3165825,15.0976311 15.6834175,15.0976311 15.2928932,14.7071068 L13,12.4142136 Z M23,13 C23,16.3137085 20.3137085,19 17,19 L15,19 C14.4477153,19 14,18.5522847 14,18 C14,17.4477153 14.4477153,17 15,17 L17,17 C19.209139,17 21,15.209139 21,13 C21,10.790861 19.209139,9 17,9 C16.8739075,9 16.7486685,9.00580311 16.6245114,9.01732551 C16.23688,9.05329965 15.863604,8.86104504 15.6677994,8.52457397 C14.7652014,6.97354796 13.1087077,6 11.2816901,6 C8.79527104,6 6.68633355,7.8023672 6.28095462,10.2269017 C6.21118368,10.6441953 5.8863523,10.9724237 5.4698071,11.0465319 C4.05029006,11.2990807 3,12.5403907 3,14 C3,15.6568542 4.34314575,17 6,17 L8.92989186,17 C9.48217661,17 9.92989186,17.4477153 9.92989186,18 C9.92989186,18.5522847 9.48217661,19 8.92989186,19 L6,19 C3.23857625,19 1,16.7614237 1,14 C1,11.8025601 2.42697093,9.90317117 4.44917515,9.24518476 C5.26071423,6.19482887 8.04066156,4 11.2816901,4 C13.6179027,4 15.7560507,5.14328088 17.0639804,7.00033408 C20.3482171,7.03464617 23,9.70764454 23,13 Z"/>
</svg>
