<svg xmlns="http://www.w3.org/2000/svg" width="24" height="24" viewBox="0 0 24 24">
  <path d="M12,23 C5.92486775,23 1,18.0751322 1,12 C1,5.92486775 5.92486775,1 12,1 C18.0751322,1 23,5.92486775 23,12 C23,18.0751322 18.0751322,23 12,23 Z M12,21 C16.9705627,21 21,16.9705627 21,12 C21,7.02943725 16.9705627,3 12,3 C7.02943725,3 3,7.02943725 3,12 C3,16.9705627 7.02943725,21 12,21 Z M12.7071068,10.2928932 C12.8880712,10.4738576 13,10.7238576 13,11 L13,15 C13.5522847,15 14,15.4477153 14,16 C14,16.5522847 13.5522847,17 13,17 L11,17 C10.4477153,17 10,16.5522847 10,16 C10,15.4477153 10.4477153,15 11,15 L11,12 C10.4477153,12 10,11.5522847 10,11 C10,10.4477153 10.4477153,10 11,10 L12,10 C12.2761424,10 12.5261424,10.1119288 12.7071068,10.2928932 Z M12,9 C11.3096441,9 10.75,8.44035594 10.75,7.75 C10.75,7.05964406 11.3096441,6.5 12,6.5 C12.6903559,6.5 13.25,7.05964406 13.25,7.75 C13.25,8.44035594 12.6903559,9 12,9 Z"/>
</svg>
