<svg xmlns="http://www.w3.org/2000/svg" width="24" height="24" viewBox="0 0 24 24">
  <path d="M11.4787457,17.5465986 C11.7987621,17.3511338 12.2012379,17.3511338 12.5212543,17.5465986 L17.5228543,20.6015569 L16.1629958,14.9007186 C16.0759882,14.5359629 16.2003601,14.1531857 16.4851487,13.9092339 L20.936166,10.0964636 L15.0941272,9.62811006 C14.7203372,9.59814348 14.3947274,9.36157414 14.25072,9.01533886 L12,3.60395899 L9.74927999,9.01533886 C9.6052726,9.36157414 9.27966284,9.59814348 8.90587279,9.62811006 L3.06383397,10.0964636 L7.51485132,13.9092339 C7.79963992,14.1531857 7.92401178,14.5359629 7.83700421,14.9007186 L6.47714566,20.6015569 L11.4787457,17.5465986 Z M12,19.5717815 L7.5196543,22.3083596 C6.57701316,22.8841213 5.34610451,22.5867066 4.77034288,21.6440655 C4.49490612,21.1931184 4.40912125,20.6514941 4.53172687,20.1375033 L5.74986434,15.0307922 L1.76272095,11.6153793 C0.923846971,10.8967945 0.826333389,9.63422461 1.54491827,8.79535063 C1.8886798,8.39404438 2.37728614,8.14508701 2.90400767,8.10285999 L8.13720373,7.68331705 L10.1533593,2.83589774 C10.5775478,1.81602623 11.7481897,1.33312976 12.7680613,1.75731828 C13.2559543,1.96024447 13.6437145,2.34800466 13.8466407,2.83589774 L15.8627963,7.68331705 L21.0959923,8.10285999 C22.1970292,8.19112961 23.0180393,9.15525304 22.9297697,10.2562899 C22.8875427,10.7830115 22.6385853,11.2716178 22.2372791,11.6153793 L18.2501357,15.0307922 L19.4682731,20.1375033 C19.7245628,21.2119284 19.061333,22.2906859 17.9869079,22.5469757 C17.4729171,22.6695813 16.9312928,22.5837964 16.4803457,22.3083596 L12,19.5717815 Z"/>
</svg>
