<svg xmlns="http://www.w3.org/2000/svg" width="24" height="24" viewBox="0 0 24 24">
  <path d="M6.44575236,9 L10.4831008,2.5402425 C11.0685215,1.60356944 12.3024222,1.31882311 13.2390953,1.90424377 C13.369655,1.98584357 13.4903556,2.08224625 13.5987992,2.19153645 L13.7098509,2.30345513 C14.5695694,3.16988554 14.9412855,4.40759368 14.701189,5.60432724 L14.2535518,7.83552381 L16.8831574,7.50682311 C19.0752371,7.23281314 21.0743978,8.78771592 21.3484078,10.9797957 C21.3963696,11.36349 21.3884418,11.7521115 21.324872,12.1335306 L20.4041944,17.6575959 C20.0827358,19.5863478 18.4139753,21 16.4586187,21 L12,21 C10.3154285,21 8.58623724,20.6650197 6.8157529,20 L4,20 C2.8954305,20 2,19.1045695 2,18 L2,11 C2,9.8954305 2.8954305,9 4,9 L6.44575236,9 Z M4,11 L4,18 L6,18 L6,11 L4,11 Z M8,10.2867962 L8,18.2996392 C9.38043707,18.7677305 10.7129731,19 12,19 L16.4586187,19 C17.436297,19 18.2706773,18.2931739 18.4314066,17.328798 L19.3520841,11.8047326 C19.3838691,11.614023 19.3878329,11.4197123 19.3638521,11.2278651 C19.2268471,10.1318253 18.2272667,9.35437388 17.1312268,9.49137886 L13.1240347,9.99227788 C12.4464963,10.0769702 11.8852241,9.47276388 12.0195376,8.80329324 L12.7402642,5.21091373 C12.8492796,4.66753914 12.6805026,4.10556013 12.2901491,3.71215906 L12.1790974,3.60024038 L8,10.2867962 Z"/>
</svg>
