<svg xmlns="http://www.w3.org/2000/svg" width="24" height="24" viewBox="0 0 24 24">
  <path d="M5,7.86049862 C5,8.41278337 4.55228475,8.86049862 4,8.86049862 C3.44771525,8.86049862 3,8.41278337 3,7.86049862 L3,7 C3,5.8954305 3.8954305,5 5,5 L20,5 C21.1045695,5 22,5.8954305 22,7 L22,17 C22,18.1045695 21.1045695,19 20,19 L16.75,19 L14.6314133,18.9999794 L14.1314667,19.0032276 C13.5791933,19.0067278 13.1286159,18.5618931 13.1250739,18.0096197 C13.121532,17.4573463 13.5663667,17.0067689 14.1186401,17.0032269 L14.625,17 L20,17 L20,7 L5,7 L5,7.86049862 Z M4.5,19 C3.67157288,19 3,18.3284271 3,17.5 C3,16.6715729 3.67157288,16 4.5,16 C5.32842712,16 6,16.6715729 6,17.5 C6,18.3284271 5.32842712,19 4.5,19 Z M8.91429122,18.2177602 C8.80700908,18.7434904 8.28040709,19.0853691 7.73809275,18.9813677 C7.19577841,18.8773663 6.84311513,18.366868 6.95039727,17.8411378 C6.95906105,17.7986814 6.96655886,17.7559283 6.97287794,17.7129072 C6.98958916,17.5991351 6.99804745,17.4835602 6.99804745,17.3666472 C6.99804745,16.0268513 5.87766659,14.9407321 4.49560676,14.9407321 C4.37593165,14.9407321 4.25761567,14.9488063 4.14112667,14.9647603 C3.59373849,15.039729 3.08730144,14.6703272 3.00996785,14.1396784 C2.93263426,13.6090296 3.31368879,13.1180795 3.86107696,13.0431108 C4.07027064,13.0144603 4.28216566,13 4.49560676,13 C6.98331445,13 9,14.9550145 9,17.3666472 C9,17.5751677 8.98485103,17.7821646 8.95483884,17.9864914 C8.94344986,18.0640291 8.92992648,18.1411405 8.91429122,18.2177602 Z M11.9893494,18.0795483 C11.9471869,18.6302213 11.4665988,19.0424505 10.9159258,19.0002881 C10.3652528,18.9581256 9.95302354,18.4775375 9.99518601,17.9268645 C10.0060129,17.7854573 10.0114572,17.6431082 10.0114572,17.5 C10.0114572,14.4624339 7.54902336,12 4.51145723,12 C4.36600431,12 4.22133604,12.0056242 4.07764426,12.0168076 C3.52702465,12.059662 3.04591894,11.648037 3.00306456,11.0974173 C2.96021019,10.5467977 3.37183524,10.065692 3.92245484,10.0228377 C4.11776524,10.0076368 4.31420228,10 4.51145723,10 C8.65359286,10 12.0114572,13.3578644 12.0114572,17.5 C12.0114572,17.6940717 12.004065,17.8873524 11.9893494,18.0795483 Z"/>
</svg>
