<svg xmlns="http://www.w3.org/2000/svg" width="24" height="24" viewBox="0 0 24 24">
  <path d="M14.2964205,8.21938223 L12.357414,9.54607092 C12.7665437,10.2709987 13,11.108236 13,12 C13,12.891764 12.7665437,13.7290013 12.357414,14.4539291 L14.2964205,15.7806178 C14.8980644,15.2924899 15.6648749,15 16.5,15 C18.4329966,15 20,16.5670034 20,18.5 C20,20.4329966 18.4329966,22 16.5,22 C14.5670034,22 13,20.4329966 13,18.5 C13,18.1270855 13.0583212,17.7677926 13.1663401,17.4307448 L11.0359501,15.9731095 C10.1942172,16.6172732 9.14180389,17 8,17 C5.23857625,17 3,14.7614237 3,12 C3,9.23857625 5.23857625,7 8,7 C9.14180389,7 10.1942172,7.38272675 11.0359501,8.02689053 L13.1663401,6.56925524 C13.0583212,6.23220744 13,5.87291454 13,5.5 C13,3.56700338 14.5670034,2 16.5,2 C18.4329966,2 20,3.56700338 20,5.5 C20,7.43299662 18.4329966,9 16.5,9 C15.6648749,9 14.8980644,8.70751012 14.2964205,8.21938223 L14.2964205,8.21938223 Z M16.5,20 C17.3284271,20 18,19.3284271 18,18.5 C18,17.6715729 17.3284271,17 16.5,17 C15.6715729,17 15,17.6715729 15,18.5 C15,19.3284271 15.6715729,20 16.5,20 Z M8,15 C9.65685425,15 11,13.6568542 11,12 C11,10.3431458 9.65685425,9 8,9 C6.34314575,9 5,10.3431458 5,12 C5,13.6568542 6.34314575,15 8,15 Z M16.5,7 C17.3284271,7 18,6.32842712 18,5.5 C18,4.67157288 17.3284271,4 16.5,4 C15.6715729,4 15,4.67157288 15,5.5 C15,6.32842712 15.6715729,7 16.5,7 Z"/>
</svg>
