<svg xmlns="http://www.w3.org/2000/svg" width="24" height="24" viewBox="0 0 24 24">
  <path d="M16.9058481,5.87232649 C15.520347,4.79445705 13.8087325,4.19238816 12,4.19238816 C7.581722,4.19238816 4,7.77411016 4,12.1923882 C4,16.6106662 7.581722,20.1923882 12,20.1923882 C16.418278,20.1923882 20,16.6106662 20,12.1923882 C20,11.9286321 19.9872703,11.666591 19.9619926,11.4068302 C19.9365348,11.1452192 19.8983648,10.8860823 19.8477165,10.6300536 C19.7968345,10.3728437 19.7333935,10.1189488 19.6576921,9.86906553 C19.6197443,9.74380315 19.5787266,9.61958572 19.5346835,9.49650537 C19.3486085,8.97651063 19.6193039,8.40412799 20.1392986,8.21805295 C20.6592934,8.03197792 21.231676,8.30267333 21.417751,8.82266806 C21.4729015,8.97678843 21.5242653,9.1323379 21.5717852,9.28919685 C21.6665739,9.60208554 21.7460042,9.91997093 21.809695,10.2419295 C21.8730509,10.5621957 21.9207779,10.8862151 21.9525897,11.213122 C21.9841299,11.5372371 22,11.8639234 22,12.1923882 C22,17.7152357 17.5228475,22.1923882 12,22.1923882 C6.4771525,22.1923882 2,17.7152357 2,12.1923882 C2,6.66954066 6.4771525,2.19238816 12,2.19238816 C14.3453294,2.19238816 16.5639787,3.00453307 18.3288371,4.44933753 L19.0710678,3.70710678 C19.4615921,3.31658249 20.0947571,3.31658249 20.4852814,3.70710678 C20.8758057,4.09763107 20.8758057,4.73079605 20.4852814,5.12132034 L12.7071068,12.8994949 C12.3165825,13.2900192 11.6834175,13.2900192 11.2928932,12.8994949 C10.9023689,12.5089706 10.9023689,11.8758057 11.2928932,11.4852814 L14.0322322,8.7459424 C13.4264246,8.38782653 12.7292648,8.19238816 12,8.19238816 C9.790861,8.19238816 8,9.98324916 8,12.1923882 C8,14.4015272 9.790861,16.1923882 12,16.1923882 C13.0761957,16.1923882 14.0824741,15.7667683 14.8284271,15.0208153 C15.2000979,14.6491445 15.495814,14.2081438 15.6968989,13.723207 C15.7968188,13.4822401 15.8729087,13.2315979 15.9238472,12.974102 C15.9491613,12.8461388 15.9682431,12.7165922 15.9809743,12.585763 C16.0344653,12.0360747 16.5234387,11.6338274 17.073127,11.6873185 C17.6228152,11.7408095 18.0250625,12.2297829 17.9715715,12.7794712 C17.9524862,12.9755963 17.9238474,13.1700254 17.8858258,13.3622261 C17.8092071,13.7495356 17.6946914,14.1267534 17.5443648,14.4892812 C17.2423958,15.2175101 16.7991543,15.8785153 16.2426407,16.4350288 C15.1253331,17.5523364 13.6120808,18.1923882 12,18.1923882 C8.6862915,18.1923882 6,15.5060967 6,12.1923882 C6,8.87867966 8.6862915,6.19238816 12,6.19238816 C13.2682623,6.19238816 14.4753562,6.5885381 15.4766068,7.30156774 L16.9058481,5.87232649 L16.9058481,5.87232649 Z"/>
</svg>
