<svg xmlns="http://www.w3.org/2000/svg" width="24" height="24" viewBox="0 0 24 24">
  <path d="M5,12 C6.65685425,12 8,13.3431458 8,15 L8,17 C8,18.6568542 6.65685425,20 5,20 C3.34314575,20 2,18.6568542 2,17 L2,15 C2,13.3431458 3.34314575,12 5,12 Z M5,14 C4.44771525,14 4,14.4477153 4,15 L4,17 C4,17.5522847 4.44771525,18 5,18 C5.55228475,18 6,17.5522847 6,17 L6,15 C6,14.4477153 5.55228475,14 5,14 Z M12,8 C13.6568542,8 15,9.34314575 15,11 L15,17 C15,18.6568542 13.6568542,20 12,20 C10.3431458,20 9,18.6568542 9,17 L9,11 C9,9.34314575 10.3431458,8 12,8 Z M12,10 C11.4477153,10 11,10.4477153 11,11 L11,17 C11,17.5522847 11.4477153,18 12,18 C12.5522847,18 13,17.5522847 13,17 L13,11 C13,10.4477153 12.5522847,10 12,10 Z M19,4 C20.6568542,4 22,5.34314575 22,7 L22,17 C22,18.6568542 20.6568542,20 19,20 C17.3431458,20 16,18.6568542 16,17 L16,7 C16,5.34314575 17.3431458,4 19,4 Z M19,6 C18.4477153,6 18,6.44771525 18,7 L18,17 C18,17.5522847 18.4477153,18 19,18 C19.5522847,18 20,17.5522847 20,17 L20,7 C20,6.44771525 19.5522847,6 19,6 Z"/>
</svg>
