<svg xmlns="http://www.w3.org/2000/svg" width="24" height="24" viewBox="0 0 24 24">
  <path d="M15.7416414,3.03430655 C16.0489556,3.49319263 15.9260823,4.11432067 15.4671962,4.42163486 C15.0083101,4.72894906 14.3871821,4.60607577 14.0798679,4.14718969 C14.0550501,4.11013146 14.0291925,4.07368062 14.0023069,4.0378672 C13.9312061,3.94315624 13.8529616,3.85296163 13.767767,3.76776695 C12.7914562,2.79145622 11.2085438,2.79145622 10.232233,3.76776695 C10.1476925,3.8523075 10.0699957,3.94177162 9.99933161,4.03568713 C9.667277,4.47700129 9.04033775,4.56557365 8.5990236,4.23351904 C8.15770944,3.90146444 8.06913708,3.27452518 8.40119169,2.83321103 C8.52809199,2.66455534 8.66724103,2.50433184 8.81801948,2.35355339 C10.5753788,0.596194078 13.4246212,0.596194078 15.1819805,2.35355339 C15.3339297,2.50550253 15.4740671,2.66704291 15.6017591,2.83713718 C15.6502155,2.90168433 15.6968535,2.96742867 15.7416414,3.03430655 Z M10.2675644,6 C10.6133738,5.40219863 11.2597176,5 12,5 C12.7402824,5 13.3866262,5.40219863 13.7324356,6 L17,6 C18.1045695,6 19,6.8954305 19,8 L19,20 C19,21.1045695 18.1045695,22 17,22 L7,22 C5.8954305,22 5,21.1045695 5,20 L5,8 C5,6.8954305 5.8954305,6 7,6 L10.2675644,6 L10.2675644,6 Z M9,17 C8.44771525,17 8,16.5522847 8,16 C8,15.4477153 8.44771525,15 9,15 C9.55228475,15 10,15.4477153 10,16 C10,16.5522847 9.55228475,17 9,17 Z M9,14 C8.44771525,14 8,13.5522847 8,13 C8,12.4477153 8.44771525,12 9,12 C9.55228475,12 10,12.4477153 10,13 C10,13.5522847 9.55228475,14 9,14 Z M12,17 C11.4477153,17 11,16.5522847 11,16 C11,15.4477153 11.4477153,15 12,15 C12.5522847,15 13,15.4477153 13,16 C13,16.5522847 12.5522847,17 12,17 Z M12,14 C11.4477153,14 11,13.5522847 11,13 C11,12.4477153 11.4477153,12 12,12 C12.5522847,12 13,12.4477153 13,13 C13,13.5522847 12.5522847,14 12,14 Z M9,11 C8.44771525,11 8,10.5522847 8,10 C8,9.44771525 8.44771525,9 9,9 C9.55228475,9 10,9.44771525 10,10 C10,10.5522847 9.55228475,11 9,11 Z M12,11 C11.4477153,11 11,10.5522847 11,10 C11,9.44771525 11.4477153,9 12,9 C12.5522847,9 13,9.44771525 13,10 C13,10.5522847 12.5522847,11 12,11 Z M15,11 C14.4477153,11 14,10.5522847 14,10 C14,9.44771525 14.4477153,9 15,9 C15.5522847,9 16,9.44771525 16,10 C16,10.5522847 15.5522847,11 15,11 Z M15,12 C15.5522847,12 16,12.4477153 16,13 L16,16 C16,16.5522847 15.5522847,17 15,17 C14.4477153,17 14,16.5522847 14,16 L14,13 C14,12.4477153 14.4477153,12 15,12 Z M7,8 L7,20 L17,20 L17,8 L7,8 Z"/>
</svg>
