<svg xmlns="http://www.w3.org/2000/svg" width="24" height="24" viewBox="0 0 24 24">
  <path d="M16,11 C15.4477153,11 15,10.5522847 15,10 L15,8 C15,7.44771525 15.4477153,7 16,7 L18,7 C18.5522847,7 19,7.44771525 19,8 L19,10 C19,10.5522847 18.5522847,11 18,11 L18,12.8951963 C18,13.2410213 17.8213203,13.5623004 17.5275291,13.7447332 L13,16.5561511 L13,18.1439145 C13.0000614,18.1503234 13.0000614,18.1567341 13,18.1631457 L13,19.2675644 C13.5978014,19.6133738 14,20.2597176 14,21 C14,22.1045695 13.1045695,23 12,23 C10.8954305,23 10,22.1045695 10,21 C10,20.2597176 10.4021986,19.6133738 11,19.2675644 L11,18.6419703 L6.38612877,15.0540546 C6.14250121,14.8646009 6,14.5732697 6,14.2646484 L6,11.7324356 C5.40219863,11.3866262 5,10.7402824 5,10 C5,8.8954305 5.8954305,8 7,8 C8.1045695,8 9,8.8954305 9,10 C9,10.7402824 8.59780137,11.3866262 8,11.7324356 L8,13.7755102 L11,16.1084203 L11,16.0174805 C10.9998177,16.0064515 10.999818,15.9954285 11,15.9844161 L11,5 L9.20710678,5 C9.07449854,5 8.94732158,4.94732158 8.85355339,4.85355339 C8.65829124,4.65829124 8.65829124,4.34170876 8.85355339,4.14644661 L11.6464466,1.35355339 C11.8417088,1.15829124 12.1582912,1.15829124 12.3535534,1.35355339 L15.1464466,4.14644661 C15.2402148,4.2402148 15.2928932,4.36739176 15.2928932,4.5 C15.2928932,4.77614237 15.0690356,5 14.7928932,5 L13,5 L13,14.2019274 L16,12.3390452 L16,11 L16,11 Z"/>
</svg>
