<svg xmlns="http://www.w3.org/2000/svg" width="24" height="24" viewBox="0 0 24 24">
  <path d="M11.8994949,21 C10.7949254,21 9.89949494,20.1045695 9.89949494,19 C9.89949494,17.8954305 10.7949254,17 11.8994949,17 C13.0040644,17 13.8994949,17.8954305 13.8994949,19 C13.8994949,20.1045695 13.0040644,21 11.8994949,21 Z M16.8234665,14.0246095 C17.2160032,14.413111 17.2192743,15.0462675 16.8307728,15.4388042 C16.4422712,15.8313408 15.8091147,15.8346119 15.4165781,15.4461104 C15.2045142,15.2362264 14.9741761,15.0455495 14.7284759,14.8765926 C13.9022708,14.3084487 12.9252419,14 11.8994949,14 C10.873748,14 9.8967191,14.3084487 9.07051398,14.8765926 C8.82481378,15.0455495 8.59447571,15.2362264 8.3824118,15.4461104 C7.98987516,15.8346119 7.35671863,15.8313408 6.96821711,15.4388042 C6.57971559,15.0462675 6.5829867,14.413111 6.97552334,14.0246095 C7.27183331,13.7313455 7.59373931,13.4648673 7.93728321,13.2286277 C9.09431547,12.4329891 10.465833,12 11.8994949,12 C13.3331569,12 14.7046744,12.4329891 15.8617067,13.2286277 C16.2052506,13.4648673 16.5271566,13.7313455 16.8234665,14.0246095 Z M22.5060967,8.39339828 C22.8966209,8.78392257 22.8966209,9.41708755 22.5060967,9.80761184 C22.1155724,10.1981361 21.4824074,10.1981361 21.0918831,9.80761184 C19.8848464,8.6005752 18.4520404,7.63979721 16.8752545,6.98596369 C15.3122961,6.33786395 13.6303087,6 11.8994949,6 C8.40385029,6 5.12999432,7.38472431 2.70710678,9.80761184 C2.31658249,10.1981361 1.68341751,10.1981361 1.29289322,9.80761184 C0.902368927,9.41708755 0.902368927,8.78392257 1.29289322,8.39339828 C4.08713532,5.59915618 7.86796518,4 11.8994949,4 C13.8943703,4 15.8365732,4.39013392 17.6413287,5.1384978 C19.4614067,5.89321533 21.1142172,7.0015188 22.5060967,8.39339828 Z M19.6371514,11.1815161 C20.0296881,11.5700176 20.0329592,12.2031742 19.6444577,12.5957108 C19.2559561,12.9882474 18.6227996,12.9915185 18.230263,12.603017 C17.8487411,12.225417 17.4343217,11.8823551 16.9922068,11.5783327 C15.5049225,10.5555946 13.7450449,10 11.8994949,10 C10.053945,10 8.29406733,10.5555946 6.80678309,11.5783327 C6.36466819,11.8823551 5.95024876,12.225417 5.56872689,12.603017 C5.17619025,12.9915185 4.54303373,12.9882474 4.1545322,12.5957108 C3.76603068,12.2031742 3.7693018,11.5700176 4.16183843,11.1815161 C4.62760636,10.7205361 5.13359372,10.3016729 5.67355232,9.93036784 C7.4916637,8.68013499 9.64603001,8 11.8994949,8 C14.1529599,8 16.3073262,8.68013499 18.1254376,9.93036784 C18.6653962,10.3016729 19.1713835,10.7205361 19.6371514,11.1815161 Z"/>
</svg>
