<svg xmlns="http://www.w3.org/2000/svg" width="24" height="24" viewBox="0 0 24 24">
  <path fill="#000000" fill-rule="evenodd" d="M23,12 L23,19 C23,20.1045695 22.1045695,21 21,21 L13.5,21 C13.1212279,21 12.7749648,20.7859976 12.6055728,20.4472136 L12,19.236068 L11.3944272,20.4472136 C11.2250352,20.7859976 10.8787721,21 10.5,21 L3,21 C1.8954305,21 1,20.1045695 1,19 L1,12 C1,11.618224 1.10697027,11.2614322 1.29257371,10.9579618 C1.36414312,10.7290818 1.4610267,10.5077179 1.58216328,10.2981383 L6.36487992,3.75362265 C6.47484945,3.56336327 6.60948138,3.38847185 6.76527884,3.23349095 C6.91561071,3.083947 7.11903214,3 7.3310771,3 L8,3 L9,3 C9.55228475,3 10,3.44771525 10,4 C10,4.55228475 9.55228475,5 9,5 L8.3456933,5 C8.1376702,5 7.95137959,5.12879883 7.87791293,5.32341708 L5.11254456,10 L19.0311426,10 L17.2657743,5.32341708 C17.1923076,5.12879883 17.006017,5 16.7979939,5 L16,5 C15.4477153,5 15,4.55228475 15,4 C15,3.44771525 15.4477153,3 16,3 L17.8126101,3 C18.0246551,3 18.2280765,3.083947 18.3784084,3.23349095 C18.5342058,3.38847185 18.6688378,3.56336327 18.7788073,3.75362265 L22.5615239,10.2981383 C22.8553691,10.8065228 23.0065051,11.3842479 22.9997853,11.9703932 C22.9999283,11.980245 23,11.9901141 23,12 Z M21,19 L21,12 L3,12 L3,19 L9.88196601,19 L11.1055728,16.5527864 C11.4740971,15.8157379 12.5259029,15.8157379 12.8944272,16.5527864 L14.118034,19 L21,19 Z M6,14 L8.99342773,14 C9.54571248,14 9.99342773,14.4477153 9.99342773,15 C9.99342773,15.1658901 9.95215805,15.3291742 9.87333665,15.4751424 L9.33334623,16.4751424 C9.15875155,16.7984716 8.82089491,17 8.45343731,17 L6,17 C5.44771525,17 5,16.5522847 5,16 L5,15 C5,14.4477153 5.44771525,14 6,14 Z M18,14 C18.5522847,14 19,14.4477153 19,15 L19,16 C19,16.5522847 18.5522847,17 18,17 L15.5465627,17 C15.1791051,17 14.8412484,16.7984716 14.6666538,16.4751424 L14.1266633,15.4751424 C14.0478419,15.3291742 14.0065723,15.1658901 14.0065723,15 C14.0065723,14.4477153 14.4542875,14 15.0065723,14 L18,14 Z"/>
</svg>
