<svg xmlns="http://www.w3.org/2000/svg" width="24" height="24" viewBox="0 0 24 24">
  <path fill="#000000" d="M19.9926211,11.8779041 C19.9974924,11.9179212 20,11.9586678 20,12 C20,16.8519094 21.0740453,19 23,19 C23.5522847,19 24,19.4477153 24,20 C24,20.5522847 23.5522847,21 23,21 C20.6580018,21 19.1733392,19.4952136 18.473882,16.6660925 C16.7804112,19.2746122 13.8416986,21 10.5,21 C5.25329488,21 1,16.7467051 1,11.5 C1,6.25329488 5.25329488,2 10.5,2 C15.7467051,2 20,6.25329488 20,11.5 C20,11.6265613 19.9975251,11.7525446 19.9926211,11.8779041 Z M10.5,19 C14.6421356,19 18,15.6421356 18,11.5 C18,7.35786438 14.6421356,4 10.5,4 C6.35786438,4 3,7.35786438 3,11.5 C3,15.6421356 6.35786438,19 10.5,19 Z M10.5,12.75 C9.80964406,12.75 9.25,12.1903559 9.25,11.5 C9.25,10.8096441 9.80964406,10.25 10.5,10.25 C11.1903559,10.25 11.75,10.8096441 11.75,11.5 C11.75,12.1903559 11.1903559,12.75 10.5,12.75 Z M11.25,8.5 C11.25,7.25735931 12.2573593,6.25 13.5,6.25 C14.7426407,6.25 15.75,7.25735931 15.75,8.5 C15.75,9.74264069 14.7426407,10.75 13.5,10.75 C12.2573593,10.75 11.25,9.74264069 11.25,8.5 Z M12.75,8.5 C12.75,8.91421356 13.0857864,9.25 13.5,9.25 C13.9142136,9.25 14.25,8.91421356 14.25,8.5 C14.25,8.08578644 13.9142136,7.75 13.5,7.75 C13.0857864,7.75 12.75,8.08578644 12.75,8.5 Z M5.25,8.5 C5.25,7.25735931 6.25735931,6.25 7.5,6.25 C8.74264069,6.25 9.75,7.25735931 9.75,8.5 C9.75,9.74264069 8.74264069,10.75 7.5,10.75 C6.25735931,10.75 5.25,9.74264069 5.25,8.5 Z M6.75,8.5 C6.75,8.91421356 7.08578644,9.25 7.5,9.25 C7.91421356,9.25 8.25,8.91421356 8.25,8.5 C8.25,8.08578644 7.91421356,7.75 7.5,7.75 C7.08578644,7.75 6.75,8.08578644 6.75,8.5 Z M11.25,14.5 C11.25,13.2573593 12.2573593,12.25 13.5,12.25 C14.7426407,12.25 15.75,13.2573593 15.75,14.5 C15.75,15.7426407 14.7426407,16.75 13.5,16.75 C12.2573593,16.75 11.25,15.7426407 11.25,14.5 Z M12.75,14.5 C12.75,14.9142136 13.0857864,15.25 13.5,15.25 C13.9142136,15.25 14.25,14.9142136 14.25,14.5 C14.25,14.0857864 13.9142136,13.75 13.5,13.75 C13.0857864,13.75 12.75,14.0857864 12.75,14.5 Z M5.25,14.5 C5.25,13.2573593 6.25735931,12.25 7.5,12.25 C8.74264069,12.25 9.75,13.2573593 9.75,14.5 C9.75,15.7426407 8.74264069,16.75 7.5,16.75 C6.25735931,16.75 5.25,15.7426407 5.25,14.5 Z M6.75,14.5 C6.75,14.9142136 7.08578644,15.25 7.5,15.25 C7.91421356,15.25 8.25,14.9142136 8.25,14.5 C8.25,14.0857864 7.91421356,13.75 7.5,13.75 C7.08578644,13.75 6.75,14.0857864 6.75,14.5 Z"/>
</svg>
