<svg xmlns="http://www.w3.org/2000/svg" width="24" height="24" viewBox="0 0 24 24">
  <path fill="#000000" d="M17.8033009,13.0606602 C17.4127766,12.6701359 17.4127766,12.0369709 17.8033009,11.6464466 C18.1938252,11.2559223 18.8269901,11.2559223 19.2175144,11.6464466 L22.0459415,8.81801948 L21.1007688,7.87284674 C19.8561981,8.31661997 18.4266767,8.02718173 17.4497475,7.05025253 C16.4728183,6.07332333 16.18338,4.64380195 16.6271533,3.3992312 L15.6819805,2.45405845 L12.8535534,5.28248558 C13.2440777,5.67300987 13.2440777,6.30617485 12.8535534,6.69669914 C12.4630291,7.08722343 11.8298641,7.08722343 11.4393398,6.69669914 L2.95405845,15.1819805 L3.8992312,16.1271533 C5.14380195,15.68338 6.57332333,15.9728183 7.55025253,16.9497475 C8.52718173,17.9266767 8.81661997,19.3561981 8.37284674,20.6007688 L9.31801948,21.5459415 L17.8033009,13.0606602 Z M2.9894202,18.0457694 L1.53984489,16.5961941 C0.758796308,15.8151455 0.758796308,14.5488155 1.53984489,13.767767 L14.267767,1.03984489 C15.0488155,0.258796308 16.3151455,0.258796308 17.0961941,1.03984489 L18.5457694,2.4894202 C18.8820703,2.82572114 18.9349812,3.35235423 18.6723029,3.7488347 C18.2821615,4.33770497 18.3573504,5.12942837 18.863961,5.63603897 C19.3705716,6.14264957 20.162295,6.21783847 20.7511653,5.82769708 C21.1476458,5.56501878 21.6742789,5.61792967 22.0105798,5.95423062 L23.4601551,7.40380592 C24.2412037,8.18485451 24.2412037,9.45118446 23.4601551,10.232233 L10.732233,22.9601551 C9.95118446,23.7412037 8.68485451,23.7412037 7.90380592,22.9601551 L6.45423062,21.5105798 C6.11792967,21.1742789 6.06501878,20.6476458 6.32769708,20.2511653 C6.71783847,19.662295 6.64264957,18.8705716 6.13603897,18.363961 C5.62942837,17.8573504 4.83770497,17.7821615 4.2488347,18.1723029 C3.85235423,18.4349812 3.32572114,18.3820703 2.9894202,18.0457694 Z M14.9748737,7.40380592 C15.365398,7.79433021 15.365398,8.42749519 14.9748737,8.81801948 C14.5843494,9.20854378 13.9511845,9.20854378 13.5606602,8.81801948 C13.1701359,8.42749519 13.1701359,7.79433021 13.5606602,7.40380592 C13.9511845,7.01328163 14.5843494,7.01328163 14.9748737,7.40380592 Z M17.0961941,9.52512627 C17.4867184,9.91565056 17.4867184,10.5488155 17.0961941,10.9393398 C16.7056698,11.3298641 16.0725048,11.3298641 15.6819805,10.9393398 C15.2914562,10.5488155 15.2914562,9.91565056 15.6819805,9.52512627 C16.0725048,9.13460197 16.7056698,9.13460197 17.0961941,9.52512627 Z"/>
</svg>
