<svg xmlns="http://www.w3.org/2000/svg" width="24" height="24" viewBox="0 0 24 24">
  <path fill="#000000" d="M9.46388221,4.60325304 C9.17009122,4.13948993 9,3.58960843 9,3 C9,1.34314575 10.3431458,0 12,0 C13.6568542,0 15,1.34314575 15,3 C15,3.58960843 14.8299088,4.13948993 14.5361178,4.60325304 L14.7276069,4.65112531 C16.0631079,4.98500056 17,6.18494989 17,7.56155281 L17,9.39006758 C17,9.98644188 16.8222529,10.5692837 16.4894565,11.0641663 L15.5546639,12.4542429 L15.0026721,20 L16,20 C16.5522847,20 17,20.4477153 17,21 L17,23 C17,23.5522847 16.5522847,24 16,24 L8,24 C7.44771525,24 7,23.5522847 7,23 L7,21 C7,20.4477153 7.44771525,20 8,20 L8.99732354,20 L8.44462992,12.4508436 L7.5115058,11.0649683 C7.17809701,10.5697898 7,9.98640117 7,9.38943954 L7,7.56155281 C7,6.18494989 7.93689212,4.98500056 9.27239312,4.65112531 L9.46388221,4.60325304 Z M12,6.03077641 L9.75746437,6.59141031 C9.31229737,6.70270206 9,7.10268517 9,7.56155281 L9,9.38943954 C9,9.58842675 9.05936567,9.78288963 9.17050193,9.94794913 L10.2520538,11.5542693 C10.3493176,11.6987254 10.4071706,11.8660777 10.4198865,12.0397617 L10.9294638,19 L13.0704805,19 L13.5793627,12.0435538 C13.5920554,11.8700431 13.6497955,11.7028457 13.7468789,11.5584785 L14.8298188,9.94810049 C14.940751,9.78313962 15,9.58885901 15,9.39006758 L15,7.56155281 C15,7.10268517 14.6877026,6.70270206 14.2425356,6.59141031 L12,6.03077641 Z M12,4 C12.5522847,4 13,3.55228475 13,3 C13,2.44771525 12.5522847,2 12,2 C11.4477153,2 11,2.44771525 11,3 C11,3.55228475 11.4477153,4 12,4 Z"/>
</svg>
