<svg xmlns="http://www.w3.org/2000/svg" width="24" height="24" viewBox="0 0 24 24">
  <path fill="#000000" d="M13.8414067,2.30321264 C13.8777362,2.29680677 13.9139532,2.29244908 13.949939,2.29005664 C14.1294705,2.26366725 14.3131391,2.25 14.5,2.25 C16.1349602,2.25 17.5255424,3.29630638 18.0386814,4.75585389 C18.1086267,4.75196852 18.1790835,4.75 18.25,4.75 C20.3210678,4.75 22,6.42893219 22,8.5 C22,9.48153179 21.6229028,10.3779789 21.0056831,11.0486638 L19.1256608,22.328798 C18.9649314,23.2931739 18.1305512,24 17.1528729,24 L6.8244247,24 C5.85611593,24 5.02688961,23.3063267 4.85586659,22.3532407 L2.91890297,11.5588285 C2.34296502,10.7138527 2,9.65549481 2,8.5 C2,6.13817227 3.43288148,4.15882157 5.35934909,3.63542829 C6.35460073,2.05224315 8.11691809,1 10.125,1 C11.5048278,1 12.768616,1.49682454 13.7472352,2.32134422 C13.7784184,2.31483058 13.8098109,2.30878383 13.8414067,2.30321264 Z M11.9410069,3.48644545 C11.3970818,3.17058917 10.7756878,3 10.125,3 C8.86206723,3 7.71316666,3.64901783 7.05257077,4.69985317 C6.78539536,5.12485939 6.36816012,5.43384795 5.88371216,5.56546543 C4.83427379,5.8505826 4,7.04203301 4,8.5 C4,9.09354178 4.13692253,9.54162724 4.36844878,10 L19.083642,10 C19.6294414,9.70373978 20,9.1646754 20,8.5 C20,7.53350169 19.2164983,6.75 18.25,6.75 C18.2163119,6.75 18.1828447,6.75092909 18.1496079,6.75277535 C17.2611927,6.80212569 16.4470102,6.25861793 16.1518926,5.41919989 C15.9077652,4.72481585 15.2488725,4.25 14.5,4.25 C14.3799095,4.25 14.2625332,4.26180522 14.1484575,4.28491982 C14.1275124,4.28916382 14.1065396,4.29306481 14.0855467,4.29662472 C13.5997658,4.43590565 13.287841,4.92255581 13.3775435,5.43128408 C13.4734467,5.97517838 13.1102782,6.49383677 12.5663839,6.58974001 C12.0224896,6.68564325 11.5038312,6.32247473 11.407928,5.77858043 C11.2601976,4.9407599 11.4755723,4.12289985 11.9410069,3.48644545 Z M9.99249296,22 L11,22 L11,12 L9.00599721,12 L9.99249296,22 Z M14.0135042,22 L15,12 L13.0059972,12 L13.0059972,22 L14.0135042,22 Z M6.99628903,12 L5.03001144,12 L6.8244247,22 L7.98278478,22 L6.99628903,12 Z M17.0267844,12 L16.0402886,22 L17.1528729,22 L18.8195396,12 L17.0267844,12 Z M12.7970059,9.03837456 C12.4260301,8.85411986 12.2746627,8.40401657 12.4589174,8.03304072 C12.6431721,7.66206487 13.0932753,7.51069747 13.4642512,7.69495217 C13.6323901,7.77846267 13.8224071,7.76566851 14.1055863,7.61509944 C14.3562516,7.48181835 14.4401208,7.35382795 14.441882,7.15042887 C14.4454686,6.73623083 14.7841499,6.40336445 15.1983479,6.40695099 C15.6125459,6.41053753 15.9454123,6.74921885 15.9418258,7.16341688 C15.9351196,7.93788719 15.5295462,8.55682163 14.8097937,8.93952083 C14.1225551,9.30493206 13.4278645,9.35170672 12.7970059,9.03837456 Z M8.91001289,4.83034941 C9.32225836,4.79001901 9.6891436,5.09151575 9.72947401,5.50376123 C9.76980441,5.9160067 9.46830767,6.28289194 9.05606219,6.32322235 C8.86921851,6.34150146 8.71485479,6.45304521 8.55449463,6.73079715 C8.41254664,6.97665829 8.40924614,7.12964418 8.51553762,7.3030697 C8.73198758,7.65623013 8.62116184,8.11799059 8.26800141,8.33444055 C7.91484098,8.5508905 7.45308052,8.44006477 7.23663057,8.08690433 C6.83191096,7.42656255 6.84787146,6.6867552 7.25545653,5.98079715 C7.64462944,5.30672989 8.20897369,4.8989328 8.91001289,4.83034941 Z"/>
</svg>
