<svg xmlns="http://www.w3.org/2000/svg" width="24" height="24" viewBox="0 0 24 24">
  <path fill="#000000" d="M4,3 L20,3 C21.1045695,3 22,3.8954305 22,5 L22,20 C22,21.1045695 21.1045695,22 20,22 L4,22 C2.8954305,22 2,21.1045695 2,20 L2,5 C2,3.8954305 2.8954305,3 4,3 Z M4,8 L4,20 L20,20 L20,8 L4,8 Z M14.9723633,14.8636653 L10.5988528,17.2633218 C10.0916712,17.5416021 9.44068055,17.3804658 9.14482458,16.9034139 C9.04997736,16.7504778 9,16.5765975 9,16.3995429 L9,11.60023 C9,11.0479452 9.47599215,10.60023 10.0631582,10.60023 C10.2513953,10.60023 10.4362576,10.6472384 10.5988528,10.7364511 L14.9723633,13.1361075 C15.479545,13.4143878 15.6508583,14.0267055 15.3550024,14.5037575 C15.2625939,14.6527611 15.1307778,14.7767465 14.9723633,14.8636653 Z"/>
</svg>
