<svg xmlns="http://www.w3.org/2000/svg" width="24" height="24" viewBox="0 0 24 24">
  <path fill="#000000" d="M2,10.0107472 L1.43206372,8.45035512 C1.0542787,7.41239931 1.58945287,6.26471461 2.62740868,5.88692959 L17.6624906,0.414607301 C18.7004464,0.0368222828 19.8481311,0.571996448 20.2259161,1.60995226 L20.5679363,2.54964488 C20.9457213,3.58760069 20.4105471,4.73528539 19.3725913,5.11307041 L8.69334003,9 L14.0857864,9 L14.267767,8.81801948 L14.4497475,9 L19.0857864,9 L19.267767,8.81801948 L19.4497475,9 L20,9 C21.1045695,9 22,9.8954305 22,11 L22,20 C22,21.1045695 21.1045695,22 20,22 L4,22 C2.8954305,22 2,21.1045695 2,20 L2,10.0107472 Z M17.0857864,11 L14.9142136,11 L12.9142136,13 L15.0857864,13 L17.0857864,11 Z M19.9142136,11 L17.9142136,13 L20,13 L20,11 L19.9142136,11 Z M12.0857864,11 L9.91421356,11 L7.91421356,13 L10.0857864,13 L12.0857864,11 Z M7.08578644,11 L4,11 L4,13 L5.08578644,13 L7.08578644,11 Z M4,15 L4,20 L20,20 L20,15 L4,15 Z M3.65346911,8.70600746 L18.688551,3.23368516 L18.3465309,2.29399254 L3.31144896,7.76631484 L3.65346911,8.70600746 Z"/>
</svg>
