<svg xmlns="http://www.w3.org/2000/svg" width="24" height="24" viewBox="0 0 24 24">
  <path fill="#000000" d="M3,13 L3,2 C3,1.44771525 3.44771525,1 4,1 C4.55228475,1 5,1.44771525 5,2 L19,2 C19,1.44771525 19.4477153,1 20,1 C20.5522847,1 21,1.44771525 21,2 L21,13 C21.5522847,13 22,13.4477153 22,14 C22,14.5522847 21.5522847,15 21,15 L18.2830422,15 L13.9080422,17.6923077 L19.5240974,21.1483417 C19.9944553,21.4377927 20.1411093,22.0537395 19.8516583,22.5240974 C19.5622073,22.9944553 18.9462605,23.1411093 18.4759026,22.8516583 L12,18.8664875 L5.52409743,22.8516583 C5.05373953,23.1411093 4.4377927,22.9944553 4.14834168,22.5240974 C3.85889067,22.0537395 4.00554467,21.4377927 4.47590257,21.1483417 L10.0919578,17.6923077 L5.71695781,15 L3,15 C2.44771525,15 2,14.5522847 2,14 C2,13.4477153 2.44771525,13 3,13 Z M5,13 L5.98418711,13 C5.99535219,12.9998129 6.0065279,12.9998125 6.01770989,13 L17.9822901,13 C17.9934721,12.9998125 18.0046478,12.9998129 18.0158124,13 L19,13 L19,10 L5,10 L5,13 Z M14.4669578,15 L9.53304219,15 L12,16.5181279 L14.4669578,15 Z M19,4 L5,4 L5,8 L19,8 L19,4 Z"/>
</svg>
