<svg xmlns="http://www.w3.org/2000/svg" width="24" height="24" viewBox="0 0 24 24">
  <path fill="#000000" d="M11.5,19.0411331 L6.49420943,22.7041875 C4.92669415,23.8512378 2.80903768,22.3158729 3.41190164,20.4694213 L5.35677939,14.51265 L0.794191836,10.6010888 C-0.715968878,9.43512167 0.108551265,7.01802432 2.01644664,7.01802432 L7.71091916,7 L9.60407463,1.3632371 C10.2145479,-0.454412367 12.7854521,-0.454412367 13.3959254,1.3632371 L15.2890808,7 L21.0600338,7 C22.9679292,7 23.7924494,9.41709735 22.2822886,10.5830645 L17.6432206,14.51265 L19.5880984,20.4694213 C20.1909623,22.3158729 18.0733059,23.8512378 16.5057906,22.7041875 L11.5,19.0411331 Z M11.5,16.5628452 L17.6868695,21.0901699 L15.3040148,13.7919627 L21.0600338,9 L13.8510104,9 L11.5,2 L9.14898958,9 L2.01644664,9.01802432 L7.69598524,13.7919627 L5.31313048,21.0901699 L11.5,16.5628452 Z M11.5,16 C10.6715729,16 10,15.3284271 10,14.5 C10,13.6715729 10.6715729,13 11.5,13 C12.3284271,13 13,13.6715729 13,14.5 C13,15.3284271 12.3284271,16 11.5,16 Z M9,10 L14,10 C14.5522847,10 15,10.4477153 15,11 C15,11.5522847 14.5522847,12 14,12 L9,12 C8.44771525,12 8,11.5522847 8,11 C8,10.4477153 8.44771525,10 9,10 Z"/>
</svg>
