<svg xmlns="http://www.w3.org/2000/svg" width="24" height="24" viewBox="0 0 24 24">
  <path fill="#000000" d="M3.66666667,1 L20.3333333,1 C21.2538079,1 22,1.8954305 22,3 L22,14 L2,14 L2,3 C2,1.8954305 2.74619208,1 3.66666667,1 Z M8.82606816,3 C8.29285958,5.25728107 6.58275155,7.05983834 4.37919479,7.7242211 C4.77732896,8.56600119 5,9.50699679 5,10.5 C5,11.0162692 4.93981131,11.5184807 4.82606816,12 L19.1739318,12 C19.0601887,11.5184807 19,11.0162692 19,10.5 C19,9.50699679 19.222671,8.56600119 19.6208052,7.7242211 C17.4172484,7.05983834 15.7071404,5.25728107 15.1739318,3 L8.82606816,3 Z M5,15 C6.65685425,15 8,16.3431458 8,18 L8,22 C8,22.5522847 7.55228475,23 7,23 L3,23 C2.44771525,23 2,22.5522847 2,22 L2,18 C2,16.3431458 3.34314575,15 5,15 Z M6,21 L6,18 C6,17.4477153 5.55228475,17 5,17 C4.44771525,17 4,17.4477153 4,18 L4,21 L6,21 Z M12,15 C13.6568542,15 15,16.3431458 15,18 L15,22 C15,22.5522847 14.5522847,23 14,23 L10,23 C9.44771525,23 9,22.5522847 9,22 L9,18 C9,16.3431458 10.3431458,15 12,15 Z M13,21 L13,18 C13,17.4477153 12.5522847,17 12,17 C11.4477153,17 11,17.4477153 11,18 L11,21 L13,21 Z M19,15 C20.6568542,15 22,16.3431458 22,18 L22,22 C22,22.5522847 21.5522847,23 21,23 L17,23 C16.4477153,23 16,22.5522847 16,22 L16,18 C16,16.3431458 17.3431458,15 19,15 Z M20,21 L20,18 C20,17.4477153 19.5522847,17 19,17 C18.4477153,17 18,17.4477153 18,18 L18,21 L20,21 Z"/>
</svg>
