<svg xmlns="http://www.w3.org/2000/svg" width="24" height="24" viewBox="0 0 24 24">
  <path fill="#000000" fill-rule="evenodd" d="M14.4142136,5 L22,5 C22.5522847,5 23,5.44771525 23,6 L23,19 C23,19.5522847 22.5522847,20 22,20 L21,20 C21,20.5522847 20.5522847,21 20,21 L18,21 C17.4477153,21 17,20.5522847 17,20 L7,20 C7,20.5522847 6.55228475,21 6,21 L4,21 C3.44771525,21 3,20.5522847 3,20 L2,20 C1.44771525,20 1,19.5522847 1,19 L1,6 C1,5.44771525 1.44771525,5 2,5 L10.1666667,5 L7.9,3.3 C6.83333333,2.5 8.03333333,0.9 9.1,1.7 L12.4061637,4.17962276 L13.7928932,2.79289322 C14.7357023,1.85008418 16.1499158,3.26429774 15.2071068,4.20710678 L14.4142136,5 Z M21,9 C21.5522847,9 22,8.55228475 22,8 C22,7.44771525 21.5522847,7 21,7 C20.4477153,7 20,7.44771525 20,8 C20,8.55228475 20.4477153,9 21,9 Z M4.94860695,7.62347864 C4.24973586,7.79599786 3.6880873,8.36644275 3.47611837,9.11902878 C3.15871052,10.2460222 3,11.3730111 3,12.5 C3,13.6269982 3.15871312,14.7539963 3.47613937,15.8809945 C3.68810921,16.6335776 4.24975671,17.2040195 4.94862793,17.3765265 C6.63241862,17.7921755 8.81667612,18 11,18 C13.1833239,18 15.3675954,17.7921738 17.0513931,17.3765214 C17.7502641,17.2040021 18.3119127,16.6335573 18.5238816,15.8809712 C18.8412895,14.7539778 19,13.6269889 19,12.5 C19,11.3730018 18.8412869,10.2460037 18.5238606,9.1190055 C18.3118908,8.36642242 17.7502433,7.79598045 17.0513721,7.62347346 C15.3675814,7.20782449 13.3584885,7 11,7 C8.64151153,7 6.63240463,7.20782621 4.94860695,7.62347864 Z"/>
</svg>
