<svg xmlns="http://www.w3.org/2000/svg" width="24" height="24" viewBox="0 0 24 24">
  <path fill="#000000" d="M14.1370813,18.8899892 C13.097978,20.6908581 11.4927674,21.7706386 9.24089709,21.9676517 C4.41603143,22.3897728 2.02374116,18.6224991 0.958898273,11.8877991 C0.721077536,10.3836792 0.591534497,9.1578343 0.374944966,6.68220464 C0.305334077,5.88654853 1.15057203,5.33438866 1.8512111,5.71781949 C3.78797324,6.77772945 5.80736224,7.21074955 7.93356094,7.02473126 C8.07943272,7.01196914 8.22430343,6.99642483 8.36818031,6.97809448 C8.40662485,5.71261597 8.49577948,4.50491678 8.68213456,2.37486849 C8.75174545,1.57921239 9.68002389,1.18221509 10.3034366,1.68148545 C12.0267236,3.06160821 13.9402403,3.83871298 16.0664391,4.02473126 C18.1926378,4.21074955 20.2120268,3.77772945 22.1487889,2.71781949 C22.849428,2.33438866 23.6946659,2.88654853 23.625055,3.68220464 C23.2002169,8.53812723 22.8358001,10.9876522 21.915126,13.5111477 C20.5543599,17.2409011 18.2316691,19.2714619 14.7591029,18.9676517 C14.5456897,18.9489805 14.3383866,18.9230638 14.1370813,18.8899892 Z M2.93435777,11.5754534 C3.85299851,17.3854841 5.68540494,20.2710773 9.0665856,19.9752623 C13.1488918,19.6181068 14.0708393,15.8032338 13.4634972,7.27892921 C11.8222453,8.26746536 10.0337075,8.84863193 8.10787243,9.01712066 C6.1792742,9.18585114 4.31440902,8.92309635 2.52408206,8.23236442 C2.65535716,9.59964254 2.76760848,10.5208317 2.93435777,11.5754534 Z M15.5570497,13.7842222 C15.5048952,14.3131086 15.4332297,14.8289558 15.3406922,15.3514139 C15.2388335,15.9264986 15.1100905,16.4689868 14.9535229,16.9769913 C19.0208808,17.3205813 20.5875572,13.7216249 21.4682222,5.23533073 C19.680247,5.92384839 17.8179626,6.18560939 15.8921276,6.01712066 C15.7163833,6.00174503 15.5417824,5.98293274 15.3683324,5.96068784 C15.5975679,8.66699768 15.7037522,10.6073768 15.6524032,12.279684 C16.7492344,12.4470148 17.5278482,12.9820269 17.8848521,13.8853252 C18.0370993,14.2705442 17.8482384,14.7062466 17.4630195,14.8584939 C17.0778005,15.0107411 16.6420981,14.8218802 16.4898508,14.4366613 C16.3577856,14.1025073 16.0726087,13.8848769 15.5570497,13.7842222 Z M10.3864157,6.51632707 C11.221673,6.23447739 12.0199199,5.84436081 12.782895,5.34505322 C12.0037251,5.06762056 11.2522884,4.71067541 10.529439,4.27467161 C10.4601045,5.15256924 10.4149097,5.84853205 10.3864157,6.51632707 Z M11.4077794,17.0918433 C11.0185299,18.07673 10.128069,18.6237967 8.87041191,18.7338275 C7.61275477,18.8438582 6.64082485,18.4597295 6.08646517,17.5573979 C5.7946136,17.082351 6.10471823,16.4662447 6.66013315,16.4176522 L10.6449119,16.0690292 C11.2003269,16.0204367 11.612706,16.5733338 11.4077794,17.0918433 Z M18.0340646,10.219792 C17.4838815,10.1716572 17.0768909,9.68662471 17.1250257,9.13644157 C17.1731604,8.58625843 17.658193,8.17926782 18.2083761,8.22740261 C18.7585592,8.2755374 19.1655498,8.76056991 19.1174151,9.31075305 C19.0692803,9.86093619 18.5842478,10.2679268 18.0340646,10.219792 Z M10.9469089,12.7840133 C10.3967257,12.8321481 9.91169322,12.4251575 9.86355843,11.8749743 C9.81542365,11.3247912 10.2224142,10.8397587 10.7725974,10.7916239 C11.3227805,10.7434891 11.807813,11.1504797 11.8559478,11.7006629 C11.9040826,12.250846 11.497092,12.7358785 10.9469089,12.7840133 Z M5.96593538,13.219792 C5.41575224,13.2679268 4.93071973,12.8609362 4.88258494,12.3107531 C4.83445015,11.7605699 5.24144076,11.2755374 5.7916239,11.2274026 C6.34180704,11.1792678 6.82683955,11.5862584 6.87497434,12.1364416 C6.92310913,12.6866247 6.51611852,13.1716572 5.96593538,13.219792 Z"/>
</svg>
