<svg xmlns="http://www.w3.org/2000/svg" width="24" height="24" viewBox="0 0 24 24">
  <path d="M12,23 C5.92486775,23 1,18.0751322 1,12 C1,5.92486775 5.92486775,1 12,1 C18.0751322,1 23,5.92486775 23,12 C23,18.0751322 18.0751322,23 12,23 Z M12,21 C16.9705627,21 21,16.9705627 21,12 C21,7.02943725 16.9705627,3 12,3 C7.02943725,3 3,7.02943725 3,12 C3,16.9705627 7.02943725,21 12,21 Z M7.75735931,16.2426407 C7.36683502,15.8521164 7.36683502,15.2189514 7.75735931,14.8284271 C8.1478836,14.4379028 8.78104858,14.4379028 9.17157288,14.8284271 C10.73367,16.3905243 13.26633,16.3905243 14.8284271,14.8284271 C15.2189514,14.4379028 15.8521164,14.4379028 16.2426407,14.8284271 C16.633165,15.2189514 16.633165,15.8521164 16.2426407,16.2426407 C13.8994949,18.5857864 10.1005051,18.5857864 7.75735931,16.2426407 Z M8.5,12 C7.67157288,12 7,11.3284271 7,10.5 C7,9.67157288 7.67157288,9 8.5,9 C9.32842712,9 10,9.67157288 10,10.5 C10,11.3284271 9.32842712,12 8.5,12 Z M15.5,12 C14.6715729,12 14,11.3284271 14,10.5 C14,9.67157288 14.6715729,9 15.5,9 C16.3284271,9 17,9.67157288 17,10.5 C17,11.3284271 16.3284271,12 15.5,12 Z"/>
</svg>
