<svg xmlns="http://www.w3.org/2000/svg" width="24" height="24" viewBox="0 0 24 24">
  <path d="M9.76430798,14.4234014 C10.0034517,14.6130919 10.1428635,14.9016184 10.1428635,15.2068626 L10.1428635,15.6690534 C10.1428635,16.4223966 9.71954412,17.1118299 9.04771015,17.4526599 L5.73173563,19.1348967 C5.50990845,19.2474325 5.3701362,19.4750706 5.3701362,19.7238107 L5.3701362,20.0539911 C7.16689701,20.6817702 9.37730357,21 12,21 C14.6003711,21 16.7251408,20.6870755 18.3701503,20.0734319 L18.3701362,19.7238107 C18.3701362,19.4750706 18.230364,19.2474325 18.0085368,19.1348967 L14.6925623,17.4526599 C14.0207283,17.1118299 13.5974089,16.4223966 13.5974089,15.6690534 L13.5974089,15.2767204 C13.5974089,14.986139 13.7238049,14.7099281 13.9437016,14.5199729 C13.9885214,14.4812559 14.0329652,14.4411255 14.0770294,14.3996012 C14.1876851,14.2953242 14.3206624,14.2176533 14.4658489,14.1724952 C15.3144703,13.9085441 16.2832364,13.5410213 17.3701327,13.0698523 L17.370107,7.75226717 C17.370107,5.8888116 16.1169656,4.27286483 14.3454762,3.79163206 C14.2712055,3.7714561 14.1995122,3.7427736 14.1318201,3.70615417 C13.3942371,3.30714356 12.653674,3.06653598 11.9219966,3.02003668 C11.914009,3.01898 11.914009,3.01898 11.9041978,3.018095 C11.817776,3.01122937 11.6137964,3.00483092 11.3112284,3.00050104 C11.2762973,3.00008351 11.2762973,3.00008351 11.2413637,3 C8.55105905,3 6.3701362,5.18092285 6.3701362,7.87122752 L6.37012929,13.0698557 C7.50103265,13.5601015 8.50398454,13.938109 9.37666118,14.2039762 C9.50046108,14.2416927 9.6157628,14.3030814 9.71616913,14.3847363 C9.74016729,14.4041724 9.74016729,14.4041724 9.76430798,14.4234014 Z M5.5746421,14.9048489 C4.84337457,14.5878299 4.3701362,13.8668844 4.3701362,13.0698557 L4.3701362,7.87122752 C4.3701362,4.07635335 7.44648955,1 11.2413637,1 C11.2906401,1.00011779 11.2906401,1.00011779 11.3398798,1.00070627 C11.6847453,1.00564146 11.9194148,1.01300258 12.0625852,1.02437651 C12.1338203,1.03077277 12.1338203,1.03077277 12.1216799,1.03174165 C13.0587513,1.08692602 14.0369378,1.39621238 14.9830582,1.89352451 C17.5601825,2.64715449 19.370107,5.0203633 19.370107,7.75225814 L19.3701551,13.0698182 C19.3701551,13.8668701 18.8968994,14.5878362 18.1656043,14.9048523 C17.3445761,15.2607676 16.5819273,15.5627774 15.8769229,15.8108544 L18.9133835,17.3512901 C19.8070446,17.8046559 20.3701362,18.7217274 20.3701362,19.7236957 L20.3701764,20.0733943 C20.3701764,20.9083629 19.8514755,21.6554712 19.0691654,21.947299 C17.1769247,22.6531681 14.8219225,23 12,23 C9.16669937,23 6.73732981,22.6502463 4.71059542,21.9420963 C3.90780976,21.6617035 3.3701362,20.9043284 3.3701362,20.0539911 L3.3701362,19.7238107 C3.3701362,18.7217274 3.9332278,17.8046559 4.82688895,17.3512901 L7.86334216,15.8108581 C7.15829391,15.5627665 6.39564609,15.2607536 5.5746421,14.9048489 Z"/>
</svg>
