<svg xmlns="http://www.w3.org/2000/svg" width="24" height="24" viewBox="0 0 24 24">
  <path d="M12.0544107,18.8114899 C12.0185301,18.5461076 12,18.2752178 12,18 C12,17.1513023 12.17621,16.3437606 12.4940405,15.6119646 L11.3978007,15.1408333 C10.6634283,14.8252218 10.1875,14.1026624 10.1875,13.3033418 L10.1875,13.0230793 C10.1875,12.7419883 10.3058036,12.4738766 10.5134386,12.284404 C10.9528176,11.8834586 11.3374083,11.3343391 11.5895117,10.7767828 C11.6596379,10.6216907 11.7350819,10.4264515 11.8059954,10.2133199 C11.9334255,9.83032646 12.2786126,9.5614933 12.6811514,9.53174476 C12.9182366,9.51422362 13.1041667,9.31490364 13.1041667,9.07470526 L13.1041667,7.56348263 L12.8710915,7.52275567 C12.3710096,7.43537264 12.0157516,6.98715284 12.0448668,6.4803294 C12.0503454,6.38496051 12.0567517,6.28680714 12.0652904,6.16467413 C12.0703624,6.09262053 12.0703624,6.09262053 12.0754392,6.02151644 C12.1507491,4.96711699 12.1230394,4.55817215 12.0105186,4.41683532 C11.4417875,3.70245526 10.2644534,3 9,3 C7.60848804,3 6.71281263,3.49578941 5.97955111,4.41683532 C5.85070763,4.57867493 5.81596823,5.01569863 5.87925096,6.12351882 C5.88147239,6.16241082 5.88147239,6.16241082 5.88369776,6.20155939 C5.89197422,6.348733 5.8953465,6.41124979 5.89960482,6.49899039 C5.92404979,7.00266713 5.56965287,7.44574113 5.07290983,7.53254073 L4.89583333,7.56348263 L4.89583333,9.07470526 C4.89583333,9.31050461 5.07529717,9.50761569 5.30694229,9.53071172 C5.70455533,9.57035547 6.04039943,9.84289505 6.16105376,10.2238285 C6.23511939,10.4576707 6.31321255,10.6634662 6.38394915,10.8150097 C6.63657187,11.3562194 7.02904426,11.8980839 7.47607179,12.2945949 C7.69003732,12.4843811 7.8125,12.7567004 7.8125,13.0427075 L7.8125,13.3033418 C7.8125,14.1026624 7.33657168,14.8252218 6.60219929,15.1408333 L3.54497912,16.4547357 C3.21430294,16.5968506 3,16.9222076 3,17.2821289 L3,17.8707782 C4.91773781,18.6320678 7.0294763,19.0140493 9.3415005,19.0140493 C10.3161783,19.0140493 11.220334,18.9461928 12.0544107,18.8114899 L12.0544107,18.8114899 Z M12.6592136,20.7370024 C11.6341819,20.9221283 10.5280898,21.0140493 9.3415005,21.0140493 C6.78320686,21.0140493 4.42128748,20.5868138 2.26199316,19.729645 C1.5001636,19.4271657 1,18.6904634 1,17.8707782 L1,17.2821289 C1,16.122887 1.69023126,15.0749705 2.75527983,14.6172442 L5.70247708,13.3506264 C5.23983635,12.8457085 4.85039299,12.2580933 4.57165755,11.6609407 C4.52793899,11.5672796 4.4845337,11.4659006 4.4419136,11.3582234 C3.53127537,10.994478 2.89583333,10.1042612 2.89583333,9.07470526 L2.89583333,7.56348263 C2.89583333,6.84550737 3.27713686,6.20429661 3.86238291,5.85089032 C3.79803868,4.44662568 3.88482772,3.83691679 4.41485512,3.17115218 C5.50516391,1.80162111 6.95334392,1 9,1 C10.9494625,1 12.6585358,2.0197169 13.5752146,3.17115218 C14.1035996,3.8348538 14.1787158,4.43006774 14.0930479,5.82475928 C14.7034301,6.17207211 15.1041667,6.82743897 15.1041667,7.56348263 L15.1041667,9.07470526 C15.1041667,10.1247351 14.4437993,11.027628 13.5075065,11.377794 C13.4757812,11.4555973 13.4438113,11.5301619 13.4118802,11.6007812 C13.1319822,12.2198082 12.742363,12.8248348 12.2774268,13.3419897 L13.606874,13.9133466 C14.702339,12.7362564 16.2651885,12 18,12 C21.3137085,12 24,14.6862915 24,18 C24,21.3137085 21.3137085,24 18,24 C15.6722479,24 13.654096,22.6744443 12.6592136,20.7370024 L12.6592136,20.7370024 Z M18,22 C20.209139,22 22,20.209139 22,18 C22,15.790861 20.209139,14 18,14 C15.790861,14 14,15.790861 14,18 C14,20.209139 15.790861,22 18,22 Z M18.8043079,16.2738885 C19.1221829,15.8222537 19.7459937,15.7138199 20.1976285,16.0316948 C20.6492633,16.3495698 20.7576971,16.9733806 20.4398222,17.4250154 L18.3559683,20.3857425 C18.0099493,20.8773643 17.3114673,20.954735 16.866243,20.5507591 L15.3068339,19.1358231 C14.8978229,18.7647054 14.8671043,18.132286 15.2382221,17.7232749 C15.6093399,17.3142639 16.2417592,17.2835453 16.6507703,17.6546631 L17.3719267,18.3090072 L18.8043079,16.2738885 Z"/>
</svg>
