<svg xmlns="http://www.w3.org/2000/svg" width="24" height="24" viewBox="0 0 24 24">
  <path d="M5,3 L18,3 C19.1045695,3 20,3.8954305 20,5 L20,20 C20,21.1045695 19.1045695,22 18,22 L5,22 C3.8954305,22 3,21.1045695 3,20 L3,5 C3,3.8954305 3.8954305,3 5,3 Z M5,5 L5,20 L18,20 L18,5 L5,5 Z M6.5,6 L16.5,6 C16.7761424,6 17,6.22385763 17,6.5 L17,8.5 C17,8.77614237 16.7761424,9 16.5,9 L6.5,9 C6.22385763,9 6,8.77614237 6,8.5 L6,6.5 C6,6.22385763 6.22385763,6 6.5,6 Z M6.5,14 L8.5,14 C8.77614237,14 9,14.2238576 9,14.5 L9,15.5 C9,15.7761424 8.77614237,16 8.5,16 L6.5,16 C6.22385763,16 6,15.7761424 6,15.5 L6,14.5 C6,14.2238576 6.22385763,14 6.5,14 Z M10.5,14 L12.5,14 C12.7761424,14 13,14.2238576 13,14.5 L13,15.5 C13,15.7761424 12.7761424,16 12.5,16 L10.5,16 C10.2238576,16 10,15.7761424 10,15.5 L10,14.5 C10,14.2238576 10.2238576,14 10.5,14 Z M14.5,14 L16.5,14 C16.7761424,14 17,14.2238576 17,14.5 L17,15.5 C17,15.7761424 16.7761424,16 16.5,16 L14.5,16 C14.2238576,16 14,15.7761424 14,15.5 L14,14.5 C14,14.2238576 14.2238576,14 14.5,14 Z M6.5,11 L8.5,11 C8.77614237,11 9,11.2238576 9,11.5 L9,12.5 C9,12.7761424 8.77614237,13 8.5,13 L6.5,13 C6.22385763,13 6,12.7761424 6,12.5 L6,11.5 C6,11.2238576 6.22385763,11 6.5,11 Z M10.5,11 L12.5,11 C12.7761424,11 13,11.2238576 13,11.5 L13,12.5 C13,12.7761424 12.7761424,13 12.5,13 L10.5,13 C10.2238576,13 10,12.7761424 10,12.5 L10,11.5 C10,11.2238576 10.2238576,11 10.5,11 Z M14.5,11 L16.5,11 C16.7761424,11 17,11.2238576 17,11.5 L17,12.5 C17,12.7761424 16.7761424,13 16.5,13 L14.5,13 C14.2238576,13 14,12.7761424 14,12.5 L14,11.5 C14,11.2238576 14.2238576,11 14.5,11 Z M14.5,17 L16.5,17 C16.7761424,17 17,17.2238576 17,17.5 L17,18.5 C17,18.7761424 16.7761424,19 16.5,19 L14.5,19 C14.2238576,19 14,18.7761424 14,18.5 L14,17.5 C14,17.2238576 14.2238576,17 14.5,17 Z M10.5,17 L12.5,17 C12.7761424,17 13,17.2238576 13,17.5 L13,18.5 C13,18.7761424 12.7761424,19 12.5,19 L10.5,19 C10.2238576,19 10,18.7761424 10,18.5 L10,17.5 C10,17.2238576 10.2238576,17 10.5,17 Z M6.5,17 L8.5,17 C8.77614237,17 9,17.2238576 9,17.5 L9,18.5 C9,18.7761424 8.77614237,19 8.5,19 L6.5,19 C6.22385763,19 6,18.7761424 6,18.5 L6,17.5 C6,17.2238576 6.22385763,17 6.5,17 Z"/>
</svg>
