<svg xmlns="http://www.w3.org/2000/svg" width="24" height="24" viewBox="0 0 24 24">
  <path d="M6.71130904,19.024968 L4.80298073,21.596005 C4.47381626,22.039479 3.84746902,22.1321452 3.40399501,21.8029807 C2.960521,21.4738163 2.8678548,20.847469 3.19701927,20.403995 L11,9.89125893 L11,9 L6.36585776,9 C5.70311606,9 5.16585776,8.4627417 5.16585776,7.8 C5.16585776,7.5703441 5.23175819,7.34551129 5.35573522,7.15219413 L6.09465361,6 L5.35573522,4.84780587 C4.99796192,4.2899306 5.16017662,3.54765076 5.71805189,3.18987746 C5.91136906,3.06590042 6.13620187,3 6.36585776,3 L11,3 C11,2.44771525 11.4477153,2 12,2 C12.5522847,2 13,2.44771525 13,3 L13,9.89125893 L20.8029807,20.403995 C21.1321452,20.847469 21.039479,21.4738163 20.596005,21.8029807 C20.152531,22.1321452 19.5261837,22.039479 19.1970193,21.596005 L17.288691,19.024968 L16.7385718,19.024968 L14.7407773,19.9171402 C14.4173627,20.0615701 14.0441876,20.0414292 13.7381968,19.8630292 L12.046931,18.8769802 L10.3556651,19.8630292 C10.0496743,20.0414292 9.67649921,20.0615701 9.3530847,19.9171402 L7.35529016,19.024968 L6.71130904,19.024968 Z M8.09267295,17.1638953 L9.74711415,17.9027332 L11.492892,16.8849025 C11.8352801,16.685282 12.2585819,16.685282 12.6009699,16.8849025 L14.3467478,17.9027332 L15.930694,17.1953769 L12,11.8996637 L8.09267295,17.1638953 L8.09267295,17.1638953 Z M11,7 L11,5 L7.82928882,5 L8.12439707,5.46016177 C8.33537202,5.78913464 8.33537202,6.21086536 8.12439707,6.53983823 L7.82928882,7 L11,7 L11,7 Z"/>
</svg>
