<svg xmlns="http://www.w3.org/2000/svg" width="24" height="24" viewBox="0 0 24 24">
  <path d="M13.3420973,19 L10.6579027,19 L8.38197129,22.5292557 C8.09301009,22.9773439 7.50331332,23.119914 7.04156534,22.8533237 L7,22.8293259 C6.54466328,22.5664371 6.3886534,21.9842003 6.65154218,21.5288636 C6.65934357,21.5153512 6.66747597,21.5020326 6.67593201,21.48892 L8.28097613,19 L2,19 C1.44771525,19 1,18.5522847 1,18 C1,17.4477153 1.44771525,17 2,17 L2,5 C2,3.8954305 2.8954305,3 4,3 L20,3 C21.1045695,3 22,3.8954305 22,5 L22,17 C22.5522847,17 23,17.4477153 23,18 C23,18.5522847 22.5522847,19 22,19 L15.7190239,19 L17.324068,21.48892 C17.332524,21.5020326 17.3406564,21.5153512 17.3484578,21.5288636 C17.6113466,21.9842003 17.4553367,22.5664371 17,22.8293259 L16.9584347,22.8533237 C16.4966867,23.119914 15.9069899,22.9773439 15.6180287,22.5292557 L13.3420973,19 Z M4,5 L4,17 L20,17 L20,5 L4,5 Z M7.54696255,13.9306938 C7.22049369,14.3761559 6.59471996,14.472619 6.14925781,14.1461502 C5.70379566,13.8196813 5.60733254,13.1939076 5.9338014,12.7484454 L7.65777387,10.3961093 C7.98533744,9.94915347 8.61389671,9.85378543 9.05929498,10.1834638 L10.548346,11.2856412 L11.8263651,9.43148701 C12.188637,8.90590177 12.9439208,8.84968994 13.3800037,9.31585778 L14.3946988,10.4005557 L16.3909346,7.44311176 C16.6999188,6.98534849 17.3214904,6.86473921 17.7792537,7.17372339 C18.237017,7.48270758 18.3576262,8.10427921 18.0486421,8.56204249 L15.3504342,12.5594654 C14.9910662,13.0918727 14.2301168,13.1522378 13.7913016,12.6831491 L12.7680852,11.5893421 L11.6080897,13.2722671 C11.2871616,13.7378706 10.644315,13.8449512 10.1897895,13.5085169 L8.67700238,12.3887704 L7.54696255,13.9306938 Z M12,1 C12.5522847,1 13,1.44771525 13,2 L13,3 L11,3 L11,2 C11,1.44771525 11.4477153,1 12,1 Z"/>
</svg>
