<svg xmlns="http://www.w3.org/2000/svg" width="24" height="24" viewBox="0 0 24 24">
  <path d="M13,8 L13,10 L18.9949105,10 C20.09948,10 20.9949105,10.8954305 20.9949105,12 L20.9949105,13.1475558 C20.9949105,13.6998405 20.5471953,14.1475558 19.9949105,14.1475558 C19.4426258,14.1475558 18.9949105,13.6998405 18.9949105,13.1475558 L18.9949105,12 L13,12 L13,14 C13,14.5522847 12.5522847,15 12,15 C11.4477153,15 11,14.5522847 11,14 L11,12 L5.07545133,12 L5.07545133,13.1475558 C5.07545133,13.6998405 4.62773608,14.1475558 4.07545133,14.1475558 C3.52316658,14.1475558 3.07545133,13.6998405 3.07545133,13.1475558 L3.07545133,12 C3.07545133,10.8954305 3.97088183,10 5.07545133,10 L11,10 L11,8 C9.8954305,8 9,7.1045695 9,6 L9,4 C9,2.8954305 9.8954305,2 11,2 L13,2 C14.1045695,2 15,2.8954305 15,4 L15,6 C15,7.1045695 14.1045695,8 13,8 Z M11,4 L11,6 L13,6 L13,4 L11,4 Z M3,17 L3,19 L5,19 L5,17 L3,17 Z M3,15 L5,15 C6.1045695,15 7,15.8954305 7,17 L7,19 C7,20.1045695 6.1045695,21 5,21 L3,21 C1.8954305,21 1,20.1045695 1,19 L1,17 C1,15.8954305 1.8954305,15 3,15 Z M11,18 L11,20 L13,20 L13,18 L11,18 Z M11,16 L13,16 C14.1045695,16 15,16.8954305 15,18 L15,20 C15,21.1045695 14.1045695,22 13,22 L11,22 C9.8954305,22 9,21.1045695 9,20 L9,18 C9,16.8954305 9.8954305,16 11,16 Z M19,17 L19,19 L21,19 L21,17 L19,17 Z M19,15 L21,15 C22.1045695,15 23,15.8954305 23,17 L23,19 C23,20.1045695 22.1045695,21 21,21 L19,21 C17.8954305,21 17,20.1045695 17,19 L17,17 C17,15.8954305 17.8954305,15 19,15 Z"/>
</svg>
