<svg xmlns="http://www.w3.org/2000/svg" width="24" height="24" viewBox="0 0 24 24">
  <path d="M20,8 L4,8 C3.44771525,8 3,8.44771525 3,9 L3,19 C3,19.5522847 3.44771525,20 4,20 L20,20 C20.5522847,20 21,19.5522847 21,19 L21,9 C21,8.44771525 20.5522847,8 20,8 Z M8,6 L8,4 C8,2.8954305 8.8954305,2 10,2 L14,2 C15.1045695,2 16,2.8954305 16,4 L16,6 L20,6 C21.6568542,6 23,7.34314575 23,9 L23,19 C23,20.6568542 21.6568542,22 20,22 L4,22 C2.34314575,22 1,20.6568542 1,19 L1,9 C1,7.34314575 2.34314575,6 4,6 L8,6 Z M10,6 L14,6 L14,4 L10,4 L10,6 Z M5,8 L7,8 L7,20 L5,20 L5,8 Z M17,8 L19,8 L19,20 L17,20 L17,8 Z"/>
</svg>
