<svg xmlns="http://www.w3.org/2000/svg" width="24" height="24" viewBox="0 0 24 24">
  <path d="M14,21 L10,21 C9.44771525,21 9,20.5522847 9,20 C9,19.4477153 8.55228475,19 8,19 L7,19 C6.44771525,19 6,19.4477153 6,20 C6,20.5522847 5.55228475,21 5,21 L3,21 C1.8954305,21 1,20.1045695 1,19 L1,6 C1,4.8954305 1.8954305,4 3,4 L21,4 C22.1045695,4 23,4.8954305 23,6 L23,19 C23,20.1045695 22.1045695,21 21,21 L19,21 C18.4477153,21 18,20.5522847 18,20 C18,19.4477153 17.5522847,19 17,19 L16,19 C15.4477153,19 15,19.4477153 15,20 C15,20.5522847 14.5522847,21 14,21 Z M16,17 L17,17 C18.3062188,17 19.4174579,17.8348076 19.8292943,19 L21,19 L21,6 L3,6 L3,19 L4.17070571,19 C4.58254212,17.8348076 5.69378117,17 7,17 L8,17 C9.30621883,17 10.4174579,17.8348076 10.8292943,19 L13.1707057,19 C13.5825421,17.8348076 14.6937812,17 16,17 Z M5.99048715,11.5969488 C5.8343532,11.293053 5.65575057,10.6554663 5.72633794,10.2845896 C5.82239885,9.77987099 5.57432071,9.03620686 5.87022991,8.69851927 C6.1661391,8.36083169 6.70827193,8 7.32156617,8 C7.59102823,8 7.81125055,8.2966942 8.14608897,8.21135008 C8.49888307,8.12142939 8.95961817,8.50920091 9.12551425,8.69851927 C9.42142344,9.03620686 9.1388867,9.78459156 9.2547615,10.2845896 C9.34398359,10.6695815 9.14973683,11.2775283 9.00029827,11.5777947 C8.88036114,11.818784 8.6879312,12.0842728 8.43790477,12.2916711 C8.4431638,12.4493101 8.86498222,12.8653446 9.70336003,13.5397748 C9.89004144,13.6698734 10,13.8746212 10,14.0921318 C10,14.3322944 9.85407452,14.5516596 9.62351069,14.6580964 C9.10947255,14.8953994 8.39959882,15.0140493 7.49389113,15.0140493 C6.59181161,15.0140493 5.88649556,14.8963481 5.37794298,14.6609456 C5.14644508,14.5538007 5,14.3333901 5,14.0921318 C5,13.8746212 5.10995856,13.6698734 5.29663997,13.5397748 C6.13329756,12.8684215 6.5550208,12.4548609 6.56180971,12.2990928 C6.30861202,12.094866 6.11191327,11.8332901 5.99048715,11.5969488 Z M12.875,9 L18.125,9 C18.6082492,9 19,9.44771525 19,10 C19,10.5522847 18.6082492,11 18.125,11 L12.875,11 C12.3917508,11 12,10.5522847 12,10 C12,9.44771525 12.3917508,9 12.875,9 Z M13,12 L15,12 C15.5522847,12 16,12.4477153 16,13 C16,13.5522847 15.5522847,14 15,14 L13,14 C12.4477153,14 12,13.5522847 12,13 C12,12.4477153 12.4477153,12 13,12 Z"/>
</svg>
