<svg xmlns="http://www.w3.org/2000/svg" width="24" height="24" viewBox="0 0 24 24">
  <path d="M17,10.5 C17,11.3284271 16.3284271,12 15.5,12 C14.8456346,12 14.2891344,11.5809892 14.0841687,10.996637 C13.7331193,11.0259653 13.3771806,10.8685466 13.1679497,10.5547002 C12.8615972,10.0951715 12.9857711,9.47430216 13.4452998,9.16794971 L16.4452998,7.16794971 C16.9048285,6.86159725 17.5256978,6.98577112 17.8320503,7.4452998 C18.1384028,7.90482849 18.0142289,8.52569784 17.5547002,8.83205029 L16.5932849,9.4729938 C16.8454952,9.74137646 17,10.102645 17,10.5 Z M6.4452998,8.83205029 C5.98577112,8.52569784 5.86159725,7.90482849 6.16794971,7.4452998 C6.47430216,6.98577112 7.09517151,6.86159725 7.5547002,7.16794971 L10.5547002,9.16794971 C11.0142289,9.47430216 11.1384028,10.0951715 10.8320503,10.5547002 C10.6228194,10.8685466 10.2668807,11.0259653 9.91583128,10.996637 C9.71086562,11.5809892 9.15436542,12 8.5,12 C7.67157288,12 7,11.3284271 7,10.5 C7,10.102645 7.15450479,9.74137646 7.40671507,9.4729938 L6.4452998,8.83205029 Z M12,23 C5.92486775,23 1,18.0751322 1,12 C1,5.92486775 5.92486775,1 12,1 C18.0751322,1 23,5.92486775 23,12 C23,18.0751322 18.0751322,23 12,23 Z M12,21 C16.9705627,21 21,16.9705627 21,12 C21,7.02943725 16.9705627,3 12,3 C7.02943725,3 3,7.02943725 3,12 C3,16.9705627 7.02943725,21 12,21 Z M7.75735931,14.8284271 C10.1005051,12.4852814 13.8994949,12.4852814 16.2426407,14.8284271 C16.633165,15.2189514 16.633165,15.8521164 16.2426407,16.2426407 C15.8521164,16.633165 15.2189514,16.633165 14.8284271,16.2426407 C13.26633,14.6805435 10.73367,14.6805435 9.17157288,16.2426407 C8.78104858,16.633165 8.1478836,16.633165 7.75735931,16.2426407 C7.36683502,15.8521164 7.36683502,15.2189514 7.75735931,14.8284271 Z"/>
</svg>
