<svg xmlns="http://www.w3.org/2000/svg" width="24" height="24" viewBox="0 0 24 24">
  <path d="M12,23 C5.92486775,23 1,18.0751322 1,12 C1,5.92486775 5.92486775,1 12,1 C18.0751322,1 23,5.92486775 23,12 C23,18.0751322 18.0751322,23 12,23 Z M12,21 C16.9705627,21 21,16.9705627 21,12 C21,7.02943725 16.9705627,3 12,3 C7.02943725,3 3,7.02943725 3,12 C3,16.9705627 7.02943725,21 12,21 Z M8.5,12 C7.67157288,12 7,11.3284271 7,10.5 C7,9.67157288 7.67157288,9 8.5,9 C9.32842712,9 10,9.67157288 10,10.5 C10,11.3284271 9.32842712,12 8.5,12 Z M15.5,12 C14.6715729,12 14,11.3284271 14,10.5 C14,9.67157288 14.6715729,9 15.5,9 C16.3284271,9 17,9.67157288 17,10.5 C17,11.3284271 16.3284271,12 15.5,12 Z M9.16439899,17.4863939 C8.61962867,17.577189 8.10440113,17.2091693 8.01360608,16.664399 C7.92281102,16.1196287 8.29083069,15.6044011 8.83560101,15.5136061 L14.835601,14.5136061 C15.3803713,14.422811 15.8955989,14.7908307 15.9863939,15.335601 C16.077189,15.8803713 15.7091693,16.3955989 15.164399,16.4863939 L9.16439899,17.4863939 Z"/>
</svg>
