<svg xmlns="http://www.w3.org/2000/svg" width="24" height="24" viewBox="0 0 24 24">
  <path d="M12,23 C5.92486775,23 1,18.0751322 1,12 C1,5.92486775 5.92486775,1 12,1 C18.0751322,1 23,5.92486775 23,12 C23,18.0751322 18.0751322,23 12,23 Z M12,21 C16.9705627,21 21,16.9705627 21,12 C21,7.02943725 16.9705627,3 12,3 C7.02943725,3 3,7.02943725 3,12 C3,16.9705627 7.02943725,21 12,21 Z M8.5,11 C7.67157288,11 7,10.3284271 7,9.5 C7,8.67157288 7.67157288,8 8.5,8 C9.32842712,8 10,8.67157288 10,9.5 C10,10.3284271 9.32842712,11 8.5,11 Z M15.5,11 C14.6715729,11 14,10.3284271 14,9.5 C14,8.67157288 14.6715729,8 15.5,8 C16.3284271,8 17,8.67157288 17,9.5 C17,10.3284271 16.3284271,11 15.5,11 Z M12,19 C8.74575766,19 6,17.0584561 6,14.4644661 C6,14.0261195 6.28547938,13.6388706 6.70421144,13.5092127 C7.82365053,13.162585 9.57388582,13 12,13 C14.4261142,13 16.1763495,13.162585 17.2957886,13.5092127 C17.7145206,13.6388706 18,14.0261195 18,14.4644661 C18,17.0584561 15.2542423,19 12,19 Z M12,17 C13.8209811,17 15.2958336,16.2111868 15.8069524,15.2217511 C14.8917503,15.0766062 13.6171162,15 12,15 C10.3828838,15 9.10824966,15.0766062 8.19304759,15.2217511 C8.70416638,16.2111868 10.1790189,17 12,17 Z"/>
</svg>
