<svg xmlns="http://www.w3.org/2000/svg" width="24" height="24" viewBox="0 0 24 24">
  <path d="M17.6627127,5 C17.9451171,5 18.1863173,5.05213031 18.4592115,5.14956741 C18.5206033,5.1714874 18.5825113,5.19517066 18.6796018,5.23275624 C18.8832277,5.31056879 18.9799368,5.33375197 19.1247832,5.33375197 C20.0571358,5.33375197 21.1583748,6.0131484 21.7380785,6.71064558 C22.2391561,7.31354016 22.6332724,8.46798231 23.0224338,10.2912613 C23.053239,10.4355882 23.0517179,10.5849442 23.0179796,10.7286137 C22.6033072,12.494434 21.9662438,13.8338389 21.0750999,14.7287553 L22.7998603,16.0221688 C23.55536,16.5887249 24,17.4779402 24,18.4222842 L23.999991,19.2672498 C23.999991,20.2671247 23.2615677,21.1133703 22.2709081,21.248808 C20.2251511,21.5284931 17,22 12,22 C7,22 3.41547789,21.4758728 1.732289,21.2485228 C0.740191274,21.1145192 -2.55691095e-07,20.2676277 -2.55691068e-07,19.2665208 L3.8191672e-13,18.4222733 C3.58824082e-13,17.4779402 0.444640013,16.5887249 1.20013965,16.0221688 L2.96926459,14.695486 C1.78523895,13.6801089 1.07938334,12.1912808 1.07938334,10.584495 C1.07938334,10.0591309 1.15583044,9.53656252 1.30632191,9.033214 C1.64413597,7.90335908 1.99504197,7.13140966 2.4294076,6.66685235 C3.06069276,5.99168812 4.26045328,5.33375197 5.23461886,5.33375197 C5.43101498,5.33375197 5.56391585,5.30543278 5.81540042,5.22000964 C5.92541318,5.1821649 5.99259589,5.15931945 6.05917076,5.13819002 C6.34469195,5.04757173 6.59231369,5 6.87944818,5 C6.8996971,5 6.91993974,5.00014053 6.9401748,5.00042041 C7.11808431,4.5860759 7.30861943,4.25661448 7.5196469,4.00587187 C8.50263793,2.83788296 10.0169677,2 11.5769333,2 C11.8936663,2 12.1658257,2.05808832 12.4790821,2.16854268 C12.5520341,2.19426557 12.6256383,2.22207233 12.7467622,2.26836196 C13.024504,2.37317391 13.1712736,2.40791908 13.386463,2.40791908 C14.4543774,2.40791908 15.757298,3.20172156 16.4340789,4.00587187 C16.6531673,4.26619253 16.8523351,4.61243504 17.0405181,5.0516578 C17.2456211,5.0177862 17.4535391,5 17.6627127,5 Z M5.23461886,7.33375197 C4.8928672,7.33375197 4.17669096,7.72649555 3.89029591,8.03279721 C3.72392948,8.21072736 3.47788363,8.75199753 3.22250907,9.60612478 C3.12759776,9.92357444 3.07938334,10.2531531 3.07938334,10.584495 C3.07938334,11.7253786 3.64180375,12.7696613 4.56571372,13.4035049 C4.83754072,13.5899904 5,13.8984602 5,14.2281066 L5,14.6724372 C5,15.3019928 4.70357332,15.894803 4.1999069,16.272507 L2.40004655,17.6222387 C2.14821334,17.8110907 2,18.1074958 2,18.4222736 L1.99999974,19.2665211 C3.02301632,19.404701 4.02302265,19.5233372 5,19.6224467 L5,18.0980726 C5,17.0837548 5.51254261,16.1381246 6.36241439,15.5844471 L8.86779777,13.9522311 C8.00169093,13.2794944 7.30238253,12.2972603 6.76236492,11.0257599 C6.24372382,9.80459166 6.08481642,8.4662828 6.29593147,7.16685623 C5.93238971,7.28009878 5.63041555,7.33375197 5.23461886,7.33375197 Z M21.999991,19.2672392 L22,18.4222736 C22,18.1074958 21.8517867,17.8110907 21.5999534,17.6222387 L19.8000931,16.272507 C19.2964267,15.894803 19,15.3019928 19,14.6724372 L19,14.3453098 C19,14.0335505 19.1453991,13.7396274 19.3932032,13.5504528 C20.0756923,13.0294381 20.6320661,12.0167642 21.0183427,10.4873477 C20.7128888,9.10915546 20.4109341,8.24284373 20.1999628,7.98900397 C19.9639508,7.70503526 19.3621348,7.33375197 19.1247832,7.33375197 C18.6921534,7.33375197 18.3772005,7.25825124 17.9656822,7.10099574 C17.8607771,7.06051063 17.823431,7.04622369 17.7866924,7.03310613 C17.711546,7.00627505 17.6825122,7 17.6627127,7 C17.6591391,7 17.6555634,7.00001181 17.6519857,7.00003539 C17.9194044,8.38582681 17.7624682,9.8258975 17.1933068,11.1286681 C16.6596527,12.3501718 15.9748016,13.2977074 15.1321907,13.9522236 L17.6375856,15.5844471 C18.4874574,16.1381246 19,17.0837548 19,18.0980722 L19.0000007,19.6344041 C19.9504097,19.5331036 20.950449,19.4107279 21.999991,19.2672392 Z M10.484611,12.6306524 C10.8026538,12.806852 11,13.1417924 11,13.5053821 L11,13.8661036 C11,14.5423155 10.6583049,15.1727356 10.0917237,15.5418539 L7.45413813,17.2601975 C7.17084754,17.4447566 7,17.7599667 7,18.0980726 L7,19.8150378 C8.18779084,19.9377557 9.85722827,20 12,20 C14.1427419,20 15.8121627,19.9377574 17.0000008,19.8150426 L17,18.0980726 C17,17.7599667 16.8291525,17.4447566 16.5458619,17.2601975 L13.9082763,15.5418539 C13.3416951,15.1727356 13,14.5423155 13,13.8661036 L13,13.5053821 C13,13.1417924 13.1973462,12.806852 13.515389,12.6306524 C14.2408695,12.2287272 14.860153,11.473422 15.3605779,10.3279779 C15.8306336,9.25205331 15.9070573,8.04502242 15.5764569,6.9184012 C15.3251831,6.06210924 15.0825079,5.50594158 14.9038831,5.29369981 C14.5710944,4.8982807 13.7662314,4.40791908 13.386463,4.40791908 C12.8869396,4.40791908 12.5242162,4.32205058 12.0406257,4.13955712 C11.9117499,4.09042702 11.8625125,4.07182576 11.8140135,4.05472498 C11.6965179,4.013296 11.6342226,4 11.5769333,4 C10.6650082,4 9.67990512,4.54506031 9.0498427,5.29369981 C8.87054027,5.50674676 8.62983882,6.07619253 8.3863973,6.95607007 C8.08510764,8.04504432 8.16153355,9.20395907 8.60321955,10.2439324 C9.10957104,11.4361641 9.74145292,12.2189336 10.484611,12.6306524 Z"/>
</svg>
