<svg xmlns="http://www.w3.org/2000/svg" width="24" height="24" viewBox="0 0 24 24">
  <path d="M13.5974089,15.2767204 C13.5974089,14.986139 13.7238049,14.7099281 13.9437016,14.5199729 C14.4883336,14.049499 14.9627985,13.3857713 15.3675338,12.5852985 C15.461278,12.3998943 15.5615611,12.1677929 15.6556185,11.9149425 C15.7919117,11.548551 16.129207,11.295172 16.5190607,11.2663175 C16.9905218,11.2314229 17.3590347,10.83633 17.3590347,10.3597685 L17.3590347,8.66450595 L16.8157723,8.57961505 C16.3048449,8.49977685 15.9390657,8.04356188 15.9722171,7.52749801 C15.9793726,7.41610948 15.9877437,7.30141237 15.9989056,7.15863986 C16.0055401,7.07435407 16.0055401,7.07435407 16.0121849,6.99113087 C16.113434,5.72345027 16.0774825,5.24897237 15.8955194,5.0445769 C14.96114,3.9950074 13.1575652,3.02286927 11.8231983,3.02286927 C10.4935473,3.02286927 8.71595371,3.98784414 7.77519727,5.0445769 C7.57232854,5.27245526 7.52721613,5.77996472 7.61216141,7.10977241 C7.61506918,7.15529791 7.61506918,7.15529791 7.61798127,7.20111039 C7.62719397,7.34637759 7.63348124,7.45074872 7.63911423,7.55505335 C7.66658821,8.06378221 7.30720704,8.51183873 6.80464098,8.59542834 L6.4401999,8.65604423 L6.4401999,10.4752867 C6.4401999,10.8816904 6.74777421,11.2217014 7.14746508,11.2643044 C7.53029373,11.30511 7.85570009,11.5620644 7.984164,11.9249967 C8.08263456,12.2031928 8.18680841,12.448771 8.282127,12.631386 C8.62261831,13.2837121 9.15289765,13.9384265 9.76430798,14.4234014 C10.0034517,14.6130919 10.1428635,14.9016184 10.1428635,15.2068596 L10.1428635,15.6690534 C10.1428635,16.4223966 9.71954412,17.1118299 9.04771015,17.4526599 L5.73173563,19.1348967 C5.50990845,19.2474325 5.3701362,19.4750706 5.3701362,19.7238107 L5.3701362,20.0539911 C7.16689701,20.6817702 9.37730357,21 12,21 C14.6003711,21 16.7251408,20.6870755 18.3701503,20.0734319 L18.3701362,19.7238107 C18.3701362,19.4750706 18.230364,19.2474325 18.0085368,19.1348967 L14.6925623,17.4526599 C14.0207283,17.1118299 13.5974089,16.4223966 13.5974089,15.6690534 L13.5974089,15.2767204 Z M18.9133835,17.3512901 C19.8070446,17.8046559 20.3701362,18.7217274 20.3701362,19.7236957 L20.3701764,20.0733943 C20.3701764,20.9083629 19.8514755,21.6554712 19.0691654,21.947299 C17.1769247,22.6531681 14.8219225,23 12,23 C9.16669937,23 6.73732981,22.6502463 4.71059542,21.9420963 C3.90780976,21.6617035 3.3701362,20.9043284 3.3701362,20.0539911 L3.3701362,19.7238107 C3.3701362,18.7217274 3.9332278,17.8046559 4.82688895,17.3512901 L8.14286348,15.6690534 C7.47144175,15.0556756 6.90415536,14.3136534 6.50912145,13.5568325 C6.43815155,13.4208657 6.36763476,13.2703114 6.29886611,13.1085753 C5.20958542,12.7222922 4.4401999,11.6827613 4.4401999,10.4752867 L4.4401999,8.65604423 C4.4401999,7.86396074 4.90413468,7.16596066 5.59305976,6.84401363 C5.50527503,5.1884331 5.61191347,4.46672179 6.28138875,3.71471371 C7.57247195,2.26446596 9.85963448,1.02286927 11.8231983,1.02286927 C13.788723,1.02286927 16.103807,2.27071404 17.3893279,3.71471371 C18.0518086,4.45886496 18.1460094,5.1596605 18.0335262,6.78143808 C18.8158299,7.06112717 19.3590347,7.80725519 19.3590347,8.66450595 L19.3590347,10.3597685 C19.3590347,11.6584638 18.5053147,12.7670158 17.3175044,13.1372874 C17.2628881,13.2611234 17.2075379,13.378608 17.1523577,13.4877418 C16.7253212,14.3323211 16.2239267,15.0751466 15.6249368,15.6830186 L18.9133835,17.3512901 Z"/>
</svg>
