<svg xmlns="http://www.w3.org/2000/svg" width="24" height="24" viewBox="0 0 24 24">
  <path d="M9.21178259,17.2449834 C8.79498687,17.3244418 8.41190568,17.4216969 8.07358708,17.5344697 C7.78067084,17.6321085 7.45592434,17.7872852 7.09934756,18 C7.45592434,18.2127148 7.78067084,18.3678915 8.07358708,18.4655303 C9.08215178,18.8017185 10.4885222,19 12,19 C13.5114778,19 14.9178482,18.8017185 15.9264129,18.4655303 C16.2193292,18.3678915 16.5440757,18.2127148 16.9006524,18 C16.5440757,17.7872852 16.2193292,17.6321085 15.9264129,17.5344697 C15.5880943,17.4216969 15.2050131,17.3244418 14.7882174,17.2449834 C15.201171,16.7498744 15.5906751,16.1453523 15.9658723,15.4477002 C17.7980887,15.9285694 19,16.7901358 19,18 C19,19.9544707 15.863412,21 12,21 C8.13658795,21 5,19.9544707 5,18 C5,16.7901358 6.20191127,15.9285694 8.03412767,15.4477002 C8.40932489,16.1453523 8.79882904,16.7498744 9.21178259,17.2449834 Z M16,8.67676768 C16,7.98603724 15.5428386,7.37870231 14.8790656,7.18761614 L13.9862801,6.93060215 C13.2833368,6.72823967 13.028422,5.86434214 13.5089012,5.31278102 C13.824175,4.95086575 14,4.49038199 14,4 C14,2.8954305 13.1045695,2 12,2 C10.8954305,2 10,2.8954305 10,4 C10,4.49038199 10.175825,4.95086575 10.4910988,5.31278102 C10.971578,5.86434214 10.7166632,6.72823967 10.0137199,6.93060215 L9.12093444,7.18761614 C8.45716143,7.37870231 8,7.98603724 8,8.67676768 L8,9.4718393 C8.00173508,9.48226761 8.00331179,9.49275505 8.00472744,9.50329929 C8.03912879,9.75953192 8.26037975,9.95454545 8.52272727,9.95454545 L8.54113031,9.95454545 C8.96607453,9.95454545 9.34460901,10.2231088 9.48498905,10.6241961 C10.5740748,13.7358813 11.5736175,15.2727273 12,15.2727273 C12.4263825,15.2727273 13.4259252,13.7358813 14.515011,10.6241961 C14.655391,10.2231088 15.0339255,9.95454545 15.4588697,9.95454545 L15.4772727,9.95454545 C15.7396203,9.95454545 15.9608712,9.75953192 15.9952726,9.50329929 C15.9966882,9.49275505 15.9982649,9.48226761 16,9.4718393 L16,8.67676768 Z M8,4 C8,1.790861 9.790861,0 12,0 C14.209139,0 16,1.790861 16,4 C16,4.4769545 15.9159149,4.94151395 15.7567331,5.37615498 C17.0997585,5.9069848 18,7.2097651 18,8.67676768 L18,9.63636364 C18,9.75519487 17.979273,9.86918504 17.941237,9.97491609 C17.7432614,10.8775848 17.0666911,11.5898948 16.2010062,11.8489639 C14.8825856,15.4538934 13.6211581,17.2727273 12,17.2727273 C10.3788419,17.2727273 9.11741443,15.4538934 7.79899378,11.8489639 C6.93330892,11.5898948 6.25673856,10.8775848 6.058763,9.97491609 C6.02072703,9.86918504 6,9.75519487 6,9.63636364 L6,8.67676768 C6,7.2097651 6.90024145,5.9069848 8.24326691,5.37615498 C8.08408512,4.94151395 8,4.4769545 8,4 Z M6.77959992,12.6886446 C7.04320385,13.3512454 7.30889269,13.9726985 7.58042982,14.5463011 C4.82748641,15.2731777 3,16.6270272 3,18 C3,20.0207118 6.95857647,22 12,22 C17.0414235,22 21,20.0207118 21,18 C21,16.6270272 19.1725136,15.2731777 16.4195702,14.5463011 C16.6911073,13.9726985 16.9567961,13.3512454 17.2204001,12.6886446 C20.6426629,13.6624536 23,15.5942838 23,18 C23,21.5021357 18.0042715,24 12,24 C5.99572853,24 1,21.5021357 1,18 C1,15.5942838 3.35733706,13.6624536 6.77959992,12.6886446 Z"/>
</svg>
