<svg xmlns="http://www.w3.org/2000/svg" width="24" height="24" viewBox="0 0 24 24">
  <path d="M12,21 C13.4368362,21 14.7950311,20.6632964 15.9999867,20.0644869 L16,19.5854389 C16,19.2502557 15.822627,18.9400991 15.5337376,18.7701266 L13.8607934,17.7858246 C13.2500101,17.4264609 12.875,16.7707137 12.875,16.062054 L12.875,15.7992479 C12.875,15.5244812 12.9880572,15.2618195 13.1876197,15.0729503 C13.551795,14.7282886 13.8731619,14.2523993 14.0839239,13.7689636 C14.1427206,13.6340986 14.2063176,13.4634104 14.2662078,13.276736 C14.3907139,12.8886568 14.73828,12.6149671 15.1447352,12.5849428 C15.2734783,12.5754327 15.375,12.4666032 15.375,12.3356626 L15.375,11.0337543 L15.2872957,11.0178599 C14.7909031,10.9279002 14.4392484,10.4822893 14.4671483,9.97858309 C14.4718642,9.89344221 14.4773736,9.80589558 14.4847118,9.69703616 C14.4890654,9.63289143 14.4890654,9.63289143 14.4934185,9.56965888 C14.5561163,8.65923837 14.5327353,8.3013622 14.4577839,8.20371964 C14.1580405,7.81323088 13.6083675,7.43201191 13.5715569,7.44272251 C12.9145665,7.63388369 12.4700039,7.49785738 11.8226659,7.12598104 C11.7047796,7.05825888 11.6863218,7.04782151 11.6466556,7.02701346 C11.6003105,7.00270182 11.5953878,7.00026758 11.6312715,7.00002628 C10.8935262,7.00482709 10.0683764,7.50717912 9.53370445,8.20371964 C9.444381,8.3200852 9.41502739,8.70306935 9.4678111,9.66141147 C9.46971551,9.69599155 9.46971551,9.69599155 9.47162433,9.73081848 C9.47872806,9.86182751 9.48162866,9.91759701 9.48529016,9.99584239 C9.50871894,10.4965091 9.15788667,10.9371809 8.66470544,11.0265586 L8.625,11.0337543 L8.625,12.3356626 C8.625,12.4641955 8.72302186,12.5718502 8.84870996,12.5843745 C9.25007559,12.6243687 9.58811926,12.9015787 9.70594135,13.2873401 C9.76837484,13.4917536 9.8340053,13.6711189 9.8928754,13.801924 C10.1038231,14.2706344 10.4315719,14.7399438 10.802031,15.0807424 C11.0078694,15.2701006 11.125,15.5370078 11.125,15.8166969 L11.125,16.062054 C11.125,16.7707137 10.7499899,17.4264609 10.1392066,17.7858246 L8.46626243,18.7701266 C8.17737297,18.9400991 8,19.2502557 8,19.5854389 L8,20.0644804 C9.20495897,20.6632939 10.5631585,21 12,21 Z M7.45205588,17.046356 L9.02754109,16.1193954 C8.63564873,15.6690507 8.30634179,15.1499375 8.06907321,14.6227441 C8.03742925,14.5524335 8.00601944,14.4774449 7.97506696,14.3984894 C7.17648186,14.0499319 6.625,13.2532786 6.625,12.3356626 L6.625,11.0337543 C6.625,10.3744255 6.94663235,9.77948454 7.45290295,9.41298408 C7.39752946,8.14927631 7.4745665,7.6016536 7.94721517,6.98591351 C8.8321767,5.83303545 10.2053671,5 11.6431323,5 C11.9808973,5 12.2638958,5.09232486 12.5757377,5.25591031 C12.6481969,5.2939208 12.6730061,5.30794978 12.8189174,5.39177144 C13.0258038,5.51062149 13.0391304,5.51469915 13.0127989,5.52236069 C14.1370264,5.19524991 15.276198,5.98530844 16.0442731,6.98591351 C16.5154081,7.59968168 16.5827774,8.13390828 16.5093082,9.38628948 C17.0373091,9.75018108 17.375,10.3581663 17.375,11.0337543 L17.375,12.3356626 C17.375,13.2715376 16.8018665,14.0796849 15.9804515,14.4173458 C15.9594561,14.469474 15.9383602,14.5198638 15.9172692,14.5682414 C15.6791893,15.1143377 15.3499102,15.6486166 14.9562842,16.1098788 L16.5479441,17.046356 C17.216278,17.4395804 17.6929614,18.0737227 17.8939173,18.8017843 C19.7966304,17.1516024 21,14.7163322 21,12 C21,7.02943725 16.9705627,3 12,3 C7.02943725,3 3,7.02943725 3,12 C3,14.7163301 4.20336778,17.1515987 6.1060783,18.8017805 C6.30703168,18.0737319 6.7837172,17.4395832 7.45205588,17.046356 Z M12,23 C5.92486775,23 1,18.0751322 1,12 C1,5.92486775 5.92486775,1 12,1 C18.0751322,1 23,5.92486775 23,12 C23,18.0751322 18.0751322,23 12,23 Z"/>
</svg>
