<svg xmlns="http://www.w3.org/2000/svg" width="24" height="24" viewBox="0 0 24 24">
  <path d="M12,21 C13.4359988,21 14.793448,20.6636887 15.9978799,20.0655336 C15.9925015,20.0405939 15.9771574,20.0185663 15.9549201,20.0049375 L13.9549042,18.779167 C13.3616445,18.4155698 13,17.7697632 13,17.0739471 L13,16.1497191 C13,15.7058046 13.2926469,15.3150266 13.7186265,15.1901208 C14.3754792,14.9975183 15.1368049,14.7165575 16.0000128,14.347088 L16.0000438,10.4085441 C16.0000438,9.08470988 15.1128853,7.93552114 13.8563448,7.58802825 L13.6637333,7.51256175 C13.5647415,7.46139704 13.5301585,7.454768 13.5715569,7.44272251 C13.5530457,7.44804231 13.5530457,7.44804231 13.53449,7.45310938 C13.4334024,7.48035265 13.3286635,7.49155257 13.224101,7.48629986 C13.1742922,7.48379771 13.1242641,7.4825416 13.0740413,7.4825416 C12.7323523,7.4825416 12.7148148,7.49176747 11.9861389,7 L11.5,7 C9.56700338,7 8,8.56700338 8,10.5 L8,14.3470851 C8.86319111,14.716556 9.62451905,14.9975178 10.2813735,15.1901208 C10.7073531,15.3150266 11,15.7058046 11,16.1497191 L11,17.0739471 C11,17.7697632 10.6383555,18.4155698 10.0450958,18.779167 L8.04507988,20.0049375 C8.02284261,20.0185663 8.00749849,20.0405939 8.0021201,20.0655336 C9.20655203,20.6636887 10.5640012,21 12,21 Z M6.9999841,18.2997176 L9,17.0739471 L9,16.8802176 C8.44999253,16.6918712 7.85459747,16.4603589 7.21295448,16.1857233 C6.4771683,15.8707499 6,15.147456 6,14.3470851 L6,10.5 C6,7.46243388 8.46243388,5 11.5,5 L12.2927147,5 C12.4926859,5 12.6880644,5.05995367 12.8536169,5.17211793 C13.0359151,5.29562762 13.1836288,5.39332909 13.2948174,5.46411724 C13.6949024,5.41450893 14.0943032,5.50235168 14.4855651,5.68801908 C16.5523233,6.30491973 18.0000438,8.21359958 18.0000438,10.4085482 L18.0000278,14.3470751 C18.0000239,15.1474769 17.5228257,15.8707954 16.7869933,16.1857456 C16.1453846,16.4603664 15.550002,16.6918734 15,16.8802178 L15,17.0739471 L17.0000159,18.2997176 C17.2821853,18.4726537 17.5143209,18.7065531 17.683665,18.9786114 C19.7075496,17.3282863 21,14.8150771 21,12 C21,7.02943725 16.9705627,3 12,3 C7.02943725,3 3,7.02943725 3,12 C3,14.8150814 4.29245432,17.328294 6.31634425,18.978619 C6.48568754,18.7065446 6.7178198,18.4726506 6.9999841,18.2997176 Z M12,23 C5.92486775,23 1,18.0751322 1,12 C1,5.92486775 5.92486775,1 12,1 C18.0751322,1 23,5.92486775 23,12 C23,18.0751322 18.0751322,23 12,23 Z"/>
</svg>
