<svg xmlns="http://www.w3.org/2000/svg" width="24" height="24" viewBox="0 0 24 24">
  <path d="M17,4 L19,4 C20.6568542,4 22,5.34314575 22,7 L22,19 C22,20.6568542 20.6568542,22 19,22 L5,22 C3.34314575,22 2,20.6568542 2,19 L2,7 C2,5.34314575 3.34314575,4 5,4 L7,4 L7,3 C7,2.44771525 7.44771525,2 8,2 C8.55228475,2 9,2.44771525 9,3 L9,4 L15,4 L15,3 C15,2.44771525 15.4477153,2 16,2 C16.5522847,2 17,2.44771525 17,3 L17,4 Z M20,10 L4,10 L4,19 C4,19.5522847 4.44771525,20 5,20 L19,20 C19.5522847,20 20,19.5522847 20,19 L20,10 Z M20,8 L20,7 C20,6.44771525 19.5522847,6 19,6 L5,6 C4.44771525,6 4,6.44771525 4,7 L4,8 L20,8 Z M11.142,16.659 C11.3970013,16.659 11.5839994,16.7099995 11.703,16.812 C11.8220006,16.9140005 11.8815,17.066999 11.8815,17.271 C11.8815,17.6903354 11.6350025,17.9 11.142,17.9 L8.1925,17.9 C7.69949754,17.9 7.453,17.6903354 7.453,17.271 C7.453,17.066999 7.51249941,16.9140005 7.6315,16.812 C7.7505006,16.7099995 7.93749873,16.659 8.1925,16.659 L8.881,16.659 L8.881,13.5905 L8.201,13.99 C8.10466619,14.046667 8.00550051,14.075 7.9035,14.075 C7.74483254,14.075 7.6088339,14.005584 7.4955,13.86675 C7.3821661,13.727916 7.3255,13.5735009 7.3255,13.4035 C7.3255,13.1711655 7.42466568,12.9955006 7.623,12.8765 L8.983,12.086 C9.23233458,11.9443326 9.4674989,11.8735 9.6885,11.8735 C9.9151678,11.8735 10.097916,11.9414993 10.23675,12.0775 C10.375584,12.2135007 10.445,12.3976655 10.445,12.63 L10.445,16.659 L11.142,16.659 Z M16.267,11.9075 C16.471001,11.9075 16.6282494,11.9684161 16.73875,12.09025 C16.8492506,12.2120839 16.9045,12.3664991 16.9045,12.5535 C16.9045,12.7461676 16.8506672,12.9331658 16.743,13.1145 L14.1675,17.577 C14.0881663,17.7130007 13.9904172,17.813583 13.87425,17.87875 C13.7580828,17.943917 13.6376673,17.9765 13.513,17.9765 C13.3146657,17.9765 13.1390008,17.9099173 12.986,17.77675 C12.8329992,17.6435827 12.7565,17.4806676 12.7565,17.288 C12.7565,17.1519993 12.7961663,17.0160007 12.8755,16.88 L15.06,13.1485 L12.935,13.1485 C12.674332,13.1485 12.4859172,13.0975005 12.36975,12.9955 C12.2535828,12.8934995 12.1955,12.740501 12.1955,12.5365 C12.1955,12.3268323 12.2549994,12.1695839 12.374,12.06475 C12.4930006,11.9599161 12.6799987,11.9075 12.935,11.9075 L16.267,11.9075 Z"/>
</svg>
