<svg xmlns="http://www.w3.org/2000/svg" width="24" height="24" viewBox="0 0 24 24">
  <path d="M14.6494294,19.6278289 C14.1064126,18.8842721 13.7859184,17.9678884 13.7859184,16.9766493 C13.7859184,14.4913679 15.800637,12.4766493 18.2859184,12.4766493 C20.7711998,12.4766493 22.7859184,14.4913679 22.7859184,16.9766493 C22.7859184,19.4619307 20.7711998,21.4766493 18.2859184,21.4766493 C17.6011616,21.4766493 16.952127,21.323704 16.3711126,21.0501113 C16.2935929,21.098439 16.2089727,21.1448 16.1542676,21.1701603 C11.9706234,23.1096264 6.95108457,21.9309396 4.07454361,18.2491351 C0.674339169,13.8970719 1.44597317,7.61261725 5.79803639,4.21241281 C10.1004383,0.851008001 16.2913824,1.5667754 19.7172403,5.78832131 L20.9712171,5.0932306 C21.2127367,4.95935412 21.5170553,5.04661608 21.6509318,5.28813564 C21.6983454,5.37367213 21.7196332,5.47123548 21.71216,5.56874802 L21.3686512,10.0509004 C21.3475498,10.3262353 21.1072406,10.5323323 20.8319056,10.5112308 C20.7632338,10.5059679 20.6963899,10.4865743 20.6355648,10.4542661 L16.6817704,8.35414783 C16.4378961,8.22461031 16.3452079,7.92190027 16.4747454,7.67802604 C16.5201232,7.59259548 16.5893083,7.52216232 16.673914,7.47526462 L17.9337081,6.77694933 C15.1528155,3.64290109 10.3766415,3.17325088 7.02935934,5.78843432 C3.54770877,8.50859787 2.93040156,13.5361616 5.65056511,17.0178121 C7.80130121,19.7706288 11.4506362,20.7744503 14.6494294,19.6278289 L14.6494294,19.6278289 Z M19.8767092,14.5224292 L17.1327092,14.5224292 C16.9227082,14.5224292 16.7687097,14.5655955 16.6707092,14.6519292 C16.5727087,14.738263 16.5237092,14.8677617 16.5237092,15.0404292 C16.5237092,15.2084301 16.5715421,15.3344288 16.6672092,15.4184292 C16.7628764,15.5024296 16.9180415,15.5444292 17.1327092,15.5444292 L18.8827092,15.5444292 L17.181315,18.7640987 C17.1159813,18.8760992 17.083315,18.9880981 17.083315,19.1000987 C17.083315,19.2587661 17.1463144,19.3929315 17.272315,19.5025987 C17.3983156,19.6122659 17.5429808,19.6670987 17.706315,19.6670987 C17.8089822,19.6670987 17.9081478,19.6402656 18.003815,19.5865987 C18.0994821,19.5329317 18.1799813,19.4500992 18.245315,19.3380987 L20.2687092,15.5164292 C20.3573763,15.3670951 20.4017092,15.2130967 20.4017092,15.0544292 C20.4017092,14.9004284 20.3562097,14.7732631 20.2652092,14.6729292 C20.1742088,14.5725954 20.0447101,14.5224292 19.8767092,14.5224292 Z M9.13091839,13.1816493 C9.35091949,13.1816493 9.51466786,13.2253988 9.62216839,13.3128993 C9.72966893,13.4003997 9.78341839,13.5366484 9.78341839,13.7216493 C9.78341839,13.9116502 9.72966893,14.0516488 9.62216839,14.1416493 C9.51466786,14.2316497 9.35091949,14.2766493 9.13091839,14.2766493 L6.39341839,14.2766493 C6.21341749,14.2766493 6.07091892,14.2228998 5.96591839,14.1153993 C5.86091787,14.0078987 5.80841839,13.8716501 5.80841839,13.7066493 C5.80841839,13.4916482 5.89341754,13.2966502 6.06341839,13.1216493 L7.65341839,11.4641493 C7.98342004,11.1191476 8.14841839,10.8016507 8.14841839,10.5116493 C8.14841839,10.3416484 8.09966888,10.2116497 8.00216839,10.1216493 C7.90466791,10.0316488 7.76591929,9.98664928 7.58591839,9.98664928 C7.44091767,9.98664928 7.30716901,10.0078991 7.18466839,10.0503993 C7.06216778,10.0928995 6.92091919,10.1541489 6.76091839,10.2341493 L6.61091839,10.3091493 C6.59091829,10.3191493 6.55216868,10.3403991 6.49466839,10.3728993 C6.43716811,10.4053994 6.38591862,10.4291492 6.34091839,10.4441493 C6.29591817,10.4591494 6.24841864,10.4666493 6.19841839,10.4666493 C6.07341777,10.4666493 5.96841882,10.4103998 5.88341839,10.2978993 C5.79841797,10.1853987 5.75591839,10.0516501 5.75591839,9.89664928 C5.75591839,9.78664873 5.77216823,9.69664963 5.80466839,9.62664928 C5.83716856,9.55664893 5.89841794,9.49164958 5.98841839,9.43164928 C6.22341957,9.27164848 6.48716693,9.14664973 6.77966839,9.05664928 C7.07216986,8.96664883 7.36091697,8.92164928 7.64591839,8.92164928 C8.01592024,8.92164928 8.34091699,8.98289867 8.62091839,9.10539928 C8.90091979,9.22789989 9.11716763,9.40289814 9.26966839,9.63039928 C9.42216916,9.85790042 9.49841839,10.1191478 9.49841839,10.4141493 C9.49841839,10.7191508 9.43716901,10.997898 9.31466839,11.2503993 C9.19216778,11.5029005 8.98341987,11.7841477 8.68841839,12.0941493 L7.62341839,13.1816493 L9.13091839,13.1816493 Z M13.9659184,12.3341493 C14.4009206,12.3341493 14.6184184,12.5066476 14.6184184,12.8516493 C14.6184184,13.2066511 14.4009206,13.3841493 13.9659184,13.3841493 L13.8009184,13.3841493 L13.8009184,13.6391493 C13.8009184,13.8641504 13.738419,14.0341487 13.6134184,14.1491493 C13.4884178,14.2641499 13.3259194,14.3216493 13.1259184,14.3216493 C12.9259174,14.3216493 12.764669,14.2641499 12.6421684,14.1491493 C12.5196678,14.0341487 12.4584184,13.8641504 12.4584184,13.6391493 L12.4584184,13.3841493 L10.7859184,13.3841493 C10.6059175,13.3841493 10.4634189,13.3291498 10.3584184,13.2191493 C10.2534179,13.1091487 10.2009184,12.9716501 10.2009184,12.8066493 C10.2009184,12.6316484 10.2559178,12.4666501 10.3659184,12.3116493 L12.5109184,9.25164928 C12.5809187,9.15164878 12.6696679,9.07539954 12.7771684,9.02289928 C12.8846689,8.97039902 12.9959178,8.94414928 13.1109184,8.94414928 C13.3009193,8.94414928 13.4634177,9.00414868 13.5984184,9.12414928 C13.7334191,9.24414988 13.8009184,9.41164821 13.8009184,9.62664928 L13.8009184,12.3341493 L13.9659184,12.3341493 Z M11.5584184,12.3341493 L12.4584184,12.3341493 L12.4584184,11.0366493 L11.5584184,12.3341493 Z"/>
</svg>
