<svg xmlns="http://www.w3.org/2000/svg" width="24" height="24" viewBox="0 0 24 24">
  <path d="M14.8944272,17.0527864 C15.1414164,17.5467649 14.9411921,18.1474379 14.4472136,18.3944272 C13.9532351,18.6414164 13.3525621,18.4411921 13.1055728,17.9472136 C12.6337452,17.0035583 12.2646756,16.1589713 12,15.4069853 C11.7353244,16.1589713 11.3662548,17.0035583 10.8944272,17.9472136 C10.6474379,18.4411921 10.0467649,18.6414164 9.5527864,18.3944272 C9.05880791,18.1474379 8.85858356,17.5467649 9.10557281,17.0527864 C10.041447,15.1810381 10.5,13.805379 10.5,13 L10.5,10.9338163 C9.5850035,10.8530627 8.67067062,10.6984441 7.75746437,10.4701425 C7.22166947,10.3361938 6.89590877,9.79325928 7.0298575,9.25746437 C7.16380623,8.72166947 7.70674072,8.39590877 8.24253563,8.5298575 C9.49714686,8.84351031 10.7490644,9 12,9 C13.2509356,9 14.5028531,8.84351031 15.7574644,8.5298575 C16.2932593,8.39590877 16.8361938,8.72166947 16.9701425,9.25746437 C17.1040912,9.79325928 16.7783305,10.3361938 16.2425356,10.4701425 C15.3293294,10.6984441 14.4149965,10.8530627 13.5,10.9338163 L13.5,13 C13.5,13.805379 13.958553,15.1810381 14.8944272,17.0527864 Z M12,23 C5.92486775,23 1,18.0751322 1,12 C1,5.92486775 5.92486775,1 12,1 C18.0751322,1 23,5.92486775 23,12 C23,18.0751322 18.0751322,23 12,23 Z M12,21 C16.9705627,21 21,16.9705627 21,12 C21,7.02943725 16.9705627,3 12,3 C7.02943725,3 3,7.02943725 3,12 C3,16.9705627 7.02943725,21 12,21 Z M12,8.5 C11.0335017,8.5 10.25,7.71649831 10.25,6.75 C10.25,5.78350169 11.0335017,5 12,5 C12.9664983,5 13.75,5.78350169 13.75,6.75 C13.75,7.71649831 12.9664983,8.5 12,8.5 Z"/>
</svg>
