<svg xmlns="http://www.w3.org/2000/svg" width="24" height="24" viewBox="0 0 24 24">
  <path d="M11.9644661,8.79289322 L7.37867966,13.3786797 C6.20710678,14.5502525 6.20710678,16.4497475 7.37867966,17.6213203 C8.55025253,18.7928932 10.4497475,18.7928932 11.6213203,17.6213203 L19.0450014,10.029123 C20.9883405,8.0819404 20.9877327,4.91666491 19.0355339,2.96446609 C17.0829124,1.01184464 13.9170876,1.01184464 11.9644661,2.96446609 C10.1870948,4.74183735 9.43130694,5.51924646 8.23894614,6.77626496 C7.05830911,8.02092396 6.31472831,8.78577675 4.55025253,10.5502525 C1.81658249,13.2839226 1.81658249,17.7160774 4.55025253,20.4497475 C7.28392257,23.1834175 11.7160774,23.1834175 14.4497475,20.4497475 L21.9350288,12.9644661 C22.3255531,12.5739418 22.3255531,11.9407768 21.9350288,11.5502525 C21.5445046,11.1597282 20.9113396,11.1597282 20.5208153,11.5502525 L13.0355339,19.0355339 C11.0829124,20.9881554 7.91708755,20.9881554 5.96446609,19.0355339 C4.01184464,17.0829124 4.01184464,13.9170876 5.96446609,11.9644661 C7.74183735,10.1870948 8.49762524,9.40968573 9.68998605,8.15266723 C10.8706231,6.90800823 11.6142039,6.14315544 13.3786797,4.37867966 C14.5502525,3.20710678 16.4497475,3.20710678 17.6213203,4.37867966 C18.7928294,5.55018875 18.7931943,7.45023231 17.6221816,8.62360556 L10.1992121,16.2150906 C9.81658249,16.5976311 9.18341751,16.5976311 8.79289322,16.2071068 C8.40236893,15.8165825 8.40236893,15.1834175 8.79289322,14.7928932 L13.3786797,10.2071068 C13.7692039,9.81658249 13.7692039,9.18341751 13.3786797,8.79289322 C12.9881554,8.40236893 12.3549904,8.40236893 11.9644661,8.79289322 Z"/>
</svg>
