<svg xmlns="http://www.w3.org/2000/svg" width="24" height="24" viewBox="0 0 24 24">
    <path d="M7,4 L7,20.5857864 L10.5857864,17 C11.366835,16.2189514 12.633165,16.2189514 13.4142136,17 L17,20.5857864 L17,4 L7,4 Z M7,2 L17,2 C18.1045695,2 19,2.8954305 19,4 L19,20.5857864 C19,21.6903559 18.1045695,22.5857864 17,22.5857864 C16.469567,22.5857864 15.9608592,22.3750728 15.5857864,22 L12,18.4142136 L8.41421356,22 C7.63316498,22.7810486 6.36683502,22.7810486 5.58578644,22 C5.21071368,21.6249272 5,21.1162194 5,20.5857864 L5,4 C5,2.8954305 5.8954305,2 7,2 Z"/>
</svg>
