<svg xmlns="http://www.w3.org/2000/svg" width="24" height="24" viewBox="0 0 24 24">
  <path d="M11,3 C11,2.44771525 11.4477153,2 12,2 C12.5522847,2 13,2.44771525 13,3 L13,12.5857864 L14.2928932,11.2928932 C14.6834175,10.9023689 15.3165825,10.9023689 15.7071068,11.2928932 C16.0976311,11.6834175 16.0976311,12.3165825 15.7071068,12.7071068 L12.7071068,15.7071068 C12.3165825,16.0976311 11.6834175,16.0976311 11.2928932,15.7071068 L8.29289322,12.7071068 C7.90236893,12.3165825 7.90236893,11.6834175 8.29289322,11.2928932 C8.68341751,10.9023689 9.31658249,10.9023689 9.70710678,11.2928932 L11,12.5857864 L11,3 Z M8.03678794,4.7871617 C8.52731814,4.53339298 9.13069164,4.72532609 9.38446035,5.2158563 C9.63822907,5.70638651 9.44629596,6.30976 8.95576576,6.56352872 C7.54415129,7.29380707 6.5444226,8.65112368 6.28095462,10.2269017 C6.21118368,10.6441953 5.8863523,10.9724237 5.4698071,11.0465319 C4.05029006,11.2990807 3,12.5403907 3,14 C3,15.6568542 4.34314575,17 6,17 L17,17 C19.209139,17 21,15.209139 21,13 C21,10.790861 19.209139,9 17,9 C16.8739075,9 16.7486685,9.00580311 16.6245114,9.01732551 C16.23688,9.05329965 15.863604,8.86104504 15.6677994,8.52457397 C15.4331665,8.12138033 15.1435864,7.75192063 14.8081084,7.42712596 C14.4113173,7.0429707 14.4010739,6.40988859 14.7852291,6.01309748 C15.1693844,5.61630636 15.8024665,5.60606297 16.1992576,5.99021822 C16.518565,6.29935724 16.80806,6.63764312 17.0637643,7.00033182 C20.3481007,7.03452889 23,9.70757231 23,13 C23,16.3137085 20.3137085,19 17,19 L6,19 C3.23857625,19 1,16.7614237 1,14 C1,11.8024601 2.42710078,9.90299834 4.44945117,9.24509495 C4.96136897,7.32580774 6.26648808,5.70300077 8.03678794,4.7871617 Z"/>
</svg>
