<?xml version="1.0" encoding="UTF-8"?>
<svg width="24px" height="24px" viewBox="0 0 24 24" version="1.1" xmlns="http://www.w3.org/2000/svg" xmlns:xlink="http://www.w3.org/1999/xlink">
    <!-- Generator: Sketch 52.3 (67297) - http://www.bohemiancoding.com/sketch -->
    <title>jollycons-[category]/icons/svg/icon-ui-1-cog</title>
    <desc>Created with Sketch.</desc>
    <g id="icons" stroke="none" stroke-width="1" fill="none" fill-rule="evenodd">
        <g id="icons---export" transform="translate(-188.000000, -218.000000)">
            <g id="row-3" transform="translate(60.000000, 218.000000)" fill="#000000" fill-rule="nonzero">
                <g id="icon---13" transform="translate(128.000000, 0.000000)">
                    <path d="M8.65142634,3.64384879 L8.85864255,2.60776773 C9.04561223,1.67291934 9.86644186,1 10.8198039,1 L13.1801961,1 C14.1335581,1 14.9543878,1.67291934 15.1413574,2.60776773 L15.3485737,3.64384879 C16.143726,3.96275671 16.888201,4.39391516 17.5603431,4.92265427 L18.563233,4.58338851 C19.4663203,4.27788481 20.4595004,4.65228445 20.9361814,5.4779202 L22.1163775,7.5220798 C22.5930585,8.34771555 22.4207081,9.39503453 21.7045905,10.0243792 L20.9099366,10.7227438 C20.9697545,11.1433598 21,11.5698747 21,12 C21,12.4301253 20.9697545,12.8566402 20.9099366,13.2772562 L21.7045905,13.9756208 C22.4207081,14.6049655 22.5930585,15.6522845 22.1163775,16.4779202 L20.9361814,18.5220798 C20.4595004,19.3477155 19.4663203,19.7221152 18.563233,19.4166115 L17.5603431,19.0773457 C16.888201,19.6060848 16.143726,20.0372433 15.3485737,20.3561512 L15.1413574,21.3922323 C14.9543878,22.3270807 14.1335581,23 13.1801961,23 L10.8198039,23 C9.86644186,23 9.04561223,22.3270807 8.85864255,21.3922323 L8.65142634,20.3561512 C7.85627398,20.0372433 7.11179896,19.6060848 6.43965695,19.0773457 L5.43676698,19.4166115 C4.53367968,19.7221152 3.54049963,19.3477155 3.06381861,18.5220798 L1.88362251,16.4779202 C1.40694149,15.6522845 1.57929191,14.6049655 2.29540953,13.9756208 L3.09006342,13.2772562 C3.03024548,12.8566402 3,12.4301253 3,12 C3,11.5698747 3.03024548,11.1433598 3.09006342,10.7227438 L2.29540953,10.0243792 C1.57929191,9.39503453 1.40694149,8.34771555 1.88362251,7.5220798 L3.06381861,5.4779202 C3.54049963,4.65228445 4.53367968,4.27788481 5.43676698,4.58338851 L6.43965695,4.92265427 C7.11179896,4.39391516 7.85627398,3.96275671 8.65142634,3.64384879 Z M7.32077276,6.79367559 C7.05208541,7.03534146 6.67391542,7.11324085 6.33159278,6.99743717 L4.79586941,6.4779202 L3.61567332,8.5220798 L4.8321037,9.59111369 C5.10322525,9.82938308 5.22490635,10.1952667 5.15048389,10.5484529 C5.05075117,11.0217538 5,11.5072804 5,12 C5,12.4927196 5.05075117,12.9782462 5.15048389,13.4515471 C5.22490635,13.8047333 5.10322525,14.1706169 4.8321037,14.4088863 L3.61567332,15.4779202 L4.79586941,17.5220798 L6.33159278,17.0025628 C6.67391542,16.8867591 7.05208541,16.9646585 7.32077276,17.2063244 C8.04707164,17.8595805 8.90159606,18.355241 9.83125628,18.6578382 C10.1748976,18.7696908 10.4314538,19.0582496 10.5023276,19.4126185 L10.8198039,21 L13.1801961,21 L13.4976724,19.4126185 C13.5685462,19.0582496 13.8251024,18.7696908 14.1687437,18.6578382 C15.0984039,18.355241 15.9529284,17.8595805 16.6792272,17.2063244 C16.9479146,16.9646585 17.3260846,16.8867591 17.6684072,17.0025628 L19.2041306,17.5220798 L20.3843267,15.4779202 L19.1678963,14.4088863 C18.8967747,14.1706169 18.7750936,13.8047333 18.8495161,13.4515471 C18.9492488,12.9782462 19,12.4927196 19,12 C19,11.5072804 18.9492488,11.0217538 18.8495161,10.5484529 C18.7750936,10.1952667 18.8967747,9.82938308 19.1678963,9.59111369 L20.3843267,8.5220798 L19.2041306,6.4779202 L17.6684072,6.99743717 C17.3260846,7.11324085 16.9479146,7.03534146 16.6792272,6.79367559 C15.9529284,6.14041946 15.0984039,5.64475896 14.1687437,5.34216181 C13.8251024,5.23030924 13.5685462,4.94175036 13.4976724,4.58738155 L13.1801961,3 L10.8198039,3 L10.5023276,4.58738155 C10.4314538,4.94175036 10.1748976,5.23030924 9.83125628,5.34216181 C8.90159606,5.64475896 8.04707164,6.14041946 7.32077276,6.79367559 Z M12,17 C9.23857625,17 7,14.7614237 7,12 C7,9.23857625 9.23857625,7 12,7 C14.7614237,7 17,9.23857625 17,12 C17,14.7614237 14.7614237,17 12,17 Z M12,15 C13.6568542,15 15,13.6568542 15,12 C15,10.3431458 13.6568542,9 12,9 C10.3431458,9 9,10.3431458 9,12 C9,13.6568542 10.3431458,15 12,15 Z" id="cog"></path>
                </g>
            </g>
            <g id="slices" transform="translate(60.000000, 58.000000)"></g>
        </g>
    </g>
</svg>