<svg xmlns="http://www.w3.org/2000/svg" width="24" height="24" viewBox="0 0 24 24">
  <path d="M15.2567059,6.33103527 C15.6261649,5.92052525 16.2584547,5.88724683 16.6689647,6.25670585 C17.0794748,6.62616487 17.1127532,7.25845471 16.7432941,7.66896473 L12.5335685,12.3464377 C12.1641095,12.7569477 11.5318196,12.7902261 11.1213096,12.4207671 C10.7107996,12.0513081 10.6775212,11.4190182 11.0469802,11.0085082 L15.2567059,6.33103527 Z M7.20213382,15.2805598 C7.57159284,14.8700497 8.20388268,14.8367713 8.6143927,15.2062303 C9.02490272,15.5756894 9.05818113,16.2079792 8.68872211,16.6184892 L8.23686366,17.1205542 C7.60878333,17.8184212 6.5338906,17.8749945 5.83602357,17.2469142 C5.80306366,17.2167232 5.80306366,17.2167232 5.77118208,17.1853956 L1.29289322,12.7071068 C0.902368927,12.3165825 0.902368927,11.6834175 1.29289322,11.2928932 C1.68341751,10.9023689 2.31658249,10.9023689 2.70710678,11.2928932 L6.96180516,15.5475916 L7.20213382,15.2805598 Z M8.70710678,11.2928932 L12.9618052,15.5475916 L21.2567059,6.33103527 C21.6261649,5.92052525 22.2584547,5.88724683 22.6689647,6.25670585 C23.0794748,6.62616487 23.1127532,7.25845471 22.7432941,7.66896473 L14.2368637,17.1205542 C13.6087833,17.8184212 12.5338906,17.8749945 11.8360236,17.2469142 C11.8030637,17.2167232 11.8030637,17.2167232 11.7711821,17.1853956 L7.29289322,12.7071068 C6.90236893,12.3165825 6.90236893,11.6834175 7.29289322,11.2928932 C7.68341751,10.9023689 8.31658249,10.9023689 8.70710678,11.2928932 Z"/>
</svg>
