<?xml version="1.0" encoding="UTF-8"?>
<svg width="24px" height="24px" viewBox="0 0 24 24" version="1.1" xmlns="http://www.w3.org/2000/svg" xmlns:xlink="http://www.w3.org/1999/xlink">
    <!-- Generator: Sketch 52.3 (67297) - http://www.bohemiancoding.com/sketch -->
    <title>jollycons-[category]/icons/svg/icon-ui-1-download</title>
    <desc>Created with Sketch.</desc>
    <g id="icons" stroke="none" stroke-width="1" fill="none" fill-rule="evenodd">
        <g id="icons---export" transform="translate(-188.000000, -138.000000)">
            <g id="row-2" transform="translate(60.000000, 138.000000)" fill="#000000" fill-rule="nonzero">
                <g id="icon---8" transform="translate(128.000000, 0.000000)">
                    <path d="M11,14.5857864 L11,3 C11,2.44771525 11.4477153,2 12,2 C12.5522847,2 13,2.44771525 13,3 L13,14.5857864 L17.2928932,10.2928932 C17.6834175,9.90236893 18.3165825,9.90236893 18.7071068,10.2928932 C19.0976311,10.6834175 19.0976311,11.3165825 18.7071068,11.7071068 L12.7071068,17.7071068 C12.3165825,18.0976311 11.6834175,18.0976311 11.2928932,17.7071068 L5.29289322,11.7071068 C4.90236893,11.3165825 4.90236893,10.6834175 5.29289322,10.2928932 C5.68341751,9.90236893 6.31658249,9.90236893 6.70710678,10.2928932 L11,14.5857864 Z M20,17 C20,16.4477153 20.4477153,16 21,16 C21.5522847,16 22,16.4477153 22,17 L22,20 C22,21.1045695 21.1045695,22 20,22 L4,22 C2.8954305,22 2,21.1045695 2,20 L2,17 C2,16.4477153 2.44771525,16 3,16 C3.55228475,16 4,16.4477153 4,17 L4,20 L20,20 L20,17 Z" id="download"></path>
                </g>
            </g>
            <g id="slices" transform="translate(60.000000, 58.000000)"></g>
        </g>
    </g>
</svg>