<?xml version="1.0" encoding="UTF-8"?>
<svg width="24px" height="24px" viewBox="0 0 24 24" version="1.1" xmlns="http://www.w3.org/2000/svg" xmlns:xlink="http://www.w3.org/1999/xlink">
    <!-- Generator: Sketch 52.3 (67297) - http://www.bohemiancoding.com/sketch -->
    <title>jollycons-[category]/icons/svg/icon-ui-1-edit</title>
    <desc>Created with Sketch.</desc>
    <g id="icons" stroke="none" stroke-width="1" fill="none" fill-rule="evenodd">
        <g id="icons---export" transform="translate(-60.000000, -218.000000)">
            <g id="row-3" transform="translate(60.000000, 218.000000)" fill="#000000" fill-rule="nonzero">
                <g id="icon---11">
                    <path d="M15,7.41421356 L5.46446609,16.9497475 C4.64813131,17.7660822 4.14322567,18.83563 4.02621566,19.9737843 C5.16436998,19.8567743 6.23391775,19.3518687 7.05025253,18.5355339 L16.5857864,9 L15,7.41421356 Z M16.4142136,6 L18,7.58578644 L18.7928932,6.79289322 C19.2307961,6.35499039 19.2307961,5.64500961 18.7928932,5.20710678 C18.3549904,4.76920395 17.6450096,4.76920395 17.2071068,5.20710678 L16.4142136,6 Z M12,22 C11.4477153,22 11,21.5522847 11,21 C11,20.4477153 11.4477153,20 12,20 L21.1107703,20 C21.663055,20 22.1107703,20.4477153 22.1107703,21 C22.1107703,21.5522847 21.663055,22 21.1107703,22 L12,22 Z M20.2071068,3.79289322 C21.4260582,5.01184464 21.4260582,6.98815536 20.2071068,8.20710678 L8.46446609,19.9497475 C7.15171144,21.2625021 5.37123405,22 3.51471863,22 L3,22 C2.44771525,22 2,21.5522847 2,21 L2,20.4852814 C2,18.6287659 2.73749788,16.8482886 4.05025253,15.5355339 L15.7928932,3.79289322 C17.0118446,2.5739418 18.9881554,2.5739418 20.2071068,3.79289322 Z" id="edit"></path>
                </g>
            </g>
            <g id="slices" transform="translate(60.000000, 58.000000)"></g>
        </g>
    </g>
</svg>