<svg xmlns="http://www.w3.org/2000/svg" width="24" height="24" viewBox="0 0 24 24">
  <path d="M4.41421356,4 L10.4142136,10 C10.7892863,10.3750728 11,10.8837806 11,11.4142136 L11,19.5857864 L13,17.5857864 L13,11.4142136 C13,10.8837806 13.2107137,10.3750728 13.5857864,10 L19.5857864,4 L4.41421356,4 Z M4.41421356,2 L19.5857864,2 C20.6903559,2 21.5857864,2.8954305 21.5857864,4 C21.5857864,4.53043298 21.3750728,5.03914081 21,5.41421356 L15,11.4142136 L15,17.5857864 C15,18.1162194 14.7892863,18.6249272 14.4142136,19 L12.4142136,21 C11.633165,21.7810486 10.366835,21.7810486 9.58578644,21 C9.21071368,20.6249272 9,20.1162194 9,19.5857864 L9,11.4142136 L3,5.41421356 C2.21895142,4.63316498 2.21895142,3.36683502 3,2.58578644 C3.37507276,2.21071368 3.88378058,2 4.41421356,2 Z"/>
</svg>
