<?xml version="1.0" encoding="UTF-8"?>
<svg width="24px" height="24px" viewBox="0 0 24 24" version="1.1" xmlns="http://www.w3.org/2000/svg" xmlns:xlink="http://www.w3.org/1999/xlink">
    <!-- Generator: Sketch 52.3 (67297) - http://www.bohemiancoding.com/sketch -->
    <title>jollycons-[category]/icons/svg/icon-ui-1-full-screen</title>
    <desc>Created with Sketch.</desc>
    <g id="icons" stroke="none" stroke-width="1" fill="none" fill-rule="evenodd">
        <g id="icons---export" transform="translate(-252.000000, -218.000000)">
            <g id="row-3" transform="translate(60.000000, 218.000000)" fill="#000000" fill-rule="nonzero">
                <g id="icon---14" transform="translate(192.000000, 0.000000)">
                    <path d="M22,8 C22,8.55228475 21.5522847,9 21,9 C20.4477153,9 20,8.55228475 20,8 L20,4 L16,4 C15.4477153,4 15,3.55228475 15,3 C15,2.44771525 15.4477153,2 16,2 L20,2 C21.1045695,2 22,2.8954305 22,4 L22,8 Z M8,2 C8.55228475,2 9,2.44771525 9,3 C9,3.55228475 8.55228475,4 8,4 L4,4 L4,8 C4,8.55228475 3.55228475,9 3,9 C2.44771525,9 2,8.55228475 2,8 L2,4 C2,2.8954305 2.8954305,2 4,2 L8,2 Z M20,16 C20,15.4477153 20.4477153,15 21,15 C21.5522847,15 22,15.4477153 22,16 L22,20 C22,21.1045695 21.1045695,22 20,22 L16,22 C15.4477153,22 15,21.5522847 15,21 C15,20.4477153 15.4477153,20 16,20 L20,20 L20,16 Z M8,20 C8.55228475,20 9,20.4477153 9,21 C9,21.5522847 8.55228475,22 8,22 L4,22 C2.8954305,22 2,21.1045695 2,20 L2,16 C2,15.4477153 2.44771525,15 3,15 C3.55228475,15 4,15.4477153 4,16 L4,20 L8,20 Z" id="full-screen"></path>
                </g>
            </g>
            <g id="slices" transform="translate(60.000000, 58.000000)"></g>
        </g>
    </g>
</svg>