<svg xmlns="http://www.w3.org/2000/svg" width="24" height="24" viewBox="0 0 24 24">
  <path d="M16.05,4 C14.7733664,4 13.5884993,4.69856876 12.8446485,5.87224224 C12.4519764,6.49181374 11.5480236,6.49181374 11.1553515,5.87224224 C10.4115007,4.69856876 9.22663356,4 7.95,4 C5.79334036,4 4,5.9926004 4,8.5 C4,11.0108005 6.64584886,14.7903531 11.9999984,19.6555961 C17.3541451,14.7903616 20,11.0108034 20,8.5 C20,5.9926004 18.2066596,4 16.05,4 Z M16.05,2 C19.3609594,2 22,4.93226735 22,8.5 C22,11.7606809 19.094183,15.9115905 13.3449691,21.1358199 C12.5822165,21.8288625 11.4177061,21.8288525 10.6549807,21.1357742 C4.90581085,15.9115817 2,11.7606775 2,8.5 C2,4.93226735 4.63904062,2 7.95,2 C9.48829456,2 10.9212941,2.64062711 12,3.7359287 C13.0787059,2.64062711 14.5117054,2 16.05,2 Z"/>
</svg>
