<svg xmlns="http://www.w3.org/2000/svg" width="24" height="24" viewBox="0 0 24 24">
  <path d="M12,23 C5.92486775,23 1,18.0751322 1,12 C1,5.92486775 5.92486775,1 12,1 C18.0751322,1 23,5.92486775 23,12 C23,18.0751322 18.0751322,23 12,23 Z M12,21 C16.9705627,21 21,16.9705627 21,12 C21,7.02943725 16.9705627,3 12,3 C7.02943725,3 3,7.02943725 3,12 C3,16.9705627 7.02943725,21 12,21 Z M12,17.5 C11.3096441,17.5 10.75,16.9403559 10.75,16.25 C10.75,15.5596441 11.3096441,15 12,15 C12.6903559,15 13.25,15.5596441 13.25,16.25 C13.25,16.9403559 12.6903559,17.5 12,17.5 Z M10.7071068,9.70710678 C10.3165825,10.0976311 9.68341751,10.0976311 9.29289322,9.70710678 C8.90236893,9.31658249 8.90236893,8.68341751 9.29289322,8.29289322 C10.1327768,7.45300965 11.0387961,7 12,7 C13.7160666,7 15,8.06994452 15,10 C15,11.0062224 14.5542071,11.656337 13.6585046,12.4400767 L13.4077586,12.6571536 C13.3201809,12.7331586 13.2574759,12.7890706 13.2024596,12.8406483 C13.0332924,12.9992426 13,13.0516781 13,13 C13,13.5522847 12.5522847,14 12,14 C11.4477153,14 11,13.5522847 11,13 C11,12.3538774 11.2978623,11.8847443 11.8345774,11.3815739 C11.911716,11.3092565 11.9916246,11.2380046 12.096871,11.1466658 L12.3414954,10.9349233 C12.83865,10.499913 13,10.264611 13,10 C13,9.26338882 12.6839334,9 12,9 C11.6278706,9 11.2005565,9.21365702 10.7071068,9.70710678 Z"/>
</svg>
