<svg xmlns="http://www.w3.org/2000/svg" width="24" height="24" viewBox="0 0 24 24">
  <path d="M18,20 L18,8.08062485 L12,3.28062485 L6,8.08062485 L6,20 L9,20 L9,14 C9,12.8954305 9.8954305,12 11,12 L13,12 C14.1045695,12 15,12.8954305 15,14 L15,20 L18,20 Z M20,9.68062485 L20,20 C20,21.1045695 19.1045695,22 18,22 L6,22 C4.8954305,22 4,21.1045695 4,20 L4,9.68062485 L2.62469505,10.7808688 C2.19343311,11.1258784 1.56414074,11.055957 1.21913119,10.624695 C0.874121642,10.1934331 0.944043017,9.56414074 1.37530495,9.21913119 L10.7506099,1.71888723 C11.4810472,1.13453739 12.5189528,1.13453739 13.2493901,1.71888723 L22.624695,9.21913119 C23.055957,9.56414074 23.1258784,10.1934331 22.7808688,10.624695 C22.4358593,11.055957 21.8065669,11.1258784 21.375305,10.7808688 L20,9.68062485 Z M13,14 L11,14 L11,20 L13,20 L13,14 Z"/>
</svg>
