<svg xmlns="http://www.w3.org/2000/svg" width="24" height="24" viewBox="0 0 24 24">
  <path d="M7.12691598,14 C7.04235322,13.344296 7,12.6775617 7,12 C7,11.3224383 7.04235322,10.655704 7.12691598,10 L3.22301642,10 C3.07706144,10.6432227 3,11.312612 3,12 C3,12.687388 3.07706144,13.3567773 3.22301642,14 L7.12691598,14 Z M9.71865767,20.7083331 C8.70410758,19.2174354 7.9720082,17.6467977 7.52489367,16 L3.93551965,16 C5.07972664,18.3024237 7.18091903,20.0453477 9.71865767,20.7083331 Z M21,12 C21,11.312612 20.9229386,10.6432227 20.7769836,10 L16.873084,10 C16.9576468,10.655704 17,11.3224383 17,12 C17,12.6775617 16.9576468,13.344296 16.873084,14 L20.7769836,14 C20.9229386,13.3567773 21,12.687388 21,12 Z M16.4751063,16 C16.0279918,17.6467977 15.2958924,19.2174354 14.2813423,20.7083331 C16.819081,20.0453477 18.9202734,18.3024237 20.0644804,16 L16.4751063,16 Z M14.8538554,14 C14.951358,13.3461674 15,12.6796037 15,12 C15,11.3203963 14.951358,10.6538326 14.8538554,10 L9.14614456,10 C9.04864197,10.6538326 9,11.3203963 9,12 C9,12.6796037 9.04864197,13.3461674 9.14614456,14 L14.8538554,14 Z M12,20.4427759 C13.1005702,19.0349378 13.8963072,17.5555798 14.3905394,16 L9.60946063,16 C10.1036928,17.5555798 10.8994298,19.0349378 12,20.4427759 Z M7.52489367,8 C7.9720082,6.35320231 8.70410758,4.78256462 9.71865767,3.29166689 C7.18091903,3.95465226 5.07972664,5.69757635 3.93551965,8 L7.52489367,8 Z M14.2813423,3.29166689 C15.2958924,4.78256462 16.0279918,6.35320231 16.4751063,8 L20.0644804,8 C18.9202734,5.69757635 16.819081,3.95465226 14.2813423,3.29166689 Z M14.3905394,8 C13.8963072,6.44442023 13.1005702,4.96506219 12,3.5572241 C10.8994298,4.96506219 10.1036928,6.44442023 9.60946063,8 L14.3905394,8 Z M12,23 C5.92486775,23 1,18.0751322 1,12 C1,5.92486775 5.92486775,1 12,1 C18.0751322,1 23,5.92486775 23,12 C23,18.0751322 18.0751322,23 12,23 Z"/>
</svg>
