<svg xmlns="http://www.w3.org/2000/svg" width="24" height="24" viewBox="0 0 24 24">
  <path d="M3,4 C3,3.44771525 3.44771525,3 4,3 L6,3 C6.55228475,3 7,3.44771525 7,4 L7,6 C7,6.55228475 6.55228475,7 6,7 L4,7 C3.44771525,7 3,6.55228475 3,6 L3,4 Z M10,4 C10,3.44771525 10.4477153,3 11,3 L13,3 C13.5522847,3 14,3.44771525 14,4 L14,6 C14,6.55228475 13.5522847,7 13,7 L11,7 C10.4477153,7 10,6.55228475 10,6 L10,4 Z M17,4 C17,3.44771525 17.4477153,3 18,3 L20,3 C20.5522847,3 21,3.44771525 21,4 L21,6 C21,6.55228475 20.5522847,7 20,7 L18,7 C17.4477153,7 17,6.55228475 17,6 L17,4 Z M3,11 C3,10.4477153 3.44771525,10 4,10 L6,10 C6.55228475,10 7,10.4477153 7,11 L7,13 C7,13.5522847 6.55228475,14 6,14 L4,14 C3.44771525,14 3,13.5522847 3,13 L3,11 Z M10,11 C10,10.4477153 10.4477153,10 11,10 L13,10 C13.5522847,10 14,10.4477153 14,11 L14,13 C14,13.5522847 13.5522847,14 13,14 L11,14 C10.4477153,14 10,13.5522847 10,13 L10,11 Z M17,11 C17,10.4477153 17.4477153,10 18,10 L20,10 C20.5522847,10 21,10.4477153 21,11 L21,13 C21,13.5522847 20.5522847,14 20,14 L18,14 C17.4477153,14 17,13.5522847 17,13 L17,11 Z M3,18 C3,17.4477153 3.44771525,17 4,17 L6,17 C6.55228475,17 7,17.4477153 7,18 L7,20 C7,20.5522847 6.55228475,21 6,21 L4,21 C3.44771525,21 3,20.5522847 3,20 L3,18 Z M10,18 C10,17.4477153 10.4477153,17 11,17 L13,17 C13.5522847,17 14,17.4477153 14,18 L14,20 C14,20.5522847 13.5522847,21 13,21 L11,21 C10.4477153,21 10,20.5522847 10,20 L10,18 Z M17,18 C17,17.4477153 17.4477153,17 18,17 L20,17 C20.5522847,17 21,17.4477153 21,18 L21,20 C21,20.5522847 20.5522847,21 20,21 L18,21 C17.4477153,21 17,20.5522847 17,20 L17,18 Z"/>
</svg>
