<?xml version="1.0" encoding="UTF-8"?>
<svg width="24px" height="24px" viewBox="0 0 24 24" version="1.1" xmlns="http://www.w3.org/2000/svg" xmlns:xlink="http://www.w3.org/1999/xlink">
    <!-- Generator: Sketch 52.3 (67297) - http://www.bohemiancoding.com/sketch -->
    <title>jollycons-[category]/icons/svg/icon-ui-1-reload</title>
    <desc>Created with Sketch.</desc>
    <g id="icons" stroke="none" stroke-width="1" fill="none" fill-rule="evenodd">
        <g id="icons---export" transform="translate(-252.000000, -138.000000)">
            <g id="row-2" transform="translate(60.000000, 138.000000)" fill="#000000" fill-rule="nonzero">
                <g id="icon---9" transform="translate(192.000000, 0.000000)">
                    <path d="M20.5391588,10 C20.5050583,10.001752 20.4710756,10.0017329 20.4373307,10 L15,10 C14.4477153,10 14,9.55228475 14,9 C14,8.44771525 14.4477153,8 15,8 L18.9309104,8 C17.5286991,5.57208573 14.9137154,4 12,4 C7.581722,4 4,7.581722 4,12 C4,16.418278 7.581722,20 12,20 C15.4168197,20 18.4229335,17.838146 19.5441657,14.6692346 C19.7283852,14.1485796 20.2997989,13.8758447 20.8204539,14.0600642 C21.3411089,14.2442837 21.6138438,14.8156973 21.4296243,15.3363523 C20.0278776,19.2980747 16.2707808,22 12,22 C6.4771525,22 2,17.5228475 2,12 C2,6.4771525 6.4771525,2 12,2 C15.2231662,2 18.1536809,3.538945 20,5.99680315 L20,3 C20,2.44771525 20.4477153,2 21,2 C21.5522847,2 22,2.44771525 22,3 L22,9 C22,9.55228475 21.5522847,10 21,10 L20.5391588,10 Z" id="reload"></path>
                </g>
            </g>
            <g id="slices" transform="translate(60.000000, 58.000000)"></g>
        </g>
    </g>
</svg>