<?xml version="1.0" encoding="UTF-8"?>
<svg width="24px" height="24px" viewBox="0 0 24 24" version="1.1" xmlns="http://www.w3.org/2000/svg" xmlns:xlink="http://www.w3.org/1999/xlink">
    <!-- Generator: Sketch 52.3 (67297) - http://www.bohemiancoding.com/sketch -->
    <title>jollycons-[category]/icons/svg/icon-ui-1-share</title>
    <desc>Created with Sketch.</desc>
    <g id="icons" stroke="none" stroke-width="1" fill="none" fill-rule="evenodd">
        <g id="icons---export" transform="translate(-316.000000, -58.000000)">
            <g id="row-1" transform="translate(60.000000, 58.000000)" fill="#000000" fill-rule="nonzero">
                <g id="icon---5" transform="translate(256.000000, 0.000000)">
                    <path d="M11,4.41421356 L7.70710678,7.70710678 C7.31658249,8.09763107 6.68341751,8.09763107 6.29289322,7.70710678 C5.90236893,7.31658249 5.90236893,6.68341751 6.29289322,6.29289322 L11.2928932,1.29289322 C11.6834175,0.902368927 12.3165825,0.902368927 12.7071068,1.29289322 L17.7071068,6.29289322 C18.0976311,6.68341751 18.0976311,7.31658249 17.7071068,7.70710678 C17.3165825,8.09763107 16.6834175,8.09763107 16.2928932,7.70710678 L13,4.41421356 L13,16 C13,16.5522847 12.5522847,17 12,17 C11.4477153,17 11,16.5522847 11,16 L11,4.41421356 Z M16,13 C15.4477153,13 15,12.5522847 15,12 C15,11.4477153 15.4477153,11 16,11 L18,11 C19.1045695,11 20,11.8954305 20,13 L20,21 C20,22.1045695 19.1045695,23 18,23 L6,23 C4.8954305,23 4,22.1045695 4,21 L4,13 C4,11.8954305 4.8954305,11 6,11 L8,11 C8.55228475,11 9,11.4477153 9,12 C9,12.5522847 8.55228475,13 8,13 L6,13 L6,21 L18,21 L18,13 L16,13 Z" id="share"></path>
                </g>
            </g>
            <g id="slices" transform="translate(60.000000, 58.000000)"></g>
        </g>
    </g>
</svg>