<svg xmlns="http://www.w3.org/2000/svg" width="24" height="24" viewBox="0 0 24 24">
  <path d="M17.5542476,15 L13.5168992,21.4597575 C12.9314785,22.3964306 11.6975778,22.6811769 10.7609047,22.0957562 C10.630345,22.0141564 10.5096444,21.9177538 10.4012008,21.8084635 L10.2901491,21.6965449 C9.43043059,20.8301145 9.05871452,19.5924063 9.29881102,18.3956728 L9.74644823,16.1644762 L7.11684264,16.4931769 C4.92476288,16.7671869 2.92560216,15.2122841 2.65159219,13.0202043 C2.6036304,12.63651 2.61155815,12.2478885 2.67512801,11.8664694 L3.59580557,6.34240405 C3.91726422,4.41365217 5.58602465,3 7.54138127,3 L12,3 C13.6845715,3 15.4137628,3.33498026 17.1842471,4 L20,4 C21.1045695,4 22,4.8954305 22,6 L22,13 C22,14.1045695 21.1045695,15 20,15 L17.5542476,15 Z M18,13 L20,13 L20,6 L18,6 L18,13 Z M16,5.70036077 C14.6195629,5.23226947 13.2870269,5 12,5 L7.54138127,5 C6.56370296,5 5.72932274,5.70682609 5.56859342,6.67120203 L4.64791585,12.1952674 C4.61613093,12.385977 4.61216705,12.5802877 4.63614795,12.7721349 C4.77315293,13.8681747 5.77273329,14.6456261 6.86877317,14.5086211 L10.8759653,14.0077221 C11.5535037,13.9230298 12.1147759,14.5272361 11.9804624,15.1967068 L11.2597358,18.7890863 C11.1507204,19.3324609 11.3194974,19.8944399 11.7098509,20.2878409 L11.8209026,20.3997596 L16,13.7132038 L16,5.70036077 Z"/>
</svg>
