<svg xmlns="http://www.w3.org/2000/svg" width="24" height="24" viewBox="0 0 24 24">
  <path d="M14.7168058,17 L18.2831942,17 L16.5,12.641081 L14.7168058,17 Z M13.898624,19 L12.925547,21.3786328 C12.7164338,21.8897983 12.1325326,22.1346601 11.6213672,21.925547 C11.1102017,21.7164338 10.8653399,21.1325326 11.074453,20.6213672 L15.574453,9.62136715 C15.9133806,8.79287762 17.0866194,8.79287762 17.425547,9.62136715 L21.925547,20.6213672 C22.1346601,21.1325326 21.8897983,21.7164338 21.3786328,21.925547 C20.8674674,22.1346601 20.2835662,21.8897983 20.074453,21.3786328 L19.101376,19 L13.898624,19 Z M7.80893898,9.37530495 C7.87701566,9.4604008 7.94538101,9.54425142 8.01403509,9.6268586 C8.08268916,9.54425142 8.15105452,9.4604008 8.21913119,9.37530495 C9.24718935,8.09023225 9.82315856,6.96299711 9.98221316,6 L6.04585702,6 C6.20491162,6.96299711 6.78088082,8.09023225 7.80893898,9.37530495 Z M3,6 C2.44771525,6 2,5.55228475 2,5 C2,4.44771525 2.44771525,4 3,4 L5.01246141,4 C5.02200906,3.99986307 5.0315791,3.99986251 5.0411727,4 L6.88196601,4 L6.60557281,3.4472136 C6.35858356,2.9532351 6.55880791,2.35256206 7.0527864,2.10557281 C7.5467649,1.85858356 8.14743794,2.05880791 8.39442719,2.5527864 L9.11803399,4 L10.9868975,4 C10.9964911,3.99986251 11.0060611,3.99986307 11.0156054,4 L13,4 C13.5522847,4 14,4.44771525 14,5 C14,5.55228475 13.5522847,6 13,6 L12.0002879,6 C11.8498319,7.44085831 11.0966354,8.97998681 9.78086881,10.624695 C9.65437129,10.782817 9.52671991,10.9373879 9.39791486,11.0884001 C10.354999,11.9660604 11.3625407,12.62865 12.4206354,13.0802758 C12.928585,13.2970836 13.1646021,13.8846156 12.9477944,14.3925652 C12.7309866,14.9005148 12.1434546,15.136532 11.635505,14.9197242 C10.3499396,14.3710072 9.14274934,13.5739244 8.01403509,12.532813 C6.88532083,13.5739244 5.67813061,14.3710072 4.3925652,14.9197242 C3.88461556,15.136532 3.29708359,14.9005148 3.08027582,14.3925652 C2.86346805,13.8846156 3.09948516,13.2970836 3.6074348,13.0802758 C4.66552948,12.62865 5.67307118,11.9660604 6.63015532,11.0884001 C6.50135027,10.9373879 6.37369889,10.782817 6.24720137,10.624695 C4.93143477,8.97998681 4.17823831,7.44085831 4.02778231,6 L3,6 Z"/>
</svg>
