<svg xmlns="http://www.w3.org/2000/svg" width="24" height="24" viewBox="0 0 24 24">
  <path fill="#000000" fill-rule="evenodd" d="M16,21 C15.4477153,21 15,20.5522847 15,20 C15,19.4477153 14.5522847,19 14,19 L10,19 C9.44771525,19 9,19.4477153 9,20 C9,20.5522847 8.55228475,21 8,21 L7,21 C7,20.4477153 6.55228475,20 6,20 C5.44771525,20 5,20.4477153 5,21 L4,21 C3.44771525,21 3,20.5522847 3,20 L3,4 C3,3.44771525 3.44771525,3 4,3 L5,3 C5,3.55228475 5.44771525,4 6,4 C6.55228475,4 7,3.55228475 7,3 L8,3 C8.55228475,3 9,3.44771525 9,4 C9,4.55228475 9.44771525,5 10,5 L14,5 C14.5522847,5 15,4.55228475 15,4 C15,3.44771525 15.4477153,3 16,3 L17,3 C17,3.55228475 17.4477153,4 18,4 C18.5522847,4 19,3.55228475 19,3 L20,3 C20.5522847,3 21,3.44771525 21,4 L21,20 C21,20.5522847 20.5522847,21 20,21 L19,21 C19,20.4477153 18.5522847,20 18,20 C17.4477153,20 17,20.4477153 17,21 L16,21 Z M10,7 C9.44771525,7 9,7.44771525 9,8 L9,10 C9,10.5522847 9.44771525,11 10,11 L14,11 C14.5522847,11 15,10.5522847 15,10 L15,8 C15,7.44771525 14.5522847,7 14,7 L10,7 Z M6,8 C5.44771525,8 5,8.44771525 5,9 C5,9.55228475 5.44771525,10 6,10 C6.55228475,10 7,9.55228475 7,9 C7,8.44771525 6.55228475,8 6,8 Z M18,8 C17.4477153,8 17,8.44771525 17,9 C17,9.55228475 17.4477153,10 18,10 C18.5522847,10 19,9.55228475 19,9 C19,8.44771525 18.5522847,8 18,8 Z M6,14 C5.44771525,14 5,14.4477153 5,15 C5,15.5522847 5.44771525,16 6,16 C6.55228475,16 7,15.5522847 7,15 C7,14.4477153 6.55228475,14 6,14 Z M18,14 C17.4477153,14 17,14.4477153 17,15 C17,15.5522847 17.4477153,16 18,16 C18.5522847,16 19,15.5522847 19,15 C19,14.4477153 18.5522847,14 18,14 Z M6,11 C5.44771525,11 5,11.4477153 5,12 C5,12.5522847 5.44771525,13 6,13 C6.55228475,13 7,12.5522847 7,12 C7,11.4477153 6.55228475,11 6,11 Z M18,11 C17.4477153,11 17,11.4477153 17,12 C17,12.5522847 17.4477153,13 18,13 C18.5522847,13 19,12.5522847 19,12 C19,11.4477153 18.5522847,11 18,11 Z M6,17 C5.44771525,17 5,17.4477153 5,18 C5,18.5522847 5.44771525,19 6,19 C6.55228475,19 7,18.5522847 7,18 C7,17.4477153 6.55228475,17 6,17 Z M10,13 C9.44771525,13 9,13.4477153 9,14 L9,16 C9,16.5522847 9.44771525,17 10,17 L14,17 C14.5522847,17 15,16.5522847 15,16 L15,14 C15,13.4477153 14.5522847,13 14,13 L10,13 Z M18,17 C17.4477153,17 17,17.4477153 17,18 C17,18.5522847 17.4477153,19 18,19 C18.5522847,19 19,18.5522847 19,18 C19,17.4477153 18.5522847,17 18,17 Z M6,5 C5.44771525,5 5,5.44771525 5,6 C5,6.55228475 5.44771525,7 6,7 C6.55228475,7 7,6.55228475 7,6 C7,5.44771525 6.55228475,5 6,5 Z M18,5 C17.4477153,5 17,5.44771525 17,6 C17,6.55228475 17.4477153,7 18,7 C18.5522847,7 19,6.55228475 19,6 C19,5.44771525 18.5522847,5 18,5 Z"/>
</svg>
