<svg xmlns="http://www.w3.org/2000/svg" width="24" height="24" viewBox="0 0 24 24">
  <path fill="#000000" d="M24,5 L24,20 C24,21.1045695 23.1045695,22 22,22 L2,22 C0.8954305,22 1.11022302e-16,21.1045695 0,20 L0,5 C-2.22044605e-16,3.8954305 0.8954305,3 2,3 L22,3 C23.1045695,3 24,3.8954305 24,5 Z M2,8 L2,20 L22,20 L22,8 L2,8 Z M8.16044168,10.0031589 C8.19002201,10.0010648 8.21988665,10 8.25,10 L15.75,10 C15.7801133,10 15.809978,10.0010648 15.8395583,10.0031589 C15.8927782,10.0010596 15.9462654,10 16,10 C18.209139,10 20,11.790861 20,14 C20,16.209139 18.209139,18 16,18 C15.9462654,18 15.8927782,17.9989404 15.8395583,17.9968411 C15.809978,17.9989352 15.7801133,18 15.75,18 L8.25,18 C8.21988665,18 8.19002201,17.9989352 8.16044168,17.9968411 C8.10722176,17.9989404 8.05373462,18 8,18 C5.790861,18 4,16.209139 4,14 C4,11.790861 5.790861,10 8,10 C8.05373462,10 8.10722176,10.0010596 8.16044168,10.0031589 Z M7,15.7324356 L7,12.2675644 C6.40219863,12.6133738 6,13.2597176 6,14 C6,14.7402824 6.40219863,15.3866262 7,15.7324356 Z M17,12.2675644 L17,15.7324356 C17.5978014,15.3866262 18,14.7402824 18,14 C18,13.2597176 17.5978014,12.6133738 17,12.2675644 Z M9,12 L9,16 L15,16 L15,12 L9,12 Z M22,6 L22,5 L2,5 L2,6 L22,6 Z"/>
</svg>
