<svg xmlns="http://www.w3.org/2000/svg" width="24" height="24" viewBox="0 0 24 24">
  <path fill="#000000" d="M12.5,1 C14.4329966,1 16,2.56700338 16,4.5 C16,5.47934409 15.5977664,6.36474148 14.9494914,7 L15,7 C16.6383534,7 17.9699651,8.31331743 17.999499,9.94461625 L21.6005947,8.37574986 C22.1069153,8.15516441 22.696189,8.38679848 22.9167745,8.89311904 C22.9716686,9.01912027 23,9.1550846 23,9.29252432 L23,18.6367983 C23,19.189083 22.5522847,19.6367983 22,19.6367983 C21.8625603,19.6367983 21.7265959,19.6084669 21.6005947,19.5535728 L18,17.9849246 L18,18 C18,19.6568542 16.6568542,21 15,21 L3,21 C1.34314575,21 3.33066907e-16,19.6568542 0,18 L0,10 C-1.37732375e-16,8.62968992 0.918739181,7.47396287 2.17384147,7.11519492 C1.45363726,6.47412947 1,5.54004107 1,4.5 C1,2.56700338 2.56700338,1 4.5,1 C4.55988632,1 4.61942135,1.00150405 4.67856938,1.00447644 C4.7020805,1.00151466 4.72590759,1 4.75,1 L12.25,1 C12.2740924,1 12.2979195,1.00151466 12.3214306,1.00447644 C12.3805786,1.00150405 12.4401137,1 12.5,1 Z M7.66318442,3 C7.87915448,3.45462769 8,3.96320135 8,4.5 C8,5.47934409 7.59776639,6.36474148 6.94949137,7 L10.0505086,7 C9.40223361,6.36474148 9,5.47934409 9,4.5 C9,3.96320135 9.12084552,3.45462769 9.33681558,3 L7.66318442,3 Z M16,18 L16,10 C16,9.44771525 15.5522847,9 15,9 L3,9 C2.44771525,9 2,9.44771525 2,10 L2,18 C2,18.5522847 2.44771525,19 3,19 L15,19 C15.5522847,19 16,18.5522847 16,18 Z M18,12.1259596 L18,15.803363 L21,17.1103539 L21,10.8189688 L18,12.1259596 Z M4.5,6 C5.32842712,6 6,5.32842712 6,4.5 C6,3.67157288 5.32842712,3 4.5,3 C3.67157288,3 3,3.67157288 3,4.5 C3,5.32842712 3.67157288,6 4.5,6 Z M12.5,6 C13.3284271,6 14,5.32842712 14,4.5 C14,3.67157288 13.3284271,3 12.5,3 C11.6715729,3 11,3.67157288 11,4.5 C11,5.32842712 11.6715729,6 12.5,6 Z M4,12 L14,12 C14.5522847,12 15,12.4477153 15,13 C15,13.5522847 14.5522847,14 14,14 L4,14 C3.44771525,14 3,13.5522847 3,13 C3,12.4477153 3.44771525,12 4,12 Z"/>
</svg>
