<svg xmlns="http://www.w3.org/2000/svg" width="24" height="24" viewBox="0 0 24 24">
  <path d="M7.43021172,21.0477416 C5.25726787,22.3022913 2.61550095,21.9840106 1.54958867,20.1377963 C0.483676377,18.2915821 1.52892063,15.8446045 3.70186448,14.5900547 C5.12494099,13.7684411 6.7490973,13.6214199 8,14.1363797 L8,3.97061363 C8,3.45239384 8.3958898,3.02003348 8.91210391,2.97448399 L19.9121039,2.00387035 C20.4968085,1.95227742 21,2.41302357 21,3 L21,15.8861922 C21.0761583,17.4612104 20.0770554,19.096936 18.4302117,20.0477416 C16.2572679,21.3022913 13.615501,20.9840106 12.5495887,19.1377963 C11.4836764,17.2915821 12.5289206,14.8446045 14.7018645,13.5900547 C16.124941,12.7684411 17.7490973,12.6214199 19,13.1363797 L19,4.09212299 L10,4.88626142 L10,16.9337121 C10.0707352,18.4700762 9.07258975,20.0995142 7.43021172,21.0477416 Z M17.4302117,18.3156908 C18.7371302,17.5611411 19.291349,16.2636825 18.8504367,15.5 C18.4095244,14.7363175 17.0087829,14.5675558 15.7018645,15.3221055 C14.394946,16.0766553 13.8407272,17.3741138 14.2816395,18.1377963 C14.7225518,18.9014788 16.1232933,19.0702405 17.4302117,18.3156908 Z M6.43021172,19.3156908 C7.73713017,18.5611411 8.29134902,17.2636825 7.85043673,16.5 C7.40952444,15.7363175 6.00878293,15.5675558 4.70186448,16.3221055 C3.39494603,17.0766553 2.84072718,18.3741138 3.28163947,19.1377963 C3.72255176,19.9014788 5.12329328,20.0702405 6.43021172,19.3156908 Z"/>
</svg>
