<svg xmlns="http://www.w3.org/2000/svg" width="24" height="24" viewBox="0 0 24 24">
  <path d="M6,12 C7.1045695,12 8,12.8954305 8,14 L8,19 C8,20.1045695 7.1045695,21 6,21 L5,21 C3.34314575,21 2,19.6568542 2,18 L2,15 C2,13.725759 2.79443371,12.637068 3.91502539,12.2022026 C3.46160317,6.22372555 6.221264,3 11.9411765,3 C17.6577333,3 20.4525304,6.21810248 20.0739331,12.197943 C21.2003442,12.6299253 22,13.7215779 22,15 L22,18 C22,19.6568542 20.6568542,21 19,21 L18,21 C16.8954305,21 16,20.1045695 16,19 L16,14 C16,12.8954305 16.8954305,12 18,12 L18.0840133,12 C18.3845001,7.1854418 16.4184337,5 11.9411765,5 C7.46600719,5 5.53579222,7.1807664 5.90377771,12 L6,12 Z M4,15 L4,18 C4,18.5522847 4.44771525,19 5,19 L6,19 L6,14 L5,14 C4.44771525,14 4,14.4477153 4,15 Z M18,14 L18,19 L19,19 C19.5522847,19 20,18.5522847 20,18 L20,15 C20,14.4477153 19.5522847,14 19,14 L18,14 Z"/>
</svg>
