<svg xmlns="http://www.w3.org/2000/svg" width="24" height="24" viewBox="0 0 24 24">
  <path d="M17,5 L17,12 C17,12.5522847 16.5522847,13 16,13 L16,19 L20,19 L20,5 L17,5 Z M13,5 L11,5 L11,12 C11,12.5522847 10.5522847,13 10,13 L10,19 L14,19 L14,13 C13.4477153,13 13,12.5522847 13,12 L13,5 Z M7,5 L4,5 L4,19 L8,19 L8,13 C7.44771525,13 7,12.5522847 7,12 L7,5 Z M14,21 L10,21 C9.63571286,21 9.29417337,20.9026057 9,20.7324356 C8.70582663,20.9026057 8.36428714,21 8,21 L4,21 C2.8954305,21 2,20.1045695 2,19 L2,4 C2,3.44771525 2.44771525,3 3,3 L21,3 C21.5522847,3 22,3.44771525 22,4 L22,19 C22,20.1045695 21.1045695,21 20,21 L16,21 C15.6357129,21 15.2941734,20.9026057 15,20.7324356 C14.7058266,20.9026057 14.3642871,21 14,21 Z"/>
</svg>
