<svg xmlns="http://www.w3.org/2000/svg" width="24" height="24" viewBox="0 0 24 24">
  <path d="M13,18.9381062 C16.9463116,18.4460082 20,15.0796177 20,11 C20,6.581722 16.418278,3 12,3 C7.581722,3 4,6.581722 4,11 C4,15.0796177 7.05368842,18.4460082 11,18.9381062 L11,16.3550607 C9.55425553,15.9247861 8.5,14.5855103 8.5,13 C8.5,11.0670034 10.0670034,9.5 12,9.5 C13.9329966,9.5 15.5,11.0670034 15.5,13 C15.5,14.5855103 14.4457445,15.9247861 13,16.3550607 L13,18.9381062 Z M13,22 L15,22 C15.5522847,22 16,22.4477153 16,23 C16,23.5522847 15.5522847,24 15,24 L9,24 C8.44771525,24 8,23.5522847 8,23 C8,22.4477153 8.44771525,22 9,22 L11,22 L11,20.9506248 C9.29066137,20.7809113 7.70794517,20.1807693 6.36177133,19.2601186 L4.83205029,21.5547002 C4.52569784,22.0142289 3.90482849,22.1384028 3.4452998,21.8320503 C2.98577112,21.5256978 2.86159725,20.9048285 3.16794971,20.4452998 L4.82267984,17.9632046 C3.07557765,16.1627198 2,13.7069672 2,11 C2,5.4771525 6.4771525,1 12,1 C17.5228475,1 22,5.4771525 22,11 C22,13.7069672 20.9244224,16.1627198 19.1773202,17.9632046 L20.8320503,20.4452998 C21.5716506,21.5547002 19.90755,22.6641006 19.1679497,21.5547002 L17.6382287,19.2601186 C16.2920548,20.1807693 14.7093386,20.7809113 13,20.9506248 L13,22 Z M12,14.5 C12.8284271,14.5 13.5,13.8284271 13.5,13 C13.5,12.1715729 12.8284271,11.5 12,11.5 C11.1715729,11.5 10.5,12.1715729 10.5,13 C10.5,13.8284271 11.1715729,14.5 12,14.5 Z"/>
</svg>
