<svg xmlns="http://www.w3.org/2000/svg" width="24" height="24" viewBox="0 0 24 24">
  <path d="M6,1 L18,1 C19.1045695,1 20,1.8954305 20,3 L20,21 C20,22.1045695 19.1045695,23 18,23 L6,23 C4.8954305,23 4,22.1045695 4,21 L4,3 C4,1.8954305 4.8954305,1 6,1 Z M6,3 L6,21 L18,21 L18,3 L6,3 Z M12,19 C9.790861,19 8,17.209139 8,15 C8,12.790861 9.790861,11 12,11 C14.209139,11 16,12.790861 16,15 C16,17.209139 14.209139,19 12,19 Z M12,17 C13.1045695,17 14,16.1045695 14,15 C14,13.8954305 13.1045695,13 12,13 C10.8954305,13 10,13.8954305 10,15 C10,16.1045695 10.8954305,17 12,17 Z M12,9 C10.8954305,9 10,8.1045695 10,7 C10,5.8954305 10.8954305,5 12,5 C13.1045695,5 14,5.8954305 14,7 C14,8.1045695 13.1045695,9 12,9 Z"/>
</svg>
