<svg xmlns="http://www.w3.org/2000/svg" width="24" height="24" viewBox="0 0 24 24">
  <path d="M10.3160486,5.90039004 C10.3202962,5.89688098 10.3243355,5.89334348 10.3281607,5.88978912 C10.3268559,5.89100145 10.3251997,5.89279168 10.3232151,5.89515622 L10.3160486,5.90039004 Z M9.78530621,7.41912053 C9.5348798,8.47091146 9.36001991,9.55092843 8.98994949,12.1414214 C8.61001991,14.8009284 8.43071314,15.9084115 8.16030621,17.0441205 C7.69492944,18.998703 7.18406362,20 6,20 C4.42749175,20 3.97300884,19.0455859 3.03847605,15.7747211 C2.47300884,13.7955859 2.09415842,13 2,13 C1.44771525,13 1,12.5522847 1,12 C1,11.4477153 1.44771525,11 2,11 C3.57250825,11 4.02699116,11.9544141 4.96152395,15.2252789 C5.36151367,16.6252429 5.66812777,17.4330059 5.84665393,17.7858818 C5.96731901,17.5026156 6.09167828,17.0975446 6.21469379,16.5808795 C6.4651202,15.5290885 6.63998009,14.4490716 7.01005051,11.8585786 C7.38998009,9.19907157 7.56928686,8.09158854 7.83969379,6.95587947 C8.30507056,5.00129701 8.81593638,4 10,4 C11.6755757,4 12.0361462,5.0817113 12.9805807,9.80388386 C13.3464058,11.6330096 13.5191897,12.3952915 13.7611833,13.1212722 C13.8813963,13.4819111 14.0000018,13.7531646 14.1075062,13.9256715 C14.2856712,13.7179404 14.5943957,13.0545353 15.0513167,11.6837722 C15.9827062,8.88960377 16.4769305,8 18,8 C19.2887692,8 19.9048056,8.55443272 20.8320503,9.9452998 C21.4048056,10.8044327 21.6221026,11 22,11 C22.5522847,11 23,11.4477153 23,12 C23,12.5522847 22.5522847,13 22,13 C20.7112308,13 20.0951944,12.4455673 19.1679497,11.0547002 C18.5951944,10.1955673 18.3778974,10 18,10 C17.8564028,10 17.5172938,10.6103962 16.9486833,12.3162278 C16.0172938,15.1103962 15.5230695,16 14,16 C12.3244243,16 11.9638538,14.9182887 11.0194193,10.1961161 C10.6535942,8.36699043 10.4808103,7.60470849 10.2388167,6.87872777 C10.1818698,6.70788705 10.1252836,6.5571051 10.0700674,6.42737706 C9.975889,6.68843244 9.88019782,7.02057577 9.78530621,7.41912053 Z"/>
</svg>
