<?xml version="1.0" encoding="UTF-8"?>
<svg width="24px" height="24px" viewBox="0 0 24 24" version="1.1" xmlns="http://www.w3.org/2000/svg" xmlns:xlink="http://www.w3.org/1999/xlink">
    <!-- Generator: Sketch 55.2 (78181) - https://sketchapp.com -->
    <title>jollycons-files-2/icons/svg/icon-files-2-bitmap</title>
    <desc>Created with Sketch.</desc>
    <g id="icons" stroke="none" stroke-width="1" fill="none" fill-rule="evenodd">
        <g id="icons---export" transform="translate(-60.000000, -138.000000)">
            <g id="row-2" transform="translate(60.000000, 138.000000)" fill="#000000" fill-rule="nonzero">
                <g id="icon---6">
                    <path d="M5,1 L15.5965861,1 C16.1296935,1 16.6407387,1.2128378 17.0162454,1.59125321 L20.4196593,5.02103078 C20.7913991,5.3956502 21,5.90201795 21,6.42977757 L21,20 C21,21.1045695 20.1045695,22 19,22 L5,22 C3.8954305,22 3,21.1045695 3,20 L3,3 C3,1.8954305 3.8954305,1 5,1 Z M14,3 L5,3 L5,20 L19,20 L19,8 L16,8 C14.8954305,8 14,7.1045695 14,6 L14,3 Z M16,3.40653885 L16,6 L18.573526,6 L16,3.40653885 Z M6.5,10 L8.5,10 C8.77614237,10 9,10.2238576 9,10.5 L9,13 L6.5,13 C6.22385763,13 6,12.7761424 6,12.5 L6,10.5 C6,10.2238576 6.22385763,10 6.5,10 Z M6.5,16 L9,16 L9,18.5 C9,18.7761424 8.77614237,19 8.5,19 L6.5,19 C6.22385763,19 6,18.7761424 6,18.5 L6,16.5 C6,16.2238576 6.22385763,16 6.5,16 Z M12.5,10 L14.5,10 C14.7761424,10 15,10.2238576 15,10.5 L15,13 L12,13 L12,10.5 C12,10.2238576 12.2238576,10 12.5,10 Z M12,16 L15,16 L15,18.5 C15,18.7761424 14.7761424,19 14.5,19 L12.5,19 C12.2238576,19 12,18.7761424 12,18.5 L12,16 Z M9,13 L12,13 L12,16 L9,16 L9,13 Z M15,13 L17.5,13 C17.7761424,13 18,13.2238576 18,13.5 L18,15.5 C18,15.7761424 17.7761424,16 17.5,16 L15,16 L15,13 Z" id="file-bitmap"></path>
                </g>
            </g>
            <g id="slices" transform="translate(60.000000, 58.000000)"></g>
        </g>
    </g>
</svg>