<?xml version="1.0" encoding="UTF-8"?>
<svg width="24px" height="24px" viewBox="0 0 24 24" version="1.1" xmlns="http://www.w3.org/2000/svg" xmlns:xlink="http://www.w3.org/1999/xlink">
    <!-- Generator: Sketch 55.2 (78181) - https://sketchapp.com -->
    <title>jollycons-files-1/icons/svg/icon-files-1-file-design1</title>
    <desc>Created with Sketch.</desc>
    <g id="icons" stroke="none" stroke-width="1" fill="none" fill-rule="evenodd">
        <g id="icons---export" transform="translate(-252.000000, -58.000000)">
            <g id="row-1" transform="translate(60.000000, 58.000000)" fill="#000000" fill-rule="nonzero">
                <g id="icon---4" transform="translate(192.000000, 0.000000)">
                    <path d="M5,1 L15.5965861,1 C16.1296935,1 16.6407387,1.2128378 17.0162454,1.59125321 L20.4196593,5.02103078 C20.7913991,5.3956502 21,5.90201795 21,6.42977757 L21,20 C21,21.1045695 20.1045695,22 19,22 L5,22 C3.8954305,22 3,21.1045695 3,20 L3,3 C3,1.8954305 3.8954305,1 5,1 Z M14,3 L5,3 L5,20 L19,20 L19,8 L16,8 C14.8954305,8 14,7.1045695 14,6 L14,3 Z M16,3.40653885 L16,6 L18.573526,6 L16,3.40653885 Z M10.524227,13.9877367 C10.5642339,13.8089933 10.6537893,13.6391039 10.7928932,13.5 L15.0355339,9.25735931 C15.4260582,8.86683502 16.0592232,8.86683502 16.4497475,9.25735931 C16.8402718,9.6478836 16.8402718,10.2810486 16.4497475,10.6715729 L12.2071068,14.9142136 C12.0285989,15.0927215 11.7993939,15.1896338 11.5658389,15.2049504 L11.5793946,15.3003067 C11.7642851,16.6009073 10.8598234,17.8051357 9.55922288,17.9900263 C9.51972658,17.995641 9.48009528,18.0002612 9.44036658,18.0038825 L7.26434344,18.2022282 C7.12684228,18.2147615 7.00521531,18.1134551 6.99268201,17.9759539 C6.99091524,17.9565709 6.99141803,17.9370479 6.99418016,17.9177816 L7.27107324,15.9864084 C7.45176851,14.7260302 8.58360685,13.8249685 9.85241681,13.9313891 L10.524227,13.9877367 Z" id="file-design1"></path>
                </g>
            </g>
            <g id="slices" transform="translate(60.000000, 58.000000)"></g>
        </g>
    </g>
</svg>