<?xml version="1.0" encoding="UTF-8"?>
<svg width="24px" height="24px" viewBox="0 0 24 24" version="1.1" xmlns="http://www.w3.org/2000/svg" xmlns:xlink="http://www.w3.org/1999/xlink">
    <!-- Generator: Sketch 55.2 (78181) - https://sketchapp.com -->
    <title>jollycons-files-1/icons/svg/icon-files-1-file-video2</title>
    <desc>Created with Sketch.</desc>
    <g id="icons" stroke="none" stroke-width="1" fill="none" fill-rule="evenodd">
        <g id="icons---export" transform="translate(-124.000000, -218.000000)">
            <g id="row-3" transform="translate(60.000000, 218.000000)" fill="#000000" fill-rule="nonzero">
                <g id="icon---12" transform="translate(64.000000, 0.000000)">
                    <path d="M5,1 L15.5965861,1 C16.1296935,1 16.6407387,1.2128378 17.0162454,1.59125321 L20.4196593,5.02103078 C20.7913991,5.3956502 21,5.90201795 21,6.42977757 L21,20 C21,21.1045695 20.1045695,22 19,22 L5,22 C3.8954305,22 3,21.1045695 3,20 L3,3 C3,1.8954305 3.8954305,1 5,1 Z M16,3.40653885 L16,6 L18.573526,6 L16,3.40653885 Z M14,3 L5,3 L5,20 L19,20 L19,8 L16,8 C14.8954305,8 14,7.1045695 14,6 L14,3 Z M10.4961389,10.3549365 L14.4805745,12.6317569 C14.9600919,12.9057668 15.1266887,13.5166215 14.8526787,13.9961389 C14.7640894,14.1511702 14.6356058,14.2796538 14.4805745,14.3682431 L10.4961389,16.6450635 C10.0166215,16.9190734 9.40576683,16.7524767 9.13175686,16.2729593 C9.04541532,16.1218616 9,15.9508473 9,15.7768203 L9,11.2231797 C9,10.6708949 9.44771525,10.2231797 10,10.2231797 C10.1740269,10.2231797 10.3450412,10.268595 10.4961389,10.3549365 Z" id="file-video2"></path>
                </g>
            </g>
            <g id="slices" transform="translate(60.000000, 58.000000)"></g>
        </g>
    </g>
</svg>