<?xml version="1.0" encoding="UTF-8"?>
<svg width="24px" height="24px" viewBox="0 0 24 24" version="1.1" xmlns="http://www.w3.org/2000/svg" xmlns:xlink="http://www.w3.org/1999/xlink">
    <!-- Generator: Sketch 55.2 (78181) - https://sketchapp.com -->
    <title>jollycons-files-1/icons/svg/icon-files-1-file-design2</title>
    <desc>Created with Sketch.</desc>
    <g id="icons" stroke="none" stroke-width="1" fill="none" fill-rule="evenodd">
        <g id="icons---export" transform="translate(-60.000000, -138.000000)">
            <g id="row-2" transform="translate(60.000000, 138.000000)" fill="#000000" fill-rule="nonzero">
                <g id="icon---6">
                    <path d="M5,1 L15.5965861,1 C16.1296935,1 16.6407387,1.2128378 17.0162454,1.59125321 L20.4196593,5.02103078 C20.7913991,5.3956502 21,5.90201795 21,6.42977757 L21,20 C21,21.1045695 20.1045695,22 19,22 L5,22 C3.8954305,22 3,21.1045695 3,20 L3,3 C3,1.8954305 3.8954305,1 5,1 Z M14,3 L5,3 L5,20 L19,20 L19,8 L16,8 C14.8954305,8 14,7.1045695 14,6 L14,3 Z M16,3.40653885 L16,6 L18.573526,6 L16,3.40653885 Z M11,9 C11,8.44771525 11.4477153,8 12,8 C12.5522847,8 13,8.44771525 13,9 L17,9 C17.5522847,9 18,9.44771525 18,10 L18,16 C18,16.5522847 17.5522847,17 17,17 L14.5814378,17 L14.9843382,17.8107719 C15.1993918,18.2435325 15.0229054,18.7686896 14.5901448,18.9837432 C14.1573842,19.1987967 13.6322271,19.0223104 13.4171735,18.5895498 L12.6272717,17 L11.3988189,17 L10.6089168,18.5895499 C10.3938632,19.0223104 9.86870606,19.1987967 9.43594552,18.9837431 C9.00318497,18.7686895 8.82669864,18.2435324 9.04175225,17.8107718 L9.44465269,17 L7,17 C6.44771525,17 6,16.5522847 6,16 L6,10 C6,9.44771525 6.44771525,9 7,9 L11,9 Z M8,11 L8,15 L16,15 L16,11 L8,11 Z" id="file-design2"></path>
                </g>
            </g>
            <g id="slices" transform="translate(60.000000, 58.000000)"></g>
        </g>
    </g>
</svg>