<?xml version="1.0" encoding="UTF-8"?>
<svg width="24px" height="24px" viewBox="0 0 24 24" version="1.1" xmlns="http://www.w3.org/2000/svg" xmlns:xlink="http://www.w3.org/1999/xlink">
    <!-- Generator: Sketch 55.2 (78181) - https://sketchapp.com -->
    <title>jollycons-files-1/icons/svg/icon-files-1-file-3d</title>
    <desc>Created with Sketch.</desc>
    <g id="icons" stroke="none" stroke-width="1" fill="none" fill-rule="evenodd">
        <g id="icons---export" transform="translate(-188.000000, -58.000000)">
            <g id="row-1" transform="translate(60.000000, 58.000000)" fill="#000000" fill-rule="nonzero">
                <g id="icon---3" transform="translate(128.000000, 0.000000)">
                    <path d="M11,13.2614379 L9,12.5061312 L9,14.9965116 L11,15.8081955 L11,13.2614379 L11,13.2614379 Z M13,13.2776671 L13,15.8081955 L15,14.9965116 L15,12.5717719 L13,13.2776671 Z M5,1 L15.5965861,1 C16.1296935,1 16.6407387,1.2128378 17.0162454,1.59125321 L20.4196593,5.02103078 C20.7913991,5.3956502 21,5.90201795 21,6.42977757 L21,20 C21,21.1045695 20.1045695,22 19,22 L5,22 C3.8954305,22 3,21.1045695 3,20 L3,3 C3,1.8954305 3.8954305,1 5,1 Z M14,3 L5,3 L5,20 L19,20 L19,8 L16,8 C14.8954305,8 14,7.1045695 14,6 L14,3 Z M16,3.40653885 L16,6 L18.573526,6 L16,3.40653885 Z M7,10.6698859 C7,10.2691211 7.23926455,9.90706613 7.60794476,9.7499442 L11.4511227,8.11208165 C11.8017827,7.96263945 12.1982173,7.96263945 12.5488773,8.11208165 L16.3920552,9.7499442 C16.7607354,9.90706613 17,10.2691211 17,10.6698859 L17,15.6698859 C17,16.0769583 16.7532451,16.4434037 16.3760525,16.5964842 L12.3760525,18.2198521 C12.1349023,18.3177209 11.8650977,18.3177209 11.6239475,18.2198521 L7.62394751,16.5964842 C7.2467549,16.4434037 7,16.0769583 7,15.6698859 L7,10.6698859 Z M10.1973667,10.8204507 L12.0116023,11.5056029 L13.8706741,10.849448 L12,10.0522153 L10.1973667,10.8204507 Z" id="file-3d"></path>
                </g>
            </g>
            <g id="slices" transform="translate(60.000000, 58.000000)"></g>
        </g>
    </g>
</svg>