<?xml version="1.0" encoding="UTF-8"?>
<svg width="24px" height="24px" viewBox="0 0 24 24" version="1.1" xmlns="http://www.w3.org/2000/svg" xmlns:xlink="http://www.w3.org/1999/xlink">
    <!-- Generator: Sketch 55.2 (78181) - https://sketchapp.com -->
    <title>jollycons-files-1/icons/svg/icon-files-1-file-vector</title>
    <desc>Created with Sketch.</desc>
    <g id="icons" stroke="none" stroke-width="1" fill="none" fill-rule="evenodd">
        <g id="icons---export" transform="translate(-252.000000, -138.000000)">
            <g id="row-2" transform="translate(60.000000, 138.000000)" fill="#000000" fill-rule="nonzero">
                <g id="icon---9" transform="translate(192.000000, 0.000000)">
                    <path d="M5,1 L15.5965861,1 C16.1296935,1 16.6407387,1.2128378 17.0162454,1.59125321 L20.4196593,5.02103078 C20.7913991,5.3956502 21,5.90201795 21,6.42977757 L21,20 C21,21.1045695 20.1045695,22 19,22 L5,22 C3.8954305,22 3,21.1045695 3,20 L3,3 C3,1.8954305 3.8954305,1 5,1 Z M16,3.40653885 L16,6 L18.573526,6 L16,3.40653885 Z M14,3 L5,3 L5,20 L19,20 L19,8 L16,8 C14.8954305,8 14,7.1045695 14,6 L14,3 Z M10.041709,14.5318345 C10.6251489,14.9894969 11,15.7009729 11,16.5 C11,17.8807119 9.88071187,19 8.5,19 C7.11928813,19 6,17.8807119 6,16.5 C6,15.2548567 6.91027891,14.2223203 8.10166745,14.0315603 C8.54673612,11.9449784 10.4005888,10.3800498 12.6199502,10.3800498 C12.7734701,10.3800498 12.9268945,10.3877019 13.0796525,10.4029777 L13.2449126,10.4195037 C13.6479899,9.57977081 14.5062886,9 15.5,9 C16.8807119,9 18,10.1192881 18,11.5 C18,12.8807119 16.8807119,14 15.5,14 C14.4451261,14 13.5428471,13.3466636 13.1757331,12.4225609 L12.880645,12.3930521 C12.7940168,12.3843892 12.7070106,12.3800498 12.6199502,12.3800498 C11.332792,12.3800498 10.262429,13.3082606 10.041709,14.5318345 L10.041709,14.5318345 Z M15.0000438,11.5066876 C15.0036232,11.7797476 15.2260903,12 15.5,12 C15.7761424,12 16,11.7761424 16,11.5 C16,11.2238576 15.7761424,11 15.5,11 C15.2263607,11 15.0040625,11.2198178 15.0000551,11.4925039 C15.0000847,11.4972254 15.000081,11.5019534 15.0000438,11.5066876 L15.0000438,11.5066876 Z M8.5,17 C8.77614237,17 9,16.7761424 9,16.5 C9,16.2238576 8.77614237,16 8.5,16 C8.22385763,16 8,16.2238576 8,16.5 C8,16.7761424 8.22385763,17 8.5,17 Z" id="file-vector"></path>
                </g>
            </g>
            <g id="slices" transform="translate(60.000000, 58.000000)"></g>
        </g>
    </g>
</svg>