<?xml version="1.0" encoding="UTF-8"?>
<svg width="24px" height="24px" viewBox="0 0 24 24" version="1.1" xmlns="http://www.w3.org/2000/svg" xmlns:xlink="http://www.w3.org/1999/xlink">
    <!-- Generator: Sketch 55.2 (78181) - https://sketchapp.com -->
    <title>jollycons-files-2/icons/svg/icon-files-2-web</title>
    <desc>Created with Sketch.</desc>
    <g id="icons" stroke="none" stroke-width="1" fill="none" fill-rule="evenodd">
        <g id="icons---export" transform="translate(-124.000000, -58.000000)">
            <g id="row-1" transform="translate(60.000000, 58.000000)" fill="#000000" fill-rule="nonzero">
                <g id="icon---2" transform="translate(64.000000, 0.000000)">
                    <path d="M5,1 L15.5965861,1 C16.1296935,1 16.6407387,1.2128378 17.0162454,1.59125321 L20.4196593,5.02103078 C20.7913991,5.3956502 21,5.90201795 21,6.42977757 L21,20 C21,21.1045695 20.1045695,22 19,22 L5,22 C3.8954305,22 3,21.1045695 3,20 L3,3 C3,1.8954305 3.8954305,1 5,1 Z M14,3 L5,3 L5,20 L19,20 L19,8 L16,8 C14.8954305,8 14,7.1045695 14,6 L14,3 Z M16,3.40653885 L16,6 L18.573526,6 L16,3.40653885 Z M12.5440638,12.0930935 L13.0277205,12.5767502 C13.8290693,11.7754015 15.1283124,11.7754015 15.9296611,12.5767502 L17.3806314,14.0277205 C18.1819802,14.8290693 18.1819802,16.1283124 17.3806314,16.9296611 L15.9296611,18.3806314 C15.1283124,19.1819802 13.8290693,19.1819802 13.0277205,18.3806314 L11.5767502,16.9296611 C10.7754015,16.1283124 10.7754015,14.8290693 11.5767502,14.0277205 L11.0930935,13.5440638 C10.2917447,14.3454125 8.99250164,14.3454125 8.19115287,13.5440638 L6.74018258,12.0930935 C5.93883381,11.2917447 5.93883381,9.99250164 6.74018258,9.19115287 L8.19115287,7.74018258 C8.99250164,6.93883381 10.2917447,6.93883381 11.0930935,7.74018258 L12.5440638,9.19115287 C13.3454125,9.99250164 13.3454125,11.2917447 12.5440638,12.0930935 L12.5440638,12.0930935 Z M8.23917147,10.653385 L9.65338504,12.0675986 L11.0675986,10.653385 L9.65338504,9.23917147 L8.23917147,10.653385 Z M12.9532167,15.3674302 L14.3674302,16.7816438 L15.7816438,15.3674302 L14.3674302,13.9532167 L12.9532167,15.3674302 Z" id="file-web"></path>
                </g>
            </g>
            <g id="slices" transform="translate(60.000000, 58.000000)"></g>
        </g>
    </g>
</svg>