<svg xmlns="http://www.w3.org/2000/svg" width="24" height="24" viewBox="0 0 24 24">
  <path d="M12,11 L17.1162598,11 C18.1103723,11 18.9162598,11.8058875 18.9162598,12.8 L18.9162598,12.8623421 C18.9162598,17.3041911 14.8689479,21 10.2857143,21 C5.80203212,21 2,17.1690151 2,12.7142857 C2,8.23339314 5.8270988,4.11641744 10.2640736,4.02037579 C10.2824576,4.01997787 10.2824576,4.01997787 10.3008445,4.01997787 C11.2392615,4.01997787 12,4.78071515 12,5.71913193 L12,11 Z M10,6.03548266 C6.7998112,6.29035923 4,9.40453938 4,12.7142857 C4,16.0678278 6.91001227,19 10.2857143,19 C13.7538105,19 16.8292892,16.2358149 16.9144483,13 L11.2,13 C10.5372583,13 10,12.4627417 10,11.8000002 L10,6.03548266 Z M13.0006838,9.49985473 L13.0006838,3.12952759 C13.0006838,2.50570978 13.5063936,2 14.1302183,2 C14.142444,2 14.142444,2 14.1546679,2.00026465 C17.9170485,2.08172327 20.9446995,5.13006357 20.9998807,8.89560905 C21.0086887,9.49665917 20.5285815,9.9910468 19.9275314,9.99985473 C19.9195576,9.99997158 19.9195576,9.99997158 19.9115832,9.99997158 L13.5006838,9.99985473 C13.2245448,9.99985007 13.0006838,9.77599381 13.0006838,9.49985473 L13.0006838,9.49985473 Z M15.0006507,4.098584 L15.0006507,7.99999602 L18.9006899,7.99999602 C18.5031812,6.0408735 16.9603778,4.49640506 15.0006507,4.098584 Z"/>
</svg>
