<svg xmlns="http://www.w3.org/2000/svg" width="24" height="24" viewBox="0 0 24 24">
  <path d="M13,8.82929429 L13,20 L15,20 C15.5522847,20 16,20.4477153 16,21 C16,21.5522847 15.5522847,22 15,22 L9,22 C8.44771525,22 8,21.5522847 8,21 C8,20.4477153 8.44771525,20 9,20 L11,20 L11,8.82929429 C10.4834989,8.64673735 10.0319161,8.32675264 9.68918715,7.91327566 L5.57154214,9.01659532 L7.93857855,15.4549344 C7.99202562,15.6003104 8.009607,15.7476492 7.99696446,15.8888656 C7.99897935,15.9256544 8,15.962708 8,16 L8,17 C8,18.6568542 6.65685425,20 5,20 L4,20 C2.34314575,20 1,18.6568542 1,17 L1,16 C1,15.962708 1.00102065,15.9256544 1.00303554,15.8888656 C0.990392999,15.7476492 1.00797438,15.6003104 1.06142145,15.4549344 L3.21960806,9.58466676 C2.81266834,9.54908213 2.45259319,9.2644448 2.34074174,8.8470095 C2.19779993,8.31354339 2.51438241,7.76520644 3.04784852,7.62226462 L9.00012215,6.02735771 C9.00004077,6.0182481 9,6.00912881 9,6 C9,4.69378117 9.83480763,3.58254212 11,3.17070571 L11,3 C11,2.44771525 11.4477153,2 12,2 C12.5522847,2 13,2.44771525 13,3 L13,3.17070571 C13.6864275,3.41332301 14.2581944,3.89866913 14.6121706,4.52361387 L21.4004392,2.70470277 C21.9339053,2.56176096 22.4822423,2.87834345 22.6251841,3.41180955 C22.7681259,3.94527565 22.4515434,4.49361261 21.9180773,4.63655442 L20.5651037,4.99908262 L22.9385786,11.4549344 C22.9920256,11.6003104 23.009607,11.7476492 22.9969645,11.8888656 C22.9989793,11.9256544 23,11.962708 23,12 L23,13 C23,14.6568542 21.6568542,16 20,16 L19,16 C17.3431458,16 16,14.6568542 16,13 L16,12 C16,11.962708 16.0010207,11.9256544 16.0030355,11.8888656 C15.990393,11.7476492 16.0079744,11.6003104 16.0614214,11.4549344 L18.2021168,5.63224304 L14.9582812,6.50142618 C14.7759608,7.58495435 14.0127845,8.47132633 13,8.82929429 L13,8.82929429 Z M3.72720563,14 L5.27279437,14 L4.5,11.8979993 L3.72720563,14 L3.72720563,14 Z M18.7272056,10 L20.2727944,10 L19.5,7.89799931 L18.7272056,10 L18.7272056,10 Z M18,12 L18,13 C18,13.5522847 18.4477153,14 19,14 L20,14 C20.5522847,14 21,13.5522847 21,13 L21,12 L18,12 Z M3,16 L3,17 C3,17.5522847 3.44771525,18 4,18 L5,18 C5.55228475,18 6,17.5522847 6,17 L6,16 L3,16 Z M12,7 C12.5522847,7 13,6.55228475 13,6 C13,5.44771525 12.5522847,5 12,5 C11.4477153,5 11,5.44771525 11,6 C11,6.55228475 11.4477153,7 12,7 Z"/>
</svg>
