<svg xmlns="http://www.w3.org/2000/svg" width="24" height="24" viewBox="0 0 24 24">
  <path d="M16.7935374,5.79224901 L17.0374411,1.94464396 C17.0680134,1.46236284 17.4837632,1.09618048 17.9660443,1.12675278 C18.4483255,1.15732508 18.8145078,1.57307492 18.7839355,2.05535604 L18.6537658,4.10879738 L20.3691649,2.39339828 C20.7108736,2.05168953 21.264893,2.05168953 21.6066017,2.39339828 C21.9483105,2.73510704 21.9483105,3.28912639 21.6066017,3.63083515 L19.9572877,5.28014914 L21.8777929,5.16213016 C22.3601322,5.13248942 22.775174,5.49947409 22.8048147,5.98181336 C22.8344555,6.46415263 22.4674708,6.87919444 21.9851315,6.90883517 L18.2775392,7.13667433 L11.7071068,13.7071068 C11.3165825,14.0976311 10.6834175,14.0976311 10.2928932,13.7071068 C9.90236893,13.3165825 9.90236893,12.6834175 10.2928932,12.2928932 L11.4180058,11.1677806 C11.3375199,11.1358896 11.2553609,11.1081976 11.1718456,11.0848577 C10.9875278,11.0333467 10.797416,11.0032464 10.6042985,10.9954975 C10.4831855,10.9906378 10.3610251,10.9945719 10.2383523,11.0074653 C8.86520416,11.151789 7.86904508,12.3819431 8.01336877,13.7550912 C8.15769246,15.1282394 9.38784647,16.1243985 10.7609947,15.9800748 C11.809979,15.8698221 12.6664759,15.1169515 12.9230228,14.1119387 C12.9418298,14.038263 12.9572477,13.9636919 12.9692107,13.8884095 C13.055886,13.3429686 13.5683175,12.9710655 14.1137585,13.0577408 C14.6591994,13.1444161 15.0311025,13.6568475 14.9444272,14.2022885 C14.9227886,14.3384587 14.8948977,14.4733566 14.8608823,14.6066109 C14.3990063,16.4159926 12.8578291,17.7707052 10.9700516,17.9691186 C8.49838485,18.2289013 6.28410762,16.4358149 6.02432497,13.9641482 C5.76454233,11.4924814 7.55762868,9.2782042 10.0292954,9.01842156 C10.2481066,8.99542358 10.4669344,8.98837635 10.6844843,8.99710558 C11.0330765,9.0110929 11.3769068,9.0655314 11.7101562,9.15866415 C12.0832864,9.26294233 12.4408191,9.41509315 12.774242,9.61067796 C12.8162807,9.63533775 12.8579103,9.66067301 12.8991144,9.68667204 L14.334559,8.25122741 C13.1381236,7.3755422 11.6769852,6.92939657 10.1598163,7.00890802 C6.57488518,7.1967863 3.82102975,10.2552526 4.00890802,13.8401837 C4.1967863,17.4251148 7.25525261,20.1789703 10.8401837,19.991092 C14.4251148,19.8032137 17.1789703,16.7447474 16.991092,13.1598163 C16.9720553,12.7965757 16.9235008,12.4390816 16.8463356,12.0895756 C16.7931641,11.8487445 16.7264633,11.6119676 16.6466322,11.3800767 C16.4668569,10.8578705 16.7444519,10.2888021 17.266658,10.1090267 C17.7888642,9.92925133 18.3579326,10.2068463 18.537708,10.7290525 C18.6423052,11.0328832 18.7296818,11.3430562 18.7993029,11.6583926 C18.9001639,12.1152249 18.9635506,12.5819237 18.988351,13.0551444 C19.234038,17.7431312 15.6328425,21.7426641 10.9448556,21.988351 C6.25686879,22.234038 2.25733593,18.6328425 2.01164895,13.9448556 C1.76596198,9.25686879 5.36715754,5.25733593 10.0551444,5.01164895 C12.1424818,4.90225623 14.1544017,5.55640907 15.7616326,6.82415384 L16.7935374,5.79224901 Z"/>
</svg>
