<svg xmlns="http://www.w3.org/2000/svg" width="24" height="24" viewBox="0 0 24 24">
  <path d="M14.8737565,13.459543 C15.2642808,13.8500673 15.2642808,14.4832323 14.8737565,14.8737565 C14.4832323,15.2642808 13.8500673,15.2642808 13.459543,14.8737565 L12.1666498,13.5808633 L10.5808633,15.1666498 L11.8737565,16.459543 C12.2642808,16.8500673 12.2642808,17.4832323 11.8737565,17.8737565 C11.4832323,18.2642808 10.8500673,18.2642808 10.459543,17.8737565 L9.16664977,16.5808633 L8.87375655,16.8737565 C8.48323226,17.2642808 7.85006728,17.2642808 7.45954299,16.8737565 C7.06901869,16.4832323 7.06901869,15.8500673 7.45954299,15.459543 L7.7524362,15.1666498 L6.45954299,13.8737565 C6.06901869,13.4832323 6.06901869,12.8500673 6.45954299,12.459543 C6.85006728,12.0690187 7.48323226,12.0690187 7.87375655,12.459543 L9.16664977,13.7524362 L10.7524362,12.1666498 L9.45954299,10.8737565 C9.06901869,10.4832323 9.06901869,9.85006728 9.45954299,9.45954299 C9.85006728,9.06901869 10.4832323,9.06901869 10.8737565,9.45954299 L12.1666498,10.7524362 L13.7524362,9.16664977 L12.459543,7.87375655 C12.0690187,7.48323226 12.0690187,6.85006728 12.459543,6.45954299 C12.8500673,6.06901869 13.4832323,6.06901869 13.8737565,6.45954299 L15.1666498,7.7524362 L15.459543,7.45954299 C15.8500673,7.06901869 16.4832323,7.06901869 16.8737565,7.45954299 C17.2642808,7.85006728 17.2642808,8.48323226 16.8737565,8.87375655 L16.5808633,9.16664977 L17.8737565,10.459543 C18.2642808,10.8500673 18.2642808,11.4832323 17.8737565,11.8737565 C17.4832323,12.2642808 16.8500673,12.2642808 16.459543,11.8737565 L15.1666498,10.5808633 L13.5808633,12.1666498 L14.8737565,13.459543 Z M19.4102872,1.00787135 C21.553651,1.05287953 23.2804369,2.77967097 23.3254285,4.92302608 C23.4549642,11.0918436 21.9862669,15.7612462 18.8737565,18.8737565 C15.7612439,21.9862692 11.0918367,23.4549664 4.92301234,23.3254282 C2.77964851,23.28042 1.0528626,21.5536286 1.00787106,19.4102735 C0.878335302,13.2414559 2.34703262,8.57205335 5.45954299,5.45954299 C8.57205567,2.34703031 13.2414628,0.878333126 19.4102872,1.00787135 Z M6.87375655,6.87375655 C4.1923906,9.55512249 2.88842185,13.7008065 3.00743042,19.3682931 C3.0299262,20.4399707 3.89331755,21.3033649 4.96500079,21.325869 C10.6324867,21.4448797 14.778175,20.140911 17.459543,17.459543 C20.1409089,14.778177 21.4448777,10.632493 21.3258691,4.96500648 C21.3033733,3.89332878 20.439982,3.02993466 19.3682987,3.00743054 C13.7008129,2.88841985 9.55512454,4.19238855 6.87375655,6.87375655 Z"/>
</svg>
