<svg xmlns="http://www.w3.org/2000/svg" width="24" height="24" viewBox="0 0 24 24">
  <path d="M11.9682927,17.6176033 L10.9595873,16.8550423 L10.7664183,17.5400908 L11.9682927,17.6176033 Z M9.24672674,15.5601541 L7.24694285,14.0483577 C7.00739634,13.8672653 6.78943925,13.6682077 6.59353004,13.4544838 C5.46715943,13.2627727 4.35931692,13.9571503 4.05768756,15.0828463 C4.02889867,15.190288 4.01079297,15.3003106 4.00363417,15.4113117 C3.94359505,16.3422515 4.64959957,17.1455987 5.58053939,17.2056378 L8.72554168,17.4084685 L9.24672674,15.5601541 Z M17.4295278,5.58053939 C17.3694887,4.64959957 16.5661415,3.94359505 15.6352017,4.00363417 C15.5242005,4.01079297 15.4141779,4.02889867 15.3067363,4.05768756 C14.1122969,4.37773665 13.4034634,5.60547219 13.7235125,6.79991165 C13.7350475,6.84296068 13.7478652,6.88565571 13.7619485,6.92793967 L13.7733774,6.96225373 C13.8617256,7.06107542 13.9460018,7.16351359 14.0259856,7.26931497 L15.6904608,9.47106028 L17.6400877,8.84538729 L17.4295278,5.58053939 Z M16.9683451,11.1614284 L17.8660389,12.3488856 L17.7728062,10.9032612 L16.9683451,11.1614284 Z M15.5158001,17.7922534 L17.7698813,15.5381722 L15.2437928,12.1966965 L12.1743244,15.266165 L15.5158001,17.7922534 Z M10.5635843,14.0484779 L14.0261057,10.5859565 L12.4305766,8.47541208 C12.3517288,8.37111323 12.2657714,8.27238476 12.1733181,8.17993145 C11.0643969,7.07101029 9.26648049,7.07101029 8.15755933,8.17993145 C8.06510602,8.27238476 7.97914864,8.37111323 7.9003008,8.47541208 C6.9545691,9.7264132 7.20203885,11.507217 8.45303997,12.4529487 L10.5635843,14.0484779 Z M6.30489184,7.26931497 C6.43927473,7.09155511 6.58577463,6.92328902 6.74334577,6.76571789 C8.08213156,5.42693209 10.0101447,5.03649344 11.6926108,5.59440193 C11.9349724,3.97644667 13.1079916,2.57628708 14.7890982,2.12583591 C15.0237561,2.06295952 15.264051,2.02341577 15.506483,2.00778059 C17.5397024,1.87665213 19.2942529,3.41860144 19.4253814,5.45182076 L19.9978942,14.3289486 L21.6098199,15.9408743 C23.171917,17.5029715 23.171917,20.0356314 21.6098199,21.5977286 C20.0477227,23.1598258 17.5150628,23.1598258 15.9529656,21.5977286 L14.1154736,19.7602365 L5.45182076,19.2014914 C3.41860144,19.0703629 1.87665213,17.3158124 2.00778059,15.2825931 C2.02341577,15.040161 2.06295952,14.7998661 2.12583591,14.5652083 C2.567717,12.9160856 3.92351287,11.755901 5.50229609,11.4835617 C5.11369686,10.0810984 5.35948572,8.51988541 6.30489184,7.26931497 Z M17.3671792,20.183515 C18.1482278,20.9645636 19.4145577,20.9645636 20.1956063,20.183515 C20.9766549,19.4024664 20.9766549,18.1361365 20.1956063,17.3550879 L19.5936429,16.7531245 L16.7652158,19.5815516 L17.3671792,20.183515 Z"/>
</svg>
