<svg xmlns="http://www.w3.org/2000/svg" width="24" height="24" viewBox="0 0 24 24">
  <path d="M11,14.9807706 C10.2146683,14.9505667 9.42957213,14.884788 8.64477821,14.78348 C8.22779183,16.3825848 7.46000298,17.8400071 6.42853355,19.0686248 C7.71477103,20.0838238 9.28474683,20.7554596 11,20.9450712 L11,14.9807706 Z M6.66199159,14.4518142 C5.4809434,14.2091405 4.30070833,13.8859738 3.12151446,13.4824696 C3.38085552,15.0472868 4.04388132,16.4757723 5,17.6573343 C5.75478851,16.7245742 6.32692174,15.6379314 6.66199159,14.4518142 Z M6.98758591,12.4768109 C6.99582767,12.318917 7,12.1599458 7,12 C7,9.85670336 6.25079987,7.88839179 5,6.34266566 C3.88188163,7.72442529 3.16459049,9.443872 3.02499535,11.324137 C4.34730868,11.8173355 5.66803963,12.2014698 6.98758591,12.4768109 Z M9,12 C9,12.2720355 8.99012506,12.5417646 8.9707141,12.8088484 C9.64738436,12.8942292 10.3237951,12.9509893 11,12.9791653 L11,3.05492878 C9.28474683,3.2445404 7.71477103,3.91617618 6.42853355,4.93137518 C8.03345027,6.84304516 9,9.30864769 9,12 Z M13,3.05492878 L13,12.9791653 C13.6762049,12.9509893 14.3526156,12.8942292 15.0292859,12.8088484 C15.0098749,12.5417646 15,12.2720355 15,12 C15,9.30864769 15.9665497,6.84304516 17.5714664,4.93137518 C16.285229,3.91617618 14.7152532,3.2445404 13,3.05492878 Z M17,12 C17,12.1599458 17.0041723,12.318917 17.0124141,12.4768109 C18.3319604,12.2014698 19.6526913,11.8173355 20.9750046,11.324137 C20.8354095,9.443872 20.1181184,7.72442529 19,6.34266566 C17.7492001,7.88839179 17,9.85670336 17,12 Z M17.3380084,14.4518142 C17.6730783,15.6379314 18.2452115,16.7245742 19,17.6573343 C19.9561187,16.4757723 20.6191445,15.0472868 20.8784855,13.4824696 C19.6992917,13.8859738 18.5190566,14.2091405 17.3380084,14.4518142 Z M15.3552218,14.78348 C14.5704279,14.884788 13.7853317,14.9505667 13,14.9807706 L13,20.9450712 C14.7152532,20.7554596 16.285229,20.0838238 17.5714664,19.0686248 C16.539997,17.8400071 15.7722082,16.3825848 15.3552218,14.78348 Z M12,23 C5.92486775,23 1,18.0751322 1,12 C1,5.92486775 5.92486775,1 12,1 C18.0751322,1 23,5.92486775 23,12 C23,18.0751322 18.0751322,23 12,23 Z"/>
</svg>
