<svg xmlns="http://www.w3.org/2000/svg" width="24" height="24" viewBox="0 0 24 24">
  <path d="M10,16 C10.5522847,16 11,16.4477153 11,17 C11,17.5522847 10.5522847,18 10,18 L8.03721299,18 C8.14984632,19.4804809 8.51787669,20.8088641 9.13741932,22.0000081 L14.8626031,22 C15.6185284,20.5467782 16,18.8896 16,17.0014719 C16,15.6721863 15.5967895,14.4176546 14.711014,12.6454519 C14.6316173,12.4865999 14.5493078,12.3247155 14.4409832,12.1137122 C14.3045108,11.8484055 14.2286117,11.7008475 14.1683743,11.5829997 C13.9418081,11.1397479 13.7859846,10.822299 13.6447827,10.5083901 C13.2241451,9.57326152 13,8.80455189 13,8 C13,7.52406213 13.0980301,7.10230326 13.2754563,6.61167894 C13.350517,6.40411886 13.6199168,5.74246376 13.6363079,5.7003697 C13.887255,5.05591155 14,4.57334359 14,4 C14,2.63213316 13.4732224,2 12,2 C10.5267776,2 10,2.63213316 10,4 C10,4.56471745 10.1071048,5.01287213 10.3580292,5.64283244 C10.3103243,5.52306651 10.6454107,6.33962264 10.7289483,6.5754306 C10.9033215,7.06764698 11,7.51140766 11,8 C11,8.80464672 10.7758062,9.57331111 10.355093,10.5082294 C10.2138826,10.8220303 10.0580683,11.1393249 9.83146835,11.5824536 C9.77128676,11.7001421 9.69533285,11.8477448 9.55886609,12.1129315 C9.45056879,12.3237961 9.36825091,12.4856341 9.28885438,12.6444272 C9.22842003,12.7652959 9.1702322,12.8837574 9.11426568,13 L10,13 C10.5522847,13 11,13.4477153 11,14 C11,14.5522847 10.5522847,15 10,15 L8.30861866,15 C8.205524,15.3435897 8.12904244,15.6740109 8.07800472,16 L10,16 Z M14.8626031,23.9999824 L9.13743491,23.9999824 C8.39137664,24 7.70733647,23.5847514 7.36307582,22.9228701 C6.45435861,21.175755 6,19.2014609 6,16.9999876 C6,12.9999905 9,9.99999268 9,7.99999414 C9,7.02111102 8,5.99999561 8,3.99999707 C8,1.99999854 9,1.48492325e-14 12,1.42108547e-14 C15,1.42108547e-14 16,1.99999854 16,3.99999707 C16,5.99999561 15,7.13620108 15,7.99999414 C15,9.99999268 18,13.0029342 18,17.0014594 C18,19.2021307 17.5456381,21.1759555 16.6369143,22.9229339 C16.292638,23.5847672 15.608626,23.9999824 14.8626031,23.9999824 Z"/>
</svg>
