<svg xmlns="http://www.w3.org/2000/svg" width="24" height="24" viewBox="0 0 24 24">
  <path d="M15,8 L15,7 C15,6.44771525 14.5522847,6 14,6 L8,6 C7.44771525,6 7,5.55228475 7,5 C7,4.44771525 7.44771525,4 8,4 L14,4 C15.6568542,4 17,5.34314575 17,7 L17,8 C19.7614237,8 22,10.2385763 22,13 L22,15 C22,17.7614237 19.7614237,20 17,20 L7,20 C4.23857625,20 2,17.7614237 2,15 L2,13 C2,10.2385763 4.23857625,8 7,8 L15,8 Z M20,13 C20,11.3431458 18.6568542,10 17,10 L7,10 C5.34314575,10 4,11.3431458 4,13 L20,13 Z M20,15 L4,15 C4,16.6568542 5.34314575,18 7,18 L17,18 C18.6568542,18 20,16.6568542 20,15 Z"/>
</svg>
