<svg xmlns="http://www.w3.org/2000/svg" width="24" height="24" viewBox="0 0 24 24">
  <path d="M8.6035113,16.5336671 C8.01293842,16.4804869 7.42921431,16.692106 7.00992655,17.1113938 L4.84314575,19.2781746 C4.45262146,19.6686989 3.81945648,19.6686989 3.42893219,19.2781746 L2.72182541,18.5710678 C2.33130112,18.1805435 2.33130112,17.5473785 2.72182541,17.1568542 L4.89191079,14.9867689 C5.30930045,14.5693792 5.52099411,13.9889279 5.47031116,13.4008297 L5.2371627,10.6954979 C4.8236338,8.3648058 5.51725272,5.87614556 7.31801948,4.0753788 C10.2469517,1.14644661 14.995689,1.14644661 17.9246212,4.0753788 C20.8535534,7.00431099 20.8535534,11.7530483 17.9246212,14.6819805 C16.1724958,16.4341059 13.769137,17.1380871 11.4936974,16.793924 L8.6035113,16.5336671 Z M7.20222528,10.3235456 L11.6764544,14.7977747 C13.4195489,15.1009108 15.223975,14.5541996 16.5104076,13.267767 C18.6582912,11.1198833 18.6582912,7.63747596 16.5104076,5.48959236 C14.362524,3.34170876 10.8801167,3.34170876 8.73223305,5.48959236 C7.44580043,6.77602498 6.89908915,8.58045111 7.20222528,10.3235456 Z M19,23 C17.3431458,23 16,21.6568542 16,20 C16,18.3431458 17.3431458,17 19,17 C20.6568542,17 22,18.3431458 22,20 C22,21.6568542 20.6568542,23 19,23 Z M19,21 C19.5522847,21 20,20.5522847 20,20 C20,19.4477153 19.5522847,19 19,19 C18.4477153,19 18,19.4477153 18,20 C18,20.5522847 18.4477153,21 19,21 Z"/>
</svg>
