<svg xmlns="http://www.w3.org/2000/svg" width="24" height="24" viewBox="0 0 24 24">
  <path fill-rule="evenodd" d="M3.049,11.055 C3.49,6.84 6.839,3.491 11.054,3.051 C11.55,8.286 15.714,12.449 20.949,12.946 C20.509,17.161 17.16,20.51 12.945,20.95 C12.448,15.714 8.285,11.552 3.049,11.055 Z M10.931,20.931 C6.816,20.444 3.556,17.183 3.068,13.068 C7.183,13.555 10.444,16.816 10.931,20.931 Z M13.067,3.069 C17.182,3.557 20.443,6.817 20.93,10.933 C16.815,10.445 13.554,7.184 13.067,3.069 Z M1,12 C1,18.075 5.924,23 12,23 C18.075,23 23,18.075 23,12 C23,5.925 18.075,1 12,1 C5.924,1 1,5.925 1,12 Z"/>
</svg>
