<?xml version="1.0" encoding="UTF-8"?>
<svg width="24px" height="24px" viewBox="0 0 24 24" version="1.1" xmlns="http://www.w3.org/2000/svg" xmlns:xlink="http://www.w3.org/1999/xlink">
    <!-- Generator: Sketch 55.2 (78181) - https://sketchapp.com -->
    <title>jollycons-maps-and-navigation/icons/svg/icon-maps-and-navigation-target</title>
    <desc>Created with Sketch.</desc>
    <g id="icons" stroke="none" stroke-width="1" fill="none" fill-rule="evenodd">
        <g id="icons---export" transform="translate(-124.000000, -138.000000)">
            <g id="row-2" transform="translate(60.000000, 138.000000)" fill="#000000" fill-rule="nonzero">
                <g id="icon---7" transform="translate(64.000000, 0.000000)">
                    <path d="M21,11 L22,11 C22.5522847,11 23,11.4477153 23,12 C23,12.5522847 22.5522847,13 22,13 L21,13 C20.9816247,13 20.9633652,12.9995044 20.9452341,12.9985258 C20.4846485,17.1713276 17.1713276,20.4846485 12.9985258,20.9452341 C12.9995044,20.9633652 13,20.9816247 13,21 L13,22 C13,22.5522847 12.5522847,23 12,23 C11.4477153,23 11,22.5522847 11,22 L11,21 C11,20.9816247 11.0004956,20.9633652 11.0014742,20.9452341 C6.82867236,20.4846485 3.51535152,17.1713276 3.05476594,12.9985258 C3.03663481,12.9995044 3.01837528,13 3,13 L2,13 C1.44771525,13 1,12.5522847 1,12 C1,11.4477153 1.44771525,11 2,11 L3,11 C3.01837528,11 3.03663481,11.0004956 3.05476594,11.0014742 C3.51535152,6.82867236 6.82867236,3.51535152 11.0014742,3.05476594 C11.0004956,3.03663481 11,3.01837528 11,3 L11,2 C11,1.44771525 11.4477153,1 12,1 C12.5522847,1 13,1.44771525 13,2 L13,3 C13,3.01837528 12.9995044,3.03663481 12.9985258,3.05476594 C17.1713276,3.51535152 20.4846485,6.82867236 20.9452341,11.0014742 C20.9633652,11.0004956 20.9816247,11 21,11 Z M12,19 C15.8659932,19 19,15.8659932 19,12 C19,8.13400675 15.8659932,5 12,5 C8.13400675,5 5,8.13400675 5,12 C5,15.8659932 8.13400675,19 12,19 Z M12,16 C9.790861,16 8,14.209139 8,12 C8,9.790861 9.790861,8 12,8 C14.209139,8 16,9.790861 16,12 C16,14.209139 14.209139,16 12,16 Z M12,14 C13.1045695,14 14,13.1045695 14,12 C14,10.8954305 13.1045695,10 12,10 C10.8954305,10 10,10.8954305 10,12 C10,13.1045695 10.8954305,14 12,14 Z" id="target"></path>
                </g>
            </g>
            <g id="slices" transform="translate(60.000000, 58.000000)"></g>
        </g>
    </g>
</svg>