<?xml version="1.0" encoding="UTF-8"?>
<svg width="24px" height="24px" viewBox="0 0 24 24" version="1.1" xmlns="http://www.w3.org/2000/svg" xmlns:xlink="http://www.w3.org/1999/xlink">
    <!-- Generator: Sketch 55.2 (78181) - https://sketchapp.com -->
    <title>jollycons-maps-and-navigation/icons/svg/icon-maps-and-navigation-pushpin</title>
    <desc>Created with Sketch.</desc>
    <g id="icons" stroke="none" stroke-width="1" fill="none" fill-rule="evenodd">
        <g id="icons---export" transform="translate(-316.000000, -218.000000)">
            <g id="row-3" transform="translate(60.000000, 218.000000)" fill="#000000">
                <g id="icon---15" transform="translate(256.000000, 0.000000)">
                    <path d="M13.3609973,7.39636202 L9.58578644,11.1715729 L13.8284271,15.4142136 L17.6035626,11.6390781 L13.3609973,7.39636202 Z M19.8120129,12.2590549 L15.2430167,16.8280511 C15.4622813,18.3638344 14.9601567,19.9393382 13.8284271,21.0710678 C13.4379028,21.4615921 12.8047379,21.4615921 12.4142136,21.0710678 L8.87867966,17.5355339 L4.63603897,21.7781746 C4.24551468,22.1686989 3.6123497,22.1686989 3.22182541,21.7781746 C2.83130112,21.3876503 2.83130112,20.7544853 3.22182541,20.363961 L7.46446609,16.1213203 L3.92893219,12.5857864 C3.5384079,12.1952621 3.5384079,11.5620972 3.92893219,11.1715729 C5.06066181,10.0398433 6.63616557,9.53771867 8.17194892,9.75698327 L12.519961,5.40897121 L13.1948471,2.33576066 C13.3643417,1.56393758 14.3199135,1.28437956 14.8786797,1.84314575 L23.0104076,9.97487373 C23.5684839,10.53295 23.2904102,11.4872838 22.5199087,11.6582392 L19.8120129,12.2590549 Z M14.7564087,4.54929506 L14.5017928,5.70872064 L19.1501676,10.3572675 L20.3075754,10.1004617 L14.7564087,4.54929506 Z M12.4142136,16.8284271 L8.17157288,12.5857864 C7.6481142,12.0623278 6.90668272,11.889691 6.23944913,12.0678763 L12.9321237,18.7605509 C13.110309,18.0933173 12.9376722,17.3518858 12.4142136,16.8284271 Z" id="pushpin"></path>
                </g>
            </g>
            <g id="slices" transform="translate(60.000000, 58.000000)"></g>
        </g>
    </g>
</svg>