<svg xmlns="http://www.w3.org/2000/svg" width="24" height="24" viewBox="0 0 24 24">
  <path d="M18,15 C18.8884998,15 19.686786,15.3862506 20.2361065,16 L21.9899853,16 L21.9964573,13 L17,13 C15.8954305,13 15,12.1045695 15,11 L2,11 L2,16 L3.76389349,16 C4.31321405,15.3862506 5.11150019,15 6,15 C6.88849981,15 7.68678595,15.3862506 8.23610651,16 L15.7638935,16 C16.313214,15.3862506 17.1115002,15 18,15 Z M9,18 C9,19.6568542 7.65685425,21 6,21 C4.34314575,21 3,19.6568542 3,18 L2,18 C0.8954305,18 5.7935996e-16,17.1045695 4.4408921e-16,16 L0,5 C-3.57315355e-16,3.8954305 0.8954305,3 2,3 L20.0827173,3 C20.9736859,3 21.7572122,3.58936477 22.0042816,4.44539147 L24,11.3600006 L23.9899806,16.0043147 C23.9876013,17.107197 23.0928702,18 21.9899853,18 L21,18 C21,19.6568542 19.6568542,21 18,21 C16.3431458,21 15,19.6568542 15,18 L9,18 Z M17,11 L21.814458,11 L20.0827173,5 L17,5 L17,11 Z M15,5 L12,5 L12,9 L15,9 L15,5 Z M7,5 L7,9 L10,9 L10,5 L7,5 Z M5,5 L2,5 L2,9 L5,9 L5,5 Z M6,19 C6.55228475,19 7,18.5522847 7,18 C7,17.4477153 6.55228475,17 6,17 C5.44771525,17 5,17.4477153 5,18 C5,18.5522847 5.44771525,19 6,19 Z M18,19 C18.5522847,19 19,18.5522847 19,18 C19,17.4477153 18.5522847,17 18,17 C17.4477153,17 17,17.4477153 17,18 C17,18.5522847 17.4477153,19 18,19 Z"/>
</svg>
