<svg xmlns="http://www.w3.org/2000/svg" width="24" height="24" viewBox="0 0 24 24">
  <path d="M12.0086499,8 L12.0086499,9 C12.0086499,10.6568542 10.6655042,12 9.00864991,12 L6.96455557,12 C6.95525735,12.0650049 6.94417292,12.1294336 6.93135361,12.1932348 L7.31978523,12.3130555 C8.15966922,12.5721372 8.89083751,13.1006393 9.40028088,13.8168766 L10.9530871,16 L19,16 C20.1045695,16 21,15.1045695 21,14 L21,13 L17,13 C15.8954305,13 15,12.1045695 15,11 L15,8 L12.0086499,8 Z M17,11 L20.5286694,11 C20.2761382,10.5269248 19.928032,10.1036753 19.4987802,9.76027385 L17.2984379,8 L17,8 L17,11 Z M3.5,15 C1.56700338,15 0,13.4329966 0,11.5 C0,9.56700338 1.56700338,8 3.5,8 C4.89619798,8 6.10145245,8.81752633 6.66318442,10 L9.00864991,10 C9.56093466,10 10.0086499,9.55228475 10.0086499,9 L10.0086499,8 C10.0086499,6.89831523 10.8994094,6.0046785 12,6.00001831 L12,4 L2,4 C1.44771525,4 1,3.55228475 1,3 C1,2.44771525 1.44771525,2 2,2 L23,2 C23.5522847,2 24,2.44771525 24,3 C24,3.55228475 23.5522847,4 23,4 L14,4 L14,6 L18,6 L20.7481703,8.19853623 C22.1714617,9.33716935 23,11.0610468 23,12.8837491 L23,14 C23,15.8638394 21.7252272,17.4299397 20,17.8739825 L20,20 L22,20 C22.5522847,20 23,20.4477153 23,21 C23,21.5522847 22.5522847,22 22,22 L9,22 C8.44771525,22 8,21.5522847 8,21 C8,20.4477153 8.44771525,20 9,20 L11,20 L11,18 C10.3057768,18 9.69849434,17.6867151 9.32330438,17.1592275 L7.77049819,14.9761041 C7.51577651,14.6179855 7.15019236,14.3537344 6.73025037,14.2241936 L5.96236379,13.9873211 C5.33000157,14.6133778 4.46015102,15 3.5,15 Z M13,18 L13,20 L18,20 L18,18 L13,18 Z M3.5,13 C4.32842712,13 5,12.3284271 5,11.5 C5,10.6715729 4.32842712,10 3.5,10 C2.67157288,10 2,10.6715729 2,11.5 C2,12.3284271 2.67157288,13 3.5,13 Z"/>
</svg>
