<svg xmlns="http://www.w3.org/2000/svg" width="24" height="24" viewBox="0 0 24 24">
  <path d="M11,21 L11,18 C11,17.4477153 11.4477153,17 12,17 C12.5522847,17 13,17.4477153 13,18 L13,21 L20.4745842,21 L16.7790952,4 L13,4 L13,6 C13,6.55228475 12.5522847,7 12,7 C11.4477153,7 11,6.55228475 11,6 L11,4 L7.22094284,4 L3.52545386,21 L11,21 Z M7.22094284,2 L16.7790952,2 C17.7199526,2 18.5335943,2.65577321 18.7334518,3.57515862 L22.4289408,20.5751586 C22.6635742,21.65452 21.9787869,22.7197232 20.8994256,22.9543566 C20.759848,22.9846982 20.6174216,23 20.4745842,23 L3.52545386,23 C2.42088436,23 1.52545386,22.1045695 1.52545386,21 C1.52545386,20.8571626 1.54075562,20.7147362 1.57109723,20.5751586 L5.26658622,3.57515862 C5.46644379,2.65577321 6.28008547,2 7.22094284,2 Z M12,10 C12.5522847,10 13,10.4477153 13,11 L13,13 C13,13.5522847 12.5522847,14 12,14 C11.4477153,14 11,13.5522847 11,13 L11,11 C11,10.4477153 11.4477153,10 12,10 Z"/>
</svg>
