<svg xmlns="http://www.w3.org/2000/svg" width="24" height="24" viewBox="0 0 24 24">
  <path d="M9,18 C9,19.6568542 7.65685425,21 6,21 C4.34314575,21 3,19.6568542 3,18 L2,18 C0.8954305,18 1.3527075e-16,17.1045695 0,16 L4.4408921e-16,12.4589137 C-4.83941396e-17,11.5896524 0.56148288,10.8199251 1.38921679,10.55446 L2.96789521,10.0481572 L4.49555145,6.25315171 C4.80034447,5.4959845 5.53466154,5 6.35087288,5 L9,5 L10.0364668,3.4452998 C10.2219326,3.16710114 10.5341639,3 10.8685171,3 L11.1314829,3 C11.4658361,3 11.7780674,3.16710114 11.9635332,3.4452998 L13,5 L14.6459341,5 C15.4637433,5 16.1991608,5.49790189 16.5028875,6.25721865 L18,10 L22.328798,10.7214663 C23.2931739,10.8821957 24,11.7165759 24,12.6942542 L24,16 C24,17.1045695 23.1045695,18 22,18 L21,18 C21,19.6568542 19.6568542,21 18,21 C16.3431458,21 15,19.6568542 15,18 L9,18 Z M15.7638935,16 C16.313214,15.3862506 17.1115002,15 18,15 C18.8884998,15 19.686786,15.3862506 20.2361065,16 L22,16 L22,12.6942542 L17.8344749,12 L3.43091669,12 L2,12.4589137 L2,16 L3.76389349,16 C4.31321405,15.3862506 5.11150019,15 6,15 C6.88849981,15 7.68678595,15.3862506 8.23610651,16 L15.7638935,16 Z M5.14324124,10 L10,10 L10,7 L6.35087288,7 L5.14324124,10 Z M14.6459341,7 L12,7 L12,10 L15.8459341,10 L14.6459341,7 Z M18,19 C18.5522847,19 19,18.5522847 19,18 C19,17.4477153 18.5522847,17 18,17 C17.4477153,17 17,17.4477153 17,18 C17,18.5522847 17.4477153,19 18,19 Z M6,19 C6.55228475,19 7,18.5522847 7,18 C7,17.4477153 6.55228475,17 6,17 C5.44771525,17 5,17.4477153 5,18 C5,18.5522847 5.44771525,19 6,19 Z"/>
</svg>
