<svg xmlns="http://www.w3.org/2000/svg" width="24" height="24" viewBox="0 0 24 24">
  <path d="M6,15 C6.88849981,15 7.68678595,15.3862506 8.23610651,16 L15.7638935,16 C16.313214,15.3862506 17.1115002,15 18,15 C18.8884998,15 19.686786,15.3862506 20.2361065,16 L21.9894217,16 L21.9987692,11.0145888 L21.9880399,11 L16,11 C14.8954305,11 14,10.1045695 14,9 L14,5 L2,5 L2,16 L3.76389349,16 C4.31321405,15.3862506 5.11150019,15 6,15 Z M3,18 L2,18 C0.8954305,18 5.7935996e-16,17.1045695 4.4408921e-16,16 L0,5 C-1.3527075e-16,3.8954305 0.8954305,3 2,3 L17.5753563,3 C18.2114757,3 18.8096586,3.30260618 19.1865406,3.81505895 L24,10.3600006 L23.9894181,16.0037499 C23.9873499,17.1068533 23.092527,18 21.9894217,18 L21,18 C21,19.6568542 19.6568542,21 18,21 C16.3431458,21 15,19.6568542 15,18 L9,18 C9,19.6568542 7.65685425,21 6,21 C4.34314575,21 3,19.6568542 3,18 Z M17.5753563,5 L16,5 L16,9 L20.5171454,9 L17.5753563,5 Z M18,19 C18.5522847,19 19,18.5522847 19,18 C19,17.4477153 18.5522847,17 18,17 C17.4477153,17 17,17.4477153 17,18 C17,18.5522847 17.4477153,19 18,19 Z M6,19 C6.55228475,19 7,18.5522847 7,18 C7,17.4477153 6.55228475,17 6,17 C5.44771525,17 5,17.4477153 5,18 C5,18.5522847 5.44771525,19 6,19 Z"/>
</svg>
