<svg xmlns="http://www.w3.org/2000/svg" width="24" height="24" viewBox="0 0 24 24">
  <path fill-rule="evenodd" d="M11.422,17 L18.239,17 C16.991,18.555 15.175,19.628 13.105,19.915 L11.422,17 Z M7.381,14 L10.786,19.898 C8.725,19.584 6.925,18.488 5.697,16.916 L7.381,14 Z M12.577,7 L5.76,7 C7.008,5.445 8.824,4.372 10.894,4.085 L12.577,7 Z M16.618,10 L13.213,4.102 C15.274,4.416 17.074,5.512 18.302,7.084 L16.618,10 Z M19.448,9.098 C19.8,9.998 20,10.975 20,12 C20,13.061 19.788,14.073 19.413,15 L16.041,15 L19.448,9.098 Z M4.586,9 L7.958,9 L4.55,14.902 C4.199,14.001 4,13.025 4,12 C4,10.938 4.211,9.927 4.586,9 Z M8.536,12 L10.268,9 L13.731,9 L15.463,12 L13.731,15 L10.268,15 L8.536,12 Z M2,12 C2,17.523 6.477,22 12,22 C17.522,22 22,17.523 22,12 C22,6.477 17.522,2 12,2 C6.477,2 2,6.477 2,12 Z"/>
</svg>
