<svg xmlns="http://www.w3.org/2000/svg" width="24" height="24" viewBox="0 0 24 24">
  <path d="M4.89854442,15.687242 L11,9.58578644 L11,7.41421356 L4.28614081,14.1280727 C4.43622528,14.6733197 4.6425715,15.1952545 4.89854442,15.687242 Z M11,4.58578644 L11,4.06189375 C7.19170492,4.53678143 4.21468842,7.68842883 4.0111129,11.5746735 L11,4.58578644 Z M7.19155359,18.3942329 L11,14.5857864 L11,12.4142136 L6.05779314,17.3564204 C6.40140026,17.7373618 6.78111856,18.0850974 7.19155359,18.3942329 Z M11,19.9381062 L11,17.4142136 L8.99696135,19.4172522 C9.62854196,19.6732128 10.3002378,19.8508471 11,19.9381062 Z M13,19.9381062 C16.9463116,19.4460082 20,16.0796177 20,12 C20,7.92038235 16.9463116,4.55399184 13,4.06189375 L13,19.9381062 Z M12,22 C6.4771525,22 2,17.5228475 2,12 C2,6.4771525 6.4771525,2 12,2 C17.5228475,2 22,6.4771525 22,12 C22,17.5228475 17.5228475,22 12,22 Z"/>
</svg>
