<svg xmlns="http://www.w3.org/2000/svg" width="24" height="24" viewBox="0 0 24 24">
  <path d="M18,5 L6,5 C5.44771525,5 5,5.44771525 5,6 L5,16.952728 C8.13300921,16.647264 10.2532964,14.8662308 11.034556,11.7500132 C11.9966953,7.91231923 14.6796456,5.5935825 18.4355166,5.09956532 C18.3038658,5.03577167 18.1561104,5 18,5 Z M19,7.04708116 C15.8690179,7.35120247 13.7547592,9.12421953 12.9745176,12.2363764 C12.0115228,16.0774824 9.32295874,18.4046251 5.56400728,18.9002038 C5.69577793,18.964142 5.84370143,19 6,19 L18,19 C18.5522847,19 19,18.5522847 19,18 L19,7.04708116 Z M6,3 L18,3 C19.6568542,3 21,4.34314575 21,6 L21,18 C21,19.6568542 19.6568542,21 18,21 L6,21 C4.34314575,21 3,19.6568542 3,18 L3,6 C3,4.34314575 4.34314575,3 6,3 Z"/>
</svg>
