<svg xmlns="http://www.w3.org/2000/svg" width="24" height="24" viewBox="0 0 24 24">
  <path d="M5,9 C5,9.55228475 4.55228475,10 4,10 C3.44771525,10 3,9.55228475 3,9 L3,6 C3,4.34314575 4.34314575,3 6,3 L18,3 C19.6568542,3 21,4.34314575 21,6 L21,9 C21,9.55228475 20.5522847,10 20,10 C19.4477153,10 19,9.55228475 19,9 L19,6 C19,5.44771525 18.5522847,5 18,5 L6,5 C5.44771525,5 5,5.44771525 5,6 L5,9 Z M2,13 C1.44771525,13 1,12.5522847 1,12 C1,11.4477153 1.44771525,11 2,11 L22,11 C22.5522847,11 23,11.4477153 23,12 C23,12.5522847 22.5522847,13 22,13 L2,13 Z M3,15 C3,14.4477153 3.44771525,14 4,14 C4.55228475,14 5,14.4477153 5,15 C5,15.5522847 4.55228475,16 4,16 C3.44771525,16 3,15.5522847 3,15 Z M3,18 C3,17.4477153 3.44771525,17 4,17 C4.55228475,17 5,17.4477153 5,18 C5,18.5522847 4.55228475,19 4,19 C3.44771525,19 3,18.5522847 3,18 Z M5,20 C5,19.4477153 5.44771525,19 6,19 C6.55228475,19 7,19.4477153 7,20 C7,20.5522847 6.55228475,21 6,21 C5.44771525,21 5,20.5522847 5,20 Z M8,20 C8,19.4477153 8.44771525,19 9,19 C9.55228475,19 10,19.4477153 10,20 C10,20.5522847 9.55228475,21 9,21 C8.44771525,21 8,20.5522847 8,20 Z M11,20 C11,19.4477153 11.4477153,19 12,19 C12.5522847,19 13,19.4477153 13,20 C13,20.5522847 12.5522847,21 12,21 C11.4477153,21 11,20.5522847 11,20 Z M14,20 C14,19.4477153 14.4477153,19 15,19 C15.5522847,19 16,19.4477153 16,20 C16,20.5522847 15.5522847,21 15,21 C14.4477153,21 14,20.5522847 14,20 Z M17,20 C17,19.4477153 17.4477153,19 18,19 C18.5522847,19 19,19.4477153 19,20 C19,20.5522847 18.5522847,21 18,21 C17.4477153,21 17,20.5522847 17,20 Z M19,18 C19,17.4477153 19.4477153,17 20,17 C20.5522847,17 21,17.4477153 21,18 C21,18.5522847 20.5522847,19 20,19 C19.4477153,19 19,18.5522847 19,18 Z M19,15 C19,14.4477153 19.4477153,14 20,14 C20.5522847,14 21,14.4477153 21,15 C21,15.5522847 20.5522847,16 20,16 C19.4477153,16 19,15.5522847 19,15 Z"/>
</svg>
