<svg xmlns="http://www.w3.org/2000/svg" width="24" height="24" viewBox="0 0 24 24">
  <path d="M6,3 L18,3 C19.6568542,3 21,4.34314575 21,6 L21,18 C21,19.6568542 19.6568542,21 18,21 L6,21 C4.34314575,21 3,19.6568542 3,18 L3,6 C3,4.34314575 4.34314575,3 6,3 Z M6,5 C5.44771525,5 5,5.44771525 5,6 L5,18 C5,18.5522847 5.44771525,19 6,19 L18,19 C18.5522847,19 19,18.5522847 19,18 L19,6 C19,5.44771525 18.5522847,5 18,5 L6,5 Z M8,17 C8,17.5522847 7.55228475,18 7,18 C6.44771525,18 6,17.5522847 6,17 L6,15 C6,14.4477153 6.44771525,14 7,14 C7.55228475,14 8,14.4477153 8,15 L8,17 Z M11.3333333,17 C11.3333333,17.5522847 10.8856181,18 10.3333333,18 C9.78104858,18 9.33333333,17.5522847 9.33333333,17 L9.33333333,9 C9.33333333,8.44771525 9.78104858,8 10.3333333,8 C10.8856181,8 11.3333333,8.44771525 11.3333333,9 L11.3333333,17 Z M14.6666667,17 C14.6666667,17.5522847 14.2189514,18 13.6666667,18 C13.1143819,18 12.6666667,17.5522847 12.6666667,17 L12.6666667,13 C12.6666667,12.4477153 13.1143819,12 13.6666667,12 C14.2189514,12 14.6666667,12.4477153 14.6666667,13 L14.6666667,17 Z M18,17 C18,17.5522847 17.5522847,18 17,18 C16.4477153,18 16,17.5522847 16,17 L16,16 C16,15.4477153 16.4477153,15 17,15 C17.5522847,15 18,15.4477153 18,16 L18,17 Z"/>
</svg>
