<svg xmlns="http://www.w3.org/2000/svg" width="24" height="24" viewBox="0 0 24 24">
  <path d="M13,18.1722641 L17.7345464,15.8472617 L16.9598529,14.415457 L13,16.33068 L13,18.1722641 Z M13,14.1090345 L16.0071261,12.6546075 L15.2458149,11.2475364 L13,12.3220894 L13,14.1090345 Z M14.2928969,9.48633355 L13,7.09677465 L13,10.1049447 L14.2928969,9.48633355 Z M11,7.3156429 L4.67805119,19 L11,19 L11,7.3156429 Z M15.8517289,19 L19.4403699,19 L18.6870308,17.6076631 L15.8517289,19 Z M12.9387255,2.78070777 L21.997936,19.5241288 C22.3584382,20.1904164 21.8759836,21 21.1184211,21 L3,21 C2.24243745,21 1.75998282,20.1904164 2.12048501,19.5241288 L11.1796955,2.78070777 C11.5578097,2.08186934 12.5606114,2.08186934 12.9387255,2.78070777 Z"/>
</svg>
