<svg xmlns="http://www.w3.org/2000/svg" width="24" height="24" viewBox="0 0 24 24">
  <path d="M12.219,21.291 C10.3429906,21.291 8.71200693,20.9165037 7.326,20.1675 C5.93999307,19.4184963 4.87250375,18.3720067 4.1235,17.028 C3.37449626,15.6839933 3,14.1370087 3,12.387 C3,10.4409903 3.39549605,8.76100707 4.1865,7.347 C4.97750396,5.93299293 6.072993,4.85500371 7.473,4.113 C8.873007,3.37099629 10.4619911,3 12.24,3 C14.0740092,3 15.6489934,3.34299657 16.965,4.029 C18.2810066,4.71500343 19.2819966,5.64949409 19.968,6.8325 C20.6540034,8.01550591 20.997,9.34199265 20.997,10.812 C20.997,12.0300061 20.8115019,13.0764956 20.4405,13.9515 C20.0694981,14.8265044 19.5550033,15.4914977 18.897,15.9465 C18.2389967,16.4015023 17.4900042,16.629 16.65,16.629 C15.9079963,16.629 15.3060023,16.4680016 14.844,16.146 C14.3819977,15.8239984 14.0950006,15.3970027 13.983,14.865 L13.941,14.865 C13.5629981,15.4110027 13.1395023,15.8414984 12.6705,16.1565 C12.2014977,16.4715016 11.6100036,16.629 10.896,16.629 C9.85999482,16.629 9.0515029,16.2825035 8.4705,15.5895 C7.8894971,14.8964965 7.599,13.9760057 7.599,12.828 C7.599,11.833995 7.78799811,10.9275041 8.166,10.1085 C8.54400189,9.2894959 9.06549668,8.64200238 9.7305,8.166 C10.3955033,7.68999762 11.1549957,7.452 12.009,7.452 C12.5830029,7.452 13.0869978,7.57099881 13.521,7.809 C13.9550022,8.04700119 14.43145,8.65637622 14.5815,8.60168872 C14.73155,8.54700122 15.0875131,7.60002051 15.873,7.74472461 C16.6584869,7.88942871 16.734,8.38999839 16.734,8.712 C16.734,8.8520007 16.7270001,8.95699965 16.713,9.027 L16.083,12.597 C16.0129997,13.0170021 15.978,13.3459988 15.978,13.584 C15.978,13.990002 16.0619992,14.2979989 16.23,14.508 C16.3980008,14.718001 16.6709981,14.823 17.049,14.823 C17.3290014,14.823 17.6089986,14.6900013 17.889,14.424 C18.1690014,14.1579987 18.4034991,13.724003 18.5925,13.122 C18.7815009,12.519997 18.876,11.7500047 18.876,10.812 C18.876,9.63599412 18.6240025,8.60700441 18.12,7.725 C17.6159975,6.84299559 16.867005,6.15700245 15.873,5.667 C14.878995,5.17699755 13.6680071,4.932 12.24,4.932 C10.8959933,4.932 9.69900525,5.22249709 8.649,5.8035 C7.59899475,6.3845029 6.77300301,7.23849436 6.171,8.3655 C5.56899699,9.49250564 5.268,10.8329922 5.268,12.387 C5.268,13.787007 5.54449724,15.0119948 6.0975,16.062 C6.65050277,17.1120052 7.44849479,17.9239971 8.4915,18.498 C9.53450522,19.0720029 10.7769928,19.359 12.219,19.359 C13.1290046,19.359 13.9164967,19.2645009 14.5815,19.0755 C15.2465033,18.8864991 15.8939969,18.589002 16.524,18.183 C16.7480011,18.0429993 16.957999,17.973 17.154,17.973 C17.4340014,17.973 17.6684991,18.070999 17.8575,18.267 C18.0465009,18.463001 18.141,18.6939987 18.141,18.96 C18.141,19.3100018 17.9730017,19.6039988 17.637,19.842 C17.0769972,20.248002 16.3210048,20.5909986 15.369,20.871 C14.4169952,21.1510014 13.3670057,21.291 12.219,21.291 Z M11.4,14.823 C11.9600028,14.823 12.439498,14.6515017 12.8385,14.3085 C13.237502,13.9654983 13.538499,13.5175028 13.7415,12.9645 C13.944501,12.4114972 14.046,11.8270031 14.046,11.211 C14.046,10.5669968 13.9025014,10.0840016 13.6155,9.762 C13.3284986,9.43999839 12.9260026,9.279 12.408,9.279 C11.8899974,9.279 11.4420019,9.45399825 11.064,9.804 C10.6859981,10.1540017 10.399001,10.6019973 10.203,11.148 C10.006999,11.6940027 9.909,12.2539971 9.909,12.828 C9.909,13.430003 10.0419987,13.9129982 10.308,14.277 C10.5740013,14.6410018 10.9379977,14.823 11.4,14.823 Z"/>
</svg>
