<svg xmlns="http://www.w3.org/2000/svg" width="24" height="24" viewBox="0 0 24 24">
  <path d="M17,9 L20,9 C21.6568542,9 23,10.3431458 23,12 L23,16 C23,17.6568542 21.6568542,19 20,19 L20,20.5171573 C20,20.8354171 19.8735718,21.1406418 19.6485281,21.3656854 C19.179899,21.8343146 18.420101,21.8343146 17.9514719,21.3656854 L15.5857864,19 L13,19 C11.3431458,19 10,17.6568542 10,16 L10,14 L9.41421356,14 L7.04852814,16.3656854 C6.57989899,16.8343146 5.82010101,16.8343146 5.35147186,16.3656854 C5.12642821,16.1406418 5,15.8354171 5,15.5171573 L5,14 C3.34314575,14 2,12.6568542 2,11 L2,6 C2,4.34314575 3.34314575,3 5,3 L14,3 C15.6568542,3 17,4.34314575 17,6 L17,9 Z M12,14 L12,16 C12,16.5522847 12.4477153,17 13,17 L16,17 C16.2652165,17 16.5195704,17.1053568 16.7071068,17.2928932 L18,18.5857864 L18,18 C18,17.4477153 18.4477153,17 19,17 L20,17 C20.5522847,17 21,16.5522847 21,16 L21,12 C21,11.4477153 20.5522847,11 20,11 L17,11 C17,12.6568542 15.6568542,14 14,14 L12,14 L12,14 Z M8.29289322,12.2928932 C8.4804296,12.1053568 8.73478351,12 9,12 L14,12 C14.5522847,12 15,11.5522847 15,11 L15,6 C15,5.44771525 14.5522847,5 14,5 L5,5 C4.44771525,5 4,5.44771525 4,6 L4,11 C4,11.5522847 4.44771525,12 5,12 L6,12 C6.55228475,12 7,12.4477153 7,13 L7,13.5857864 L8.29289322,12.2928932 Z"/>
</svg>
