<svg xmlns="http://www.w3.org/2000/svg" width="24" height="24" viewBox="0 0 24 24">
  <path d="M4,6.55296419 L4,3 C4,2.44771525 4.44771525,2 5,2 L19,2 C19.5522847,2 20,2.44771525 20,3 L20,6.5500009 C20.193866,6.37727258 20.3049035,6.27888614 20.3331125,6.25484159 C20.5710504,6.05203021 20.7536779,6.04131112 21,6.04131112 C21.5522847,6.04131112 22,6.48902637 22,7.04131112 L22,19 C22,20.1045695 21.1045695,21 20,21 L4,21 C2.8954305,21 2,20.1045695 2,19 L2,7.04131112 C2,6.48902637 2.44771525,6.04131112 3,6.04131112 C3.08828405,6.04131112 3.19062976,6.0269806 3.36727905,6.08354187 C3.48504525,6.12124939 3.58491473,6.17834929 3.66688751,6.25484159 L4,6.55296419 Z M6,8.34288563 L12,13.7126499 C14.6148581,11.3691813 16.6148581,9.57757252 18,8.33782362 L18,4 L6,4 L6,8.34288563 Z M4,9.23695725 L4,16.7258782 L8.23112271,13.0236459 L4,9.23695725 Z M4.43818822,19 L19.5618118,19 L14.2674109,14.3673993 L13.333775,15.2029668 C12.5744371,15.8825443 11.4255629,15.8825443 10.666225,15.2029668 L9.73258906,14.3673993 L4.43818822,19 Z M20,16.7258782 L20,9.23695725 L15.7688773,13.0236459 L20,16.7258782 Z M10,6 L14,6 C14.5522847,6 15,6.44771525 15,7 C15,7.55228475 14.5522847,8 14,8 L10,8 C9.44771525,8 9,7.55228475 9,7 C9,6.44771525 9.44771525,6 10,6 Z"/>
</svg>
