<svg xmlns="http://www.w3.org/2000/svg" width="24" height="24" viewBox="0 0 24 24">
  <path d="M20,16.4829511 L20,8.0299112 L15.6759794,12.021922 L20,16.4829511 L20,16.4829511 Z M18.6851247,18 L14.2060411,13.3789945 L13.3566716,14.1631471 C12.5905162,14.8704751 11.4094838,14.8704751 10.6433284,14.1631471 L9.80173574,13.3861742 L5.31584238,18 L18.6851247,18 Z M4,16.4843263 L8.33174077,12.0290494 L4,8.0299112 L4,16.4843263 L4,16.4843263 Z M5.83282477,7 L12,12.6936431 L18.1671752,7 L5.83282477,7 Z M4,5 L20,5 C21.1045695,5 22,5.8954305 22,7 L22,18 C22,19.1045695 21.1045695,20 20,20 L4,20 C2.8954305,20 2,19.1045695 2,18 L2,7 C2,5.8954305 2.8954305,5 4,5 Z"/>
</svg>
