<svg xmlns="http://www.w3.org/2000/svg" width="24" height="24" viewBox="0 0 24 24">
  <path d="M16,17 L16,20 C16,21.1045695 15.1045695,22 14,22 L13,22 C11.8954305,22 11,21.1045695 11,20 L11,17 L4,17 C2.8954305,17 2,16.1045695 2,15 L2,9 C2,6.790861 3.790861,5 6,5 L14,5 L14,2 L18,2 L18,4 L16,4 L16,5 L19,5 C21.209139,5 23,6.790861 23,9 L23,14 C23,15.6568542 21.6568542,17 20,17 L16,17 Z M14,17 L13,17 L13,20 L14,20 L14,17 Z M10,15 L20,15 C20.5522847,15 21,14.5522847 21,14 L21,9 C21,7.8954305 20.1045695,7 19,7 L16,7 L16,9 C16,9.55228475 15.5522847,10 15,10 C14.4477153,10 14,9.55228475 14,9 L14,7 L9.46487122,7 C9.80521143,7.58834673 10,8.27142571 10,9 L10,15 Z M8,15 L8,9 C8,7.8954305 7.1045695,7 6,7 C4.8954305,7 4,7.8954305 4,9 L4,14 C4,14.5522847 4.44771525,15 5,15 L8,15 Z"/>
</svg>
