<svg xmlns="http://www.w3.org/2000/svg" width="24" height="24" viewBox="0 0 24 24">
  <path d="M20,12 L21,12 C22.1045695,12 23,12.8954305 23,14 L23,18 C23,19.6568542 21.6568542,21 20,21 L5,21 C3.34314575,21 2,19.6568542 2,18 L2,6 C2,4.34314575 3.34314575,3 5,3 L17,3 C18.6568542,3 20,4.34314575 20,6 L20,12 Z M20,14 L20,18 C20,18.3506354 19.9398458,18.6872211 19.8292943,19 L20,19 C20.5522847,19 21,18.5522847 21,18 L21,14 L20,14 Z M17,19 C17.5522847,19 18,18.5522847 18,18 L18,6 C18,5.44771525 17.5522847,5 17,5 L5,5 C4.44771525,5 4,5.44771525 4,6 L4,18 C4,18.5522847 4.44771525,19 5,19 L17,19 Z M7,10 L11,10 C11.5522847,10 12,10.4477153 12,11 C12,11.5522847 11.5522847,12 11,12 L7,12 C6.44771525,12 6,11.5522847 6,11 C6,10.4477153 6.44771525,10 7,10 Z M7,7 L15,7 C15.5522847,7 16,7.44771525 16,8 C16,8.55228475 15.5522847,9 15,9 L7,9 C6.44771525,9 6,8.55228475 6,8 C6,7.44771525 6.44771525,7 7,7 Z"/>
</svg>
