<svg xmlns="http://www.w3.org/2000/svg" width="24" height="24" viewBox="0 0 24 24">
  <path d="M12.6667019,14.2243264 C13.7094419,12.9367476 15.5985386,12.7382665 16.8861175,13.7810065 L16.9264325,13.8142409 L18.4580566,15.0994261 C19.7116781,16.1513394 19.8909831,18.0138566 18.8610615,19.2856073 L18.7910457,19.3633648 L16.6639396,21.4904709 C15.8025947,22.3518157 14.505916,22.6068033 13.3825509,22.1357637 C10.9279865,21.1065373 8.66910571,19.558598 6.60912697,17.4986193 C4.54913961,15.4386319 3.00119606,13.1797409 1.97195855,10.7251382 C1.50095828,9.60177113 1.75596167,8.30512035 2.61729393,7.44378809 L4.74438146,5.31670056 L4.82213897,5.24668476 C6.09388964,4.21676312 7.95640681,4.3960682 9.00832011,5.64968966 L10.2935053,7.18131377 C11.3585107,8.45053776 11.1929588,10.3428045 9.92373484,11.4078099 L9.88341982,11.4410443 L9.49844403,11.7528153 C9.92471068,12.2789902 10.3757938,12.7800048 10.8517677,13.2559786 C11.3277415,13.7319524 11.828756,14.1830356 12.354931,14.6093022 L12.6667019,14.2243264 Z M17.1724814,16.631515 L15.6408573,15.3463298 L15.6274189,15.3352517 C15.198226,14.9876717 14.5685271,15.053832 14.2209471,15.483025 L13.2949354,16.6264673 C12.9590981,17.0411603 12.3568203,17.1190977 11.9264867,16.8035506 C11.0379699,16.1520352 10.2081996,15.4408376 9.43755409,14.6701922 C8.66690863,13.8995467 7.95571103,13.0697764 7.30419567,12.1812596 C6.98864854,11.750926 7.06658593,11.1486482 7.48127894,10.8128109 L8.62472128,9.88679917 L8.63815962,9.87572104 C9.06123429,9.52071925 9.11641825,8.88996365 8.76141646,8.46688899 L7.47623123,6.93526488 C7.13496739,6.52856247 6.53775623,6.46107433 6.11524971,6.77425944 L4.03150749,8.85800165 C3.74439669,9.14511245 3.65939355,9.57733962 3.81638842,9.95178286 C4.7425579,12.1605812 6.14265082,14.203716 8.02334053,16.0844057 C9.90402244,17.9650876 11.9471481,19.3651767 14.1559359,20.2913463 C14.5303909,20.4483595 14.9626203,20.363363 15.2497323,20.076251 L17.3334868,17.9924965 C17.6466719,17.56999 17.5791838,16.9727789 17.1724814,16.631515 Z M22.1319885,11 C22.1319885,11.5522847 21.6842732,12 21.1319885,12 C20.5797037,12 20.1319885,11.5522847 20.1319885,11 C20.1319885,7.13400675 16.9979817,4 13.1319885,4 C12.5797037,4 12.1319885,3.55228475 12.1319885,3 C12.1319885,2.44771525 12.5797037,2 13.1319885,2 C18.1025512,2 22.1319885,6.02943725 22.1319885,11 Z M18.1319885,11 C18.1319885,11.5522847 17.6842732,12 17.1319885,12 C16.5797037,12 16.1319885,11.5522847 16.1319885,11 C16.1319885,9.34314575 14.7888427,8 13.1319885,8 C12.5797037,8 12.1319885,7.55228475 12.1319885,7 C12.1319885,6.44771525 12.5797037,6 13.1319885,6 C15.8934122,6 18.1319885,8.23857625 18.1319885,11 Z"/>
</svg>
