<svg xmlns="http://www.w3.org/2000/svg" width="24" height="24" viewBox="0 0 24 24">
  <path d="M14.381966,20 L9.61803399,20 L8.89442719,21.4472136 C8.64743794,21.9411921 8.0467649,22.1414164 7.5527864,21.8944272 C7.05880791,21.6474379 6.85858356,21.0467649 7.10557281,20.5527864 L10.3308626,14.1022067 C10.1217582,13.7861839 10,13.407311 10,13 C10,11.8954305 10.8954305,11 12,11 C13.1045695,11 14,11.8954305 14,13 C14,13.407311 13.8782418,13.7861839 13.6691374,14.1022067 L16.8944272,20.5527864 C17.1414164,21.0467649 16.9411921,21.6474379 16.4472136,21.8944272 C15.9532351,22.1414164 15.3525621,21.9411921 15.1055728,21.4472136 L14.381966,20 Z M13.381966,18 L12,15.236068 L10.618034,18 L13.381966,18 Z M17.5443648,15.2968931 C17.3328193,15.8070567 16.7477584,16.0491345 16.2375947,15.8375889 C15.7274311,15.6260433 15.4853534,15.0409824 15.6968989,14.5308188 C15.8961354,14.0503399 16,13.5332708 16,13 C16,10.790861 14.209139,9 12,9 C9.790861,9 8,10.790861 8,13 C8,13.5332708 8.10386463,14.0503399 8.30310107,14.5308188 C8.51464664,15.0409824 8.27256888,15.6260433 7.76240526,15.8375889 C7.25224164,16.0491345 6.66718075,15.8070567 6.45563518,15.2968931 C6.1561346,14.574617 6,13.7973325 6,13 C6,9.6862915 8.6862915,7 12,7 C15.3137085,7 18,9.6862915 18,13 C18,13.7973325 17.8438654,14.574617 17.5443648,15.2968931 Z M21.2408703,16.8279779 C21.0293248,17.3381415 20.4442639,17.5802192 19.9341002,17.3686737 C19.4239366,17.1571281 19.1818589,16.5720672 19.3934044,16.0619036 C19.7921357,15.1003227 20,14.0655121 20,13 C20,8.581722 16.418278,5 12,5 C7.581722,5 4,8.581722 4,13 C4,14.0655121 4.20786433,15.1003227 4.60659557,16.0619036 C4.81814113,16.5720672 4.57606337,17.1571281 4.06589976,17.3686737 C3.55573614,17.5802192 2.97067525,17.3381415 2.75912968,16.8279779 C2.2601343,15.6245998 2,14.3295738 2,13 C2,7.4771525 6.4771525,3 12,3 C17.5228475,3 22,7.4771525 22,13 C22,14.3295738 21.7398657,15.6245998 21.2408703,16.8279779 Z"/>
</svg>
