<svg xmlns="http://www.w3.org/2000/svg" width="24" height="24" viewBox="0 0 24 24">
  <path fill="#000000" d="M17,20 L18,20 C18.5522847,20 19,20.4477153 19,21 C19,21.5522847 18.5522847,22 18,22 L17,22 L17,23 C17,23.5522847 16.5522847,24 16,24 C15.4477153,24 15,23.5522847 15,23 L15,22 L14,22 C13.4477153,22 13,21.5522847 13,21 C13,20.4477153 13.4477153,20 14,20 L15,20 L15,17.8999819 C12.7177597,17.4367116 11,15.4189579 11,13 C11,10.2385763 13.2385763,8 16,8 C17.0449052,8 18.0149481,8.32052325 18.8171723,8.86861318 L20.6857855,7 L19,7 C18.4477153,7 18,6.55228475 18,6 C18,5.44771525 18.4477153,5 19,5 L23,5 C23.5522847,5 24,5.44771525 24,6 L24,10 C24,10.5522847 23.5522847,11 23,11 C22.4477153,11 22,10.5522847 22,10 L22,8.51421259 L20.2110699,10.3031426 C20.7104138,11.0812397 21,12.0068016 21,13 C21,15.4189579 19.2822403,17.4367116 17,17.8999819 L17,20 Z M6,15 L7,15 C7.55228475,15 8,15.4477153 8,16 C8,16.5522847 7.55228475,17 7,17 L6,17 L6,18 C6,18.5522847 5.55228475,19 5,19 C4.44771525,19 4,18.5522847 4,18 L4,17 L3,17 C2.44771525,17 2,16.5522847 2,16 C2,15.4477153 2.44771525,15 3,15 L4,15 L4,12.8999819 C1.71775968,12.4367116 0,10.4189579 0,8 C0,5.23857625 2.23857625,3 5,3 C6.04490517,3 7.01494812,3.32052325 7.81717229,3.86861318 L9.68578547,2 L8,2 C7.44771525,2 7,1.55228475 7,1 C7,0.44771525 7.44771525,1.01453063e-16 8,0 L12,0 C12.5522847,-1.01453063e-16 13,0.44771525 13,1 L13,5 C13,5.55228475 12.5522847,6 12,6 C11.4477153,6 11,5.55228475 11,5 L11,3.51421259 L9.21106994,5.30314265 C9.71041384,6.08123969 10,7.00680161 10,8 C10,10.4189579 8.28224032,12.4367116 6,12.8999819 L6,15 Z M5,11 C6.65685425,11 8,9.65685425 8,8 C8,6.34314575 6.65685425,5 5,5 C3.34314575,5 2,6.34314575 2,8 C2,9.65685425 3.34314575,11 5,11 Z M16,16 C17.6568542,16 19,14.6568542 19,13 C19,11.3431458 17.6568542,10 16,10 C14.3431458,10 13,11.3431458 13,13 C13,14.6568542 14.3431458,16 16,16 Z"/>
</svg>
