<svg xmlns="http://www.w3.org/2000/svg" width="24" height="24" viewBox="0 0 24 24">
  <path fill="#000000" d="M10,20 L10,17.9291111 C6.60770586,17.4438815 4,14.5264719 4,11 C4,7.13400675 7.13400675,4 11,4 C12.5979641,4 14.0708693,4.53544122 15.2490886,5.43669686 L17.6857855,3 L16,3 C15.4477153,3 15,2.55228475 15,2 C15,1.44771525 15.4477153,1 16,1 L20,1 C20.5522847,1 21,1.44771525 21,2 L21,6 C21,6.55228475 20.5522847,7 20,7 C19.4477153,7 19,6.55228475 19,6 L19,4.51421259 L16.6489474,6.86526523 C17.4983783,8.02380857 18,9.45332428 18,11 C18,14.5264719 15.3922941,17.4438815 12,17.9291111 L12,20 L13,20 C13.5522847,20 14,20.4477153 14,21 C14,21.5522847 13.5522847,22 13,22 L12,22 L12,23 C12,23.5522847 11.5522847,24 11,24 C10.4477153,24 10,23.5522847 10,23 L10,22 L9,22 C8.44771525,22 8,21.5522847 8,21 C8,20.4477153 8.44771525,20 9,20 L10,20 Z M11,16 C13.7614237,16 16,13.7614237 16,11 C16,8.23857625 13.7614237,6 11,6 C8.23857625,6 6,8.23857625 6,11 C6,13.7614237 8.23857625,16 11,16 Z"/>
</svg>
