<svg xmlns="http://www.w3.org/2000/svg" width="24" height="24" viewBox="0 0 24 24">
  <path fill="#000000" d="M11.4469261,5.24084037 L13.6877665,3 L12.001981,3 C11.4496963,3 11.001981,2.55228475 11.001981,2 C11.001981,1.44771525 11.4496963,1 12.001981,1 L16.001981,1 C16.2781234,1 16.5281234,1.11192881 16.7090878,1.29289322 C16.8900522,1.47385763 17.001981,1.72385763 17.001981,2 L17.001981,6 C17.001981,6.55228475 16.5542657,7 16.001981,7 C15.4496963,7 15.001981,6.55228475 15.001981,6 L15.001981,4.51421259 L13.0421977,6.47399588 C13.4358824,6.88050912 13.7757174,7.32853105 14.0573508,7.80982889 C14.264842,8.16442138 14.4399618,8.53576928 14.5813425,8.91976534 C14.7235277,9.30594635 14.8311183,9.70365744 14.9032526,10.108142 C14.9278699,10.1125299 14.952465,10.1170498 14.9770369,10.1217015 C15.1345692,10.1515245 15.2910583,10.1867528 15.4462211,10.2273435 C15.6185179,10.2724165 15.7890872,10.3240772 15.9575567,10.3822487 C16.1217716,10.4389512 16.2839028,10.5018091 16.443623,10.5707354 C16.6392163,10.6551425 16.8310514,10.7485883 17.0185672,10.8508857 C17.4010326,11.0595361 17.7643155,11.3043322 18.1044326,11.5833339 L20.6877665,9 L19.001981,9 C18.4496963,9 18.001981,8.55228475 18.001981,8 C18.001981,7.44771525 18.4496963,7 19.001981,7 L23.001981,7 C23.5542657,7 24.001981,7.44771525 24.001981,8 L24.001981,12 C24.001981,12.5522847 23.5542657,13 23.001981,13 C22.4496963,13 22.001981,12.5522847 22.001981,12 L22.001981,10.5142126 L19.4569583,13.0592353 C21.2604531,15.7032707 21.0630712,19.3342861 18.7887183,21.7732309 C16.1521173,24.6006394 11.7226624,24.7553194 8.89525388,22.1187183 C8.45275447,21.7060809 8.06954042,21.2434418 7.75124673,20.7406159 C7.5315068,20.3934807 7.34353385,20.0284707 7.18883798,19.6496426 C7.00277084,19.1939908 6.86558159,18.7201297 6.77902761,18.2361399 L6.778524,18.2333205 C6.67369042,18.2146307 6.56927642,18.193553 6.4653676,18.170098 C6.30897208,18.1347955 6.15380777,18.0941272 6.0001561,18.0481461 C5.82953724,17.9970876 5.66087484,17.9395055 5.49453814,17.8754899 C5.33240212,17.813091 5.17256341,17.7446131 5.01534596,17.6701546 C4.82281761,17.5789728 4.63436061,17.478889 4.45052911,17.3701096 C3.94806851,17.0727866 3.48230002,16.711795 3.06264069,16.2921356 C0.328970645,13.5584656 0.328970645,9.12631073 3.06264069,6.39264069 C5.33429096,4.12099042 8.7788181,3.73705698 11.4469261,5.24084037 Z M6.71777838,16.1729137 C6.7318781,16.0535964 6.74904283,15.9346229 6.76926538,15.816118 C6.82021332,15.5175614 6.89047868,15.222509 6.97975543,14.9328563 C7.0694991,14.6416887 7.17830497,14.3564559 7.3057094,14.0789307 C7.61573113,13.4036101 8.03354191,12.778837 8.54976649,12.2252539 C8.91228289,11.8365026 9.31348549,11.4934064 9.74684159,11.1998223 C10.0010922,11.0275761 10.2658342,10.8727698 10.5394584,10.7360767 C11.0335228,10.4892594 11.6341261,10.6896927 11.8809435,11.1837571 C12.1277608,11.6778215 11.9273275,12.2784249 11.4332631,12.5252422 C11.2383301,12.6226239 11.0497455,12.7328976 10.868591,12.8556237 C10.5592617,13.0651838 10.272468,13.3104411 10.0124739,13.5892506 C9.64256891,13.9859251 9.34440153,14.4317895 9.12332922,14.9133516 C9.03255412,15.1110871 8.95501271,15.3143606 8.89102976,15.5219492 C8.82732315,15.7286412 8.77715767,15.9392919 8.74076578,16.1525496 C8.69779703,16.404348 8.67412546,16.659229 8.66990583,16.9147973 C8.66454273,17.2396215 8.69062233,17.5643712 8.74779313,17.8840571 C8.80965417,18.2299697 8.90763253,18.5683937 9.0404098,18.8935462 C9.15066893,19.163555 9.28458481,19.4235959 9.441132,19.670902 C9.66822694,20.0296562 9.94199378,20.3601641 10.2592506,20.6560109 C12.2788281,22.5392974 15.4427244,22.4288117 17.3260109,20.4092342 C19.2092974,18.3896567 19.0988117,15.2257604 17.0792342,13.3424739 C16.7680207,13.0522626 16.4264483,12.8061184 16.0607469,12.6066136 C15.9271605,12.5337368 15.7905108,12.4671727 15.6511754,12.4070433 C15.5373722,12.3579322 15.4218343,12.3131385 15.3047869,12.2727227 C15.1923667,12.2339046 15.0786073,12.1991437 14.9637232,12.1684864 C14.9400401,12.3687507 14.907738,12.5679844 14.8668715,12.7655975 C14.8055351,13.0621942 14.7250153,13.3546146 14.6256842,13.6409752 C14.5258336,13.9288334 14.4071396,14.2100952 14.2701273,14.483005 C13.936726,15.1470946 13.4973655,15.7569057 12.9621356,16.2921356 C12.5862728,16.6679984 12.1733408,16.9968839 11.7300027,17.2751653 C11.4698957,17.4384333 11.1999123,17.5839059 10.9216843,17.7109664 C10.419307,17.9403908 9.82606457,17.7191188 9.59664018,17.2167415 C9.36721579,16.7143643 9.5884878,16.1211218 10.090865,15.8916975 C10.2890778,15.8011781 10.481396,15.6975531 10.6667233,15.581224 C10.9831777,15.382587 11.278356,15.1474881 11.5479221,14.8779221 C11.9314455,14.4943987 12.2449916,14.0592118 12.4827356,13.5856584 C12.5803562,13.3912114 12.6649445,13.1907678 12.7361333,12.9855387 C12.8070145,12.7811959 12.864501,12.5724243 12.9083133,12.3605665 C12.9600435,12.1104212 12.9925959,11.8565215 13.0057322,11.6012561 C13.0224282,11.2768169 13.0076981,10.951355 12.961719,10.6298686 C12.9119678,10.2820078 12.82586,9.94037056 12.7045112,9.61078224 C12.6037425,9.33708993 12.4789834,9.07253387 12.3311625,8.81991498 C12.1167262,8.45345379 11.8546607,8.1135929 11.5479221,7.80685425 C9.5953006,5.85423279 6.42947571,5.85423279 4.47685425,7.80685425 C2.52423279,9.75947571 2.52423279,12.9253006 4.47685425,14.8779221 C4.77774993,15.1788177 5.11052398,15.4367327 5.46904001,15.6488788 C5.60000167,15.7263733 5.73424498,15.7976659 5.87139702,15.8626213 C5.98341694,15.9156742 6.09732122,15.9644729 6.21288678,16.0089489 C6.33150174,16.0545985 6.45180675,16.0956712 6.57354231,16.1321012 C6.62141522,16.1464274 6.66949949,16.1600327 6.71777838,16.1729137 Z"/>
</svg>
