<svg xmlns="http://www.w3.org/2000/svg" width="24" height="24" viewBox="0 0 24 24">
  <path fill="#000000" fill-rule="evenodd" d="M10.6777655,21 L10.6777655,16.89287 C8.57479954,16.4348944 7,14.5624716 7,12.3222345 C7,12.2184282 7.00345542,12.1146506 7.01036051,12.0110742 L7.61553339,2.93348099 C7.65055325,2.40818315 8.08685468,2 8.61331855,2 L14.7422124,2 C15.2686762,2 15.7049777,2.40818315 15.7399975,2.93348099 L16.3451704,12.0110742 C16.5013385,14.3535952 14.9049279,16.4081027 12.6777655,16.8925091 L12.6777655,21 L14.6777655,21 C15.2300502,21 15.6777655,21.4477153 15.6777655,22 C15.6777655,22.5522847 15.2300502,23 14.6777655,23 L8.67776546,23 C8.12548071,23 7.67776546,22.5522847 7.67776546,22 C7.67776546,21.4477153 8.12548071,21 8.67776546,21 L10.6777655,21 Z M13.8066593,4 L9.54887164,4 L9.41553831,6 L13.9399926,6 L13.8066593,4 Z M14.0733259,8 L9.28220498,8 L9.00593083,12.1441122 C9.00197804,12.2034041 9,12.2628111 9,12.3222345 C9,13.8011236 10.1988764,15 11.6777655,15 C11.7371889,15 11.7965959,14.998022 11.8558878,14.9940692 C13.3315013,14.8956949 14.4479743,13.6197258 14.3496001,12.1441122 L14.0733259,8 Z M12.6777655,13 C12.1254807,13 11.6777655,12.5522847 11.6777655,12 C11.6777655,11.4477153 12.1254807,11 12.6777655,11 C13.2300502,11 13.6777655,11.4477153 13.6777655,12 C13.6777655,12.5522847 13.2300502,13 12.6777655,13 Z M10.6777655,11 C10.1254807,11 9.67776546,10.5522847 9.67776546,10 C9.67776546,9.44771525 10.1254807,9 10.6777655,9 C11.2300502,9 11.6777655,9.44771525 11.6777655,10 C11.6777655,10.5522847 11.2300502,11 10.6777655,11 Z"/>
</svg>
