<svg xmlns="http://www.w3.org/2000/svg" width="24" height="24" viewBox="0 0 24 24">
  <path fill="#000000" d="M9.09152209,16.5555556 L2.17789823,6.56920998 C1.86353223,6.11512577 1.97679623,5.4921738 2.43088044,5.17780781 C2.598118,5.06202796 2.79668596,5 3.00009042,5 L5.03715823,5 L4.37049156,3 L3.09125078,3 C2.53896603,3 2.09125078,2.55228475 2.09125078,2 C2.09125078,1.44771525 2.53896603,1 3.09125078,1 L5.09125078,1 C5.52168119,1 5.90382004,1.27543009 6.03993408,1.68377223 L7.03993408,4.68377223 C7.07489132,4.78864395 7.09150721,4.89521343 7.09152208,5 L17.1829538,5 C17.7352385,5 18.1829538,5.44771525 18.1829538,6 C18.1829538,6.20340446 18.1209258,6.40197242 18.0051459,6.56920998 L11.0915221,16.5555556 L11.0915221,22 L13.0915221,22 C13.6438068,22 14.0915221,22.4477153 14.0915221,23 C14.0915221,23.5522847 13.6438068,24 13.0915221,24 L7.09152209,24 C6.53923734,24 6.09152209,23.5522847 6.09152209,23 C6.09152209,22.4477153 6.53923734,22 7.09152209,22 L9.09152209,22 L9.09152209,16.5555556 Z M10.0915221,14.4863582 L15.2743854,7 L4.90865875,7 L10.0915221,14.4863582 Z M14.2365514,8.49909366 L15.2743854,7 L13.3475806,7 C13.1817534,6.53083161 13.0915221,6.02595313 13.0915221,5.5 C13.0915221,3.01471863 15.1062407,1 17.5915221,1 C20.0768035,1 22.0915221,3.01471863 22.0915221,5.5 C22.0915221,7.98528137 20.0768035,10 17.5915221,10 C16.2583351,10 15.0605574,9.42024377 14.2365514,8.49909366 Z M17.5915221,8 C18.972234,8 20.0915221,6.88071187 20.0915221,5.5 C20.0915221,4.11928813 18.972234,3 17.5915221,3 C16.2108102,3 15.0915221,4.11928813 15.0915221,5.5 C15.0915221,6.88071187 16.2108102,8 17.5915221,8 Z"/>
</svg>
