<svg xmlns="http://www.w3.org/2000/svg" width="24" height="24" viewBox="0 0 24 24">
  <path fill="#000000" d="M7.65563998,21 C6.06622995,21 4.7521061,19.7626597 4.6580403,18.1775485 L4.00526354,6.17754851 C4.00175528,6.11843055 4,6.05922177 4,6 C4,4.34314575 5.34442766,3 7.00286322,3 L16.9970439,3 C17.0563222,3 17.1155875,3.00175361 17.1747619,3.00525852 C18.8302905,3.10331586 20.0927945,4.52359847 19.9946436,6.17754851 L19.3418668,18.1775485 C19.2478011,19.7626597 17.9336772,21 16.3442672,21 L7.65563998,21 Z M6.29686793,11 L6.65644009,18.0591828 C6.68779535,18.5875532 7.12583664,19 7.65563998,19 L16.3442672,19 C16.8740705,19 17.3121118,18.5875532 17.3434671,18.0591828 L17.7030392,11 L6.29686793,11 Z M13.008098,9 C13.008098,8.44771525 13.4562405,8 14.0090524,8 L15.0100068,8 C15.5628187,8 16.0109612,8.44771525 16.0109612,9 L17.8217259,9 L17.9962438,6.05918284 C18.0289608,5.50786616 17.6081261,5.03443862 17.0562833,5.00175284 C17.0365585,5.00058454 17.0168034,5 16.9970439,5 L7.00286322,5 C6.45005136,5 6.00190881,5.44771525 6.00190881,6 C6.00190881,6.01974059 6.00249391,6.03947685 6.00366333,6.05918284 L6.17818124,9 L13.008098,9 Z M9.00428037,17 C8.45146852,17 8.00332596,16.5522847 8.00332596,16 L8.00332596,15 C8.00332596,14.4477153 8.45146852,14 9.00428037,14 L10.0052348,14 C10.5580466,14 11.0061892,14.4477153 11.0061892,15 L11.0061892,16 C11.0061892,16.5522847 10.5580466,17 10.0052348,17 L9.00428037,17 Z"/>
</svg>
