<?xml version="1.0" encoding="UTF-8"?>
<svg width="24px" height="24px" viewBox="0 0 24 24" version="1.1" xmlns="http://www.w3.org/2000/svg" xmlns:xlink="http://www.w3.org/1999/xlink">
    <!-- Generator: Sketch 56.3 (81716) - https://sketch.com -->
    <title>jollycons-landmarks/jollycons-landmarks/svg/icon-landmarks-icon-big-ben</title>
    <desc>Created with Sketch.</desc>
    <g id="icons" stroke="none" stroke-width="1" fill="none" fill-rule="evenodd">
        <g id="icons---export" transform="translate(-60.000000, -218.000000)">
            <g id="row-3" transform="translate(60.000000, 218.000000)" fill="#000000">
                <g id="icon---11">
                    <path d="M12.725,2 L14,2 C14.5522847,2 15,2.44771525 15,3 L15,5 L16,5 C16.5522847,5 17,5.44771525 17,6 L17,16 C17,16.5522847 16.5522847,17 16,17 L15,17 L15,23 C15,23.5522847 14.5522847,24 14,24 L8,24 C7.44771525,24 7,23.5522847 7,23 L7,17 L6,17 C5.44771525,17 5,16.5522847 5,16 L5,6 C5,5.44771525 5.44771525,5 6,5 L7,5 L7,3 C7,2.44771525 7.44771525,2 8,2 L9.275,2 L10.6,0.233333333 C10.7656854,0.0124194334 11.0790861,-0.0323520916 11.3,0.133333333 C11.3379028,0.161760458 11.3715729,0.1954305 11.4,0.233333333 L12.725,2 Z M13,5 L13,4 L9,4 L9,5 L13,5 L13,5 Z M13,17 L9,17 L9,22 L13,22 L13,17 Z M7,7 L7,15 L15,15 L15,7 L7,7 Z M11,14 C9.34314575,14 8,12.6568542 8,11 C8,9.34314575 9.34314575,8 11,8 C12.6568542,8 14,9.34314575 14,11 C14,12.6568542 12.6568542,14 11,14 Z M11,12 C11.5522847,12 12,11.5522847 12,11 C12,10.4477153 11.5522847,10 11,10 C10.4477153,10 10,10.4477153 10,11 C10,11.5522847 10.4477153,12 11,12 Z M11,18 C11.5522847,18 12,18.4477153 12,19 L12,20 C12,20.5522847 11.5522847,21 11,21 C10.4477153,21 10,20.5522847 10,20 L10,19 C10,18.4477153 10.4477153,18 11,18 Z" id="big-ben"></path>
                </g>
            </g>
            <g id="slices" transform="translate(60.000000, 58.000000)"></g>
        </g>
    </g>
</svg>