<?xml version="1.0" encoding="UTF-8"?>
<svg width="24px" height="24px" viewBox="0 0 24 24" version="1.1" xmlns="http://www.w3.org/2000/svg" xmlns:xlink="http://www.w3.org/1999/xlink">
    <!-- Generator: Sketch 56.3 (81716) - https://sketch.com -->
    <title>jollycons-landmarks/jollycons-landmarks/svg/icon-landmarks-icon-colloseum</title>
    <desc>Created with Sketch.</desc>
    <g id="icons" stroke="none" stroke-width="1" fill="none" fill-rule="evenodd">
        <g id="icons---export" transform="translate(-316.000000, -58.000000)">
            <g id="row-1" transform="translate(60.000000, 58.000000)" fill="#000000">
                <g id="icon---5" transform="translate(256.000000, 0.000000)">
                    <path d="M22.2974286,23.9550236 C22.2034725,23.9842534 22.1035752,24 22,24 L2,24 C1.72385763,24 1.47385763,23.8880712 1.29289322,23.7071068 C1.11192881,23.5261424 1,23.2761424 1,23 L1,18.2476201 C0.999741677,18.2323291 0.999741677,18.2170763 1,18.2018698 L1,6.53769967 C1,6.53160799 1.00005447,6.52552903 1.00016295,6.51946325 C0.988510307,6.1194969 1.21926189,5.73482208 1.60988518,5.56932086 C4.39714828,4.38839936 8.15732979,3.80834257 12.9018025,3.80834257 C13.5516631,3.80834257 13.9855798,4.18711904 14.2766697,4.74632041 C14.4208964,5.02338878 14.5005172,5.25383427 14.6649664,5.79896638 C14.7429629,6.05751671 14.7947821,6.21988788 14.8383638,6.33589539 C16.0099908,6.26979964 16.8271613,6.56769865 17.7112606,7.19990723 C17.746895,7.22538893 17.999698,7.40956596 18.0649965,7.45521672 C18.3595582,7.66114748 18.4945568,7.71082621 18.7066626,7.69285037 C19.5652981,7.62008153 20.644202,8.55256785 23.0530098,11.0566543 C23.1059144,11.1116515 23.1523498,11.1725239 23.1914092,11.2380827 C23.5886288,11.9047923 23.6750975,13.6339815 23.5945752,17.0237478 L23.5948573,23 C23.5948573,23.5522847 23.147142,24 22.5948573,24 C22.4912821,24 22.3913848,23.9842534 22.2974286,23.9550236 L22.2974286,23.9550236 Z M4,22 L6,22 L6,20.7 C6,20.1477153 6.44771525,19.7 7,19.7 C7.55228475,19.7 8,20.1477153 8,20.7 L8,22 L10,22 L10,20.5 C10,19.9477153 10.4477153,19.5 11,19.5 C11.5522847,19.5 12,19.9477153 12,20.5 L12,22 L14,22 L14,20.7 C14,20.1477153 14.4477153,19.7 15,19.7 C15.5522847,19.7 16,20.1477153 16,20.7 L16,22 L18,22 L18,21 C18,20.4477153 18.4477153,20 19,20 C19.5522847,20 20,20.4477153 20,21 L20,22 L21.5948573,22 L21.5948573,18.6429552 C21.5199645,18.6465093 21.4434918,18.6416402 21.3665726,18.627565 C19.0848645,18.2100422 16.2945795,17.9997363 13,17.9997363 C8.86750336,17.9997363 5.530809,18.3308502 3,18.9840907 L3,20 C3.55228475,20 4,20.4477153 4,21 L4,22 Z M4,10.9246504 C4.62820283,10.7774966 5.29526207,10.648041 6.00128925,10.5361842 C6.00043464,10.5242341 6,10.5121678 6,10.5 L6,9 C6,8.44771525 6.44771525,8 7,8 C7.55228475,8 8,8.44771525 8,9 L8,10.2771054 C8.64404691,10.21048 9.31499255,10.1559099 10.0129006,10.1133386 C10.0044611,10.0769228 10,10.0389824 10,10 L10,8.5 C10,7.94771525 10.4477153,7.5 11,7.5 C11.5522847,7.5 12,7.94771525 12,8.5 L12,10 C12,10.0088873 11.9997681,10.0177204 11.9993101,10.0264936 C12.6459642,10.0086431 13.3128471,9.99973627 14,9.99973627 C15.8098959,9.99973627 17.6448326,10.097675 19.3968359,10.2734247 C19.3633813,10.2439565 19.3306102,10.2153561 19.298524,10.1876243 C19.0367563,9.96138095 18.8277929,9.79944537 18.6811521,9.70578159 C18.6761505,9.70258697 18.6713225,9.69953634 18.6666757,9.69662993 C18.0147216,9.7085845 17.5013234,9.50143745 16.9190522,9.09436635 C16.834563,9.03529919 16.5693351,8.84207016 16.5479205,8.82675684 C15.9333207,8.3872641 15.5077881,8.25268711 14.6255089,8.36287158 L14.4670793,8.3699843 C13.8332375,8.34809987 13.4166621,7.97097017 13.1330972,7.41970507 C12.9917946,7.14500534 12.9131125,6.91664613 12.7507394,6.37839577 C12.6654922,6.09581013 12.6111734,5.92714851 12.5650297,5.80936424 C8.57760798,5.83368902 5.3865357,6.29223081 3,7.17001025 L3,9 C3.55228475,9 4,9.44771525 4,10 L4,10.9246504 Z M4,16.7116568 C4.63184074,16.5896967 5.29847597,16.4835157 6,16.3930297 L6,14.9 C6,14.3477153 6.44771525,13.9 7,13.9 C7.55228475,13.9 8,14.3477153 8,14.9 L8,16.1850853 C8.64201748,16.1330414 9.30866557,16.0919969 10,16.061902 L10,14.6 C10,14.0477153 10.4477153,13.6 11,13.6 C11.5522847,13.6 12,14.0477153 12,14.6 L12,16.006215 C12.3284252,16.0018944 12.6617569,15.9997363 13,15.9997363 C13.3382574,15.9997363 13.6715894,16.0018961 14,16.0062188 L14,14.8 C14,14.2477153 14.4477153,13.8 15,13.8 C15.5522847,13.8 16,14.2477153 16,14.8 L16,16.0619236 C16.6914407,16.0920288 17.3580915,16.1330803 18,16.1851123 L18,15.3 C18,14.7477153 18.4477153,14.3 19,14.3 C19.5522847,14.3 20,14.7477153 20,15.3 L20,16.3930303 C20.5562898,16.4647721 21.0905051,16.5463641 21.6026858,16.6378353 C21.6426686,14.5923152 21.5980123,13.148147 21.5307047,12.5524994 C19.1938997,12.2051446 16.5681376,11.9997363 14,11.9997363 C9.46790642,11.9997363 5.89295819,12.3979811 3.28845536,13.1826161 C3.19240704,13.2115517 3.0954013,13.22535 3,13.2253864 L3,15 C3.55228475,15 4,15.4477153 4,16 L4,16.7116568 Z" id="colloseum"></path>
                </g>
            </g>
            <g id="slices" transform="translate(60.000000, 58.000000)"></g>
        </g>
    </g>
</svg>