<?xml version="1.0" encoding="UTF-8"?>
<svg width="24px" height="24px" viewBox="0 0 24 24" version="1.1" xmlns="http://www.w3.org/2000/svg" xmlns:xlink="http://www.w3.org/1999/xlink">
    <!-- Generator: Sketch 56.3 (81716) - https://sketch.com -->
    <title>jollycons-landmarks/jollycons-landmarks/svg/icon-landmarks-icon-golden-gate-bridge</title>
    <desc>Created with Sketch.</desc>
    <g id="icons" stroke="none" stroke-width="1" fill="none" fill-rule="evenodd">
        <g id="icons---export" transform="translate(-60.000000, -138.000000)">
            <g id="row-2" transform="translate(60.000000, 138.000000)" fill="#000000" fill-rule="nonzero">
                <g id="icon---6">
                    <path d="M22,7 C22,7.36372426 22.2948568,7.65858103 22.658581,7.65858103 L23,7.65858103 C23.5522847,7.65858103 24,8.10629628 24,8.65858103 C24,9.21086578 23.5522847,9.65858103 23,9.65858103 L22.658581,9.65858103 C22.4312621,9.65858103 22.2106067,9.63005134 22,9.57637726 L22,15 L23,15 C23.5522847,15 24,15.4477153 24,16 C24,16.5522847 23.5522847,17 23,17 L22,17 L22,21 C22,21.5522847 21.5522847,22 21,22 L18,22 C17.4477153,22 17,21.5522847 17,21 L17,17 L7,17 L7,21 C7,21.5522847 6.55228475,22 6,22 L3,22 C2.44771525,22 2,21.5522847 2,21 L2,17 L1,17 C0.44771525,17 0,16.5522847 0,16 C0,15.4477153 0.44771525,15 1,15 L2,15 L2,8.92032398 C1.79241215,8.97236559 1.57514274,9 1.35141897,9 L1.01,9 C0.45771525,9 0.01,8.55228475 0.01,8 C0.01,7.44771525 0.45771525,7 1.01,7 L1.35141897,7 C1.67592649,7 1.94561651,6.76529838 2,6.45638415 L2,4 C2,3.44771525 2.44771525,3 3,3 C3.55228475,3 4,3.44771525 4,4 L4,5 L5,5 L5,4 C5,3.44771525 5.44771525,3 6,3 C6.55228475,3 7,3.44771525 7,4 L7,5.79914906 C8.17910158,8.48438131 11.2851392,9.76891134 14.0286093,8.67152331 C15.3592707,8.13925876 16.4250473,7.1064415 17,5.79901064 L17,4 C17,3.44771525 17.4477153,3 18,3 C18.5522847,3 19,3.44771525 19,4 L19,5 L20,5 L20,4 C20,3.44771525 20.4477153,3 21,3 C21.5522847,3 22,3.44771525 22,4 L22,7 L22,7 Z M17,15 L17,9.13935515 C16.411763,9.67033851 15.7378504,10.1086673 15,10.4326037 L15,15 L17,15 Z M13,15 L13,10.9966755 C12.3279714,11.088046 11.6556566,11.0854684 11,10.9962048 L11,15 L13,15 Z M9,15 L9,10.4326 C8.27292187,10.1134085 7.59628616,9.67880461 7,9.14160561 L7,15 L9,15 Z M5,15 L5,7 L4,7 L4,15 L5,15 Z M5,17 L4,17 L4,20 L5,20 L5,17 Z M20,15 L20,7 L19,7 L19,15 L20,15 Z M20,17 L19,17 L19,20 L20,20 L20,17 Z" id="golden-gate-bridge"></path>
                </g>
            </g>
            <g id="slices" transform="translate(60.000000, 58.000000)"></g>
        </g>
    </g>
</svg>