<?xml version="1.0" encoding="UTF-8"?>
<svg width="24px" height="24px" viewBox="0 0 24 24" version="1.1" xmlns="http://www.w3.org/2000/svg" xmlns:xlink="http://www.w3.org/1999/xlink">
    <!-- Generator: Sketch 56.3 (81716) - https://sketch.com -->
    <title>jollycons-landmarks/jollycons-landmarks/svg/icon-landmarks-icon-statue-of-liberty</title>
    <desc>Created with Sketch.</desc>
    <g id="icons" stroke="none" stroke-width="1" fill="none" fill-rule="evenodd">
        <g id="icons---export" transform="translate(-124.000000, -58.000000)">
            <g id="row-1" transform="translate(60.000000, 58.000000)" fill="#000000" fill-rule="nonzero">
                <g id="icon---2" transform="translate(64.000000, 0.000000)">
                    <path d="M6.53084704,10.6205016 L6.58010416,10.5283993 C6.84122849,10.0401417 7.44939388,9.8570107 7.93670369,10.1198994 C8.8053549,10.5885102 9.58554714,10.9785772 10.2728081,11.2902269 C10.0958092,10.8363794 10,10.3454501 10,9.83772234 L10,6.99999994 C10,6.71525117 10.0297536,6.43745166 10.0863215,6.16954086 L7.90533586,4.40341355 C7.47613,4.05584949 7.40994624,3.42615306 7.75751029,2.99694719 C8.10507435,2.56774133 8.73477078,2.50155757 9.16397664,2.84912162 L11.0094244,4.34353576 C11.5294414,3.75853899 12.2185061,3.32716011 13,3.12601749 L13,0.999999938 C13,0.44771525 13.4477153,-6.20513667e-08 14,-6.20513667e-08 C14.5522847,-6.20513667e-08 15,0.44771525 15,0.999999938 L15,3.12601749 C15.7814939,3.32716011 16.4705586,3.75853899 16.9905756,4.34353576 L18.8360234,2.84912162 C19.2652292,2.50155757 19.8949257,2.56774133 20.2424897,2.99694719 C20.5900538,3.42615306 20.52387,4.05584949 20.0946641,4.40341355 L17.9136785,6.16954086 C17.9702464,6.43745166 18,6.71525117 18,6.99999994 L18,9.83772234 C18,11.1010265 17.4068543,12.2603335 16.4457612,13.0031977 C18.403461,13.8310067 19.8459024,15.1950453 20.3994137,16.6429098 C21.1273732,18.547093 21.6949089,20.6058683 22.1027782,22.8187363 C22.2160474,23.4332715 21.7442304,23.9999999 21.1193436,23.9999999 L10.2011051,23.9999999 C9.82485588,23.9999999 9.480451,23.78881 9.30983339,23.4534697 C8.97132898,22.7881564 8.54239431,22.3422862 7.94361965,21.9596323 C7.78680599,21.8594187 7.61922035,21.7634867 7.40897167,21.6516395 C7.31140563,21.5997368 6.92846094,21.4015119 6.83607155,21.352405 C6.05209275,20.9357045 5.59912256,20.5862322 5.26588729,19.9986058 C4.73130581,19.0559259 4.32306704,17.6533934 4.01320106,15.7653099 C3.97759059,15.5483272 4.01448969,15.3256566 4.11818781,15.131759 L4.95473523,13.5675593 C4.44333776,12.8885938 4.0680927,12.2200182 3.82900004,11.5618326 C3.40312762,12.2038242 2.37910448,12.1403436 2.07152331,11.3713907 L0.442913985,7.29986737 C0.150326163,6.56839781 0,5.78781676 0,4.99999994 L0,3.33770669 C0,1.8845279 0.941185393,0.784037886 2.61008202,0.0788565118 C2.8465278,-0.0210521099 3.11233836,-0.0262123763 3.35248365,0.0644440291 C5.04187066,0.702198609 6,1.80028734 6,3.29294766 L6,4.99999994 C6,5.78781698 5.8496738,6.56839791 5.55708601,7.29986737 L5.30051773,7.94128808 C5.52983518,8.82318793 5.76299593,9.46013743 6,9.85213657 C6.13954546,10.0829415 6.31649448,10.3390632 6.53084704,10.6205016 Z M12,8 L12,9.83772234 C12,10.6985832 12.5508602,11.4628608 13.3675445,11.7350889 L14,11.9459074 L14.6324555,11.7350889 C15.4491398,11.4628608 16,10.6985832 16,9.83772234 L16,8 L12,8 Z M12.2675644,6 L15.7324356,6 C15.3866262,5.40219863 14.7402824,5 14,5 C13.2597176,5 12.6133738,5.40219863 12.2675644,6 L12.2675644,6 Z M6.88690703,18.7846631 C7.47299022,18.2898296 7.85775501,17.6370778 8.05342197,16.8006832 C8.16350162,16.3301386 8.63419057,16.037924 9.10473517,16.1480036 C9.57527977,16.2580833 9.86749434,16.7287722 9.75741468,17.1993168 C9.50841922,18.2636686 9.02043268,19.1570913 8.30203416,19.8615258 C8.32029243,19.8711179 8.33597226,19.8793912 8.34828106,19.8859392 C8.60174198,20.0207742 8.81309412,20.1417597 9.02060493,20.2743719 C9.73462386,20.730674 10.3139101,21.2778627 10.7792108,22 L19.8988711,22 C19.5402937,20.3512186 19.0842941,18.8036703 18.5312738,17.3570902 C18.4548543,17.1571934 18.3469827,16.9557769 18.2102241,16.7566088 C18.0450884,18.0919576 17.5370929,19.1871848 16.6765986,20.0124799 C16.327831,20.3469809 15.7739324,20.3354155 15.4394314,19.9866479 C15.1049304,19.6378803 15.1164958,19.0839817 15.4652634,18.7494807 C16.1622785,18.0809776 16.5200116,17.0991514 16.5200116,15.7469388 C16.5200116,15.5955741 16.5584457,15.4531861 16.6260872,15.3290017 C15.6561435,14.7409252 14.3949571,14.3087991 12.9636611,14.210567 C11.8040169,14.1309788 10.1317573,13.5095519 7.87485036,12.3483222 L6.04328328,15.7730374 C6.28003427,17.112446 6.56659847,18.1212425 6.88690703,18.7846631 L6.88690703,18.7846631 Z M2.29986737,6.55708601 L3,8.3074176 L3.70013263,6.55708601 C3.77280729,6.37539936 3.83251818,6.18923736 3.87899567,6 L2.12100433,6 C2.16748182,6.18923736 2.22719271,6.37539936 2.29986737,6.55708601 Z M2,3.33770669 L2,4 L4,4 L4,3.29294766 C4,2.81273353 3.72133967,2.42674437 3.01907908,2.09296692 C2.29352969,2.46681708 2,2.87251388 2,3.33770669 Z" id="statue-of-liberty"></path>
                </g>
            </g>
            <g id="slices" transform="translate(60.000000, 58.000000)"></g>
        </g>
    </g>
</svg>