<?xml version="1.0" encoding="UTF-8"?>
<svg width="24px" height="24px" viewBox="0 0 24 24" version="1.1" xmlns="http://www.w3.org/2000/svg" xmlns:xlink="http://www.w3.org/1999/xlink">
    <!-- Generator: Sketch 56.3 (81716) - https://sketch.com -->
    <title>jollycons-landmarks/jollycons-landmarks/svg/icon-landmarks-icon-sydney-opera-house</title>
    <desc>Created with Sketch.</desc>
    <g id="icons" stroke="none" stroke-width="1" fill="none" fill-rule="evenodd">
        <g id="icons---export" transform="translate(-188.000000, -218.000000)">
            <g id="row-3" transform="translate(60.000000, 218.000000)" fill="#000000" fill-rule="nonzero">
                <g id="icon---13" transform="translate(128.000000, 0.000000)">
                    <path d="M19.3317171,13.1833982 C20.4926355,12.4692628 21.7070225,12.13227 22.9787638,12.1830125 C23.6457765,12.2096263 24.0999417,12.8698299 23.8862979,13.5022622 C23.0281042,16.0427033 22.4602377,18.2163261 22.1808502,20.0163114 C22.6468051,20.1014247 23,20.5094658 23,21 C23,21.5522847 22.5522847,22 22,22 L21.104313,22 C21.0855596,22.0010465 21.0666769,22.0015698 21.0476796,22.0015698 L20.8921354,22.0015698 L20.886889,22.0015698 L11.1594702,22.0015698 C11.140649,22.0015698 11.1219493,22.0010263 11.1033845,22 L2,22 C1.44771525,22 1,21.5522847 1,21 C1,20.4477153 1.44771525,20 2,20 L2.43535974,20 C1.88414158,18.9858603 1.16184579,17.912115 0.267478602,16.7807976 C-0.105722796,16.3087217 0.0195307557,15.6163455 0.534467494,15.3049372 C1.52707291,14.7046585 2.56232098,14.3240904 3.63737318,14.1597733 C3.21027903,13.3893703 2.7454395,12.5727698 2.24293107,11.7103205 C1.92251631,11.1603964 2.19055838,10.4550376 2.79532277,10.256689 C4.24862957,9.78003854 5.6778448,9.645808 7.07974449,9.84751686 C6.61187054,8.89283466 6.0904474,7.91342982 5.51531158,6.90939433 C5.15574391,6.28168397 5.56104369,5.4916672 6.28064289,5.41759839 C12.1209425,4.81645252 16.4853297,7.45833193 19.3317171,13.1833982 L19.3317171,13.1833982 Z M17.729963,14.4390559 C15.5114757,9.73539011 12.2915222,7.40730792 8.03914275,7.33723155 C10.5535304,12.0310445 11.9226867,16.2496194 12.1313439,20.0015463 L13.8765732,20.0015463 C15.0885379,17.6036886 16.3706321,15.7430671 17.729963,14.4390559 L17.729963,14.4390559 Z M8.12705667,12.1563888 C6.97353035,11.7646751 5.81127534,11.667433 4.63694839,11.857942 C6.63142226,15.3525759 7.97194133,18.0583861 8.66389119,19.999934 L10.1277665,19.999934 C9.97991333,17.6298179 9.31467671,15.0143651 8.12705667,12.1563888 L8.12705667,12.1563888 Z M4.67164913,16.0755492 C3.94385719,16.101021 3.24585279,16.2478306 2.57602956,16.5140202 C3.45729351,17.7243326 4.15701964,18.8855997 4.67418655,19.9999116 L6.52592855,19.9999116 C6.09768477,18.927175 5.47930616,17.6177522 4.67164913,16.0755492 L4.67164913,16.0755492 Z M20.1611353,20.0013604 C20.3912522,18.3832447 20.8382617,16.5087369 21.5010261,14.373639 C19.686341,14.9480903 17.8876536,16.7956591 16.1358018,20.00041 L20.1611353,20.0013604 Z" id="sydney-opera-house"></path>
                </g>
            </g>
            <g id="slices" transform="translate(60.000000, 58.000000)"></g>
        </g>
    </g>
</svg>