<?xml version="1.0" encoding="UTF-8"?>
<svg width="24px" height="24px" viewBox="0 0 24 24" version="1.1" xmlns="http://www.w3.org/2000/svg" xmlns:xlink="http://www.w3.org/1999/xlink">
    <!-- Generator: Sketch 56.3 (81716) - https://sketch.com -->
    <title>jollycons-landmarks/jollycons-landmarks/svg/icon-landmarks-icon-windmill</title>
    <desc>Created with Sketch.</desc>
    <g id="icons" stroke="none" stroke-width="1" fill="none" fill-rule="evenodd">
        <g id="icons---export" transform="translate(-124.000000, -138.000000)">
            <g id="row-2" transform="translate(60.000000, 138.000000)" fill="#000000" fill-rule="nonzero">
                <g id="icon---7" transform="translate(64.000000, 0.000000)">
                    <path d="M5.15287291,21 L5.78317266,17.2182015 L3.36827202,14.8033009 C2.96039769,14.3954265 2.98123464,13.7279937 3.41375716,13.3463562 L7.77296088,9.5 L3.41375716,5.65364378 C2.98123464,5.27200626 2.96039769,4.60457346 3.36827202,4.19669914 L6.19669914,1.36827202 C6.60457346,0.960397693 7.27200626,0.981234639 7.65364378,1.41375716 L11.5,5.77296088 L15.3463562,1.41375716 C15.7279937,0.981234639 16.3954265,0.960397693 16.8033009,1.36827202 L19.631728,4.19669914 C20.0396023,4.60457346 20.0187654,5.27200626 19.5862428,5.65364378 L15.241878,9.48690686 L18.872445,12.6333982 C19.3110032,13.013482 19.3349851,13.6858302 18.9246212,14.0961941 L17.0147968,16.0060185 L17.8471271,21 L19,21 C19.5522847,21 20,21.4477153 20,22 C20,22.5522847 19.5522847,23 19,23 L4,23 C3.44771525,23 3,22.5522847 3,22 C3,21.4477153 3.44771525,21 4,21 L5.15287291,21 Z M7.18046042,21 L15.8195396,21 L15.1856568,17.1967036 C14.9787712,17.1539477 14.7833419,17.0454569 14.6333982,16.872445 L11.4869069,13.241878 L7.77172399,17.4524186 L7.18046042,21 Z M8.59040269,7.55402888 C8.84551112,7.1733484 9.1733484,6.84551112 9.55402888,6.59040269 L6.85823203,3.53516626 L5.53516626,4.85823203 L8.59040269,7.55402888 L8.59040269,7.55402888 Z M13.4245377,12.4238469 L15.4413965,14.7509917 L16.7509917,13.4413965 L14.4238469,11.4245377 C14.1620197,11.8215154 13.8215154,12.1620197 13.4245377,12.4238469 L13.4245377,12.4238469 Z M8.59040269,11.4459711 L5.53516626,14.141768 L6.85823203,15.4648337 L9.55402888,12.4095973 C9.1733484,12.1544889 8.84551112,11.8266516 8.59040269,11.4459711 Z M14.4095973,7.55402888 L17.4648337,4.85823203 L16.141768,3.53516626 L13.4459711,6.59040269 C13.8266516,6.84551112 14.1544889,7.1733484 14.4095973,7.55402888 L14.4095973,7.55402888 Z M11.5,11 C12.3284271,11 13,10.3284271 13,9.5 C13,8.67157288 12.3284271,8 11.5,8 C10.6715729,8 10,8.67157288 10,9.5 C10,10.3284271 10.6715729,11 11.5,11 Z" id="windmill"></path>
                </g>
            </g>
            <g id="slices" transform="translate(60.000000, 58.000000)"></g>
        </g>
    </g>
</svg>