<svg xmlns="http://www.w3.org/2000/svg" width="24" height="24" viewBox="0 0 24 24">
  <path d="M13.5355058,11.1650565 L13.3944272,11.4472136 C13.1474379,11.9411921 12.5467649,12.1414164 12.0527864,11.8944272 C11.5588079,11.6474379 11.3585836,11.0467649 11.6055728,10.5527864 L11.659503,10.4449259 C11.6284388,10.4305426 11.5981196,10.4162788 11.5685445,10.4021342 C10.1964087,9.74589538 9.12676647,8.26651945 8.2892103,6 L5.82642928,6 C5.30922607,6 4.87736145,6.3943851 4.83053607,6.90946425 L4.29331205,12.8189285 C4.28783914,12.8791305 4.28509846,12.9395497 4.28509846,13 C4.28509846,14.1045695 5.18052896,15 6.28509846,15 L19,15 L19,14 C19,13.2754291 18.5161028,12.6400685 17.8175979,12.4474861 C17.5391559,12.3707217 17.2690527,12.2954182 17.0072546,12.2215588 L16.8944272,12.4472136 C16.6474379,12.9411921 16.0467649,13.1414164 15.5527864,12.8944272 C15.0917366,12.6639023 14.8865829,12.1252752 15.062096,11.6528584 C14.4979415,11.4809045 13.9892752,11.3184014 13.5355058,11.1650565 Z M17,18 L22,18 C22.5522847,18 23,18.4477153 23,19 C23,19.5522847 22.5522847,20 22,20 L2,20 C1.44771525,20 1,19.5522847 1,19 C1,18.4477153 1.44771525,18 2,18 L5,18 L5,16.7890929 C3.4212657,16.2538281 2.28509846,14.7595971 2.28509846,13 C2.28509846,12.8790994 2.29057981,12.7582611 2.30152563,12.637857 L2.83874966,6.72839276 C2.97922579,5.18315529 4.27481966,4 5.82642928,4 L9,4 C9.43235599,4 9.81574778,4.27785925 9.95032398,4.68873751 C10.6671525,6.87730605 11.5252606,8.1644682 12.4314555,8.59786578 C13.3693187,9.04640905 15.3574232,9.69461978 18.3491647,10.5194205 C19.9151567,10.9511749 21,12.375582 21,14 L21,15 C21,16.1045695 20.1045695,17 19,17 L17,17 L17,18 Z M15,18 L15,17 L7,17 L7,18 L15,18 Z"/>
</svg>
