<svg xmlns="http://www.w3.org/2000/svg" width="24" height="24" viewBox="0 0 24 24">
  <path d="M20.0644804,8 C18.5917778,5.03656304 15.5337213,3 12,3 C7.02943725,3 3,7.02943725 3,12 C3,14.2283986 3.81184312,16.5131974 5.22550115,18.3571231 L16.8394001,20.2927729 C17.9271741,19.4691562 18.850362,18.402517 19.5486857,17.2018795 L14.4531172,16.069531 C12.456676,15.6258774 10.8237106,14.1958682 10.1205193,12.2754183 L9.53914988,10.6876699 C9.45848586,10.4673725 9.41721007,10.234601 9.41721007,10 C9.41721007,8.8954305 10.3126406,8 11.4172101,8 L20.0644804,8 Z M20.7769836,10 L11.4172101,10 L11.9985795,11.5877484 C12.4673737,12.8680483 13.5560173,13.8213878 14.8869781,14.1171569 L20.4093172,15.3443433 C20.7917346,14.2639554 21,13.1286075 21,12 C21,11.312612 20.9229386,10.6432227 20.7769836,10 Z M3.9093424,19.9153672 C2.06643985,17.673774 1,14.8191591 1,12 C1,5.92486775 5.92486775,1 12,1 C18.0751322,1 23,5.92486775 23,12 C23,15.956977 20.8976655,19.9245511 17.6566826,22.1698737 C17.4427657,22.3180734 17.1795021,22.3770441 16.9228053,22.3342613 L4.51740021,20.2666938 C4.27890682,20.2269449 4.06289095,20.1021342 3.9093424,19.9153672 Z"/>
</svg>
