<svg xmlns="http://www.w3.org/2000/svg" width="24" height="24" viewBox="0 0 24 24">
  <path fill-rule="evenodd" d="M19.846,16.027 L17.116,14.803 C16.68,14.607 16.166,14.716 15.847,15.073 L13.851,17.301 C13.535,17.655 13.48,18.172 13.718,18.583 L14.84,20.535 C13.946,20.833 12.993,21 12,21 C10.632,21 9.341,20.686 8.18,20.14 L8.49,17.144 C8.539,16.672 8.279,16.222 7.846,16.027 L5.116,14.803 C4.68,14.607 4.166,14.716 3.847,15.073 L3.636,15.309 C3.229,14.284 3,13.17 3,12 C3,11.435 3.058,10.883 3.158,10.347 L4.314,10.101 C4.781,10.001 5.131,9.612 5.18,9.138 L5.49,6.144 C5.501,6.032 5.493,5.923 5.472,5.816 C6.294,4.949 7.283,4.244 8.392,3.757 L9.218,5.192 C9.456,5.606 9.933,5.819 10.4,5.72 L13.314,5.101 C13.781,5.001 14.131,4.612 14.181,4.138 L14.266,3.299 C15.364,3.585 16.379,4.069 17.271,4.716 L15.851,6.301 C15.535,6.655 15.48,7.172 15.718,7.583 L17.218,10.192 C17.456,10.606 17.933,10.819 18.4,10.72 L20.819,10.206 C20.937,10.786 21,11.386 21,12 C21,13.488 20.633,14.888 19.993,16.124 C19.944,16.091 19.9,16.052 19.846,16.027 Z M16.625,19.627 L15.775,18.151 L16.898,16.897 L18.433,17.586 L18.351,18.374 C17.893,18.832 17.382,19.233 16.833,19.583 L16.625,19.627 Z M6.292,18.957 C5.665,18.443 5.114,17.842 4.646,17.179 L4.898,16.897 L6.433,17.586 L6.292,18.957 Z M12.258,3.28 L10.625,3.627 L10.354,3.157 C10.889,3.059 11.436,3 12,3 C12.096,3 12.189,3.011 12.285,3.015 L12.258,3.28 Z M18.75,6.062 C19.336,6.727 19.824,7.477 20.194,8.294 L18.625,8.627 L17.775,7.151 L18.75,6.062 Z M1,12 C1,18.075 5.924,23 12,23 C18.074,23 23,18.075 23,12 C23,5.925 18.074,1 12,1 C5.924,1 1,5.925 1,12 Z M11.2576,12.2803 L9.6246,12.6273 L8.7756,11.1513 L9.8986,9.8973 L11.4336,10.5863 L11.2576,12.2803 Z M10.1156,7.8033 C9.6796,7.6073 9.1656,7.7163 8.8466,8.0733 L6.8516,10.3013 C6.5346,10.6553 6.4806,11.1723 6.7176,11.5833 L8.2176,14.1923 C8.4556,14.6063 8.9336,14.8193 9.4006,14.7203 L12.3146,14.1003 C12.7806,14.0013 13.1306,13.6123 13.1806,13.1373 L13.4896,10.1443 C13.5386,9.6723 13.2786,9.2213 12.8456,9.0273 L10.1156,7.8033 Z"/>
</svg>
