<svg xmlns="http://www.w3.org/2000/svg" width="24" height="24" viewBox="0 0 24 24">
  <path d="M13.1722871,3.27279221 L11.7580736,4.68700577 L18.8291414,11.7580736 L20.243355,10.34386 L13.1722871,3.27279221 Z M20.8090404,8.08111832 L21.5161472,7.37401154 L16.1421356,2 L15.4350288,2.70710678 L20.8090404,8.08111832 Z M11.7580736,18.8291414 L4.68700577,11.7580736 L3.27279221,13.1722871 L10.34386,20.243355 L11.7580736,18.8291414 Z M2.70710678,15.4350288 L2,16.1421356 L7.37401154,21.5161472 L8.08111832,20.8090404 L2.70710678,15.4350288 Z M14.5865007,10.34386 L10.34386,14.5865007 L13.1722871,17.4149278 C13.9533357,18.1959764 13.9533357,19.4623064 13.1722871,20.243355 L11.0509668,22.3646753 C10.6604425,22.7551996 10.0272775,22.7551996 9.63675324,22.3646753 L9.49533188,22.2232539 L8.7882251,22.9303607 C8.00717652,23.7114093 6.74084656,23.7114093 5.95979797,22.9303607 L3.97989899,20.9504617 L3.46518036,21.4651804 C2.52237132,22.4079894 1.10815776,20.9937758 2.0509668,20.0509668 L2.56568542,19.5362482 L0.585786438,17.5563492 C-0.195262146,16.7753006 -0.195262146,15.5089706 0.585786438,14.7279221 L1.29289322,14.0208153 L1.15147186,13.8793939 C0.760947571,13.4888696 0.760947571,12.8557047 1.15147186,12.4651804 L3.27279221,10.34386 C4.05384079,9.56281143 5.32017075,9.56281143 6.10121933,10.34386 L8.92964646,13.1722871 L13.1722871,8.92964646 L10.34386,6.10121933 C9.56281143,5.32017075 9.56281143,4.05384079 10.34386,3.27279221 L12.4651804,1.15147186 C12.8557047,0.760947571 13.4888696,0.760947571 13.8793939,1.15147186 L14.0208153,1.29289322 L14.7279221,0.585786438 C15.5089706,-0.195262146 16.7753006,-0.195262146 17.5563492,0.585786438 L19.5362482,2.56568542 L20.0509668,2.0509668 C20.9937758,1.10815776 22.4079894,2.52237132 21.4651804,3.46518036 L20.9504617,3.97989899 L22.9303607,5.95979797 C23.7114093,6.74084656 23.7114093,8.00717652 22.9303607,8.7882251 L22.2232539,9.49533188 L22.3646753,9.63675324 C22.7551996,10.0272775 22.7551996,10.6604425 22.3646753,11.0509668 L20.243355,13.1722871 C19.4623064,13.9533357 18.1959764,13.9533357 17.4149278,13.1722871 L14.5865007,10.34386 Z"/>
</svg>
