<svg xmlns="http://www.w3.org/2000/svg" width="24" height="24" viewBox="0 0 24 24">
  <path fill="#000000" d="M17,4 L17,2 C17,1.44771525 17.4477153,1 18,1 C18.5522847,1 19,1.44771525 19,2 L19,4 L21,4 L21,2 C21,1.44771525 21.4477153,1 22,1 C22.5522847,1 23,1.44771525 23,2 L23,4 C23.5522847,4 24,4.44771525 24,5 L24,7 C24,8.65685425 22.6568542,10 21,10 L21,19.5 C21,20.8807119 19.8807119,22 18.5,22 C17.1192881,22 16,20.8807119 16,19.5 L16,16 C16,15.4477153 15.5522847,15 15,15 L15,21 C15.5522847,21 16,21.4477153 16,22 C16,22.5522847 15.5522847,23 15,23 L2,23 C1.44771525,23 1,22.5522847 1,22 C1,21.4477153 1.44771525,21 2,21 L2,5 C2,3.34314575 3.34314575,2 5,2 L12,2 C13.6568542,2 15,3.34314575 15,5 L15,13 C16.6568542,13 18,14.3431458 18,16 L18,19.5 C18,19.7761424 18.2238576,20 18.5,20 C18.7761424,20 19,19.7761424 19,19.5 L19,10 C17.3431458,10 16,8.65685425 16,7 L16,5 C16,4.44771525 16.4477153,4 17,4 Z M4,9 L4,21 L13,21 L13,9 L4,9 Z M4,7 L13,7 L13,5 C13,4.44771525 12.5522847,4 12,4 L5,4 C4.44771525,4 4,4.44771525 4,5 L4,7 Z M9.90576911,10.8929448 L9.33358183,13.9407744 C9.32848665,13.9679145 9.3463576,13.9940463 9.37349771,13.9991415 C9.37653971,13.9997126 9.37962818,14 9.38272333,14 L10.9585253,14 C11.2346677,14 11.4585253,14.2238576 11.4585253,14.5 C11.4585253,14.5986007 11.4293724,14.6950003 11.3747324,14.7770769 L8.03806857,19.7891988 C7.88504321,20.0190636 7.57464937,20.0813543 7.34478451,19.928329 C7.17861797,19.8177088 7.09417127,19.6188516 7.12996512,19.4224669 L7.74301007,16.0589655 C7.74796157,16.0317988 7.72995261,16.0057619 7.70278593,16.0008104 C7.69982788,16.0002712 7.69682722,16 7.69382043,16 L5.82976989,16 C5.55362751,16 5.32976989,15.7761424 5.32976989,15.5 C5.32976989,15.3904229 5.36576639,15.2838799 5.43222359,15.196756 L9.01680773,10.4974445 C9.18428479,10.2778857 9.4980393,10.2356651 9.71759806,10.4031422 C9.86783205,10.5177391 9.94063305,10.7072375 9.90576911,10.8929448 Z M22,6 L18,6 L18,7 C18,7.55228475 18.4477153,8 19,8 L21,8 C21.5522847,8 22,7.55228475 22,7 L22,6 Z"/>
</svg>
