<svg xmlns="http://www.w3.org/2000/svg" width="24" height="24" viewBox="0 0 24 24">
  <path fill="#000000" d="M6,23 C6,23.5522847 5.55228475,24 5,24 L1,24 C0.44771525,24 0,23.5522847 0,23 L0,17 C-8.8817842e-16,16.4477153 0.44771525,16 1,16 L5,16 C5.24162404,16 5.46323292,16.0856951 5.63609171,16.2283504 L9.067157,15.1911457 C9.47447119,15.0680154 9.89583733,14.9973837 10.3210388,14.9809634 L15.8191455,14.7686383 C16.887531,14.7273796 17.855228,15.3953908 18.1970007,16.4137283 C18.2101892,16.4533418 18.2221027,16.4930728 18.2327636,16.5328769 L20.7576217,15.778695 C22.1076407,15.3754407 23.5289494,16.1429451 23.9322037,17.4929641 C23.9467846,17.543019 23.9467846,17.543019 23.9599964,17.5934525 C24.3091888,18.9644607 23.6495507,20.3925345 22.3793183,21.0155181 L17.623685,23.3479114 C16.3071704,23.993594 14.8211315,24.2095481 13.3752899,23.9652966 L7.7439391,23.013971 C7.68890177,23.0046733 7.63318261,23 7.57736546,23 L6,23 Z M6,21 L7.57736546,21 C7.74481691,21 7.91197439,21.01402 8.07708639,21.041913 L13.7084372,21.9932385 C14.7411812,22.1677039 15.8026376,22.013451 16.7430051,21.5522491 L21.4986384,19.2198558 C21.9191092,19.0136366 22.1374618,18.5409174 22.0218725,18.087088 C22.0190182,18.0761924 22.0190182,18.0761924 22.0158682,18.0653786 C21.9287498,17.7737225 21.6216923,17.607912 21.3300363,17.6950304 L16.6152584,19.1033472 L14.3833858,19.8463996 C14.0777978,19.9481383 13.7578204,20.0000036 13.4357415,20.0000036 L11.2779532,20.0000036 C10.7256684,20.0000036 10.2779532,19.5522883 10.2779532,19.0000036 C10.2779532,18.4477188 10.7256684,18.0000036 11.2779532,18.0000036 L13.4357415,18.0000036 C13.5431011,18.0000036 13.6497602,17.9827152 13.7516229,17.9488023 L15.8332876,17.2557582 C15.8665384,17.2417607 15.9008774,17.2294175 15.9362359,17.2188558 L16.0130239,17.195919 L16.2663248,17.1115881 C16.2937113,17.1024704 16.3085211,17.0728778 16.2993632,17.045371 C16.2416629,16.8734519 16.0775322,16.7601508 15.8963237,16.7671486 L10.398217,16.9794737 C10.1430961,16.9893259 9.89027642,17.0317049 9.6458879,17.1055831 L6,18.2077283 L6,21 Z M2,22 L4,22 L4,18 L2,18 L2,22 Z M13,13.9 C9.18923523,13.9 6.1,10.8107648 6.1,7 C6.1,3.91696396 8.13967192,1.23349817 11.0545316,0.378311858 C11.6815036,0.194365468 12.3349309,0.1 13,0.1 C16.8107648,0.1 19.9,3.18923523 19.9,7 C19.9,7.68068401 19.8011503,8.34912582 19.6086338,8.9894186 C18.7388584,11.8822147 16.0663365,13.9 13,13.9 Z M13.7047849,12.0514054 C15.402455,11.8156325 16.8603921,10.7397899 17.5952856,9.21624958 C17.5856589,9.20849971 17.5762104,9.20047392 17.5669521,9.1921756 C17.2786597,8.9337761 17.2544267,8.49059477 17.5128262,8.20230239 L17.8904968,7.780941 C17.9665496,7.69609007 18.0288048,7.60105746 18.075934,7.49931517 C18.0919295,7.33432544 18.1,7.16775927 18.1,7 C18.1,6.848805 18.0934207,6.69914668 18.0805327,6.55129573 C18.0328829,6.44575712 17.9690497,6.34725482 17.8904968,6.2596146 L17.1351556,5.41689183 C16.8430418,5.090985 16.6815,4.6687252 16.6815,4.23106588 C16.6815,4.14702935 16.6964991,4.06366738 16.7257918,3.98490141 C16.7649367,3.87964349 16.8265161,3.78926079 16.9030919,3.7171588 C16.0866419,2.74745583 14.9154335,2.08630339 13.5894633,1.93369814 C13.5222893,2.07843577 13.4271248,2.21165294 13.3060509,2.32477047 C13.0332531,2.57964115 12.8075176,2.88060357 12.6392057,3.21384338 L12.5297046,3.43064396 C12.6917851,4.35965547 12.7099245,4.5073655 12.642181,4.64149049 C12.3034788,4.86325295 12.3034788,4.86325295 12.1221642,4.72236044 C12.0694395,4.65931945 12.0694395,4.65931945 12.0485305,4.62103104 C12.0257492,4.57948982 12.0002456,4.52310071 11.9690174,4.44702866 C11.9566021,4.41678476 11.9431332,4.38302752 11.9286013,4.34573541 C11.6791384,4.53511492 11.3610282,4.62613489 11.0381237,4.58681825 L10.6332935,4.67246801 C10.5895208,4.67136087 10.5459187,4.67832644 10.5046696,4.69301605 C10.3191751,4.75907431 10.2223529,4.9629981 10.2884112,5.14849258 L10.3316736,5.31054144 L10.362393,5.94040638 C10.3667056,6.02883057 10.334051,6.11400998 10.2739954,6.17654106 C10.3146704,6.13264016 10.3175263,6.12165275 10.319525,6.1299573 C10.3430624,6.22775549 10.407083,6.37973708 10.5114701,6.57786517 C10.6835682,6.90450965 11.027694,7.44902277 11.3324381,7.8875066 C11.4502944,8.0570852 11.4192208,8.23331249 11.2749058,8.73639658 C11.1905018,9.03063008 10.7801101,9.04801483 10.6711249,8.76197356 L10.2153142,7.5656586 L9.68186734,7.15634591 L9.60583476,7.07273406 L9.08426516,6.24007702 C8.71122405,6.12052847 8.42409463,5.81112885 8.33744574,5.42148248 L8.26614165,5.10083929 C8.02926474,5.69093428 7.9,6.33283441 7.9,7 C7.9,9.71565104 10.0225285,11.935559 12.6991344,12.0912726 L12.6991344,11.5868798 C12.6991344,11.3852752 12.7350626,11.1852839 12.8052341,10.9962856 L12.9254876,10.6723974 L12.866379,10.4024438 C12.7597246,9.91534465 12.4552144,9.49458118 12.0258524,9.24102833 L11.9522387,9.19755698 C11.6182833,9.00034493 11.5017359,8.57329446 11.6892114,8.23377745 L11.8063258,8.02168385 C11.9516736,7.75845988 12.1396046,7.52112017 12.3624934,7.31929498 C12.5472968,7.15195601 12.8301579,7.15643343 13.0095724,7.32953762 C13.1791938,7.49320933 13.3001445,7.59140149 13.3724164,7.62412247 C13.4829593,7.67417064 13.8307559,7.73002591 14.4158062,7.79168828 L15.6268776,8.11622557 C15.9151764,8.19348255 16.1809395,8.33826743 16.4021853,8.53860494 C16.6010964,8.71871839 16.6524604,9.01082744 16.5269226,9.24799139 C16.2907658,9.69414315 16.1369719,9.96572621 16.0655443,10.0627424 C15.9746112,10.1862519 15.7501839,10.3894703 15.3922623,10.6723974 L13.9472374,11.720614 L13.7853169,11.9405419 C13.7582338,11.9773274 13.7313893,12.0142827 13.7047849,12.0514054 Z M12.7808904,6.76202662 C12.6699037,6.83205025 12.5647891,6.87291008 12.4444445,6.87291008 C12.3948178,6.87291008 12.3428141,6.87657725 12.2630348,6.8847816 C12.1098861,6.90053111 12.115751,6.89999499 12.0658436,6.89999499 C11.8557259,6.89999499 11.6815,6.8348421 11.6815,6.55441007 C11.6815,6.17059952 11.7669741,5.90705806 11.9821094,5.766575 C12.1858254,5.63354875 12.4055115,5.66273866 12.641067,5.77910488 C12.6579986,5.78746924 12.6748845,5.79622626 12.6918815,5.80543954 C13.0027417,5.91410804 13.3185,6.12036996 13.3185,6.31592361 C13.3185,6.48538078 12.9866245,6.67175507 12.7808904,6.76202662 Z"/>
</svg>
