<svg xmlns="http://www.w3.org/2000/svg" width="24" height="24" viewBox="0 0 24 24">
  <path fill="#000000" d="M22,9.17070571 C23.1651924,9.58254212 24,10.6937812 24,12 L24,22.5 C24,23.3284271 23.3284271,24 22.5,24 L2.5,24 C1.67157288,24 1,23.3284271 1,22.5 L1,12 C1,10.3431458 2.34314575,9 4,9 L9,9 L9,1.5 C9,0.671572875 9.67157288,1.11022302e-16 10.5,0 L13.5,0 C14.3284271,-2.22044605e-16 15,0.671572875 15,1.5 L15,9 L16,9 L16,1.5 C16,0.671572875 16.6715729,0 17.5,0 L20.5,0 C21.3284271,0 22,0.671572875 22,1.5 L22,9.17070571 Z M21,11 L4,11 C3.44771525,11 3,11.4477153 3,12 L3,22 L22,22 L22,12 C22,11.4477153 21.5522847,11 21,11 Z M5.00682096,18.8034392 C4.07447196,17.3986035 4.28276924,15.4860657 5.56883841,14.3190995 C6.38210852,13.5619828 7.09944703,13.265289 8.32191973,13.0072387 C8.49519162,12.9709703 8.58396817,12.9523618 8.65928392,12.9360898 C9.43590298,12.768301 9.82464605,12.5993328 10.2151186,12.1993769 C10.5599965,11.786407 11.1233478,11.8763639 11.4061249,12.2273089 C11.4887006,12.3297908 11.5368353,12.4314948 11.580952,12.5578802 C11.6341424,12.7102596 11.681988,12.9145651 11.7230265,13.1557974 C11.8121458,13.6796579 11.8621673,14.3297384 11.852681,14.9838914 C11.8259923,16.8242817 11.3700195,18.4000431 10.3241747,19.3753092 C10.25595,19.438351 10.1895158,19.4967032 10.1222957,19.5527246 C8.96830443,20.5152921 7.3668355,20.6039736 6.13528522,19.8760971 C7.56993488,18.9796257 8.59971722,17.8717581 9.20830654,16.5512983 C9.3816856,16.1751167 9.21728169,15.7296098 8.84110011,15.5562308 C8.46491854,15.3828517 8.01941162,15.5472556 7.84603256,15.9234372 C7.32371154,17.0567202 6.38417016,18.0172236 5.00682096,18.8034392 Z M11,4 L13,4 L13,2 L11,2 L11,4 Z M11,9 L13,9 L13,6 L11,6 L11,9 Z M18,4 L20,4 L20,2 L18,2 L18,4 Z M18,9 L20,9 L20,6 L18,6 L18,9 Z M15.5,18 L16.5,18 C16.7761424,18 17,18.2238576 17,18.5 L17,19.5 C17,19.7761424 16.7761424,20 16.5,20 L15.5,20 C15.2238576,20 15,19.7761424 15,19.5 L15,18.5 C15,18.2238576 15.2238576,18 15.5,18 Z M18.5,18 L19.5,18 C19.7761424,18 20,18.2238576 20,18.5 L20,19.5 C20,19.7761424 19.7761424,20 19.5,20 L18.5,20 C18.2238576,20 18,19.7761424 18,19.5 L18,18.5 C18,18.2238576 18.2238576,18 18.5,18 Z M15.5,14 L16.5,14 C16.7761424,14 17,14.2238576 17,14.5 L17,15.5 C17,15.7761424 16.7761424,16 16.5,16 L15.5,16 C15.2238576,16 15,15.7761424 15,15.5 L15,14.5 C15,14.2238576 15.2238576,14 15.5,14 Z M18.5,14 L19.5,14 C19.7761424,14 20,14.2238576 20,14.5 L20,15.5 C20,15.7761424 19.7761424,16 19.5,16 L18.5,16 C18.2238576,16 18,15.7761424 18,15.5 L18,14.5 C18,14.2238576 18.2238576,14 18.5,14 Z"/>
</svg>
