<svg xmlns="http://www.w3.org/2000/svg" width="24" height="24" viewBox="0 0 24 24">
  <path fill="#000000" d="M18.9941618,10.7437324 L19.0000034,8.4973995 C19,7.11928813 20.1192881,6 21.5,6 C22.8807119,6 24,7.11928813 24,8.5 L24,14.2593209 C24,15.2096525 23.661647,16.128939 23.0455497,16.8525095 L20.2232283,20.3340131 C20.0788113,20.5121366 20,20.7344828 20,20.9637953 L20,23 C20,23.5522847 19.5522847,24 19,24 L14,24 C13.4477153,24 13,23.5522847 13,23 L13,21.3242008 L12.9999865,21.3189496 L12.9999865,17.2024534 C12.9999865,15.991558 13.4394181,14.8218058 14.2366816,13.9104121 L16.2701672,11.5858281 C16.9660257,10.7903557 18.0287403,10.4948745 18.9941618,10.7437324 Z M20.3970955,14.9040101 L18.6546658,17.036927 C18.3052607,17.4646354 17.6752857,17.5281129 17.2475772,17.1787078 C16.8198687,16.8293027 16.7563913,16.1993277 17.1057964,15.7716193 L18.8482261,13.6387024 C19.0521238,13.3891102 19.0150811,13.021484 18.7654889,12.8175863 C18.7601855,12.8132882 18.7601855,12.8132882 18.7548157,12.8090733 C18.4551728,12.5757597 18.0255293,12.6168106 17.7754892,12.9026446 L15.7420035,15.2272286 C15.2636454,15.7740648 14.9999865,16.4759162 14.9999865,17.2024534 L14.9999865,20.9947488 L15,21 L14.9999865,22 L18,22 L18,20.9637953 C18,20.2758576 18.2364339,19.6088191 18.6696848,19.0744485 L21.5073906,15.5744301 C21.8308235,15.1941299 22,14.7344867 22,14.2593209 L22,8.5 C22,8.22385763 21.7761424,8 21.5,8 C21.2238576,8 21,8.22385763 21,8.5 L20.9863643,13.7447563 C20.9856538,14.017968 20.8754439,14.2653043 20.6973848,14.4453308 C20.6154291,14.6053301 20.5154271,14.7591598 20.3970955,14.9040101 Z M5.00583822,10.7437264 C5.97125355,10.4948793 7.03395675,10.7903621 7.72980972,11.5858281 L9.76329534,13.9104121 C10.5605588,14.8218058 10.9999904,15.991558 10.9999904,17.2024534 L10.9999904,20.9955704 L11,21 L11,23 C11,23.5522847 10.5522847,24 10,24 L5,24 C4.44771525,24 4,23.5522847 4,23 L4,20.9637953 C4,20.7344828 3.92118871,20.5121366 3.77677172,20.3340131 L0.954450277,16.8525095 C0.338353047,16.128939 -3.73034936e-14,15.2096525 -3.73034936e-14,14.2593209 L-3.73034936e-14,8.5 C-3.73034936e-14,7.11928813 1.11928813,6 2.5,6 C3.88071187,6 5,7.11928813 4.99999662,8.4973995 L5.00583822,10.7437264 Z M3.01363567,13.7447563 L3,8.5 C3,8.22385763 2.77614237,8 2.5,8 C2.22385763,8 2,8.22385763 2,8.5 L2,14.2593209 C2,14.7344867 2.16917652,15.1941299 2.49260943,15.5744301 L5.33031515,19.0744485 C5.76356614,19.6088191 6,20.2758576 6,20.9637953 L6,22 L9,22 L9,21.3233792 L8.9999904,17.2024534 C8.9999904,16.4759162 8.73633145,15.7740648 8.25797337,15.2272286 L6.22448774,12.9026446 C5.97444762,12.6168106 5.54480406,12.5757597 5.24516116,12.8090733 C5.23979137,12.8132882 5.23979137,12.8132882 5.23448796,12.8175863 C4.98489577,13.021484 4.94785307,13.3891102 5.15175078,13.6387024 L6.89418055,15.7716193 C7.24358562,16.1993277 7.18010817,16.8293027 6.75239969,17.1787078 C6.32469122,17.5281129 5.69471622,17.4646354 5.34531114,17.036927 L3.60288137,14.9040101 C3.48453786,14.7591452 3.38452758,14.6052991 3.30256732,14.4452824 C3.12453635,14.2652599 3.0143461,14.0179435 3.01363567,13.7447563 Z M11,9 L10.2491205,9 C7.31350923,9 4.93372608,6.62021685 4.93372608,3.68460557 C4.93372608,3.41792324 4.95379589,3.15161905 4.9937655,2.88794901 C5.06163792,2.44021067 5.42192515,2.09396945 5.87200729,2.04394597 L6.36222417,1.9894618 C8.44192825,1.75831726 10.3908244,2.623432 11.6321821,4.12345132 C12.7489643,2.0247908 15.0655501,0.710869918 17.5721578,0.989461802 L18.0623747,1.04394597 C18.5124568,1.09396945 18.872744,1.44021067 18.9406165,1.88794901 C18.9805861,2.15161905 19.0006559,2.41792324 19.0006559,2.68460557 C19.0006559,5.62021685 16.6208727,8 13.6852615,8 L13.0002571,8 L13.0000808,8.01387002 L13,8.01882887 L13,12 C13,12.5522847 12.5522847,13 12,13 C11.4477153,13 11,12.5522847 11,12 L11,9 Z M10.2491205,7 L10.8906241,7 C10.4580437,5.19267885 8.8143372,3.91450341 6.94446398,3.95339018 C7.08128169,5.65873121 8.50856605,7 10.2491205,7 Z M13.6852615,6 C15.4258159,6 16.8531003,4.65873121 16.989918,2.95339018 C15.1200448,2.91450341 13.4763383,4.19267885 13.0437578,6 L13.6852615,6 Z"/>
</svg>
