<svg xmlns="http://www.w3.org/2000/svg" width="24" height="24" viewBox="0 0 24 24">
  <path fill="#000000" d="M11.1260175,6 L6.5508584,6 C5.14205821,6 4,7.14205821 4,8.5508584 C4,9.9596586 5.14205821,11.1017168 6.5508584,11.1017168 L16.5508584,11.1017168 C19.0080515,11.1017168 21,13.0936653 21,15.5508584 C21,18.0080515 19.0080515,20 16.5508584,20 L12.0370923,20 C11.6968859,21.5614375 10.4839673,22.8629649 8.82298035,23.2363476 C7.51098385,23.5485804 6.57916253,23.4305728 5.15142376,22.9700103 C4.95504391,22.9063015 4.85506571,22.8738989 4.76976537,22.8468247 C3.89402947,22.5688679 3.41658979,22.5164456 2.80333405,22.6926669 C2.12767556,22.9454525 1.53250444,22.4608869 1.44419499,21.8648803 C1.41911282,21.695599 1.43169738,21.5525572 1.4643596,21.3853261 C1.50252177,21.1899352 1.57755979,20.9450968 1.68198392,20.666056 C1.90718163,20.0642854 2.24863148,19.3546826 2.65384943,18.6762305 C3.79781886,16.7608947 5.22677548,15.3777279 6.91514822,14.9743371 C6.93033301,14.970778 6.93033301,14.970778 6.94260985,14.9679608 C6.95538083,14.9650321 6.95538083,14.9650321 6.97057746,14.9616254 C9.19630825,14.4655345 11.4032841,15.8180624 11.9876422,18 L16.5508584,18 C17.903482,18 19,16.903482 19,15.5508584 C19,14.1982348 17.903482,13.1017168 16.5508584,13.1017168 L6.5508584,13.1017168 C4.03748871,13.1017168 2,11.0642281 2,8.5508584 C2,6.03748871 4.03748871,4 6.5508584,4 L11.1260175,4 C11.5700603,2.27477279 13.1361606,1 15,1 L18,1 C18.5522847,1 19,1.44771525 19,2 L23,2 C23.5522847,2 24,2.44771525 24,3 C24,3.55228475 23.5522847,4 23,4 L19,4 L19,6 L23,6 C23.5522847,6 24,6.44771525 24,7 C24,7.55228475 23.5522847,8 23,8 L19,8 C19,8.55228475 18.5522847,9 18,9 L15,9 C13.1361606,9 11.5700603,7.72522721 11.1260175,6 Z M10.0557143,19.2049331 C9.12874719,19.1764024 8.22059523,19.4477951 7.31241786,20.0279946 C6.96335729,20.2509959 6.49960949,20.1488047 6.27660816,19.7997442 C6.05360683,19.4506836 6.15579804,18.9869358 6.50485861,18.7639345 C7.52200118,18.1141213 8.5744198,17.7605731 9.64940872,17.7092804 C9.13271665,17.0575987 8.27188622,16.7206554 7.40567862,16.9137235 C7.39765061,16.9155232 7.39765061,16.9155232 7.3896315,16.9173621 C7.38211569,16.919086 7.38211569,16.919086 7.37539429,16.9206546 C6.33495282,17.1692509 5.2648201,18.2050921 4.37090109,19.7017711 C4.19122853,20.002595 4.02643769,20.310439 3.88393045,20.6056168 C4.34013858,20.6489566 4.81792217,20.763785 5.37481576,20.9405419 C5.46691954,20.9697755 5.57402466,21.0044879 5.76543128,21.0665937 C6.87837738,21.4256098 7.4785092,21.5012839 8.36537204,21.2893921 L8.38020369,21.2859676 C9.32424937,21.0755503 9.99515711,20.2978902 10.1142489,19.3915248 C10.0889234,19.3320622 10.0691916,19.2696446 10.0557143,19.2049331 Z M17,3 L15,3 C13.8954305,3 13,3.8954305 13,5 C13,6.1045695 13.8954305,7 15,7 L17,7 L17,3 Z"/>
</svg>
