<svg xmlns="http://www.w3.org/2000/svg" width="24" height="24" viewBox="0 0 24 24">
  <path fill="#000000" fill-rule="evenodd" d="M19,11 L21.8162355,11 C22.920805,11 23.8162355,11.8954305 23.8162355,13 C23.8162355,13.1713716 23.7942097,13.3420325 23.7506994,13.5077886 L22.1757248,19.5077886 C21.9449346,20.3870035 21.1502619,21 20.2412609,21 L14,21 L14,22 L19,22 C19.5522847,22 20,22.4477153 20,23 C20,23.5522847 19.5522847,24 19,24 L5,24 C4.44771525,24 4,23.5522847 4,23 C4,22.4477153 4.44771525,22 5,22 L10,22 L10,21 L2.28404729,21 C1.17947779,21 0.284047291,20.1045695 0.284047291,19 C0.284047291,18.8286284 0.306073083,18.6579675 0.349583351,18.4922114 L1.92455798,12.4922114 C2.15534817,11.6129965 2.95002085,11 3.85902192,11 L5,11 C5,7.13400675 8.13400675,4 12,4 C15.8659932,4 19,7.13400675 19,11 Z M17,11 C17,8.23857625 14.7614237,6 12,6 C9.23857625,6 7,8.23857625 7,11 L17,11 Z M2.80903883,17 L2.28404729,19 L4.23186683,19 L4.73186683,17 L2.80903883,17 Z M3.33403038,15 L5.23186683,15 L5.73186683,13 L3.85902192,13 L3.33403038,15 Z M8.73186683,17 L6.79341965,17 L6.29341965,19 L8.23186683,19 L8.73186683,17 Z M9.23186683,15 L9.73186683,13 L7.79341965,13 L7.29341965,15 L9.23186683,15 Z M12.7318668,17 L10.7934196,17 L10.2934196,19 L12.2318668,19 L12.7318668,17 Z M13.2318668,15 L13.7318668,13 L11.7934196,13 L11.2934196,15 L13.2318668,15 Z M16.7318668,17 L14.7934196,17 L14.2934196,19 L16.2318668,19 L16.7318668,17 Z M17.2318668,15 L17.7318668,13 L15.7934196,13 L15.2934196,15 L17.2318668,15 Z M20.7662524,17 L18.7934196,17 L18.2934196,19 L20.2412609,19 L20.7662524,17 Z M21.2912439,15 L21.8162355,13 L19.7934196,13 L19.2934196,15 L21.2912439,15 Z M12,0 C12.5522847,-1.01453063e-16 13,0.44771525 13,1 L13,2 C13,2.55228475 12.5522847,3 12,3 C11.4477153,3 11,2.55228475 11,2 L11,1 C11,0.44771525 11.4477153,1.01453063e-16 12,0 Z M18.1717451,2.00532156 C18.6185529,2.32994639 18.7176017,2.95531606 18.3929769,3.40212381 L17.8051916,4.2111408 C17.4805668,4.65794855 16.8551971,4.75699737 16.4083894,4.43237254 C15.9615816,4.10774771 15.8625328,3.48237804 16.1871577,3.0355703 L16.7749429,2.2265533 C17.0995677,1.77974555 17.7249374,1.68069673 18.1717451,2.00532156 Z M21.9860934,7.25532156 C22.1567588,7.78057557 21.8693079,8.3447297 21.3440539,8.51539507 L20.3929974,8.82441206 C19.8677434,8.99507744 19.3035892,8.70762655 19.1329239,8.18237254 C18.9622585,7.65711853 19.2497094,7.0929644 19.7749634,6.92229903 L20.7260199,6.61328204 C21.2512739,6.44261666 21.815428,6.73006755 21.9860934,7.25532156 Z M2.01390658,7.25532156 C2.18457195,6.73006755 2.74872608,6.44261666 3.27398009,6.61328204 L4.22503661,6.92229903 C4.75029062,7.0929644 5.0377415,7.65711853 4.86707613,8.18237254 C4.69641075,8.70762655 4.13225663,8.99507744 3.60700262,8.82441206 L2.6559461,8.51539507 C2.13069209,8.3447297 1.84324121,7.78057557 2.01390658,7.25532156 Z M5.82825485,2.00532156 C6.2750626,1.68069673 6.90043227,1.77974555 7.2250571,2.2265533 L7.81284235,3.0355703 C8.13746718,3.48237804 8.03841836,4.10774771 7.59161061,4.43237254 C7.14480286,4.75699737 6.51943319,4.65794855 6.19480836,4.2111408 L5.60702311,3.40212381 C5.28239828,2.95531606 5.3814471,2.32994639 5.82825485,2.00532156 Z"/>
</svg>
