<?xml version="1.0" encoding="UTF-8"?>
<svg width="24px" height="24px" viewBox="0 0 24 24" version="1.1" xmlns="http://www.w3.org/2000/svg" xmlns:xlink="http://www.w3.org/1999/xlink">
    <!-- Generator: Sketch 52.3 (67297) - http://www.bohemiancoding.com/sketch -->
    <title>jollycons-[category]/icons/svg/icon-education-academic-cap</title>
    <desc>Created with Sketch.</desc>
    <g id="icons" stroke="none" stroke-width="1" fill="none" fill-rule="evenodd">
        <g id="icons---export" transform="translate(-316.000000, -58.000000)">
            <g id="row-1" transform="translate(60.000000, 58.000000)" fill="#000000" fill-rule="nonzero">
                <g id="icon---5" transform="translate(256.000000, 0.000000)">
                    <path d="M20,19.2675644 L20,12.2649928 L19,12.6149533 L19,17.2792408 C19,18.1401016 18.4491398,18.9043793 17.6324555,19.1766074 L12.6324555,20.843274 C12.2219219,20.9801186 11.7780781,20.9801186 11.3675445,20.843274 L6.36754447,19.1766074 C5.55086019,18.9043793 5,18.1401016 5,17.2792408 L5,12.6145982 L1.3558703,11.3391026 C0.313317622,10.9741949 -0.236022112,9.83322273 0.128885665,8.79067005 C0.312443733,8.26623903 0.705891561,7.84180407 1.21493017,7.61909093 L11.1983664,3.25116595 C11.7093869,3.02758567 12.2905592,3.02756944 12.8015922,3.25112117 L22.7865426,7.61904406 C23.7985204,8.06173439 24.2600191,9.2409759 23.8173287,10.2529537 C23.5946152,10.7620706 23.1701228,11.155575 22.6456153,11.3391319 L22,11.5650718 L22,19.2675644 C22.5978014,19.6133738 23,20.2597176 23,21 C23,22.1045695 22.1045695,23 21,23 C19.8954305,23 19,22.1045695 19,21 C19,20.2597176 19.4021986,19.6133738 20,19.2675644 Z M20.8242614,9.85759793 L21.9849809,9.45139194 L12.0000305,5.08346905 L2.01659428,9.45139403 L12.0000251,12.9457321 L17.925881,10.8719166 L14.1627885,9.40078936 C13.648413,9.19970161 13.3944431,8.61970404 13.5955309,8.10532853 C13.7966187,7.59095303 14.3766162,7.33698313 14.8909917,7.53807089 L20.8242614,9.85759793 Z M17,13.3148743 L12.6606596,14.8334721 C12.2329233,14.9831629 11.7670303,14.9831518 11.3393011,14.8334407 L7,13.3146257 L7,17.2792408 L12,18.9459074 L17,17.2792408 L17,13.3148743 Z" id="academic-cap"></path>
                </g>
            </g>
            <g id="slices" transform="translate(60.000000, 58.000000)"></g>
        </g>
    </g>
</svg>