<svg xmlns="http://www.w3.org/2000/svg" width="24" height="24" viewBox="0 0 24 24">
  <path d="M18.5857864,13 L3,13 C2.44771525,13 2,12.5522847 2,12 C2,11.4477153 2.44771525,11 3,11 L18.5857864,11 L11.2928932,3.70710678 C10.9023689,3.31658249 10.9023689,2.68341751 11.2928932,2.29289322 C11.6834175,1.90236893 12.3165825,1.90236893 12.7071068,2.29289322 L21.7071068,11.2928932 C22.0976311,11.6834175 22.0976311,12.3165825 21.7071068,12.7071068 L12.7071068,21.7071068 C12.3165825,22.0976311 11.6834175,22.0976311 11.2928932,21.7071068 C10.9023689,21.3165825 10.9023689,20.6834175 11.2928932,20.2928932 L18.5857864,13 Z" transform="rotate(90 12 12)"/>
</svg>
