<svg xmlns="http://www.w3.org/2000/svg" width="24" height="24" viewBox="0 0 24 24">
  <path d="M11.2071068,7.79289322 L4.20710678,7.79289322 C3.10253728,7.79289322 2.20710678,8.68832372 2.20710678,9.79289322 L2.20710678,13.7928932 C2.20710678,14.8974627 3.10253728,15.7928932 4.20710678,15.7928932 L11.2071068,15.7928932 L11.2071068,18.3786797 C11.2071068,19.4832492 12.1025373,20.3786797 13.2071068,20.3786797 C13.7375398,20.3786797 14.2462476,20.167966 14.6213203,19.7928932 L21.2071068,13.2071068 C21.9881554,12.4260582 21.9881554,11.1597282 21.2071068,10.3786797 L14.6213203,3.79289322 C13.8402718,3.01184464 12.5739418,3.01184464 11.7928932,3.79289322 C11.4178205,4.16796598 11.2071068,4.6766738 11.2071068,5.20710678 L11.2071068,7.79289322 Z M13.2071068,14.7928932 C13.2071068,14.2406085 12.7593915,13.7928932 12.2071068,13.7928932 L4.20710678,13.7928932 L4.20710678,9.79289322 L12.2071068,9.79289322 C12.7593915,9.79289322 13.2071068,9.34517797 13.2071068,8.79289322 L13.2071068,5.20710678 L19.7928932,11.7928932 L13.2071068,18.3786797 L13.2071068,14.7928932 Z" transform="rotate(90 12 11.793)"/>
</svg>
