<svg xmlns="http://www.w3.org/2000/svg" width="24" height="24" viewBox="0 0 24 24">
  <path d="M6,5.41421356 L2.70710678,8.70710678 C2.31658249,9.09763107 1.68341751,9.09763107 1.29289322,8.70710678 C0.902368927,8.31658249 0.902368927,7.68341751 1.29289322,7.29289322 L6.29289322,2.29289322 C6.68341751,1.90236893 7.31658249,1.90236893 7.70710678,2.29289322 L12.7071068,7.29289322 C13.0976311,7.68341751 13.0976311,8.31658249 12.7071068,8.70710678 C12.3165825,9.09763107 11.6834175,9.09763107 11.2928932,8.70710678 L8,5.41421356 L8,13 C8,14.6568542 9.34314575,16 11,16 L18.5857864,16 L15.2928932,12.7071068 C14.9023689,12.3165825 14.9023689,11.6834175 15.2928932,11.2928932 C15.6834175,10.9023689 16.3165825,10.9023689 16.7071068,11.2928932 L21.7071068,16.2928932 C22.0976311,16.6834175 22.0976311,17.3165825 21.7071068,17.7071068 L16.7071068,22.7071068 C16.3165825,23.0976311 15.6834175,23.0976311 15.2928932,22.7071068 C14.9023689,22.3165825 14.9023689,21.6834175 15.2928932,21.2928932 L18.5857864,18 L11,18 C8.23857625,18 6,15.7614237 6,13 L6,5.41421356 Z" transform="rotate(-180 11.5 12.5)"/>
</svg>
