<svg xmlns="http://www.w3.org/2000/svg" width="24" height="24" viewBox="0 0 24 24">
  <path fill="#000000" d="M19.8508443,20 L19.9939032,20.8113268 C20.0898064,21.3552211 19.7266379,21.8738795 19.1827436,21.9697827 C18.6388493,22.0656859 18.1201909,21.7025174 18.0242876,21.1586231 L17.8506395,20.1738154 C17.8403431,20.1154221 17.8353383,20.0573196 17.8352805,20 L6.16398207,20 C6.16392428,20.0573196 6.15891945,20.1154221 6.14862313,20.1738154 L5.97497495,21.1586231 C5.87907171,21.7025174 5.36041333,22.0656859 4.81651902,21.9697827 C4.27262472,21.8738795 3.90945621,21.3552211 4.00535945,20.8113268 L4.14841825,20 L2,20 C0.8954305,20 0,19.1045695 0,18 L0,15 C-1.98419026e-16,13.5194353 0.804397259,12.2267476 2,11.5351288 L2,6 C2,4.8954305 2.8954305,4 4,4 L20,4 C21.1045695,4 22,4.8954305 22,6 L22,11.5351288 C23.1956027,12.2267476 24,13.5194353 24,15 L24,18 C24,19.1045695 23.1045695,20 22,20 L19.8508443,20 Z M20,13 L4,13 C2.8954305,13 2,13.8954305 2,15 L2,18 L22,18 L22,15 C22,13.8954305 21.1045695,13 20,13 Z M2,15 L22,15 L22,17 L2,17 L2,15 Z M19,11 L20,11 L20,6 L4,6 L4,11 L5,11 L5,10 C5,8.8954305 5.8954305,8 7,8 L11,8 C11.3642871,8 11.7058266,8.09739429 12,8.26756439 C12.2941734,8.09739429 12.6357129,8 13,8 L17,8 C18.1045695,8 19,8.8954305 19,10 L19,11 Z M11,11 L11,10 L7,10 L7,11 L11,11 Z M17,11 L17,10 L13,10 L13,11 L17,11 Z"/>
</svg>
