<svg xmlns="http://www.w3.org/2000/svg" width="24" height="24" viewBox="0 0 24 24">
  <path fill="#000000" d="M4,6 L4,11 L20,11 L20,6 L4,6 Z M22,6 L22,18 C22,19.1045695 21.1045695,20 20,20 L19.8508443,20 L19.9939032,20.8113268 C20.0898064,21.3552211 19.7266379,21.8738795 19.1827436,21.9697827 C18.6388493,22.0656859 18.1201909,21.7025174 18.0242876,21.1586231 L17.8506395,20.1738154 C17.8403431,20.1154221 17.8353383,20.0573196 17.8352805,20 L6.16398207,20 C6.16392428,20.0573196 6.15891945,20.1154221 6.14862313,20.1738154 L5.97497495,21.1586231 C5.87907171,21.7025174 5.36041333,22.0656859 4.81651902,21.9697827 C4.27262472,21.8738795 3.90945621,21.3552211 4.00535945,20.8113268 L4.14841825,20 L4,20 C2.8954305,20 2,19.1045695 2,18 L2,6 L1,6 C0.44771525,6 6.76353751e-17,5.55228475 0,5 C-6.76353751e-17,4.44771525 0.44771525,4 1,4 L23,4 C23.5522847,4 24,4.44771525 24,5 C24,5.55228475 23.5522847,6 23,6 L22,6 Z M4,13 L4,18 L20,18 L20,13 L4,13 Z M11,7 L13,7 C13.5522847,7 14,7.44771525 14,8 C14,8.55228475 13.5522847,9 13,9 L11,9 C10.4477153,9 10,8.55228475 10,8 C10,7.44771525 10.4477153,7 11,7 Z M11,14 L13,14 C13.5522847,14 14,14.4477153 14,15 C14,15.5522847 13.5522847,16 13,16 L11,16 C10.4477153,16 10,15.5522847 10,15 C10,14.4477153 10.4477153,14 11,14 Z"/>
</svg>
