<svg xmlns="http://www.w3.org/2000/svg" width="24" height="24" viewBox="0 0 24 24">
  <path fill="#000000" d="M13,21 L16,21 C16.5522847,21 17,21.4477153 17,22 C17,22.5522847 16.5522847,23 16,23 L8,23 C7.44771525,23 7,22.5522847 7,22 C7,21.4477153 7.44771525,21 8,21 L11,21 L11,14 L7.31195485,14 C6.20738535,14 5.31195485,13.1045695 5.31195485,12 C5.31195485,11.798752 5.34232945,11.5986565 5.40205238,11.4064745 L8.19891237,2.40647447 C8.45885866,1.56999477 9.23287515,1 10.1088148,1 L13.8911448,1 C14.7670845,1 15.541101,1.56999477 15.8010473,2.40647447 L18.5979073,11.4064745 C18.9257024,12.4612845 18.3363404,13.5821074 17.2815303,13.9099025 C17.0893483,13.9696254 16.8892529,14 16.6880048,14 L16,14 L16,17 C16,17.5522847 15.5522847,18 15,18 C14.4477153,18 14,17.5522847 14,17 L14,14 L13,14 L13,21 Z M10.1088148,3 L7.31195485,12 L16.6880048,12 L13.8911448,3 L10.1088148,3 Z"/>
</svg>
