<svg xmlns="http://www.w3.org/2000/svg" width="24" height="24" viewBox="0 0 24 24">
  <path fill="#000000" d="M19,12 L18,12 L18,16 C18,18.7614237 15.7614237,21 13,21 L11,21 C8.23857625,21 6,18.7614237 6,16 L6,12 L5,12 L5,22 L19,22 L19,12 Z M19,10 L19,7 C19,6.44771525 19.4477153,6 20,6 C20.5522847,6 21,6.44771525 21,7 L21,22 C21.5522847,22 22,22.4477153 22,23 C22,23.5522847 21.5522847,24 21,24 L3,24 C2.44771525,24 2,23.5522847 2,23 C2,22.4477153 2.44771525,22 3,22 L3,7 C3,6.44771525 3.44771525,6 4,6 C4.55228475,6 5,6.44771525 5,7 L5,10 L6,10 L6,6 C6,3.23857625 8.23857625,1 11,1 L13,1 C15.7614237,1 18,3.23857625 18,6 L18,10 L19,10 Z M11,3 C9.34314575,3 8,4.34314575 8,6 L8,16 C8,17.6568542 9.34314575,19 11,19 L13,19 C14.6568542,19 16,17.6568542 16,16 L16,6 C16,4.34314575 14.6568542,3 13,3 L11,3 Z M10.5222821,7.91500303 C10.2250105,8.20345145 9.75019065,8.19629889 9.46174222,7.89902732 C9.1732938,7.60175576 9.18044636,7.1269359 9.47771793,6.83848747 L11.9271637,4.46174222 C12.2244353,4.1732938 12.6992551,4.18044636 12.9877035,4.47771793 C13.276152,4.77498949 13.2689994,5.24980935 12.9717278,5.53825778 L10.5222821,7.91500303 Z M11.5222821,13.915003 C11.2250105,14.2034515 10.7501906,14.1962989 10.4617422,13.8990273 C10.1732938,13.6017558 10.1804464,13.1269359 10.4777179,12.8384875 L12.9271637,10.4617422 C13.2244353,10.1732938 13.6992551,10.1804464 13.9877035,10.4777179 C14.276152,10.7749895 14.2689994,11.2498094 13.9717278,11.5382578 L11.5222821,13.915003 Z M11.2446873,10.836183 C10.9474157,11.1246314 10.4725958,11.1174788 10.1841474,10.8202073 C9.89569898,10.5229357 9.90285154,10.0481158 10.2001231,9.75966741 L12.6495689,7.38292216 C12.9468404,7.09447374 13.4216603,7.1016263 13.7101087,7.39889787 C13.9985571,7.69616943 13.9914046,8.17098929 13.694133,8.45943772 L11.2446873,10.836183 Z"/>
</svg>
