<svg xmlns="http://www.w3.org/2000/svg" width="24" height="24" viewBox="0 0 24 24">
  <path fill="#000000" fill-rule="evenodd" d="M22,10 L22,13 C22,14.6568542 20.6568542,16 19,16 L17.5001831,16 C17.0440799,16.6072234 16.3179089,17 15.5,17 L13,17 L13,19 L16,19 C16.5522847,19 17,19.4477153 17,20 C17,20.5522847 16.5522847,21 16,21 L7,21 C6.44771525,21 6,20.5522847 6,20 C6,19.4477153 6.44771525,19 7,19 L10,19 L10,17 L7.5,17 C6.68209635,17 5.95592942,16.6072284 5.49982572,16 L4,16 C2.34314575,16 1,14.6568542 1,13 L1,10 C0.44771525,10 6.76353751e-17,9.55228475 0,9 C-6.76353751e-17,8.44771525 0.44771525,8 1,8 L3,8 C3.55228475,8 4,8.44771525 4,9 C4,9.55228475 3.55228475,10 3,10 L3,13 C3,13.5522847 3.44771525,14 4,14 L5.00148377,14 C5.03236061,13.0937703 5.55053334,12.2866425 6.33474197,11.8738054 C5.58383308,11.1466562 5.1170555,10.127839 5.1170555,9 C5.1170555,8.82505031 5.12853326,8.65028907 5.15141484,8.47684217 L5.8110281,3.47684217 C6.07351212,1.48716095 7.76974844,-1.33226763e-15 9.77666876,-1.77635684e-15 L13.2231142,-8.8817842e-16 C15.2300345,-1.33226763e-15 16.9262708,1.48716095 17.1887548,3.47684217 L17.8483681,8.47684217 C18.0205315,9.78187536 17.5428869,11.0228364 16.6653455,11.8738553 C17.4495083,12.2867119 17.9676513,13.0938081 17.9985385,14 L19,14 C19.5522847,14 20,13.5522847 20,13 L20,10 C19.4477153,10 19,9.55228475 19,9 C19,8.44771525 19.4477153,8 20,8 L22,8 C22.5522847,8 23,8.44771525 23,9 C23,9.55228475 22.5522847,10 22,10 Z M9.77666876,2 C8.7732086,2 7.92509044,2.74358048 7.79384843,3.73842108 L7.13423517,8.73842108 C7.12279438,8.82514453 7.1170555,8.91252515 7.1170555,9 C7.1170555,10.1045695 8.012486,11 9.1170555,11 L13.8827274,11 C13.9702023,11 14.0575829,10.9942611 14.1443063,10.9828203 C15.2393878,10.8383543 16.0100138,9.83350251 15.8655478,8.73842108 L15.2059345,3.73842108 C15.0746925,2.74358048 14.2265743,2 13.2231142,2 L9.77666876,2 Z M7.35973299,13.6059096 C7.14654643,13.6682209 7.00002338,13.863701 7.00002337,14.0858637 L7,14.5 C7,14.7761424 7.22385763,15 7.5,15 L15.5,15 C15.7761424,15 16,14.7761424 16,14.5 L16,14.0858394 C16,13.8637299 15.8534687,13.668235 15.640301,13.6059195 C14.2568917,13.2015661 12.8776604,13 11.5,13 C10.1223508,13 8.74313094,13.2015628 7.35973299,13.6059096 Z M11.5,24 C10.6715729,24 10,23.3284271 10,22.5 C10,21.6715729 10.6715729,21 11.5,21 C12.3284271,21 13,21.6715729 13,22.5 C13,23.3284271 12.3284271,24 11.5,24 Z M7.5,24 C6.67157288,24 6,23.3284271 6,22.5 C6,21.6715729 6.67157288,21 7.5,21 C8.32842712,21 9,21.6715729 9,22.5 C9,23.3284271 8.32842712,24 7.5,24 Z M15.5,24 C14.6715729,24 14,23.3284271 14,22.5 C14,21.6715729 14.6715729,21 15.5,21 C16.3284271,21 17,21.6715729 17,22.5 C17,23.3284271 16.3284271,24 15.5,24 Z"/>
</svg>
