<svg xmlns="http://www.w3.org/2000/svg" width="24" height="24" viewBox="0 0 24 24">
  <path d="M14,6 L10,6 L8.5,8 L4,8 L4,19 L20,19 L20,8 L15.5,8 L14,6 Z M4,6 L7.5,6 L8.7,4.4 C8.88885438,4.14819416 9.1852427,4 9.5,4 L14.5,4 C14.8147573,4 15.1111456,4.14819416 15.3,4.4 L16.5,6 L20,6 C21.1045695,6 22,6.8954305 22,8 L22,19 C22,20.1045695 21.1045695,21 20,21 L4,21 C2.8954305,21 2,20.1045695 2,19 L2,8 C2,6.8954305 2.8954305,6 4,6 Z M12,15 C13.1045695,15 14,14.1045695 14,13 C14,11.8954305 13.1045695,11 12,11 C10.8954305,11 10,11.8954305 10,13 C10,14.1045695 10.8954305,15 12,15 Z M12,17 C9.790861,17 8,15.209139 8,13 C8,10.790861 9.790861,9 12,9 C14.209139,9 16,10.790861 16,13 C16,15.209139 14.209139,17 12,17 Z M18,18 C17.4477153,18 17,17.5522847 17,17 C17,16.4477153 17.4477153,16 18,16 C18.5522847,16 19,16.4477153 19,17 C19,17.5522847 18.5522847,18 18,18 Z"/>
</svg>
