<svg xmlns="http://www.w3.org/2000/svg" width="24" height="24" viewBox="0 0 24 24">
  <path d="M7.81271613,13.7222823 L8.56271613,13.7222823 C8.97692969,13.7222823 9.31271613,14.0580688 9.31271613,14.4722823 C9.31271613,14.8864959 8.97692969,15.2222823 8.56271613,15.2222823 L7.81271613,15.2222823 L7.81271613,15.9722823 C7.81271613,16.3864959 7.47692969,16.7222823 7.06271613,16.7222823 C6.64850257,16.7222823 6.31271613,16.3864959 6.31271613,15.9722823 L6.31271613,15.2222823 L5.56271613,15.2222823 C5.14850257,15.2222823 4.81271613,14.8864959 4.81271613,14.4722823 C4.81271613,14.0580688 5.14850257,13.7222823 5.56271613,13.7222823 L6.31271613,13.7222823 L6.31271613,12.9722823 C6.31271613,12.5580688 6.64850257,12.2222823 7.06271613,12.2222823 C7.47692969,12.2222823 7.81271613,12.5580688 7.81271613,12.9722823 L7.81271613,13.7222823 Z M10.7932895,8.28529973 L10.7932895,6.92292071 C10.7932895,6.72609727 10.6521616,6.55760131 10.4583898,6.5230762 C9.3104105,6.31853597 8.4743133,5.32030017 8.4743133,4.15424132 L8.4743133,2 C8.4743133,1.44771525 8.92202855,1 9.4743133,1 C10.0265981,1 10.4743133,1.44771525 10.4743133,2 L10.4743133,4.15424132 C10.4743133,4.35106476 10.6154413,4.51956071 10.809213,4.55408582 C11.9571923,4.75862606 12.7932895,5.75686185 12.7932895,6.92292071 L12.7932895,8.28613443 C14.0942196,8.25872871 15.3951496,8.17678407 16.6960797,8.04030052 C19.4424306,7.75217496 21.9023602,9.74496002 22.1904861,12.4913109 C22.1961306,12.5451127 22.2009015,12.5990026 22.204797,12.6529592 L22.6151675,18.3369632 C22.7338478,19.9807927 21.8146284,21.5241614 20.3127161,22.2027775 C18.8122064,22.8807598 17.0477725,22.546369 15.8993817,21.366374 L13.9599421,19.37356 C13.8658139,19.2768414 13.7365842,19.2222823 13.6016228,19.2222823 L10.0238095,19.2222823 C9.88884806,19.2222823 9.75961832,19.2768414 9.66549018,19.37356 L7.72605053,21.366374 C6.57765977,22.546369 4.81322587,22.8807598 3.31271613,22.2027775 C1.81080385,21.5241614 0.891584461,19.9807927 1.01026472,18.3369632 L1.4206336,12.6529606 C1.61948378,9.8987049 4.01344909,7.82713944 6.76770476,8.02598963 C6.82166138,8.02988515 6.87555123,8.0346561 6.92935301,8.04030056 C8.21733185,8.17542536 9.5053107,8.25709175 10.7932895,8.28529973 Z M6.72067373,10.029384 C6.68839266,10.0259973 6.65605874,10.0231348 6.62368476,10.0207974 C4.97113102,9.90148731 3.53475155,11.1444268 3.41544146,12.79698 L3.00507254,18.4809832 C2.94676708,19.288567 3.39836295,20.0467961 4.13622532,20.3801879 C4.8694399,20.7114797 5.73161935,20.5480817 6.29277322,19.9714847 L8.23221287,17.9786707 C8.70285358,17.4950777 9.34900226,17.2222823 10.0238095,17.2222823 L13.6016228,17.2222823 C14.27643,17.2222823 14.9225787,17.4950777 15.3932194,17.9786707 L17.332659,19.9714847 C17.8938129,20.5480817 18.7559924,20.7114797 19.4892069,20.3801879 C20.2270693,20.0467961 20.6786652,19.288567 20.6203597,18.4809832 L20.2099892,12.7969792 C20.2076519,12.7646052 20.2047893,12.7322713 20.2014027,12.6999902 C20.0285271,11.0521798 18.5525694,9.85650865 16.9047589,10.029384 C15.2077439,10.2074217 13.5103023,10.2964629 11.8127161,10.2964629 C10.1151301,10.2964629 8.41768866,10.2074217 6.72067373,10.029384 Z M14.8127161,14.2222823 C14.2604314,14.2222823 13.8127161,13.7745671 13.8127161,13.2222823 C13.8127161,12.6699976 14.2604314,12.2222823 14.8127161,12.2222823 C15.3650009,12.2222823 15.8127161,12.6699976 15.8127161,13.2222823 C15.8127161,13.7745671 15.3650009,14.2222823 14.8127161,14.2222823 Z M17.8127161,16.2222823 C17.2604314,16.2222823 16.8127161,15.7745671 16.8127161,15.2222823 C16.8127161,14.6699976 17.2604314,14.2222823 17.8127161,14.2222823 C18.3650009,14.2222823 18.8127161,14.6699976 18.8127161,15.2222823 C18.8127161,15.7745671 18.3650009,16.2222823 17.8127161,16.2222823 Z"/>
</svg>
