<svg xmlns="http://www.w3.org/2000/svg" width="24" height="24" viewBox="0 0 24 24">
  <path d="M6.5,3 C6.22385763,3 6,3.22385763 6,3.5 L6,20.5 C6,20.7761424 6.22385763,21 6.5,21 L15.5,21 C15.7761424,21 16,20.7761424 16,20.5 L16,3.5 C16,3.22385763 15.7761424,3 15.5,3 L6.5,3 Z M6.5,1 L15.5,1 C16.8807119,1 18,2.11928813 18,3.5 L18,20.5 C18,21.8807119 16.8807119,23 15.5,23 L6.5,23 C5.11928813,23 4,21.8807119 4,20.5 L4,3.5 C4,2.11928813 5.11928813,1 6.5,1 Z M11,20 C8.790861,20 7,18.209139 7,16 C7,13.790861 8.790861,12 11,12 C13.209139,12 15,13.790861 15,16 C15,18.209139 13.209139,20 11,20 Z M11,18 C12.1045695,18 13,17.1045695 13,16 C13,14.8954305 12.1045695,14 11,14 C9.8954305,14 9,14.8954305 9,16 C9,17.1045695 9.8954305,18 11,18 Z M9,6 L9,9 L13,9 L13,6 L9,6 Z M9,4 L13,4 C14.1045695,4 15,4.8954305 15,6 L15,9 C15,10.1045695 14.1045695,11 13,11 L9,11 C7.8954305,11 7,10.1045695 7,9 L7,6 C7,4.8954305 7.8954305,4 9,4 Z"/>
</svg>
