<svg xmlns="http://www.w3.org/2000/svg" width="24" height="24" viewBox="0 0 24 24">
  <path d="M5,15 L19,15 L19,6 L5,6 L5,15 Z M21,15 L22,15 C22.5522847,15 23,15.4477153 23,16 L23,17.5 C23,18.8807119 21.8807119,20 20.5,20 L3.5,20 C2.11928813,20 1,18.8807119 1,17.5 L1,16 C1,15.4477153 1.44771525,15 2,15 L3,15 L3,6 C3,4.8954305 3.8954305,4 5,4 L19,4 C20.1045695,4 21,4.8954305 21,6 L21,15 Z M3,17 L3,17.5 C3,17.7761424 3.22385763,18 3.5,18 L20.5,18 C20.7761424,18 21,17.7761424 21,17.5 L21,17 L3,17 Z" transform="translate(-1)"/>
</svg>
