<svg xmlns="http://www.w3.org/2000/svg" width="24" height="24" viewBox="0 0 24 24">
  <path d="M17.2425684,10.8995249 L17.2425684,17.8995249 C17.2425684,21.2132334 14.5562769,23.8995249 11.2425684,23.8995249 C7.92885985,23.8995249 5.24256835,21.2132334 5.24256835,17.8995249 L5.24256835,10.8995249 C5.24256835,7.91885779 7.41602752,5.44582927 10.2645471,4.97883807 L10.6060528,4.13125979 C10.7426186,3.79231889 10.6635398,3.4045789 10.4051494,3.14618854 C9.56436363,2.30540274 9.36693297,1.01603394 9.9176086,-0.0378151447 L10.3562739,-0.87730568 C10.6120491,-1.36679262 11.2162035,-1.55625336 11.7056904,-1.3004781 C12.1951774,-1.04470284 12.3846381,-0.440548457 12.1288629,0.0489384785 L11.6901976,0.888429014 C11.5443057,1.16762786 11.5966115,1.50922352 11.819363,1.73197498 C12.6447706,2.5573826 12.8973816,3.79598742 12.4611328,4.87870738 L12.4072314,5.01248462 C15.1635062,5.55467412 17.2425684,7.98430402 17.2425684,10.8995249 Z M10.2425684,10.8995249 L10.2425684,7.02554238 C8.51734114,7.46958518 7.24256835,9.03568547 7.24256835,10.8995249 L10.2425684,10.8995249 Z M7.24256835,12.8995249 L7.24256835,17.8995249 C7.24256835,20.1086639 9.03342935,21.8995249 11.2425684,21.8995249 C13.4517074,21.8995249 15.2425684,20.1086639 15.2425684,17.8995249 L15.2425684,12.8995249 L7.24256835,12.8995249 Z M12.2425684,7.02554238 L12.2425684,10.8995249 L15.2425684,10.8995249 C15.2425684,9.03568547 13.9677956,7.46958518 12.2425684,7.02554238 Z" transform="rotate(-45 11.242 11.242)"/>
</svg>
