<svg xmlns="http://www.w3.org/2000/svg" width="24" height="24" viewBox="0 0 24 24">
  <path d="M17,10 L17,5 C17,4.44771525 17.4477153,4 18,4 C18.5522847,4 19,4.44771525 19,5 L19,10 C20.6568542,10 22,11.3431458 22,13 L22,17 C22,18.6568542 20.6568542,20 19,20 L5,20 C3.34314575,20 2,18.6568542 2,17 L2,13 C2,11.3431458 3.34314575,10 5,10 L5,7 C5,6.44771525 5.44771525,6 6,6 C6.55228475,6 7,6.44771525 7,7 L7,10 L17,10 Z M5,12 C4.44771525,12 4,12.4477153 4,13 L4,17 C4,17.5522847 4.44771525,18 5,18 L19,18 C19.5522847,18 20,17.5522847 20,17 L20,13 C20,12.4477153 19.5522847,12 19,12 L5,12 Z M7,17 C5.8954305,17 5,16.1045695 5,15 C5,13.8954305 5.8954305,13 7,13 C8.1045695,13 9,13.8954305 9,15 C9,16.1045695 8.1045695,17 7,17 Z M15,16 C14.4477153,16 14,15.5522847 14,15 C14,14.4477153 14.4477153,14 15,14 C15.5522847,14 16,14.4477153 16,15 C16,15.5522847 15.5522847,16 15,16 Z M18,16 C17.4477153,16 17,15.5522847 17,15 C17,14.4477153 17.4477153,14 18,14 C18.5522847,14 19,14.4477153 19,15 C19,15.5522847 18.5522847,16 18,16 Z"/>
</svg>
