<svg xmlns="http://www.w3.org/2000/svg" width="24" height="24" viewBox="0 0 24 24">
  <path d="M17,6 L7,6 L7,18 L17,18 L17,6 Z M17,4 L17,3.5 C17,3.22385763 16.7761424,3 16.5,3 L7.5,3 C7.22385763,3 7,3.22385763 7,3.5 L7,4 L17,4 Z M17,20 L7,20 L7,20.5 C7,20.7761424 7.22385763,21 7.5,21 L16.5,21 C16.7761424,21 17,20.7761424 17,20.5 L17,20 Z M7.5,1 L16.5,1 C17.8807119,1 19,2.11928813 19,3.5 L19,20.5 C19,21.8807119 17.8807119,23 16.5,23 L7.5,23 C6.11928813,23 5,21.8807119 5,20.5 L5,3.5 C5,2.11928813 6.11928813,1 7.5,1 Z"/>
</svg>
