<svg xmlns="http://www.w3.org/2000/svg" width="24" height="24" viewBox="0 0 24 24">
  <path d="M19,19 L19,6 L5,6 L5,19 L19,19 Z M19,21 L5,21 L5,21.5 C5,21.7761424 5.22385763,22 5.5,22 L18.5,22 C18.7761424,22 19,21.7761424 19,21.5 L19,21 Z M19,3.5 C19,3.22385763 18.7761424,3 18.5,3 L5.5,3 C5.22385763,3 5,3.22385763 5,3.5 L5,4 L19,4 L19,3.5 Z M5.5,1 L18.5,1 C19.8807119,1 21,2.11928813 21,3.5 L21,21.5 C21,22.8807119 19.8807119,24 18.5,24 L5.5,24 C4.11928813,24 3,22.8807119 3,21.5 L3,3.5 C3,2.11928813 4.11928813,1 5.5,1 Z" transform="translate(-1)"/>
</svg>
