<?xml version="1.0" encoding="UTF-8"?>
<svg width="24px" height="24px" viewBox="0 0 24 24" version="1.1" xmlns="http://www.w3.org/2000/svg" xmlns:xlink="http://www.w3.org/1999/xlink">
    <!-- Generator: Sketch 52.3 (67297) - http://www.bohemiancoding.com/sketch -->
    <title>jollycons-[category]/icons/svg/icon-ecommerce-shopping-bag</title>
    <desc>Created with Sketch.</desc>
    <g id="icons" stroke="none" stroke-width="1" fill="none" fill-rule="evenodd">
        <g id="icons---ecommerce---export" transform="translate(-316.000000, -138.000000)">
            <g id="row-2" transform="translate(60.000000, 138.000000)" fill="#000000" fill-rule="nonzero">
                <g id="icon---10" transform="translate(256.000000, 0.000000)">
                    <path d="M15.99894,9 L16,10.6537801 C16,11.2060649 15.5522847,11.6537801 15,11.6537801 C14.4477153,11.6537801 14,11.2060649 14,10.6537801 L14,9 L10.0834098,9 L10.0845138,10.6537801 C10.0845138,11.2060649 9.6367985,11.6537801 9.08451375,11.6537801 C8.532229,11.6537801 8.08451375,11.2060649 8.08451375,10.6537801 L8.08451375,9 L6.80473823,9 L6.07557156,19 L17.9244284,19 L17.1952618,9 L15.99894,9 Z M8.12460847,7 C8.43134338,3.97862037 9.73682247,2.2889161 12.0422569,2.2889161 C14.3619433,2.2889161 15.6692729,3.99957616 15.9636705,7 L17.1952618,7 C18.2433995,7 19.1137417,7.80919037 19.189966,8.85455281 L19.9191327,18.8545528 C19.999461,19.9561976 19.1715204,20.914376 18.0698756,20.9947043 C17.9972163,20.9991168 17.9972163,20.9991168 17.9244284,21 L6.07557156,21 C4.97100206,21 4.07557156,20.1045695 4.07557156,19 C4.07645477,18.9272122 4.07645477,18.9272122 4.08086729,18.8545528 L4.81003396,8.85455281 C4.88625831,7.80919037 5.75660045,7 6.80473823,7 L8.12460847,7 Z M10.1302081,7 L13.9581953,7 C13.7509692,5.08240008 13.1119503,4.2889161 12.0422569,4.2889161 C10.9818376,4.2889161 10.3446574,5.06870086 10.1302081,7 Z" id="shopping-bag"></path>
                </g>
            </g>
            <g id="slices" transform="translate(60.000000, 58.000000)"></g>
        </g>
    </g>
</svg>