<?xml version="1.0" encoding="UTF-8"?>
<svg width="24px" height="24px" viewBox="0 0 24 24" version="1.1" xmlns="http://www.w3.org/2000/svg" xmlns:xlink="http://www.w3.org/1999/xlink">
    <!-- Generator: Sketch 52.3 (67297) - http://www.bohemiancoding.com/sketch -->
    <title>jollycons-[category]/icons/svg/icon-ecommerce-shopping-cart</title>
    <desc>Created with Sketch.</desc>
    <g id="icons" stroke="none" stroke-width="1" fill="none" fill-rule="evenodd">
        <g id="icons---ecommerce---export" transform="translate(-60.000000, -58.000000)">
            <g id="row-1" transform="translate(60.000000, 58.000000)" fill="#000000" fill-rule="nonzero">
                <g id="icon---1">
                    <path d="M15.4352566,15 L7.65939616,15 C6.85933994,15 6.13626368,14.5232063 5.8211061,13.7878386 L3.67824896,8.7878386 C3.24313771,7.77257903 3.71344085,6.59682118 4.72870042,6.16170994 C4.97765411,6.0550155 5.24568546,6 5.51653902,6 L17.5121797,6 L17.8467302,4.55028099 C18.0561446,3.64281881 18.8642007,3 19.7955126,3 L21,3 C21.5522847,3 22,3.44771525 22,4 C22,4.55228475 21.5522847,5 21,5 L19.7955126,5 L17.1994959,16.249406 C18.259308,16.7122248 19,17.7696135 19,19 C19,20.6568542 17.6568542,22 16,22 C14.3431458,22 13,20.6568542 13,19 C13,18.6493646 13.0601542,18.3127789 13.1707057,18 L10.8292943,18 C10.9398458,18.3127789 11,18.6493646 11,19 C11,20.6568542 9.65685425,22 8,22 C6.34314575,22 5,20.6568542 5,19 C5,17.3431458 6.34314575,16 8,16 L15.2044874,16 L15.4352566,15 Z M5.51653902,8 L7.65939616,13 L15.8967951,13 L17.0506412,8 L5.51653902,8 Z M8,20 C8.55228475,20 9,19.5522847 9,19 C9,18.4477153 8.55228475,18 8,18 C7.44771525,18 7,18.4477153 7,19 C7,19.5522847 7.44771525,20 8,20 Z M16,20 C16.5522847,20 17,19.5522847 17,19 C17,18.4477153 16.5522847,18 16,18 C15.4477153,18 15,18.4477153 15,19 C15,19.5522847 15.4477153,20 16,20 Z" id="shopping-cart"></path>
                </g>
            </g>
            <g id="slices" transform="translate(60.000000, 58.000000)"></g>
        </g>
    </g>
</svg>