<svg xmlns="http://www.w3.org/2000/svg" width="24" height="24" viewBox="0 0 24 24">
  <path d="M19,15 C19,15.5522847 18.5522847,16 18,16 C17.4477153,16 17,15.5522847 17,15 C17,12.2385763 14.7614237,10 12,10 C9.23857625,10 7,12.2385763 7,15 C7,15.5522847 6.55228475,16 6,16 C5.44771525,16 5,15.5522847 5,15 C5,11.1340068 8.13400675,8 12,8 C15.8659932,8 19,11.1340068 19,15 Z M11,4 C11,3.44771525 11.4477153,3 12,3 C12.5522847,3 13,3.44771525 13,4 L13,5 C13,5.55228475 12.5522847,6 12,6 C11.4477153,6 11,5.55228475 11,5 L11,4 Z M17.6566208,5.51302781 C17.9812456,5.06622006 18.6066153,4.96717124 19.053423,5.29179607 C19.5002308,5.6164209 19.5992796,6.24179057 19.2746548,6.68859831 L18.6868695,7.49761531 C18.3622447,7.94442306 17.736875,8.04347188 17.2900673,7.71884705 C16.8432595,7.39422222 16.7442107,6.76885255 17.0688355,6.3220448 L17.6566208,5.51302781 Z M22.1526047,10.6497565 C22.6778587,10.4790912 23.2420128,10.7665421 23.4126782,11.2917961 C23.5833436,11.8170501 23.2958927,12.3812042 22.7706387,12.5518696 L21.8195822,12.8608866 C21.2943281,13.0315519 20.730174,12.7441011 20.5595086,12.2188471 C20.3888433,11.693593 20.6762942,11.1294389 21.2015482,10.9587735 L22.1526047,10.6497565 Z M1.22936133,12.5518696 C0.704107316,12.3812042 0.416656431,11.8170501 0.587321804,11.2917961 C0.757987178,10.7665421 1.3221413,10.4790912 1.84739532,10.6497565 L2.79845183,10.9587735 C3.32370584,11.1294389 3.61115673,11.693593 3.44049135,12.2188471 C3.26982598,12.7441011 2.70567185,13.0315519 2.18041784,12.8608866 L1.22936133,12.5518696 Z M4.72534523,6.68859831 C4.4007204,6.24179057 4.49976922,5.6164209 4.94657697,5.29179607 C5.39338472,4.96717124 6.01875439,5.06622006 6.34337922,5.51302781 L6.93116447,6.3220448 C7.2557893,6.76885255 7.15674048,7.39422222 6.70993273,7.71884705 C6.26312498,8.04347188 5.63775531,7.94442306 5.31313048,7.49761531 L4.72534523,6.68859831 Z M2,17 L22,17 C22.5522847,17 23,17.4477153 23,18 C23,18.5522847 22.5522847,19 22,19 L2,19 C1.44771525,19 1,18.5522847 1,18 C1,17.4477153 1.44771525,17 2,17 Z"/>
</svg>
