<svg xmlns="http://www.w3.org/2000/svg" width="24" height="24" viewBox="0 0 24 24">
  <path d="M11,13.8338159 L6.53453407,16.7055969 C6.07001724,17.0043319 5.45127943,16.8699391 5.15254451,16.4054222 C4.85380959,15.9409054 4.98820238,15.3221676 5.45271922,15.0234327 L10.1697491,11.9898686 L5.14651984,8.75938506 C4.68200301,8.46065013 4.54761021,7.84191233 4.84634514,7.3773955 C5.14508006,6.91287866 5.76381786,6.77848587 6.2283347,7.07722079 L11,10.1459213 L11,4.83295248 C11,3.72838298 11.8954305,2.83295248 13,2.83295248 C13.3839052,2.83295248 13.7596987,2.94344431 14.0825088,3.15123469 L18.2341947,5.82364297 C19.1629818,6.42149606 19.4312568,7.65908246 18.8334037,8.58786955 C18.678569,8.82841116 18.4739343,9.03293837 18.2333114,9.18764681 L13.8591701,12 L18.2333114,14.8123532 C19.1624123,15.4097184 19.4313373,16.6471638 18.833972,17.5762647 C18.6792636,17.8168876 18.4747364,18.0215222 18.2341947,18.176357 L14.0825088,20.8487653 C13.1537217,21.4466184 11.9161353,21.1783434 11.3182822,20.2495563 C11.1104918,19.9267462 11,19.5509527 11,19.1670475 L11,13.8338159 Z M13,10.1746863 L17.151686,7.50536076 L13,4.83295248 L13,10.1746863 Z M13,13.8253137 L13,19.1670475 L17.151686,16.4946392 L13,13.8253137 Z"/>
</svg>
