<svg xmlns="http://www.w3.org/2000/svg" width="24" height="24" viewBox="0 0 24 24">
  <path d="M8,15 C8.55228475,15 9,15.4477153 9,16 C9,16.5522847 8.55228475,17 8,17 L6.5,17 C4.01471863,17 2,14.9852814 2,12.5 C2,10.0147186 4.01471863,8 6.5,8 L10.5,8 C12.9852814,8 15,10.0147186 15,12.5 C15,12.7389847 14.9812814,12.9760008 14.9442505,13.2094168 C14.8577141,13.7548798 14.3453774,14.1269133 13.7999144,14.040377 C13.2544514,13.9538406 12.8824178,13.4415038 12.9689542,12.8960408 C12.9895566,12.7661784 13,12.633943 13,12.5 C13,11.1192881 11.8807119,10 10.5,10 L6.5,10 C5.11928813,10 4,11.1192881 4,12.5 C4,13.8807119 5.11928813,15 6.5,15 L8,15 Z M16,10 C15.4477153,10 15,9.55228475 15,9 C15,8.44771525 15.4477153,8 16,8 L17.5,8 C19.9852814,8 22,10.0147186 22,12.5 C22,14.9852814 19.9852814,17 17.5,17 L13.5,17 C11.0147186,17 9,14.9852814 9,12.5 C9,12.2610153 9.01871861,12.0239992 9.05574949,11.7905832 C9.14228587,11.2451202 9.65462261,10.8730867 10.2000856,10.959623 C10.7455486,11.0461594 11.1175822,11.5584962 11.0310458,12.1039592 C11.0104434,12.2338216 11,12.366057 11,12.5 C11,13.8807119 12.1192881,15 13.5,15 L17.5,15 C18.8807119,15 20,13.8807119 20,12.5 C20,11.1192881 18.8807119,10 17.5,10 L16,10 Z"/>
</svg>
