<svg xmlns="http://www.w3.org/2000/svg" width="24" height="24" viewBox="0 0 24 24">
  <path d="M16,6 L17,6 C18.1045695,6 19,6.8954305 19,8 L19,11 C19,13.050319 17.7659048,14.8123997 16,15.5839563 L16,17 C16,18.6568542 14.6568542,20 13,20 L13,21 C13,21.5522847 12.5522847,22 12,22 C11.4477153,22 11,21.5522847 11,21 L11,20 C9.34314575,20 8,18.6568542 8,17 L8,15.5839563 C6.23409522,14.8123997 5,13.050319 5,11 L5,8 C5,6.8954305 5.8954305,6 7,6 L8,6 L8,3 C8,2.44771525 8.44771525,2 9,2 C9.55228475,2 10,2.44771525 10,3 L10,6 L14,6 L14,3 C14,2.44771525 14.4477153,2 15,2 C15.5522847,2 16,2.44771525 16,3 L16,6 Z M14,16 L10,16 L10,17 C10,17.5522847 10.4477153,18 11,18 L13,18 C13.5522847,18 14,17.5522847 14,17 L14,16 Z M14,14 C15.6568542,14 17,12.6568542 17,11 L17,8 L7,8 L7,11 C7,12.6568542 8.34314575,14 10,14 L14,14 Z"/>
</svg>
