<svg xmlns="http://www.w3.org/2000/svg" width="24" height="24" viewBox="0 0 24 24">
  <path fill="#000000" d="M11.1558017,11.7071068 C10.7652775,12.0976311 10.1321125,12.0976311 9.74158818,11.7071068 C9.35106389,11.3165825 9.35106389,10.6834175 9.74158818,10.2928932 L15.7415882,4.29289322 C16.1321125,3.90236893 16.7652775,3.90236893 17.1558017,4.29289322 C17.546326,4.68341751 17.546326,5.31658249 17.1558017,5.70710678 L11.1558017,11.7071068 Z M15.1558017,12.7071068 C14.7652775,13.0976311 14.1321125,13.0976311 13.7415882,12.7071068 C13.3510639,12.3165825 13.3510639,11.6834175 13.7415882,11.2928932 L20.3539187,4.66921221 C20.744443,4.27868792 21.377608,4.27868792 21.7681323,4.66921221 C22.1586566,5.0597365 22.1586566,5.69290148 21.7681323,6.08342577 L15.1558017,12.7071068 Z M13.3192786,1.24169504 C13.7098029,0.851170752 14.3429679,0.851170752 14.7334922,1.24169504 C15.1240165,1.63221934 15.1240165,2.26538431 14.7334922,2.65590861 L4.36396103,12.9270648 C2.54534632,14.7456795 2.54534632,17.6942366 4.36396103,19.5128513 C6.18257574,21.331466 9.13113276,21.331466 10.9497475,19.5128513 L21.3303451,9.19633461 C21.7208694,8.80581032 22.3540344,8.80581032 22.7445587,9.19633461 C23.135083,9.5868589 23.135083,10.2200239 22.7445587,10.6105482 L12.363961,20.9270648 C9.76429774,23.5267281 5.54941076,23.5267281 2.94974747,20.9270648 C0.350084177,18.3274015 0.350084177,14.1125146 2.94974747,11.5128513 L13.3192786,1.24169504 Z M7.87889752,19.6405702 C5.94590089,19.6405702 4.37889752,18.0735668 4.37889752,16.1405702 C4.37889752,14.2075736 5.94590089,12.6405702 7.87889752,12.6405702 C9.81189414,12.6405702 11.3788975,14.2075736 11.3788975,16.1405702 C11.3788975,18.0735668 9.81189414,19.6405702 7.87889752,19.6405702 Z M7.87889752,17.6405702 C8.70732464,17.6405702 9.37889752,16.9689973 9.37889752,16.1405702 C9.37889752,15.3121431 8.70732464,14.6405702 7.87889752,14.6405702 C7.05047039,14.6405702 6.37889752,15.3121431 6.37889752,16.1405702 C6.37889752,16.9689973 7.05047039,17.6405702 7.87889752,17.6405702 Z"/>
</svg>
