<svg xmlns="http://www.w3.org/2000/svg" width="24" height="24" viewBox="0 0 24 24">
  <path fill="#000000" d="M11,10 L11,12.0549288 C11.3283339,12.0186333 11.6619909,12 12,12 C16.9705627,12 21,16.0294373 21,21 C21,21.5522847 20.5522847,22 20,22 L4,22 C3.44771525,22 3,21.5522847 3,21 C3,17.0813435 5.50442288,13.7476263 9,12.5121171 L9,3 C9,2.44771525 9.44771525,2 10,2 C10.5522847,2 11,2.44771525 11,3 L17,3 C17.5522847,3 18,3.44771525 18,4 L18,9 C18,9.55228475 17.5522847,10 17,10 L11,10 Z M6,20 C6,19.4477153 6.44771525,19 7,19 C7.55228475,19 8,19.4477153 8,20 L18.9291111,20 C18.7895795,19.0245187 18.4489318,18.1139146 17.9505183,17.3115381 C17.8195821,17.7112783 17.4435083,18 17,18 C16.4477153,18 16,17.5522847 16,17 C16,16.4802161 16.3965714,16.0530564 16.9036538,16.0045815 C15.6407122,14.7646965 13.9096583,14 12,14 C8.47352809,14 5.55611852,16.6077059 5.07088886,20 L6,20 Z M10,18 C9.44771525,18 9,17.5522847 9,17 C9,16.4477153 9.44771525,16 10,16 C10.5522847,16 11,16.4477153 11,17 C11,17.5522847 10.5522847,18 10,18 Z M14,19 C13.4477153,19 13,18.5522847 13,18 C13,17.4477153 13.4477153,17 14,17 C14.5522847,17 15,17.4477153 15,18 C15,18.5522847 14.5522847,19 14,19 Z M11,5 L11,8 L16,8 L16,5 L11,5 Z"/>
</svg>
