<svg xmlns="http://www.w3.org/2000/svg" width="24" height="24" viewBox="0 0 24 24">
  <path fill="#000000" d="M5,12.4999762 C5,16.6320168 8.51964707,19.9999762 12.8828267,19.9999762 C14.3660469,19.9999762 15.779969,19.6083413 16.9949501,18.9003904 C12.4946435,18.2526346 9.03126898,14.5226334 9.03126898,9.99998814 C9.03126898,8.34567102 9.49836864,6.76432875 10.3462054,5.39649458 C7.17991356,6.41853942 5,9.26170596 5,12.4999762 Z M13.506834,4.76397864 C11.940746,6.08666613 11.031269,7.97390455 11.031269,9.99998814 C11.031269,13.8558798 14.3169707,16.9999762 18.391564,16.9999762 C18.7973834,16.9999762 19.1986748,16.9688187 19.5929212,16.9073123 C20.5114657,16.7640103 21.1114056,17.8420843 20.5054736,18.5471417 C18.6388162,20.7191685 15.8672449,21.9999762 12.8828267,21.9999762 C7.43430691,21.9999762 3,17.7567764 3,12.4999762 C3,8.24428889 5.93297772,4.5518591 10.1074297,3.37990583 C10.9945472,3.13085269 11.9185796,3.00210891 12.8593534,3.00000251 C13.79248,2.99791323 14.2197245,4.16188509 13.506834,4.76397864 Z"/>
</svg>
