<svg xmlns="http://www.w3.org/2000/svg" width="24" height="24" viewBox="0 0 24 24">
  <path fill="#000000" d="M11.8262297,8.41006929 L7.01808481,14.1401933 L7.6549298,15.0739973 C8.01911544,15.6080017 8.45488337,16.0894845 8.95003015,16.504962 C9.44517692,16.9204394 9.9950152,17.2659785 10.584147,17.5319024 L11.6143515,17.9969189 L16.4212604,12.2682679 C17.5171524,10.9622347 18.3563731,9.47099247 18.9044194,7.87328601 L15.720763,5.20188113 C14.243561,6.01940667 12.921611,7.10464473 11.8262297,8.41006929 Z M19.4534084,5.72312791 C19.4857642,5.53409607 19.5142229,5.3441476 19.5387351,5.15339553 L19.7316332,3.65227119 L18.2889381,4.10326807 C18.1050453,4.16075428 17.9226354,4.22199697 17.7418113,4.28692744 L19.4534084,5.72312791 Z M7.3260531,10.9105382 L10.3885528,7.26079315 C12.3325773,4.94399494 14.9000057,3.23303989 17.7866136,2.33066546 L20.7183655,1.41417873 C21.2454941,1.24939452 21.8064003,1.54313272 21.9711845,2.07026137 C22.0141951,2.20784795 22.026951,2.35310706 22.0085781,2.49608402 L21.6168359,5.54460351 C21.2312257,8.54540337 19.9924987,11.3724944 18.0477613,13.6901422 L15.0873701,17.218199 L16.0896042,19.8665329 C16.2634269,20.3258475 16.2013984,20.8411606 15.923544,21.2461065 L14.6066249,23.1653894 C14.474847,23.357443 14.3001551,23.5161703 14.0963894,23.6289958 C13.3716444,24.0302889 12.4588101,23.7680793 12.057517,23.0433343 L10.7999119,20.772069 L9.57252049,22.234817 C9.2175187,22.6578917 8.5867631,22.7130757 8.16368844,22.3580739 L3.56742178,18.5013482 C3.14434712,18.1463464 3.08916315,17.5155908 3.44416495,17.0925161 L4.56702972,15.754338 L2.03532629,14.9001084 C1.25190795,14.6307625 0.835169901,13.7773285 1.1045158,12.9939102 C1.18024373,12.7736482 1.30622466,12.5740476 1.47247761,12.4109219 L3.13392164,10.7807297 C3.48446662,10.4367785 3.98117979,10.2862092 4.46370034,10.377632 L7.3260531,10.9105382 Z M4.34812622,12.3913164 L3.45072985,13.2718327 L4.93079159,13.7650997 L5.85370298,12.6652167 L4.34812622,12.3913164 Z M13.4152734,21.3666868 L14.1265814,20.3300238 L13.6136166,18.97455 L12.6961539,20.0679395 L13.4152734,21.3666868 Z M7.75886688,18.1733499 C7.24302936,17.7405108 6.77741475,17.2518442 6.37040339,16.7166086 L5.61904144,17.6120469 L8.68321922,20.1831974 L9.43458117,19.2877591 C8.83680026,18.9798738 8.2747044,18.606189 7.75886688,18.1733499 Z M14.1129329,10.3848219 C13.2667836,9.67481832 13.1564157,8.41330713 13.8664193,7.5671578 C14.5764228,6.72100848 15.837934,6.61064055 16.6840834,7.32064414 C17.5302327,8.03064773 17.6406006,9.29215892 16.930597,10.1383082 C16.2205934,10.9844576 14.9590823,11.0948255 14.1129329,10.3848219 Z"/>
</svg>
