<svg xmlns="http://www.w3.org/2000/svg" width="24" height="24" viewBox="0 0 24 24">
  <path fill="#000000" fill-rule="evenodd" d="M16.0147374,4.96472296 L18.3180597,2.21973037 C18.8505623,1.58511838 19.7966957,1.50234243 20.4313077,2.03484512 C21.0659197,2.56734781 21.1486957,3.5134812 20.616193,4.1480932 L18.3128707,6.89308579 L22.0792559,10.0534582 C22.5023306,10.40846 22.5575145,11.0392156 22.2025127,11.4622903 C20.5400169,13.4435756 18.1815187,14.480159 15.8792241,14.4605644 L13.6501554,17.117065 C11.9920828,19.093079 9.30631553,18.8080141 7.57555554,17.355734 C5.84479555,15.9034539 5.12496286,13.2754794 6.75575539,11.3319765 L8.98482409,8.6754759 C8.56573791,6.41156089 9.17702437,3.9088927 10.8395202,1.92760738 C11.1945219,1.50453271 11.8252775,1.44934875 12.2483522,1.80435054 L16.0147374,4.96472296 Z M9.76234096,10.860315 L8.28784427,12.6175518 C7.52697051,13.5243258 7.77378322,14.9112522 8.86113076,15.8236451 C9.9646529,16.7496101 11.3415532,16.7569024 12.1180665,15.8314898 L13.5925632,14.0742531 C12.8016845,13.8032396 12.0517354,13.3880351 11.3787156,12.8233044 C10.7056957,12.2585736 10.1665718,11.5921175 9.76234096,10.860315 Z M11.7861033,4.02729227 C10.2843359,6.48794576 10.6211594,9.57682469 12.6642908,11.2912155 C14.7074222,13.0056063 17.8078629,12.8009345 19.9703543,10.8946943 L11.7861033,4.02729227 Z M5.30939397,10.7220972 C4.81337576,10.8215733 4.29903268,10.690183 3.91149477,10.3650001 L1.84347394,8.62972456 C0.785787278,7.74222007 0.647827368,6.16533108 1.53533185,5.10764443 C2.42283634,4.04995777 3.99972533,3.91199786 5.05741199,4.79950234 L7.12543282,6.53477786 C7.51297072,6.85996077 7.73167969,7.34367414 7.7198475,7.84943056 C7.70772944,8.36740652 7.51968599,8.86583567 7.18664635,9.26273686 L6.60863956,9.95157853 C6.27559992,10.3484797 5.81739643,10.6202177 5.30939397,10.7220972 Z M5.07655067,8.66600331 L5.65455747,7.97716164 C5.66548169,7.96414266 5.67514243,7.95023898 5.68346811,7.93564038 L3.77183677,6.33159123 C3.56029943,6.15409033 3.24492164,6.18168231 3.06742074,6.39321964 C2.88991984,6.60475698 2.91751182,6.92013477 3.12904916,7.09763567 L5.0406805,8.70168483 C5.05361158,8.69095062 5.06562645,8.67902229 5.07655067,8.66600331 Z M14.5019273,18.4355485 C14.5140453,17.9175726 14.7020888,17.4191434 15.0351284,17.0222422 L15.6131352,16.3334006 C15.9461749,15.9364994 16.4043784,15.6647614 16.9123808,15.5628819 C17.408399,15.4634058 17.9227421,15.5947961 18.31028,15.919979 L20.3783008,17.6552545 C21.4359875,18.542759 21.5739474,20.119648 20.6864429,21.1773347 C19.7989384,22.2350213 18.2220495,22.3729812 17.1643628,21.4854768 L15.096342,19.7502012 C14.7088041,19.4250183 14.4900951,18.941305 14.5019273,18.4355485 Z M16.5672173,18.3078175 C16.5562931,18.3208364 16.5466324,18.3347401 16.5383067,18.3493387 L18.449938,19.9533879 C18.6614754,20.1308888 18.9768531,20.1032968 19.154354,19.8917594 C19.3318549,19.6802221 19.304263,19.3648443 19.0927256,19.1873434 L17.1810943,17.5832943 C17.1681632,17.5940285 17.1561483,17.6059568 17.1452241,17.6189758 L16.5672173,18.3078175 Z"/>
</svg>
