<svg xmlns="http://www.w3.org/2000/svg" width="24" height="24" viewBox="0 0 24 24">
  <path fill="#000000" d="M7.23585948,15.8754777 C8.82829617,15.2457385 10.7150374,14.3444719 12.6365273,13.2350991 C14.5241863,12.1452587 16.1604711,10.9389557 17.4152797,9.83829763 C17.0285638,8.83737805 16.3811739,7.96615167 15.556357,7.30786542 L15.5494127,7.31076791 C14.8761189,6.77197645 14.0842389,6.37548176 13.2192377,6.1667982 L13.2219912,6.16552539 C12.7711554,6.05731393 12.3005167,6 11.8164917,6 L11.8099777,6 C9.17913522,6 6.94419604,7.6969058 6.1377195,10.0570358 C5.92949188,10.6664079 5.81649169,11.3199933 5.81649169,12 C5.81649169,13.0820218 6.10259627,14.0971477 6.60320375,14.9736982 C6.60817571,14.9824039 6.61335388,14.990912 6.61873611,14.9992241 C6.79844726,15.3099983 7.00522978,15.6031576 7.23585948,15.8754777 Z M6.70093997,18.1509665 C3.99803454,18.9861113 1.9485313,18.9639141 1.22019675,17.7024017 C0.451774993,16.3714562 1.55516896,14.3559372 3.81978922,12.2319341 C3.81759582,12.1548906 3.81649169,12.0775742 3.81649169,12 C3.81649169,7.581722 7.39821369,4 11.8164917,4 C13.2909065,4 14.6721617,4.39886433 15.8582409,5.09457691 C18.778159,4.09526644 20.9761166,4.06286091 21.7588074,5.41852123 C22.4879853,6.68149442 21.627528,8.52346516 19.6751327,10.4949313 C19.7679273,10.9823886 19.8164917,11.4855229 19.8164917,12 C19.8164917,16.418278 16.2347697,20 11.8164917,20 C9.87098094,20 8.08767219,19.3055307 6.70093997,18.1509665 Z M4.24354774,14.5856053 C3.25648765,15.6038082 2.7627001,16.3961685 2.95224756,16.7024017 C3.13502947,16.9977045 3.98563991,16.9316142 5.24725495,16.5668844 C4.826014,15.9620845 4.486156,15.2963692 4.24354774,14.5856053 Z M18.9400151,8.35548725 C19.8197837,7.38497576 20.2352411,6.6362004 20.0471236,6.34690976 C19.8509896,6.04529107 18.969648,6.12778743 17.657063,6.53299347 C18.1648053,7.07520773 18.5979174,7.68816705 18.9400151,8.35548725 Z M11.8164917,18 C15.0796113,18 17.7343247,15.3951032 17.8146208,12.1513206 C16.6191845,13.1047959 15.208744,14.0594302 13.6365273,14.9671499 C12.031537,15.8937915 10.4619304,16.6863829 9.00394813,17.3013131 C9.84284123,17.7473038 10.8001563,18 11.8164917,18 Z M8.81649169,11 C8.26420694,11 7.81649169,10.5522847 7.81649169,10 C7.81649169,9.44771525 8.26420694,9 8.81649169,9 C9.36877644,9 9.81649169,9.44771525 9.81649169,10 C9.81649169,10.5522847 9.36877644,11 8.81649169,11 Z M8.81649169,14 C8.26420694,14 7.81649169,13.5522847 7.81649169,13 C7.81649169,12.4477153 8.26420694,12 8.81649169,12 C9.36877644,12 9.81649169,12.4477153 9.81649169,13 C9.81649169,13.5522847 9.36877644,14 8.81649169,14 Z M11.8164917,13 C11.2642069,13 10.8164917,12.5522847 10.8164917,12 C10.8164917,11.4477153 11.2642069,11 11.8164917,11 C12.3687764,11 12.8164917,11.4477153 12.8164917,12 C12.8164917,12.5522847 12.3687764,13 11.8164917,13 Z"/>
</svg>
