<svg xmlns="http://www.w3.org/2000/svg" width="24" height="24" viewBox="0 0 24 24">
  <path fill="#000000" fill-rule="evenodd" d="M8.21102582,21.4158136 L4.67758905,18.4509081 C4.46605172,18.2734073 4.43845973,17.9580295 4.61596063,17.7464921 C4.65050471,17.7053241 4.69145985,17.6699944 4.73724971,17.6418627 L5.43184534,17.2151285 L3.98212913,15.1699244 C3.85064007,14.9844247 3.86086822,14.7335647 4.00702223,14.5593852 L4.61202973,13.8383653 C4.04039948,13.5597607 3.51826815,13.2221655 3.04563575,12.8255799 C2.21506658,12.1286496 1.53735972,11.2495451 1.01251518,10.1882664 C0.836596134,9.8324547 0.887738852,9.40627249 1.14287732,9.10221031 L2.23663056,7.79872595 C3.18581545,6.66753145 4.55653611,5.97400015 6.03016872,5.87934331 C8.3734134,5.7288271 10.0372827,5.57195301 11.0217766,5.40872003 C11.4245085,5.34194551 11.851289,5.24525712 12.3021183,5.11865487 C13.924712,3.77240186 15.7816813,2.72148115 17.7892977,2.02361839 L19.2316969,1.52222944 C20.27503,1.15955892 21.4148211,1.71134493 21.7774916,2.75467799 C21.8862993,3.06769688 21.9156212,3.40284757 21.8628217,3.73000526 L21.6195199,5.23755643 C21.3175656,7.10853188 20.718374,8.91029659 19.8519395,10.5772887 C19.7371138,11.3480311 19.6829329,12.0495071 19.6893967,12.6817168 C19.6995992,13.6795992 19.8340362,15.3454315 20.0927068,17.6792139 C20.2553817,19.1468957 19.8104098,20.6172224 18.8612249,21.748417 L17.7674717,23.0519013 C17.5123332,23.3559635 17.1015065,23.480335 16.7205524,23.3688746 C15.5842586,23.0362927 14.6008271,22.5215367 13.770258,21.8246064 C13.2214978,21.3641419 12.7394665,20.824153 12.3241641,20.2046397 L11.6674667,20.9872613 C11.5213126,21.1614408 11.2760399,21.215075 11.0705255,21.1177952 L9.35701726,20.3067101 L8.99742005,21.2165701 C8.89592189,21.4733827 8.60545359,21.59929 8.34864095,21.4977918 C8.29866173,21.4780389 8.25219385,21.4503577 8.21102582,21.4158136 Z M11.5785998,8.64737799 L6.28338051,14.9579747 L7.2034109,16.2559183 C7.48851183,16.6581277 7.82399563,17.0221312 8.20166019,17.3390294 C8.57932475,17.6559276 8.99605439,17.9231061 9.44166064,18.1340328 L10.8796472,18.8147003 L16.1748665,12.5041037 C17.7985455,10.5690783 18.9280699,8.27423398 19.4731588,5.81690744 L17.5914601,4.23797473 C15.2661195,5.20149276 13.2022789,6.71235267 11.5785998,8.64737799 Z M6.15837186,7.87523007 C5.23009078,7.93485698 4.36663671,8.37173112 3.76871944,9.08430117 L3.1146416,9.8638008 C3.45989149,10.4281488 3.8648529,10.9021701 4.33121097,11.293491 C4.79704617,11.6843731 5.33436604,12.0011733 5.9504069,12.2433495 L9.86725321,7.57543383 C8.8927343,7.67949322 7.65952759,7.7788047 6.15837186,7.87523007 Z M18.1048798,17.8995405 C17.9391673,16.4044466 17.822826,15.1727298 17.756081,14.1949463 L13.8392347,18.862862 C14.1847061,19.4274904 14.589998,19.9016354 15.0558332,20.2925175 C15.5221912,20.6838384 16.0593319,21.0003346 16.6750582,21.2423414 L17.329136,20.4628417 C17.9270533,19.7502717 18.2073531,18.824073 18.1048798,17.8995405 Z M17.6685928,5.73145965 C18.1562313,5.99074163 18.3413508,6.59624031 18.0820688,7.0838788 C17.8227868,7.57151729 17.2172882,7.75663682 16.7296497,7.49735483 C16.2420112,7.23807285 16.0568917,6.63257417 16.3161736,6.14493568 C16.5754556,5.65729719 17.1809543,5.47217766 17.6685928,5.73145965 Z M12.0632111,12.6620958 C12.492417,13.0096598 12.5586008,13.6393563 12.2110367,14.0685621 L10.9523959,15.622854 C10.6048319,16.0520599 9.97513543,16.1182437 9.54592957,15.7706796 C9.1167237,15.4231156 9.05053994,14.7934191 9.398104,14.3642133 L10.6567448,12.8099213 C11.0043088,12.3807155 11.6340053,12.3145317 12.0632111,12.6620958 Z"/>
</svg>
