<svg xmlns="http://www.w3.org/2000/svg" width="24" height="24" viewBox="0 0 24 24">
  <path fill="#000000" d="M12,4 C14.5422112,4 16.6057739,4.65643255 18,5.93187082 L18,4.73243561 C17.4021986,4.38662619 17,3.74028236 17,3 C17,1.8954305 17.8954305,1 19,1 C20.1045695,1 21,1.8954305 21,3 C21,3.74028236 20.5978014,4.38662619 20,4.73243561 L20,19 C20,20.9253742 16.417914,22 12,22 C7.582086,22 4,20.9253742 4,19 L4,15 C3.44771525,15 3,14.5522847 3,14 L3,11 C3,10.4477153 3.44771525,10 4,10 C4.01708685,10 4.03407361,10.0004285 4.05095011,10.0012755 C4.47001511,6.02954734 7.44767331,4 12,4 Z M18,11 C18,7.65247932 15.8730538,6 12,6 C8.08760209,6 6,7.6061348 6,11 L6,18.837544 C6.02424406,18.8577489 6.05575087,18.8816686 6.09458682,18.9081477 C6.34369195,19.0779921 6.75454626,19.2573332 7.28734789,19.4171737 C8.50607748,19.7827926 10.1816775,20 12,20 C13.8183225,20 15.4939225,19.7827926 16.7126521,19.4171737 C17.2454537,19.2573332 17.6563081,19.0779921 17.9054132,18.9081477 C17.9442491,18.8816686 17.9757559,18.8577489 18,18.837544 L18,11 Z M7,12.5 C7,9.69771525 8.69771525,8 12,8 C15.3022847,8 17,9.69771525 17,12.5 C17,13.1523564 16.9624719,13.7376083 16.885985,14.2575286 C16.6994211,15.5255646 15.7279029,16.5350319 14.4679421,16.7700125 C13.6462038,16.9232654 12.8233054,17 12,17 C11.1766866,17 10.3537801,16.9232639 9.53201776,16.7700051 C8.27205849,16.5350012 7.30054878,15.5255239 7.11400856,14.2574852 C7.03752676,13.7375871 7,13.1523446 7,12.5 Z M9,12.5 C9,13.0600977 9.03138026,13.5494834 9.09271247,13.9663996 C9.15489249,14.3890788 9.47873305,14.7255754 9.89871169,14.8039085 C10.6000502,14.9347083 11.3002286,15 12,15 C12.6997646,15 13.399936,14.9347096 14.1012677,14.8039124 C14.5212543,14.7255856 14.8450974,14.3890926 14.9072843,13.9664213 C14.9686186,13.5495004 15,13.0601074 15,12.5 C15,10.8022847 14.1977153,10 12,10 C9.80228475,10 9,10.8022847 9,12.5 Z"/>
</svg>
