<svg xmlns="http://www.w3.org/2000/svg" width="24" height="24" viewBox="0 0 24 24">
  <path fill="#000000" d="M11,11 L11,7.03764995 L10.3198664,7.03764995 C7.38425511,7.03764995 5.00447196,4.6578668 5.00447196,1.72225551 C5.00447196,1.45557319 5.02454178,1.189269 5.06451138,0.925598956 C5.13238381,0.477860622 5.49267103,0.131619401 5.94275317,0.0815959235 L6.43297005,0.0271117513 C9.30981874,-0.292629828 11.9363651,1.48533272 12.7860295,4.13981465 C13.7955012,3.28914879 15.1370583,2.83576021 16.5533149,2.987283 L17.1357769,3.049599 C17.5854531,3.09770906 17.9468718,3.44162783 18.0172223,3.888365 C18.0533046,4.11749305 18.0714284,4.3490903 18.0714284,4.581042 C18.0714284,7.04026467 16.0778346,9.033859 13.6186119,9.033859 L13,9.033859 L13,11 L17,11 C18.1045695,11 19,11.8954305 19,13 L19,15 C19,15.7180181 18.6216302,16.3476631 18.053401,16.7004246 L17.4811596,21.7798749 C17.3387129,23.0442903 16.269289,24 14.9968749,24 L9.00320167,24 C7.73078762,24 6.66136375,23.0442903 6.51891706,21.7798749 L5.94668141,16.7004758 C5.37840642,16.347724 5,15.7180528 5,15 L5,13 C5,11.8954305 5.8954305,11 7,11 L11,11 Z M16.0069995,17 L7.99307709,17 L8.50634475,21.555975 C8.53483409,21.8088581 8.74871886,22 9.00320167,22 L14.9968749,22 C15.2513578,22 15.4652425,21.8088581 15.4937319,21.555975 L16.0069995,17 Z M7,15 L17,15 L17,13 L7,13 L7,15 Z M13.6186119,7.033859 C14.8448421,7.033859 15.8609085,6.13404103 16.042537,4.958679 C14.7211436,4.94704955 13.5562771,5.80137732 13.1526246,7.033859 L13.6186119,7.033859 Z M10.3198664,5.03764995 L10.96137,5.03764995 C10.5287896,3.2303288 8.88508308,1.95215336 7.01520986,1.99104013 C7.15202757,3.69638116 8.57931193,5.03764995 10.3198664,5.03764995 Z"/>
</svg>
