<svg xmlns="http://www.w3.org/2000/svg" width="24" height="24" viewBox="0 0 24 24">
  <path fill="#000000" d="M8.08433296,15.2170835 C8.38933286,13.8218294 9.49383764,12.7012325 10.941742,12.4116516 L12,12.2 L12,11 L11.2491205,11 C8.31350923,11 5.93372608,8.62021685 5.93372608,5.68460557 C5.93372608,5.41792324 5.95379589,5.15161905 5.9937655,4.88794901 C6.06163792,4.44021067 6.42192515,4.09396945 6.87200729,4.04394597 L7.36222417,3.9894618 C9.16121117,3.789517 10.8623197,4.40985998 12.0922547,5.55187384 C12.8339013,2.10573434 16.0845099,-0.281486198 19.6603207,0.126594925 L20.0584938,0.172035513 C20.50877,0.223422237 20.8681955,0.571198469 20.9343846,1.01953788 C20.978489,1.31828471 21.0006303,1.6198632 21.0006303,1.92184808 C21.0006303,5.33394708 18.2345775,8.09999983 14.8224785,8.09999983 L14,8.09999983 L14,9.84240205 C14.0008465,9.89954489 14.0008738,9.95670675 14.0000808,10.01387 L14,10.0188289 L14,12.2 L15.058258,12.4116516 C16.6880015,12.7376003 17.8826757,14.1164032 17.9918463,15.7546582 L20.5211212,14.8663986 C21.812932,14.4127258 23.2279261,15.0921708 23.681599,16.3839817 C23.705792,16.4528701 23.7269299,16.5227938 23.7449509,16.5935481 C24.090854,17.9516415 23.5014449,19.3753846 22.2968161,20.0915802 L17.7413461,22.7999727 C16.3941541,23.6009272 14.8171369,23.9265937 13.2628722,23.7248129 L7.74466849,23.0084176 C7.70197782,23.0028754 7.65897382,23.0000956 7.6159249,23.0000956 L7,23.0000956 C6.99994836,23.5523364 6.5522529,24 6,24 L2,24 C1.44771525,24 1,23.5522847 1,23 L1,17 C1,16.4477153 1.44771525,16 2,16 L6,16 C6.11721551,16 6.22972072,16.0201672 6.33423509,16.0572211 L8.08433296,15.2170835 Z M15.5896587,16 L11.7508201,16 C11.3037099,16.0010149 10.8624486,16.1019569 10.4593238,16.2954777 L7.11381089,17.9014971 C7.07637159,17.9194699 7.03836973,17.9349046 7,17.9478695 L7,21.0000956 L7.6159249,21.0000956 C7.74507167,21.0000956 7.87408367,21.008435 8.00215567,21.0250618 L13.5203593,21.7414571 C14.6305484,21.8855862 15.7569893,21.6529673 16.7192693,21.0808569 L21.2747393,18.3724645 C21.7173557,18.1093129 21.9339221,17.5861874 21.806827,17.0871835 C21.8033445,17.0735103 21.7992596,17.0599976 21.7945843,17.046685 C21.7069124,16.7970436 21.4334659,16.6657414 21.1838246,16.7534133 L16.7362446,18.3153651 C16.6919187,18.330932 16.6472332,18.3431915 16.6024574,18.3522729 L15.4762702,18.7933706 C15.1276609,18.9299116 14.7565734,18.9999923 14.382178,18.9999923 L12.2779134,18.9999923 C11.7256287,18.9999923 11.2779134,18.552277 11.2779134,17.9999923 C11.2779134,17.4477075 11.7256287,16.9999923 12.2779134,16.9999923 L14.382178,16.9999923 C14.5069765,16.9999923 14.6306723,16.976632 14.7468754,16.9311184 L15.9661623,16.453556 C16.0199483,16.4324895 16.047755,16.3729367 16.0293754,16.3181743 C15.9658617,16.1289341 15.7890708,16.0011429 15.5896587,16 Z M11.2491205,9 L11.8906241,9 C11.4580437,7.19267885 9.8143372,5.91450341 7.94446398,5.95339018 C8.08128169,7.65873121 9.50856605,9 11.2491205,9 Z M14.8224785,6.09999983 C17.0760102,6.09999983 18.9128432,4.31590105 18.9975756,2.08310552 C16.5861788,2.01981316 14.4700344,3.72262232 14.0219079,6.09999983 L14.8224785,6.09999983 Z M5,22 L5,18 L3,18 L3,22 L5,22 Z"/>
</svg>
