<svg xmlns="http://www.w3.org/2000/svg" width="24" height="24" viewBox="0 0 24 24">
  <path fill="#000000" d="M15.1568032,21.9597522 L12.8403632,21.9681087 C12.4376662,23.1499298 11.3181054,24 10,24 C8.68951632,24 7.57528772,23.1597321 7.16669411,21.9885763 L6.00721489,21.992759 C4.90265693,21.9967437 4.00400477,21.1045563 4.00001306,20 C1.790861,20 -1.84889141e-13,18.209139 -1.85185201e-13,16 L-1.86517468e-13,8 C-1.86813528e-13,5.790861 1.790861,4 4,4 L9.03544443,4 C9.27805926,2.30385293 10.736764,1 12.5,1 L15,1 C15.5522847,1 16,1.44771525 16,2 L19,2 C19.5522847,2 20,2.44771525 20,3 C20,3.55228475 19.5522847,4 19,4 L16,4 L16,6 L19,6 C19.5522847,6 20,6.44771525 20,7 C20,7.55228475 19.5522847,8 19,8 L16,8 C16,8.55228475 15.5522847,9 15,9 L12.5,9 C10.736764,9 9.27805926,7.69614707 9.03544443,6 L4,6 C2.8954305,6 2,6.8954305 2,8 L2,16 C2,17.1045695 2.8954305,18 4,18 L4,17.020945 C4,16.1485703 4.56544379,15.3768385 5.39725939,15.1139307 L6.84423291,14.6565929 L8.22720645,12.059857 C8.57461009,11.4075556 9.25341889,11 9.99246311,11 L14.3778295,11 C14.9821209,11 15.5540132,11.2732227 15.9337119,11.7433258 L18.25,14.6111111 L21.7709783,15.3111887 C22.5226513,15.4606441 23.1228196,16.0264965 23.3162215,16.7680791 L24.0104588,19.4300705 C24.2892029,20.4988901 23.6487201,21.5913064 22.5799005,21.8700506 C22.4174422,21.9124191 22.2502955,21.9341627 22.0824045,21.9347683 L20.8500441,21.939214 C20.45586,23.1360493 19.3288232,24 18,24 C16.67879,24 15.5570609,23.1459206 15.1568032,21.9597522 Z M20.807117,19.9393559 L22.0751896,19.9347813 L21.3809523,17.27279 L17.859974,16.5727124 C17.4008321,16.4814211 16.9882609,16.2319627 16.6941176,15.8677853 L14.3778295,13 L9.99246311,13 L8.60948956,15.5967359 C8.36343786,16.0587341 7.94607216,16.4058596 7.44697352,16.5636073 L6,17.020945 L6,19.9927721 L7.17478472,19.9885341 C7.58984104,18.829335 8.69806974,18 10,18 C11.2942963,18 12.3971559,18.8196377 12.8178427,19.9681769 L15.1853003,19.9596364 C15.6083164,18.8155766 16.7089142,18 18,18 C19.2834439,18 20.378648,18.8059504 20.807117,19.9393559 Z M14,7 L14,3 L12.5,3 C11.6715729,3 11,3.67157288 11,4.5 L11,5.5 C11,6.32842712 11.6715729,7 12.5,7 L14,7 Z M10,22 C10.5522847,22 11,21.5522847 11,21 C11,20.4477153 10.5522847,20 10,20 C9.44771525,20 9,20.4477153 9,21 C9,21.5522847 9.44771525,22 10,22 Z M18,22 C18.5522847,22 19,21.5522847 19,21 C19,20.4477153 18.5522847,20 18,20 C17.4477153,20 17,20.4477153 17,21 C17,21.5522847 17.4477153,22 18,22 Z"/>
</svg>
