<svg xmlns="http://www.w3.org/2000/svg" width="24" height="24" viewBox="0 0 24 24">
  <path fill="#000000" d="M20,3 L20,5 L23,5 C23.5522847,5 24,5.44771525 24,6 C24,6.55228475 23.5522847,7 23,7 L20,7 C20,7.55228475 19.5522847,8 19,8 L16.5,8 C14.736764,8 13.2780593,6.69614707 13.0354444,5 L5,5 C3.8954305,5 3,5.8954305 3,7 L3,18 C3,19.1045695 3.8954305,20 5,20 L8,20 L8,16.9256131 L7.12864376,17.7333656 C6.72361711,18.1088278 6.09090589,18.0848611 5.7154437,17.6798344 C5.33998151,17.2748078 5.36394825,16.6420966 5.7689749,16.2666344 L13.3201656,9.26663437 C13.7046655,8.91020055 14.2991714,8.9112476 14.6824134,9.26903358 L18.6834477,13.0043085 L22.171576,16.2700006 C22.5747435,16.6474583 22.5955854,17.2802802 22.2181277,17.6834477 C21.8406699,18.0866153 21.2078481,18.1074572 20.8046805,17.7299994 L20,16.9766327 L20,23 C20,23.5522847 19.5522847,24 19,24 L9,24 C8.44771525,24 8,23.5522847 8,23 L8,22 L5,22 C2.790861,22 1,20.209139 1,18 L1,7 C1,4.790861 2.790861,3 5,3 L13.0354444,3 C13.2780593,1.30385293 14.736764,-1.41784646e-13 16.5,-1.42108547e-13 L19,-1.42108547e-13 C19.5522847,-1.4221e-13 20,0.44771525 20,1 L23,1 C23.5522847,1 24,1.44771525 24,2 C24,2.55228475 23.5522847,3 23,3 L20,3 Z M18,2 L16.5,2 C15.6715729,2 15,2.67157288 15,3.5 L15,4.5 C15,5.32842712 15.6715729,6 16.5,6 L18,6 L18,2 Z M18,22 L18,15.1041709 L17.3175866,14.4652744 L13.9975945,11.3658062 L10,15.0716008 L10,22 L11,22 L11,18 C11,17.4477153 11.4477153,17 12,17 L16,17 C16.5522847,17 17,17.4477153 17,18 L17,22 L18,22 Z M13,22 L15,22 L15,19 L13,19 L13,22 Z"/>
</svg>
