<svg xmlns="http://www.w3.org/2000/svg" width="24" height="24" viewBox="0 0 24 24">
  <path fill="#000000" d="M17.7044988,16.2831735 C17.2456548,16.9501566 17,17.7406741 17,18.55025 L17,19.9760545 C17,22.1984182 15.1984182,24 12.9760545,24 L11.0239455,24 C8.80158179,24 7,22.1984182 7,19.9760609 L6.99999078,18.5502417 C6.99999078,17.7406698 6.75433739,16.950153 6.2954962,16.2831662 C4.11065291,13.1072054 3,10.590844 3,8.64896074 C3,3.86198482 7.03922566,0 12,0 C16.9607743,0 21,3.86198482 21,8.64896074 C21,10.5908446 19.8893464,13.1072069 17.7044988,16.2831735 Z M13,16 L15.5689536,16 C15.7074609,15.7050304 15.8703821,15.4205361 16.05675,15.1496286 C18.0310709,12.2796907 19,10.0844277 19,8.64896074 C19,4.98712793 15.8757817,2 12,2 C8.12421834,2 5,4.98712793 5,8.64896074 C5,10.0844272 5.96892852,12.2796893 7.94324809,15.1496259 C8.12961501,15.420535 8.29253512,15.7050302 8.43104159,16 L11,16 L11,12.1038588 L10.4552349,12.1038588 C7.99601228,12.1038588 6.0024184,10.110265 6.0024184,7.65104229 C6.0024184,7.41909059 6.02054226,7.18749347 6.0566245,6.95836542 C6.12697501,6.51162825 6.48839371,6.16770932 6.93806994,6.11959926 L7.5205319,6.05728268 C9.56501497,5.83854707 11.4538293,6.88040438 12.4126751,8.55822385 C13.4507963,7.48611979 14.9544535,6.88622334 16.5533149,7.05728268 L17.1357769,7.11959926 C17.5854531,7.16770932 17.9468718,7.51162825 18.0172223,7.95836542 C18.0533046,8.18749347 18.0714284,8.41909059 18.0714284,8.65104229 C18.0714284,11.110265 16.0778346,13.1038588 13.6186119,13.1038588 L13,13.1038588 L13,16 Z M8.99999369,19 L15,19 L15,18.55025 C15,18.3659927 15.0084834,18.1823936 15.02528,18 L8.97471187,18 C8.99150777,18.1823889 8.99999078,18.3659831 8.99999078,18.5502352 L8.99999369,19 Z M9.27774862,21 C9.62937049,21.59835 10.2797528,22 11.0239455,22 L12.9760545,22 C13.7202472,22 14.3706295,21.59835 14.7222514,21 L9.27774862,21 Z M13.6186119,11.1038588 C14.8448421,11.1038588 15.8609085,10.2040408 16.042537,9.02867874 C14.7211436,9.01704929 13.5562771,9.87137716 13.1526246,11.1038588 L13.6186119,11.1038588 Z M10.4552349,10.1038588 L10.9212222,10.1038588 C10.5175698,8.87137716 9.35270328,8.01704929 8.03130987,8.02867874 C8.21293839,9.20404076 9.22900478,10.1038588 10.4552349,10.1038588 Z"/>
</svg>
