<svg xmlns="http://www.w3.org/2000/svg" width="24" height="24" viewBox="0 0 24 24">
  <path fill="#000000" d="M6.87789457,16.3405051 C7.2278376,16.431953 7.50112472,16.7052401 7.59257267,17.0551832 L7.96231544,18.4700745 L8.75118716,17.2386897 C8.94629767,16.9341331 9.29065953,16.7586719 9.65173411,16.7798381 L11.1116325,16.8654173 L10.1842907,15.7346369 C9.95493263,15.4549626 9.89447284,15.0732345 10.0261813,14.7363729 L10.5587053,13.3743725 L9.19670486,13.9068965 C8.85984324,14.0386049 8.47811518,13.9781451 8.19844088,13.748787 L7.06766047,12.8214453 L7.15323965,14.2813436 C7.17440583,14.6424182 6.99894469,14.9867801 6.69438806,15.1818906 L5.4630033,15.9707623 L6.87789457,16.3405051 Z M2.74754545,17.3283141 C1.90411017,17.1079056 1.72689821,15.9890333 2.46094284,15.5187765 L5.12239591,13.8137488 L4.93742938,10.658398 C4.88641451,9.78813338 5.8957638,9.27384423 6.56983686,9.82664482 L9.01384873,11.8309546 L11.9576079,10.6799839 C12.7695143,10.3625393 13.5705384,11.1635635 13.2530938,11.9754698 L12.1021232,14.919229 L14.1064329,17.3632409 C14.6592335,18.0373139 14.1449444,19.0466632 13.2746798,18.9956484 L10.1193289,18.8106818 L8.41430129,21.4721349 C7.94404449,22.2061795 6.82517218,22.0289676 6.60476366,21.1855323 L5.80562024,18.1274575 L2.74754545,17.3283141 Z M13.2245563,2.29289322 C13.6150806,1.90236893 14.2482455,1.90236893 14.6387698,2.29289322 C15.0292941,2.68341751 15.0292941,3.31658249 14.6387698,3.70710678 L10.6387698,7.70710678 C10.2482455,8.09763107 9.61508056,8.09763107 9.22455627,7.70710678 C8.83403197,7.31658249 8.83403197,6.68341751 9.22455627,6.29289322 L13.2245563,2.29289322 Z M20.2245563,9.29289322 C20.6150806,8.90236893 21.2482455,8.90236893 21.6387698,9.29289322 C22.0292941,9.68341751 22.0292941,10.3165825 21.6387698,10.7071068 L17.6387698,14.7071068 C17.2482455,15.0976311 16.6150806,15.0976311 16.2245563,14.7071068 C15.834032,14.3165825 15.834032,13.6834175 16.2245563,13.2928932 L20.2245563,9.29289322 Z M19.2245563,3.29289322 C19.6150806,2.90236893 20.2482455,2.90236893 20.6387698,3.29289322 C21.0292941,3.68341751 21.0292941,4.31658249 20.6387698,4.70710678 L16.6387698,8.70710678 C16.2482455,9.09763107 15.6150806,9.09763107 15.2245563,8.70710678 C14.834032,8.31658249 14.834032,7.68341751 15.2245563,7.29289322 L19.2245563,3.29289322 Z"/>
</svg>
