<svg xmlns="http://www.w3.org/2000/svg" width="24" height="24" viewBox="0 0 24 24">
  <path fill="#000000" fill-rule="evenodd" d="M16.645869,13.562486 C17.0008708,13.9820909 16.9456868,14.6076735 16.5226121,14.9597638 C15.9328327,15.4505888 15.2968534,15.8490295 14.6347242,16.1556311 L16.1146767,21.7567841 C16.2546788,22.2866478 15.9350817,22.8287504 15.4008365,22.9676043 C15.3180828,22.9891125 15.2328884,23 15.1473403,23 L4,23 C3.44771525,23 3,22.5559566 3,22.0082013 C3,21.9120255 3.0141047,21.8163611 3.04187114,21.7242123 L5.34754781,14.0723377 C3.03156626,10.9459593 3.74178651,6.39146078 6.98792926,3.68996261 C7.41100392,3.33787229 8.04175952,3.39260368 8.39676131,3.81220858 L11.6803979,7.69340019 C11.7067413,7.66345145 11.7351828,7.63474672 11.7657117,7.60748381 L13.8955836,5.70546651 C14.3060112,5.33894667 14.9383084,5.3718122 15.307859,5.77887371 C15.6774097,6.18593522 15.6442724,6.81304681 15.2338448,7.17956664 L13.1039729,9.08158394 C13.0556095,9.12477336 13.0041654,9.16241713 12.9504335,9.19455647 L16.645869,13.562486 Z M6.96257604,15.6400094 L5.34255152,21.0164026 L13.8515179,21.0164026 L12.730626,16.7741807 C10.7049686,17.1708928 8.61570373,16.7883069 6.96257604,15.6400094 Z M7.15900404,13.1499587 C8.87339482,15.1763337 11.9622738,15.5103948 14.4229272,14.0209438 L7.55552526,5.9038144 C5.64928505,8.0485706 5.44461325,11.1235837 7.15900404,13.1499587 Z M15.4510907,4.93814102 C14.9021839,4.87765157 14.5066489,4.38728766 14.5676385,3.84288258 C14.6286282,3.29847751 15.1230469,2.90618638 15.6719538,2.96667584 C16.9853294,3.11140964 17.8236889,3.94289355 17.9696195,5.24549775 C18.0306092,5.78990283 17.6350742,6.28026673 17.0861673,6.34075618 C16.5372605,6.40124564 16.0428417,6.00895451 15.9818521,5.46454944 C15.9392209,5.08401543 15.8347714,4.98042258 15.4510907,4.93814102 Z M17.182768,1.90365985 C16.6751382,1.68788847 16.4399866,1.10483092 16.6575423,0.601364367 C16.8750979,0.0978978111 17.4629768,-0.135325209 17.9706066,0.0804461724 C19.5265541,0.741811917 20.6574248,1.86340796 21.3242594,3.4065947 C21.5418151,3.91006125 21.3066635,4.4931188 20.7990337,4.70889019 C20.2914039,4.92466157 19.703525,4.69143855 19.4859694,4.18797199 C19.0214332,3.11294375 18.2666858,2.36438624 17.182768,1.90365985 Z"/>
</svg>
