<?xml version="1.0" encoding="UTF-8"?>
<svg width="24px" height="24px" viewBox="0 0 24 24" version="1.1" xmlns="http://www.w3.org/2000/svg" xmlns:xlink="http://www.w3.org/1999/xlink">
    <!-- Generator: Sketch 52.3 (67297) - http://www.bohemiancoding.com/sketch -->
    <title>jollycons-[category]/icons/svg/icon-education-backpack</title>
    <desc>Created with Sketch.</desc>
    <g id="icons" stroke="none" stroke-width="1" fill="none" fill-rule="evenodd">
        <g id="icons---export" transform="translate(-61.000000, -58.000000)">
            <g id="row-1" transform="translate(60.000000, 58.000000)" fill="#000000" fill-rule="nonzero">
                <g id="icon---1">
                    <path d="M8,4.79088262 L8,4 C8,2.34314575 9.34314575,1 11,1 L12,1 C13.6568542,1 15,2.34314575 15,4 L15,4.79374805 C15.3691063,4.96311195 15.7361104,5.15934727 16.1008086,5.38223101 C17.8842637,6.4721813 18.9719802,8.41169871 18.9719802,10.5018433 L18.9719802,10.9130805 C20.2109614,11.1557404 21.1922179,12.1634922 21.3665431,13.4562194 L21.7319453,16.1658971 C21.9164652,17.5342237 20.9568003,18.7930546 19.5884737,18.9775745 C19.4777324,18.992508 19.3661145,19 19.2543708,19 L18.9719802,19 C18.9719802,20.6568542 17.6288345,22 15.9719802,22 L7,22 C5.3431462,22 4.00000073,20.656855 4,19.0000003 L3.74564825,19 C2.36493637,19 1.24564825,17.8807119 1.24564825,16.5 C1.24564825,16.3882564 1.25314022,16.2766384 1.26807377,16.1658971 L1.63347593,13.4562194 C1.80648449,12.1732565 2.77428031,11.1709803 4.00000817,10.9187099 L4.00000858,10.5121896 C4.00000858,8.41987799 5.089966,6.47867612 6.87637737,5.38940924 C7.2488409,5.16229908 7.62345072,4.96271164 8,4.79088262 Z M7.9175864,7.09700514 C6.72664634,7.82318254 6.00000858,9.1173162 6.00000858,10.5121906 L6,19 C6,19.5522847 6.44771525,20 7,20 L15.9719802,20 C16.524265,20 16.9719802,19.5522847 16.9719802,19 L16.9719802,10.5018433 C16.9719802,9.10841359 16.2468359,7.8154021 15.0578658,7.08876853 C13.8617337,6.35775753 12.680499,6 11.4999952,6 C10.3151195,6 9.12558178,6.36042824 7.9175864,7.09700514 Z M8.5,10 L14.5,10 C15.3284271,10 16,10.6715729 16,11.5 L16,17.5 C16,18.3284271 15.3284271,19 14.5,19 L8.5,19 C7.67157288,19 7,18.3284271 7,17.5 L7,11.5 C7,10.6715729 7.67157288,10 8.5,10 Z M9,13 L14,13 L14,12 L9,12 L9,13 Z M9,15 L9,17 L14,17 L14,15 L9,15 Z M10,4.14383873 C10.4974864,4.0481188 10.9976362,4 11.4999952,4 C12.00272,4 12.5028787,4.04819127 13,4.14405832 L13,4 C13,3.44771525 12.5522847,3 12,3 L11,3 C10.4477153,3 10,3.44771525 10,4 L10,4.14383873 Z M18.9719802,17 L19.2543708,17 C19.2767196,17 19.2990431,16.9985016 19.3211914,16.9955149 C19.5948567,16.9586109 19.7867897,16.7068447 19.7498857,16.4331794 L19.3844836,13.7235017 C19.3462145,13.4397134 19.1912825,13.1971258 18.9719802,13.041453 L18.9719802,17 Z M4.00000202,17 L4.000006,13.0620927 C3.79557946,13.2181438 3.6521528,13.4519624 3.61553551,13.7235017 L3.25013335,16.4331794 C3.24714664,16.4553277 3.24564825,16.4776513 3.24564825,16.5 C3.24564825,16.7761424 3.46950587,17 3.74564825,17 L4.00000202,17 Z" id="backpack"></path>
                </g>
            </g>
            <g id="slices" transform="translate(60.000000, 58.000000)"></g>
        </g>
    </g>
</svg>