<?xml version="1.0" encoding="UTF-8"?>
<svg width="24px" height="24px" viewBox="0 0 24 24" version="1.1" xmlns="http://www.w3.org/2000/svg" xmlns:xlink="http://www.w3.org/1999/xlink">
    <!-- Generator: Sketch 52.3 (67297) - http://www.bohemiancoding.com/sketch -->
    <title>jollycons-[category]/icons/svg/icon-education-blackboard</title>
    <desc>Created with Sketch.</desc>
    <g id="icons" stroke="none" stroke-width="1" fill="none" fill-rule="evenodd">
        <g id="icons---export" transform="translate(-316.000000, -138.000000)">
            <g id="row-2" transform="translate(60.000000, 138.000000)" fill="#000000">
                <g id="icon---10" transform="translate(256.000000, 0.000000)">
                    <path d="M13.3420973,19 L10.6579027,19 L8.38197129,22.5292557 C8.09301009,22.9773439 7.50331332,23.119914 7.04156534,22.8533237 L7,22.8293259 C6.54466328,22.5664371 6.3886534,21.9842003 6.65154218,21.5288636 C6.65934357,21.5153512 6.66747597,21.5020326 6.67593201,21.48892 L8.28097613,19 L2,19 C1.44771525,19 1,18.5522847 1,18 C1,17.4477153 1.44771525,17 2,17 L2,5 C2,3.8954305 2.8954305,3 4,3 L7.08535285,3 C7.29127106,2.41740381 7.84689059,2 8.5,2 L15.5,2 C16.1531094,2 16.7087289,2.41740381 16.9146471,3 L20,3 C21.1045695,3 22,3.8954305 22,5 L22,17 C22.5522847,17 23,17.4477153 23,18 C23,18.5522847 22.5522847,19 22,19 L15.7190239,19 L17.324068,21.48892 C17.332524,21.5020326 17.3406564,21.5153512 17.3484578,21.5288636 C17.6113466,21.9842003 17.4553367,22.5664371 17,22.8293259 L16.9584347,22.8533237 C16.4966867,23.119914 15.9069899,22.9773439 15.6180287,22.5292557 L13.3420973,19 Z M7,5 L4,5 L4,17 L20,17 L20,5 L17,5 L17,5.5 C17,6.32842712 16.3284271,7 15.5,7 L8.5,7 C7.67157288,7 7,6.32842712 7,5.5 L7,5 Z M8.04960251,11.9516322 C7.74494462,12.232268 7.27047035,12.2127942 6.98983456,11.9081364 C6.70919877,11.6034785 6.72867254,11.1290042 7.03333043,10.8483684 C7.85426998,10.0921595 8.48205857,9.65155095 9.00418985,9.51411265 C9.91017943,9.27563305 10.4963188,9.89261769 10.4963188,10.8196269 C10.4963188,11.7384665 10.7003481,11.9115281 10.929444,11.687538 C11.0652807,11.5547286 11.2014919,11.4026137 11.4275658,11.1365089 C12.0271225,10.4307887 12.183181,10.2625418 12.5046855,10.0460796 C13.153062,9.60954146 13.8840227,9.70665183 14.3421175,10.4105221 C14.4729934,10.6116152 14.5693535,10.8257098 14.6342668,11.0509577 C14.7614598,11.492315 14.7629026,11.8621156 14.6999389,12.4302449 C14.6947495,12.4770696 14.6904143,12.5164716 14.6868042,12.5499051 C14.7982337,12.537756 14.9293202,12.3874016 15.2469162,11.9892624 C15.7614162,11.3442838 15.9554844,10.8600683 15.9043758,10.561491 C15.8344898,10.1532156 16.1088086,9.76558917 16.517084,9.69570315 C16.9253594,9.62581713 17.3129859,9.90013593 17.3828719,10.3084114 C17.5208173,11.1142911 17.1746195,11.9780823 16.4195334,12.9246602 C15.3864267,14.2197655 14.4229324,14.3041097 13.5544577,13.633269 C13.2736714,13.4163797 13.1780478,13.129513 13.1705047,12.7972081 C13.1671875,12.6510712 13.171279,12.6059801 13.2090668,12.2650169 C13.2518191,11.8792572 13.2509942,11.6678287 13.1929257,11.4663322 C13.1888021,11.4520232 13.1843802,11.4379149 13.1796488,11.423993 C13.0569933,11.5415491 12.8878462,11.7344133 12.5707189,12.1076943 C12.3162036,12.4072766 12.1563769,12.5857643 11.9780849,12.7600827 C10.6285826,14.0795088 9.17504075,12.9890062 9.01152556,11.1634884 C8.76645413,11.3288751 8.43948883,11.5924882 8.04960251,11.9516322 Z M9,4 L9,5 L15,5 L15,4 L9,4 Z" id="blackboard"></path>
                </g>
            </g>
            <g id="slices" transform="translate(60.000000, 58.000000)"></g>
        </g>
    </g>
</svg>