<?xml version="1.0" encoding="UTF-8"?>
<svg width="24px" height="24px" viewBox="0 0 24 24" version="1.1" xmlns="http://www.w3.org/2000/svg" xmlns:xlink="http://www.w3.org/1999/xlink">
    <!-- Generator: Sketch 52.3 (67297) - http://www.bohemiancoding.com/sketch -->
    <title>jollycons-[category]/icons/svg/icon-education-brain</title>
    <desc>Created with Sketch.</desc>
    <g id="icons" stroke="none" stroke-width="1" fill="none" fill-rule="evenodd">
        <g id="icons---export" transform="translate(-60.000000, -138.000000)">
            <g id="row-2" transform="translate(60.000000, 138.000000)" fill="#000000" fill-rule="nonzero">
                <g id="icon---6">
                    <path d="M5.54096258,16.4007214 C3.03736426,15.812299 1.68557114,14.3611059 1.81326204,12.1927111 C1.81435745,12.1741092 1.81595467,12.1556561 1.81803974,12.1373642 C0.815204551,11.5177059 0.100364198,10.2773983 0.267340749,8.85898688 C0.429352623,7.48274882 1.24149922,6.55490799 2.55871458,6.11156819 C2.71882188,5.05767424 3.28616603,4.16920072 4.22519354,3.49808432 C5.293996,2.73421868 6.66242169,2.61874469 8.27150897,3.08024004 C8.97354529,2.41976708 10.0019776,2 11.3335088,2 C12.9220729,2 14.1365014,2.44807062 14.8633434,3.35643376 C16.0947822,2.81922002 17.4432898,2.91388187 18.827842,3.65887417 C20.5905649,4.60735044 21.4389646,6.02678589 21.2752913,7.75244891 C22.6580941,8.19261265 23.5159209,9.23805668 23.7108614,10.853817 C23.8364283,11.8945755 23.718993,12.8321463 23.3463529,13.6470735 C23.9750929,14.712468 24.1276554,15.8435407 23.5561132,17.1681758 C23.0501115,18.340911 22.1381109,19.0400162 20.9314317,19.2147776 L20.1400119,21.9110111 C20.021435,22.2996119 19.750287,22.6234863 19.3885924,22.8085486 C18.6511931,23.1858417 17.7475915,22.8939764 17.3700243,22.1564922 C16.4384318,20.3357437 15.6815514,18.9265457 15.1073923,18.1846592 C14.9872468,18.0294159 14.880162,17.9050084 14.7912956,17.8124965 C13.9618883,18.266083 12.7053998,18.3439445 11.6049836,18.0485831 C10.4716045,17.7443743 9.62141087,17.07322 9.30089905,16.1244594 C8.23402812,16.6414726 6.96629043,16.7357172 5.54096258,16.4007214 Z M9.58627984,13.2818551 C9.65640933,13.1548653 9.74136181,13.0346811 9.84779972,12.9093891 C10.2053683,12.4884816 10.8364479,12.4371352 11.2573554,12.7947039 C11.6782629,13.1522725 11.7296093,13.7833521 11.3720406,14.2042596 C11.326424,14.2579566 11.2812866,14.4126175 11.2096097,14.8603243 C11.1989067,14.927245 11.1989067,14.927245 11.1875025,14.997391 C11.1841029,15.0180611 11.1841029,15.0180611 11.1806195,15.0389896 C11.0904604,15.5788356 11.3863819,15.9191181 12.1234498,16.1169536 C12.8369891,16.3084738 13.6825786,16.2087654 13.8553734,16.0453847 C14.7860389,15.1654233 15.7320911,15.724072 16.6890509,16.9605856 C17.2230731,17.6506102 17.8529377,18.6748868 18.5877526,20.042737 L19.2220077,17.9641524 C19.3540267,17.531499 19.7600426,17.2413452 20.2121334,17.2565724 C21.0047919,17.2832704 21.4420683,17.0194256 21.7197568,16.3758405 C22.085398,15.5284121 21.8687705,14.8690864 21.1865816,14.0586877 C20.7764953,13.5715302 18.9491035,13.3693584 18.0170809,14.1170848 C17.5862948,14.4626882 16.9569066,14.3936339 16.6113032,13.9628477 C16.2656998,13.5320616 16.3347541,12.9026735 16.7655403,12.55707 C18.1590192,11.4391348 20.3251296,11.3979929 21.7351757,12.054042 C21.7704245,11.7642034 21.7676659,11.4448535 21.7252607,11.0933786 C21.5761895,9.85780561 20.832271,9.37886505 19.0330583,9.53982122 C18.4829703,9.58903167 17.997143,9.1829902 17.9479325,8.63290223 C17.8987221,8.08281426 18.3047635,7.5969869 18.8548515,7.54777646 C19.0023824,7.53457846 19.1470654,7.5252622 19.2888326,7.51981046 C19.3575132,6.6288478 18.9170933,5.97804235 17.8801708,5.42010082 C16.6016467,4.73215956 15.5849171,4.91251469 14.5519135,6.02450197 C14.176024,6.42913208 13.5432879,6.45243095 13.1386578,6.07654145 C12.7340277,5.70065195 12.7107288,5.06791578 13.0866183,4.66328567 C13.1307216,4.61581026 13.1750832,4.56935122 13.2196979,4.52390979 C12.8769029,4.1781176 12.2804859,4 11.3335088,4 C9.81343415,4 9.16644218,4.77472846 9.16644218,5.71199071 C9.16644218,6.26427546 8.71872693,6.71199071 8.16644218,6.71199071 C7.61415743,6.71199071 7.16644218,6.26427546 7.16644218,5.71199071 C7.16644218,5.43107991 7.19601621,5.15480989 7.25459341,4.8875683 C6.43227522,4.72232519 5.82158048,4.81543852 5.38810872,5.12523776 C5.00727593,5.39741629 4.75844768,5.70089846 4.62646734,6.05782515 C4.83128049,6.22248296 4.97128386,6.46713144 4.99614785,6.749585 C5.04457744,7.29974227 4.63784679,7.78499279 4.08768952,7.83342237 C2.84606083,7.94272123 2.34276177,8.33562565 2.25362495,9.09281389 C2.1352282,10.0985557 3.01811114,10.7692579 3.45420559,10.4851996 C3.91697554,10.1837657 4.5364852,10.3145544 4.83791913,10.7773243 C5.13935306,11.2400943 5.00856437,11.8596039 4.54579441,12.1610379 C4.30673905,12.3167511 4.05777917,12.4237744 3.80544561,12.4869748 C3.81673155,13.476477 4.45559861,14.0911307 5.99855521,14.4537728 C7.6460486,14.8409842 8.77137871,14.4608992 9.58627984,13.2818551 Z M8.06686927,8.14346304 L8.07484929,8.13385771 C9.07226478,6.93678937 10.7724809,6.61111469 12.526457,6.97860764 C12.5915729,6.99225073 12.6529322,7.01395741 12.7097098,7.04246527 C12.7728767,7.04083763 12.8369883,7.04097343 12.9020107,7.04287574 C13.3160471,7.05498883 13.6418703,7.40045127 13.6297572,7.81448767 C13.6176441,8.22852408 13.2721817,8.55434731 12.8581453,8.54223421 C12.3923348,8.5286064 12.1412699,8.65106967 11.9858689,8.92041222 C11.7833334,9.27144874 11.7382843,9.59649568 11.8360272,9.94129655 C11.9489956,10.3398075 11.7175176,10.7544435 11.3190066,10.8674119 C10.9204956,10.9803803 10.5058596,10.7489023 10.3928912,10.3503913 C10.2045154,9.68587093 10.2671936,9.02171835 10.5703807,8.3907597 C10.0059526,8.48921522 9.53536213,8.72426476 9.22724818,9.09405393 C8.58720136,9.86221906 8.50617158,10.7537703 8.8901993,11.174973 C9.16927329,11.4810622 9.14737316,11.9554306 8.84128399,12.2345046 C8.53519482,12.5135786 8.06082635,12.4916785 7.78175235,12.1855893 C7.13591568,11.4772338 7.00518638,10.4484234 7.33325001,9.4538498 C6.71596234,9.03822551 6.17653486,9.09487836 5.53802129,9.62380834 C5.21903745,9.88804722 4.74624202,9.84366767 4.48200314,9.52468383 C4.21776425,9.20569999 4.26214381,8.73290456 4.58112765,8.46866568 C5.70317254,7.53918947 6.92220247,7.43078859 8.06686927,8.14346304 Z M15.921195,10.4655899 C15.065896,11.2673788 14.8653871,12.1711206 15.2721209,13.3032431 C15.4121699,13.6930624 15.2096911,14.1226056 14.8198717,14.2626547 C14.4300524,14.4027038 14.0005091,14.2002249 13.8604601,13.8104056 C13.2083815,11.9953785 13.6595247,10.3870919 15.1548301,9.14258388 C14.9426962,8.30838789 15.1817607,7.45481885 15.8155958,6.63072197 C16.0681249,6.30238989 16.5390058,6.24093939 16.8673379,6.49346844 C17.19567,6.74599749 17.2571205,7.21687847 17.0045914,7.54521055 C16.6101083,8.05810789 16.5073726,8.4701581 16.6281709,8.84040844 C16.7610054,9.24755003 16.9976014,9.49185552 17.3859538,9.62789584 C17.7768761,9.76483635 17.9827689,10.1927536 17.8458284,10.5836758 C17.7088879,10.974598 17.2809706,11.1804909 16.8900484,11.0435504 C16.5137697,10.9117395 16.1893405,10.7174053 15.921195,10.4655899 Z M18.5668777,16.7015398 C18.2956673,17.0146177 17.8220081,17.048558 17.5089301,16.7773476 C17.1958522,16.5061372 17.1619119,16.0324779 17.4331223,15.7194 C18.1008133,14.9486356 19.1016761,14.6680224 20.3460935,14.8380673 C20.7564932,14.8941469 21.0437265,15.2723031 20.9876469,15.6827028 C20.9315673,16.0931026 20.5534111,16.3803358 20.1430114,16.3242563 C19.3613886,16.2174505 18.8658832,16.356376 18.5668777,16.7015398 Z" id="brain"></path>
                </g>
            </g>
            <g id="slices" transform="translate(60.000000, 58.000000)"></g>
        </g>
    </g>
</svg>