<?xml version="1.0" encoding="UTF-8"?>
<svg width="24px" height="24px" viewBox="0 0 24 24" version="1.1" xmlns="http://www.w3.org/2000/svg" xmlns:xlink="http://www.w3.org/1999/xlink">
    <!-- Generator: Sketch 52.3 (67297) - http://www.bohemiancoding.com/sketch -->
    <title>jollycons-[category]/icons/svg/icon-education-compass</title>
    <desc>Created with Sketch.</desc>
    <g id="icons" stroke="none" stroke-width="1" fill="none" fill-rule="evenodd">
        <g id="icons---export" transform="translate(-60.000000, -218.000000)">
            <g id="row-3" transform="translate(60.000000, 218.000000)" fill="#000000">
                <g id="icon---11">
                    <path d="M19.3095933,15 L21,15 C21.5522847,15 22,15.4477153 22,16 C22,16.5522847 21.5522847,17 21,17 L20.3013934,17 L20.8525638,18.1114546 C20.98952,18.3876315 21.0607806,18.6917295 21.0607806,19 C21.0607806,19.6806172 20.720802,20.2818281 20.2014051,20.6430724 L20.7320508,21.5621778 C21.0081932,22.0404704 20.844318,22.6520609 20.3660254,22.9282032 C19.8877328,23.2043456 19.2761424,23.0404704 19,22.5621778 L18.0980762,21 L17.7520059,21 C16.9920942,21 16.2978307,20.5693439 15.9602227,19.8885454 L14.5277928,17 L8.83823259,17 L7.40580275,19.8885454 C7.06819475,20.5693439 6.37393118,21 5.61401954,21 L5.26794919,21 L4.3660254,22.5621778 C4.08988303,23.0404704 3.47829262,23.2043456 3,22.9282032 C2.52170738,22.6520609 2.35783222,22.0404704 2.6339746,21.5621778 L3.16462034,20.6430724 C2.64522342,20.2818281 2.3052448,19.6806172 2.3052448,19 C2.3052448,18.6917295 2.37650543,18.3876315 2.5134616,18.1114546 L3.064632,17 L2,17 C1.44771525,17 1,16.5522847 1,16 C1,15.4477153 1.44771525,15 2,15 L4.05643212,15 L6.5677174,9.93590448 C6.19628781,9.18505653 6,8.3556531 6,7.5 C6,4.98244575 7.6914952,2.85996138 10,2.20703249 L10,1.5 C10,0.671572875 10.6715729,1.11022302e-16 11.5,0 C12.3284271,-2.22044605e-16 13,0.671572875 13,1.5 L13,2.20703249 C15.3085048,2.85996138 17,4.98244575 17,7.5 C17,8.21055238 16.8646484,8.90312752 16.6058563,9.54781878 L19.3095933,15 Z M9.83003271,15 L13.5359927,15 L11.6830127,11.2634003 L9.83003271,15 Z M11.5,5 C12.6210715,5 13.5697953,5.7379083 13.8869634,6.75451697 L13.9800449,6.75451697 C14.3327512,6.75451697 14.6713151,6.84729194 14.9666393,7.01479256 C14.7304137,5.31143969 13.2683584,4 11.5,4 C9.63156772,4 8.1050878,5.4640721 8.00519987,7.30757667 C8.30523916,7.02134483 8.68994769,6.83268019 9.1070414,6.77401488 C9.41810225,5.74735701 10.3717738,5 11.5,5 Z M4.3052448,19 L5.61401954,19 L10.6947552,8.75451697 L9.38598046,8.75451697 L4.3052448,19 Z M13.9800449,8.75451697 L12.6712702,8.75451697 L17.7520059,19 L19.0607806,19 L13.9800449,8.75451697 Z M11.5,8.005 C11.7789038,8.005 12.005,7.7789038 12.005,7.5 C12.005,7.2210962 11.7789038,6.995 11.5,6.995 C11.2210962,6.995 10.995,7.2210962 10.995,7.5 C10.995,7.7789038 11.2210962,8.005 11.5,8.005 Z" id="compass"></path>
                </g>
            </g>
            <g id="slices" transform="translate(60.000000, 58.000000)"></g>
        </g>
    </g>
</svg>