<?xml version="1.0" encoding="UTF-8"?>
<svg width="24px" height="24px" viewBox="0 0 24 24" version="1.1" xmlns="http://www.w3.org/2000/svg" xmlns:xlink="http://www.w3.org/1999/xlink">
    <!-- Generator: Sketch 52.3 (67297) - http://www.bohemiancoding.com/sketch -->
    <title>jollycons-[category]/icons/svg/icon-education-diploma-2</title>
    <desc>Created with Sketch.</desc>
    <g id="icons" stroke="none" stroke-width="1" fill="none" fill-rule="evenodd">
        <g id="icons---export" transform="translate(-252.000000, -58.000000)">
            <g id="row-1" transform="translate(60.000000, 58.000000)" fill="#000000">
                <g id="icon---4" transform="translate(192.000000, 0.000000)">
                    <path d="M21.9852814,8.25735931 L8.18664863,22.0559921 C8.1342513,22.1083894 8.07799276,22.1563798 8.01839733,22.1996109 C6.56889362,23.3647809 4.30672864,22.9843982 2.77728176,21.4549513 C1.24783487,19.9255044 0.867452153,17.6633394 2.03262211,16.2138357 C2.07585325,16.1542403 2.12384366,16.0979817 2.17624099,16.0455844 L5.80122344,12.420602 L4.12253353,11.6045915 C3.81179565,11.453542 3.60104355,11.1527882 3.56513367,10.8091539 L3.27411012,8.02424748 C3.24540944,7.74960065 3.44478819,7.5036889 3.71943503,7.47498823 C3.82435603,7.46402395 3.93005671,7.48652586 4.02141428,7.53927458 L7.52913186,9.56458675 L6.96668595,6.65551707 C6.92238111,6.42636461 6.95962584,6.1889329 7.07196814,5.9843529 L8.49631589,3.39055645 C8.62923354,3.14850788 8.93320372,3.0600398 9.17525229,3.19295745 C9.30011539,3.26152431 9.38980404,3.3800946 9.42180435,3.5189045 L10.4111913,7.81063411 L15.9748737,2.24695167 C16.0863,2.13552538 16.2108953,2.04529421 16.3436496,1.97625818 C17.6438801,1.19686788 19.5871971,1.77958525 21.0199224,3.2123106 C22.4526478,4.64503595 23.0353652,6.58835298 22.2559749,7.88858345 C22.1869388,8.02133776 22.0967077,8.14593302 21.9852814,8.25735931 Z M18.6770401,8.73717347 C18.0112446,8.46919005 17.3530353,8.03070483 16.7772818,7.45495129 C16.2015282,6.87919774 15.763043,6.22098842 15.4950596,5.55519296 L11.1341504,9.91610216 C11.317801,11.4057464 12.2696197,12.5408916 14.2082305,13.2059831 L18.6770401,8.73717347 Z M7.27850999,13.7717425 L3.61755919,17.4326933 L3.60106031,17.4550784 C3.1319392,18.0213567 3.31976089,19.1690033 4.19149532,20.0407377 C5.06322976,20.9124722 6.21087639,21.1002938 6.77715468,20.6311727 L6.79953971,20.6146739 L10.6140596,16.800154 C9.16470266,16.0239713 8.04180675,15.0059623 7.27850999,13.7717425 Z M18.1914953,6.04073773 C19.1201876,6.96942998 20.1900536,7.22415998 20.4895924,6.9246212 C20.7891311,6.62508242 20.5344011,5.55521642 19.6057089,4.62652416 C18.6770166,3.69783191 17.6071506,3.44310191 17.3076118,3.74264069 C17.0080731,4.04217947 17.2628031,5.11204547 18.1914953,6.04073773 Z" id="diploma-2"></path>
                </g>
            </g>
            <g id="slices" transform="translate(60.000000, 58.000000)"></g>
        </g>
    </g>
</svg>