<?xml version="1.0" encoding="UTF-8"?>
<svg width="24px" height="24px" viewBox="0 0 24 24" version="1.1" xmlns="http://www.w3.org/2000/svg" xmlns:xlink="http://www.w3.org/1999/xlink">
    <!-- Generator: Sketch 52.3 (67297) - http://www.bohemiancoding.com/sketch -->
    <title>jollycons-[category]/icons/svg/icon-education-diploma-1</title>
    <desc>Created with Sketch.</desc>
    <g id="icons" stroke="none" stroke-width="1" fill="none" fill-rule="evenodd">
        <g id="icons---export" transform="translate(-188.000000, -58.000000)">
            <g id="row-1" transform="translate(60.000000, 58.000000)" fill="#000000" fill-rule="nonzero">
                <g id="icon---3" transform="translate(128.000000, 0.000000)">
                    <path d="M17,19.6458244 C16.589478,19.180706 16.2854356,18.619383 16.1260175,18 L3,18 C1.8954305,18 1,17.1045695 1,16 L1,5 C1,3.8954305 1.8954305,3 3,3 L21,3 C22.1045695,3 23,3.8954305 23,5 L23,14.3541756 C23.6223634,15.0593088 24,15.9855535 24,17 C24,18.0144465 23.6223634,18.9406912 23,19.6458244 L23,22.7969846 C23,23.073127 22.7761424,23.2969846 22.5,23.2969846 C22.3911892,23.2969846 22.2853484,23.2614891 22.1985391,23.1958847 L20.3014609,21.7622052 C20.1230906,21.6274054 19.8769094,21.6274054 19.6985391,21.7622052 L17.8014609,23.1958847 C17.5811545,23.362377 17.2675921,23.318752 17.1010999,23.0984455 C17.0354955,23.0116362 17,22.9057954 17,22.7969846 L17,19.6458244 Z M21,13.1260175 L21,5 L3,5 L3,16 L16.1260175,16 C16.5700603,14.2747728 18.1361606,13 20,13 C20.3452996,13 20.6803801,13.043753 21,13.1260175 Z M20,19 C21.1045695,19 22,18.1045695 22,17 C22,15.8954305 21.1045695,15 20,15 C18.8954305,15 18,15.8954305 18,17 C18,18.1045695 18.8954305,19 20,19 Z M9,11 L14,11 C14.5522847,11 15,11.4477153 15,12 C15,12.5522847 14.5522847,13 14,13 L9,13 C8.44771525,13 8,12.5522847 8,12 C8,11.4477153 8.44771525,11 9,11 Z M7,8 L16,8 C16.5522847,8 17,8.44771525 17,9 C17,9.55228475 16.5522847,10 16,10 L7,10 C6.44771525,10 6,9.55228475 6,9 C6,8.44771525 6.44771525,8 7,8 Z" id="diploma-1"></path>
                </g>
            </g>
            <g id="slices" transform="translate(60.000000, 58.000000)"></g>
        </g>
    </g>
</svg>