<?xml version="1.0" encoding="UTF-8"?>
<svg width="24px" height="24px" viewBox="0 0 24 24" version="1.1" xmlns="http://www.w3.org/2000/svg" xmlns:xlink="http://www.w3.org/1999/xlink">
    <!-- Generator: Sketch 52.3 (67297) - http://www.bohemiancoding.com/sketch -->
    <title>jollycons-[category]/icons/svg/icon-education-schoolbag</title>
    <desc>Created with Sketch.</desc>
    <g id="icons" stroke="none" stroke-width="1" fill="none" fill-rule="evenodd">
        <g id="icons---export" transform="translate(-124.000000, -58.000000)">
            <g id="row-1" transform="translate(60.000000, 58.000000)" fill="#000000" fill-rule="nonzero">
                <g id="icon---2" transform="translate(64.000000, 0.000000)">
                    <path d="M20,8 L4,8 L4,11.3646171 C5.67174232,12.1223489 7.33827892,12.6423191 9.00134161,12.9260555 C9.04024211,11.8557432 9.92018629,11 11,11 L13,11 C14.0798137,11 14.9597579,11.8557432 14.9986584,12.9260555 C16.6617211,12.6423191 18.3282577,12.1223489 20,11.3646171 L20,8 Z M6,6 L6,5 C6,3.8954305 6.8954305,3 8,3 L16,3 C17.1045695,3 18,3.8954305 18,5 L18,6 L20,6 C21.1045695,6 22,6.8954305 22,8 L22,20 C22,21.1045695 21.1045695,22 20,22 L4,22 C2.8954305,22 2,21.1045695 2,20 L2,8 C2,6.8954305 2.8954305,6 4,6 L6,6 Z M13,15 L11,15 L11,17 L13,17 L13,15 Z M9,14.9518785 C7.33011511,14.6956207 5.66301537,14.2255517 4,13.5428176 L4,20 L20,20 L20,13.5428176 C18.3369846,14.2255517 16.6698849,14.6956207 15,14.9518785 L15,17 C15,18.1045695 14.1045695,19 13,19 L11,19 C9.8954305,19 9,18.1045695 9,17 L9,14.9518784 Z M16,6 L16,5 L8,5 L8,6 L16,6 Z" id="schoolbag"></path>
                </g>
            </g>
            <g id="slices" transform="translate(60.000000, 58.000000)"></g>
        </g>
    </g>
</svg>