<?xml version="1.0" encoding="UTF-8"?>
<svg width="24px" height="24px" viewBox="0 0 24 24" version="1.1" xmlns="http://www.w3.org/2000/svg" xmlns:xlink="http://www.w3.org/1999/xlink">
    <!-- Generator: Sketch 52.3 (67297) - http://www.bohemiancoding.com/sketch -->
    <title>jollycons-[category]/icons/svg/icon-education-school</title>
    <desc>Created with Sketch.</desc>
    <g id="icons" stroke="none" stroke-width="1" fill="none" fill-rule="evenodd">
        <g id="icons---export" transform="translate(-124.000000, -138.000000)">
            <g id="row-2" transform="translate(60.000000, 138.000000)" fill="#000000" fill-rule="nonzero">
                <g id="icon---7" transform="translate(64.000000, 0.000000)">
                    <path d="M12,5.11775455 L12,3 L10.5,3 C10.2238576,3 10,2.77614237 10,2.5 L10,0.5 C10,0.223857625 10.2238576,5.07265313e-17 10.5,0 L13,0 C13.5522847,-1.01453063e-16 14,0.44771525 14,1 L14,5.48139092 L17.6834861,6.82084042 C18.4738645,7.10825074 19,7.85941438 19,8.70042726 L19,12 L22,12 C23.1045695,12 24,12.8954305 24,14 L24,22 C24,23.1045695 23.1045695,24 22,24 L3,24 C1.8954305,24 1,23.1045695 1,22 L1,14 C1,12.8954305 1.8954305,12 3,12 L6,12 L6,8.70042726 C6,7.85941438 6.5261355,7.10825074 7.31651387,6.82084042 L12,5.11775455 Z M10,22 L10,18 C10,17.4477153 10.4477153,17 11,17 L14,17 C14.5522847,17 15,17.4477153 15,18 L15,22 L22,22 L22,14 L18,14 C17.4477153,14 17,13.5522847 17,13 L17,8.70042726 L12.5,7.06406363 L8,8.70042726 L8,13 C8,13.5522847 7.55228475,14 7,14 L3,14 L3,22 L10,22 Z M12,19 L12,22 L13,22 L13,19 L12,19 Z M4.5,16 L5.5,16 C5.77614237,16 6,16.2238576 6,16.5 L6,17.5 C6,17.7761424 5.77614237,18 5.5,18 L4.5,18 C4.22385763,18 4,17.7761424 4,17.5 L4,16.5 C4,16.2238576 4.22385763,16 4.5,16 Z M10.5,9 L11.5,9 C11.7761424,9 12,9.22385763 12,9.5 L12,10.5 C12,10.7761424 11.7761424,11 11.5,11 L10.5,11 C10.2238576,11 10,10.7761424 10,10.5 L10,9.5 C10,9.22385763 10.2238576,9 10.5,9 Z M10.5,12 L11.5,12 C11.7761424,12 12,12.2238576 12,12.5 L12,13.5 C12,13.7761424 11.7761424,14 11.5,14 L10.5,14 C10.2238576,14 10,13.7761424 10,13.5 L10,12.5 C10,12.2238576 10.2238576,12 10.5,12 Z M16.5,16 L17.5,16 C17.7761424,16 18,16.2238576 18,16.5 L18,17.5 C18,17.7761424 17.7761424,18 17.5,18 L16.5,18 C16.2238576,18 16,17.7761424 16,17.5 L16,16.5 C16,16.2238576 16.2238576,16 16.5,16 Z M4.5,19 L5.5,19 C5.77614237,19 6,19.2238576 6,19.5 L6,20.5 C6,20.7761424 5.77614237,21 5.5,21 L4.5,21 C4.22385763,21 4,20.7761424 4,20.5 L4,19.5 C4,19.2238576 4.22385763,19 4.5,19 Z M16.5,19 L17.5,19 C17.7761424,19 18,19.2238576 18,19.5 L18,20.5 C18,20.7761424 17.7761424,21 17.5,21 L16.5,21 C16.2238576,21 16,20.7761424 16,20.5 L16,19.5 C16,19.2238576 16.2238576,19 16.5,19 Z M7.5,16 L8.5,16 C8.77614237,16 9,16.2238576 9,16.5 L9,17.5 C9,17.7761424 8.77614237,18 8.5,18 L7.5,18 C7.22385763,18 7,17.7761424 7,17.5 L7,16.5 C7,16.2238576 7.22385763,16 7.5,16 Z M13.5,9 L14.5,9 C14.7761424,9 15,9.22385763 15,9.5 L15,10.5 C15,10.7761424 14.7761424,11 14.5,11 L13.5,11 C13.2238576,11 13,10.7761424 13,10.5 L13,9.5 C13,9.22385763 13.2238576,9 13.5,9 Z M13.5,12 L14.5,12 C14.7761424,12 15,12.2238576 15,12.5 L15,13.5 C15,13.7761424 14.7761424,14 14.5,14 L13.5,14 C13.2238576,14 13,13.7761424 13,13.5 L13,12.5 C13,12.2238576 13.2238576,12 13.5,12 Z M19.5,16 L20.5,16 C20.7761424,16 21,16.2238576 21,16.5 L21,17.5 C21,17.7761424 20.7761424,18 20.5,18 L19.5,18 C19.2238576,18 19,17.7761424 19,17.5 L19,16.5 C19,16.2238576 19.2238576,16 19.5,16 Z M7.5,19 L8.5,19 C8.77614237,19 9,19.2238576 9,19.5 L9,20.5 C9,20.7761424 8.77614237,21 8.5,21 L7.5,21 C7.22385763,21 7,20.7761424 7,20.5 L7,19.5 C7,19.2238576 7.22385763,19 7.5,19 Z M19.5,19 L20.5,19 C20.7761424,19 21,19.2238576 21,19.5 L21,20.5 C21,20.7761424 20.7761424,21 20.5,21 L19.5,21 C19.2238576,21 19,20.7761424 19,20.5 L19,19.5 C19,19.2238576 19.2238576,19 19.5,19 Z" id="school"></path>
                </g>
            </g>
            <g id="slices" transform="translate(60.000000, 58.000000)"></g>
        </g>
    </g>
</svg>