<?xml version="1.0" encoding="UTF-8"?>
<svg width="24px" height="24px" viewBox="0 0 24 24" version="1.1" xmlns="http://www.w3.org/2000/svg" xmlns:xlink="http://www.w3.org/1999/xlink">
    <!-- Generator: Sketch 55.2 (78181) - https://sketchapp.com -->
    <title>jollycons-maps-and-navigation/icons/svg/icon-maps-and-navigation-checkered-flag</title>
    <desc>Created with Sketch.</desc>
    <g id="icons" stroke="none" stroke-width="1" fill="none" fill-rule="evenodd">
        <g id="icons---export" transform="translate(-188.000000, -138.000000)">
            <g id="row-2" transform="translate(60.000000, 138.000000)" fill="#000000">
                <g id="icon---8" transform="translate(128.000000, 0.000000)">
                    <path d="M5.77499373,22.2882711 C5.87089697,22.8321654 5.50772845,23.3508238 4.96383415,23.4467271 C4.41993985,23.5426303 3.90128146,23.1794618 3.80537822,22.6355675 L0.806485194,5.62799998 C0.65376015,4.76185321 1.08481816,3.89758229 1.86856537,3.49848691 C3.52341684,2.65581269 4.97709666,2.12042966 6.24126118,1.89752335 C7.71189473,1.63821098 9.23931018,1.74598923 10.8128923,2.21404949 C12.0969951,2.59600443 13.3114991,2.68170287 14.4670196,2.47795343 C15.3920275,2.31484957 16.4974534,1.92837992 17.7746867,1.31434323 C18.7702042,0.835641765 19.9652697,1.25468475 20.4438852,2.25023387 C20.5230418,2.41488426 20.5792662,2.58960366 20.6109899,2.76951785 L22.680156,14.5043417 C22.8328852,15.3705124 22.401858,16.2348058 21.6180915,16.6339112 C19.9632378,17.476587 18.5095563,18.0119709 17.2453904,18.2348775 C15.7747569,18.4941899 14.2473414,18.3864116 12.6737593,17.9183513 C11.3896565,17.5363964 10.1751525,17.450698 9.01963203,17.6544474 C7.97258934,17.8390693 6.69813852,18.3088545 5.20718046,19.0680421 L5.77499373,22.2882711 Z M15.3081265,4.34685044 L15.9949586,8.2420688 C15.8276962,8.28152546 15.6644135,8.3152985 15.5051106,8.34338791 C14.1920336,8.57491881 12.8210738,8.47818046 11.3922314,8.05317286 L10.7239793,4.26332722 C10.5640382,4.22300494 10.4036029,4.17890771 10.2426848,4.1310428 C8.95858202,3.74908786 7.744078,3.66338942 6.58855754,3.86713885 C6.4317448,3.89478917 6.26978609,3.92884846 6.10272068,3.96933419 L6.78950417,7.86427693 C5.81370198,8.09446554 4.70244969,8.51809693 3.45574731,9.13517109 L4.15034002,13.0744021 C5.3970424,12.4573279 6.50829469,12.0336966 7.48409689,11.8035079 L8.18593858,15.78385 C8.35111199,15.7458942 8.513237,15.7128853 8.67233567,15.6848319 C9.99510897,15.4515913 11.3638202,15.5153361 12.770745,15.8711119 L12.0868241,11.9924039 C13.5156665,12.4174115 14.8866263,12.5141498 16.1997033,12.2826189 C16.3590062,12.2545295 16.5222889,12.2207565 16.6895513,12.1812998 L17.3913276,16.1612708 C18.3368455,15.9312733 19.4456207,15.4957947 20.7105469,14.8516748 L20.0162138,10.9139158 C18.7723897,11.5290866 17.6635022,11.9515479 16.6895513,12.1812998 L15.9949586,8.2420688 C16.9689095,8.01231691 18.077797,7.58985556 19.3216211,6.97468474 L18.6413744,3.11681421 C17.4166924,3.70557491 16.3074057,4.11647211 15.3081265,4.34685044 L15.3081265,4.34685044 Z M6.78950417,7.86427654 C6.95676656,7.82481988 7.12004924,7.79104684 7.27935219,7.76295744 C8.59242919,7.53142653 9.96338892,7.62816488 11.3922314,8.05317248 L12.0868241,11.9924035 C10.6579816,11.5673959 9.2870219,11.4706575 7.9739449,11.7021884 C7.81464195,11.7302779 7.65135927,11.7640509 7.48409689,11.8035076 L6.78950417,7.86427654 Z" id="checkered-flag"></path>
                </g>
            </g>
            <g id="slices" transform="translate(60.000000, 58.000000)"></g>
        </g>
    </g>
</svg>