<?xml version="1.0" encoding="UTF-8"?>
<svg width="24px" height="24px" viewBox="0 0 24 24" version="1.1" xmlns="http://www.w3.org/2000/svg" xmlns:xlink="http://www.w3.org/1999/xlink">
    <!-- Generator: Sketch 55.2 (78181) - https://sketchapp.com -->
    <title>jollycons-maps-and-navigation/icons/svg/icon-maps-and-navigation-direction</title>
    <desc>Created with Sketch.</desc>
    <g id="icons" stroke="none" stroke-width="1" fill="none" fill-rule="evenodd">
        <g id="icons---export" transform="translate(-60.000000, -58.000000)">
            <g id="row-1" transform="translate(60.000000, 58.000000)" fill="#000000" fill-rule="nonzero">
                <g id="icon---1">
                    <path d="M19.5056965,5.16646199 L11.1093171,13.5943106 C11.1314304,13.6308628 11.1524095,13.6681987 11.1722079,13.7062719 L14.5159177,20.1363568 L19.5056965,5.16646199 Z M21.713591,4.83421393 L16.403352,20.765525 C16.0559011,21.8079165 14.9292034,22.3712535 13.8868022,22.0237735 C13.396596,21.8603654 12.9891906,21.5126494 12.7507939,21.0542031 L9.40708413,14.6241183 L2.97699925,11.2804085 C2.0021341,10.7734687 1.62278358,9.57223994 2.12969614,8.59738898 C2.36808004,8.13894941 2.77547579,7.79124481 3.26567739,7.62785037 L19.1969885,2.31761134 C20.23938,1.97016046 21.3660934,2.53352902 21.7135735,3.57593023 C21.8497067,3.9843148 21.8497129,4.42583316 21.713591,4.83421393 Z" id="direction"></path>
                </g>
            </g>
            <g id="slices" transform="translate(60.000000, 58.000000)"></g>
        </g>
    </g>
</svg>