<?xml version="1.0" encoding="UTF-8"?>
<svg width="24px" height="24px" viewBox="0 0 24 24" version="1.1" xmlns="http://www.w3.org/2000/svg" xmlns:xlink="http://www.w3.org/1999/xlink">
    <!-- Generator: Sketch 55.2 (78181) - https://sketchapp.com -->
    <title>jollycons-maps-and-navigation/icons/svg/icon-maps-and-navigation-lighthouse</title>
    <desc>Created with Sketch.</desc>
    <g id="icons" stroke="none" stroke-width="1" fill="none" fill-rule="evenodd">
        <g id="icons---export" transform="translate(-252.000000, -218.000000)">
            <g id="row-3" transform="translate(60.000000, 218.000000)" fill="#000000" fill-rule="nonzero">
                <g id="icon---14" transform="translate(192.000000, 0.000000)">
                    <path d="M7.0219951,11 L7,11 C6.44771525,11 6,10.5522847 6,10 C6,9.44771525 6.44771525,9 7,9 L7,6 C7,3.57933154 8.72018993,1.56043498 11.0048424,1.09903766 C11.0016395,1.06645872 11,1.03342082 11,1 C11,0.44771525 11.4477153,0 12,0 C12.5522847,0 13,0.44771525 13,1 C13,1.03342082 12.9983605,1.06645872 12.9951576,1.09903766 C15.2798101,1.56043498 17,3.57933154 17,6 L17,9 C17.5522847,9 18,9.44771525 18,10 C18,10.5522847 17.5522847,11 17,11 L16.9780049,11 L17.9181758,22 L18,22 C18.5522847,22 19,22.4477153 19,23 C19,23.5522847 18.5522847,24 18,24 L6,24 C5.44771525,24 5,23.5522847 5,23 C5,22.4477153 5.44771525,22 6,22 L6.08182416,22 L7.0219951,11 Z M8.08911601,22 L15.910884,22 L14.9707131,11 L9.02928695,11 L8.08911601,22 Z M15,9 L15,7 L9,7 L9,9 L15,9 Z M14.8292943,5 C14.4174579,3.83480763 13.3062188,3 12,3 C10.6937812,3 9.58254212,3.83480763 9.17070571,5 L14.8292943,5 Z M20.418303,6.24091675 C19.9152496,6.46885464 19.3226641,6.24582941 19.0947262,5.74277597 C18.8667883,5.23972253 19.0898135,4.64713697 19.592867,4.41919909 L22.5282729,3.08914117 C23.0313263,2.86120328 23.6239119,3.08422851 23.8518498,3.58728195 C24.0797876,4.09033539 23.8567624,4.68292095 23.353709,4.91085883 L20.418303,6.24091675 Z M20.3902435,7.9198812 L23.3311275,9.14541065 C23.8409189,9.35785166 24.081969,9.9433367 23.869528,10.4531281 C23.657087,10.9629195 23.0716019,11.2039696 22.5618106,10.9915286 L19.6209265,9.76599914 C19.1111351,9.55355813 18.870085,8.96807309 19.082526,8.45828169 C19.294967,7.9484903 19.8804521,7.70744019 20.3902435,7.9198812 Z M3.52827288,6.24091675 L0.592866952,4.91085883 C0.0898135093,4.68292095 -0.133211716,4.09033539 0.0947261676,3.58728195 C0.322664052,3.08422851 0.915249606,2.86120328 1.41830305,3.08914117 L4.35370897,4.41919909 C4.85676241,4.64713697 5.07978764,5.23972253 4.85184976,5.74277597 C4.62391187,6.24582941 4.03132632,6.46885464 3.52827288,6.24091675 Z M3.56181056,7.9198812 C4.07160195,7.70744019 4.65708699,7.9484903 4.869528,8.45828169 C5.081969,8.96807309 4.84091889,9.55355813 4.3311275,9.76599914 L1.39024347,10.9915286 C0.88045208,11.2039696 0.294967039,10.9629195 0.0825260311,10.4531281 C-0.129914977,9.9433367 0.111135136,9.35785166 0.620926528,9.14541065 L3.56181056,7.9198812 Z" id="lighthouse"></path>
                </g>
            </g>
            <g id="slices" transform="translate(60.000000, 58.000000)"></g>
        </g>
    </g>
</svg>