<?xml version="1.0" encoding="UTF-8"?>
<svg width="24px" height="24px" viewBox="0 0 24 24" version="1.1" xmlns="http://www.w3.org/2000/svg" xmlns:xlink="http://www.w3.org/1999/xlink">
    <!-- Generator: Sketch 55.2 (78181) - https://sketchapp.com -->
    <title>jollycons-maps-and-navigation/icons/svg/icon-maps-and-navigation-mobile-navigation-1</title>
    <desc>Created with Sketch.</desc>
    <g id="icons" stroke="none" stroke-width="1" fill="none" fill-rule="evenodd">
        <g id="icons---export" transform="translate(-124.000000, -218.000000)">
            <g id="row-3" transform="translate(60.000000, 218.000000)" fill="#000000" fill-rule="nonzero">
                <g id="icon---12" transform="translate(64.000000, 0.000000)">
                    <path d="M8,1 L16,1 C18.209139,1 20,2.790861 20,5 L20,20 C20,22.209139 18.209139,24 16,24 L8,24 C5.790861,24 4,22.209139 4,20 L4,5 C4,2.790861 5.790861,1 8,1 Z M6,19 L18,19 L18,6 L6,6 L6,19 Z M17.7324356,4 C17.3866262,3.40219863 16.7402824,3 16,3 L8,3 C7.25971764,3 6.61337381,3.40219863 6.26756439,4 L17.7324356,4 Z M8,22 L16,22 C16.7402824,22 17.3866262,21.5978014 17.7324356,21 L6.26756439,21 C6.61337381,21.5978014 7.25971764,22 8,22 Z M12,8 C14.2132563,8 16,9.80589097 16,12.0321489 C16,13.769549 14.9957467,15.5901503 13.0636452,17.5331743 L13.0576715,17.539148 C12.4703399,18.1231836 11.520825,18.1205694 10.9364214,17.5332413 C9.00427598,15.5901917 8,13.7695687 8,12.0321489 C8,9.80589097 9.78674369,8 12,8 Z M10,12.0321489 C10,13.0564438 10.6467082,14.3078939 12,15.7554971 C13.353345,14.3077913 14,13.0564017 14,12.0321489 C14,10.9057165 13.1038866,10 12,10 C10.8961134,10 10,10.9057165 10,12.0321489 Z M12,13 C11.448,13 11,12.552 11,12 C11,11.448 11.448,11 12,11 C12.552,11 13,11.448 13,12 C13,12.552 12.552,13 12,13 Z" id="mobile-navigation-1"></path>
                </g>
            </g>
            <g id="slices" transform="translate(60.000000, 58.000000)"></g>
        </g>
    </g>
</svg>