<?xml version="1.0" encoding="UTF-8"?>
<svg width="24px" height="24px" viewBox="0 0 24 24" version="1.1" xmlns="http://www.w3.org/2000/svg" xmlns:xlink="http://www.w3.org/1999/xlink">
    <!-- Generator: Sketch 55.2 (78181) - https://sketchapp.com -->
    <title>jollycons-maps-and-navigation/icons/svg/icon-maps-and-navigation-navigation-device</title>
    <desc>Created with Sketch.</desc>
    <g id="icons" stroke="none" stroke-width="1" fill="none" fill-rule="evenodd">
        <g id="icons---export" transform="translate(-60.000000, -218.000000)">
            <g id="row-3" transform="translate(60.000000, 218.000000)" fill="#000000" fill-rule="nonzero">
                <g id="icon---11">
                    <path d="M22,18 L22,5 L2,5 L2,18 L22,18 L22,18 Z M2,3 L22,3 C23.1045695,3 24,3.8954305 24,5 L24,19 C24,20.1045695 23.1045695,21 22,21 L2,21 C0.8954305,21 0,20.1045695 0,19 L0,5 C0,3.8954305 0.8954305,3 2,3 Z M8.28167368,16.7030044 C7.66446624,17.0122717 6.91341002,16.7626369 6.60414267,16.1454295 C6.42736309,15.792629 6.42755652,15.377069 6.60466444,15.0244333 L10.8340564,6.60338193 C11.1438981,5.98646265 11.8951864,5.73752714 12.5121057,6.04736891 C12.7497411,6.16671902 12.9431222,6.35874365 13.0641421,6.5955331 L17.3594136,14.9997321 C17.6735901,15.6144551 17.4299491,16.367477 16.815226,16.6816536 C16.4631879,16.8615755 16.0467848,16.8643509 15.6923795,16.6891377 L11.9760607,14.8518386 L8.28167368,16.7030044 Z M9.4062257,13.9024887 L11.4805855,12.8630784 C11.7888727,12.7086033 12.1517573,12.7076307 12.4608682,12.8604511 L14.5471294,13.8918711 L11.956928,8.82384025 L9.4062257,13.9024887 Z" id="navigation-device"></path>
                </g>
            </g>
            <g id="slices" transform="translate(60.000000, 58.000000)"></g>
        </g>
    </g>
</svg>