<?xml version="1.0" encoding="UTF-8"?>
<svg width="24px" height="24px" viewBox="0 0 24 24" version="1.1" xmlns="http://www.w3.org/2000/svg" xmlns:xlink="http://www.w3.org/1999/xlink">
    <!-- Generator: Sketch 55.2 (78181) - https://sketchapp.com -->
    <title>jollycons-maps-and-navigation/icons/svg/icon-maps-and-navigation-pin-on-map</title>
    <desc>Created with Sketch.</desc>
    <g id="icons" stroke="none" stroke-width="1" fill="none" fill-rule="evenodd">
        <g id="icons---export" transform="translate(-316.000000, -138.000000)">
            <g id="row-2" transform="translate(60.000000, 138.000000)" fill="#000000" fill-rule="nonzero">
                <g id="icon---10" transform="translate(256.000000, 0.000000)">
                    <path d="M11,9 L11,7.87398251 C9.27477279,7.42993972 8,5.86383943 8,4 C8,1.790861 9.790861,0 12,0 C14.209139,0 16,1.790861 16,4 C16,5.86383943 14.7252272,7.42993972 13,7.87398251 L13,9 L18,9 L18,7 C18,6.44771525 18.4477153,6 19,6 C21.209139,6 23,7.790861 23,10 L23,18.5 C23,20.4329966 21.4329966,22 19.5,22 L4.5,22 C2.56700338,22 1,20.4329966 1,18.5 L1,10 C1,7.790861 2.790861,6 5,6 C5.55228475,6 6,6.44771525 6,7 L6,9 L11,9 Z M11,11 L6,11 L6,16.0500091 C6,16.6822279 5.42065068,17.155791 4.80106781,17.0300223 C4.70309832,17.0101356 4.60250109,17 4.5,17 C3.78354442,17 3.17054485,17.5066664 3.03002231,18.1989322 C3.02214942,18.237717 3.01209408,18.2755939 3,18.3124453 L3,18.5 C3,19.3284271 3.67157288,20 4.5,20 L19.5,20 C20.3284271,20 21,19.3284271 21,18.5 L21,18.3124453 C20.9879059,18.2755939 20.9778506,18.237717 20.9699777,18.1989322 C20.8294551,17.5066664 20.2164556,17 19.5,17 C19.3974989,17 19.2969017,17.0101356 19.1989322,17.0300223 C18.5793493,17.155791 18,16.6822279 18,16.0500091 L18,11 L13,11 L13,14 C13,14.5522847 12.5522847,15 12,15 C11.4477153,15 11,14.5522847 11,14 L11,11 Z M20,8.26756439 L20,15.0356138 C20.3519955,15.0861518 20.6882904,15.1892783 21,15.3372979 L21,10 C21,9.25971764 20.5978014,8.61337381 20,8.26756439 Z M4,8.26756439 C3.40219863,8.61337381 3,9.25971764 3,10 L3,15.3372979 C3.31170963,15.1892783 3.64800448,15.0861518 4,15.0356138 L4,8.26756439 Z M12,6 C13.1045695,6 14,5.1045695 14,4 C14,2.8954305 13.1045695,2 12,2 C10.8954305,2 10,2.8954305 10,4 C10,5.1045695 10.8954305,6 12,6 Z" id="pin-on-map"></path>
                </g>
            </g>
            <g id="slices" transform="translate(60.000000, 58.000000)"></g>
        </g>
    </g>
</svg>