<?xml version="1.0" encoding="UTF-8"?>
<svg width="24px" height="24px" viewBox="0 0 24 24" version="1.1" xmlns="http://www.w3.org/2000/svg" xmlns:xlink="http://www.w3.org/1999/xlink">
    <!-- Generator: Sketch 55.2 (78181) - https://sketchapp.com -->
    <title>jollycons-maps-and-navigation/icons/svg/icon-maps-and-navigation-road-sign</title>
    <desc>Created with Sketch.</desc>
    <g id="icons" stroke="none" stroke-width="1" fill="none" fill-rule="evenodd">
        <g id="icons---export" transform="translate(-188.000000, -58.000000)">
            <g id="row-1" transform="translate(60.000000, 58.000000)" fill="#000000" fill-rule="nonzero">
                <g id="icon---3" transform="translate(128.000000, 0.000000)">
                    <path d="M15,20 L17,20 C17.5522847,20 18,20.4477153 18,21 C18,21.5522847 17.5522847,22 17,22 L8,22 C7.44771525,22 7,21.5522847 7,21 C7,20.4477153 7.44771525,20 8,20 L10,20 L10,11 L4.80005015,11 C4.33217714,11 3.87911135,10.8359676 3.51968135,10.5364426 L1.71968135,9.03644256 C1.62675522,8.95900412 1.54104603,8.87329493 1.46360759,8.7803688 C0.756479428,7.931815 0.871127555,6.6706856 1.71968135,5.96355744 L3.51968135,4.46355744 C3.87911135,4.16403244 4.33217714,4 4.80005015,4 L10,4 L10,3.5 C10,2.11928813 11.1192881,1 12.5,1 C13.8807119,1 15,2.11928813 15,3.5 L15,6 L18.995657,6 C19.52609,6 20.0347972,6.21071368 20.40987,6.58578644 L22.40987,8.58578644 C23.1909186,9.36683502 23.1909186,10.633165 22.40987,11.4142136 L20.40987,13.4142136 C20.0347972,13.7892863 19.52609,14 18.995657,14 L15,14 L15,20 Z M13,20 L13,3.5 C13,3.22385763 12.7761424,3 12.5,3 C12.2238576,3 12,3.22385763 12,3.5 L12,20 L13,20 Z M15,8 L15,12 L18.995657,12 L20.995657,10 L18.995657,8 L15,8 Z M10,6 L4.80005015,6 L3.00005015,7.5 L4.80005015,9 L10,9 L10,6 Z" id="road-sign"></path>
                </g>
            </g>
            <g id="slices" transform="translate(60.000000, 58.000000)"></g>
        </g>
    </g>
</svg>