<?xml version="1.0" encoding="UTF-8"?>
<svg width="24px" height="24px" viewBox="0 0 24 24" version="1.1" xmlns="http://www.w3.org/2000/svg" xmlns:xlink="http://www.w3.org/1999/xlink">
    <!-- Generator: Sketch 55.2 (78181) - https://sketchapp.com -->
    <title>jollycons-maps-and-navigation/icons/svg/icon-maps-and-navigation-compass</title>
    <desc>Created with Sketch.</desc>
    <g id="icons" stroke="none" stroke-width="1" fill="none" fill-rule="evenodd">
        <g id="icons---export" transform="translate(-124.000000, -58.000000)">
            <g id="row-1" transform="translate(60.000000, 58.000000)" fill="#000000" fill-rule="nonzero">
                <g id="icon---2" transform="translate(64.000000, 0.000000)">
                    <path d="M12,23 C5.92486775,23 1,18.0751322 1,12 C1,5.92486775 5.92486775,1 12,1 C18.0751322,1 23,5.92486775 23,12 C23,18.0751322 18.0751322,23 12,23 Z M12,21 C16.9705627,21 21,16.9705627 21,12 C21,7.02943725 16.9705627,3 12,3 C7.02943725,3 3,7.02943725 3,12 C3,16.9705627 7.02943725,21 12,21 Z M16.9539296,6.3908209 C17.775891,6.14263406 18.5078383,6.97750794 18.1542569,7.75993839 L14.9587438,14.8311997 C14.8336946,15.1079175 14.5896836,15.3128241 14.2955121,15.3881443 L6.76640298,17.3159096 C5.93427609,17.5289687 5.2384789,16.6629552 5.62578801,15.8962603 L9.05973628,9.09861373 C9.18313708,8.85433661 9.40126134,8.67130862 9.66325566,8.59220084 L16.9539296,6.3908209 Z M15.4255823,8.94147938 L10.6516431,10.3829447 L8.40408701,14.8320776 L13.334035,13.5698057 L15.4255823,8.94147938 Z M12,11 C12.5522847,11 13,11.4477153 13,12 C13,12.5522847 12.5522847,13 12,13 C11.4477153,13 11,12.5522847 11,12 C11,11.4477153 11.4477153,11 12,11 Z" id="compass"></path>
                </g>
            </g>
            <g id="slices" transform="translate(60.000000, 58.000000)"></g>
        </g>
    </g>
</svg>