<?xml version="1.0" encoding="UTF-8"?>
<svg width="24px" height="24px" viewBox="0 0 24 24" version="1.1" xmlns="http://www.w3.org/2000/svg" xmlns:xlink="http://www.w3.org/1999/xlink">
    <!-- Generator: Sketch 55.2 (78181) - https://sketchapp.com -->
    <title>jollycons-maps-and-navigation/icons/svg/icon-maps-and-navigation-home</title>
    <desc>Created with Sketch.</desc>
    <g id="icons" stroke="none" stroke-width="1" fill="none" fill-rule="evenodd">
        <g id="icons---export" transform="translate(-316.000000, -58.000000)">
            <g id="row-1" transform="translate(60.000000, 58.000000)" fill="#000000" fill-rule="nonzero">
                <g id="icon---5" transform="translate(256.000000, 0.000000)">
                    <path d="M8.03412767,18.4477002 C8.40932489,19.1453523 8.79882904,19.7498744 9.21178259,20.2449834 C8.79498687,20.3244418 8.41190568,20.4216969 8.07358708,20.5344697 C7.78067084,20.6321085 7.45592434,20.7872852 7.09934756,21 C7.45592434,21.2127148 7.78067084,21.3678915 8.07358708,21.4655303 C9.08215178,21.8017185 10.4885222,22 12,22 C13.5114778,22 14.9178482,21.8017185 15.9264129,21.4655303 C16.2193292,21.3678915 16.5440757,21.2127148 16.9006524,21 C16.5440757,20.7872852 16.2193292,20.6321085 15.9264129,20.5344697 C15.5880943,20.4216969 15.2050131,20.3244418 14.7882174,20.2449834 C15.201171,19.7498744 15.5906751,19.1453523 15.9658723,18.4477002 C17.7980887,18.9285694 19,19.7901358 19,21 C19,22.9544707 15.863412,24 12,24 C8.13658795,24 5,22.9544707 5,21 C5,19.7901358 6.20191127,18.9285694 8.03412767,18.4477002 L8.03412767,18.4477002 Z M4,8.93981171 L3.57665639,9.24203338 C3.12716013,9.5629252 2.5026372,9.45867072 2.18174538,9.00917446 C1.86085355,8.55967821 1.96510804,7.93515528 2.41460429,7.61426345 L11.418974,1.18611504 C11.5928198,1.06200787 11.7964832,1 12.0001365,1 C12.2037775,1 12.4074248,1.06211409 12.5812382,1.18626653 L19.5812382,6.18626653 C19.5997468,6.19948699 19.6177256,6.21327967 19.6351572,6.22761122 L21.5814544,7.61860465 C22.0307817,7.93973304 22.1347074,8.56431077 21.813579,9.01363804 C21.4924506,9.46296532 20.8678729,9.56689104 20.4185456,9.24576265 L20,8.94663351 L20,15 C20,16.1045695 19.1045695,17 18,17 L15.315091,17 C14.3071081,19.1457608 13.2823938,20.2727273 12,20.2727273 C10.7176062,20.2727273 9.69289189,19.1457608 8.68490901,17 L6,17 C4.8954305,17 4,16.1045695 4,15 L4,8.93981171 Z M6,7.5146179 L6,15 L9.33125005,15 C9.73006463,15 10.0907495,15.2369707 10.249074,15.6030122 C10.6874796,16.616593 11.1037252,17.3596613 11.4812097,17.8225761 C11.7545501,18.1577774 11.9363193,18.2727273 12,18.2727273 C12.0636807,18.2727273 12.2454499,18.1577774 12.5187903,17.8225761 C12.8962748,17.3596613 13.3125204,16.616593 13.750926,15.6030122 C13.9092505,15.2369707 14.2699354,15 14.6687499,15 L18,15 L18,7.5146179 L12,3.22890361 L6,7.5146179 Z" id="home"></path>
                </g>
            </g>
            <g id="slices" transform="translate(60.000000, 58.000000)"></g>
        </g>
    </g>
</svg>