<?xml version="1.0" encoding="UTF-8"?>
<svg width="24px" height="24px" viewBox="0 0 24 24" version="1.1" xmlns="http://www.w3.org/2000/svg" xmlns:xlink="http://www.w3.org/1999/xlink">
    <!-- Generator: Sketch 55.2 (78181) - https://sketchapp.com -->
    <title>jollycons-maps-and-navigation/icons/svg/icon-maps-and-navigation-marker</title>
    <desc>Created with Sketch.</desc>
    <g id="icons" stroke="none" stroke-width="1" fill="none" fill-rule="evenodd">
        <g id="icons---export" transform="translate(-252.000000, -58.000000)">
            <g id="row-1" transform="translate(60.000000, 58.000000)" fill="#000000" fill-rule="nonzero">
                <g id="icon---4" transform="translate(192.000000, 0.000000)">
                    <path d="M11.5,1 C16.2011134,1 20,4.83959656 20,9.58037225 C20,13.5211632 17.5934092,17.6847608 12.8659192,22.1048627 C12.0971243,22.8236695 10.9027839,22.8236573 10.1340591,22.1048424 C5.4065835,17.6847481 3,13.5211572 3,9.58037225 C3,4.83959656 6.79888655,1 11.5,1 Z M11.5,3 C7.90825631,3 5,5.93942205 5,9.58037225 C5,12.8665728 7.13809638,16.5656585 11.5000174,20.6439667 C15.8618968,16.5656703 18,12.866578 18,9.58037225 C18,5.93942205 15.0917437,3 11.5,3 Z M11.5,13 C9.56771525,13 8,11.4322847 8,9.5 C8,7.56771525 9.56771525,6 11.5,6 C13.4322847,6 15,7.56771525 15,9.5 C15,11.4322847 13.4322847,13 11.5,13 Z M11.5,11 C12.3277153,11 13,10.3277153 13,9.5 C13,8.67228475 12.3277153,8 11.5,8 C10.6722847,8 10,8.67228475 10,9.5 C10,10.3277153 10.6722847,11 11.5,11 Z" id="marker"></path>
                </g>
            </g>
            <g id="slices" transform="translate(60.000000, 58.000000)"></g>
        </g>
    </g>
</svg>