<?xml version="1.0" encoding="UTF-8"?>
<svg width="24px" height="24px" viewBox="0 0 24 24" version="1.1" xmlns="http://www.w3.org/2000/svg" xmlns:xlink="http://www.w3.org/1999/xlink">
    <!-- Generator: Sketch 55.2 (78181) - https://sketchapp.com -->
    <title>jollycons-maps-and-navigation/icons/svg/icon-maps-and-navigation-marker-on-map</title>
    <desc>Created with Sketch.</desc>
    <g id="icons" stroke="none" stroke-width="1" fill="none" fill-rule="evenodd">
        <g id="icons---export" transform="translate(-252.000000, -138.000000)">
            <g id="row-2" transform="translate(60.000000, 138.000000)" fill="#000000" fill-rule="nonzero">
                <g id="icon---9" transform="translate(192.000000, 0.000000)">
                    <path d="M5.93646707,12.0151978 C5.31403139,10.6712026 5,9.3549414 5,8.0642978 C5,4.1616947 8.12817226,1 12,1 C15.8718277,1 19,4.1616947 19,8.0642978 C19,9.2014351 18.7562267,10.3584586 18.2725286,11.5368157 L21.001804,11.9189093 C21.44942,11.9815748 21.7993572,12.3366974 21.855432,12.7851867 L22.9922741,21.8776999 C23.0781087,22.5642086 22.4576244,23.1283707 21.7823556,22.9777927 L14.4236247,21.3368705 L8.57927539,23.3111958 C8.25921293,23.4193186 7.91202274,23.4162314 7.59393359,23.3024341 L1.66315441,21.1806819 C1.21332643,21.0197547 0.940156898,20.563121 1.0110808,20.0906672 L2.2479228,11.8515452 C2.34395863,11.2118104 3.01295337,10.8302319 3.61248113,11.073234 L5.93646707,12.0151978 Z M7.70262465,14.8891033 L4.03735788,13.4034881 L3.11097543,19.5745091 L8.10390896,21.3607446 L13.9159495,19.3973337 C14.1758133,19.3095471 14.4547734,19.2946951 14.7224894,19.354393 L20.8315352,20.7166481 L19.9659164,13.7933913 L17.3064507,13.421071 C16.3745092,14.9422848 15.0610893,16.4989341 13.3740061,18.0939584 C12.60301,18.8228836 11.3969742,18.8228815 10.6259901,18.0939548 C9.47756793,17.0081981 8.50229107,15.9402233 7.70262465,14.8891033 L7.70262465,14.8891033 Z M12,3 C9.23754202,3 7,5.26152019 7,8.0642978 C7,10.5934335 8.63867764,13.462743 12,16.6406495 C15.3613212,13.462745 17,10.5934344 17,8.0642978 C17,5.26152019 14.762458,3 12,3 Z M12,11 C10.3437153,11 9,9.65628475 9,8 C9,6.34371525 10.3437153,5 12,5 C13.6562847,5 15,6.34371525 15,8 C15,9.65628475 13.6562847,11 12,11 Z M12,9 C12.5517153,9 13,8.55171525 13,8 C13,7.44828475 12.5517153,7 12,7 C11.4482847,7 11,7.44828475 11,8 C11,8.55171525 11.4482847,9 12,9 Z" id="marker-on-map"></path>
                </g>
            </g>
            <g id="slices" transform="translate(60.000000, 58.000000)"></g>
        </g>
    </g>
</svg>