<?xml version="1.0" encoding="UTF-8"?>
<svg width="24px" height="24px" viewBox="0 0 24 24" version="1.1" xmlns="http://www.w3.org/2000/svg" xmlns:xlink="http://www.w3.org/1999/xlink">
    <!-- Generator: Sketch 55.2 (78181) - https://sketchapp.com -->
    <title>jollycons-maps-and-navigation/icons/svg/icon-maps-and-navigation-mobile-navigation-2</title>
    <desc>Created with Sketch.</desc>
    <g id="icons" stroke="none" stroke-width="1" fill="none" fill-rule="evenodd">
        <g id="icons---export" transform="translate(-188.000000, -218.000000)">
            <g id="row-3" transform="translate(60.000000, 218.000000)" fill="#000000">
                <g id="icon---13" transform="translate(128.000000, 0.000000)">
                    <path d="M11,17.0165937 C11,17.292736 10.7761424,17.5165937 10.5,17.5165937 C10.3970041,17.5165937 10.2965211,17.4847865 10.2122856,17.4255196 L7.2922124,15.3709987 C7.06636882,15.2120984 7.01210053,14.900202 7.17100078,14.6743584 C7.20474486,14.6263982 7.24666277,14.584748 7.29483814,14.5513119 L10.2149114,12.5246348 C10.4417683,12.3671847 10.7533108,12.4234501 10.9107609,12.650307 C10.9688636,12.7340225 11,12.8334927 11,12.9353956 L11,14.0405533 L13,14.0405533 C13.5522847,14.0405533 14,13.5928381 14,13.0405533 L14,11 C14,10.4477153 13.5522847,10 13,10 L12,10 C11.4477153,10 11,9.55228475 11,9 C11,8.44771525 11.4477153,8 12,8 L13,8 C14.6568542,8 16,9.34314575 16,11 L16,13.0405533 C16,14.6974076 14.6568542,16.0405533 13,16.0405533 L11,16.0405533 L11,17.0165937 Z M6,10 L6,19 L18,19 L18,6 L6,6 L6,8 C6.55228475,8 7,8.44771525 7,9 C7,9.55228475 6.55228475,10 6,10 Z M8,1 L16,1 C18.209139,1 20,2.790861 20,5 L20,20 C20,22.209139 18.209139,24 16,24 L8,24 C5.790861,24 4,22.209139 4,20 L4,5 C4,2.790861 5.790861,1 8,1 Z M8,22 L16,22 C16.7402824,22 17.3866262,21.5978014 17.7324356,21 L6.26756439,21 C6.61337381,21.5978014 7.25971764,22 8,22 Z M17.7324356,4 C17.3866262,3.40219863 16.7402824,3 16,3 L8,3 C7.25971764,3 6.61337381,3.40219863 6.26756439,4 L17.7324356,4 Z M9,10 C8.44771525,10 8,9.55228475 8,9 C8,8.44771525 8.44771525,8 9,8 C9.55228475,8 10,8.44771525 10,9 C10,9.55228475 9.55228475,10 9,10 Z" id="mobile-navigation-2"></path>
                </g>
            </g>
            <g id="slices" transform="translate(60.000000, 58.000000)"></g>
        </g>
    </g>
</svg>