<?xml version="1.0" encoding="UTF-8"?>
<svg width="24px" height="24px" viewBox="0 0 24 24" version="1.1" xmlns="http://www.w3.org/2000/svg" xmlns:xlink="http://www.w3.org/1999/xlink">
    <!-- Generator: Sketch 55.2 (78181) - https://sketchapp.com -->
    <title>jollycons-maps-and-navigation/icons/svg/icon-maps-and-navigation-orientation</title>
    <desc>Created with Sketch.</desc>
    <g id="icons" stroke="none" stroke-width="1" fill="none" fill-rule="evenodd">
        <g id="icons---export" transform="translate(-60.000000, -138.000000)">
            <g id="row-2" transform="translate(60.000000, 138.000000)" fill="#000000" fill-rule="nonzero">
                <g id="icon---6">
                    <path d="M12,23 C5.92486775,23 1,18.0751322 1,12 C1,5.92486775 5.92486775,1 12,1 C18.0751322,1 23,5.92486775 23,12 C23,18.0751322 18.0751322,23 12,23 Z M12,21 C16.9705627,21 21,16.9705627 21,12 C21,7.02943725 16.9705627,3 12,3 C7.02943725,3 3,7.02943725 3,12 C3,16.9705627 7.02943725,21 12,21 Z M9.4637314,14.1737764 L6.08473043,13.0337692 C5.29977358,12.7689405 4.87812643,11.9179211 5.14295514,11.1329643 C5.27975576,10.7274849 5.58322926,10.3997402 5.97700659,10.2322071 L15.4247074,6.21266955 C16.1870106,5.88834659 17.0678951,6.24339971 17.392218,7.00570288 C17.5506331,7.37804873 17.5518941,7.79860326 17.3957148,8.17189241 L13.4296383,17.6513368 C13.1098925,18.4155712 12.231153,18.7759004 11.4669187,18.4561547 C11.0719524,18.290906 10.7664237,17.9647558 10.6272871,17.5598527 L9.4637314,14.1737764 Z M15.0760085,8.53450864 L7.96830491,11.5584911 L10.5692474,12.435997 C10.8631984,12.5351702 11.0944747,12.7651549 11.1952925,13.0585459 L12.0917391,15.667305 L15.0760085,8.53450864 Z" id="orientation"></path>
                </g>
            </g>
            <g id="slices" transform="translate(60.000000, 58.000000)"></g>
        </g>
    </g>
</svg>