<svg xmlns="http://www.w3.org/2000/svg" width="24" height="24" viewBox="0 0 24 24">
  <path d="M7.64921894,16.0018773 L6,16.0018773 C4.8954305,16.0018773 4,15.1064468 4,14.0018773 L4,10.0018773 C4,8.8973078 4.8954305,8.0018773 6,8.0018773 L7.64921894,8.0018773 L12.375305,4.22100849 C13.0300683,3.69719782 14,4.16337109 14,5.0018773 L14,19.0018773 C14,19.8403835 13.0300683,20.3065568 12.375305,19.7827461 L7.64921894,16.0018773 Z M12,7.08250215 L8.62469505,9.78274611 C8.447382,9.92459655 8.2270715,10.0018773 8,10.0018773 L6,10.0018773 L6,14.0018773 L8,14.0018773 C8.2270715,14.0018773 8.447382,14.0791581 8.62469505,14.2210085 L12,16.9212525 L12,7.08250215 Z M17.6568542,17.6587316 C17.26633,18.0492558 16.633165,18.0492558 16.2426407,17.6587316 C15.8521164,17.2682073 15.8521164,16.6350423 16.2426407,16.244518 C18.5857864,13.9013722 18.5857864,10.1023824 16.2426407,7.75923661 C15.8521164,7.36871232 15.8521164,6.73554734 16.2426407,6.34502305 C16.633165,5.95449876 17.26633,5.95449876 17.6568542,6.34502305 C20.7810486,9.46921739 20.7810486,14.5345372 17.6568542,17.6587316 Z"/>
</svg>
