<svg xmlns="http://www.w3.org/2000/svg" width="24" height="24" viewBox="0 0 24 24">
  <path d="M7,19.0016814 L7,20.0016814 C7,20.8003768 6.10985453,21.2767682 5.4452998,20.8337317 L2.4452998,18.8337317 C1.85156673,18.4379097 1.85156673,17.5654532 2.4452998,17.1696311 L5.4452998,15.1696311 C6.10985453,14.7265946 7,15.202986 7,16.0016814 L7,17.0016814 L16,17.0016814 C18.7614237,17.0016814 21,14.7631052 21,12.0016814 C21,11.4261609 20.9031484,10.8652792 20.7158945,10.3353401 C20.5318938,9.81460779 20.8048687,9.24330875 21.3256011,9.05930803 C21.8463334,8.8753073 22.4176324,9.14828221 22.6016332,9.66901456 C22.8642491,10.4122324 23,11.1983858 23,12.0016814 C23,15.8676747 19.8659932,19.0016814 16,19.0016814 L7,19.0016814 Z M17,5.00168142 L17,4.00168142 C17,3.20298603 17.8901455,2.72659464 18.5547002,3.16963112 L21.5547002,5.16963112 C22.1484333,5.56545317 22.1484333,6.43790966 21.5547002,6.83373171 L18.5547002,8.83373171 C17.8901455,9.2767682 17,8.8003768 17,8.00168142 L17,7.00168142 L8,7.00168142 C5.23857625,7.00168142 3,9.24025767 3,12.0016814 C3,12.5775486 3.09696837,13.1387587 3.28444275,13.6689769 C3.46854985,14.1896716 3.19569165,14.7610264 2.67499691,14.9451335 C2.15430216,15.1292406 1.58294737,14.8563824 1.39884027,14.3356877 C1.13591495,13.592078 1,12.8054621 1,12.0016814 C1,8.13568817 4.13400675,5.00168142 8,5.00168142 L17,5.00168142 Z"/>
</svg>
