<svg xmlns="http://www.w3.org/2000/svg" width="24" height="24" viewBox="0 0 24 24">
  <path d="M3,7.00168142 C2.44771525,7.00168142 2,6.55396617 2,6.00168142 C2,5.44939667 2.44771525,5.00168142 3,5.00168142 C5.68440678,5.00168142 7.72432155,6.15186208 9.59667509,8.35673143 C9.9541635,8.77770706 9.90269692,9.40877685 9.48172129,9.76626526 C9.06074565,10.1237537 8.42967586,10.0722871 8.07218746,9.65131145 C6.54988066,7.8586545 5.02998722,7.00168142 3,7.00168142 Z M18,16.0016814 C18,15.202986 18.8901455,14.7265946 19.5547002,15.1696311 L22.5547002,17.1696311 C23.1484333,17.5654532 23.1484333,18.4379097 22.5547002,18.8337317 L19.5547002,20.8337317 C18.8901455,21.2767682 18,20.8003768 18,20.0016814 L18,18.9453576 C15.7978283,18.6901611 14.0385261,17.5708721 12.4069244,15.6508686 C12.0492891,15.2300178 12.1005354,14.59893 12.5213863,14.2412948 C12.9422372,13.8836595 13.5733249,13.9349058 13.9309602,14.3557567 C15.1916083,15.8392368 16.4509536,16.6811295 18,16.9259811 L18,16.0016814 Z M18,5.04547715 L18,4.00168142 C18,3.20298603 18.8901455,2.72659464 19.5547002,3.16963112 L22.5547002,5.16963112 C23.1484333,5.56545317 23.1484333,6.43790966 22.5547002,6.83373171 L19.5547002,8.83373171 C18.8901455,9.2767682 18,8.8003768 18,8.00168142 L18,7.06416695 C15.7419396,7.36928601 14.3087287,8.84136398 11.8320503,12.5563816 C8.65480557,17.3222487 6.78876922,19.0016814 3,19.0016814 C2.44771525,19.0016814 2,18.5539662 2,18.0016814 C2,17.4493967 2.44771525,17.0016814 3,17.0016814 C5.87789745,17.0016814 7.34519443,15.6811141 10.1679497,11.4469812 C13.0527033,7.11985081 14.8565512,5.33704878 18,5.04547715 Z"/>
</svg>
