<svg xmlns="http://www.w3.org/2000/svg" width="24" height="24" viewBox="0 0 24 24">
  <path d="M11.3089606,12.001886 L4,6.09565521 L4,17.9081168 L11.3089606,12.001886 Z M13.52852,12.7796795 L3.62851996,20.7796795 C2.97455825,21.3081334 2,20.842677 2,20.001886 L2,4.00188603 C2,3.16109506 2.97455825,2.69563867 3.62851996,3.22409257 L13.52852,11.2240926 C14.0238267,11.6243404 14.0238267,12.3794316 13.52852,12.7796795 Z M17,20.0281836 C17,20.5804684 16.5522847,21.0281836 16,21.0281836 C15.4477153,21.0281836 15,20.5804684 15,20.0281836 L15,4.00188603 C15,3.44960128 15.4477153,3.00188603 16,3.00188603 C16.5522847,3.00188603 17,3.44960128 17,4.00188603 L17,20.0281836 Z M22,20.0281836 C22,20.5804684 21.5522847,21.0281836 21,21.0281836 C20.4477153,21.0281836 20,20.5804684 20,20.0281836 L20,4.00188603 C20,3.44960128 20.4477153,3.00188603 21,3.00188603 C21.5522847,3.00188603 22,3.44960128 22,4.00188603 L22,20.0281836 Z"/>
</svg>
