<svg xmlns="http://www.w3.org/2000/svg" width="24" height="24" viewBox="0 0 24 24">
  <path d="M16.1972244,12.0016814 L7,5.87019851 L7,18.1331643 L16.1972244,12.0016814 Z M17,13.8701985 L6.5547002,20.8337317 C5.89014547,21.2767682 5,20.8003768 5,20.0016814 L5,4.00168142 C5,3.20298603 5.89014547,2.72659464 6.5547002,3.16963112 L17,10.1331643 L17,4.00168142 C17,3.44939667 17.4477153,3.00168142 18,3.00168142 C18.5522847,3.00168142 19,3.44939667 19,4.00168142 L19,20.027979 C19,20.5802638 18.5522847,21.027979 18,21.027979 C17.4477153,21.027979 17,20.5802638 17,20.027979 L17,13.8701985 Z"/>
</svg>
