<svg xmlns="http://www.w3.org/2000/svg" width="24" height="24" viewBox="0 0 24 24">
  <path d="M5.41421356,13 L9,13 C9.55228475,13 10,13.4477153 10,14 C10,14.5522847 9.55228475,15 9,15 L3,15 C2.44771525,15 2,14.5522847 2,14 L2,8 C2,7.44771525 2.44771525,7 3,7 C3.55228475,7 4,7.44771525 4,8 L4,11.5857864 L13.2928932,2.29289322 C13.6834175,1.90236893 14.3165825,1.90236893 14.7071068,2.29289322 C15.0976311,2.68341751 15.0976311,3.31658249 14.7071068,3.70710678 L5.41421356,13 Z M18.5857864,11 L15,11 C14.4477153,11 14,10.5522847 14,10 C14,9.44771525 14.4477153,9 15,9 L21,9 C21.5522847,9 22,9.44771525 22,10 L22,16 C22,16.5522847 21.5522847,17 21,17 C20.4477153,17 20,16.5522847 20,16 L20,12.4142136 L10.7071068,21.7071068 C10.3165825,22.0976311 9.68341751,22.0976311 9.29289322,21.7071068 C8.90236893,21.3165825 8.90236893,20.6834175 9.29289322,20.2928932 L18.5857864,11 Z"/>
</svg>
