<svg xmlns="http://www.w3.org/2000/svg" width="24" height="24" viewBox="0 0 24 24">
  <path d="M11.2071068,8.20710678 L4.20710678,8.20710678 C3.10253728,8.20710678 2.20710678,9.10253728 2.20710678,10.2071068 L2.20710678,14.2071068 C2.20710678,15.3116763 3.10253728,16.2071068 4.20710678,16.2071068 L11.2071068,16.2071068 L11.2071068,18.7928932 C11.2071068,19.8974627 12.1025373,20.7928932 13.2071068,20.7928932 C13.7375398,20.7928932 14.2462476,20.5821795 14.6213203,20.2071068 L21.2071068,13.6213203 C21.9881554,12.8402718 21.9881554,11.5739418 21.2071068,10.7928932 L14.6213203,4.20710678 C13.8402718,3.4260582 12.5739418,3.4260582 11.7928932,4.20710678 C11.4178205,4.58217954 11.2071068,5.09088736 11.2071068,5.62132034 L11.2071068,8.20710678 Z M13.2071068,15.2071068 C13.2071068,14.654822 12.7593915,14.2071068 12.2071068,14.2071068 L4.20710678,14.2071068 L4.20710678,10.2071068 L12.2071068,10.2071068 C12.7593915,10.2071068 13.2071068,9.75939153 13.2071068,9.20710678 L13.2071068,5.62132034 L19.7928932,12.2071068 L13.2071068,18.7928932 L13.2071068,15.2071068 Z" transform="rotate(-90 12 12.207)"/>
</svg>
