<svg xmlns="http://www.w3.org/2000/svg" width="24" height="24" viewBox="0 0 24 24">
  <path d="M12,10.5857864 L18.5857864,4 L16,4 C15.4477153,4 15,3.55228475 15,3 C15,2.44771525 15.4477153,2 16,2 L20,2 C21.1045695,2 22,2.8954305 22,4 L22,8 C22,8.55228475 21.5522847,9 21,9 C20.4477153,9 20,8.55228475 20,8 L20,5.41421356 L13.4142136,12 L20,18.5857864 L20,16 C20,15.4477153 20.4477153,15 21,15 C21.5522847,15 22,15.4477153 22,16 L22,20 C22,21.1045695 21.1045695,22 20,22 L16,22 C15.4477153,22 15,21.5522847 15,21 C15,20.4477153 15.4477153,20 16,20 L18.5857864,20 L12,13.4142136 L5.41421356,20 L8,20 C8.55228475,20 9,20.4477153 9,21 C9,21.5522847 8.55228475,22 8,22 L4,22 C2.8954305,22 2,21.1045695 2,20 L2,16 C2,15.4477153 2.44771525,15 3,15 C3.55228475,15 4,15.4477153 4,16 L4,18.5857864 L10.5857864,12 L4,5.41421356 L4,8 C4,8.55228475 3.55228475,9 3,9 C2.44771525,9 2,8.55228475 2,8 L2,4 C2,2.8954305 2.8954305,2 4,2 L8,2 C8.55228475,2 9,2.44771525 9,3 C9,3.55228475 8.55228475,4 8,4 L5.41421356,4 L12,10.5857864 Z"/>
</svg>
