<svg xmlns="http://www.w3.org/2000/svg" width="24" height="24" viewBox="0 0 24 24">
  <path d="M4,18.5857864 L18.5857864,4 L12,4 C11.4477153,4 11,3.55228475 11,3 C11,2.44771525 11.4477153,2 12,2 L21,2 C21.5522847,2 22,2.44771525 22,3 L22,12 C22,12.5522847 21.5522847,13 21,13 C20.4477153,13 20,12.5522847 20,12 L20,5.41421356 L5.41421356,20 L12,20 C12.5522847,20 13,20.4477153 13,21 C13,21.5522847 12.5522847,22 12,22 L3,22 C2.44771525,22 2,21.5522847 2,21 L2,12 C2,11.4477153 2.44771525,11 3,11 C3.55228475,11 4,11.4477153 4,12 L4,18.5857864 Z"/>
</svg>
