<svg xmlns="http://www.w3.org/2000/svg" width="24" height="24" viewBox="0 0 24 24">
  <path d="M7,17 C4.23857625,17 2,14.7614237 2,12 L2,3 C2,2.44771525 2.44771525,2 3,2 C3.55228475,2 4,2.44771525 4,3 L4,12 C4,13.6568542 5.34314575,15 7,15 L18.5857864,15 L15.2928932,11.7071068 C14.9023689,11.3165825 14.9023689,10.6834175 15.2928932,10.2928932 C15.6834175,9.90236893 16.3165825,9.90236893 16.7071068,10.2928932 L21.7071068,15.2928932 C22.0976311,15.6834175 22.0976311,16.3165825 21.7071068,16.7071068 L16.7071068,21.7071068 C16.3165825,22.0976311 15.6834175,22.0976311 15.2928932,21.7071068 C14.9023689,21.3165825 14.9023689,20.6834175 15.2928932,20.2928932 L18.5857864,17 L7,17 Z" transform="rotate(-180 12 12)"/>
</svg>
