<svg xmlns="http://www.w3.org/2000/svg" width="24" height="24" viewBox="0 0 24 24">
  <path d="M7.5,16 C4.46243388,16 2,13.5375661 2,10.5 C2,7.46243388 4.46243388,5 7.5,5 L12,5 C12.5522847,5 13,5.44771525 13,6 C13,6.55228475 12.5522847,7 12,7 L7.5,7 C5.56700338,7 4,8.56700338 4,10.5 C4,12.4329966 5.56700338,14 7.5,14 L18.5857864,14 L16.2928932,11.7071068 C15.9023689,11.3165825 15.9023689,10.6834175 16.2928932,10.2928932 C16.6834175,9.90236893 17.3165825,9.90236893 17.7071068,10.2928932 L21.7071068,14.2928932 C22.0976311,14.6834175 22.0976311,15.3165825 21.7071068,15.7071068 L17.7071068,19.7071068 C17.3165825,20.0976311 16.6834175,20.0976311 16.2928932,19.7071068 C15.9023689,19.3165825 15.9023689,18.6834175 16.2928932,18.2928932 L18.5857864,16 L7.5,16 Z" transform="matrix(-1 0 0 1 24 0)"/>
</svg>
