<svg xmlns="http://www.w3.org/2000/svg" width="24" height="24" viewBox="0 0 24 24">
  <path d="M12,23 C5.92486775,23 1,18.0751322 1,12 C1,5.92486775 5.92486775,1 12,1 C18.0751322,1 23,5.92486775 23,12 C23,18.0751322 18.0751322,23 12,23 Z M12,21 C16.9705627,21 21,16.9705627 21,12 C21,7.02943725 16.9705627,3 12,3 C7.02943725,3 3,7.02943725 3,12 C3,16.9705627 7.02943725,21 12,21 Z M9.20710678,14 C9.07449854,14 8.94732158,13.9473216 8.85355339,13.8535534 C8.65829124,13.6582912 8.65829124,13.3417088 8.85355339,13.1464466 L11.6464466,10.3535534 C11.8417088,10.1582912 12.1582912,10.1582912 12.3535534,10.3535534 L15.1464466,13.1464466 C15.2402148,13.2402148 15.2928932,13.3673918 15.2928932,13.5 C15.2928932,13.7761424 15.0690356,14 14.7928932,14 L9.20710678,14 Z" transform="rotate(-180 12 12)"/>
</svg>
