<svg xmlns="http://www.w3.org/2000/svg" width="24" height="24" viewBox="0 0 24 24">
  <path d="M11.5857864,4 L8,4 C7.44771525,4 7,3.55228475 7,3 C7,2.44771525 7.44771525,2 8,2 L14,2 C14.5522847,2 15,2.44771525 15,3 L15,9 C15,9.55228475 14.5522847,10 14,10 C13.4477153,10 13,9.55228475 13,9 L13,5.41421356 L3.70710678,14.7071068 C3.31658249,15.0976311 2.68341751,15.0976311 2.29289322,14.7071068 C1.90236893,14.3165825 1.90236893,13.6834175 2.29289322,13.2928932 L11.5857864,4 Z M12.4142136,20 L16,20 C16.5522847,20 17,20.4477153 17,21 C17,21.5522847 16.5522847,22 16,22 L10,22 C9.44771525,22 9,21.5522847 9,21 L9,15 C9,14.4477153 9.44771525,14 10,14 C10.5522847,14 11,14.4477153 11,15 L11,18.5857864 L20.2928932,9.29289322 C20.6834175,8.90236893 21.3165825,8.90236893 21.7071068,9.29289322 C22.0976311,9.68341751 22.0976311,10.3165825 21.7071068,10.7071068 L12.4142136,20 Z"/>
</svg>
