<svg xmlns="http://www.w3.org/2000/svg" width="24" height="24" viewBox="0 0 24 24">
  <path d="M11.4142136,8 L4.41421356,8 C3.30964406,8 2.41421356,8.8954305 2.41421356,10 L2.41421356,14 C2.41421356,15.1045695 3.30964406,16 4.41421356,16 L11.4142136,16 L11.4142136,18.5857864 C11.4142136,19.6903559 12.3096441,20.5857864 13.4142136,20.5857864 C13.9446465,20.5857864 14.4533544,20.3750728 14.8284271,20 L21.4142136,13.4142136 C22.1952621,12.633165 22.1952621,11.366835 21.4142136,10.5857864 L14.8284271,4 C14.0473785,3.21895142 12.7810486,3.21895142 12,4 C11.6249272,4.37507276 11.4142136,4.88378058 11.4142136,5.41421356 L11.4142136,8 Z M13.4142136,15 C13.4142136,14.4477153 12.9664983,14 12.4142136,14 L4.41421356,14 L4.41421356,10 L12.4142136,10 C12.9664983,10 13.4142136,9.55228475 13.4142136,9 L13.4142136,5.41421356 L20,12 L13.4142136,18.5857864 L13.4142136,15 Z" transform="rotate(-180 12.207 12)"/>
</svg>
