<svg xmlns="http://www.w3.org/2000/svg" width="24" height="24" viewBox="0 0 24 24">
  <path d="M11,8 L4,8 C2.8954305,8 2,8.8954305 2,10 L2,14 C2,15.1045695 2.8954305,16 4,16 L11,16 L11,18.5857864 C11,19.6903559 11.8954305,20.5857864 13,20.5857864 C13.530433,20.5857864 14.0391408,20.3750728 14.4142136,20 L21,13.4142136 C21.7810486,12.633165 21.7810486,11.366835 21,10.5857864 L14.4142136,4 C13.633165,3.21895142 12.366835,3.21895142 11.5857864,4 C11.2107137,4.37507276 11,4.88378058 11,5.41421356 L11,8 Z M13,15 C13,14.4477153 12.5522847,14 12,14 L4,14 L4,10 L12,10 C12.5522847,10 13,9.55228475 13,9 L13,5.41421356 L19.5857864,12 L13,18.5857864 L13,15 Z"/>
</svg>
