<?xml version="1.0" encoding="UTF-8"?>
<svg width="24px" height="24px" viewBox="0 0 24 24" version="1.1" xmlns="http://www.w3.org/2000/svg" xmlns:xlink="http://www.w3.org/1999/xlink">
    <!-- Generator: Sketch 52.3 (67297) - http://www.bohemiancoding.com/sketch -->
    <title>jollycons-[category]/icons/svg/icon-christmas-and-new-year-clicking-glasses</title>
    <desc>Created with Sketch.</desc>
    <g id="icons" stroke="none" stroke-width="1" fill="none" fill-rule="evenodd">
        <g id="icons---export" transform="translate(-188.000000, -218.000000)">
            <g id="row-3" transform="translate(60.000000, 218.000000)" fill="#000000" fill-rule="nonzero">
                <g id="icon---13" transform="translate(128.000000, 0.000000)">
                    <path d="M20.3769131,17.8922224 L21.3098354,19.8049965 L22.2086294,19.3666254 C22.7050196,19.1245197 23.3036889,19.330658 23.5457946,19.8270483 C23.7879003,20.3234385 23.5817619,20.9221078 23.0853717,21.1642135 L19.4901955,22.9176981 C18.9938053,23.1598038 18.395136,22.9536654 18.1530303,22.4572752 C17.9109246,21.9608849 18.117063,21.3622157 18.6134532,21.12011 L19.5122473,20.6817388 L18.5790009,18.7683003 C16.6600766,19.1530054 14.711131,18.0551933 14.078764,16.1502458 L11.9559813,9.75555871 C11.9397175,9.70656556 11.9274479,9.6571113 11.9190149,9.60757094 L9.95139966,16.0228523 C9.36132298,17.946759 7.44165565,19.0968986 5.50953494,18.7744449 L4.64413567,20.7181635 L5.55768113,21.1249001 C6.06221835,21.3495346 6.28912439,21.940645 6.06448994,22.4451822 C5.8398555,22.9497195 5.24874507,23.1766255 4.74420784,22.9519911 L1.09002601,21.3250445 C0.585488787,21.10041 0.358582752,20.5092996 0.583217197,20.0047624 C0.807851642,19.5002252 1.39896207,19.2733191 1.9034993,19.4979536 L2.81704476,19.9046902 L3.68220246,17.9615142 C2.30267817,16.8621483 1.78208821,14.9319033 2.53295339,13.2454324 C2.59821849,13.0988446 2.67231529,12.9563507 2.7548356,12.8187356 L6.73003211,6.18949363 C6.98999434,5.75596726 7.53260279,5.58461704 7.9943957,5.79022049 L11.6686542,7.42610579 C12.1304472,7.63170925 12.3661851,8.14960158 12.2179609,8.63287693 L12.182287,8.7491891 C12.2620982,8.66570788 12.3575809,8.5949228 12.4666836,8.54170987 L16.0816123,6.77859133 C16.5318442,6.55899858 17.075087,6.70641176 17.352558,7.12347236 L21.0847247,12.7332105 C21.181522,12.8787044 21.268513,13.030489 21.3451191,13.1875549 C22.1457178,14.8290255 21.6998274,16.7549163 20.3769131,17.8922224 Z M19.5212433,14.0123972 C19.4903296,13.953578 19.4563964,13.896381 19.4195756,13.8410365 L16.1720168,8.95970198 L14.1297636,9.95577541 L15.472286,14 L19.5058622,14 C19.5110099,14.0041094 19.516137,14.0082418 19.5212433,14.0123972 Z M8.78657571,13 L10.0462167,8.8930226 L7.98988672,7.97748552 L4.97815744,13 L8.78657571,13 Z M16.9474158,1.96480511 C17.2725231,1.70813779 17.7441446,1.76361935 18.000812,2.08872665 C18.2574793,2.41383396 18.2019977,2.88545548 17.8768904,3.14212281 L15.1983973,5.25675285 C14.87329,5.51342018 14.4016685,5.45793861 14.1450011,5.13283131 C13.8883338,4.80772401 13.9438154,4.33610249 14.2689227,4.07943516 L16.9474158,1.96480511 Z M7.31757169,2.76949364 C7.02467848,2.47660042 7.02467848,2.00172668 7.31757169,1.70883346 C7.61046491,1.41594025 8.08533865,1.41594025 8.37823187,1.70883346 L10.5699768,3.90057841 C10.86287,4.19347163 10.86287,4.66834536 10.5699768,4.96123858 C10.2770836,5.2541318 9.80220986,5.2541318 9.50931664,4.96123858 L7.31757169,2.76949364 Z M11.7082097,1.77238505 C11.7154387,1.35823457 12.0570343,1.02835956 12.4711847,1.03558858 C12.8853352,1.0428176 13.2152102,1.38441318 13.2079812,1.79856366 L13.1538858,4.897687 C13.1466568,5.31183747 12.8050612,5.64171249 12.3909107,5.63448346 C11.9767603,5.62725444 11.6468852,5.28565886 11.6541143,4.87150839 L11.7082097,1.77238505 Z" id="clicking-glasses"></path>
                </g>
            </g>
            <g id="slices" transform="translate(60.000000, 58.000000)"></g>
        </g>
    </g>
</svg>