<?xml version="1.0" encoding="UTF-8"?>
<svg width="24px" height="24px" viewBox="0 0 24 24" version="1.1" xmlns="http://www.w3.org/2000/svg" xmlns:xlink="http://www.w3.org/1999/xlink">
    <!-- Generator: Sketch 52.3 (67297) - http://www.bohemiancoding.com/sketch -->
    <title>jollycons-[category]/icons/svg/icon-christmas-and-new-year-decorations</title>
    <desc>Created with Sketch.</desc>
    <g id="icons" stroke="none" stroke-width="1" fill="none" fill-rule="evenodd">
        <g id="icons---export" transform="translate(-60.000000, -138.000000)">
            <g id="row-2" transform="translate(60.000000, 138.000000)" fill="#000000" fill-rule="nonzero">
                <g id="icon---6">
                    <path d="M18.181941,16.2253113 C18.4471217,16.7600804 18.5961941,17.3626313 18.5961941,18 C18.5961941,20.209139 16.8053331,22 14.5961941,22 C13.2304731,22 12.0246132,21.3155531 11.3029208,20.2709656 C10.651782,20.7302407 9.85739383,21 9,21 C6.790861,21 5,19.209139 5,17 C5,16.3148117 5.17228031,15.6698617 5.47588665,15.1061041 C5.38471106,14.8731133 5.26120548,14.6515002 5.10653584,14.4462467 C4.61248398,13.7906177 3.8692541,13.3983322 3.06551889,13.3476427 L1.99154352,13.2799099 L2.13773166,12.2137767 C2.25795638,11.3369918 2.03372243,10.4490114 1.49037245,9.72796162 C1.29783285,9.47245293 1.07409449,9.24916291 0.824444175,9.06127714 L-0.142669981,8.33343114 L0.754564671,7.52100294 C1.55958525,6.79207276 1.69210461,5.92995349 1.65286578,4.9928397 L1.59222722,3.54465125 L2.96760106,4.00211561 C3.86310517,4.29997006 4.81791047,4.23379163 5.74397429,3.65255174 L6.81446523,2.98066281 L7.22213452,4.17698691 C7.32027675,4.46498975 7.46203062,4.73373682 7.64634917,4.9783358 C8.15859399,5.65810764 8.94694132,6.07497275 9.86818373,6.16182171 L11.0213235,6.2705325 L10.745573,7.39548183 C10.5482902,8.20031546 10.7155727,9.05133295 11.2238094,9.72578583 C11.4310411,10.0007916 11.6819242,10.2301112 11.9656767,10.4077375 C12.2494292,10.2301112 12.5003124,10.0007916 12.7075441,9.72578583 C13.2157808,9.05133295 13.3830633,8.20031546 13.1857804,7.39548183 L12.91003,6.2705325 L14.0631698,6.16182171 C14.9844122,6.07497275 15.7727595,5.65810764 16.2850043,4.9783358 C16.4693229,4.73373682 16.6110767,4.46498975 16.709219,4.17698691 L17.1168882,2.98066281 L18.1873792,3.65255174 C19.113443,4.23379163 20.0682483,4.29997006 20.9637524,4.00211561 L22.3391263,3.54465125 L22.2784877,4.9928397 C22.2392489,5.92995349 22.3717682,6.79207276 23.1767888,7.52100294 L24.0740235,8.33343114 L23.1069093,9.06127714 C22.857259,9.24916291 22.6335206,9.47245293 22.440981,9.72796162 C21.8976311,10.4490114 21.6733971,11.3369918 21.7936218,12.2137767 L21.93981,13.2799099 L20.8658346,13.3476427 C20.0620994,13.3983322 19.3188695,13.7906177 18.8248176,14.4462467 C18.5761138,14.7762878 18.4079866,15.1486275 18.3252833,15.5425538 L18.181941,16.2253113 Z M12.5996476,14.5331333 C12.6127426,13.8503753 12.4182712,13.172997 11.9656767,12.5773611 C11.6762559,12.9582527 11.4923875,13.3725706 11.4008511,13.8003465 C11.745892,14.0596599 12.0476289,14.3734854 12.2932732,14.7290344 C12.3921862,14.659267 12.4944047,14.5938729 12.5996476,14.5331333 Z M6.93300073,13.5747615 C7.26013086,13.3769271 7.61788533,13.2246335 7.99747718,13.1266677 C7.64403355,12.3535304 7.29282269,11.7237507 6.94384463,11.2373285 C6.45889633,10.5937804 5.34704915,9.0887479 4.45221152,8.33528816 C4.13535962,8.06849658 4.09477772,7.59536005 4.3615693,7.27850815 C4.62836088,6.96165625 5.10149741,6.92107435 5.41834931,7.18786593 C6.39353118,8.0089761 7.16062453,8.78820598 7.72005803,9.53059931 C8.22732585,10.2037664 8.86895145,11.2527968 9.65333607,12.6870102 C9.78063595,12.3056517 9.95528601,11.940485 10.2129236,11.5760543 C9.99990005,11.3804406 9.80358024,11.1643584 9.62653834,10.9294159 C8.9705494,10.0588891 8.64437187,9.01391217 8.66604523,7.96209847 C7.61963849,7.66098383 6.70540671,7.05294326 6.04907815,6.18196585 C5.96674718,6.07270896 5.88936444,5.96049955 5.81699893,5.84556419 C5.03896777,6.14936413 4.34377832,6.19583163 3.54698096,6.13870771 C3.38239298,6.91975199 3.33526513,7.54324521 2.82933813,8.20709647 C2.91906009,8.30916743 3.00522373,8.41495687 3.08764347,8.52433157 C3.75151842,9.40532338 4.11691578,10.4467673 4.16409851,11.5144039 C5.16277595,11.789724 6.05855496,12.3863385 6.70380686,13.2426166 C6.78518379,13.3506075 6.86160896,13.4614167 6.93300073,13.5747615 Z M14.2780174,12.6870102 C15.062402,11.2527968 15.7040276,10.2037664 16.2112955,9.53059931 C16.770729,8.78820598 17.5378223,8.0089761 18.5130042,7.18786593 C18.8298561,6.92107435 19.3029926,6.96165625 19.5697842,7.27850815 C19.8365758,7.59536005 19.7959939,8.06849658 19.479142,8.33528816 C18.5843043,9.0887479 17.4724572,10.5937804 16.9875089,11.2373285 C16.5603988,11.8326548 16.1299442,12.6427167 15.6961451,13.667514 C16.042068,13.6964125 16.3883055,13.7752914 16.7938355,13.9328078 C16.9175419,13.6927057 17.06234,13.4618532 17.2275466,13.2426166 C17.8727985,12.3863385 18.7685775,11.789724 19.767255,11.5144039 C19.8144377,10.4467673 20.1798351,9.40532338 20.84371,8.52433157 C20.9261298,8.41495687 21.0122934,8.30916743 21.1020154,8.20709647 C20.5960884,7.54324521 20.5489605,6.91975199 20.3843725,6.13870771 C19.5875752,6.19583163 18.8923857,6.14936413 18.1143546,5.84556419 C18.041989,5.96049955 17.9646063,6.07270896 17.8822753,6.18196585 C17.2259468,7.05294326 16.311715,7.66098383 15.2653083,7.96209847 C15.2869816,9.01391217 14.9608041,10.0588891 14.3048151,10.9294159 C14.1277732,11.1643584 13.9314534,11.3804406 13.7184298,11.5760543 C13.9760675,11.940485 14.1507175,12.3056517 14.2780174,12.6870102 Z M14.5961941,20 C15.7007636,20 16.5961941,19.1045695 16.5961941,18 C16.5961941,16.8954305 15.7007636,16 14.5961941,16 C13.4916246,16 12.5961941,16.8954305 12.5961941,18 C12.5961941,19.1045695 13.4916246,20 14.5961941,20 Z M9,19 C10.1045695,19 11,18.1045695 11,17 C11,15.8954305 10.1045695,15 9,15 C7.8954305,15 7,15.8954305 7,17 C7,18.1045695 7.8954305,19 9,19 Z" id="decorations"></path>
                </g>
            </g>
            <g id="slices" transform="translate(60.000000, 58.000000)"></g>
        </g>
    </g>
</svg>