<?xml version="1.0" encoding="UTF-8"?>
<svg width="24px" height="24px" viewBox="0 0 24 24" version="1.1" xmlns="http://www.w3.org/2000/svg" xmlns:xlink="http://www.w3.org/1999/xlink">
    <!-- Generator: Sketch 52.3 (67297) - http://www.bohemiancoding.com/sketch -->
    <title>jollycons-[category]/icons/svg/icon-christmas-and-new-year-gingerbread-man</title>
    <desc>Created with Sketch.</desc>
    <g id="icons" stroke="none" stroke-width="1" fill="none" fill-rule="evenodd">
        <g id="icons---export" transform="translate(-316.000000, -138.000000)">
            <g id="row-2" transform="translate(60.000000, 138.000000)" fill="#000000" fill-rule="nonzero">
                <g id="icon---10" transform="translate(256.000000, 0.000000)">
                    <path d="M6.77231214,15.1986871 L3.20314943,12.0854825 C1.83606346,10.9277475 1.57625328,8.91908053 2.60378378,7.45161489 C3.60906357,6.01592656 5.47914466,5.66509372 6.91674507,6.66559496 C6.91510803,6.61053076 6.91428571,6.55532766 6.91428571,6.5 C6.91428571,3.46243388 9.37671959,1 12.4142857,1 C15.4518518,1 17.9142857,3.46243388 17.9142857,6.5 C17.9142857,6.54476248 17.9137474,6.58944276 17.9126748,6.63403326 C19.3331393,5.68934473 21.3700891,6.04654945 22.3539265,7.45161489 C23.3812989,8.9188547 23.1273074,10.9262675 21.7668712,12.0913856 L18.0992615,15.1344141 L20.8390901,17.4232568 C22.207217,18.5661849 22.4976849,20.5548168 21.5136231,22.0413154 L21.2450218,22.4470576 C20.2025471,24.0217934 18.0808788,24.4532761 16.506143,23.4108014 C16.3940488,23.336595 16.286428,23.255843 16.1838411,23.168966 L12.4298609,19.9898577 L8.84412028,23.1975885 C8.70708606,23.3149487 8.56094431,23.4212362 8.40707439,23.5154479 C6.80264549,24.4978095 4.70563743,23.9935243 3.7232758,22.3890954 L3.41416875,21.8842505 C2.48511891,20.3668924 2.84226424,18.3939763 4.24428236,17.2985976 L6.77231214,15.1986871 Z M11.1864536,18.4405666 C11.0149679,18.1967135 10.9142857,17.8994663 10.9142857,17.5787035 C10.9142857,16.7502764 11.5858586,16.0787035 12.4142857,16.0787035 C13.2427128,16.0787035 13.9142857,16.7502764 13.9142857,17.5787035 C13.9142857,17.8871144 13.8212084,18.1737859 13.6616118,18.41216 L15.8520161,20.2671331 C16.0200153,19.6906098 16.3102493,19.1535905 16.7213177,18.6623045 C17.103361,18.2057076 17.5275236,17.8649002 17.9863606,17.6461569 L15.9097312,15.9113485 C15.4350391,15.5147925 15.4305758,14.7867284 15.9003704,14.3843823 L20.465913,10.5723373 C21.0445872,10.0767435 21.1526248,9.22287183 20.7156224,8.59876776 C20.3505693,8.07741791 19.6319978,7.95071435 19.1106479,8.31576745 C19.0898308,8.33057422 19.0898308,8.33057422 19.0694603,8.34598969 L16.2696653,10.4095163 C15.2890968,11.1630255 14.0825076,9.81586453 14.9390894,8.92392387 C15.5614942,8.27582682 15.9142857,7.41695183 15.9142857,6.5 C15.9142857,4.56700338 14.3472823,3 12.4142857,3 C10.4812891,3 8.91428571,4.56700338 8.91428571,6.5 C8.91428571,7.39473163 9.25004378,8.23433105 9.84563411,8.87743039 C10.6731895,9.77099812 9.48720672,11.0874368 8.51243262,10.3572816 L5.91478948,8.3313694 C5.8996169,8.32013031 5.8996169,8.32013031 5.88420782,8.30921771 C5.35079188,7.93571584 4.61558973,8.06535182 4.24208787,8.59876776 C3.8073648,9.21961665 3.91728414,10.0694346 4.49566484,10.559244 L9.0028401,14.466817 C9.48674238,14.8766161 9.47193049,15.6275483 8.97224459,16.0179465 L6.72589096,17.853165 C7.04489908,18.0602145 7.34454661,18.3307286 7.62198244,18.6623045 C8.14326385,19.285311 8.47023017,19.9818617 8.60002515,20.7392537 L11.1864536,18.4405666 Z M13.173087,11.2058046 C13.6165799,11.466391 13.9142857,11.9484291 13.9142857,12.5 C13.9142857,13.3284271 13.2427128,14 12.4142857,14 C11.5858586,14 10.9142857,13.3284271 10.9142857,12.5 C10.9142857,11.7604555 11.449482,11.1459129 12.1536902,11.0225564 C12.2232075,11.0078385 12.2965901,11 12.3735187,11 L12.5587309,11 C12.8023352,11 13.010579,11.0787781 13.173087,11.2058046 Z M19.4468215,18.8662206 C18.864051,18.8055887 18.361513,19.0395185 17.8717318,19.6248778 C17.4322878,20.1500768 17.2039368,20.7310803 17.1811028,21.3926879 L17.4763565,21.6427275 C17.5189421,21.6787916 17.5636173,21.7123131 17.6101495,21.7431174 C18.2638488,22.1758663 19.1445891,21.9967505 19.5773379,21.3430512 L19.8459391,20.937309 C20.2676799,20.3002381 20.1431937,19.4479673 19.5568536,18.958141 L19.4468215,18.8662206 Z M5.44121078,18.9023039 C4.86902156,19.3767339 4.7293885,20.2021919 5.1198438,20.8398978 L5.42895085,21.3447427 C5.79291349,21.9391798 6.52747254,22.1678423 7.15309383,21.9154127 L7.13979137,21.913875 C7.24191783,21.0304135 7.0228464,20.2837346 6.47156835,19.6248778 C6.14085621,19.229629 5.8043279,18.9946067 5.44121078,18.9023039 Z M10.8860514,8.48836393 C10.6598022,8.14139971 10.7576611,7.67671841 11.1046253,7.4504692 C11.4515895,7.22422 11.9162708,7.32207886 12.14252,7.66904308 C12.1797323,7.72610998 12.2290074,7.75 12.3832425,7.75 C12.5374777,7.75 12.5867527,7.72610998 12.623965,7.66904308 C12.8502142,7.32207886 13.3148955,7.22422 13.6618598,7.4504692 C14.008824,7.67671841 14.1066828,8.14139971 13.8804336,8.48836393 C13.5513527,8.99302569 13.0213232,9.25 12.3832425,9.25 C11.7451619,9.25 11.2151324,8.99302569 10.8860514,8.48836393 Z M11,7 C10.4477153,7 10,6.55228475 10,6 C10,5.44771525 10.4477153,5 11,5 C11.5522847,5 12,5.44771525 12,6 C12,6.55228475 11.5522847,7 11,7 Z M14,7 C13.4477153,7 13,6.55228475 13,6 C13,5.44771525 13.4477153,5 14,5 C14.5522847,5 15,5.44771525 15,6 C15,6.55228475 14.5522847,7 14,7 Z" id="gingerbread-man"></path>
                </g>
            </g>
            <g id="slices" transform="translate(60.000000, 58.000000)"></g>
        </g>
    </g>
</svg>