<?xml version="1.0" encoding="UTF-8"?>
<svg width="24px" height="24px" viewBox="0 0 24 24" version="1.1" xmlns="http://www.w3.org/2000/svg" xmlns:xlink="http://www.w3.org/1999/xlink">
    <!-- Generator: Sketch 52.3 (67297) - http://www.bohemiancoding.com/sketch -->
    <title>jollycons-[category]/icons/svg/icon-christmas-and-new-year-santa-claus</title>
    <desc>Created with Sketch.</desc>
    <g id="icons" stroke="none" stroke-width="1" fill="none" fill-rule="evenodd">
        <g id="icons---export" transform="translate(-316.000000, -58.000000)">
            <g id="row-1" transform="translate(60.000000, 58.000000)" fill="#000000">
                <g id="icon---5" transform="translate(256.000000, 0.000000)">
                    <path d="M17.6889062,0.776641839 C18.1443071,0.298204431 18.7873289,2.73218947e-17 19.5,2.73218947e-17 C20.8807119,2.73218947e-17 22,1.11928813 22,2.5 C22,3.88071187 20.8807119,5 19.5,5 C18.6614946,5 17.9194056,4.58719261 17.465877,3.95372189 C17.4072028,3.96401076 17.3467362,3.97446455 17.2844676,3.98508684 C16.6092497,4.10302219 16.51375,4.20595451 17.1089876,5.06444938 L17.4725158,5.06652192 C18.3233647,5.07137278 19.0779965,5.61402352 19.3534276,6.41907327 L20.0157045,8.35482323 C20.2247811,8.96592736 20.1210338,9.60848074 19.7898687,10.1082453 L20.9780954,15.9831225 C21.3024424,18.1999286 19.6851732,20.4139636 17.6388086,21.3260066 L15.9952432,22.0585262 C13.1551623,23.3243201 9.91203551,23.328998 7.06831484,22.0714025 L5.39175568,21.3299677 C3.32843991,20.4174953 1.72032134,18.2412266 2.05933322,16.0107672 L3.26334718,10.1201487 C3.01909208,9.78673424 2.87568263,9.37495803 2.8777937,8.92992082 C2.87882342,8.71284403 2.91518688,8.49738274 2.98545718,8.2919917 L3.6494867,6.35111896 C3.9276315,5.53813753 4.69397108,4.99366896 5.55320291,4.99856761 L5.65248839,4.99913366 C6.41457694,2.97424831 7.86596188,1.59930169 9.78039789,0.79832148 C10.6479251,0.435357068 11.5637408,0.210338636 12.4980818,0.0925101348 C13.1184737,0.0142733316 13.6014167,-0.00572458518 14.142812,-0.00251166963 C14.1861624,-0.00224242233 14.1861624,-0.00224242233 14.3077453,0.00232966444 C15.6731759,0.132273121 16.799335,0.381431975 17.6889062,0.776641839 Z M19.5,3 C19.7761424,3 20,2.77614237 20,2.5 C20,2.22385763 19.7761424,2 19.5,2 C19.2238576,2 19,2.22385763 19,2.5 C19,2.77614237 19.2238576,3 19.5,3 Z M6.83164531,10.9486987 L7.00388466,13.9246604 C7.00730142,13.9836955 7.01443539,14.0424565 7.02524413,14.1005941 C7.16732205,14.8647967 7.90200753,15.3691284 8.6662101,15.2270505 L9.52397128,15.0675785 C10.8530035,14.8204894 12.2161964,14.8204894 13.5452286,15.0675785 L14.4029898,15.2270505 C14.4611752,15.2378681 14.5199852,15.2450041 14.5790693,15.2484158 C15.3548972,15.2932153 16.0201472,14.7005996 16.0649466,13.9247717 L16.2342217,10.9933005 L6.83164531,10.9486987 Z M4.94801276,12.3276962 L4.03662438,16.3112996 C3.83321725,17.6495752 4.96266851,18.953365 6.20065797,19.5008485 L7.87721714,20.2422833 C10.2038977,21.2712251 12.857365,21.2673977 15.1810676,20.2317481 L16.824633,19.4992285 C18.0524518,18.9520027 19.1937733,17.6027489 18.9991651,16.2726652 L18.1113874,12.4887817 L18.0616206,14.0400678 C17.9531448,15.9186283 16.3423337,17.3535655 14.4637732,17.2450898 C14.3207093,17.2368287 14.178309,17.2195499 14.0374209,17.1933565 L13.1796598,17.0338845 C12.0922698,16.8317207 10.9769301,16.8317207 9.88954013,17.0338845 L9.03177895,17.1933565 C7.18161555,17.5373325 5.40291411,16.3163264 5.0589381,14.466163 C5.03276972,14.3254096 5.01549811,14.1831469 5.007226,14.0402208 L4.94801276,12.3276962 Z M5.65171613,7 L5,9 L18,9 L17.350004,7 L5.65171613,7 Z M9,13.9971096 C8.44771525,13.9971096 8,13.5493943 8,12.9971096 C8,12.4448248 8.44771525,11.9971096 9,11.9971096 C9.55228475,11.9971096 10,12.4448248 10,12.9971096 C10,13.5493943 9.55228475,13.9971096 9,13.9971096 Z M14,13.9971096 C13.4477153,13.9971096 13,13.5493943 13,12.9971096 C13,12.4448248 13.4477153,11.9971096 14,11.9971096 C14.5522847,11.9971096 15,12.4448248 15,12.9971096 C15,13.5493943 14.5522847,13.9971096 14,13.9971096 Z M9.01944898,19.5929276 C8.56976555,19.2722982 8.46514665,18.6478362 8.78577613,18.1981527 C9.1064056,17.7484693 9.73086759,17.6438504 10.180551,17.9644799 C10.3744676,18.1027446 10.8059133,18.2000002 11.4689568,18.2000002 C12.1320004,18.2000002 12.563446,18.1027446 12.7573626,17.9644799 C13.207046,17.6438504 13.831508,17.7484693 14.1521375,18.1981527 C14.472767,18.6478362 14.3681481,19.2722982 13.9184646,19.5929276 C13.3245557,20.0163915 12.5100302,20.2000002 11.4689568,20.2000002 C10.4278834,20.2000002 9.61335789,20.0163915 9.01944898,19.5929276 Z" id="santa-claus"></path>
                </g>
            </g>
            <g id="slices" transform="translate(60.000000, 58.000000)"></g>
        </g>
    </g>
</svg>