<?xml version="1.0" encoding="UTF-8"?>
<svg width="24px" height="24px" viewBox="0 0 24 24" version="1.1" xmlns="http://www.w3.org/2000/svg" xmlns:xlink="http://www.w3.org/1999/xlink">
    <!-- Generator: Sketch 52.3 (67297) - http://www.bohemiancoding.com/sketch -->
    <title>jollycons-[category]/icons/svg/icon-christmas-and-new-year-snow-globe</title>
    <desc>Created with Sketch.</desc>
    <g id="icons" stroke="none" stroke-width="1" fill="none" fill-rule="evenodd">
        <g id="icons---export" transform="translate(-252.000000, -58.000000)">
            <g id="row-1" transform="translate(60.000000, 58.000000)" fill="#000000" fill-rule="nonzero">
                <g id="icon---4" transform="translate(192.000000, 0.000000)">
                    <path d="M6.09186343,18.0689182 C3.61079388,16.2491787 2,13.3126999 2,10 C2,4.4771525 6.4771525,0 12,0 C17.5228475,0 22,4.4771525 22,10 C22,13.3110126 20.3908466,16.2461872 17.9119271,18.0661367 C17.9307346,18.1017758 17.9485441,18.1381287 17.9653117,18.175167 L18.8707312,20.175167 C19.3262738,21.1814248 18.8798311,22.3664482 17.8735733,22.8219908 C17.6144177,22.9393131 17.3332155,23 17.0487403,23 L7.02343496,23 C5.91886546,23 5.02343496,22.1045695 5.02343496,21 C5.02343496,20.7344618 5.07631276,20.4715819 5.17898366,20.2266958 L6.01750321,18.2266958 C6.04013957,18.1727045 6.06496937,18.1200834 6.09186343,18.0689182 Z M19.8612198,8.50854219 C19.6871322,8.80272581 19.366604,9 19,9 C18.4477153,9 18,8.55228475 18,8 C18,7.44771525 18.4477153,7 19,7 C19.1672607,7 19.3249304,7.04106424 19.4634773,7.113661 C18.305637,4.12176414 15.4006008,2 12,2 C7.581722,2 4,5.581722 4,10 C4,10.2498441 4.01145312,10.4970131 4.03386298,10.7410107 C4.14796872,10.3142724 4.53728323,10 5,10 C5.55228475,10 6,10.4477153 6,11 C6,11.5522847 5.55228475,12 5,12 C4.63671595,12 4.318677,11.8062827 4.1435458,11.5165107 C4.59664874,13.8778859 6.08795024,15.8702015 8.12399283,17 L11,17 L11,16 L8.3942079,16 C8.11806553,16 7.8942079,15.7761424 7.8942079,15.5 C7.8942079,15.3713818 7.94377193,15.2477103 8.03259797,15.1546911 L10.0901579,13 L9.53235318,13 C9.2562108,13 9.03235318,12.7761424 9.03235318,12.5 C9.03235318,12.3929108 9.06673572,12.2886508 9.13043895,12.2025694 L11.5980608,8.86810285 C11.7623272,8.64613175 12.0754345,8.59935283 12.2974056,8.7636192 C12.3372145,8.79307917 12.3724257,8.82828999 12.4018861,8.86809855 L14.8695631,12.2025651 C15.0338319,12.4245345 14.9870563,12.7376423 14.7650869,12.9019111 C14.6790048,12.9656163 14.5747431,13 14.4676521,13 L13.8752301,13 L15.89861,15.1580071 C16.0874875,15.3594517 16.0772998,15.6758702 15.8758552,15.8647477 C15.7831798,15.9516416 15.6609029,16 15.5338623,16 L13,16 L13,17 L15.8760072,17 C18.3354247,15.6352711 20,13.0120267 20,10 C20,9.4903099 19.9523352,8.99175252 19.8612198,8.50854219 Z M12,4 C11.4477153,4 11,3.55228475 11,3 C11,2.44771525 11.4477153,2 12,2 C12.5522847,2 13,2.44771525 13,3 C13,3.55228475 12.5522847,4 12,4 Z M7.8619545,19 L7.02343496,21 L17.0487403,21 L16.1433209,19 L7.8619545,19 Z M15,10 C14.4477153,10 14,9.55228475 14,9 C14,8.44771525 14.4477153,8 15,8 C15.5522847,8 16,8.44771525 16,9 C16,9.55228475 15.5522847,10 15,10 Z M15,6 C14.4477153,6 14,5.55228475 14,5 C14,4.44771525 14.4477153,4 15,4 C15.5522847,4 16,4.44771525 16,5 C16,5.55228475 15.5522847,6 15,6 Z M11,8 C10.4477153,8 10,7.55228475 10,7 C10,6.44771525 10.4477153,6 11,6 C11.5522847,6 12,6.44771525 12,7 C12,7.55228475 11.5522847,8 11,8 Z M9,6 C8.44771525,6 8,5.55228475 8,5 C8,4.44771525 8.44771525,4 9,4 C9.55228475,4 10,4.44771525 10,5 C10,5.55228475 9.55228475,6 9,6 Z M18,13 C17.4477153,13 17,12.5522847 17,12 C17,11.4477153 17.4477153,11 18,11 C18.5522847,11 19,11.4477153 19,12 C19,12.5522847 18.5522847,13 18,13 Z M8,13 C7.44771525,13 7,12.5522847 7,12 C7,11.4477153 7.44771525,11 8,11 C8.55228475,11 9,11.4477153 9,12 C9,12.5522847 8.55228475,13 8,13 Z M7,9 C6.44771525,9 6,8.55228475 6,8 C6,7.44771525 6.44771525,7 7,7 C7.55228475,7 8,7.44771525 8,8 C8,8.55228475 7.55228475,9 7,9 Z" id="snow-globe"></path>
                </g>
            </g>
            <g id="slices" transform="translate(60.000000, 58.000000)"></g>
        </g>
    </g>
</svg>