<?xml version="1.0" encoding="UTF-8"?>
<svg width="24px" height="24px" viewBox="0 0 24 24" version="1.1" xmlns="http://www.w3.org/2000/svg" xmlns:xlink="http://www.w3.org/1999/xlink">
    <!-- Generator: Sketch 52.3 (67297) - http://www.bohemiancoding.com/sketch -->
    <title>jollycons-[category]/icons/svg/icon-christmas-and-new-year-tree-ornament</title>
    <desc>Created with Sketch.</desc>
    <g id="icons" stroke="none" stroke-width="1" fill="none" fill-rule="evenodd">
        <g id="icons---export" transform="translate(-124.000000, -58.000000)">
            <g id="row-1" transform="translate(60.000000, 58.000000)" fill="#000000">
                <g id="icon---2" transform="translate(64.000000, 0.000000)">
                    <path d="M18.5219137,6.33618041 C18.9976614,6.61322513 19.1601492,7.22310217 18.8846423,7.70029419 L18.3190144,8.67999047 C20.3349354,11.4666862 20.6534149,15.2891937 18.8224323,18.4605486 C16.3371509,22.7651822 10.8328372,24.2400586 6.52820363,21.7547773 C2.22357002,19.2694959 0.748693626,13.7651822 3.233975,9.46054863 C5.13179043,6.17343589 8.79005941,4.53640691 12.3302649,5.05280881 L12.8224645,4.20029419 C13.0986069,3.72200156 13.7101973,3.55812641 14.1884899,3.83426878 L14.345212,3.92475235 L15.1007506,2.5161617 C15.7416115,1.32137065 17.2297014,0.872321546 18.4244925,1.51318246 L18.4320979,1.51727911 C19.6077013,2.1531853 20.0452124,3.62170399 19.4093062,4.79730743 C19.3931913,4.82677267 19.3931913,4.82677267 19.376534,4.85593471 L18.521914,6.33617997 L18.5219137,6.33618041 Z M17.3746389,4.32331871 L17.6444832,3.85593471 C17.6473745,3.85087279 17.6473745,3.85087279 17.6501717,3.84575823 C17.7605518,3.64169795 17.684609,3.38679367 17.4805487,3.2764136 L17.4791394,3.27565445 C17.2577347,3.15689764 16.9819794,3.24011014 16.8632226,3.46151478 L16.6313052,3.8938907 L17.3746389,4.32331871 Z M7.52820283,20.0227257 C10.8762512,21.9557223 15.157384,20.8085962 17.0903807,17.4605478 C19.0233773,14.1124995 17.8762512,9.83136662 14.5282028,7.89837 C11.1801545,5.96537338 6.89902162,7.11249946 4.966025,10.4605478 C3.03302838,13.8085962 4.18015446,18.089729 7.52820283,20.0227257 Z M13.3425295,8.88081699 C13.8712207,9.04051698 14.1703471,9.59856828 14.0106471,10.1272595 C13.8509471,10.6559506 13.2928958,10.9550771 12.7642047,10.7953771 C10.7984252,10.2015806 9.44253201,10.6816997 8.42685828,12.306634 C8.13412934,12.7749589 7.51717331,12.9173076 7.0488484,12.6245786 C6.5805235,12.3318497 6.43817484,11.7148937 6.73090378,11.2465688 C8.23349525,8.8426349 10.5272594,8.0304177 13.3425295,8.88081699 Z" id="tree-ornament"></path>
                </g>
            </g>
            <g id="slices" transform="translate(60.000000, 58.000000)"></g>
        </g>
    </g>
</svg>