<svg xmlns="http://www.w3.org/2000/svg" width="24" height="24" viewBox="0 0 24 24">
  <path d="M6,21 L6,19 C6,16.7966989 7.0373591,14.7219807 8.8,13.4 L10,12.5 L8.8,11.6 C7.0373591,10.2780193 6,8.20330112 6,6 L6,4 L5,4 C4.44771525,4 4,3.55228475 4,3 C4,2.44771525 4.44771525,2 5,2 L20,2 C20.5522847,2 21,2.44771525 21,3 C21,3.55228475 20.5522847,4 20,4 L19,4 L19,6 C19,8.20330112 17.9626409,10.2780193 16.2,11.6 L15,12.5 L16.2,13.4 C17.9626409,14.7219807 19,16.7966989 19,19 L19,21 L20,21 C20.5522847,21 21,21.4477153 21,22 C21,22.5522847 20.5522847,23 20,23 L5,23 C4.44771525,23 4,22.5522847 4,22 C4,21.4477153 4.44771525,21 5,21 L6,21 Z M17,19 C17,17.4262135 16.2590292,15.9442719 15,15 L13.4,13.8 C13.1481942,13.6111456 13,13.3147573 13,13 L13,12 C13,11.6852427 13.1481942,11.3888544 13.4,11.2 L15,10 C16.2590292,9.05572809 17,7.57378652 17,6 L17,4 L8,4 L8,6 C8,7.57378652 8.74097079,9.05572809 10,10 L11.6,11.2 C11.8518058,11.3888544 12,11.6852427 12,12 L12,13 C12,13.3147573 11.8518058,13.6111456 11.6,13.8 L10,15 C8.74097079,15.9442719 8,17.4262135 8,19 L8,21 L17,21 L17,19 Z M9.5,20 C9.5,16.9960487 11.788124,15.9573179 12.5,15.9573179 C13.211876,15.9573179 15.5,17.0154678 15.5,20 L9.5,20 Z"/>
</svg>
