<svg xmlns="http://www.w3.org/2000/svg" width="24" height="24" viewBox="0 0 24 24">
  <path d="M16.1278849,5.28138878 C14.4881861,4.2129756 12.4930579,3.77545647 10.5043608,4.12611744 C6.21859577,4.88181344 3.36110428,9.02693731 4.13049611,13.3903752 C4.85495306,17.4989747 8.55495938,20.3616932 12.6103188,20.0054385 C13.1604847,19.9571076 13.6456623,20.3639253 13.6939932,20.9140913 C13.7423241,21.4642572 13.3355064,21.9494348 12.7853405,21.9977657 C7.69304219,22.4451133 3.06483257,18.8642379 2.1608806,13.7376715 C1.20081038,8.29284275 4.77700876,3.1051509 10.1570644,2.15650193 C12.9122944,1.67068055 15.676228,2.38894867 17.8353121,4.04087031 L19.2582646,3.0070348 C19.4816685,2.84472239 19.7943533,2.8942468 19.9566657,3.11765067 C20.0141502,3.19677131 20.0471693,3.29101311 20.0516356,3.38870957 L20.2569243,7.8793158 C20.269535,8.15517008 20.0561339,8.38901716 19.7802796,8.40162788 C19.7114783,8.40477314 19.6427691,8.39367038 19.57846,8.36901573 L15.3981966,6.76639771 C15.1403535,6.66754653 15.0114651,6.3783887 15.1103162,6.12054562 C15.1449444,6.03022169 15.2050301,5.95188199 15.2832898,5.89502301 L16.1278849,5.28138878 Z M10.831,13.559 C11.0803346,13.559 11.2659161,13.6085828 11.38775,13.70775 C11.5095839,13.8069172 11.5705,13.9613323 11.5705,14.171 C11.5705,14.3863344 11.5095839,14.5449995 11.38775,14.647 C11.2659161,14.7490005 11.0803346,14.8 10.831,14.8 L7.7285,14.8 C7.52449898,14.8 7.36300059,14.7390839 7.244,14.61725 C7.1249994,14.4954161 7.0655,14.3410009 7.0655,14.154 C7.0655,13.9103321 7.16183237,13.6893343 7.3545,13.491 L9.1565,11.6125 C9.53050187,11.221498 9.7175,10.8616683 9.7175,10.533 C9.7175,10.3403324 9.66225055,10.1930005 9.55175,10.091 C9.44124945,9.98899949 9.28400102,9.938 9.08,9.938 C8.91566584,9.938 8.76408403,9.96208309 8.62525,10.01025 C8.48641597,10.0584169 8.32633424,10.1278329 8.145,10.2185 L7.975,10.3035 C7.95233322,10.3148334 7.90841699,10.3389165 7.84325,10.37575 C7.77808301,10.4125835 7.72000025,10.4394999 7.669,10.4565 C7.61799974,10.4735001 7.56416695,10.482 7.5075,10.482 C7.36583262,10.482 7.24683381,10.4182506 7.1505,10.29075 C7.05416618,10.1632494 7.006,10.0116675 7.006,9.836 C7.006,9.71133271 7.02441648,9.60933373 7.06125,9.53 C7.09808352,9.45066627 7.16749949,9.37700034 7.2695,9.309 C7.53583466,9.12766576 7.83474834,8.98600051 8.16625,8.884 C8.49775166,8.78199949 8.82499838,8.731 9.148,8.731 C9.56733543,8.731 9.93566508,8.80041597 10.253,8.93925 C10.5703349,9.07808403 10.8154158,9.27641538 10.98825,9.53425 C11.1610842,9.79208462 11.2475,10.088165 11.2475,10.4225 C11.2475,10.7681684 11.178084,11.0840819 11.03925,11.37025 C10.900416,11.6564181 10.663835,11.9751649 10.3295,12.3265 L9.1225,13.559 L10.831,13.559 Z M16.296,12.5985 C16.7890025,12.5985 17.0355,12.793998 17.0355,13.185 C17.0355,13.5873353 16.7890025,13.7885 16.296,13.7885 L16.109,13.7885 L16.109,14.0775 C16.109,14.3325013 16.0381674,14.525166 15.8965,14.6555 C15.7548326,14.785834 15.5706678,14.851 15.344,14.851 C15.1173322,14.851 14.934584,14.785834 14.79575,14.6555 C14.656916,14.525166 14.5875,14.3325013 14.5875,14.0775 L14.5875,13.7885 L12.692,13.7885 C12.487999,13.7885 12.3265006,13.7261673 12.2075,13.6015 C12.0884994,13.4768327 12.029,13.3210009 12.029,13.134 C12.029,12.9356657 12.0913327,12.7486675 12.216,12.573 L14.647,9.105 C14.7263337,8.9916661 14.8269161,8.9052503 14.94875,8.84575 C15.0705839,8.7862497 15.196666,8.7565 15.327,8.7565 C15.5423344,8.7565 15.7264992,8.82449932 15.8795,8.9605 C16.0325008,9.09650068 16.109,9.28633211 16.109,9.53 L16.109,12.5985 L16.296,12.5985 Z M13.5675,12.5985 L14.5875,12.5985 L14.5875,11.128 L13.5675,12.5985 Z M19.878462,10.6108146 C19.7825588,10.0669203 20.1457273,9.54826189 20.6896216,9.45235865 C21.2335159,9.35645541 21.7521743,9.71962392 21.8480775,10.2635182 C21.9439808,10.8074125 21.5808123,11.3260709 21.036918,11.4219742 C20.4930237,11.5178774 19.9743653,11.1547089 19.878462,10.6108146 Z M19.878462,13.3891854 C19.9743653,12.8452911 20.4930237,12.4821226 21.036918,12.5780258 C21.5808123,12.6739291 21.9439808,13.1925875 21.8480775,13.7364818 C21.7521743,14.2803761 21.2335159,14.6435446 20.6896216,14.5476414 C20.1457273,14.4517381 19.7825588,13.9330797 19.878462,13.3891854 Z M18.9282032,16 C19.2043456,15.5217074 19.815936,15.3578322 20.2942286,15.6339746 C20.7725213,15.910117 20.9363964,16.5217074 20.660254,17 C20.3841117,17.4782926 19.7725213,17.6421678 19.2942286,17.3660254 C18.815936,17.089883 18.6520609,16.4782926 18.9282032,16 Z M17.1423009,18.1283555 C17.5653755,17.7733538 18.1961311,17.8285377 18.5511329,18.2516124 C18.9061347,18.674687 18.8509508,19.3054426 18.4278761,19.6604444 C18.0048014,20.0154462 17.3740458,19.9602623 17.019044,19.5371876 C16.6640422,19.1141129 16.7192262,18.4833573 17.1423009,18.1283555 Z M14.7361611,19.517541 C15.2551391,19.3286485 15.8289814,19.5962355 16.0178739,20.1152134 C16.2067664,20.6341913 15.9391793,21.2080337 15.4202014,21.3969262 C14.9012235,21.5858187 14.3273812,21.3182316 14.1384887,20.7992537 C13.9495962,20.2802758 14.2171832,19.7064335 14.7361611,19.517541 Z"/>
</svg>
