<svg xmlns="http://www.w3.org/2000/svg" width="24" height="24" viewBox="0 0 24 24">
  <path fill-rule="evenodd" d="M20,22 L21,22 C21.5522847,22 22,22.4477153 22,23 C22,23.5522847 21.5522847,24 21,24 L3,24 C2.44771525,24 2,23.5522847 2,23 C2,22.4477153 2.44771525,22 3,22 L4,22 L4,9 C4,4.581722 7.581722,1 12,1 C16.418278,1 20,4.581722 20,9 L20,22 Z M13,15.1707057 C14.1651924,15.5825421 15,16.6937812 15,18 C15,19.6568542 13.6568542,21 12,21 C10.3431458,21 9,19.6568542 9,18 C9,16.6937812 9.83480763,15.5825421 11,15.1707057 L11,13.8999819 C8.71775968,13.4367116 7,11.4189579 7,9 C7,6.23857625 9.23857625,4 12,4 C14.7614237,4 17,6.23857625 17,9 C17,11.4189579 15.2822403,13.4367116 13,13.8999819 L13,15.1707057 L13,15.1707057 Z M18,22 L18,9 C18,5.6862915 15.3137085,3 12,3 C8.6862915,3 6,5.6862915 6,9 L6,22 L18,22 Z M12,12 C13.6568542,12 15,10.6568542 15,9 C15,7.34314575 13.6568542,6 12,6 C10.3431458,6 9,7.34314575 9,9 C9,10.6568542 10.3431458,12 12,12 Z M12,19 C12.5522847,19 13,18.5522847 13,18 C13,17.4477153 12.5522847,17 12,17 C11.4477153,17 11,17.4477153 11,18 C11,18.5522847 11.4477153,19 12,19 Z M12.75,7.66820095 L12.75,8.68933983 L13.3823263,9.3216661 C13.6752195,9.61455932 13.6752195,10.0894331 13.3823263,10.3823263 C13.0894331,10.6752195 12.6145593,10.6752195 12.3216661,10.3823263 L11.4696699,9.53033009 C11.3290176,9.3896778 11.25,9.19891237 11.25,9 L11.25,7.66820095 C11.25,7.25398739 11.5857864,6.91820095 12,6.91820095 C12.4142136,6.91820095 12.75,7.25398739 12.75,7.66820095 Z"/>
</svg>
