<svg xmlns="http://www.w3.org/2000/svg" width="24" height="24" viewBox="0 0 24 24">
  <path d="M5.05423585,15 C5.4375433,18.9972804 7.8440022,21 12,21 C16.1559978,21 18.5624567,18.9972804 18.9457641,15 L5.05423585,15 L5.05423585,15 Z M5.02187824,13 L7,13 L7,12 C7,11.4477153 7.44771525,11 8,11 C8.55228475,11 9,11.4477153 9,12 L9,13 L11,13 L11,10 C11,9.44771525 11.4477153,9 12,9 C12.5522847,9 13,9.44771525 13,10 L13,13 L15,13 L15,12 C15,11.4477153 15.4477153,11 16,11 C16.5522847,11 17,11.4477153 17,12 L17,13 L18.9781218,13 C18.6930785,7.66636117 15.6588655,3 12,3 C8.34113446,3 5.30692152,7.66636117 5.02187824,13 L5.02187824,13 Z M12,23 C6.35830141,23 3,19.7174028 3,13.8181818 C3,7.19031132 6.79029218,1 12,1 C17.2097078,1 21,7.19031132 21,13.8181818 C21,19.7174028 17.6416986,23 12,23 Z M12.4160251,16.6240377 L13.4817666,18.2226499 C13.6349428,18.4524142 13.5728559,18.7628489 13.3430916,18.9160251 C13.2609578,18.970781 13.1644539,19 13.0657415,19 L10.9342585,19 C10.6581162,19 10.4342585,18.7761424 10.4342585,18.5 C10.4342585,18.4012875 10.4634776,18.3047837 10.5182334,18.2226499 L11.5839749,16.6240377 C11.7371511,16.3942734 12.0475858,16.3321864 12.2773501,16.4853627 C12.3322762,16.5219801 12.3794077,16.5691116 12.4160251,16.6240377 Z"/>
</svg>
