<svg xmlns="http://www.w3.org/2000/svg" width="24" height="24" viewBox="0 0 24 24">
  <path fill-rule="evenodd" d="M11,3 C10.4477153,3 10,2.55228475 10,2 C10,1.44771525 10.4477153,1 11,1 L13,1 C13.5522847,1 14,1.44771525 14,2 C14,2.55228475 13.5522847,3 13,3 L13,4 C13,4.01651556 12.9995996,4.03293761 12.9988081,4.04925697 C14.8858683,4.23638838 16.618649,4.9481004 18.0492717,6.0365147 L18.6464466,5.43933983 C19.0369709,5.04881554 19.6701359,5.04881554 20.0606602,5.43933983 C20.4511845,5.82986412 20.4511845,6.4630291 20.0606602,6.85355339 L19.5134756,7.40073798 C21.061358,9.16165929 22,11.4712138 22,14 C22,19.5228475 17.5228475,24 12,24 C6.4771525,24 2,19.5228475 2,14 C2,8.81424421 5.94729793,4.55042926 11.0011919,4.04925697 C11.0004004,4.03293761 11,4.01651556 11,4 L11,3 Z M12,22 C16.418278,22 20,18.418278 20,14 C20,9.581722 16.418278,6 12,6 C7.581722,6 4,9.581722 4,14 C4,18.418278 7.581722,22 12,22 Z M12.0077106,20.0288521 C8.66936092,20.0288521 5.96309383,17.3269696 5.96309383,13.9940286 C5.96309383,11.126188 7.96676033,8.7255706 10.6527077,8.11142106 C10.7686756,8.08490469 12.0077106,7.71146637 12.0077106,8.80572197 L12.0077106,13.9940286 L17.148052,13.9940286 C18.0555066,13.9940286 17.9740737,14.9765302 17.9500195,15.1055197 C17.4274956,17.9075303 14.9657357,20.0288521 12.0077106,20.0288521 Z"/>
</svg>
