<svg xmlns="http://www.w3.org/2000/svg" width="24" height="24" viewBox="0 0 24 24">
  <path d="M15.6631444,14.3668951 C16.0459378,14.7650002 16.0335251,15.3980435 15.63542,15.7808368 C15.2373149,16.1636302 14.6042716,16.1512176 14.2214782,15.7531125 L12.4800413,13.9420181 C12.3262597,13.9799035 12.1654767,14 12,14 C10.8954305,14 10,13.1045695 10,12 C10,10.8954305 10.8954305,10 12,10 C13.1045695,10 14,10.8954305 14,12 C14,12.1928754 13.9726977,12.3793739 13.921747,12.5558418 L15.6631444,14.3668951 Z M5,11 C5.55228475,11 6,11.4477153 6,12 C6,12.5522847 5.55228475,13 5,13 L4.12294159,13 C4.29444753,14.3905523 4.83357909,15.7539031 5.75896403,16.9383419 C7.09937831,18.6539939 9.00008013,19.6741203 11,19.9421089 L11,19 C11,18.4477153 11.4477153,18 12,18 C12.5522847,18 13,18.4477153 13,19 L13,19.9591656 C14.4078528,19.7945179 15.7897101,19.2536098 16.9883419,18.3171361 C17.0272006,18.2866503 17.0272006,18.2866503 17.0657331,18.255917 C17.1041025,18.2250606 17.1041025,18.2250606 17.142146,18.1939596 C17.1801746,18.1626146 17.1801746,18.1626146 17.2178749,18.131026 C17.2554111,18.0993165 17.2554111,18.0993165 17.2926193,18.0673664 C17.3298807,18.0351079 17.3298807,18.0351079 17.3668104,18.0026091 C17.4035744,17.9699909 17.4035744,17.9699909 17.4400068,17.9371353 C17.4764151,17.9040325 17.4764151,17.9040325 17.5124894,17.8706936 C17.5483967,17.8372374 17.5483967,17.8372374 17.5839703,17.803548 C17.6195846,17.7695438 17.6195846,17.7695438 17.6548613,17.7353067 C17.6899692,17.7009541 17.6899692,17.7009541 17.7247395,17.6663718 C17.7594761,17.6315394 17.7594761,17.6315394 17.7938725,17.5964786 C17.8280988,17.5613045 17.8280988,17.5613045 17.861985,17.5259051 C17.8958327,17.4902547 17.8958327,17.4902547 17.9293376,17.4543804 C17.9626711,17.418395 17.9626711,17.418395 17.9956618,17.382189 C18.0286091,17.345731 18.0286091,17.345731 18.0612109,17.3090538 C18.0936399,17.2722678 18.0936399,17.2722678 18.1257232,17.2352658 C18.1577592,17.19801 18.1577592,17.19801 18.1894468,17.1605397 C18.2209601,17.1229629 18.2209601,17.1229629 18.2521248,17.0851749 C18.2832362,17.0471336 18.2832362,17.0471336 18.3139961,17.0088826 C18.3445802,16.9705277 18.3445802,16.9705277 18.3748127,16.9319664 C18.4049279,16.8932271 18.4049279,16.8932271 18.43469,16.854284 C18.4642754,16.8152398 18.4642754,16.8152398 18.4935073,16.7759951 C18.5226759,16.7364968 18.5226759,16.7364968 18.5514881,16.6967999 C18.5801221,16.6570044 18.5801221,16.6570044 18.6083993,16.6170136 C18.6365667,16.5768278 18.6365667,16.5768278 18.6643753,16.5364492 C18.6920046,16.4959749 18.6920046,16.4959749 18.7192748,16.4553113 C18.7464712,16.4143941 18.7464712,16.4143941 18.7733054,16.3732895 C18.7999584,16.332092 18.7999584,16.332092 18.8262491,16.2907105 C18.8523838,16.2491974 18.8523838,16.2491974 18.8781549,16.2075035 C18.9037442,16.16572 18.9037442,16.16572 18.9289696,16.1237593 C18.9541106,16.081546 18.9541106,16.081546 18.9788845,16.0391577 C19.0034747,15.9966827 19.0034747,15.9966827 19.0276973,15.9540362 C19.0517652,15.9112526 19.0517652,15.9112526 19.0754643,15.8683007 C19.0989788,15.8252655 19.0989788,15.8252655 19.122124,15.7820657 C19.1451292,15.7386997 19.1451292,15.7386997 19.1677631,15.6951721 C19.1902112,15.6515645 19.1902112,15.6515645 19.2122877,15.607799 C19.2342209,15.5638696 19.2342209,15.5638696 19.2557804,15.5197852 C19.277153,15.4756244 19.277153,15.4756244 19.2981515,15.4313124 C19.3190034,15.3868388 19.3190034,15.3868388 19.3394791,15.3422173 C19.3597667,15.2975227 19.3597667,15.2975227 19.3796778,15.2526839 C19.3994388,15.2076859 19.3994388,15.2076859 19.4188213,15.162547 C19.4380143,15.1173385 19.4380143,15.1173385 19.4568283,15.0719928 C19.4754526,15.0265795 19.4754526,15.0265795 19.4936973,14.981033 C19.5117521,14.9354207 19.5117521,14.9354207 19.5294267,14.8896789 C19.5469451,14.8437837 19.5469451,14.8437837 19.5640813,14.7977625 C19.5810263,14.7516791 19.5810263,14.7516791 19.5975886,14.7054736 C19.6139594,14.659208 19.6139594,14.659208 19.629947,14.612824 C19.6457428,14.5663819 19.6457428,14.5663819 19.6611548,14.5198254 C19.6764043,14.4731214 19.6764043,14.4731214 19.691268,14.4263065 C19.7059387,14.3794372 19.7059387,14.3794372 19.7202229,14.332461 C19.7343138,14.2854323 19.7343138,14.2854323 19.7480178,14.2383007 C19.7615281,14.1911187 19.7615281,14.1911187 19.7746509,14.1438377 C19.7876049,14.0964157 19.7876049,14.0964157 19.8001693,14.0488983 C19.8125388,14.0013344 19.8125388,14.0013344 19.8245182,13.9536791 C19.8363024,13.9059793 19.8363024,13.9059793 19.8476959,13.8581922 C19.858894,13.8103625 19.858894,13.8103625 19.8697008,13.7624496 C19.8803222,13.7144493 19.8803222,13.7144493 19.890551,13.6663696 C19.9005835,13.6182513 19.9005835,13.6182513 19.9102229,13.5700578 C19.9196656,13.5218277 19.9196656,13.5218277 19.9287147,13.4735265 C20.0293103,12.9304804 20.5510849,12.5718035 21.0941309,12.6723991 C21.6371769,12.7729946 21.9958539,13.2947692 21.8952583,13.8378153 C21.8839615,13.8981139 21.8839615,13.8981139 21.8721729,13.9583256 C21.8601387,14.0184926 21.8601387,14.0184926 21.8476133,14.0785678 C21.8348424,14.138596 21.8348424,14.138596 21.8215809,14.1985276 C21.8080876,14.2583514 21.8080876,14.2583514 21.7941051,14.318074 C21.7798783,14.3777448 21.7798783,14.3777448 21.7651628,14.4373098 C21.7502032,14.4968206 21.7502032,14.4968206 21.7347556,14.5562207 C21.7190641,14.6155642 21.7190641,14.6155642 21.7028851,14.6747923 C21.6864948,14.7338461 21.6864948,14.7338461 21.6696194,14.79278 C21.6525016,14.8516528 21.6525016,14.8516528 21.6348992,14.910401 C21.6170547,14.9690857 21.6170547,14.9690857 21.5987263,15.027641 C21.5801559,15.0861304 21.5801559,15.0861304 21.561102,15.1444856 C21.5418445,15.2026586 21.5418445,15.2026586 21.522106,15.2606932 C21.502127,15.3186572 21.502127,15.3186572 21.4816675,15.376478 C21.4609678,15.434226 21.4609678,15.434226 21.4397881,15.4918259 C21.4183685,15.5493505 21.4183685,15.5493505 21.3964695,15.6067222 C21.3743743,15.6639046 21.3743743,15.6639046 21.3518019,15.7209298 C21.3289912,15.7778752 21.3289912,15.7778752 21.3057039,15.8346587 C21.2821784,15.89136 21.2821784,15.89136 21.2581769,15.9478945 C21.2339376,16.0043444 21.2339376,16.0043444 21.2092228,16.0606227 C21.1843193,16.1167043 21.1843193,16.1167043 21.1589427,16.1726101 C21.1333298,16.2284268 21.1333298,16.2284268 21.1072443,16.2840628 C21.0809743,16.339499 21.0809743,16.339499 21.0542341,16.3947505 C21.0272591,16.4499083 21.0272591,16.4499083 20.9998145,16.5048766 C20.9721894,16.5596418 20.9721894,16.5596418 20.9440972,16.6142134 C20.9157716,16.6686868 20.9157716,16.6686868 20.8869794,16.7229618 C20.858011,16.7770306 20.858011,16.7770306 20.8285783,16.8308968 C20.7989138,16.8846605 20.7989138,16.8846605 20.7687856,16.9382168 C20.738463,16.991603 20.738463,16.991603 20.7076786,17.0447774 C20.6766634,17.0978447 20.6766634,17.0978447 20.6451871,17.1506954 C20.6136043,17.2032311 20.6136043,17.2032311 20.5815646,17.2555471 C20.5492966,17.307752 20.5492966,17.307752 20.5165722,17.3597323 C20.4836522,17.4115485 20.4836522,17.4115485 20.4502773,17.4631358 C20.4166753,17.5146074 20.4166753,17.5146074 20.3826192,17.5658452 C20.3484703,17.6167658 20.3484703,17.6167658 20.3138715,17.6674497 C20.2790481,17.718014 20.2790481,17.718014 20.2437754,17.7683367 C20.2083653,17.8184151 20.2083653,17.8184151 20.1725089,17.8682484 C20.1364296,17.9179578 20.1364296,17.9179578 20.0999048,17.9674174 C20.0633012,18.0165587 20.0633012,18.0165587 20.0262563,18.0654473 C19.988991,18.1142083 19.988991,18.1142083 19.9512852,18.1627119 C19.9134336,18.2109913 19.9134336,18.2109913 19.875144,18.2590095 C19.8366356,18.3068959 19.8366356,18.3068959 19.7976901,18.3545165 C19.7586793,18.401818 19.7586793,18.401818 19.7192356,18.448851 C19.6795757,18.4957486 19.6795757,18.4957486 19.6394837,18.5423729 C19.5993347,18.5886771 19.5993347,18.5886771 19.558758,18.6347056 C19.5179675,18.6805951 19.5179675,18.6805951 19.4767502,18.7262043 C19.4354815,18.7714952 19.4354815,18.7714952 19.3937902,18.8165033 C19.3518878,18.8613689 19.3518878,18.8613689 19.3095636,18.9059472 C19.267195,18.9502077 19.267195,18.9502077 19.224409,18.9941787 C19.1814144,19.0380037 19.1814144,19.0380037 19.1380032,19.0815345 C19.0945545,19.1247483 19.0945545,19.1247483 19.0506935,19.1676658 C19.0066266,19.210434 19.0066266,19.210434 18.9621484,19.2529014 C18.9177266,19.2949703 18.9177266,19.2949703 18.8728994,19.3367375 C18.8278697,19.3783527 18.8278697,19.3783527 18.7824355,19.4196619 C18.7369776,19.4606568 18.7369776,19.4606568 18.6911196,19.5013437 C18.6450616,19.5418755 18.6450616,19.5418755 18.5986045,19.5820949 C18.5522213,19.6219235 18.5522213,19.6219235 18.5054446,19.6614391 C18.4584715,19.7007972 18.4584715,19.7007972 18.411106,19.7398382 C18.3637305,19.7785682 18.3637305,19.7785682 18.3159668,19.8169793 C18.2680854,19.8553273 18.2680854,19.8553273 18.2196648,19.8931576 C13.8676016,23.293362 7.58314696,22.521728 4.18294252,18.1696648 C0.782738086,13.8176016 1.55437209,7.53314696 5.90643531,4.13294252 C10.2087931,0.771572185 16.3996544,1.48729044 19.8255338,5.70872116 L21.0794353,5.01367218 C21.3209549,4.8797957 21.6252735,4.96705767 21.75915,5.20857723 C21.8065637,5.29411372 21.8278515,5.39167707 21.8203782,5.48918961 L21.4768695,9.97134194 C21.455768,10.2466769 21.2154588,10.4527739 20.9401239,10.4316724 C20.8714521,10.4264095 20.8046081,10.4070159 20.743783,10.3747077 L16.7899886,8.27458942 C16.5461143,8.14505189 16.4534261,7.84234186 16.5829637,7.59846762 C16.6283414,7.51303707 16.6975265,7.44260391 16.7821322,7.39570621 L18.041995,6.69735283 C16.6983628,5.1831516 14.8889624,4.29092931 13,4.06810614 L13,5 C13,5.55228475 12.5522847,6 12,6 C11.4477153,6 11,5.55228475 11,5 L11,4.08269838 C9.63584809,4.26425329 8.30058225,4.80046636 7.13775826,5.70896403 C5.40781438,7.06054432 4.38503222,8.98178573 4.1274506,11 L5,11 Z"/>
</svg>
