<svg xmlns="http://www.w3.org/2000/svg" width="24" height="24" viewBox="0 0 24 24">
  <path d="M19.7556419,13.9699301 C19.3751098,15.4727048 18.5692799,16.8060103 17.4737363,17.8342622 L17.1612503,21.2716072 C17.0207742,22.8168447 15.7251803,24 14.1735707,24 L9.82642928,24 C8.27481966,24 6.97922579,22.8168447 6.83874966,21.2716072 L6.52626375,17.8342622 C4.97131357,16.3748219 4,14.3008422 4,12 C4,9.69915783 4.97131357,7.6251781 6.52626375,6.16573776 L6.83874966,2.72839276 C6.97922579,1.18315529 8.27481966,0 9.82642928,0 L14.1735707,0 C15.7251803,0 17.0207742,1.18315529 17.1612503,2.72839276 L17.4737363,6.16573776 C18.5692799,7.19398969 19.3751098,8.52729518 19.7556419,10.0300699 C19.8338451,10.01043 19.9157045,10 20,10 C20.5522847,10 21,10.4477153 21,11 L21,13 C21,13.5522847 20.5522847,14 20,14 C19.9157045,14 19.8338451,13.98957 19.7556419,13.9699301 L19.7556419,13.9699301 Z M15.334601,4.72597156 L15.1694639,2.90946425 C15.1226386,2.3943851 14.6907739,2 14.1735707,2 L9.82642928,2 C9.30922607,2 8.87736145,2.3943851 8.83053607,2.90946425 L8.66539904,4.72597156 C9.68046873,4.25987408 10.8098859,4 12,4 C13.1901141,4 14.3195313,4.25987408 15.334601,4.72597156 L15.334601,4.72597156 Z M15.334601,19.2740284 C14.3195313,19.7401259 13.1901141,20 12,20 C10.8098859,20 9.68046873,19.7401259 8.66539904,19.2740284 L8.83053607,21.0905357 C8.87736145,21.6056149 9.30922607,22 9.82642928,22 L14.1735707,22 C14.6907739,22 15.1226386,21.6056149 15.1694639,21.0905357 L15.334601,19.2740284 L15.334601,19.2740284 Z M12,18 C15.3137085,18 18,15.3137085 18,12 C18,8.6862915 15.3137085,6 12,6 C8.6862915,6 6,8.6862915 6,12 C6,15.3137085 8.6862915,18 12,18 Z M13,9 L13,11.5751826 L14.0057596,12.5453057 C14.4032627,12.9287242 14.4146804,13.5617863 14.0312619,13.9592893 C13.6478434,14.3567924 13.0147813,14.3682101 12.6172783,13.9847916 L11.3057593,12.7197429 C11.1103698,12.5312765 11,12.2714712 11,12 L11,9 C11,8.44771525 11.4477153,8 12,8 C12.5522847,8 13,8.44771525 13,9 Z"/>
</svg>
