<?xml version="1.0" encoding="UTF-8"?>
<svg width="24px" height="24px" viewBox="0 0 24 24" version="1.1" xmlns="http://www.w3.org/2000/svg" xmlns:xlink="http://www.w3.org/1999/xlink">
    <!-- Generator: Sketch 55.2 (78181) - https://sketchapp.com -->
    <title>jollycons-beauty/jollycons-beauty/svg/icon-beauty-comb</title>
    <desc>Created with Sketch.</desc>
    <g id="icons" stroke="none" stroke-width="1" fill="none" fill-rule="evenodd">
        <g id="icons---export" transform="translate(-188.000000, -218.000000)">
            <g id="row-3" transform="translate(60.000000, 218.000000)" fill="#000000" fill-rule="nonzero">
                <g id="icon---13" transform="translate(128.000000, 0.000000)">
                    <path d="M6.98253376,19.4246215 L9.09382053,21.5459419 C9.48249769,21.9364662 9.48249769,22.5696312 9.09382053,22.9601555 C8.70514337,23.3506798 8.07497318,23.3506798 7.68629602,22.9601555 L5.57500925,20.8388351 C5.18633209,21.2293594 4.5561619,21.2293594 4.16748474,20.8388351 L2.75996023,19.4246215 C0.427897258,17.0814757 0.427897258,13.2824858 2.75996023,10.93934 L9.79758278,3.86827205 C12.1296458,1.52512626 15.9106669,1.52512626 18.2427299,3.86827205 L19.6502544,5.28248564 C20.0389315,5.67300993 20.0389315,6.30617492 19.6502544,6.69669922 L21.7615411,8.8180196 C22.1502183,9.2085439 22.1502183,9.84170889 21.7615411,10.2322332 C21.372864,10.6227575 20.7426938,10.6227575 20.3540166,10.2322332 L18.2427299,8.1109127 L17.5389676,8.8180196 L19.6502544,10.93934 C20.0389315,11.3298643 20.0389315,11.9630293 19.6502544,12.3535536 C19.2615772,12.7440779 18.631407,12.7440779 18.2427299,12.3535536 L16.1314431,10.2322332 L15.4276808,10.93934 L17.5389676,13.0606604 C17.9276448,13.4511847 17.9276448,14.0843497 17.5389676,14.474874 C17.1502904,14.8653983 16.5201202,14.8653983 16.1314431,14.474874 L14.0201563,12.3535536 L13.3163941,13.0606604 L15.4276808,15.1819807 C15.816358,15.572505 15.816358,16.20567 15.4276808,16.5961943 C15.0390037,16.9867186 14.4088335,16.9867186 14.0201563,16.5961943 L11.9088695,14.474874 L11.2051073,15.1819807 L13.3163941,17.3033011 C13.7050712,17.6938254 13.7050712,18.3269904 13.3163941,18.7175147 C12.9277169,19.108039 12.2975467,19.108039 11.9088695,18.7175147 L9.79758278,16.5961943 L9.09382053,17.3033011 L11.2051073,19.4246215 C11.5937845,19.8151458 11.5937845,20.4483108 11.2051073,20.8388351 C10.8164301,21.2293594 10.1862599,21.2293594 9.79758278,20.8388351 L7.68629602,18.7175147 L6.98253376,19.4246215 Z M17.5389676,5.98959243 L16.8352053,5.28248564 C15.2804967,3.72038844 12.7598159,3.72038844 11.2051073,5.28248564 L4.16748474,12.3535536 C2.61277609,13.9156508 2.61277609,16.4483107 4.16748474,18.0104079 L4.87124699,18.7175147 L17.5389676,5.98959243 Z" id="comb"></path>
                </g>
            </g>
            <g id="slices" transform="translate(60.000000, 58.000000)"></g>
        </g>
    </g>
</svg>