<?xml version="1.0" encoding="UTF-8"?>
<svg width="24px" height="24px" viewBox="0 0 24 24" version="1.1" xmlns="http://www.w3.org/2000/svg" xmlns:xlink="http://www.w3.org/1999/xlink">
    <!-- Generator: Sketch 55.2 (78181) - https://sketchapp.com -->
    <title>jollycons-beauty/jollycons-beauty/svg/icon-beauty-fragrance</title>
    <desc>Created with Sketch.</desc>
    <g id="icons" stroke="none" stroke-width="1" fill="none" fill-rule="evenodd">
        <g id="icons---export" transform="translate(-124.000000, -218.000000)">
            <g id="row-3" transform="translate(60.000000, 218.000000)" fill="#000000" fill-rule="nonzero">
                <g id="icon---12" transform="translate(64.000000, 0.000000)">
                    <path d="M11,2 C11,1.44771525 11.4477153,1 12,1 L15,1 C15.5522847,1 16,1.44771525 16,2 L16,6 C16.5522847,6 17,6.44771525 17,7 L17,9.20807299 C17.1250728,9.27006433 17.24405,9.34534899 17.3547464,9.43317075 C19.7491075,11.3327533 21,13.3175613 21,15.4 C21,17.2860598 20.2567454,19.4788427 18.7977948,22.0013225 C18.4403319,22.6193804 17.7804955,23 17.0665105,23 L9.93354878,23 C9.21954892,23 8.55969425,22.619409 8.2022178,22.0013442 C6.74325692,19.4788497 6,17.2860628 6,15.4 C6,13.3175747 7.25087666,11.3327786 9.64518811,9.43322271 C9.75590307,9.34538124 9.87490257,9.27007532 10,9.20806683 L10,7 C10,6.44771525 10.4477153,6 11,6 L11,4 L7,4 C5.34314575,4 4,5.34314575 4,7 L4,7.21519903 C5.21289145,7.7633134 6,9.29013002 6,11 C6,13.1438884 4.76259229,15 3,15 C1.23740771,15 0,13.1438884 0,11 C0,9.29013002 0.78710855,7.7633134 2,7.21519903 L2,7 C2,4.23857625 4.23857625,2 7,2 L11,2 Z M12,8 L12,9 L15,9 L15,8 L12,8 Z M10.9941878,10.9999835 L10.8882455,10.9999835 C8.92694094,12.5560301 8,14.0268296 8,15.4 C8,16.8811643 8.63531435,18.7554946 9.933496,21.0000072 L17.0665105,21.0000072 C18.3646878,18.7554883 19,16.8811618 19,15.4 C19,14.0268231 18.07305,12.5560159 16.1117268,10.9999835 L16.0058122,10.9999835 L16,10.9999835 L11,10.9999835 C10.9980613,10.9999835 10.9961239,10.9999835 10.9941878,10.9999835 L10.9941878,10.9999835 Z M3,13 C3.44654671,13 4,12.1698201 4,11 C4,9.83017993 3.44654671,9 3,9 C2.55345329,9 2,9.83017993 2,11 C2,12.1698201 2.55345329,13 3,13 Z M13,3 L13,6 L14,6 L14,3 L13,3 Z M19.5126164,3.24091675 C19.009563,3.46885464 18.4169774,3.24582941 18.1890395,2.74277597 C17.9611016,2.23972253 18.1841269,1.64713697 18.6871803,1.41919909 L21.6225862,0.0891411676 C22.1256397,-0.138796716 22.7182252,0.0842285093 22.9461631,0.587281952 C23.174101,1.09033539 22.9510758,1.68292095 22.4480223,1.91085883 L19.5126164,3.24091675 Z M19.4845568,4.9198812 L22.4254409,6.14541065 C22.9352323,6.35785166 23.1762824,6.9433367 22.9638414,7.45312809 C22.7514004,7.96291949 22.1659153,8.2039696 21.6561239,7.99152859 L18.7152399,6.76599914 C18.2054485,6.55355813 17.9643984,5.96807309 18.1768394,5.45828169 C18.3892804,4.9484903 18.9747654,4.70744019 19.4845568,4.9198812 Z" id="fragrance"></path>
                </g>
            </g>
            <g id="slices" transform="translate(60.000000, 58.000000)"></g>
        </g>
    </g>
</svg>