<?xml version="1.0" encoding="UTF-8"?>
<svg width="24px" height="24px" viewBox="0 0 24 24" version="1.1" xmlns="http://www.w3.org/2000/svg" xmlns:xlink="http://www.w3.org/1999/xlink">
    <!-- Generator: Sketch 55.2 (78181) - https://sketchapp.com -->
    <title>jollycons-beauty/jollycons-beauty/svg/icon-beauty-hair-dryer</title>
    <desc>Created with Sketch.</desc>
    <g id="icons" stroke="none" stroke-width="1" fill="none" fill-rule="evenodd">
        <g id="icons---export" transform="translate(-252.000000, -58.000000)">
            <g id="row-1" transform="translate(60.000000, 58.000000)" fill="#000000" fill-rule="nonzero">
                <g id="icon---4" transform="translate(192.000000, 0.000000)">
                    <path d="M10.5128786,15.3660121 L10.9647246,20.8129638 C10.9672804,20.8549094 10.9672804,20.8549094 10.9686604,20.8969101 C10.9971981,22.0011109 10.125201,22.9193769 9.02100017,22.9479146 L6.61876412,23.0099998 C5.6555154,23.0348946 4.8114527,22.3694163 4.61089425,21.4269493 L3.28585918,15.1336915 C1.32395295,14.0223532 6.92779167e-14,11.9157895 6.92779167e-14,9.5 C6.92779167e-14,9.12961354 0.0318037678,8.75991106 0.095060857,8.39496632 C0.705354107,4.87404372 4.05436626,2.51451243 7.57528886,3.12480568 L15.3415734,4.47096168 C16.3000624,4.63709976 17,5.46879673 17,6.44157772 L17,12.5584223 C17,13.5312033 16.3000624,14.3629002 15.3415734,14.5290383 L10.5128786,15.3660121 Z M7.57528886,15.8751943 C7.21034411,15.9384514 6.84064163,15.9702552 6.47025517,15.9702552 C6.13808401,15.9702552 5.81175915,15.9452242 5.49306393,15.8969455 L6.56709194,21.0106674 L8.96932798,20.9485823 L8.53160546,15.7094328 L7.57528886,15.8751943 Z M15,6.44157772 L7.23371541,5.09542172 C4.801134,4.67377428 2.48732434,6.30395835 2.0656769,8.73653977 C2.02197301,8.9886776 2,9.24410252 2,9.5 C2,11.9688538 4.00140141,13.9702552 6.47025517,13.9702552 C6.72615265,13.9702552 6.98157757,13.9482822 7.23371541,13.9045783 L15,12.5584223 L15,6.44157772 Z M19.164399,12.0136061 L22.164399,12.5136061 C22.7091693,12.6044011 23.077189,13.1196287 22.9863939,13.664399 C22.8955989,14.2091693 22.3803713,14.577189 21.835601,14.4863939 L18.835601,13.9863939 C18.2908307,13.8955989 17.922811,13.3803713 18.0136061,12.835601 C18.1044011,12.2908307 18.6196287,11.922811 19.164399,12.0136061 Z M22,9 C22.5522847,9 23,9.44771525 23,10 C23,10.5522847 22.5522847,11 22,11 L19,11 C18.4477153,11 18,10.5522847 18,10 C18,9.44771525 18.4477153,9 19,9 L22,9 Z M18.835601,6.01360608 L21.835601,5.51360608 C22.3803713,5.42281102 22.8955989,5.79083069 22.9863939,6.33560101 C23.077189,6.88037133 22.7091693,7.39559887 22.164399,7.48639392 L19.164399,7.98639392 C18.6196287,8.07718898 18.1044011,7.70916931 18.0136061,7.16439899 C17.922811,6.61962867 18.2908307,6.10440113 18.835601,6.01360608 Z M5.5,12 C4.11928813,12 3,10.8807119 3,9.5 C3,8.11928813 4.11928813,7 5.5,7 C6.88071187,7 8,8.11928813 8,9.5 C8,10.8807119 6.88071187,12 5.5,12 Z M5.5,10.001 C5.77614237,10.001 6,9.77691852 6,9.5005 C6,9.22408148 5.77614237,9 5.5,9 C5.22385763,9 5,9.22408148 5,9.5005 C5,9.77691852 5.22385763,10.001 5.5,10.001 Z" id="hair-dryer"></path>
                </g>
            </g>
            <g id="slices" transform="translate(60.000000, 58.000000)"></g>
        </g>
    </g>
</svg>