<?xml version="1.0" encoding="UTF-8"?>
<svg width="24px" height="24px" viewBox="0 0 24 24" version="1.1" xmlns="http://www.w3.org/2000/svg" xmlns:xlink="http://www.w3.org/1999/xlink">
    <!-- Generator: Sketch 55.2 (78181) - https://sketchapp.com -->
    <title>jollycons-beauty/jollycons-beauty/svg/icon-beauty-handheld-mirror</title>
    <desc>Created with Sketch.</desc>
    <g id="icons" stroke="none" stroke-width="1" fill="none" fill-rule="evenodd">
        <g id="icons---export" transform="translate(-60.000000, -138.000000)">
            <g id="row-2" transform="translate(60.000000, 138.000000)" fill="#000000" fill-rule="nonzero">
                <g id="icon---6">
                    <path d="M14.0428508,16.5013816 L14.6541078,20.2973192 C14.9346181,22.0393024 13.7498602,23.6788574 12.0078769,23.9593676 C11.8399258,23.9864127 11.6700829,24 11.4999682,24 C9.73554428,24 8.30519611,22.5696518 8.30519611,20.805228 C8.30519611,20.6351133 8.31878344,20.4652703 8.34582848,20.2973192 L8.95708941,16.5013573 C6.05184593,15.3184807 4,12.1655438 4,8.5 C4,3.83484558 7.32353284,0 11.5,0 C15.6764672,0 19,3.83484558 19,8.5 C19,12.1655689 16.9481259,15.3185239 14.0428508,16.5013816 L14.0428508,16.5013816 Z M10.9067444,16.9740011 L10.3203917,20.6152816 C10.3102775,20.6780915 10.3051961,20.7416089 10.3051961,20.805228 C10.3051961,21.4650823 10.8401138,22 11.4999682,22 C11.5635872,22 11.6271046,21.9949186 11.6899145,21.9848044 C12.3413766,21.8799 12.7844491,21.2667437 12.6795446,20.6152816 L12.0931928,16.9740011 C11.8975936,16.9912259 11.6997726,17 11.5,17 C11.3002061,17 11.102364,16.991224 10.9067444,16.9740011 L10.9067444,16.9740011 Z M11.5,15 C14.5032346,15 17,12.1191168 17,8.5 C17,4.88088317 14.5032346,2 11.5,2 C8.49676541,2 6,4.88088317 6,8.5 C6,12.1191168 8.49676541,15 11.5,15 Z M10.0783806,10.4448991 C9.7366718,10.7866078 9.18265244,10.7866078 8.84094368,10.4448991 C8.49923493,10.1031903 8.49923493,9.54917094 8.84094368,9.20746219 L13.0440803,5.00432554 C13.3857891,4.66261679 13.9398084,4.66261679 14.2815172,5.00432554 C14.623226,5.3460343 14.623226,5.90005366 14.2815172,6.24176241 L10.0783806,10.4448991 Z M9.50418539,7.01909421 C9.16247664,7.36080297 8.60845728,7.36080297 8.26674853,7.01909421 C7.92503977,6.67738546 7.92503977,6.1233661 8.26674853,5.78165735 L10.6128235,3.43558233 C10.9545323,3.09387357 11.5085517,3.09387357 11.8502604,3.43558233 C12.1919692,3.77729108 12.1919692,4.33131044 11.8502604,4.6730192 L9.50418539,7.01909421 Z" id="handheld-mirror"></path>
                </g>
            </g>
            <g id="slices" transform="translate(60.000000, 58.000000)"></g>
        </g>
    </g>
</svg>