<?xml version="1.0" encoding="UTF-8"?>
<svg width="24px" height="24px" viewBox="0 0 24 24" version="1.1" xmlns="http://www.w3.org/2000/svg" xmlns:xlink="http://www.w3.org/1999/xlink">
    <!-- Generator: Sketch 55.2 (78181) - https://sketchapp.com -->
    <title>jollycons-beauty/jollycons-beauty/svg/icon-beauty-soap-dispenser</title>
    <desc>Created with Sketch.</desc>
    <g id="icons" stroke="none" stroke-width="1" fill="none" fill-rule="evenodd">
        <g id="icons---export" transform="translate(-60.000000, -218.000000)">
            <g id="row-3" transform="translate(60.000000, 218.000000)" fill="#000000" fill-rule="nonzero">
                <g id="icon---11">
                    <path d="M14,3 L14,6 L15,6 C15.5522847,6 16,6.44771525 16,7 L16,9.04158039 C17.1607532,9.23683572 18.1200098,10.1026359 18.4120006,11.2749292 C18.8037789,12.847852 19,14.4234405 19,16 C19,17.5765593 18.803779,19.1521476 18.4120024,20.7250636 C18.0790612,22.0618051 16.8785229,23 15.5009419,23 L7.49900889,23 C6.12145306,23 4.92094323,22.0617836 4.58799936,20.7250708 C4.1962211,19.152148 4,17.5765595 4,16 C4,14.4234407 4.19622105,12.8478524 4.58799756,11.2749364 C4.87998273,10.1026314 5.83924232,9.23685102 7,9.04158625 L7,7 C7,6.44771525 7.44771525,6 8,6 L9,6 L9,2 C9,1.44771525 9.44771525,1 10,1 L17,1 C18.6568542,1 20,2.34314575 20,4 C20,4.55228475 19.5522847,5 19,5 C18.4477153,5 18,4.55228475 18,4 C18,3.44771525 17.5522847,3 17,3 L14,3 Z M14,8 L9,8 L9,9 L14,9 L14,8 Z M15.500965,11 L7.49905813,11 C7.03986404,11 6.63968642,11.3127302 6.52870516,11.7583141 C6.17601374,13.1743101 6,14.5876406 6,16 C6,17.4123596 6.17601379,18.8256902 6.52870529,20.2416864 C6.63968621,20.6872559 7.03986301,21 7.499035,21 L15.5009419,21 C15.960136,21 16.3603136,20.6872698 16.4712948,20.2416859 C16.8239863,18.8256899 17,17.4123594 17,16 C17,14.5876404 16.8239862,13.1743098 16.4712947,11.7583136 C16.3603138,11.3127441 15.960137,11 15.500965,11 Z M11,3 L11,6 L12,6 L12,3 L11,3 Z" id="soap-dispenser"></path>
                </g>
            </g>
            <g id="slices" transform="translate(60.000000, 58.000000)"></g>
        </g>
    </g>
</svg>