<svg xmlns="http://www.w3.org/2000/svg" width="24" height="24" viewBox="0 0 24 24">
  <path fill="#000000" d="M3.6705394,3.34481653 C4.03238724,2.30119786 5.17174296,1.74851341 6.21536163,2.11036125 C6.30685631,2.14208467 6.39965433,2.1729776 6.49375497,2.20303715 C7.86171022,1.47264195 10.0428658,1 12.5,1 C15.013776,1 17.238703,1.49468376 18.5995443,2.25395657 C18.7499905,2.20815593 18.8972115,2.16028706 19.0412044,2.11036125 C20.084823,1.74851341 21.2241787,2.30119786 21.5860266,3.34481653 C21.9388367,4.36236921 21.4222278,5.47093631 20.4288439,5.86108415 C20.7661649,6.66089418 20.9442166,7.69558982 21.1035112,9.21710694 C21.1210197,9.38537392 21.1210197,9.38537392 21.1381664,9.55198433 C21.2584129,10.7195233 21.3286793,11.2343694 21.4596652,11.7579353 C22.0946638,14.2961008 22.2560784,16.553207 21.5199696,17.9233124 C20.1351861,20.5007837 15.9042189,22.9993425 12.4975276,22.9993425 C9.13090117,22.9993425 4.85417135,20.5313693 3.45893945,18.0157688 C2.71064672,16.6665985 2.84922711,14.7688337 3.4593346,11.7993784 C3.55349038,11.3411126 3.61521195,10.8863057 3.72169568,9.94539645 C3.77585056,9.46687427 3.77996174,9.43085761 3.80249185,9.24185611 C3.98710587,7.69315861 4.20742562,6.60188333 4.60426687,5.75711976 C3.75907209,5.29864022 3.34523458,4.28304012 3.6705394,3.34481653 Z M5.32651273,12.663232 C4.90951809,14.8281171 4.82600144,16.3570843 5.20793948,17.0457179 C6.24731288,18.9197061 9.85109711,20.9993425 12.4975276,20.9993425 C15.171941,20.9993425 18.7239065,18.901762 19.7581477,16.9767483 C20.1343161,16.2765932 20.0520473,14.6147306 19.6431404,12.7677234 C18.9752242,14.124681 17.5886368,15 16.0548493,15 L15.6664329,15 C14.1606551,15 12.8551006,13.9584401 12.5206039,12.4902853 L12.5096118,12.4420396 L12.4986197,12.4902853 C12.164123,13.9584401 10.8585685,15 9.35279071,15 L8.9643743,15 C7.39156734,15 5.97354524,14.0795783 5.32651273,12.663232 Z M10.3048006,16.4523956 C10.832361,15.9837152 11.5623302,15.7786929 12.4689568,15.7786929 C13.3755835,15.7786929 14.1055526,15.9837152 14.6331131,16.4523956 C15.0459977,16.819199 15.083354,17.451261 14.7165506,17.8641457 C14.3497472,18.2770303 13.7176852,18.3143866 13.3048006,17.9475832 C13.2000627,17.854535 12.9300319,17.7786929 12.4689568,17.7786929 C12.0078818,17.7786929 11.7378509,17.854535 11.6331131,17.9475832 C11.2202284,18.3143866 10.5881664,18.2770303 10.221363,17.8641457 C9.85455965,17.451261 9.89191592,16.819199 10.3048006,16.4523956 Z M6.55021289,6.3666099 C6.25202714,6.87019182 6.04878249,7.62498735 5.88210578,8.76648064 C8.5197463,9.2129526 10.5570985,9.43559558 11.9844101,9.43559558 C13.5754954,9.43559558 15.9246486,9.15892796 19.0183603,8.60394982 C18.8802835,7.55799219 18.7167275,6.88275238 18.4704459,6.42122084 C16.7444076,6.80938718 14.7976016,7 12.628283,7 C12.6033928,7 12.578532,6.99997491 12.5537004,6.99992471 C12.5358151,6.99997488 12.5179149,7 12.5,7 C12.3874352,7 12.2754496,6.99900807 12.1640948,6.99704488 C10.0823772,6.97032972 8.21162063,6.7623223 6.55021289,6.3666099 Z M9,13 C9.55228475,13 10,12.5522847 10,12 C10,11.4477153 9.55228475,11 9,11 C8.44771525,11 8,11.4477153 8,12 C8,12.5522847 8.44771525,13 9,13 Z M16,13 C16.5522847,13 17,12.5522847 17,12 C17,11.4477153 16.5522847,11 16,11 C15.4477153,11 15,11.4477153 15,12 C15,12.5522847 15.4477153,13 16,13 Z"/>
</svg>
