<svg xmlns="http://www.w3.org/2000/svg" width="24" height="24" viewBox="0 0 24 24">
  <path fill="#000000" d="M6,1 L19,1 C20.6568542,1 22,2.34314575 22,4 L22,20 C22,21.6568542 20.6568542,23 19,23 L6,23 C4.34314575,23 3,21.6568542 3,20 L3,4 C3,2.34314575 4.34314575,1 6,1 Z M6,3 C5.44771525,3 5,3.44771525 5,4 L5,20 C5,20.5522847 5.44771525,21 6,21 L19,21 C19.5522847,21 20,20.5522847 20,20 L20,4 C20,3.44771525 19.5522847,3 19,3 L6,3 Z M8,6 L14,6 C14.5522847,6 15,6.44771525 15,7 C15,7.55228475 14.5522847,8 14,8 L8,8 C7.44771525,8 7,7.55228475 7,7 C7,6.44771525 7.44771525,6 8,6 Z M8,9 L16,9 C16.5522847,9 17,9.44771525 17,10 C17,10.5522847 16.5522847,11 16,11 L8,11 C7.44771525,11 7,10.5522847 7,10 C7,9.44771525 7.44771525,9 8,9 Z M19,16 L19,18 C19,18.5522847 18.5522847,19 18,19 C17.4477153,19 17,18.5522847 17,18 L17,17 L16,17 C16,17.5522847 15.5522847,18 15,18 C14.4477153,18 14,17.5522847 14,17 L12,17 C11.9434818,17 11.8880587,16.9953113 11.8340984,16.9863016 C11.4261546,18.158644 10.3113319,19 9,19 C7.34314575,19 6,17.6568542 6,16 C6,14.3431458 7.34314575,13 9,13 C10.3113319,13 11.4261546,13.841356 11.8340984,15.0136984 C11.8880587,15.0046887 11.9434818,15 12,15 L18,15 C18.5522847,15 19,15.4477153 19,16 Z M9,17 C9.55228475,17 10,16.5522847 10,16 C10,15.4477153 9.55228475,15 9,15 C8.44771525,15 8,15.4477153 8,16 C8,16.5522847 8.44771525,17 9,17 Z"/>
</svg>
