<svg xmlns="http://www.w3.org/2000/svg" width="24" height="24" viewBox="0 0 24 24">
  <path fill-rule="evenodd" d="M12.238,18 L12.447,17.895 C12.941,17.648 13.141,17.047 12.894,16.553 C12.647,16.059 12.047,15.859 11.552,16.106 L11.341,16.212 C11.07,15.776 10.779,15.355 10.451,14.963 L10.707,14.707 C11.097,14.317 11.097,13.684 10.707,13.293 C10.316,12.903 9.683,12.903 9.293,13.293 L9.037,13.549 C8.645,13.221 8.224,12.93 7.789,12.659 L7.894,12.448 C8.141,11.954 7.941,11.353 7.447,11.106 C6.953,10.859 6.352,11.059 6.105,11.553 L6.001,11.762 C5.071,11.399 4.083,11.153 3.05,11.055 C3.49,6.841 6.838,3.493 11.05,3.051 C11.149,4.084 11.388,5.076 11.752,6.006 L11.552,6.106 C11.058,6.353 10.858,6.954 11.105,7.448 C11.352,7.942 11.953,8.142 12.447,7.895 L12.648,7.795 C12.919,8.231 13.218,8.647 13.547,9.039 L13.293,9.293 C12.902,9.684 12.902,10.317 13.293,10.708 C13.683,11.098 14.316,11.098 14.707,10.708 L14.961,10.454 C15.353,10.781 15.769,11.082 16.206,11.352 L16.105,11.553 C15.858,12.047 16.058,12.648 16.552,12.895 C17.047,13.142 17.647,12.942 17.894,12.448 L17.994,12.248 C18.924,12.612 19.916,12.851 20.949,12.95 C20.507,17.163 17.159,20.51 12.945,20.95 C12.847,19.917 12.601,18.929 12.238,18 Z M5.103,13.561 C4.862,14.054 5.061,14.649 5.552,14.895 C6.045,15.141 6.642,14.942 6.89,14.452 C7.14,14.614 7.382,14.787 7.613,14.972 L7.293,15.293 C6.902,15.684 6.902,16.317 7.293,16.707 C7.683,17.098 8.316,17.098 8.707,16.707 L9.027,16.387 C9.213,16.618 9.386,16.86 9.549,17.11 C9.058,17.358 8.859,17.955 9.105,18.448 C9.351,18.939 9.947,19.138 10.439,18.897 C10.677,19.545 10.848,20.224 10.932,20.931 C6.816,20.444 3.556,17.184 3.069,13.068 C3.776,13.152 4.456,13.323 5.103,13.561 Z M18.893,10.45 C19.141,9.954 18.941,9.353 18.447,9.106 C17.953,8.859 17.352,9.059 17.105,9.553 C16.855,9.392 16.614,9.218 16.383,9.033 L16.707,8.708 C17.097,8.317 17.097,7.684 16.707,7.293 C16.316,6.903 15.683,6.903 15.293,7.293 L14.967,7.618 C14.783,7.387 14.608,7.145 14.446,6.895 C14.941,6.648 15.141,6.047 14.894,5.553 C14.647,5.059 14.047,4.859 13.552,5.106 C13.312,4.46 13.154,3.777 13.07,3.07 C17.183,3.558 20.442,6.817 20.93,10.93 C20.223,10.846 19.54,10.688 18.893,10.45 Z M1,12 C1,18.075 5.924,23 12,23 C18.075,23 23,18.075 23,12 C23,5.925 18.075,1 12,1 C5.924,1 1,5.925 1,12 Z"/>
</svg>
