<svg xmlns="http://www.w3.org/2000/svg" width="24" height="24" viewBox="0 0 24 24">
  <path d="M9.93261744,6.8112971 C15.2350496,2.19355569 19.6571933,0.979523739 21.5983796,2.92071004 C23.5892734,4.91160388 22.3578438,9.93642086 17.7077925,14.5864722 C14.4579404,17.8363242 10.2547501,21.1756062 6.51243507,23.1901046 L4.62781682,19.8912728 L1.32898502,18.0066545 C2.97483952,14.3090763 6.31412151,10.105886 9.93261744,6.8112971 Z M5.20749312,17.8855606 L6.02546913,17.0675846 C6.41599342,16.6770603 7.0491584,16.6770603 7.4396827,17.0675846 C7.83020699,17.4581089 7.83020699,18.0912739 7.4396827,18.4817981 L6.62526118,19.2962197 L7.26591037,20.3809975 C10.2136097,18.645117 13.6940789,15.7717587 16.293579,13.1722586 C16.5663425,12.899495 16.8269371,12.6238595 17.0750046,12.3463648 L9.26502446,10.2536869 C7.12909994,12.4792836 5.17362313,15.0017753 4.02615964,17.1878875 L5.20749312,17.8855606 Z M11.6813474,7.95259325 C11.54548,8.06593319 11.409075,8.1816531 11.2721824,8.29973785 C11.1538114,8.40701642 11.0354027,8.51573558 10.9170556,8.62579498 L18.4299866,10.6388788 C18.6036655,10.3895361 18.7668982,10.1403513 18.9194343,9.89203277 L11.6813474,7.95259325 Z M13.6908331,6.42048096 L19.8529987,8.07162826 C19.9949282,7.72435336 20.1130956,7.38258612 20.2067392,7.04848214 C20.6142394,5.59459293 20.4789938,4.62975138 20.1851594,4.335917 C19.9131786,4.06393617 19.1253456,3.9523962 17.7624948,4.34882273 C16.5602722,4.69852568 15.1777788,5.39677056 13.6908331,6.42048096 Z"/>
</svg>
