<?xml version="1.0" encoding="UTF-8"?>
<svg width="24px" height="24px" viewBox="0 0 24 24" version="1.1" xmlns="http://www.w3.org/2000/svg" xmlns:xlink="http://www.w3.org/1999/xlink">
    <!-- Generator: Sketch 52.3 (67297) - http://www.bohemiancoding.com/sketch -->
    <title>jollycons-[category]/icons/svg/icon-ecommerce-coin</title>
    <desc>Created with Sketch.</desc>
    <g id="icons" stroke="none" stroke-width="1" fill="none" fill-rule="evenodd">
        <g id="icons---ecommerce---export" transform="translate(-124.000000, -218.000000)">
            <g id="row-3" transform="translate(60.000000, 218.000000)" fill="#000000" fill-rule="nonzero">
                <g id="icon---12" transform="translate(64.000000, 0.000000)">
                    <path d="M12,22 C6.4771525,22 2,17.5228475 2,12 C2,6.4771525 6.4771525,2 12,2 C17.5228475,2 22,6.4771525 22,12 C22,17.5228475 17.5228475,22 12,22 Z M12,20 C16.418278,20 20,16.418278 20,12 C20,7.581722 16.418278,4 12,4 C7.581722,4 4,7.581722 4,12 C4,16.418278 7.581722,20 12,20 Z M11,16.200891 C10.5986487,16.0767119 10.2032219,15.8828739 9.83549451,15.6176244 C9.38757723,15.2945322 9.28638648,14.6695056 9.60947864,14.2215883 C9.93257081,13.773671 10.5575975,13.6724802 11.0055148,13.9955724 C11.9056515,14.64486 12.7954479,14.4185545 12.7954479,13.7006125 C12.7954479,13.5374638 12.6256798,13.4104876 11.7475619,13.0711984 L11.7254461,13.0626538 C10.094341,12.4324598 9.42050463,11.9335359 9.42050463,10.6060673 C9.42050463,9.39014647 10.0899106,8.61593103 11,8.26802262 L11,7.5 C11,7.22385763 11.2238576,7 11.5,7 L12.5,7 C12.7761424,7 13,7.22385763 13,7.5 L13,8.13319106 C13.4641293,8.22679196 13.9196687,8.40313106 14.3286061,8.66084309 C14.7958476,8.95529824 14.9359186,9.57277537 14.6414635,10.0400169 C14.3470083,10.5072583 13.7295312,10.6473293 13.2622897,10.3528742 C12.4470017,9.83908043 11.4205046,10.0462287 11.4205046,10.6060673 C11.4205046,10.7429982 11.5836234,10.8637751 12.446239,11.1970554 L12.4683906,11.2056138 C14.1077122,11.8390185 14.7954479,12.3534029 14.7954479,13.7006125 C14.7954479,15.0658308 14.0261301,15.9247914 13,16.2362409 L13,16.5 C13,16.7761424 12.7761424,17 12.5,17 L11.5,17 C11.2238576,17 11,16.7761424 11,16.5 L11,16.200891 Z" id="coin"></path>
                </g>
            </g>
            <g id="slices" transform="translate(60.000000, 58.000000)"></g>
        </g>
    </g>
</svg>