<?xml version="1.0" encoding="UTF-8"?>
<svg width="24px" height="24px" viewBox="0 0 24 24" version="1.1" xmlns="http://www.w3.org/2000/svg" xmlns:xlink="http://www.w3.org/1999/xlink">
    <!-- Generator: Sketch 52.3 (67297) - http://www.bohemiancoding.com/sketch -->
    <title>jollycons-[category]/icons/svg/icon-ecommerce-paper-money</title>
    <desc>Created with Sketch.</desc>
    <g id="icons" stroke="none" stroke-width="1" fill="none" fill-rule="evenodd">
        <g id="icons---ecommerce---export" transform="translate(-316.000000, -58.000000)">
            <g id="row-1" transform="translate(60.000000, 58.000000)" fill="#000000" fill-rule="nonzero">
                <g id="icon---5" transform="translate(256.000000, 0.000000)">
                    <path d="M4,7 L4,6 C4,4.8954305 4.8954305,4 6,4 L20,4 C21.1045695,4 22,4.8954305 22,6 L22,14 C22,15.1045695 21.1045695,16 20,16 L19,16 L19,18 C19,19.1045695 18.1045695,20 17,20 L3,20 C1.8954305,20 1,19.1045695 1,18 L1,9 C1,7.8954305 1.8954305,7 3,7 L4,7 Z M19,14 L20,14 L20,6 L6,6 L6,7 L17,7 C18.1045695,7 19,7.8954305 19,9 L19,14 Z M3,9 L3,18 L17,18 L17,9 L3,9 Z M8.30887611,16.41294 C7.97555145,16.1725059 7.90024877,15.7073825 8.14068286,15.3740579 C8.38111696,15.0407332 8.84624032,14.9654306 9.17956498,15.2058646 C9.84941584,15.6890422 10.5115717,15.5206334 10.5115717,14.9863656 C10.5115717,14.8649559 10.3852361,14.7704646 9.73177099,14.5179773 L9.71531314,14.5116187 C8.50150074,14.0426499 8.0000549,13.6713679 8.0000549,12.6835114 C8.0000549,11.7786649 8.49820378,11.2025204 9.17546108,10.9436189 L9.17546108,10.5 C9.17546108,10.2238576 9.39931871,10 9.67546108,10 L10.1637924,10 C10.4399347,10 10.6637924,10.2238576 10.6637924,10.5 L10.6637924,10.8432819 C11.0091814,10.9129364 11.3481782,11.0441619 11.6524954,11.2359424 C12.0002005,11.4550658 12.1044365,11.914571 11.8853131,12.2622761 C11.6661897,12.6099812 11.2066844,12.7142172 10.8589793,12.4950938 C10.25227,12.1127461 9.48838619,12.2668988 9.48838619,12.6835114 C9.48838619,12.7854107 9.60977355,12.8752887 10.2517025,13.1233044 L10.2681869,13.1296733 C11.4881137,13.6010313 11.999903,13.9838185 11.999903,14.9863656 C11.999903,16.0023142 11.4274031,16.6415231 10.6637924,16.8732932 L10.6637924,16.9416564 C10.6637924,17.2177988 10.4399347,17.4416564 10.1637924,17.4416564 L9.67546108,17.4416564 C9.39931871,17.4416564 9.17546108,17.2177988 9.17546108,16.9416564 L9.17546108,16.8469869 C8.87678924,16.7545771 8.58252621,16.6103296 8.30887611,16.41294 Z" id="money-bill"></path>
                </g>
            </g>
            <g id="slices" transform="translate(60.000000, 58.000000)"></g>
        </g>
    </g>
</svg>