<?xml version="1.0" encoding="UTF-8"?>
<svg width="24px" height="24px" viewBox="0 0 24 24" version="1.1" xmlns="http://www.w3.org/2000/svg" xmlns:xlink="http://www.w3.org/1999/xlink">
    <!-- Generator: Sketch 52.3 (67297) - http://www.bohemiancoding.com/sketch -->
    <title>jollycons-[category]/icons/svg/icon-ecommerce-receipt</title>
    <desc>Created with Sketch.</desc>
    <g id="icons" stroke="none" stroke-width="1" fill="none" fill-rule="evenodd">
        <g id="icons---ecommerce---export" transform="translate(-252.000000, -138.000000)">
            <g id="row-2" transform="translate(60.000000, 138.000000)" fill="#000000" fill-rule="nonzero">
                <g id="icon---9" transform="translate(192.000000, 0.000000)">
                    <path d="M6,9 L4,9 C3.44771525,9 3,8.55228475 3,8 L3,4.5 C3,3.67157288 3.67157288,3 4.5,3 L6,3 L17.5,3 C18.8807119,3 20,4.11928813 20,5.5 L20,19.3454436 C20,19.9529568 19.5075132,20.4454436 18.9,20.4454436 C18.7445969,20.4454436 18.5909574,20.4125157 18.4492036,20.3488292 L16,19.2484624 L13.4507964,20.3937567 C13.1640697,20.522576 12.8359303,20.522576 12.5492036,20.3937567 L10,19.2484624 L7.55079641,20.3488292 C6.99664187,20.5977972 6.34558242,20.3503946 6.09661443,19.79624 C6.03292793,19.6544862 6,19.5008467 6,19.3454436 L6,9 Z M8,5 L8,17.9544362 L9.54920359,17.2584172 C9.83593029,17.1295979 10.1640697,17.1295979 10.4507964,17.2584172 L13,18.4037116 L15.5492036,17.2584172 C15.8359303,17.1295979 16.1640697,17.1295979 16.4507964,17.2584172 L18,17.9544362 L18,5.5 C18,5.22385763 17.7761424,5 17.5,5 L8,5 Z M11,8 L12,8 C12.5522847,8 13,8.44771525 13,9 C13,9.55228475 12.5522847,10 12,10 L11,10 C10.4477153,10 10,9.55228475 10,9 C10,8.44771525 10.4477153,8 11,8 Z M15,8 C15.5522847,8 16,8.44771525 16,9 C16,9.55228475 15.5522847,10 15,10 C14.4477153,10 14,9.55228475 14,9 C14,8.44771525 14.4477153,8 15,8 Z M11,11 L12,11 C12.5522847,11 13,11.4477153 13,12 C13,12.5522847 12.5522847,13 12,13 L11,13 C10.4477153,13 10,12.5522847 10,12 C10,11.4477153 10.4477153,11 11,11 Z M15,11 C15.5522847,11 16,11.4477153 16,12 C16,12.5522847 15.5522847,13 15,13 C14.4477153,13 14,12.5522847 14,12 C14,11.4477153 14.4477153,11 15,11 Z M5,5 L5,7 L6,7 L6,5 L5,5 Z" id="receipt"></path>
                </g>
            </g>
            <g id="slices" transform="translate(60.000000, 58.000000)"></g>
        </g>
    </g>
</svg>