<?xml version="1.0" encoding="UTF-8"?>
<svg width="24px" height="24px" viewBox="0 0 24 24" version="1.1" xmlns="http://www.w3.org/2000/svg" xmlns:xlink="http://www.w3.org/1999/xlink">
    <!-- Generator: Sketch 52.3 (67297) - http://www.bohemiancoding.com/sketch -->
    <title>jollycons-[category]/icons/svg/icon-ecommerce-trolley</title>
    <desc>Created with Sketch.</desc>
    <g id="icons" stroke="none" stroke-width="1" fill="none" fill-rule="evenodd">
        <g id="icons---ecommerce---export" transform="translate(-188.000000, -138.000000)">
            <g id="row-2" transform="translate(60.000000, 138.000000)" fill="#000000" fill-rule="nonzero">
                <g id="icon---8" transform="translate(128.000000, 0.000000)">
                    <path d="M8.8543822,13.5421047 L10.8543822,13.5421047 L10.8543822,5.54210466 L8.8543822,5.54210466 L8.8543822,7.54210466 L6.8543822,7.54210466 L6.8543822,5.54210466 L4.8543822,5.54210466 L4.8543822,13.5421047 L6.8543822,13.5421047 L6.8543822,11.5421047 L8.8543822,11.5421047 L8.8543822,13.5421047 Z M4.8543822,3.54210466 L10.8543822,3.54210466 C11.9589517,3.54210466 12.8543822,4.43753516 12.8543822,5.54210466 L12.8543822,13.5421047 C12.8543822,14.6466742 11.9589517,15.5421047 10.8543822,15.5421047 L4.8543822,15.5421047 C3.7498127,15.5421047 2.8543822,14.6466742 2.8543822,13.5421047 L2.8543822,5.54210466 C2.8543822,4.43753516 3.7498127,3.54210466 4.8543822,3.54210466 Z M15.8603054,14.7730548 C17.0254977,15.1848912 17.8603054,16.2961302 17.8603054,17.6023491 C17.8603054,19.2592033 16.5171596,20.6023491 14.8603054,20.6023491 C13.5540865,20.6023491 12.4428475,19.7675414 12.0310111,18.6023491 L8.82360103,18.6023491 C8.27131628,18.6023491 7.82360103,18.1546338 7.82360103,17.6023491 C7.82360103,17.0500643 8.27131628,16.6023491 8.82360103,16.6023491 L12.0310111,16.6023491 C12.332296,15.7499356 13.0078919,15.0743397 13.8603054,14.7730548 L13.8603054,7.55291041 C13.8599694,7.53797817 13.8599708,7.5230675 13.8603054,7.50818908 L13.8603054,1.53751531 C13.8603054,0.985230563 14.3080206,0.537515313 14.8603054,0.537515313 C15.4125901,0.537515313 15.8603054,0.985230563 15.8603054,1.53751531 L15.8603054,5.99707872 L16.7285149,5.61480598 C17.2339735,5.3922525 17.8241439,5.62159243 18.0466974,6.12705103 C18.2692508,6.63250963 18.0399109,7.22268002 17.5344523,7.44523349 L15.8603054,8.18236055 L15.8603054,14.7730548 Z M14.8603054,18.6023491 C15.4125901,18.6023491 15.8603054,18.1546338 15.8603054,17.6023491 C15.8603054,17.0500643 15.4125901,16.6023491 14.8603054,16.6023491 C14.3080206,16.6023491 13.8603054,17.0500643 13.8603054,17.6023491 C13.8603054,18.1546338 14.3080206,18.6023491 14.8603054,18.6023491 Z" id="trolley" transform="translate(10.493059, 10.569932) rotate(32.000000) translate(-10.493059, -10.569932) "></path>
                </g>
            </g>
            <g id="slices" transform="translate(60.000000, 58.000000)"></g>
        </g>
    </g>
</svg>