<?xml version="1.0" encoding="UTF-8"?>
<svg width="24px" height="24px" viewBox="0 0 24 24" version="1.1" xmlns="http://www.w3.org/2000/svg" xmlns:xlink="http://www.w3.org/1999/xlink">
    <!-- Generator: Sketch 55.2 (78181) - https://sketchapp.com -->
    <title>jollycons-files-2/icons/svg/icon-files-2-add</title>
    <desc>Created with Sketch.</desc>
    <g id="icons" stroke="none" stroke-width="1" fill="none" fill-rule="evenodd">
        <g id="icons---export" transform="translate(-252.000000, -218.000000)">
            <g id="row-3" transform="translate(60.000000, 218.000000)" fill="#000000" fill-rule="nonzero">
                <g id="icon---14" transform="translate(192.000000, 0.000000)">
                    <path d="M21,12.8026932 C22.7934041,13.8401214 24,15.7791529 24,18 C24,21.3137085 21.3137085,24 18,24 C16.2230004,24 14.6264281,23.2274987 13.527787,22 L5,22 C3.8954305,22 3,21.1045695 3,20 L3,3 C3,1.8954305 3.8954305,1 5,1 L15.5965861,1 C16.1296935,1 16.6407387,1.2128378 17.0162454,1.59125321 L20.4196593,5.02103078 C20.7913991,5.3956502 21,5.90201795 21,6.42977757 L21,12.8026932 L21,12.8026932 Z M19,12.0829584 L19,8 L16,8 C14.8954305,8 14,7.1045695 14,6 L14,3 L5,3 L5,20 L12.3414114,20 C12.1203084,19.3744421 12,18.7012708 12,18 C12,14.6862915 14.6862915,12 18,12 C18.3407122,12 18.6747915,12.0283988 19,12.0829584 Z M16,3.40653885 L16,6 L18.573526,6 L16,3.40653885 Z M18,22 C20.209139,22 22,20.209139 22,18 C22,15.790861 20.209139,14 18,14 C15.790861,14 14,15.790861 14,18 C14,20.209139 15.790861,22 18,22 Z M19,17 L20,17 C20.5522847,17 21,17.4477153 21,18 C21,18.5522847 20.5522847,19 20,19 L19,19 L19,20 C19,20.5522847 18.5522847,21 18,21 C17.4477153,21 17,20.5522847 17,20 L17,19 L16,19 C15.4477153,19 15,18.5522847 15,18 C15,17.4477153 15.4477153,17 16,17 L17,17 L17,16 C17,15.4477153 17.4477153,15 18,15 C18.5522847,15 19,15.4477153 19,16 L19,17 Z" id="file-add"></path>
                </g>
            </g>
            <g id="slices" transform="translate(60.000000, 58.000000)"></g>
        </g>
    </g>
</svg>