<?xml version="1.0" encoding="UTF-8"?>
<svg width="24px" height="24px" viewBox="0 0 24 24" version="1.1" xmlns="http://www.w3.org/2000/svg" xmlns:xlink="http://www.w3.org/1999/xlink">
    <!-- Generator: Sketch 55.2 (78181) - https://sketchapp.com -->
    <title>jollycons-files-2/icons/svg/icon-files-2-code-3</title>
    <desc>Created with Sketch.</desc>
    <g id="icons" stroke="none" stroke-width="1" fill="none" fill-rule="evenodd">
        <g id="icons---export" transform="translate(-316.000000, -138.000000)">
            <g id="row-2" transform="translate(60.000000, 138.000000)" fill="#000000" fill-rule="nonzero">
                <g id="icon---10" transform="translate(256.000000, 0.000000)">
                    <path d="M5,1 L15.5965861,1 C16.1296935,1 16.6407387,1.2128378 17.0162454,1.59125321 L20.4196593,5.02103078 C20.7913991,5.3956502 21,5.90201795 21,6.42977757 L21,20 C21,21.1045695 20.1045695,22 19,22 L5,22 C3.8954305,22 3,21.1045695 3,20 L3,3 C3,1.8954305 3.8954305,1 5,1 Z M14,3 L5,3 L5,20 L19,20 L19,8 L16,8 C14.8954305,8 14,7.1045695 14,6 L14,3 Z M16,3.40653885 L16,6 L18.573526,6 L16,3.40653885 Z M9.80849973,12.6073886 L8.41477763,14 L9.80849973,15.3926114 C10.1991797,15.78298 10.1994321,16.4161449 9.80906346,16.8068249 C9.41869487,17.1975048 8.78552994,17.1977572 8.39485001,16.8073886 L6.29317514,14.7073886 C5.90227495,14.3167999 5.90227495,13.6832001 6.29317514,13.2926114 L8.39485001,11.1926114 C8.78552994,10.8022428 9.41869487,10.8024952 9.80906346,11.1931751 C10.1994321,11.5838551 10.1991797,12.21702 9.80849973,12.6073886 Z M14.1931751,12.6073886 C13.8024952,12.21702 13.8022428,11.5838551 14.1926114,11.1931751 C14.58298,10.8024952 15.2161449,10.8022428 15.6068249,11.1926114 L17.7084997,13.2926114 C18.0993999,13.6832001 18.0993999,14.3167999 17.7084997,14.7073886 L15.6068249,16.8073886 C15.2161449,17.1977572 14.58298,17.1975048 14.1926114,16.8068249 C13.8022428,16.4161449 13.8024952,15.78298 14.1931751,15.3926114 L15.5868972,14 L14.1931751,12.6073886 Z M11.8002183,17.1318423 C11.6842577,17.4902749 11.3878914,17.69 11.042,17.69 C10.610223,17.69 10.232,17.369411 10.232,16.928 C10.232,16.8362727 10.2467943,16.7445483 10.2757817,16.6681577 L12.0921389,10.9630449 C12.2072171,10.6073487 12.502745,10.406 12.842,10.406 C13.2820517,10.406 13.66,10.7268995 13.66,11.176 C13.66,11.2513621 13.6559028,11.2711652 13.6205356,11.4126339 L13.6162183,11.4278423 L11.8002183,17.1318423 Z" id="file-code-3"></path>
                </g>
            </g>
            <g id="slices" transform="translate(60.000000, 58.000000)"></g>
        </g>
    </g>
</svg>