<?xml version="1.0" encoding="UTF-8"?>
<svg width="24px" height="24px" viewBox="0 0 24 24" version="1.1" xmlns="http://www.w3.org/2000/svg" xmlns:xlink="http://www.w3.org/1999/xlink">
    <!-- Generator: Sketch 55.2 (78181) - https://sketchapp.com -->
    <title>jollycons-files-1/icons/svg/icon-files-1-file-image</title>
    <desc>Created with Sketch.</desc>
    <g id="icons" stroke="none" stroke-width="1" fill="none" fill-rule="evenodd">
        <g id="icons---export" transform="translate(-252.000000, -218.000000)">
            <g id="row-3" transform="translate(60.000000, 218.000000)" fill="#000000" fill-rule="nonzero">
                <g id="icon---14" transform="translate(192.000000, 0.000000)">
                    <path d="M5,1 L15.5965861,1 C16.1296935,1 16.6407387,1.2128378 17.0162454,1.59125321 L20.4196593,5.02103078 C20.7913991,5.3956502 21,5.90201795 21,6.42977757 L21,20 C21,21.1045695 20.1045695,22 19,22 L5,22 C3.8954305,22 3,21.1045695 3,20 L3,3 C3,1.8954305 3.8954305,1 5,1 Z M16,3.40653885 L16,6 L18.573526,6 L16,3.40653885 Z M14,3 L5,3 L5,20 L19,20 L19,8 L16,8 C14.8954305,8 14,7.1045695 14,6 L14,3 Z M13.9621139,17 L15,17 L15,11 L9,11 L9,15.4272018 L10.0823737,14.0252521 C10.4198811,13.588094 11.0478716,13.5073112 11.4850296,13.8448186 C11.5526324,13.8970113 11.6132705,13.9576493 11.6654632,14.0252521 L13.9621139,17 Z M7,10 C7,9.44771525 7.44771525,9 8,9 L16,9 C16.5522847,9 17,9.44771525 17,10 L17,18 C17,18.5522847 16.5522847,19 16,19 L8,19 C7.44771525,19 7,18.5522847 7,18 L7,10 Z M13,14 C12.4477153,14 12,13.5522847 12,13 C12,12.4477153 12.4477153,12 13,12 C13.5522847,12 14,12.4477153 14,13 C14,13.5522847 13.5522847,14 13,14 Z" id="file-image"></path>
                </g>
            </g>
            <g id="slices" transform="translate(60.000000, 58.000000)"></g>
        </g>
    </g>
</svg>