<?xml version="1.0" encoding="UTF-8"?>
<svg width="24px" height="24px" viewBox="0 0 24 24" version="1.1" xmlns="http://www.w3.org/2000/svg" xmlns:xlink="http://www.w3.org/1999/xlink">
    <!-- Generator: Sketch 55.2 (78181) - https://sketchapp.com -->
    <title>jollycons-files-1/icons/svg/icon-files-1-file-help</title>
    <desc>Created with Sketch.</desc>
    <g id="icons" stroke="none" stroke-width="1" fill="none" fill-rule="evenodd">
        <g id="icons---export" transform="translate(-316.000000, -138.000000)">
            <g id="row-2" transform="translate(60.000000, 138.000000)" fill="#000000" fill-rule="nonzero">
                <g id="icon---10" transform="translate(256.000000, 0.000000)">
                    <path d="M5,1 L15.5965861,1 C16.1296935,1 16.6407387,1.2128378 17.0162454,1.59125321 L20.4196593,5.02103078 C20.7913991,5.3956502 21,5.90201795 21,6.42977757 L21,20 C21,21.1045695 20.1045695,22 19,22 L5,22 C3.8954305,22 3,21.1045695 3,20 L3,3 C3,1.8954305 3.8954305,1 5,1 Z M16,3.40653885 L16,6 L18.573526,6 L16,3.40653885 Z M14,3 L5,3 L5,20 L19,20 L19,8 L16,8 C14.8954305,8 14,7.1045695 14,6 L14,3 Z M11.935,14.971 C11.7096655,14.971 11.5341673,14.8973341 11.4085,14.75 C11.2828327,14.6026659 11.22,14.394668 11.22,14.126 C11.22,13.7186646 11.2979992,13.3785014 11.454,13.1055 C11.6100008,12.8324986 11.8266653,12.5530014 12.104,12.267 C12.3033343,12.0503323 12.4528328,11.8640008 12.5525,11.708 C12.6521672,11.5519992 12.702,11.3786676 12.702,11.188 C12.702,10.9973324 12.6326674,10.8456672 12.494,10.733 C12.3553326,10.6203328 12.1646679,10.564 11.922,10.564 C11.7226657,10.564 11.525501,10.600833 11.3305,10.6745 C11.135499,10.748167 10.9166679,10.8543326 10.674,10.993 L10.362,11.149 C10.0673319,11.3136675 9.82900091,11.396 9.647,11.396 C9.43033225,11.396 9.24616743,11.3028343 9.0945,11.1165 C8.94283258,10.9301657 8.867,10.702668 8.867,10.434 C8.867,10.2519991 8.89949968,10.1003339 8.9645,9.979 C9.02950033,9.85766606 9.13566593,9.74066723 9.283,9.628 C9.67300195,9.34199857 10.1171642,9.11883414 10.6155,8.9585 C11.1138358,8.79816586 11.6143308,8.718 12.117,8.718 C12.6803362,8.718 13.1829978,8.81549902 13.625,9.0105 C14.0670022,9.20550097 14.4136654,9.47416495 14.665,9.8165 C14.9163346,10.158835 15.042,10.5466645 15.042,10.98 C15.042,11.3006683 14.974834,11.595332 14.8405,11.864 C14.706166,12.132668 14.5436676,12.3623324 14.353,12.553 C14.1623324,12.7436676 13.9153349,12.973332 13.612,13.242 C13.3259986,13.4760012 13.1071674,13.6774992 12.9555,13.8465 C12.8038326,14.0155008 12.7063336,14.1909991 12.663,14.373 C12.6283332,14.5636676 12.543834,14.7109995 12.4095,14.815 C12.275166,14.9190005 12.1170009,14.971 11.935,14.971 Z M11.961,18.078 C11.6056649,18.078 11.3088345,17.9566679 11.0705,17.714 C10.8321655,17.4713321 10.713,17.1723351 10.713,16.817 C10.713,16.4616649 10.8321655,16.1626679 11.0705,15.92 C11.3088345,15.6773321 11.6056649,15.556 11.961,15.556 C12.3250018,15.556 12.6261655,15.6773321 12.8645,15.92 C13.1028345,16.1626679 13.222,16.4616649 13.222,16.817 C13.222,17.1723351 13.1028345,17.4713321 12.8645,17.714 C12.6261655,17.9566679 12.3250018,18.078 11.961,18.078 Z" id="file-help"></path>
                </g>
            </g>
            <g id="slices" transform="translate(60.000000, 58.000000)"></g>
        </g>
    </g>
</svg>