<?xml version="1.0" encoding="UTF-8"?>
<svg width="24px" height="24px" viewBox="0 0 24 24" version="1.1" xmlns="http://www.w3.org/2000/svg" xmlns:xlink="http://www.w3.org/1999/xlink">
    <!-- Generator: Sketch 55.2 (78181) - https://sketchapp.com -->
    <title>jollycons-files-1/icons/svg/icon-files-1-file-spreadsheet</title>
    <desc>Created with Sketch.</desc>
    <g id="icons" stroke="none" stroke-width="1" fill="none" fill-rule="evenodd">
        <g id="icons---export" transform="translate(-60.000000, -218.000000)">
            <g id="row-3" transform="translate(60.000000, 218.000000)" fill="#000000" fill-rule="nonzero">
                <g id="icon---11">
                    <path d="M5,1 L15.5965861,1 C16.1296935,1 16.6407387,1.2128378 17.0162454,1.59125321 L20.4196593,5.02103078 C20.7913991,5.3956502 21,5.90201795 21,6.42977757 L21,20 C21,21.1045695 20.1045695,22 19,22 L5,22 C3.8954305,22 3,21.1045695 3,20 L3,3 C3,1.8954305 3.8954305,1 5,1 Z M16,3.40653885 L16,6 L18.573526,6 L16,3.40653885 Z M14,3 L5,3 L5,20 L19,20 L19,8 L16,8 C14.8954305,8 14,7.1045695 14,6 L14,3 Z M10,13 L10,12 L12,12 L12,13 L16,13 L16,15 L12,15 L12,16 L10,16 L10,15 L8,15 L8,16 L16,16 L16,12 L8,12 L8,13 L10,13 Z M6,11 C6,10.4477153 6.44771525,10 7,10 L17,10 C17.5522847,10 18,10.4477153 18,11 L18,17 C18,17.5522847 17.5522847,18 17,18 L7,18 C6.44771525,18 6,17.5522847 6,17 L6,11 Z" id="file-spreadsheet"></path>
                </g>
            </g>
            <g id="slices" transform="translate(60.000000, 58.000000)"></g>
        </g>
    </g>
</svg>