<?xml version="1.0" encoding="UTF-8"?>
<svg width="24px" height="24px" viewBox="0 0 24 24" version="1.1" xmlns="http://www.w3.org/2000/svg" xmlns:xlink="http://www.w3.org/1999/xlink">
    <!-- Generator: Sketch 55.2 (78181) - https://sketchapp.com -->
    <title>jollycons-files-1/icons/svg/icon-files-1-file-rss</title>
    <desc>Created with Sketch.</desc>
    <g id="icons" stroke="none" stroke-width="1" fill="none" fill-rule="evenodd">
        <g id="icons---export" transform="translate(-316.000000, -58.000000)">
            <g id="row-1" transform="translate(60.000000, 58.000000)" fill="#000000" fill-rule="nonzero">
                <g id="icon---5" transform="translate(256.000000, 0.000000)">
                    <path d="M5,1 L15.5965861,1 C16.1296935,1 16.6407387,1.2128378 17.0162454,1.59125321 L20.4196593,5.02103078 C20.7913991,5.3956502 21,5.90201795 21,6.42977757 L21,20 C21,21.1045695 20.1045695,22 19,22 L5,22 C3.8954305,22 3,21.1045695 3,20 L3,3 C3,1.8954305 3.8954305,1 5,1 Z M14,3 L5,3 L5,20 L19,20 L19,8 L16,8 C14.8954305,8 14,7.1045695 14,6 L14,3 Z M16,3.40653885 L16,6 L18.573526,6 L16,3.40653885 Z M9.5,18 C8.67157288,18 8,17.3284271 8,16.5 C8,15.6715729 8.67157288,15 9.5,15 C10.3284271,15 11,15.6715729 11,16.5 C11,17.3284271 10.3284271,18 9.5,18 Z M13.9143748,17.3771052 C13.8071973,17.9188906 13.2811089,18.2712099 12.7393235,18.1640324 C12.1975381,18.0568549 11.8452188,17.5307665 11.9523963,16.9889811 C11.9610516,16.9452282 11.9685421,16.9011694 11.974855,16.8568345 C11.99155,16.7395879 12,16.6204835 12,16.5 C12,15.1192881 10.8807119,14 9.5,14 C9.38044161,14 9.26224102,14.0083208 9.14586564,14.024762 C8.59901134,14.1020202 8.09306823,13.7213373 8.01581006,13.174483 C7.9385519,12.6276287 8.31923477,12.1216856 8.86608907,12.0444274 C9.07507872,12.0149019 9.28676707,12 9.5,12 C11.9852814,12 14,14.0147186 14,16.5 C14,16.7148885 13.9848658,16.9282069 13.9548829,17.1387737 C13.943505,17.2186792 13.9299948,17.2981456 13.9143748,17.3771052 Z M16.9778922,17.0795483 C16.9357297,17.6302213 16.4551416,18.0424505 15.9044686,18.0002881 C15.3537956,17.9581256 14.9415663,17.4775375 14.9837288,16.9268645 C14.9945557,16.7854573 15,16.6431082 15,16.5 C15,13.4624339 12.5375661,11 9.5,11 C9.35454708,11 9.20987881,11.0056242 9.06618702,11.0168076 C8.51556742,11.059662 8.0344617,10.648037 7.99160733,10.0974173 C7.94875296,9.54679775 8.360378,9.06569203 8.91099761,9.02283766 C9.10630801,9.00763677 9.30274505,9 9.5,9 C13.6421356,9 17,12.3578644 17,16.5 C17,16.6940717 16.9926077,16.8873524 16.9778922,17.0795483 Z" id="file-rss"></path>
                </g>
            </g>
            <g id="slices" transform="translate(60.000000, 58.000000)"></g>
        </g>
    </g>
</svg>