<?xml version="1.0" encoding="UTF-8"?>
<svg width="24px" height="24px" viewBox="0 0 24 24" version="1.1" xmlns="http://www.w3.org/2000/svg" xmlns:xlink="http://www.w3.org/1999/xlink">
    <!-- Generator: Sketch 55.2 (78181) - https://sketchapp.com -->
    <title>jollycons-files-2/icons/svg/icon-files-2-layout</title>
    <desc>Created with Sketch.</desc>
    <g id="icons" stroke="none" stroke-width="1" fill="none" fill-rule="evenodd">
        <g id="icons---export" transform="translate(-60.000000, -58.000000)">
            <g id="row-1" transform="translate(60.000000, 58.000000)" fill="#000000" fill-rule="nonzero">
                <g id="icon---1">
                    <path d="M5,1 L15.5965861,1 C16.1296935,1 16.6407387,1.2128378 17.0162454,1.59125321 L20.4196593,5.02103078 C20.7913991,5.3956502 21,5.90201795 21,6.42977757 L21,20 C21,21.1045695 20.1045695,22 19,22 L5,22 C3.8954305,22 3,21.1045695 3,20 L3,3 C3,1.8954305 3.8954305,1 5,1 Z M14,3 L5,3 L5,20 L19,20 L19,8 L16,8 C14.8954305,8 14,7.1045695 14,6 L14,3 Z M16,3.40653885 L16,6 L18.573526,6 L16,3.40653885 Z M13,10 L16,10 C16.5522847,10 17,10.4477153 17,11 C17,11.5522847 16.5522847,12 16,12 L13,12 C12.4477153,12 12,11.5522847 12,11 C12,10.4477153 12.4477153,10 13,10 Z M13,13 L16,13 C16.5522847,13 17,13.4477153 17,14 C17,14.5522847 16.5522847,15 16,15 L13,15 C12.4477153,15 12,14.5522847 12,14 C12,13.4477153 12.4477153,13 13,13 Z M8,16 L16,16 C16.5522847,16 17,16.4477153 17,17 C17,17.5522847 16.5522847,18 16,18 L8,18 C7.44771525,18 7,17.5522847 7,17 C7,16.4477153 7.44771525,16 8,16 Z M8,10 L10,10 C10.5522847,10 11,10.4477153 11,11 L11,14 C11,14.5522847 10.5522847,15 10,15 L8,15 C7.44771525,15 7,14.5522847 7,14 L7,11 C7,10.4477153 7.44771525,10 8,10 Z" id="file-layout"></path>
                </g>
            </g>
            <g id="slices" transform="translate(60.000000, 58.000000)"></g>
        </g>
    </g>
</svg>