<svg xmlns="http://www.w3.org/2000/svg" width="24" height="24" viewBox="0 0 24 24">
  <path d="M17.9733425,15 C19.6568542,15 21,13.6568542 21,12 C21,10.3431458 19.6568542,9 18,9 C17.9288436,9 17.8582658,9.00247732 17.7883482,9.00735042 C17.7545667,6.23609813 15.4975726,4 12.7183099,4 C10.6037601,4 8.79153294,5.29439686 8.03075439,7.13406453 C7.70189779,7.0466092 7.35639198,7 7,7 C4.790861,7 3,8.790861 3,11 C3,13.209139 4.790861,15 7,15 L17.9733425,15 Z M12.7183099,2 C15.9895492,2 18.7457556,4.2228711 19.5509033,7.24519075 C21.5531228,7.89783439 23,9.77994906 23,12 C23,14.6622937 20.9192605,16.8386046 18.2952894,16.991425 L7,17 C3.6862915,17 1,14.3137085 1,11 C1,7.70779328 3.65154333,5.03488769 6.93557447,5.00033875 C8.2340427,3.15650507 10.3692337,2 12.7183099,2 Z M10.5176381,18.0681483 C11.0511042,18.2110902 11.3676867,18.7594271 11.2247449,19.2928932 L10.7071068,21.2247449 C10.564165,21.758211 10.015828,22.0747935 9.48236191,21.9318517 C8.94889581,21.7889098 8.63231332,21.2405729 8.77525513,20.7071068 L9.29289322,18.7752551 C9.43583503,18.241789 9.98417199,17.9252065 10.5176381,18.0681483 Z M6.51763809,18.0681483 C7.05110419,18.2110902 7.36768668,18.7594271 7.22474487,19.2928932 L6.70710678,21.2247449 C6.56416497,21.758211 6.01582801,22.0747935 5.48236191,21.9318517 C4.94889581,21.7889098 4.63231332,21.2405729 4.77525513,20.7071068 L5.29289322,18.7752551 C5.43583503,18.241789 5.98417199,17.9252065 6.51763809,18.0681483 Z M14.5176381,18.0681483 C15.0511042,18.2110902 15.3676867,18.7594271 15.2247449,19.2928932 L14.7071068,21.2247449 C14.564165,21.758211 14.015828,22.0747935 13.4823619,21.9318517 C12.9488958,21.7889098 12.6323133,21.2405729 12.7752551,20.7071068 L13.2928932,18.7752551 C13.435835,18.241789 13.984172,17.9252065 14.5176381,18.0681483 Z M18.5176381,18.0681483 C19.0511042,18.2110902 19.3676867,18.7594271 19.2247449,19.2928932 L18.7071068,21.2247449 C18.564165,21.758211 18.015828,22.0747935 17.4823619,21.9318517 C16.9488958,21.7889098 16.6323133,21.2405729 16.7752551,20.7071068 L17.2928932,18.7752551 C17.435835,18.241789 17.984172,17.9252065 18.5176381,18.0681483 Z"/>
</svg>
