<svg xmlns="http://www.w3.org/2000/svg" width="24" height="24" viewBox="0 0 24 24">
  <path d="M16.4469717,11.6679497 C18.3937441,10.3701014 19.0016719,9.76217367 19.0016719,9 C19.0016719,8.09079851 18.8467188,7.09191814 18.5344696,6.00474804 C17.1871967,6.03271618 16.1123017,6.18388262 15.3178996,6.4486833 C14.7939563,6.62333107 14.2276363,6.34017108 14.0529886,5.81622777 C13.8783408,5.29228445 14.1615008,4.72596447 14.6854441,4.5513167 C15.5441605,4.2650779 16.5919213,4.09288639 17.8338264,4.02873169 C17.6939302,3.69279559 17.5413671,3.34987458 17.3760843,3 L6.47293873,3 C9.03714975,4.79968931 10.5258303,6.49383771 10.9047856,8.15427855 C12.1826489,8.38544876 13.217734,8.5 14.0016719,8.5 C14.5539566,8.5 15.0016719,8.94771525 15.0016719,9.5 C15.0016719,10.0522847 14.5539566,10.5 14.0016719,10.5 C13.1666298,10.5 12.1401883,10.3950859 10.9159507,10.1868381 C10.7785624,11.0400233 10.4648981,11.8096156 9.89609905,12.9472136 C9.2102249,14.3189619 9.00167186,14.944621 9.00167186,16 C9.00167186,17.1415005 10.576266,18.5386869 13.8113849,20.0165334 C13.273226,18.6866415 13.0016719,17.3466939 13.0016719,16 C13.0016719,15.6703075 13.0337793,15.3710554 13.1032456,15.0909372 C12.4029717,15.1655814 11.8072242,15.2855751 11.3178996,15.4486833 C10.7939563,15.6233311 10.2276363,15.3401711 10.0529886,14.8162278 C9.87834079,14.2922844 10.1615008,13.7259645 10.6854441,13.5513167 C11.7162702,13.207708 13.0195139,13.0284442 14.6039973,13.0031281 C15.0873849,12.6001226 15.6951648,12.1691543 16.4469717,11.6679497 Z M9.00160443,8.98526729 C8.98782236,7.4777247 6.86125631,5.35722793 2.50553292,2.86824314 C1.61518189,2.35947113 1.97620908,1 3.00167186,1 L18.0016719,1 C18.3804439,1 18.726707,1.21400238 18.8960991,1.5527864 C20.2934855,4.34755934 21.0016719,6.82621153 21.0016719,9 C21.0016719,10.7378263 20.1095996,11.6298986 17.5563721,13.3320503 C15.6095996,14.6298986 15.0016719,15.2378263 15.0016719,16 C15.0016719,17.792105 15.6050848,19.6023438 16.8337222,21.4452998 C17.3722876,22.253148 16.5596423,23.2772394 15.6505484,22.9363292 C9.93841611,20.7942796 7.00167186,18.5917214 7.00167186,16 C7.00167186,14.555379 7.29311882,13.6810381 8.10724467,12.0527864 C8.78890421,10.6894673 8.99909077,10.0630963 9.00164817,9.0194071 C9.00143878,9.00805732 9.00142332,8.99667606 9.00160443,8.98526729 Z"/>
</svg>
