<svg xmlns="http://www.w3.org/2000/svg" width="24" height="24" viewBox="0 0 24 24">
  <path d="M13,15 L13,16 C13,17.1045695 12.1045695,18 11,18 L10.0843596,18 C10.4779765,20.2762437 12.2325149,22 15,22 C18.1605648,22 20,19.7518014 20,17 L20,9 C20,8.44771525 20.4477153,8 21,8 C21.5522847,8 22,8.44771525 22,9 L22,17 C22,20 20,24 15,24 C10.539634,24 8.46665177,20.8168216 8.07114631,18 L7,18 C5.8954305,18 5,17.1045695 5,16 L5,15 C5,14.9433356 5.0023565,14.8872215 5.00697684,14.8317505 C3.83814146,14.4218905 3,13.3088244 3,12 L3,4 C3,2.34314575 4.34314575,1 6,1 L12,1 C13.6568542,1 15,2.34314575 15,4 L15,12 C15,13.3088244 14.1618585,14.4218905 12.9930232,14.8317505 C12.9976435,14.8872215 13,14.9433356 13,15 Z M7,15 L7,16 L11,16 L11,15 L7,15 Z M6,3 C5.44771525,3 5,3.44771525 5,4 L5,12 C5,12.5522847 5.44771525,13 6,13 L12,13 C12.5522847,13 13,12.5522847 13,12 L13,4 C13,3.44771525 12.5522847,3 12,3 L6,3 Z M10,7 L11,7 C11.5522847,7 12,7.44771525 12,8 C12,8.55228475 11.5522847,9 11,9 L10,9 L10,10.25 C10,10.6642136 9.66421356,11 9.25,11 L8.75,11 C8.33578644,11 8,10.6642136 8,10.25 L8,9 L7,9 C6.44771525,9 6,8.55228475 6,8 C6,7.44771525 6.44771525,7 7,7 L8,7 L8,5.75 C8,5.33578644 8.33578644,5 8.75,5 L9.25,5 C9.66421356,5 10,5.33578644 10,5.75 L10,7 Z" transform="translate(-1)"/>
</svg>
