<svg xmlns="http://www.w3.org/2000/svg" width="24" height="24" viewBox="0 0 24 24">
  <path d="M10.0354444,4 C10.2780593,2.30385293 11.736764,1 13.5,1 C15.263236,1 16.7219407,2.30385293 16.9645556,4 L17.5753563,4 C18.2114757,4 18.8096586,4.30260618 19.1865406,4.81505895 L24,11.3600006 L23.9894181,17.0037499 C23.9873499,18.1068533 23.092527,19 21.9894217,19 L21,19 C21,20.6568542 19.6568542,22 18,22 C16.3431458,22 15,20.6568542 15,19 L9,19 C9,20.6568542 7.65685425,22 6,22 C4.34314575,22 3,20.6568542 3,19 L2,19 C0.8954305,19 5.7935996e-16,18.1045695 4.4408921e-16,17 L0,6 C-1.3527075e-16,4.8954305 0.8954305,4 2,4 L10.0354444,4 Z M14.9142803,3.99896345 C14.7080698,3.41690878 14.152722,3 13.5,3 C12.8456111,3 12.2890944,3.41904092 12.0841466,4.00342606 L14.9142803,3.99896345 Z M19.7816981,9 L16,9 L16,12 L21.9880399,12 L19.7816981,9 Z M18.3108036,7 L17.5753563,6 L2,6 L2,17 L3.76389349,17 C4.31321405,16.3862506 5.11150019,16 6,16 C6.88849981,16 7.68678595,16.3862506 8.23610651,17 L15.7638935,17 C16.313214,16.3862506 17.1115002,16 18,16 C18.8884998,16 19.686786,16.3862506 20.2361065,17 L21.9894217,17 L21.9950466,14 L16,14 C14.8954305,14 14,13.1045695 14,12 L14,8 C14,7.44771525 14.4477153,7 15,7 L18.3108036,7 Z M18,20 C18.5522847,20 19,19.5522847 19,19 C19,18.4477153 18.5522847,18 18,18 C17.4477153,18 17,18.4477153 17,19 C17,19.5522847 17.4477153,20 18,20 Z M6,20 C6.55228475,20 7,19.5522847 7,19 C7,18.4477153 6.55228475,18 6,18 C5.44771525,18 5,18.4477153 5,19 C5,19.5522847 5.44771525,20 6,20 Z M8,9 L9,9 C9.55228475,9 10,9.44771525 10,10 C10,10.5522847 9.55228475,11 9,11 L8,11 L8,12 C8,12.5522847 7.55228475,13 7,13 C6.44771525,13 6,12.5522847 6,12 L6,11 L5,11 C4.44771525,11 4,10.5522847 4,10 C4,9.44771525 4.44771525,9 5,9 L6,9 L6,8 C6,7.44771525 6.44771525,7 7,7 C7.55228475,7 8,7.44771525 8,8 L8,9 Z"/>
</svg>
