<svg xmlns="http://www.w3.org/2000/svg" width="24" height="24" viewBox="0 0 24 24">
  <path d="M9,4 C9,2.34314575 10.3431458,1 12,1 C13.6568542,1 15,2.34314575 15,4 L16,4 C16.5522847,4 17,4.44771525 17,5 L18,5 C19.1045695,5 20,5.8954305 20,7 L20,22 C20,23.1045695 19.1045695,24 18,24 L6,24 C4.8954305,24 4,23.1045695 4,22 L4,7 C4,5.8954305 4.8954305,5 6,5 L7,5 C7,4.44771525 7.44771525,4 8,4 L9,4 Z M6,7 L6,22 L18,22 L18,7 L6,7 Z M8,16 L16,16 C16.5522847,16 17,16.4477153 17,17 C17,17.5522847 16.5522847,18 16,18 L8,18 C7.44771525,18 7,17.5522847 7,17 C7,16.4477153 7.44771525,16 8,16 Z M8,19 L12,19 C12.5522847,19 13,19.4477153 13,20 C13,20.5522847 12.5522847,21 12,21 L8,21 C7.44771525,21 7,20.5522847 7,20 C7,19.4477153 7.44771525,19 8,19 Z M11,11 L12,11 C12.5522847,11 13,11.4477153 13,12 C13,12.5522847 12.5522847,13 12,13 L11,13 L11,14.25 C11,14.6642136 10.6642136,15 10.25,15 L9.75,15 C9.33578644,15 9,14.6642136 9,14.25 L9,13 L8,13 C7.44771525,13 7,12.5522847 7,12 C7,11.4477153 7.44771525,11 8,11 L9,11 L9,9.75 C9,9.33578644 9.33578644,9 9.75,9 L10.25,9 C10.6642136,9 11,9.33578644 11,9.75 L11,11 Z M12,5 C12.5522847,5 13,4.55228475 13,4 C13,3.44771525 12.5522847,3 12,3 C11.4477153,3 11,3.44771525 11,4 C11,4.55228475 11.4477153,5 12,5 Z"/>
</svg>
