<svg xmlns="http://www.w3.org/2000/svg" width="24" height="24" viewBox="0 0 24 24">
  <path fill="#000000" d="M4,20 L18,20 C18.5522847,20 19,20.4477153 19,21 C19,21.5522847 18.5522847,22 18,22 L4,22 C3.44771525,22 3,21.5522847 3,21 C3,20.4477153 3.44771525,20 4,20 Z M19,10.0729386 C20.9044699,10.3685269 22,11.5552485 22,13.5 C22,15.740205 20.5463107,16.9745591 18.0769906,16.999611 C17.1238057,18.5301258 15.5098846,19.6170975 13.6045013,19.8445487 C12.736334,19.9481822 11.868167,20 11,20 C10.1557904,20 9.31158081,19.9510026 8.46737122,19.8530077 C5.35088258,19.4912552 3,16.8516997 3,13.7142857 L3,10 C3,9.44771525 3.44771525,9 4,9 L18,9 C18.5522847,9 19,9.44771525 19,10 L19,10.0729386 Z M19,12.098381 L19,13.7666667 C19,14.1624327 18.9622267,14.5502218 18.8899199,14.9263847 C19.6975442,14.7631836 20,14.3191046 20,13.5 C20,12.7192253 19.7251886,12.2791988 19,12.098381 Z M5,11 L5,13.7142857 C5,15.8363467 6.59007201,17.6216677 8.69798041,17.8663474 C9.46576942,17.9554714 10.2329826,18 11,18 C11.7887922,18 12.5778024,17.9529073 13.3674385,17.8586481 C15.4397687,17.6112679 17,15.8537099 17,13.7666667 L17,11 L5,11 Z M10.4154769,3.89442719 C9.75590813,4.22421159 9.31838808,4.52229199 9.11403315,4.74919998 C9.55305471,5.12452492 10.9398487,5.60224596 13.1525519,6.01712781 C13.6953772,6.11890756 14.0529153,6.64146322 13.9511355,7.18428854 C13.8493558,7.72711385 13.3268001,8.08465193 12.7839748,7.98287219 C9.863465,7.4352766 8.12756391,6.79573409 7.41826334,5.85 C6.37346223,4.45693186 7.3630908,3.18455228 9.52104974,2.10557281 C10.0150282,1.85858356 10.6157013,2.05880791 10.8626905,2.5527864 C11.1096798,3.0467649 10.9094554,3.64743794 10.4154769,3.89442719 Z"/>
</svg>
