<svg xmlns="http://www.w3.org/2000/svg" width="24" height="24" viewBox="0 0 24 24">
  <path fill="#000000" d="M18.9884702,10 C18.9884702,10.0968956 18.9814287,10.1936631 18.9674012,10.289538 L17.5042981,20.289538 C17.3605812,21.2718125 16.5180996,22 15.5253671,22 L8.475421,22 C7.48268854,22 6.64020693,21.2718125 6.49649004,20.289538 L5.0333869,10.289538 C5.01914965,10.1922294 5.01217581,10.0955336 5.01205623,10 L4,10 C3.44771525,10 3,9.55228475 3,9 L3,6 C3,5.44771525 3.44771525,5 4,5 L4.32616683,5 L4.80396555,3.51492875 C5.02654905,2.62459475 5.82651527,2 6.74425055,2 L17.1826977,2 C18.100433,2 18.9003992,2.62459475 19.1229827,3.51492875 L19.6007815,5 L20,5 C20.5522847,5 21,5.44771525 21,6 L21,9 C21,9.55228475 20.5522847,10 20,10 L18.9884702,10 Z M7.01205466,10 L8.4751578,20 L15.5251039,20 L16.988207,10 L7.01205466,10 Z M17.4326977,5 L17.1826977,4 L6.74425055,4 L6.49425055,5 L17.4326977,5 Z M5,7 L5,8 L19,8 L19,7 L5,7 Z M12,16 C10.8954305,16 10,15.1045695 10,14 C10,12.8954305 10.8954305,12 12,12 C13.1045695,12 14,12.8954305 14,14 C14,15.1045695 13.1045695,16 12,16 Z"/>
</svg>
