<svg xmlns="http://www.w3.org/2000/svg" width="24" height="24" viewBox="0 0 24 24">
  <path fill="#000000" d="M16.5,1 C18.9852814,1 21,3.01471863 21,5.5 C21,7.46651741 19.7385825,9.13841496 17.9807411,9.75069902 C17.7155334,9.84307507 17.4390261,9.91133205 17.1538462,9.95284289 L17.1538462,21 C17.1538462,22.1045695 16.2584157,23 15.1538462,23 L7,23 C5.8954305,23 5,22.1045695 5,21 L5,6.99999735 C5,5.89542785 5.8954305,4.99999735 7,4.99999735 L12.0274647,4.99999735 C12.276188,2.7500234 14.1837241,1 16.5,1 Z M14.0496221,4.99999735 L15.1538462,4.99999735 C16.2584157,4.99999735 17.1538462,5.89542785 17.1538462,6.99999735 L17.1538462,7.91415038 C17.210841,7.89878004 17.2672033,7.88138386 17.3228747,7.86199264 C18.3185259,7.5151915 19,6.57232744 19,5.5 C19,4.11928813 17.8807119,3 16.5,3 C15.2981553,3 14.2813864,3.85314848 14.0496221,4.99999735 Z M7,9 L15.1538462,9 L15.1538462,6.99999735 L7,6.99999735 L7,9 Z M11,11 L7,11 L7,21 L15.1538462,21 L15.1538462,11 L14,11 C14,11.5522847 13.5522847,12 13,12 L12,12 C11.4477153,12 11,11.5522847 11,11 Z M9,13 L10,13 C10.5522847,13 11,13.4477153 11,14 L11,15 C11,15.5522847 10.5522847,16 10,16 L9,16 C8.44771525,16 8,15.5522847 8,15 L8,14 C8,13.4477153 8.44771525,13 9,13 Z"/>
</svg>
