<svg xmlns="http://www.w3.org/2000/svg" width="24" height="24" viewBox="0 0 24 24">
  <path fill="#000000" d="M9.00027129,5 L13.0277357,5 C13.2764578,2.75002477 15.1839945,1 17.5002713,1 C19.9855527,1 22.0002713,3.01471863 22.0002713,5.5 C22.0002713,7.98528137 19.9855527,10 17.5002713,10 C17.42553,10 17.3509783,9.99816914 17.276666,9.9945194 L15.1416288,21.2976577 C14.9546591,22.2874972 14.1338294,23 13.1804674,23 L8.82007521,23 C7.86671317,23 7.04588353,22.2874972 6.85891385,21.2976577 L4.25891385,7.53295182 C4.04228995,6.3861194 4.74472343,5.27048976 5.82784293,5.04112328 C5.9569893,5.01377463 6.08837123,5 6.22007521,5 L6.94590745,5 L6.27924078,3 L5,3 C4.44771525,3 4,2.55228475 4,2 C4,1.44771525 4.44771525,1 5,1 L7,1 C7.43043041,1 7.81256925,1.27543009 7.9486833,1.68377223 L8.9486833,4.68377223 C8.98364054,4.78864395 9.00025643,4.89521343 9.00027129,5 Z M15.236023,10 L15.7804674,7.11764706 L6.22007521,7.11764706 L6.76451965,10 L15.236023,10 Z M15.0502804,5 L15.7804674,5 C16.8850369,5 17.7804674,5.94810288 17.7804674,7.11764706 C17.7804674,7.25709832 17.767458,7.3962086 17.7416288,7.53295182 L17.6542901,7.99533317 C18.9632696,7.91577611 20.0002713,6.82899042 20.0002713,5.5 C20.0002713,4.11928813 18.8809832,3 17.5002713,3 C16.2907923,3 15.2819155,3.85887984 15.0502804,5 Z M14.8582452,12 L7.14229743,12 L8.82007521,20.8823529 L13.1804674,20.8823529 L14.8582452,12 Z"/>
</svg>
