<svg xmlns="http://www.w3.org/2000/svg" width="24" height="24" viewBox="0 0 24 24">
  <path fill="#000000" d="M6.07294342,9.06166689 C6.46012573,6.59636365 8.34853244,4.62931535 10.7731491,4.12553642 L10.0715233,2.37157561 C9.8664099,1.8588224 10.1158258,1.27688636 10.6286093,1.07178507 C11.1413928,0.866683789 11.7233633,1.11608495 11.9284767,1.62883816 L12.9040643,4.06766304 C15.482537,4.45733456 17.5228537,6.48798842 17.9270566,9.06166689 C18.5474396,9.24558501 19,9.81994193 19,10.5 L19,12.5 C19,13.2224107 18.4893153,13.8255445 17.8092642,13.9680834 L15.9761871,22.2169305 C15.874512,22.674468 15.4686986,23 15,23 L9,23 C8.53130135,23 8.12548795,22.674468 8.02381294,22.2169305 L6.19073582,13.9680834 C5.51068466,13.8255445 5,13.2224107 5,12.5 L5,10.5 C5,9.81994193 5.45256037,9.24558501 6.07294342,9.06166689 Z M15.7533839,14 L8.24661605,14 L9.80217161,21 L14.1978284,21 L15.7533839,14 Z M7,11 L7,12 L17,12 L17,11 L7,11 Z M15.8739825,9 C15.4299397,7.27477279 13.8638394,6 12,6 C10.1361606,6 8.57006028,7.27477279 8.12601749,9 L15.8739825,9 Z"/>
</svg>
