<svg xmlns="http://www.w3.org/2000/svg" width="24" height="24" viewBox="0 0 24 24">
  <path fill="#000000" d="M19.4060967,1.92132034 L22.2345238,4.74974747 C22.6250481,5.14027176 22.6250481,5.77343674 22.2345238,6.16396103 L17.9918831,10.4066017 C17.6379668,10.7605181 17.5776696,11.0017064 17.5776689,11.8208168 C17.5776677,13.1230284 17.402261,13.8246509 16.5776644,14.6492475 L8.09238816,23.1345238 C6.92081528,24.3060967 5.02132034,24.3060967 3.84974747,23.1345238 L1.02132034,20.3060967 C-0.150252532,19.1345238 -0.150252532,17.2350288 1.02132034,16.063456 L9.50660172,7.57817459 C10.3311967,6.75357963 11.0328168,6.57817459 12.3350288,6.57817459 C13.1541372,6.57817459 13.3953261,6.51787737 13.7492424,6.16396103 L17.9918831,1.92132034 C18.3824074,1.53079605 19.0155724,1.53079605 19.4060967,1.92132034 Z M18.4489899,7.12106781 L17.0347763,5.70685425 L15.163456,7.57817459 C14.338861,8.40276956 13.6372409,8.57817459 12.3350288,8.57817459 C11.5159205,8.57817459 11.2747316,8.63847182 10.9208153,8.99238816 L9.50660172,10.4066017 L11.6279221,12.5279221 C12.0184464,12.9184464 12.0184464,13.5516113 11.6279221,13.9421356 L8.79949494,16.7705627 C8.40897065,17.161087 7.77580567,17.161087 7.38528138,16.7705627 L5.26396103,14.6492424 L2.43553391,17.4776695 C2.04500961,17.8681938 2.04500961,18.5013588 2.43553391,18.8918831 L5.26396103,21.7203102 C5.65448532,22.1108345 6.2876503,22.1108345 6.67817459,21.7203102 L15.1634509,13.235034 C15.51737,12.8811148 15.5776682,12.6399237 15.5776689,11.820815 C15.5776701,10.5186013 15.7530748,9.8169829 16.5776695,8.99238816 L18.4489899,7.12106781 Z M8.09238816,11.8208153 L6.67817459,13.2350288 L8.09238816,14.6492424 L9.50660172,13.2350288 L8.09238816,11.8208153 Z"/>
</svg>
