<?xml version="1.0" encoding="UTF-8"?>
<svg width="24px" height="24px" viewBox="0 0 24 24" version="1.1" xmlns="http://www.w3.org/2000/svg" xmlns:xlink="http://www.w3.org/1999/xlink">
    <!-- Generator: Sketch 52.3 (67297) - http://www.bohemiancoding.com/sketch -->
    <title>jollycons-[category]/icons/svg/icon-christmas-and-new-year-candy-cane</title>
    <desc>Created with Sketch.</desc>
    <g id="icons" stroke="none" stroke-width="1" fill="none" fill-rule="evenodd">
        <g id="icons---export" transform="translate(-188.000000, -138.000000)">
            <g id="row-2" transform="translate(60.000000, 138.000000)" fill="#000000" fill-rule="nonzero">
                <g id="icon---8" transform="translate(128.000000, 0.000000)">
                    <path d="M14,8.69425978 L14,9 C14,9.55228475 14.4477153,10 15,10 C15.5522847,10 16,9.55228475 16,9 L16,7.5 C16,7.40347447 15.9969609,7.30765876 15.9909731,7.21264335 L14,8.69425978 Z M13.1286054,5.60319612 L14.7550801,4.39282736 C14.0346517,3.63832361 13.0545425,3.13391214 11.9581999,3.02304054 L12.9081741,5.43402513 C12.9848217,5.48636937 13.0584068,5.54286776 13.1286054,5.60319612 Z M9.78208755,5.6837382 L9.01839492,3.74552653 C7.89616827,4.48878025 7.12655216,5.72172298 7.01421513,7.13968616 L9.14269822,6.66541307 C9.27616773,6.2884363 9.497503,5.95300584 9.78208755,5.6837382 Z M9,9.77078178 L6.98543603,10.2196712 L6.98788195,12.3775585 L9,11.565834 L9,9.77078178 Z M9,14.8007551 L6.99154698,15.6110011 L6.99391636,17.7013583 L9,17.0220478 L9,14.8007551 Z M9,20.1893816 L6.99750509,20.8674769 L6.9977324,21.0680199 C6.99835932,21.6211134 7.44690614,22.069152 8,22.069152 C8.55228475,22.069152 9,21.6214368 9,21.069152 L9,20.1893816 Z M5,7.7354224 L5,7.48051561 C5,3.90142567 7.90632799,1 11.4914926,1 C15.0766572,1 17.9830074,3.90142567 17.9830074,7.48051561 L17.9830074,8.97601922 C17.9830074,10.6279069 16.641615,11.9670264 14.9869237,11.9670264 C13.3322323,11.9670264 11.9908399,10.6279069 11.9908399,8.97601922 L11.9908399,7.48051561 C11.9908399,7.205201 11.7672745,6.98201441 11.4914926,6.98201441 C11.2157107,6.98201441 10.9921453,7.205201 10.9921453,7.48051561 L10.9921453,21.0089928 C10.9921453,22.6608805 9.65075294,24 7.99606157,24 C6.34144619,24 4.99958993,22.6619349 4.99771446,21.0101242 L5,8.05869605 C4.99987692,7.95029156 4.98859003,7.84241393 5,7.7354224 Z" id="candy-cane"></path>
                </g>
            </g>
            <g id="slices" transform="translate(60.000000, 58.000000)"></g>
        </g>
    </g>
</svg>