<?xml version="1.0" encoding="UTF-8"?>
<svg width="24px" height="24px" viewBox="0 0 24 24" version="1.1" xmlns="http://www.w3.org/2000/svg" xmlns:xlink="http://www.w3.org/1999/xlink">
    <!-- Generator: Sketch 52.3 (67297) - http://www.bohemiancoding.com/sketch -->
    <title>jollycons-[category]/icons/svg/icon-christmas-and-new-year-christmas-tree</title>
    <desc>Created with Sketch.</desc>
    <g id="icons" stroke="none" stroke-width="1" fill="none" fill-rule="evenodd">
        <g id="icons---export" transform="translate(-124.000000, -138.000000)">
            <g id="row-2" transform="translate(60.000000, 138.000000)" fill="#000000" fill-rule="nonzero">
                <g id="icon---7" transform="translate(64.000000, 0.000000)">
                    <path d="M13.9935169,20 L13.9935169,22 C13.9935169,22.5522847 13.5458016,23 12.9935169,23 L11.9935169,23 C11.4412321,23 10.9935169,22.5522847 10.9935169,22 L10.9935169,20 L4.98422527,20 C3.87965577,20 2.98422527,19.1045695 2.98422527,18 C2.98422527,17.4430767 3.21644158,16.911375 3.62497903,16.5328771 L6.89041864,13.99863 C5.82046951,13.9593316 4.96514077,13.0795522 4.96514077,12 C4.96514077,11.402371 5.2323984,10.8360566 5.69372626,10.4561395 L7.84401267,8.53354962 C7.40626434,8.16667242 7.12791896,7.61584173 7.12791896,7 C7.12791896,6.5579669 7.2743591,6.12838706 7.54435444,5.77839309 L10.9099524,1.7590559 C11.5846272,0.884477373 12.8405453,0.722423435 13.7151238,1.3970983 C13.8507821,1.50174897 13.9724307,1.62339762 14.0770814,1.7590559 L17.4426793,5.77839309 C18.1010151,6.63179131 17.9626587,7.84828231 17.1430072,8.53353819 L19.3249692,10.4561395 C20.1776198,11.1583224 20.299598,12.4187639 19.5974152,13.2714145 C19.2333638,13.7134769 18.6981582,13.9773397 18.1282521,13.9986071 L21.3846264,16.5328771 C22.194896,17.283568 22.2431941,18.5489766 21.4925031,19.3592462 C21.1140052,19.7677837 20.5823034,20 20.0253802,20 L13.9935169,20 Z M9.25542165,12 C10.1648389,12 10.6021582,13.1155004 9.93504477,13.7335615 L4.98422527,18 L20.0253802,18 L15.051989,13.7335615 C14.3848755,13.1155004 14.8221948,12 15.7316121,12 L18.0535547,12 L14.2863811,8.77193024 C13.5621628,8.17551522 13.983897,7 14.9220883,7 L15.8591148,7 L12.4935169,2.98066281 L9.12791896,7 L10.0649455,7 C11.0031368,7 11.4248709,8.17551522 10.7006527,8.77193024 L6.96514077,12 L9.25542165,12 Z M10.9935169,17 C10.4412321,17 9.99351689,16.5522847 9.99351689,16 C9.99351689,15.4477153 10.4412321,15 10.9935169,15 C11.5458016,15 11.9935169,15.4477153 11.9935169,16 C11.9935169,16.5522847 11.5458016,17 10.9935169,17 Z M14.9935169,17 C14.4412321,17 13.9935169,16.5522847 13.9935169,16 C13.9935169,15.4477153 14.4412321,15 14.9935169,15 C15.5458016,15 15.9935169,15.4477153 15.9935169,16 C15.9935169,16.5522847 15.5458016,17 14.9935169,17 Z M12.9935169,14 C12.4412321,14 11.9935169,13.5522847 11.9935169,13 C11.9935169,12.4477153 12.4412321,12 12.9935169,12 C13.5458016,12 13.9935169,12.4477153 13.9935169,13 C13.9935169,13.5522847 13.5458016,14 12.9935169,14 Z M11.9935169,11 C11.4412321,11 10.9935169,10.5522847 10.9935169,10 C10.9935169,9.44771525 11.4412321,9 11.9935169,9 C12.5458016,9 12.9935169,9.44771525 12.9935169,10 C12.9935169,10.5522847 12.5458016,11 11.9935169,11 Z M12.9935169,7 C12.4412321,7 11.9935169,6.55228475 11.9935169,6 C11.9935169,5.44771525 12.4412321,5 12.9935169,5 C13.5458016,5 13.9935169,5.44771525 13.9935169,6 C13.9935169,6.55228475 13.5458016,7 12.9935169,7 Z" id="christmas-tree"></path>
                </g>
            </g>
            <g id="slices" transform="translate(60.000000, 58.000000)"></g>
        </g>
    </g>
</svg>