<?xml version="1.0" encoding="UTF-8"?>
<svg width="24px" height="24px" viewBox="0 0 24 24" version="1.1" xmlns="http://www.w3.org/2000/svg" xmlns:xlink="http://www.w3.org/1999/xlink">
    <!-- Generator: Sketch 52.3 (67297) - http://www.bohemiancoding.com/sketch -->
    <title>jollycons-[category]/icons/svg/icon-christmas-and-new-year-cracker</title>
    <desc>Created with Sketch.</desc>
    <g id="icons" stroke="none" stroke-width="1" fill="none" fill-rule="evenodd">
        <g id="icons---export" transform="translate(-124.000000, -218.000000)">
            <g id="row-3" transform="translate(60.000000, 218.000000)" fill="#000000" fill-rule="nonzero">
                <g id="icon---12" transform="translate(64.000000, 0.000000)">
                    <path d="M18.197457,11.0857868 C18.197457,11.3510033 18.0921002,11.6053572 17.9045638,11.7928936 L10.833496,18.8639614 C10.6459596,19.0514978 10.3916057,19.1568546 10.1263892,19.1568546 L8.45133636,19.1568546 L8.641736,20.4896521 C8.6862494,20.8012459 8.58146031,21.1156132 8.35889329,21.3381802 L5.88401955,23.8130539 C5.40137835,24.2956951 4.58773467,24.1636589 4.28248558,23.5531608 L3.01734321,21.022876 L0.487058487,19.7577337 C-0.123439702,19.4524846 -0.255475895,18.6388409 0.227165301,18.1561997 L2.70203904,15.681326 C2.92460606,15.4587589 3.23897334,15.3539698 3.55056717,15.3984832 L4.88374851,15.5889377 L4.88374851,13.9142139 C4.88374851,13.6489974 4.98910535,13.3946435 5.17664172,13.2071072 L12.2477095,6.13603934 C12.4352459,5.94850297 12.6895998,5.84314612 12.9548163,5.84314612 L14.6299789,5.84314612 L14.4394695,4.50958074 C14.3949561,4.19798691 14.4997452,3.88361963 14.7223122,3.66105261 L17.197186,1.18617887 C17.6798272,0.703537676 18.4934708,0.835573869 18.7987199,1.44607206 L20.0638623,3.97635679 L22.594147,5.24149915 C23.2046452,5.54674824 23.3366814,6.36039193 22.8540402,6.84303312 L20.3791665,9.31790686 C20.1565995,9.54047388 19.8422322,9.64526297 19.5306383,9.60074957 L18.197457,9.41029509 L18.197457,11.0857868 Z M8.71217586,12.5 L11.540603,15.3284271 L14.36903,12.5000002 L11.5406028,9.67157304 L8.71217586,12.5 Z M15.4296901,11.43934 L16.197457,10.6715731 L16.197457,8.67173129 L15.3688717,7.843146 L13.3690299,7.843146 L12.601263,8.61091287 L15.4296901,11.43934 Z M6.88374851,14.3284274 L6.88374851,16.3275015 L7.71310149,17.1568545 L9.71217563,17.1568545 L10.4799428,16.3890873 L7.65151569,13.5606602 L6.88374851,14.3284274 Z M17.6687752,7.31446435 L19.3185063,7.55014022 L20.4587684,6.40987812 L18.8712927,5.61614028 C18.6777653,5.51937658 18.5208428,5.36245409 18.4240791,5.16892669 L17.6303413,3.581451 L16.4900792,4.72171309 L16.725755,6.37144417 L17.6687752,7.31446435 Z M3.76269921,17.4490928 L2.62243712,18.5893549 L4.2099128,19.3830927 C4.40344021,19.4798564 4.5603627,19.6367789 4.6571264,19.8303063 L5.45086424,21.417782 L6.59112633,20.2775199 L6.35557842,18.6286845 L5.41153457,17.6846407 L3.76269921,17.4490928 Z M10.833496,13.2071063 C10.4429717,12.8165821 10.4429717,12.1834171 10.833496,11.7928928 C11.2240203,11.4023685 11.8571852,11.4023685 12.2477095,11.7928928 C12.6382338,12.1834171 12.6382338,12.8165821 12.2477095,13.2071063 C11.8571852,13.5976306 11.2240203,13.5976306 10.833496,13.2071063 Z" id="cracker"></path>
                </g>
            </g>
            <g id="slices" transform="translate(60.000000, 58.000000)"></g>
        </g>
    </g>
</svg>