<?xml version="1.0" encoding="UTF-8"?>
<svg width="24px" height="24px" viewBox="0 0 24 24" version="1.1" xmlns="http://www.w3.org/2000/svg" xmlns:xlink="http://www.w3.org/1999/xlink">
    <!-- Generator: Sketch 52.3 (67297) - http://www.bohemiancoding.com/sketch -->
    <title>jollycons-[category]/icons/svg/icon-christmas-and-new-year-reindeer</title>
    <desc>Created with Sketch.</desc>
    <g id="icons" stroke="none" stroke-width="1" fill="none" fill-rule="evenodd">
        <g id="icons---export" transform="translate(-316.000000, -218.000000)">
            <g id="row-3" transform="translate(60.000000, 218.000000)" fill="#000000" fill-rule="nonzero">
                <g id="icon---15" transform="translate(256.000000, 0.000000)">
                    <path d="M17.4744801,9.16747717 C17.7974075,8.73657825 18.3219336,8.30533845 18.9944984,8.06054487 C20.2919432,7.58831359 21.6489874,7.98875253 21.8378799,8.50773043 C22.0267724,9.02670834 21.1891873,10.261247 19.8917426,10.7334783 C19.3977938,10.9132609 18.9084043,10.9566366 18.481272,10.9127735 C19.2562456,12.4530248 19.9614262,14.3706447 20.0326152,16.0108143 C20.2165161,20.2478264 17.3079874,22.9994526 12.0027499,23.0140418 C6.69478568,23.0286384 3.82725601,20.3121786 4.01117599,16.0644447 C4.082661,14.4134586 4.77779283,12.4666872 5.54394378,10.9087886 C5.10829017,10.9590107 4.60501015,10.9184131 4.09690581,10.7334783 C2.79946105,10.261247 1.96187594,9.02670834 2.15076845,8.50773043 C2.33966096,7.98875253 3.6967052,7.58831359 4.99414996,8.06054487 C5.67216661,8.30732274 6.19973475,8.74358174 6.52198146,9.17795558 C6.67368843,8.94797151 6.81818255,8.74775022 6.95041979,8.5835408 C7.64619728,7.71953899 8.48188227,7.04739356 9.40407634,6.60761637 C9.39623822,6.55717152 9.39217058,6.50547945 9.39217058,6.45283734 C9.39217058,6.29982457 9.26812922,5.99576545 9.11511645,5.99576545 L6,5.99576545 C3.790861,5.99576545 2,4.38492221 2,2.17578321 L2,2 C2,1.44771525 2.44771525,1 3,1 C3.55228475,1 4,1.44771525 4,2 L4,2.17578321 C4,3.28035271 4.8954305,3.99576545 6,3.99576545 L6.44815333,3.99576545 C6.38257471,3.21873307 6.62652734,2.42159291 7.15980332,1.46891434 C7.42956524,0.986994277 8.03892389,0.815006115 8.52084395,1.08476803 C9.00276402,1.35452995 9.17475218,1.9638886 8.90499026,2.44580867 C8.50078104,3.16791407 8.36830607,3.57526477 8.47252472,3.99576545 L9.11511645,3.99576545 C10.2368792,3.99576545 11.1691862,4.95015502 11.3574812,6.04884933 C11.569597,6.02577288 11.7839329,6.0140493 12,6.0140493 C12.2160671,6.0140493 12.430403,6.02577288 12.6425188,6.04884933 C12.8308138,4.95015502 13.7631208,3.99576545 14.8848835,3.99576545 L15.5264503,3.99576545 C15.6291035,3.57448263 15.4931527,3.16577129 15.0888295,2.4434623 C14.8190676,1.96154224 14.9910557,1.35218359 15.4729758,1.08242167 C15.9548958,0.812659748 16.5642545,0.984647909 16.8340164,1.46656798 C17.3674601,2.41954622 17.6138341,3.21781288 17.5498533,3.99576545 L18,3.99576545 C19.1045695,3.99576545 20,3.28035271 20,2.17578321 L20,2 C20,1.44771525 20.4477153,1 21,1 C21.5522847,1 22,1.44771525 22,2 L22,2.17578321 C22,4.38492221 20.209139,5.99576545 18,5.99576545 L14.8848835,5.99576545 C14.7318708,5.99576545 14.6078294,6.29982457 14.6078294,6.45283734 C14.6078294,6.50547945 14.6037618,6.55717152 14.5959237,6.60761637 C15.5181177,7.04739356 16.3538027,7.71953899 17.0495802,8.5835408 C17.180319,8.74588944 17.3236219,8.94247265 17.4744801,9.16747717 Z M11.9972501,21.0140493 C16.1386712,21.0026606 18.1702336,19.2248764 18.0344964,16.0975395 C17.9362369,13.8336733 16.2646616,10.7975849 15.4918751,9.83795498 C14.5484908,8.6664802 13.3063052,8.0140493 12,8.0140493 C10.6936948,8.0140493 9.45150921,8.6664802 8.50812485,9.83795498 C7.73791807,10.7943815 6.10764529,13.8797108 6.00930387,16.1509604 C5.87355579,19.2861375 7.8589061,21.0254296 11.9972501,21.0140493 Z M9,14 C8.44771525,14 8,13.5522847 8,13 C8,12.4477153 8.44771525,12 9,12 C9.55228475,12 10,12.4477153 10,13 C10,13.5522847 9.55228475,14 9,14 Z M15,14 C14.4477153,14 14,13.5522847 14,13 C14,12.4477153 14.4477153,12 15,12 C15.5522847,12 16,12.4477153 16,13 C16,13.5522847 15.5522847,14 15,14 Z M12,20 C10.3431458,20 9,18.8807119 9,17.5 C9,16.1192881 10.3431458,15 12,15 C13.6568542,15 15,16.1192881 15,17.5 C15,18.8807119 13.6568542,20 12,20 Z M12,17 C12.8284271,17 13.5,16.7761424 13.5,16.5 C13.5,16.2238576 12.8284271,16 12,16 C11.1715729,16 10.5,16.2238576 10.5,16.5 C10.5,16.7761424 11.1715729,17 12,17 Z" id="reindeer"></path>
                </g>
            </g>
            <g id="slices" transform="translate(60.000000, 58.000000)"></g>
        </g>
    </g>
</svg>