<?xml version="1.0" encoding="UTF-8"?>
<svg width="24px" height="24px" viewBox="0 0 24 24" version="1.1" xmlns="http://www.w3.org/2000/svg" xmlns:xlink="http://www.w3.org/1999/xlink">
    <!-- Generator: Sketch 52.3 (67297) - http://www.bohemiancoding.com/sketch -->
    <title>jollycons-[category]/icons/svg/icon-christmas-and-new-year-santas-sleigh</title>
    <desc>Created with Sketch.</desc>
    <g id="icons" stroke="none" stroke-width="1" fill="none" fill-rule="evenodd">
        <g id="icons---export" transform="translate(-60.000000, -218.000000)">
            <g id="row-3" transform="translate(60.000000, 218.000000)" fill="#000000" fill-rule="nonzero">
                <g id="icon---11">
                    <path d="M16,18 L17.438234,18 C19.2452444,18 20.7724618,16.6608542 21.0085733,14.8693359 C21.0807371,14.321786 21.5831143,13.9364095 22.1306641,14.0085733 C22.678214,14.0807371 23.0635905,14.5831143 22.9914267,15.1306641 C22.6241864,17.9171351 20.2488008,20 17.438234,20 L2,20 C1.44771525,20 1,19.5522847 1,19 C1,18.4477153 1.44771525,18 2,18 L6,18 L6,16 C3.23857625,16 1,13.7614237 1,11 L1,5 C1,4.1116951 2.07177269,3.66435998 2.70328009,4.28908712 L4.27471637,5.84365151 C5.02358271,6.58447757 6.03444978,7 7.08783671,7 L11.996558,7 C12.5488427,7 12.996558,7.44771525 12.996558,8 L12.996558,9.92655839 C12.996558,10.5194038 13.4771546,11 14.07,11 L14.9909796,11 C15.267122,11 15.4909796,10.7761424 15.4909796,10.5 L15.4909796,10 C15.4909796,8.8954305 16.3864101,8 17.4909796,8 L18,8 C19.1045695,8 20,8.8954305 20,10 L20,14 C20,15.1045695 19.1045695,16 18,16 L16,16 L16,18 Z M14,18 L14,16 L8,16 L8,18 L14,18 Z M3,11 C3,12.6568542 4.34314575,14 6,14 L18,14 L18,10 L17.4909796,10 L17.4909796,10.5 C17.4909796,11.8807119 16.3716915,13 14.9909796,13 L14.07,13 C12.3725851,13 10.996558,11.6239733 10.996558,9.92655839 L10.996558,9 L7.08783671,9 C5.5687602,9 4.10863371,8.42391487 3,7.39199592 L3,11 Z" id="santas-sleigh"></path>
                </g>
            </g>
            <g id="slices" transform="translate(60.000000, 58.000000)"></g>
        </g>
    </g>
</svg>