<?xml version="1.0" encoding="UTF-8"?>
<svg width="24px" height="24px" viewBox="0 0 24 24" version="1.1" xmlns="http://www.w3.org/2000/svg" xmlns:xlink="http://www.w3.org/1999/xlink">
    <!-- Generator: Sketch 52.3 (67297) - http://www.bohemiancoding.com/sketch -->
    <title>jollycons-[category]/icons/svg/icon-christmas-and-new-year-snowman</title>
    <desc>Created with Sketch.</desc>
    <g id="icons" stroke="none" stroke-width="1" fill="none" fill-rule="evenodd">
        <g id="icons---export" transform="translate(-61.000000, -58.000000)">
            <g id="row-1" transform="translate(60.000000, 58.000000)" fill="#000000">
                <g id="icon---1">
                    <path d="M6,7.5 C6,6.36970048 6.36895105,5.32452239 7,4.4556057 L7,3.5 C7,3.22385763 7.22385763,3 7.5,3 L9,3 L9,1 C9,0.44771525 9.44771525,1.01453063e-16 10,0 L14,0 C14.5522847,-1.01453063e-16 15,0.44771525 15,1 L15,3 L16.5,3 C16.7761424,3 17,3.22385763 17,3.5 L17,4.4556057 C17.6310489,5.32452239 18,6.36970048 18,7.5 C18,8.65846843 17.6124301,9.72751985 16.952333,10.609029 C18.1395156,11.4867372 19.0560383,12.6735826 19.5616854,14.042951 L20.862421,12.4588899 C21.2129043,12.0320645 21.8430375,11.970177 22.2698629,12.3206603 C22.6966883,12.6711436 22.7585757,13.3012768 22.4080924,13.7281022 L20.2588338,16.3455111 C20.1837083,16.4370005 20.0957341,16.5117227 19.9996677,16.5692106 C19.9600227,20.6963679 16.3779557,24 12,24 C7.59759925,24 4,20.6593721 4,16.5 C4,16.4944877 4.00000632,16.4889768 4.00001895,16.4834674 C3.95067471,16.4428045 3.90452955,16.3967917 3.86242103,16.3455111 L1.71316238,13.7281022 C1.36267909,13.3012768 1.42456657,12.6711436 1.85139194,12.3206603 C2.27821732,11.970177 2.9083505,12.0320645 3.2588338,12.4588899 L4.47653015,13.9418241 C4.98939973,12.6151453 5.88980563,11.4650594 7.04766703,10.609029 C6.38756993,9.72751985 6,8.65846843 6,7.5 Z M14.7971474,5 L9.20285261,5 C8.45839744,5.6391692 8,6.52860234 8,7.5 C8,9.4081315 9.76874278,11 12,11 C14.2312572,11 16,9.4081315 16,7.5 C16,6.52860234 15.5416026,5.6391692 14.7971474,5 Z M6,16.5 C6,19.2119236 8.15290495,21.4879643 11.0028072,21.9245018 C11.0414,21.4074833 11.4731136,21 12,21 C12.5268864,21 12.9586,21.4074833 12.9971928,21.9245018 C15.8470951,21.4879643 18,19.2119236 18,16.5 C18,14.6477478 16.9956844,12.9988319 15.4509291,12.0004689 C14.4721915,12.6312741 13.280204,13 12,13 C10.719796,13 9.52780849,12.6312741 8.54907088,12.0004689 C7.00431561,12.9988319 6,14.6477478 6,16.5 Z M12,20 C11.4477153,20 11,19.5522847 11,19 C11,18.4477153 11.4477153,18 12,18 C12.5522847,18 13,18.4477153 13,19 C13,19.5522847 12.5522847,20 12,20 Z M12,17 C11.4477153,17 11,16.5522847 11,16 C11,15.4477153 11.4477153,15 12,15 C12.5522847,15 13,15.4477153 13,16 C13,16.5522847 12.5522847,17 12,17 Z M11,8 C10.4477153,8 10,7.55228475 10,7 C10,6.44771525 10.4477153,6 11,6 C11.5522847,6 12,6.44771525 12,7 C12,7.55228475 11.5522847,8 11,8 Z M14,8 C13.4477153,8 13,7.55228475 13,7 C13,6.44771525 13.4477153,6 14,6 C14.5522847,6 15,6.44771525 15,7 C15,7.55228475 14.5522847,8 14,8 Z" id="snowman"></path>
                </g>
            </g>
            <g id="slices" transform="translate(60.000000, 58.000000)"></g>
        </g>
    </g>
</svg>