<?xml version="1.0" encoding="UTF-8"?>
<svg width="24px" height="24px" viewBox="0 0 24 24" version="1.1" xmlns="http://www.w3.org/2000/svg" xmlns:xlink="http://www.w3.org/1999/xlink">
    <!-- Generator: Sketch 52.3 (67297) - http://www.bohemiancoding.com/sketch -->
    <title>jollycons-[category]/icons/svg/icon-christmas-and-new-year-stocking</title>
    <desc>Created with Sketch.</desc>
    <g id="icons" stroke="none" stroke-width="1" fill="none" fill-rule="evenodd">
        <g id="icons---export" transform="translate(-252.000000, -138.000000)">
            <g id="row-2" transform="translate(60.000000, 138.000000)" fill="#000000">
                <g id="icon---9" transform="translate(192.000000, 0.000000)">
                    <path d="M10.2669669,19.6984948 L12.7721873,21.4072166 C13.2327525,21.7878138 13.8140929,22 14.4323094,22 C15.8546479,22 17,20.8763789 17,19.5 C17,18.7807887 16.6874926,18.1116799 16.1467929,17.6389909 L16.049796,17.5541944 L15.9774595,17.4475816 C15.9191647,17.3616641 15.8423789,17.2897938 15.7490546,17.2356986 L13.997019,16.2201338 C13.3798973,15.8624201 13,15.2031084 13,14.4898075 L13,11 L7,11 L7,13.0121654 C7.10370262,13.0041053 7.20851474,13 7.31428571,13 C9.52342471,13 11.3142857,14.790861 11.3142857,17 C11.3142857,18.0399061 10.9174561,18.9871277 10.2669669,19.6984948 Z M8.58049348,18.5482114 C9.02842412,18.1814358 9.31428571,17.6241012 9.31428571,17 C9.31428571,15.8954305 8.41885521,15 7.31428571,15 C7.20735633,15 7.10238689,15.0083915 7,15.0245519 L7,16.4134237 C7,17.0751482 7.32730448,17.6940365 7.87424684,18.0665057 L8.58049348,18.5482114 Z M4,9 L4,7 C4,5.8954305 4.8954305,5 6,5 L6.23482793,5 L8.95560445,1.49234111 C9.37181537,0.941560041 10.1557173,0.83246938 10.7064983,1.2486803 C10.7985778,1.31826239 10.8805771,1.40026161 10.9501591,1.49234111 L13.6709357,5 L14,5 C15.1045695,5 16,5.8954305 16,7 L16,9 C16,9.74028236 15.5978014,10.3866262 15,10.7324356 L15,14.4898075 L16.7520356,15.5053723 C17.0671982,15.6880558 17.3383444,15.9292444 17.5535738,16.2144547 C18.4677171,17.0573686 19,18.2368427 19,19.5 C19,21.9896143 16.9507332,24 14.4323094,24 C13.345713,24 12.3146998,23.6236855 11.5722996,23.0046122 L6.74849369,19.7195876 C5.65460896,18.9746492 5,17.7368726 5,16.4134237 L5,10.7324356 C4.40219863,10.3866262 4,9.74028236 4,9 Z M8.09478707,5 L11.8109765,5 L9.9528818,2.54114236 L8.09478707,5 Z M6,7 L6,9 L14,9 L14,7 L6,7 Z" id="stocking"></path>
                </g>
            </g>
            <g id="slices" transform="translate(60.000000, 58.000000)"></g>
        </g>
    </g>
</svg>