<svg xmlns="http://www.w3.org/2000/svg" width="24" height="24" viewBox="0 0 24 24">
  <path d="M18.5902391,3.99778478 L18.2975868,3.70514816 C17.8153425,3.22292979 17.9472701,2.40999892 18.5572662,2.10501725 L22.5539766,0.1067694 C23.2183309,-0.225389894 24,0.257682243 24,1.00041301 L24,2.99866085 C24,3.26364499 23.8947298,3.51777607 23.7073477,3.70514816 L21.7089925,5.70339601 C21.3187894,6.09357817 20.6861451,6.09357817 20.295942,5.70339601 L20.0032896,5.41075938 L13.4874324,11.9262667 C14.2153727,12.4012403 14.8782876,12.4369611 15.5597335,12.0962565 C16.2240877,11.7640972 17.0057569,12.2471693 17.0057569,12.9899001 C17.0057569,15.4318354 16.0674206,16.8566399 14.3335992,17.8198223 C14.1559782,17.9184953 13.9783242,18.0091809 13.7503403,18.11991 C13.787393,18.101914 13.3581271,18.3085865 13.2560568,18.3596189 C12.9625385,18.5063701 12.7991953,18.6092104 12.7163941,18.692007 C12.4513832,18.9570037 12.2819086,19.3298279 11.9585944,20.2997183 C11.5325254,21.5778568 11.285676,22.1208962 10.718039,22.6885027 C8.82906945,24.5773708 5.19889242,24.5773708 2.31074532,21.6893788 C-0.577401783,18.8013868 -0.577401783,15.1714048 1.31156773,13.2825367 C1.87920477,12.7149302 2.42227335,12.4680941 3.70048046,12.0420479 C4.67042293,11.7187511 5.04326714,11.5492856 5.30827809,11.2842889 C5.31166376,11.2809034 5.34585608,11.1673421 5.39968851,10.777078 C5.60780882,9.26828679 5.87895289,8.49336934 6.86255435,7.50982071 C7.86364837,6.50878046 9.43656227,5.69211904 11.7353737,5.03535105 C12.5713124,4.79652424 13.2923633,5.66529069 12.9035605,6.44285443 C12.0394244,8.17103382 11.8188033,9.47049522 12.1644011,10.4232776 L18.5902391,3.99778478 Z M10.2841242,7.65704411 C9.38107907,8.04970001 8.72471101,8.47371328 8.27560485,8.92279532 C7.6790675,9.51930062 7.53279582,9.93733845 7.37930138,11.0501134 C7.26565801,11.8739835 7.14547565,12.2731392 6.7213286,12.6972635 C6.15369155,13.26487 5.61062298,13.5117061 4.33241586,13.9377523 C3.3624734,14.2610491 2.98962918,14.4305146 2.72461823,14.6955113 C1.61605496,15.804015 1.61605496,18.1687765 3.72379582,20.2764042 C5.83153668,22.3840318 8.1964252,22.3840318 9.30498846,21.2755281 C9.56999941,21.0105314 9.73947406,20.6377072 10.0627882,19.6678168 C10.4888573,18.3896784 10.7357066,17.846639 11.3033436,17.2790324 C11.5762498,17.006141 11.8907989,16.8081022 12.3623652,16.5723317 C12.4801139,16.5134605 12.9276264,16.2980031 12.877251,16.3224698 C13.0751263,16.2263641 13.2228913,16.1509357 13.3631121,16.0730394 C14.1402345,15.6413279 14.6261627,15.1371452 14.8538633,14.3196913 C13.9025452,14.3664984 12.9594584,14.0374362 12.0568616,13.3567606 L10.718039,14.6955113 C10.3278358,15.0856935 9.69519158,15.0856935 9.30498846,14.6955113 C8.91478534,14.3053292 8.91478534,13.6727189 9.30498846,13.2825367 L10.6735321,11.9140666 C9.93893615,10.7511577 9.82328554,9.31712984 10.2841242,7.65704411 Z M8.71968378,16.2799085 C9.1098869,16.6700907 9.1098869,17.3027009 8.71968378,17.6928831 C8.32948066,18.0830653 7.6968364,18.0830653 7.30663328,17.6928831 L6.30745569,16.6937592 C5.91725256,16.303577 5.91725256,15.6709667 6.30745569,15.2807846 C6.69765881,14.8906024 7.33030307,14.8906024 7.72050619,15.2807846 L8.71968378,16.2799085 Z M6.7213286,18.2781563 C7.11153172,18.6683385 7.11153172,19.3009488 6.7213286,19.6911309 C6.33112547,20.0813131 5.69848122,20.0813131 5.30827809,19.6911309 L4.3091005,18.692007 C3.91889738,18.3018249 3.91889738,17.6692146 4.3091005,17.2790324 C4.69930362,16.8888503 5.33194788,16.8888503 5.722151,17.2790324 L6.7213286,18.2781563 Z"/>
</svg>
