<svg xmlns="http://www.w3.org/2000/svg" width="24" height="24" viewBox="0 0 24 24">
  <path d="M13.5,7.08578644 L15.2928932,5.29289322 C15.6834175,4.90236893 16.3165825,4.90236893 16.7071068,5.29289322 C17.0976311,5.68341751 17.0976311,6.31658249 16.7071068,6.70710678 L14.9142136,8.5 L15.7071068,9.29289322 C16.0976311,9.68341751 16.0976311,10.3165825 15.7071068,10.7071068 L9.20710678,17.2071068 C8.23546644,18.1787471 6.78260988,18.3758817 5.61570319,17.7985104 L4.70710678,18.7071068 C3.99306157,19.421152 3.99306157,20.578848 4.70710678,21.2928932 C5.42115199,22.0069384 6.57884801,22.0069384 7.29289322,21.2928932 L9.79289322,18.7928932 C11.0118446,17.5739418 12.9881554,17.5739418 14.2071068,18.7928932 C15.4260582,20.0118446 15.4260582,21.9881554 14.2071068,23.2071068 L13.7071068,23.7071068 C13.3165825,24.0976311 12.6834175,24.0976311 12.2928932,23.7071068 C11.9023689,23.3165825 11.9023689,22.6834175 12.2928932,22.2928932 L12.7928932,21.7928932 C13.2307961,21.3549904 13.2307961,20.6450096 12.7928932,20.2071068 C12.3549904,19.7692039 11.6450096,19.7692039 11.2071068,20.2071068 L8.70710678,22.7071068 C7.21201299,24.2022006 4.78798701,24.2022006 3.29289322,22.7071068 C1.79779943,21.212013 1.79779943,18.787987 3.29289322,17.2928932 L4.20148962,16.3842968 C3.62411834,15.2173901 3.82125288,13.7645336 4.79289322,12.7928932 L11.2928932,6.29289322 C11.6834175,5.90236893 12.3165825,5.90236893 12.7071068,6.29289322 L13.5,7.08578644 Z M12,8.41421356 L6.20710678,14.2071068 C5.76920395,14.6450096 5.76920395,15.3549904 6.20710678,15.7928932 C6.64500961,16.2307961 7.35499039,16.2307961 7.79289322,15.7928932 L13.5857864,10 L12,8.41421356 Z M18.7071068,4.70710678 C18.3165825,5.09763107 17.6834175,5.09763107 17.2928932,4.70710678 C16.9023689,4.31658249 16.9023689,3.68341751 17.2928932,3.29289322 L18.2928932,2.29289322 C18.6834175,1.90236893 19.3165825,1.90236893 19.7071068,2.29289322 C20.0976311,2.68341751 20.0976311,3.31658249 19.7071068,3.70710678 L18.7071068,4.70710678 Z M21,2 C20.4477153,2 20,1.55228475 20,1 C20,0.44771525 20.4477153,0 21,0 C21.5522847,0 22,0.44771525 22,1 C22,1.55228475 21.5522847,2 21,2 Z"/>
</svg>
