<svg xmlns="http://www.w3.org/2000/svg" width="24" height="24" viewBox="0 0 24 24">
  <path d="M12,3 C11.4477153,3 11,3.44771525 11,4 L11,12 C11,12.5522847 11.4477153,13 12,13 C12.5522847,13 13,12.5522847 13,12 L13,4 C13,3.44771525 12.5522847,3 12,3 Z M11,21 L11,18.9291111 C7.60770586,18.4438815 5,15.5264719 5,12 L5,10 C5,9.44771525 5.44771525,9 6,9 C6.55228475,9 7,9.44771525 7,10 L7,12 C7,14.7614237 9.23857625,17 12,17 C14.7614237,17 17,14.7614237 17,12 L17,10 C17,9.44771525 17.4477153,9 18,9 C18.5522847,9 19,9.44771525 19,10 L19,12 C19,15.5264719 16.3922941,18.4438815 13,18.9291111 L13,21 L14,21 C14.5522847,21 15,21.4477153 15,22 C15,22.5522847 14.5522847,23 14,23 L10,23 C9.44771525,23 9,22.5522847 9,22 C9,21.4477153 9.44771525,21 10,21 L11,21 Z M12,1 C13.6568542,1 15,2.34314575 15,4 L15,12 C15,13.6568542 13.6568542,15 12,15 C10.3431458,15 9,13.6568542 9,12 L9,4 C9,2.34314575 10.3431458,1 12,1 Z"/>
</svg>
