<svg xmlns="http://www.w3.org/2000/svg" width="24" height="24" viewBox="0 0 24 24">
  <path d="M10.4302117,20.3156908 C11.7371302,19.5611411 12.291349,18.2636825 11.8504367,17.5 C11.4095244,16.7363175 10.0087829,16.5675558 8.70186448,17.3221055 C7.39494603,18.0766553 6.84072718,19.3741138 7.28163947,20.1377963 C7.72255176,20.9014788 9.12329328,21.0702405 10.4302117,20.3156908 Z M12,1.97061363 C12,0.914120126 13.4252053,0.579434647 13.8954712,1.52549413 C15.4087015,4.5697421 16.8306025,6 18,6 C18.5522847,6 19,6.44771525 19,7 C19,7.55228475 18.5522847,8 18,8 C16.572166,8 15.2542665,7.16291298 14,5.54152085 L14,17.9337121 C14.0707352,19.4700762 13.0725898,21.0995142 11.4302117,22.0477416 C9.25726787,23.3022913 6.61550095,22.9840106 5.54958867,21.1377963 C4.48367638,19.2915821 5.52892063,16.8446045 7.70186448,15.5900547 C9.12494099,14.7684411 10.7490973,14.6214199 12,15.1363797 L12,1.97061363 Z"/>
</svg>
