<svg xmlns="http://www.w3.org/2000/svg" width="24" height="24" viewBox="0 0 24 24">
  <path d="M17.9444968,14.8285206 C17.8949364,14.9710067 17.8137804,15.1004332 17.7071068,15.2071068 L15.7071068,17.2071068 C15.3165825,17.5976311 14.6834175,17.5976311 14.2928932,17.2071068 C13.9023689,16.8165825 13.9023689,16.1834175 14.2928932,15.7928932 L16.1308078,13.9549786 L19.4864764,4.30743136 C19.1833562,3.95684089 19,3.49983302 19,3 C19,1.8954305 19.8954305,1 21,1 C22.1045695,1 23,1.8954305 23,3 C23,3.97627509 22.300496,4.78917226 21.3753437,4.96483583 L17.9444968,14.8285206 Z M12,15 C10.3431458,15 9,13.6568542 9,12 C9,10.3431458 10.3431458,9 12,9 C13.6568542,9 15,10.3431458 15,12 C15,13.6568542 13.6568542,15 12,15 Z M12,13 C12.5522847,13 13,12.5522847 13,12 C13,11.4477153 12.5522847,11 12,11 C11.4477153,11 11,11.4477153 11,12 C11,12.5522847 11.4477153,13 12,13 Z M17.820074,3.86731743 C18.2689551,4.18906923 18.3720138,4.81379062 18.050262,5.2626717 C17.7285102,5.71155278 17.1037888,5.81461142 16.6549077,5.49285962 C15.3075276,4.52707606 13.6947258,4 12,4 C7.581722,4 4,7.581722 4,12 C4,16.418278 7.581722,20 12,20 C16.418278,20 20,16.418278 20,12 C20,11.4477153 20.4477153,11 21,11 C21.5522847,11 22,11.4477153 22,12 C22,17.5228475 17.5228475,22 12,22 C6.4771525,22 2,17.5228475 2,12 C2,6.4771525 6.4771525,2 12,2 C14.1161905,2 16.1357258,2.6599997 17.820074,3.86731743 Z"/>
</svg>
