<svg xmlns="http://www.w3.org/2000/svg" width="24" height="24" viewBox="0 0 24 24">
  <path d="M15.8832399,16.9932561 C15.3859683,16.9354284 15,16.5127881 15,16 C15,15.4477153 15.4477153,15 16,15 L17.9733425,15 C19.6568542,15 21,13.6568542 21,12 C21,10.3431458 19.6568542,9 18,9 C17.9288436,9 17.8582658,9.00247732 17.7883482,9.00735042 C17.7545667,6.23609813 15.4975726,4 12.7183099,4 C10.6037601,4 8.79153294,5.29439686 8.03075439,7.13406453 C7.70189779,7.0466092 7.35639198,7 7,7 C4.790861,7 3,8.790861 3,11 C3,13.209139 4.790861,15 7,15 L13.0000003,15 C13.5522847,15 14,15.4477153 14,16 C14,16.5196162 13.6036844,16.9466679 13.096837,16.9953715 L7,17 C3.6862915,17 1,14.3137085 1,11 C1,7.70779328 3.65154333,5.03488769 6.93557447,5.00033875 C8.2340427,3.15650507 10.3692337,2 12.7183099,2 C15.9895492,2 18.7457556,4.2228711 19.5509033,7.24519075 C21.5531228,7.89783439 23,9.77994906 23,12 C23,14.6622937 20.9192605,16.8386046 18.2952894,16.991425 L15.8832399,16.9932561 Z M11,18 L18,18 C18.5522847,18 19,18.4477153 19,19 C19,19.5522847 18.5522847,20 18,20 L11,20 C10.4477153,20 10,19.5522847 10,19 C10,18.4477153 10.4477153,18 11,18 Z M6,18 L8,18 C8.55228475,18 9,18.4477153 9,19 C9,19.5522847 8.55228475,20 8,20 L6,20 C5.44771525,20 5,19.5522847 5,19 C5,18.4477153 5.44771525,18 6,18 Z M6,21 L12,21 C12.5522847,21 13,21.4477153 13,22 C13,22.5522847 12.5522847,23 12,23 L6,23 C5.44771525,23 5,22.5522847 5,22 C5,21.4477153 5.44771525,21 6,21 Z M15,21 L18,21 C18.5522847,21 19,21.4477153 19,22 C19,22.5522847 18.5522847,23 18,23 L15,23 C14.4477153,23 14,22.5522847 14,22 C14,21.4477153 14.4477153,21 15,21 Z"/>
</svg>
