<svg xmlns="http://www.w3.org/2000/svg" width="24" height="24" viewBox="0 0 24 24">
  <path d="M9.65699736,3 L6.38593627,11.9748566 L9.95711819,11.9748566 C10.6803303,11.9748566 11.1643898,12.7188666 10.8713494,13.3800496 L9.04731732,17.4955873 L17.5429046,9 L13.9571182,9 C13.2137362,9 12.7302405,8.2176875 13.062691,7.5527864 L15.3390842,3 L9.65699736,3 Z M8.42009669,13.9748566 L5.1,13.9748566 C4.49248678,13.9748566 4,13.4823699 4,12.8748566 C4.01125412,12.682634 4.01125412,12.682634 4.06650404,12.4981789 L7.99361015,1.72332229 C8.15190401,1.28900918 8.56484555,1 9.02710611,1 L16.7953148,1 C17.402828,1 17.8953148,1.49248678 17.8953148,2.1 C17.8953148,2.2707696 17.8555552,2.43919398 17.7791847,2.59193496 L15.5751522,7 L19.7156968,7 C20.3232101,7 20.8156968,7.49248678 20.8156968,8.1 C20.8156968,8.39173814 20.6998043,8.67152744 20.4935143,8.87781746 L7.04395556,22.3273762 C6.61437884,22.7569529 5.91789737,22.7569529 5.48832065,22.3273762 C5.16677576,22.0058313 5.07622913,21.5195777 5.26048381,21.1038465 L8.42009669,13.9748566 Z"/>
</svg>
