<svg xmlns="http://www.w3.org/2000/svg" width="24" height="24" viewBox="0 0 24 24">
  <path d="M17,4 L19,4 C20.6568542,4 22,5.34314575 22,7 L22,19 C22,20.6568542 20.6568542,22 19,22 L5,22 C3.34314575,22 2,20.6568542 2,19 L2,7 C2,5.34314575 3.34314575,4 5,4 L7,4 L7,3 C7,2.44771525 7.44771525,2 8,2 C8.55228475,2 9,2.44771525 9,3 L9,4 L15,4 L15,3 C15,2.44771525 15.4477153,2 16,2 C16.5522847,2 17,2.44771525 17,3 L17,4 Z M5,6 C4.44771525,6 4,6.44771525 4,7 L4,19 C4,19.5522847 4.44771525,20 5,20 L19,20 C19.5522847,20 20,19.5522847 20,19 L20,7 C20,6.44771525 19.5522847,6 19,6 L5,6 Z M4,8 L20,8 L20,10 L4,10 L4,8 Z M7.5,12 L8.5,12 C8.77614237,12 9,12.2238576 9,12.5 L9,13.5 C9,13.7761424 8.77614237,14 8.5,14 L7.5,14 C7.22385763,14 7,13.7761424 7,13.5 L7,12.5 C7,12.2238576 7.22385763,12 7.5,12 Z M11.5,12 L12.5,12 C12.7761424,12 13,12.2238576 13,12.5 L13,13.5 C13,13.7761424 12.7761424,14 12.5,14 L11.5,14 C11.2238576,14 11,13.7761424 11,13.5 L11,12.5 C11,12.2238576 11.2238576,12 11.5,12 Z M7.5,16 L8.5,16 C8.77614237,16 9,16.2238576 9,16.5 L9,17.5 C9,17.7761424 8.77614237,18 8.5,18 L7.5,18 C7.22385763,18 7,17.7761424 7,17.5 L7,16.5 C7,16.2238576 7.22385763,16 7.5,16 Z M11.5,16 L12.5,16 C12.7761424,16 13,16.2238576 13,16.5 L13,17.5 C13,17.7761424 12.7761424,18 12.5,18 L11.5,18 C11.2238576,18 11,17.7761424 11,17.5 L11,16.5 C11,16.2238576 11.2238576,16 11.5,16 Z M15.5,12 L16.5,12 C16.7761424,12 17,12.2238576 17,12.5 L17,13.5 C17,13.7761424 16.7761424,14 16.5,14 L15.5,14 C15.2238576,14 15,13.7761424 15,13.5 L15,12.5 C15,12.2238576 15.2238576,12 15.5,12 Z"/>
</svg>
