<svg xmlns="http://www.w3.org/2000/svg" width="24" height="24" viewBox="0 0 24 24">
  <path d="M14,4 L5,4 L5,21 L19,21 L19,9 L16,9 C14.8954305,9 14,8.1045695 14,7 L14,4 Z M16,4.40653885 L16,7 L18.573526,7 L16,4.40653885 L16,4.40653885 Z M5,2 L15.5965861,2 C16.1296935,2 16.6407387,2.2128378 17.0162454,2.59125321 L20.4196593,6.02103078 C20.7913991,6.3956502 21,6.90201795 21,7.42977757 L21,21 C21,22.1045695 20.1045695,23 19,23 L5,23 C3.8954305,23 3,22.1045695 3,21 L3,4 C3,2.8954305 3.8954305,2 5,2 Z M7,8 L10,8 C10.5522847,8 11,8.44771525 11,9 C11,9.55228475 10.5522847,10 10,10 L7,10 C6.44771525,10 6,9.55228475 6,9 C6,8.44771525 6.44771525,8 7,8 Z M7,11 L13,11 C13.5522847,11 14,11.4477153 14,12 C14,12.5522847 13.5522847,13 13,13 L7,13 C6.44771525,13 6,12.5522847 6,12 C6,11.4477153 6.44771525,11 7,11 Z M10.7346323,18.1823555 C9.51330368,19.3764645 8.18718839,18.6389032 7.96496841,17.2158337 C7.78645786,17.3057536 7.55722666,17.4410196 7.28746703,17.6223962 C6.94372707,17.8535147 6.47771229,17.7622168 6.24659388,17.4184769 C6.01547548,17.0747369 6.10677328,16.6087222 6.45051324,16.3776038 C7.1478597,15.908733 7.68877083,15.6453741 8.1428102,15.5927453 C8.91117563,15.5036821 9.43255846,16.023496 9.43255846,16.7897848 C9.43255846,17.3160366 9.45747386,17.3332353 9.68599131,17.1098108 C9.77309882,17.0246447 9.86293393,16.9290591 9.96417747,16.8148497 C10.049183,16.7189578 10.3551345,16.3605832 10.3308687,16.3887109 C10.4879636,16.2066139 10.6042334,16.0807754 10.724811,15.9682624 C11.1583319,15.5637368 11.6182097,15.3791056 12.1471851,15.605017 C12.4111592,15.7177534 12.6209267,15.9191527 12.800651,16.1953021 C13.1267647,16.6963814 13.2355643,17.1017064 13.2335132,17.5765688 C13.358254,17.5103646 13.5454655,17.3723505 13.8138523,17.109878 C14.235756,16.6972715 14.3835805,16.4076447 14.3613031,16.2685111 C14.2958154,15.8595072 14.5742902,15.4748556 14.9832942,15.4093678 C15.3922981,15.34388 15.7769497,15.6223549 15.8424374,16.0313589 C15.9584772,16.7560855 15.5972159,17.4638907 14.8626306,18.1822884 C13.8719763,19.1511121 12.8558082,19.3762715 12.1173853,18.8058874 C11.7254109,18.5031125 11.6878979,18.2515304 11.7271496,17.7192545 C11.7439871,17.4909284 11.7318827,17.3561936 11.6388854,17.1751593 C11.5902831,17.227132 11.534227,17.2901751 11.4666297,17.3685307 C11.499338,17.3306169 11.182582,17.7016472 11.0866374,17.8098792 C10.9634086,17.9488895 10.8499824,18.0695762 10.7346323,18.1823555 Z"/>
</svg>
