<svg xmlns="http://www.w3.org/2000/svg" width="24" height="24" viewBox="0 0 24 24">
  <path d="M16.5883771,15 L12.3300799,10.7417029 L11.0225546,11.9446737 C10.4398786,12.4807568 9.54088058,12.471649 8.96918532,11.9238708 L5,8.12073806 L5,19 L20,19 C20.5522847,19 21,19.4477153 21,20 C21,20.5522847 20.5522847,21 20,21 L4,21 C3.44771525,21 3,20.5522847 3,20 L3,5 C3,4.44771525 3.44771525,4 4,4 C4.55228475,4 5,4.44771525 5,5 L5,5.35084322 L10.0138962,10.1549809 L11.3288913,8.94513752 C11.9206786,8.40067169 12.836539,8.41973482 13.4051581,8.98835387 L18,13.5831958 L18,12 C18,11.4477153 18.4477153,11 19,11 C19.5522847,11 20,11.4477153 20,12 L20,16 C20,16.5522847 19.5522847,17 19,17 L15,17 C14.4477153,17 14,16.5522847 14,16 C14,15.4477153 14.4477153,15 15,15 L16.5883771,15 Z"/>
</svg>
