<svg xmlns="http://www.w3.org/2000/svg" width="24" height="24" viewBox="0 0 24 24">
  <path d="M11.1285326,5 L20,5 C21.1045695,5 22,5.8954305 22,7 L22,19 C22,20.1045695 21.1045695,21 20,21 L4,21 C2.8954305,21 2,20.1045695 2,19 L2,5 C2,3.8954305 2.8954305,3 4,3 L8.714319,3 C8.97953549,3 9.2338894,3.10535684 9.42142578,3.29289322 L11.1285326,5 Z M8.30010544,5 L4,5 L4,19 L20,19 L20,7 L10.714319,7 C10.4491025,7 10.1947486,6.89464316 10.0072122,6.70710678 L8.30010544,5 Z M4,9 L20,9 L20,11 L4,11 L4,9 Z"/>
</svg>
