<svg xmlns="http://www.w3.org/2000/svg" width="24" height="24" viewBox="0 0 24 24">
  <path d="M14,6 L20.5,6 C21.3284271,6 22,6.67157288 22,7.5 L22,20.5 C22,21.3284271 21.3284271,22 20.5,22 L2.5,22 C1.67157288,22 1,21.3284271 1,20.5 L1,3.5 C1,2.67157288 1.67157288,2 2.5,2 L12.5,2 C13.3284271,2 14,2.67157288 14,3.5 L14,6 Z M12,20 L12,4 L3,4 L3,20 L12,20 Z M14,8 L14,20 L20,20 L20,8 L14,8 Z M5.5,6 L6.5,6 C6.77614237,6 7,6.22385763 7,6.5 L7,8.5 C7,8.77614237 6.77614237,9 6.5,9 L5.5,9 C5.22385763,9 5,8.77614237 5,8.5 L5,6.5 C5,6.22385763 5.22385763,6 5.5,6 Z M8.5,6 L9.5,6 C9.77614237,6 10,6.22385763 10,6.5 L10,8.5 C10,8.77614237 9.77614237,9 9.5,9 L8.5,9 C8.22385763,9 8,8.77614237 8,8.5 L8,6.5 C8,6.22385763 8.22385763,6 8.5,6 Z M5.5,10 L6.5,10 C6.77614237,10 7,10.2238576 7,10.5 L7,12.5 C7,12.7761424 6.77614237,13 6.5,13 L5.5,13 C5.22385763,13 5,12.7761424 5,12.5 L5,10.5 C5,10.2238576 5.22385763,10 5.5,10 Z M5.5,14 L6.5,14 C6.77614237,14 7,14.2238576 7,14.5 L7,16.5 C7,16.7761424 6.77614237,17 6.5,17 L5.5,17 C5.22385763,17 5,16.7761424 5,16.5 L5,14.5 C5,14.2238576 5.22385763,14 5.5,14 Z M8.5,10 L9.5,10 C9.77614237,10 10,10.2238576 10,10.5 L10,12.5 C10,12.7761424 9.77614237,13 9.5,13 L8.5,13 C8.22385763,13 8,12.7761424 8,12.5 L8,10.5 C8,10.2238576 8.22385763,10 8.5,10 Z M8.5,14 L9.5,14 C9.77614237,14 10,14.2238576 10,14.5 L10,16.5 C10,16.7761424 9.77614237,17 9.5,17 L8.5,17 C8.22385763,17 8,16.7761424 8,16.5 L8,14.5 C8,14.2238576 8.22385763,14 8.5,14 Z M16.5,14 L17.5,14 C17.7761424,14 18,14.2238576 18,14.5 L18,16.5 C18,16.7761424 17.7761424,17 17.5,17 L16.5,17 C16.2238576,17 16,16.7761424 16,16.5 L16,14.5 C16,14.2238576 16.2238576,14 16.5,14 Z M16.5,10 L17.5,10 C17.7761424,10 18,10.2238576 18,10.5 L18,12.5 C18,12.7761424 17.7761424,13 17.5,13 L16.5,13 C16.2238576,13 16,12.7761424 16,12.5 L16,10.5 C16,10.2238576 16.2238576,10 16.5,10 Z"/>
</svg>
