<svg xmlns="http://www.w3.org/2000/svg" width="24" height="24" viewBox="0 0 24 24">
  <path d="M18,9.41680562 L13.4051581,14.0116476 C12.836539,14.5802666 11.9206786,14.5993297 11.3288913,14.0548639 L10.0138962,12.8450205 L5,17.6491582 L5,19 L20,19 C20.5522847,19 21,19.4477153 21,20 C21,20.5522847 20.5522847,21 20,21 L4,21 C3.44771525,21 3,20.5522847 3,20 L3,5 C3,4.44771525 3.44771525,4 4,4 C4.55228475,4 5,4.44771525 5,5 L5,14.8792634 L8.96918532,11.0761306 C9.54088058,10.5283525 10.4398786,10.5192446 11.0225546,11.0553277 L12.3300799,12.2582985 L16.5883785,8 L15,8 C14.4477153,8 14,7.55228475 14,7 C14,6.44771525 14.4477153,6 15,6 L19,6 C19.5522847,6 20,6.44771525 20,7 L20,11 C20,11.5522847 19.5522847,12 19,12 C18.4477153,12 18,11.5522847 18,11 L18,9.41680562 L18,9.41680562 Z"/>
</svg>
