<svg xmlns="http://www.w3.org/2000/svg" width="24" height="24" viewBox="0 0 24 24">
  <path d="M3,6 L3,16 L21,16 L21,6 L3,6 Z M7.25850337,18 C7.26175472,18.0963961 7.25100327,18.1948956 7.22474487,18.2928932 L6.70710678,20.2247449 C6.56416497,20.758211 6.01582801,21.0747935 5.48236191,20.9318517 C4.94889581,20.7889098 4.63231332,20.2405729 4.77525513,19.7071068 L5.23267301,18 L3,18 C1.8954305,18 1,17.1045695 1,16 L1,6 C1,4.8954305 1.8954305,4 3,4 L21,4 C22.1045695,4 23,4.8954305 23,6 L23,16 C23,17.1045695 22.1045695,18 21,18 L18.767327,18 L19.2247449,19.7071068 C19.3676867,20.2405729 19.0511042,20.7889098 18.5176381,20.9318517 C17.984172,21.0747935 17.435835,20.758211 17.2928932,20.2247449 L16.7752551,18.2928932 C16.7489967,18.1948956 16.7382453,18.0963961 16.7414966,18 L7.25850337,18 Z"/>
</svg>
