<svg xmlns="http://www.w3.org/2000/svg" width="24" height="24" viewBox="0 0 24 24">
  <path d="M3,4 L22,4 C23.1045695,4 24,4.8954305 24,6 L24,18 C24,19.1045695 23.1045695,20 22,20 L3,20 C1.8954305,20 1,19.1045695 1,18 L1,6 C1,4.8954305 1.8954305,4 3,4 Z M3,6 L3,18 L22,18 L22,6 L3,6 Z M8.30000001,14 L15.7,14 C15.8656854,14 16,14.1343146 16,14.3 L16,15.7 C16,15.8656854 15.8656854,16 15.7,16 L8.30000001,16 C8.13431458,16 8,15.8656854 8,15.7 L8,14.3 C8,14.1343146 8.13431458,14 8.30000001,14 Z M4.30000001,11 L6.69999999,11 C6.86568542,11 7,11.1343146 7,11.3 L7,12.7 C7,12.8656854 6.86568542,13 6.69999999,13 L4.30000001,13 C4.13431458,13 4,12.8656854 4,12.7 L4,11.3 C4,11.1343146 4.13431458,11 4.30000001,11 Z M8.30000001,11 L9.69999999,11 C9.86568542,11 10,11.1343146 10,11.3 L10,12.7 C10,12.8656854 9.86568542,13 9.69999999,13 L8.30000001,13 C8.13431458,13 8,12.8656854 8,12.7 L8,11.3 C8,11.1343146 8.13431458,11 8.30000001,11 Z M11.3,11 L12.7,11 C12.8656854,11 13,11.1343146 13,11.3 L13,12.7 C13,12.8656854 12.8656854,13 12.7,13 L11.3,13 C11.1343146,13 11,12.8656854 11,12.7 L11,11.3 C11,11.1343146 11.1343146,11 11.3,11 Z M14.3,11 L15.7,11 C15.8656854,11 16,11.1343146 16,11.3 L16,12.7 C16,12.8656854 15.8656854,13 15.7,13 L14.3,13 C14.1343146,13 14,12.8656854 14,12.7 L14,11.3 C14,11.1343146 14.1343146,11 14.3,11 Z M17.3,11 L20.7,11 C20.8656854,11 21,11.1343146 21,11.3 L21,12.7 C21,12.8656854 20.8656854,13 20.7,13 L17.3,13 C17.1343146,13 17,12.8656854 17,12.7 L17,11.3 C17,11.1343146 17.1343146,11 17.3,11 Z M7.30000001,8 L8.69999999,8 C8.86568542,8 9,8.13431458 9,8.30000001 L9,9.69999999 C9,9.86568542 8.86568542,10 8.69999999,10 L7.30000001,10 C7.13431458,10 7,9.86568542 7,9.69999999 L7,8.30000001 C7,8.13431458 7.13431458,8 7.30000001,8 Z M4.30000001,8 L5.69999999,8 C5.86568542,8 6,8.13431458 6,8.30000001 L6,9.69999999 C6,9.86568542 5.86568542,10 5.69999999,10 L4.30000001,10 C4.13431458,10 4,9.86568542 4,9.69999999 L4,8.30000001 C4,8.13431458 4.13431458,8 4.30000001,8 Z M10.3,8 L11.7,8 C11.8656854,8 12,8.13431458 12,8.30000001 L12,9.69999999 C12,9.86568542 11.8656854,10 11.7,10 L10.3,10 C10.1343146,10 10,9.86568542 10,9.69999999 L10,8.30000001 C10,8.13431458 10.1343146,8 10.3,8 Z M13.3,8 L14.7,8 C14.8656854,8 15,8.13431458 15,8.30000001 L15,9.69999999 C15,9.86568542 14.8656854,10 14.7,10 L13.3,10 C13.1343146,10 13,9.86568542 13,9.69999999 L13,8.30000001 C13,8.13431458 13.1343146,8 13.3,8 Z M16.3,8 L17.7,8 C17.8656854,8 18,8.13431458 18,8.30000001 L18,9.69999999 C18,9.86568542 17.8656854,10 17.7,10 L16.3,10 C16.1343146,10 16,9.86568542 16,9.69999999 L16,8.30000001 C16,8.13431458 16.1343146,8 16.3,8 Z M19.3,8 L20.7,8 C20.8656854,8 21,8.13431458 21,8.30000001 L21,9.69999999 C21,9.86568542 20.8656854,10 20.7,10 L19.3,10 C19.1343146,10 19,9.86568542 19,9.69999999 L19,8.30000001 C19,8.13431458 19.1343146,8 19.3,8 Z"/>
</svg>
