<svg xmlns="http://www.w3.org/2000/svg" width="24" height="24" viewBox="0 0 24 24">
  <path d="M7,10 L17,10 L17,4 C17,3.44771525 16.5522847,3 16,3 L8,3 C7.44771525,3 7,3.44771525 7,4 L7,10 Z M7,18 L7,21 L17,21 L17,18 L7,18 Z M19,10 L20,10 C21.1045695,10 22,10.8954305 22,12 L22,16 C22,17.1045695 21.1045695,18 20,18 L19,18 L19,21 C19,22.1045695 18.1045695,23 17,23 L7,23 C5.8954305,23 5,22.1045695 5,21 L5,18 L4,18 C2.8954305,18 2,17.1045695 2,16 L2,12 C2,10.8954305 2.8954305,10 4,10 L5,10 L5,4 C5,2.34314575 6.34314575,1 8,1 L16,1 C17.6568542,1 19,2.34314575 19,4 L19,10 Z M4,12 L4,16 L20,16 L20,12 L4,12 Z M17,15 C16.4477153,15 16,14.5522847 16,14 C16,13.4477153 16.4477153,13 17,13 C17.5522847,13 18,13.4477153 18,14 C18,14.5522847 17.5522847,15 17,15 Z"/>
</svg>
