<svg xmlns="http://www.w3.org/2000/svg" width="24" height="24" viewBox="0 0 24 24">
  <path d="M18.8137085,14.0208153 L12.0961941,20.7383297 C9.55778618,23.2767376 5.44221382,23.2767376 2.90380592,20.7383297 C0.365398026,18.1999218 0.365398026,14.0843494 2.90380592,11.5459415 L9.62132034,4.82842712 C10.0118446,4.43790283 10.6450096,4.43790283 11.0355339,4.82842712 L14.5710678,1.29289322 C14.9615921,0.902368927 15.5947571,0.902368927 15.9852814,1.29289322 L22.3492424,7.65685425 C22.7397667,8.04737854 22.7397667,8.68054352 22.3492424,9.07106781 L18.8137085,12.6066017 C19.2042328,12.997126 19.2042328,13.630291 18.8137085,14.0208153 Z M10.3284271,6.94974747 L4.31801948,12.9601551 C2.56066017,14.7175144 2.56066017,17.5667568 4.31801948,19.3241161 C6.0753788,21.0814755 8.9246212,21.0814755 10.6819805,19.3241161 L16.6923882,13.3137085 L10.3284271,6.94974747 Z M5.43291209,18.1182517 C4.87224683,17.5575864 4.87224683,16.6485684 5.43291209,16.0879032 C5.99357735,15.5272379 6.90259534,15.5272379 7.4632606,16.0879032 C8.02392585,16.6485684 8.02392585,17.5575864 7.4632606,18.1182517 C6.90259534,18.678917 5.99357735,18.678917 5.43291209,18.1182517 Z M15.2781746,3.41421356 L12.4497475,6.24264069 L17.3994949,11.1923882 L20.2279221,8.36396103 L15.2781746,3.41421356 Z M15.631728,5.18198052 L16.3388348,5.8890873 C16.5340969,6.08434944 16.5340969,6.40093193 16.3388348,6.59619408 L15.631728,7.30330086 C15.4364658,7.498563 15.1198833,7.498563 14.9246212,7.30330086 L14.2175144,6.59619408 C14.0222523,6.40093193 14.0222523,6.08434944 14.2175144,5.8890873 L14.9246212,5.18198052 C15.1198833,4.98671837 15.4364658,4.98671837 15.631728,5.18198052 Z M17.7530483,7.30330086 L18.4601551,8.01040764 C18.6554173,8.20566979 18.6554173,8.52225228 18.4601551,8.71751442 L17.7530483,9.4246212 C17.5577862,9.61988335 17.2412037,9.61988335 17.0459415,9.4246212 L16.3388348,8.71751442 C16.1435726,8.52225228 16.1435726,8.20566979 16.3388348,8.01040764 L17.0459415,7.30330086 C17.2412037,7.10803871 17.5577862,7.10803871 17.7530483,7.30330086 Z"/>
</svg>
