<svg xmlns="http://www.w3.org/2000/svg" width="24" height="24" viewBox="0 0 24 24">
  <path fill-rule="evenodd" d="M13.7441112,19.679 C14.9001112,18.396 15.5241112,16.735 15.5341112,15.038 C16.9991112,14.18 18.1251112,12.809 18.6591112,11.167 C20.4981112,12.694 21.0351112,15.359 19.7991112,17.5 C18.5641112,19.641 15.9871112,20.508 13.7441112,19.679 Z M5.35111123,11.167 C5.88511123,12.809 7.01111123,14.18 8.47511123,15.038 C8.48611123,16.735 9.11111123,18.396 10.2661112,19.679 C8.02311123,20.508 5.44611123,19.641 4.21111123,17.5 C2.97511123,15.359 3.51211123,12.694 5.35111123,11.167 Z M16.9201112,8.154 C15.2311112,7.796 13.4811112,8.085 12.0051112,8.924 C10.5291112,8.085 8.77911123,7.796 7.09111123,8.154 C7.49411123,5.797 9.53311123,4 12.0051112,4 C14.4771112,4 16.5161112,5.797 16.9201112,8.154 Z M10.6411112,13.788 C10.7511112,13.348 10.9011112,12.913 11.1391112,12.5 C11.3771112,12.087 11.6791112,11.74 12.0051112,11.425 C12.3311112,11.74 12.6331112,12.087 12.8711112,12.5 C13.1101112,12.913 13.2591112,13.348 13.3691112,13.788 C12.9331112,13.912 12.4821112,14 12.0051112,14 C11.5281112,14 11.0771112,13.912 10.6411112,13.788 Z M10.2571112,10.328 C9.94011123,10.682 9.65411123,11.072 9.40711123,11.5 C9.16011123,11.928 8.96511123,12.371 8.81711123,12.822 C8.01711123,12.154 7.42911123,11.251 7.16911123,10.208 C8.20211123,9.912 9.27811123,9.969 10.2571112,10.328 Z M10.5651112,15.85 C11.0301112,15.947 11.5111112,16 12.0051112,16 C12.4991112,16 12.9801112,15.947 13.4451112,15.85 C13.2671112,16.877 12.7781112,17.837 12.0051112,18.584 C11.2321112,17.837 10.7441112,16.877 10.5651112,15.85 Z M14.6031112,11.5 C14.3571112,11.072 14.0701112,10.682 13.7531112,10.328 C14.7331112,9.969 15.8081112,9.912 16.8411112,10.208 C16.5811112,11.251 15.9931112,12.154 15.1941112,12.822 C15.0451112,12.371 14.8501112,11.928 14.6031112,11.5 Z M12.0051112,2 C8.15311123,2 5.02911123,5.112 5.00711123,8.96 C1.68611123,10.902 0.552111234,15.164 2.47911123,18.5 C4.40511123,21.836 8.66211123,22.985 12.0051112,21.081 C15.3481112,22.985 19.6051112,21.836 21.5311112,18.5 C23.4571112,15.164 22.3231112,10.902 19.0031112,8.96 C18.9811112,5.112 15.8581112,2 12.0051112,2 Z"/>
</svg>
