<svg xmlns="http://www.w3.org/2000/svg" width="24" height="24" viewBox="0 0 24 24">
  <path d="M12,22 C8.13400675,22 5,18.8659932 5,15 C5,12.5117583 7.05919629,8.39336575 11.177206,2.43166032 C11.5747614,1.85611323 12.4252386,1.85611323 12.822794,2.43166032 C16.9408037,8.39336575 19,12.5117583 19,15 C19,18.8659932 15.8659932,22 12,22 Z M7,15 C7,17.7614237 9.23857625,20 12,20 C14.7614237,20 17,17.7614237 17,15 C17,13.2115129 15.3334349,9.7472147 12,4.77672299 C8.66656511,9.7472147 7,13.2115129 7,15 Z M8.5,15 C8.5,14.4477153 8.94771525,14 9.5,14 C10.0522847,14 10.5,14.4477153 10.5,15 C10.5,15.8284271 11.1715729,16.5 12,16.5 C12.5522847,16.5 13,16.9477153 13,17.5 C13,18.0522847 12.5522847,18.5 12,18.5 C10.0670034,18.5 8.5,16.9329966 8.5,15 Z"/>
</svg>
