<svg xmlns="http://www.w3.org/2000/svg" width="24" height="24" viewBox="0 0 24 24">
  <path d="M17.0000509,8.04180676 L19.3916194,6.20827094 C19.8299161,5.87224348 20.4576298,5.95514907 20.7936573,6.39344576 C21.1296848,6.83174245 21.0467792,7.4594562 20.6084825,7.79548366 L5.60848247,19.2954837 C5.17018578,19.6315111 4.54247203,19.5486055 4.20644457,19.1103088 C3.87041711,18.6720122 3.9533227,18.0442984 4.39161939,17.7082709 L7.17827058,15.5718384 C7.06591085,15.4101405 7.00005093,15.2137001 7.00005093,15.0018773 L7.00005093,9.0018773 C7.00005093,8.44959255 7.44776618,8.0018773 8.00005093,8.0018773 L10.6492699,8.0018773 L15.3753559,4.22100849 C16.0301192,3.69719782 17.0000509,4.16337109 17.0000509,5.0018773 L17.0000509,8.04180676 Z M15.0000509,9.57514009 L15.0000509,7.08250215 L11.624746,9.78274611 C11.4474329,9.92459655 11.2271224,10.0018773 11.0000509,10.0018773 L9.00005093,10.0018773 L9.00005093,14.0018773 L9.22604587,14.0018773 L15.0000509,9.57514009 Z M15.0000509,16.9212525 L15.0000509,13.5018773 C15.0000509,12.9495926 15.4477662,12.5018773 16.0000509,12.5018773 C16.5523357,12.5018773 17.0000509,12.9495926 17.0000509,13.5018773 L17.0000509,19.0018773 C17.0000509,19.8403835 16.0301192,20.3065568 15.3753559,19.7827461 L11.8954589,16.9988285 C11.4641969,16.6538189 11.3942755,16.0245266 11.7392851,15.5932646 C12.0842946,15.1620027 12.713587,15.0920813 13.1448489,15.4370909 L15.0000509,16.9212525 Z"/>
</svg>
