<svg xmlns="http://www.w3.org/2000/svg" width="24" height="24" viewBox="0 0 24 24">
  <path d="M7.80277564,12.0016814 L17,18.1331643 L17,5.87019851 L7.80277564,12.0016814 Z M7,10.1331643 L17.4452998,3.16963112 C18.1098545,2.72659464 19,3.20298603 19,4.00168142 L19,20.0016814 C19,20.8003768 18.1098545,21.2767682 17.4452998,20.8337317 L7,13.8701985 L7,20.027979 C7,20.5802638 6.55228475,21.027979 6,21.027979 C5.44771525,21.027979 5,20.5802638 5,20.027979 L5,4.00168142 C5,3.44939667 5.44771525,3.00168142 6,3.00168142 C6.55228475,3.00168142 7,3.44939667 7,4.00168142 L7,10.1331643 Z"/>
</svg>
