<svg xmlns="http://www.w3.org/2000/svg" width="24" height="24" viewBox="0 0 24 24">
  <path d="M20.3356362,3.25454623 C20.9805374,2.68130067 22,3.13910672 22,4.00195555 L22,20.0019555 C22,20.8648044 20.9805374,21.3226104 20.3356362,20.7493649 L13,14.2287994 L13,20.0019555 C13,20.8648044 11.9805374,21.3226104 11.3356362,20.7493649 L2.33563616,12.7493649 C1.88812128,12.3515739 1.88812128,11.6523372 2.33563616,11.2545462 L11.3356362,3.25454623 C11.9805374,2.68130067 13,3.13910672 13,4.00195555 L13,9.77511171 L20.3356362,3.25454623 Z M4.50519932,12.0019555 L11,17.7751117 L11,6.22879939 L4.50519932,12.0019555 Z M13.5051993,12.0019555 L20,17.7751117 L20,6.22879939 L13.5051993,12.0019555 Z"/>
</svg>
