<svg xmlns="http://www.w3.org/2000/svg" width="24" height="24" viewBox="0 0 24 24">
  <path d="M15,21 L20,21 L20,10 L16,10 L16,4 L8,4 L8,10 L4,10 L4,21 L9,21 L9,17 C9,16.4477153 9.44771525,16 10,16 L14,16 C14.5522847,16 15,16.4477153 15,17 L15,21 Z M6,8 L6,4 C6,2.8954305 6.8954305,2 8,2 L16,2 C17.1045695,2 18,2.8954305 18,4 L18,8 L20,8 C21.1045695,8 22,8.8954305 22,10 L22,21 C22,22.1045695 21.1045695,23 20,23 L4,23 C2.8954305,23 2,22.1045695 2,21 L2,10 C2,8.8954305 2.8954305,8 4,8 L6,8 Z M5.5,12 L6.5,12 C6.77614237,12 7,12.2238576 7,12.5 L7,13.5 C7,13.7761424 6.77614237,14 6.5,14 L5.5,14 C5.22385763,14 5,13.7761424 5,13.5 L5,12.5 C5,12.2238576 5.22385763,12 5.5,12 Z M5.5,16 L6.5,16 C6.77614237,16 7,16.2238576 7,16.5 L7,17.5 C7,17.7761424 6.77614237,18 6.5,18 L5.5,18 C5.22385763,18 5,17.7761424 5,17.5 L5,16.5 C5,16.2238576 5.22385763,16 5.5,16 Z M17.5,16 L18.5,16 C18.7761424,16 19,16.2238576 19,16.5 L19,17.5 C19,17.7761424 18.7761424,18 18.5,18 L17.5,18 C17.2238576,18 17,17.7761424 17,17.5 L17,16.5 C17,16.2238576 17.2238576,16 17.5,16 Z M9.5,12 L10.5,12 C10.7761424,12 11,12.2238576 11,12.5 L11,13.5 C11,13.7761424 10.7761424,14 10.5,14 L9.5,14 C9.22385763,14 9,13.7761424 9,13.5 L9,12.5 C9,12.2238576 9.22385763,12 9.5,12 Z M13.5,12 L14.5,12 C14.7761424,12 15,12.2238576 15,12.5 L15,13.5 C15,13.7761424 14.7761424,14 14.5,14 L13.5,14 C13.2238576,14 13,13.7761424 13,13.5 L13,12.5 C13,12.2238576 13.2238576,12 13.5,12 Z M17.5,12 L18.5,12 C18.7761424,12 19,12.2238576 19,12.5 L19,13.5 C19,13.7761424 18.7761424,14 18.5,14 L17.5,14 C17.2238576,14 17,13.7761424 17,13.5 L17,12.5 C17,12.2238576 17.2238576,12 17.5,12 Z M13,7 L14,7 C14.5522847,7 15,7.44771525 15,8 C15,8.55228475 14.5522847,9 14,9 L13,9 L13,10.25 C13,10.6642136 12.6642136,11 12.25,11 L11.75,11 C11.3357864,11 11,10.6642136 11,10.25 L11,9 L10,9 C9.44771525,9 9,8.55228475 9,8 C9,7.44771525 9.44771525,7 10,7 L11,7 L11,5.75 C11,5.33578644 11.3357864,5 11.75,5 L12.25,5 C12.6642136,5 13,5.33578644 13,5.75 L13,7 Z"/>
</svg>
