<svg xmlns="http://www.w3.org/2000/svg" width="24" height="24" viewBox="0 0 24 24">
  <path d="M10.857233,13.1124369 C11.2477573,13.5029612 11.2477573,14.1361261 10.857233,14.5266504 C10.4667088,14.9171747 9.83354378,14.9171747 9.44301948,14.5266504 L7.63235931,12.7159903 L5.96814575,14.3802038 L10.2107864,18.6228445 L15.8676407,12.9659903 C17.0392136,11.7944174 17.0392136,9.89492245 15.8676407,8.72334957 C14.6960678,7.5517767 12.7965729,7.5517767 11.625,8.72334957 L11.1678932,9.18045635 L12.2714466,10.2840097 C12.6619709,10.674534 12.6619709,11.307699 12.2714466,11.6982233 C11.8809223,12.0887476 11.2477573,12.0887476 10.857233,11.6982233 L9.75367966,10.5946699 L9.04657288,11.3017767 L10.857233,13.1124369 Z M4.55393219,12.9659903 L10.2107864,7.30913601 C11.921248,5.59867447 14.5626548,5.3865467 16.504024,6.67275271 L19.6531746,3.5236021 C20.0436989,3.13307781 20.6768639,3.13307781 21.0673882,3.5236021 C21.4579124,3.91412639 21.4579124,4.54729137 21.0673882,4.93781566 L17.9182375,8.08696628 C19.2044436,10.0283355 18.9923158,12.6697423 17.2818542,14.3802038 L11.625,20.0370581 L12.0214466,20.4335047 C12.4119709,20.824029 12.4119709,21.4571939 12.0214466,21.8477182 C11.6309223,22.2382425 10.9977573,22.2382425 10.607233,21.8477182 L8.4859127,19.7263979 L7.07169914,21.1406115 L7.38235931,21.4512716 C7.7728836,21.8417959 7.7728836,22.4749609 7.38235931,22.8654852 C6.99183502,23.2560095 6.35867004,23.2560095 5.96814575,22.8654852 L1.72550506,18.6228445 C1.33498077,18.2323202 1.33498077,17.5991552 1.72550506,17.2086309 C2.11602936,16.8181067 2.74919433,16.8181067 3.13971863,17.2086309 L3.53616524,17.6050776 L4.9503788,16.190864 L2.82905845,14.0695436 C2.43853416,13.6790194 2.43853416,13.0458544 2.82905845,12.6553301 C3.21958275,12.2648058 3.85274772,12.2648058 4.24327202,12.6553301 L4.55393219,12.9659903 Z"/>
</svg>
