<?xml version="1.0" encoding="UTF-8"?>
<svg width="24px" height="24px" viewBox="0 0 24 24" version="1.1" xmlns="http://www.w3.org/2000/svg" xmlns:xlink="http://www.w3.org/1999/xlink">
    <!-- Generator: Sketch 56.3 (81716) - https://sketch.com -->
    <title>jollycons-landmarks/jollycons-landmarks/svg/icon-landmarks-icon-burj-al-arab</title>
    <desc>Created with Sketch.</desc>
    <g id="icons" stroke="none" stroke-width="1" fill="none" fill-rule="evenodd">
        <g id="icons---export" transform="translate(-60.000000, -58.000000)">
            <g id="row-1" transform="translate(60.000000, 58.000000)" fill="#000000">
                <g id="icon---1">
                    <path d="M5,22 L5,12 C4.44771525,12 4,11.5522847 4,11 C4,10.4477153 4.44771525,10 5,10 L5,1 C5,0.44771525 5.44771525,0 6,0 C6.55228475,0 7,0.44771525 7,1 L7,2.99958521 C11.9046263,2.8632204 15.4160937,5.23595718 17.5484782,10 L18,10 C18.5522847,10 19,10.4477153 19,11 C19,11.4470799 18.7066094,11.8256348 18.3018591,11.9536338 C19.2074654,14.6914259 19.7559232,18.0454003 19.9490905,22 L21,22 C21.5522847,22 22,22.4477153 22,23 C22,23.5522847 21.5522847,24 21,24 L4,24 C3.44771525,24 3,23.5522847 3,23 C3,22.4477153 3.44771525,22 4,22 L5,22 Z M7,22 L15.0120257,22 C15.0036608,21.6621285 14.9913197,21.3287982 14.9750043,21 L7,21 L7,22 Z M17.0124949,22 L17.9469719,22 C17.7435617,17.9191777 17.166182,14.5930967 16.2174328,12 L15.2511162,12 C16.3345387,14.8225979 16.920881,18.1594097 17.0124949,22 L17.0124949,22 Z M7,12 L7,13 L13.4919427,13 C13.3664712,12.6580292 13.2333137,12.3247039 13.0924757,12 L7,12 Z M7,10 L12.0624917,10 C10.7857971,7.8958047 9.09758876,6.25142989 7,5.0574101 L7,10 Z M15.3365177,10 C14.3039292,8.0472837 12.975509,6.67475741 11.3531108,5.86690704 C12.5410098,7.0492146 13.5417507,8.427711 14.3558736,10 L15.3365177,10 Z M7,15 L7,16 L14.3487671,16 C14.2755129,15.6579133 14.1963167,15.3225484 14.1111821,14.993889 C14.0746776,14.9979269 14.0375809,15 14,15 L7,15 Z M14.8208851,19 C14.7849275,18.661279 14.7442275,18.3279495 14.6987877,18 L7,18 L7,19 L14.8208851,19 Z" id="burj-al-arab"></path>
                </g>
            </g>
            <g id="slices" transform="translate(60.000000, 58.000000)"></g>
        </g>
    </g>
</svg>