<?xml version="1.0" encoding="UTF-8"?>
<svg width="24px" height="24px" viewBox="0 0 24 24" version="1.1" xmlns="http://www.w3.org/2000/svg" xmlns:xlink="http://www.w3.org/1999/xlink">
    <!-- Generator: Sketch 56.3 (81716) - https://sketch.com -->
    <title>jollycons-landmarks/jollycons-landmarks/svg/icon-landmarks-icon-christ-the-redeemer</title>
    <desc>Created with Sketch.</desc>
    <g id="icons" stroke="none" stroke-width="1" fill="none" fill-rule="evenodd">
        <g id="icons---export" transform="translate(-252.000000, -58.000000)">
            <g id="row-1" transform="translate(60.000000, 58.000000)" fill="#000000" fill-rule="nonzero">
                <g id="icon---4" transform="translate(192.000000, 0.000000)">
                    <path d="M20.514577,9.12245456 L19.9685755,11.2487196 C19.8758462,11.6098306 19.5899307,11.8893715 19.2268209,11.9739365 L15.8284489,12.7653863 L15.2049876,19 L16,19 C16.5522847,19 17,19.4477153 17,20 L17,23 C17,23.5522847 16.5522847,24 16,24 L7,24 C6.44771525,24 6,23.5522847 6,23 L6,20 C6,19.4477153 6.44771525,19 7,19 L7.79501244,19 L7.17155107,12.7653863 L3.77317909,11.9739365 C3.4100693,11.8893715 3.12415381,11.6098306 3.03142446,11.2487196 L2.47988522,9.10088916 C0.123357352,8.69954868 -0.337904391,7.64933143 0.58465181,6.87521487 C1.02843283,6.50283837 1.56399197,6.38350212 2.19132922,6.51720609 C2.41253443,6.21474499 2.79904006,6.03802658 3.21396548,6.12891108 C5.14776904,6.55248781 6.7945606,6.87399915 8.14822778,7.09366422 C8.05134289,6.74811514 8,6.38550815 8,6.01372311 L8,4.5 C8,2.56700338 9.56700338,1 11.5,1 C13.4329966,1 15,2.56700338 15,4.5 L15,6.01372311 C15,6.38550815 14.9486571,6.74811514 14.8517722,7.09366422 C16.2054394,6.87399915 17.852231,6.55248781 19.7860345,6.12891108 C20.2124957,6.03549982 20.6089348,6.22477805 20.8267343,6.54272161 C21.5012056,6.37064007 22.0730639,6.48147115 22.5423094,6.87521487 C23.4819028,7.66362733 22.9862342,8.73843235 20.514577,9.12245456 L20.514577,9.12245456 Z M18.380497,8.47157239 C16.2681719,8.90360273 14.5528301,9.19262766 13.2247699,9.3382994 C12.9105349,9.54860605 12.5627637,9.71663989 12.1882662,9.83315022 L11.7970666,9.95485678 C11.6035956,10.0150477 11.3964044,10.0150477 11.2029334,9.95485678 L10.8117338,9.83315022 C10.4372363,9.71663989 10.0894651,9.54860605 9.77523013,9.3382994 C8.47113598,9.19525644 6.79361178,8.91398747 4.73347162,8.4948218 C4.66109867,8.62174171 4.57448785,8.73142628 4.47363914,8.82387551 L4.81768365,10.1636701 L8.32219852,10.9798396 C8.73899901,11.0769086 9.04783173,11.4284417 9.0904148,11.8542723 L9.80498756,19 L13.1950124,19 L13.5806209,15.1439151 C12.9912437,15.7244434 12.3211133,16.2087311 11.5715423,16.5944007 C11.1418358,16.8154936 10.6142586,16.6463787 10.3931658,16.2166722 C10.172073,15.7869656 10.3411878,15.2593885 10.7708944,15.0382957 C12.0974518,14.3557547 13.106218,13.2870723 13.8118385,11.8057232 C13.8563774,11.7122201 13.9153541,11.6302495 13.9848291,11.5612086 C14.1076824,11.273448 14.36169,11.053459 14.6778015,10.9798396 L18.1823163,10.1636701 L18.5528571,8.72069259 C18.4882007,8.64637204 18.4307473,8.56333198 18.380497,8.47157239 L18.380497,8.47157239 Z M11.5941331,7.92343666 C12.4303057,7.66329408 13,6.88942784 13,6.01372311 L13,4.5 C13,3.67157288 12.3284271,3 11.5,3 C10.6715729,3 10,3.67157288 10,4.5 L10,6.01372311 C10,6.88942784 10.5696943,7.66329408 11.4058669,7.92343666 L11.5,7.95272252 L11.5941331,7.92343666 Z M8,22 L15,22 L15,21 L8,21 L8,22 Z" id="christ-the-redeemer"></path>
                </g>
            </g>
            <g id="slices" transform="translate(60.000000, 58.000000)"></g>
        </g>
    </g>
</svg>