<?xml version="1.0" encoding="UTF-8"?>
<svg width="24px" height="24px" viewBox="0 0 24 24" version="1.1" xmlns="http://www.w3.org/2000/svg" xmlns:xlink="http://www.w3.org/1999/xlink">
    <!-- Generator: Sketch 56.3 (81716) - https://sketch.com -->
    <title>jollycons-landmarks/jollycons-landmarks/svg/icon-landmarks-icon-mesoamerican-pyramid</title>
    <desc>Created with Sketch.</desc>
    <g id="icons" stroke="none" stroke-width="1" fill="none" fill-rule="evenodd">
        <g id="icons---export" transform="translate(-188.000000, -58.000000)">
            <g id="row-1" transform="translate(60.000000, 58.000000)" fill="#000000" fill-rule="nonzero">
                <g id="icon---3" transform="translate(128.000000, 0.000000)">
                    <path d="M7,6 C6.44771525,6 6,5.55228475 6,5 C6,4.44771525 6.44771525,4 7,4 L16,4 C16.5522847,4 17,4.44771525 17,5 C17,5.55228475 16.5522847,6 16,6 L16,9 L18,9 C18.5522847,9 19,9.44771525 19,10 L19,12 C19.5522847,12 20,12.4477153 20,13 L20,15 C20.5522847,15 21,15.4477153 21,16 L21,18 C21.5522847,18 22,18.4477153 22,19 L22,22 C22,22.5522847 21.5522847,23 21,23 L2,23 C1.44771525,23 1,22.5522847 1,22 L1,19 C1,18.4477153 1.44771525,18 2,18 L2,16 C2,15.4477153 2.44771525,15 3,15 L3,13 C3,12.4477153 3.44771525,12 4,12 L4,10 C4,9.44771525 4.44771525,9 5,9 L7,9 L7,6 Z M12,11 L11,11 L11,21 L12,21 L12,11 Z M10,9 L10,8 C10,7.44771525 10.4477153,7 11,7 L12,7 C12.5522847,7 13,7.44771525 13,8 L13,9 L14,9 L14,6 L9,6 L9,9 L10,9 Z M9,11 L6,11 L6,12 L9,12 L9,11 Z M14,11 L14,12 L17,12 L17,11 L14,11 Z M9,15 L9,14 L5,14 L5,15 L9,15 Z M14,15 L18,15 L18,14 L14,14 L14,15 Z M9,18 L9,17 L4,17 L4,18 L9,18 Z M14,18 L19,18 L19,17 L14,17 L14,18 Z M9,21 L9,20 L3,20 L3,21 L9,21 Z M14,21 L20,21 L20,20 L14,20 L14,21 Z" id="mesoamerican-pyramid"></path>
                </g>
            </g>
            <g id="slices" transform="translate(60.000000, 58.000000)"></g>
        </g>
    </g>
</svg>