<svg xmlns="http://www.w3.org/2000/svg" width="24" height="24" viewBox="0 0 24 24">
  <path fill="#000000" d="M7.3010578,19 L3.49509757,19 C3.01841655,19 2.60800173,18.6635403 2.51451689,18.1961161 C1.82849437,14.7660035 1.82849437,11.2339965 2.51451689,7.80388386 C2.60800173,7.33645967 3.01841655,7 3.49509757,7 L6.63727662,7 L6.49770806,5.0722092 L6.49509757,5 C6.49509757,3.11438192 7.60947948,2 9.49509757,2 C10.5610256,2 11.216851,2.22404069 11.8557867,2.69510846 C11.9022659,2.72937614 12.0364381,2.83115624 12.0432392,2.8362465 C12.2339482,2.9789824 12.2861219,3 12.4950976,3 C12.8715511,3 13.0785127,2.94796008 14.4422924,2.54163262 C15.6914995,2.16944115 16.5263802,2 17.4950976,2 C19.3807157,2 20.4950976,3.11438192 20.4924871,5.0722092 L19.6131011,17.2187286 C19.5424911,18.1940288 19.6565335,19.173895 19.9492441,20.1069099 L20.041608,20.4013199 C20.3722499,21.455241 19.7859162,22.5776511 18.7319951,22.908293 C18.5382477,22.9690765 18.3363734,23 18.133315,23 L8.85688016,23 C7.75231066,23 6.85688016,22.1045695 6.85688016,21 C6.85688016,20.7969416 6.88780367,20.5950673 6.94858718,20.4013199 L7.04095108,20.1069099 C7.1547992,19.7440191 7.2416188,19.3740406 7.3010578,19 Z M8.78730765,9 L9.3718731,17.0743102 C9.46065027,18.3005449 9.31726596,19.5325203 8.94924406,20.7055901 L8.85688016,21 L18.133315,21 L18.0409511,20.7055901 C17.6729292,19.5325203 17.5295449,18.3005449 17.618322,17.0743102 L18.2046377,9 L8.78730765,9 Z M8.64251127,7 L18.3498677,7 L18.4950976,5 C18.4950976,4.21895142 18.2761462,4 17.4950976,4 C16.7674519,4 16.0910829,4.13727081 15.0133684,4.45836738 C13.3780819,4.94558819 13.1616873,5 12.4950976,5 C11.8039231,5 11.3546582,4.81901869 10.8448293,4.43743786 C10.8281374,4.4249448 10.7021803,4.32939655 10.6689428,4.30489154 C10.3675329,4.08267127 10.1255326,4 9.49509757,4 C8.72555941,4 8.50167309,4.21254553 8.49524132,4.96583385 L8.64251127,7 Z M7.36125852,17 L6.782073,9 L4.328802,9 C3.89039933,11.6486209 3.89039933,14.3513791 4.328802,17 L7.36125852,17 Z M12,13 C12.5522847,13 13,13.4477153 13,14 C13,14.5522847 12.5522847,15 12,15 C11.4477153,15 11,14.5522847 11,14 C11,13.4477153 11.4477153,13 12,13 Z M13,18 C13.5522847,18 14,18.4477153 14,19 C14,19.5522847 13.5522847,20 13,20 C12.4477153,20 12,19.5522847 12,19 C12,18.4477153 12.4477153,18 13,18 Z M15,15 C15.5522847,15 16,15.4477153 16,16 C16,16.5522847 15.5522847,17 15,17 C14.4477153,17 14,16.5522847 14,16 C14,15.4477153 14.4477153,15 15,15 Z M15,10 C15.5522847,10 16,10.4477153 16,11 C16,11.5522847 15.5522847,12 15,12 C14.4477153,12 14,11.5522847 14,11 C14,10.4477153 14.4477153,10 15,10 Z"/>
</svg>
