<svg xmlns="http://www.w3.org/2000/svg" width="24" height="24" viewBox="0 0 24 24">
  <path fill="#000000" d="M7.35963974,3.11389404 C8.46660096,3.01909408 9.72937462,3.02463394 11,3.02463394 C13.8324611,3.02463394 17.7510858,2.99710484 17.7510858,5.23273957 C17.7510858,5.63911488 17.4844515,6.39162057 17.7015341,7.20854406 C18.2691924,6.53162202 19.1097411,6.13644793 20.0000695,6.13644793 C21.6569237,6.13644793 23.0000695,7.47959368 23.0000695,9.13644793 L23.0000695,14.6837896 C23.0000695,16.1624143 20.6693789,18 19.0000695,18 C18.9901712,18 18.9803065,17.9998562 18.9704774,17.9995705 C17.3634661,20.8600774 14.1016381,22 11,22 C6.65635965,22 1.99855226,19.7643653 2.01159247,13.6982773 C2.01503175,12.098381 2.81217298,10.6813815 3.61455175,8.83842592 C3.8346244,8.3329488 4.05483233,7.82913993 4.25869435,7.34217571 C4.46273669,6.85478079 4.43539581,6.34692197 4.35269204,5.87533488 C4.01700109,6.01460539 3.70166929,6.17002819 3.40658031,6.34142634 C2.92901005,6.61881612 2.31699401,6.45653776 2.03960424,5.97896749 C1.76221447,5.50139723 1.92449282,4.88938119 2.40206309,4.61199142 C3.37133698,4.04900272 4.48831297,3.63461313 5.75079704,3.36548582 C6.17604688,3.25625398 6.65363095,3.18198024 7.16793445,3.13149077 C7.1990574,3.12772967 7.23025539,3.12404328 7.26152839,3.12043154 C7.29444863,3.11662957 7.32717979,3.11447211 7.35963974,3.11389404 Z M6.27857193,5.29841417 C6.41325834,5.95636965 6.45591153,6.44834271 6.38287639,7.05033583 C6.34352933,7.37465445 6.26707709,7.69189864 6.14938037,8.00000002 L15.85234,8.00000002 C15.8489422,7.98977333 15.845562,7.97956954 15.8421993,7.969388 C15.5609122,7.11769203 15.5638109,6.41250007 15.7069368,5.48076612 L15.7123509,5.44549625 C15.6754095,5.43006693 15.6320693,5.41320262 15.5821466,5.39552764 C15.0205663,5.19670187 14.1221582,5.08190084 12.8839504,5.04318207 C12.3899305,5.02773407 11.9821466,5.02452418 11.1028133,5.02462598 C11.0513323,5.02463194 11.0513323,5.02463194 11,5.02463394 C10.8999074,5.02462633 10.8999074,5.02462633 10.800183,5.02460356 C9.23239553,5.02424556 8.08419114,5.06090721 7.27149318,5.13413531 C6.9278718,5.17874379 6.59691667,5.23353174 6.27857193,5.29841417 Z M16.9785407,10.8290321 C16.8174618,12.0542404 15.7691779,13 14.5,13 C13.1192881,13 12,11.8807119 12,10.5 C12,10.3287671 12.0172151,10.161555 12.0500091,10 L5.28714832,10 C5.06566471,10.4951569 4.72871458,11.2403993 4.64311675,11.4377997 C4.39645457,12.0066368 4.24104192,12.4257415 4.14153875,12.8014762 C4.0541283,13.1315475 4.01218824,13.4232849 4.01158785,13.7025767 C4.00266736,17.8522405 6.7840846,20 11,20 C15.2159154,20 17.9973326,17.8522405 17.9884121,13.7025767 C17.9879089,13.4684645 17.9469489,13.2161404 17.8589527,12.9174778 C17.776327,12.6370427 17.654529,12.3213457 17.4702657,11.9043086 C17.3921185,11.7274406 17.1355677,11.1708419 16.9785407,10.8290321 Z M19.7995415,15.7213139 C20.3954491,15.3885304 21.0000695,14.855311 21.0000695,14.6837896 L21.0000695,9.13644793 C21.0000695,8.58416318 20.5523542,8.13644793 20.0000695,8.13644793 C19.6806031,8.13644793 19.3803642,8.28908485 19.1921187,8.54719798 L18.5445104,9.43516683 C19.2374486,11.0230941 19.985362,12.2815278 19.9884075,13.6982773 C19.989974,14.4269764 19.9241382,15.1004003 19.7995415,15.7213139 Z M8.5,16 C7.11928813,16 6,14.8807119 6,13.5 C6,12.1192881 7.11928813,11 8.5,11 C9.88071187,11 11,12.1192881 11,13.5 C11,14.8807119 9.88071187,16 8.5,16 Z M8.5,14.05 C8.80375661,14.05 9.05,13.8037566 9.05,13.5 C9.05,13.1962434 8.80375661,12.95 8.5,12.95 C8.19624339,12.95 7.95,13.1962434 7.95,13.5 C7.95,13.8037566 8.19624339,14.05 8.5,14.05 Z M14.5,11.05 C14.8037566,11.05 15.05,10.8037566 15.05,10.5 C15.05,10.1962434 14.8037566,9.95 14.5,9.95 C14.1962434,9.95 13.95,10.1962434 13.95,10.5 C13.95,10.8037566 14.1962434,11.05 14.5,11.05 Z"/>
</svg>
