<svg xmlns="http://www.w3.org/2000/svg" width="24" height="24" viewBox="0 0 24 24">
  <path fill="#000000" d="M18.9360034,1.29289322 L21.7644305,4.12132034 C22.1549548,4.51184464 22.1549548,5.14500961 21.7644305,5.53553391 L19.5370442,7.76292025 C19.0407498,8.25921463 18.6553258,8.97618601 17.8509353,10.7705944 C16.9317527,12.8210775 16.4951602,13.6332313 15.7540175,14.374374 C14.7191173,15.4092743 13.7909108,16.0703706 12.7403624,16.6146297 C11.6915599,17.1220567 11.4852299,17.2289502 11.3346055,17.3795724 C11.0981459,17.6160321 10.516033,18.653892 9.71103384,20.346054 C8.9992853,21.84226 7.209374,22.4781655 5.71317866,21.7663921 C5.40416919,21.6193894 5.12258761,21.4206028 4.88062292,21.1786381 L1.87868479,18.1767247 C0.70710507,17.005145 0.70710507,15.105639 1.87868479,13.9340593 C2.12065248,13.6920916 2.40223417,13.4933049 2.71124378,13.3463022 C4.40342714,12.5412933 5.44129098,11.9591785 5.6777513,11.7227182 C5.76149663,11.6389728 5.84981269,11.5063161 5.97135352,11.273274 C6.02508717,11.1702453 6.33848567,10.5261301 6.45302623,10.3059271 C7.00151445,9.25146488 7.65924787,8.32700803 8.68295509,7.30330081 C9.42409749,6.56215841 10.2362428,6.12557161 12.2867302,5.20638764 C14.0811359,4.40199885 14.798109,4.01657402 15.2944035,3.52027957 L17.5217898,1.29289322 C17.9123141,0.902368927 18.5454791,0.902368927 18.9360034,1.29289322 Z M18.9360034,5.53553391 L17.5217898,4.12132034 L16.708617,4.93449313 C15.9891311,5.65397901 15.2027312,6.08644776 13.2814476,6.95204592 L16.1052776,9.77587594 C16.9708792,7.85458671 17.4033465,7.0681908 18.1228306,6.34870669 L18.9360034,5.53553391 Z M13.9800016,13.3074542 C14.0980206,13.19776 14.2177469,13.0822175 14.339804,12.9601604 C14.6321871,12.6677773 14.886091,12.2988006 15.2098497,11.6780526 C15.1521698,11.6405694 15.0975069,11.5965324 15.0469161,11.5459415 L11.5113822,8.01040764 C11.4607911,7.95981655 11.4167539,7.90515339 11.3792706,7.84747321 C10.7585238,8.17123085 10.3895504,8.42513265 10.0971687,8.71751437 C9.97517647,8.83950656 9.85968906,8.95927711 9.75001941,9.07747201 L13.9800016,13.3074542 Z M12.3740533,14.529933 L8.53020303,10.6860828 C8.4240683,10.8630433 8.32389794,11.0432315 8.22734422,11.2288549 C8.12947061,11.4170158 7.81543806,12.0624342 7.7446677,12.1981291 C7.53723758,12.5958549 7.34641891,12.8824777 7.09196486,13.1369317 C6.62587821,13.6030184 5.50105833,14.2339049 3.57042126,15.1523515 C3.46741685,15.201353 3.37355519,15.267616 3.29289835,15.3482728 C2.90236722,15.738804 2.90236722,16.37198 3.29289543,16.7625082 L6.29483356,19.7644216 C6.3754904,19.8450784 6.46935206,19.9113414 6.57235646,19.9603429 C7.07109096,20.197602 7.66772404,19.985635 7.90497768,19.4868909 C8.82342138,17.5562609 9.45430616,16.4314447 9.92039442,15.9653564 C10.3266293,15.5591272 10.8539194,15.2859538 11.8203539,14.8387963 C12.0094528,14.7408296 12.1932254,14.6387236 12.3740533,14.529933 Z"/>
</svg>
