<svg xmlns="http://www.w3.org/2000/svg" width="24" height="24" viewBox="0 0 24 24">
  <path fill="#000000" d="M8.8130645,5 L8.14639783,3 L6.86715705,3 C6.3148723,3 5.86715705,2.55228475 5.86715705,2 C5.86715705,1.44771525 6.3148723,1 6.86715705,1 L8.86715705,1 C9.29758746,1 9.67972631,1.27543009 9.81584035,1.68377223 L10.8158404,4.68377223 C10.8507976,4.78864395 10.8674135,4.89521343 10.8674283,5 L16.7346461,5 C17.8392156,5 18.7346461,5.8954305 18.7346461,7 C18.7346461,7.08293005 18.7294881,7.16577982 18.7192019,7.24806947 L16.9692019,21.2480695 C16.8440947,22.2489271 15.9932927,23 14.9846461,23 L8.75021057,23 C7.74156404,23 6.89076203,22.2489271 6.76565482,21.2480695 L5.01565482,7.24806947 C4.87864984,6.15202959 5.65610123,5.15244923 6.75214111,5.01544425 C6.83443076,5.00515804 6.91728053,5 7.00021057,5 L8.8130645,5 Z M16.3596461,10 L16.7346461,7 L7.00021057,7 L7.37521057,10 L16.3596461,10 Z M16.1096461,12 L7.62521057,12 L8.75021057,21 L14.9846461,21 L16.1096461,12 Z M12.8674284,18 C12.3151436,18 11.8674284,17.5522847 11.8674284,17 C11.8674284,16.4477153 12.3151436,16 12.8674284,16 C13.4197131,16 13.8674284,16.4477153 13.8674284,17 C13.8674284,17.5522847 13.4197131,18 12.8674284,18 Z M10.8674284,15 C10.3151436,15 9.86742836,14.5522847 9.86742836,14 C9.86742836,13.4477153 10.3151436,13 10.8674284,13 C11.4197131,13 11.8674284,13.4477153 11.8674284,14 C11.8674284,14.5522847 11.4197131,15 10.8674284,15 Z"/>
</svg>
