<svg xmlns="http://www.w3.org/2000/svg" width="24" height="24" viewBox="0 0 24 24">
  <path fill="#000000" d="M13,6.13969393 C15.8248802,6.67225229 18.1668918,8.68229511 19.2878556,11.3882208 L20.2055728,9.5527864 C20.3749648,9.21400238 20.7212279,9 21.1,9 L23.1070801,9 C23.6593648,9 24.1070801,9.44771525 24.1070801,10 C24.1070801,10.5522847 23.6593648,11 23.1070801,11 L21.718034,11 L19.9944272,14.4472136 C19.9914166,14.4532348 19.9883534,14.4592124 19.9852385,14.4651461 C19.9950337,14.6421055 20,14.8204387 20,15 C20,17.1796701 19.268202,19.1783655 18.0505595,20.7356647 C18.0332053,20.7578598 18.0124067,20.7839749 17.9881636,20.8140099 L17.9881892,20.8140306 C17.8932607,20.9316389 17.7502309,21 17.5990915,21 L5.30605055,20.9999083 C5.2161033,20.9999083 5.13090514,20.9595373 5.0739437,20.8899248 C5.01584229,20.8189191 4.97469109,20.7679465 4.95049009,20.7370068 C4.45407986,20.1023737 4.03837024,19.3944 3.72001519,18.6307191 C2.19909658,18.1063042 1.04349841,16.8071772 0.731750558,15.1835888 L0.16295209,12.2212762 C0.156675064,12.188133 0.156675064,12.188133 0.150733536,12.1549281 C-0.275774418,9.73608128 1.33933534,7.4294655 3.75818214,7.00295755 C4.81018512,6.81746104 5.87107669,7.00692478 6.7771018,7.51602819 C7.73228735,6.83889663 8.82432467,6.36133721 10,6.13969393 L10,5 C10,4.44771525 10.4477153,4 11,4 L12,4 C12.5522847,4 13,4.44771525 13,5 L13,6.13969393 Z M3.00063727,15.1113561 C3.00021283,15.0742909 3,15.0371718 3,15 C3,13.9502351 3.16974373,12.9424482 3.48175498,12.0057315 C3.81901893,10.9101463 4.32685759,9.88460155 4.98458523,8.97032842 C4.69829366,8.92086277 4.40160684,8.92035764 4.1054785,8.97257305 C2.7744203,9.20727453 1.88564757,10.4765735 2.12034904,11.8076317 C2.12361858,11.825904 2.12361858,11.825904 2.12707274,11.8441422 L2.69587121,14.8064548 C2.75270374,15.1024396 2.85948495,15.3791636 3.00703678,15.627987 C3.00235082,15.495934 3,15.3635105 3,15.2307692 C3,15.1909291 3.00021268,15.1511242 3.00063727,15.1113561 Z M5.00079036,15.1102659 C5.02113794,16.5288525 5.43373553,17.8719304 6.16563344,19 L16.8343666,19 C17.5852021,17.8427419 18,16.4592049 18,15 C18,14.3038722 17.9059963,13.6327614 17.7312169,13 L5.27889313,13 C5.10544973,13.6777421 5.01029806,14.3857903 5.00079036,15.1102659 Z M6.16524437,11 L16.8347556,11 C15.6556285,9.18183015 13.6969688,8 11.5,8 C9.30303117,8 7.34437153,9.18183015 6.16524437,11 Z"/>
</svg>
