<svg xmlns="http://www.w3.org/2000/svg" width="24" height="24" viewBox="0 0 24 24">
  <path fill="#000000" d="M17,7.0501739 C19.549359,7.31905532 21,8.66499094 21,11 C21,13.3350091 19.549359,14.6809447 17,14.9498261 L17,16.6900472 C17,17.7723893 16.6163629,18.8196972 15.9172324,19.6459422 L15.3706659,20.2918845 C14.9906574,20.7409855 14.4321945,21 13.8438934,21 L7.15610664,21 C6.56780554,21 6.00934261,20.7409855 5.62933407,20.2918845 L5.08276756,19.6459422 C4.38363711,18.8196972 4,17.7723893 4,16.6900472 L4,6 C4,4.8954305 4.8954305,4 6,4 L15,4 C16.1045695,4 17,4.8954305 17,6 L17,7.0501739 Z M17,9.05582618 L17,12.9441738 C18.4280904,12.763456 19,12.1390873 19,11 C19,9.8609127 18.4280904,9.23654403 17,9.05582618 Z M6,6 L6,16.6900472 C6,17.2993478 6.21596714,17.888926 6.60954013,18.3540578 L7.15610664,19 L13.8438934,19 L14.3904599,18.3540578 C14.7840329,17.888926 15,17.2993478 15,16.6900472 L15,6 L6,6 Z M11,8 C12.1045695,8 13,8.8954305 13,10 L13,12 C13,13.1045695 12.1045695,14 11,14 L9,14 C7.8954305,14 7,13.1045695 7,12 L7,10 C7,8.8954305 7.8954305,8 9,8 L9,6 L11,6 L11,8 Z M9,10 L9,12 L11,12 L11,10 L9,10 Z"/>
</svg>
