<svg xmlns="http://www.w3.org/2000/svg" width="24" height="24" viewBox="0 0 24 24">
  <path fill="#000000" d="M21,16 L22.5,16 C23.3284271,16 24,16.6715729 24,17.5 L24,19 C24,20.1045695 23.1045695,21 22,21 L2,21 C0.8954305,21 5.44009282e-15,20.1045695 5.32907052e-15,19 L5.32907052e-15,17.5 C5.32907052e-15,16.6715729 0.671572875,16 1.5,16 L3,16 L3,6 C3,4.8954305 3.8954305,4 5,4 L19,4 C20.1045695,4 21,4.8954305 21,6 L21,16 Z M22,18 L2,18 L2,19 L22,19 L22,18 Z M5,16 L19,16 L19,6 L5,6 L5,16 Z M11.7324356,10 L15,10 C15.5522847,10 16,10.4477153 16,11 C16,11.5522847 15.5522847,12 15,12 L11.7324356,12 C11.3866262,12.5978014 10.7402824,13 10,13 C8.8954305,13 8,12.1045695 8,11 C8,9.8954305 8.8954305,9 10,9 C10.7402824,9 11.3866262,9.40219863 11.7324356,10 Z"/>
</svg>
