<svg xmlns="http://www.w3.org/2000/svg" width="24" height="24" viewBox="0 0 24 24">
  <path fill="#000000" fill-rule="evenodd" d="M23,6 L23,19 C23,20.6568542 21.6568542,22 20,22 L4,22 C2.34314575,22 1,20.6568542 1,19 L1,6 C1,4.34314575 2.34314575,3 4,3 L20,3 C21.6568542,3 23,4.34314575 23,6 Z M3,9 L21,9 L21,6 C21,5.44771525 20.5522847,5 20,5 L4,5 C3.44771525,5 3,5.44771525 3,6 L3,9 Z M21,11 L3,11 L3,19 C3,19.5522847 3.44771525,20 4,20 L20,20 C20.5522847,20 21,19.5522847 21,19 L21,11 Z M7.63834696,14.5395089 L8.48986283,13.9432711 C8.71606542,13.7848823 9.02783831,13.8398563 9.18622707,14.0660589 C9.34461583,14.2922615 9.28964186,14.6040344 9.06343927,14.7624231 L8.01007036,15.5 L9.06343927,16.2375769 C9.28964186,16.3959656 9.34461583,16.7077385 9.18622707,16.9339411 C9.02783831,17.1601437 8.71606542,17.2151177 8.48986283,17.0567289 L7.63834696,16.4604911 L7.63834696,17.5 C7.63834696,17.7761424 7.41448933,18 7.13834696,18 C6.86220458,18 6.63834696,17.7761424 6.63834696,17.5 L6.63834696,16.4604911 L5.78683109,17.0567289 C5.5606285,17.2151177 5.24885561,17.1601437 5.09046685,16.9339411 C4.93207809,16.7077385 4.98705206,16.3959656 5.21325465,16.2375769 L6.26662356,15.5 L5.21325465,14.7624231 C4.98705206,14.6040344 4.93207809,14.2922615 5.09046685,14.0660589 C5.24885561,13.8398563 5.5606285,13.7848823 5.78683109,13.9432711 L6.63834696,14.5395089 L6.63834696,13.5 C6.63834696,13.2238576 6.86220458,13 7.13834696,13 C7.41448933,13 7.63834696,13.2238576 7.63834696,13.5 L7.63834696,14.5395089 Z M12.638347,14.5395089 L13.4898628,13.9432711 C13.7160654,13.7848823 14.0278383,13.8398563 14.1862271,14.0660589 C14.3446158,14.2922615 14.2896419,14.6040344 14.0634393,14.7624231 L13.0100704,15.5 L14.0634393,16.2375769 C14.2896419,16.3959656 14.3446158,16.7077385 14.1862271,16.9339411 C14.0278383,17.1601437 13.7160654,17.2151177 13.4898628,17.0567289 L12.638347,16.4604911 L12.638347,17.5 C12.638347,17.7761424 12.4144893,18 12.138347,18 C11.8622046,18 11.638347,17.7761424 11.638347,17.5 L11.638347,16.4604911 L10.7868311,17.0567289 C10.5606285,17.2151177 10.2488556,17.1601437 10.0904668,16.9339411 C9.93207809,16.7077385 9.98705206,16.3959656 10.2132547,16.2375769 L11.2666236,15.5 L10.2132547,14.7624231 C9.98705206,14.6040344 9.93207809,14.2922615 10.0904668,14.0660589 C10.2488556,13.8398563 10.5606285,13.7848823 10.7868311,13.9432711 L11.638347,14.5395089 L11.638347,13.5 C11.638347,13.2238576 11.8622046,13 12.138347,13 C12.4144893,13 12.638347,13.2238576 12.638347,13.5 L12.638347,14.5395089 Z M17.638347,14.5395089 L18.4898628,13.9432711 C18.7160654,13.7848823 19.0278383,13.8398563 19.1862271,14.0660589 C19.3446158,14.2922615 19.2896419,14.6040344 19.0634393,14.7624231 L18.0100704,15.5 L19.0634393,16.2375769 C19.2896419,16.3959656 19.3446158,16.7077385 19.1862271,16.9339411 C19.0278383,17.1601437 18.7160654,17.2151177 18.4898628,17.0567289 L17.638347,16.4604911 L17.638347,17.5 C17.638347,17.7761424 17.4144893,18 17.138347,18 C16.8622046,18 16.638347,17.7761424 16.638347,17.5 L16.638347,16.4604911 L15.7868311,17.0567289 C15.5606285,17.2151177 15.2488556,17.1601437 15.0904668,16.9339411 C14.9320781,16.7077385 14.9870521,16.3959656 15.2132547,16.2375769 L16.2666236,15.5 L15.2132547,14.7624231 C14.9870521,14.6040344 14.9320781,14.2922615 15.0904668,14.0660589 C15.2488556,13.8398563 15.5606285,13.7848823 15.7868311,13.9432711 L16.638347,14.5395089 L16.638347,13.5 C16.638347,13.2238576 16.8622046,13 17.138347,13 C17.4144893,13 17.638347,13.2238576 17.638347,13.5 L17.638347,14.5395089 Z M5,8 C4.44771525,8 4,7.55228475 4,7 C4,6.44771525 4.44771525,6 5,6 C5.55228475,6 6,6.44771525 6,7 C6,7.55228475 5.55228475,8 5,8 Z M8,8 C7.44771525,8 7,7.55228475 7,7 C7,6.44771525 7.44771525,6 8,6 C8.55228475,6 9,6.44771525 9,7 C9,7.55228475 8.55228475,8 8,8 Z M11,8 C10.4477153,8 10,7.55228475 10,7 C10,6.44771525 10.4477153,6 11,6 C11.5522847,6 12,6.44771525 12,7 C12,7.55228475 11.5522847,8 11,8 Z"/>
</svg>
