<svg xmlns="http://www.w3.org/2000/svg" width="24" height="24" viewBox="0 0 24 24">
  <path fill="#000000" d="M3.998712,4.33805674 L5.3969185,4.33625585 C6.84513455,4.33439054 8.24714593,3.82636414 9.36039035,2.90007042 L10.7207807,1.76813477 C11.4620677,1.15133444 12.5379323,1.15133444 13.2792193,1.76813477 L14.6396096,2.90007042 C15.7528541,3.82636414 17.1548655,4.33439054 18.6030815,4.33625585 L20.001288,4.33805674 C20.5530694,4.33876744 21,4.78627409 21,5.33805591 L21,13.8980607 C21,17.0612914 19.1361288,19.9274845 16.2447706,21.2104792 L12.4055963,22.9140523 C12.1473406,23.0286492 11.8526594,23.0286492 11.5944037,22.9140523 L7.75522944,21.2104792 C4.86387116,19.9274845 3,17.0612914 3,13.8980607 L3,5.33805591 C3,4.78627409 3.44693063,4.33876744 3.998712,4.33805674 Z M19,6.33676874 L19,12 L12,12 L12,3.30553452 L10.6396096,4.43747017 C9.16778667,5.66212521 7.31418423,6.33378806 5.3994945,6.33625419 L5,6.33676874 L5,12 L12,12 L12,20.9059707 L15.4335779,19.3823746 C17.6020966,18.4201285 19,16.2704837 19,13.8980607 L19,6.33676874 Z"/>
</svg>
