<svg xmlns="http://www.w3.org/2000/svg" width="24" height="24" viewBox="0 0 24 24">
  <path fill="#000000" d="M3.998712,4.33805674 L5.3969185,4.33625585 C6.84513455,4.33439054 8.24714593,3.82636414 9.36039035,2.90007042 L10.7207807,1.76813477 C11.4620677,1.15133444 12.5379323,1.15133444 13.2792193,1.76813477 L14.6396096,2.90007042 C15.7528541,3.82636414 17.1548655,4.33439054 18.6030815,4.33625585 L20.001288,4.33805674 C20.5530694,4.33876744 21,4.78627409 21,5.33805591 L21,13.8980607 C21,17.0612914 19.1361288,19.9274845 16.2447706,21.2104792 L12.4055963,22.9140523 C12.1473406,23.0286492 11.8526594,23.0286492 11.5944037,22.9140523 L7.75522944,21.2104792 C4.86387116,19.9274845 3,17.0612914 3,13.8980607 L3,5.33805591 C3,4.78627409 3.44693063,4.33876744 3.998712,4.33805674 Z M5,6.33676874 L5,13.8980607 C5,16.2704837 6.39790337,18.4201285 8.56642208,19.3823746 L12,20.9059707 L15.4335779,19.3823746 C17.6020966,18.4201285 19,16.2704837 19,13.8980607 L19,6.33676874 L18.6005055,6.33625419 C16.6858158,6.33378806 14.8322133,5.66212521 13.3603904,4.43747017 L12,3.30553452 L10.6396096,4.43747017 C9.16778667,5.66212521 7.31418423,6.33378806 5.3994945,6.33625419 L5,6.33676874 Z M14.1955667,9.40595697 C14.5236476,8.96168075 15.1497668,8.86748583 15.594043,9.19556673 C16.0383193,9.52364764 16.1325142,10.1497668 15.8044333,10.594043 L12.1121256,15.594043 C11.7392168,16.0990237 10.9986773,16.1395509 10.5728889,15.6782801 L8.26519656,13.1782801 C7.8905928,12.7724594 7.91589916,12.1398003 8.3217199,11.7651966 C8.72754063,11.3905928 9.36019969,11.4158992 9.73480344,11.8217199 L11.221923,13.4327661 L14.1955667,9.40595697 Z"/>
</svg>
