<svg xmlns="http://www.w3.org/2000/svg" width="24" height="24" viewBox="0 0 24 24">
  <path fill="#000000" d="M6,19 C6,20.6568542 4.65685425,22 3,22 L1.5,22 C0.671572875,22 0,21.3284271 0,20.5 L0,15.5 C0,14.6715729 0.671572875,14 1.5,14 L3,14 C4.65685425,14 6,15.3431458 6,17 L8.00317928,17 L8.01243451,14.0935305 L5.31570156,13.1649708 C2.18252862,12.0861329 0.517161077,8.67162339 1.59599904,5.53845045 C2.674837,2.40527751 6.08934648,0.739909966 9.22251942,1.81874793 L22.0314841,6.22922815 C23.075875,6.58884081 23.6309976,7.72701063 23.2713849,8.77140161 C23.0322194,9.46598879 22.4315194,9.97355686 21.7067593,10.0934494 L20.7584879,10.250316 L19.3190717,13.6305712 C18.7022739,15.0790291 17.0707451,15.8043104 15.5822005,15.2917634 L14.5070366,14.9215548 C14.4672647,14.9078602 14.4289119,14.8919075 14.3920721,14.8738894 C13.8801449,15.5223922 12.9961389,15.8095575 12.1707112,15.52534 L10.0102541,14.7814349 L9.99999493,18.0031843 C9.99824023,18.5542231 9.5510416,19 9,19 L6,19 Z M18.4199755,10.6371615 L15.8210529,11.0670851 L15.1463615,13.0265311 C15.1503012,13.027834 15.1542384,13.0291628 15.158173,13.0305176 L16.2333368,13.4007262 C16.7295183,13.5715752 17.2733612,13.3298148 17.4789605,12.8469955 L18.4199755,10.6371615 Z M8.57138311,3.70978508 C6.48260115,2.99055977 4.2062615,4.1008048 3.48703619,6.18958676 C2.76781088,8.27836872 3.87805591,10.5547084 5.96683787,11.2739337 L12.8218475,13.6343028 L13.9300157,10.4159488 C14.1691813,9.72136159 14.7698812,9.21379351 15.4946413,9.09390097 L21.3803478,8.1202653 L8.57138311,3.70978508 Z M2,16 L2,20 L3,20 C3.55228475,20 4,19.5522847 4,19 L4,17 C4,16.4477153 3.55228475,16 3,16 L2,16 Z M5.0285611,7.82932557 C4.50636561,7.64951924 4.22880436,7.08043433 4.40861068,6.55823884 C4.58841701,6.03604335 5.15750192,5.75848209 5.67969741,5.93828842 C6.2018929,6.11809475 6.47945416,6.68717966 6.29964783,7.20937515 C6.11984151,7.73157064 5.55075659,8.0091319 5.0285611,7.82932557 Z"/>
</svg>
