<svg xmlns="http://www.w3.org/2000/svg" width="24" height="24" viewBox="0 0 24 24">
  <path fill="#000000" d="M2.26756439,10 C2.09739429,9.70582663 2,9.36428714 2,9 L2,6 C2,4.8954305 2.8954305,4 4,4 L20,4 C21.1045695,4 22,4.8954305 22,6 L22,9 C22,9.36428714 21.9026057,9.70582663 21.7324356,10 C21.9026057,10.2941734 22,10.6357129 22,11 L22,14 C22,14.3642871 21.9026057,14.7058266 21.7324356,15 C21.9026057,15.2941734 22,15.6357129 22,16 L22,19 C22,20.1045695 21.1045695,21 20,21 L4,21 C2.8954305,21 2,20.1045695 2,19 L2,16 C2,15.6357129 2.09739429,15.2941734 2.26756439,15 C2.09739429,14.7058266 2,14.3642871 2,14 L2,11 C2,10.6357129 2.09739429,10.2941734 2.26756439,10 Z M14,9 L14,6 L4,6 L4,9 L14,9 Z M16,9 L20,9 L20,6 L16,6 L16,9 Z M10,11 L10,14 L20,14 L20,11 L10,11 Z M4,11 L4,14 L8,14 L8,11 L4,11 Z M12,16 L4,16 L4,19 L12,19 L12,16 Z M14,16 L14,19 L20,19 L20,16 L14,16 Z"/>
</svg>
