<?xml version="1.0" encoding="utf-8"?>
<!-- Generator: Adobe Illustrator 25.2.3, SVG Export Plug-In . SVG Version: 6.00 Build 0)  -->
<svg version="1.1" id="Layer_1" xmlns="http://www.w3.org/2000/svg" xmlns:xlink="http://www.w3.org/1999/xlink" x="0px" y="0px"
	 viewBox="0 0 32 32" style="enable-background:new 0 0 32 32;" xml:space="preserve">
<style type="text/css">
	.st0{clip-path:url(#SVGID_2_);}
	.st1{fill:#3D3D3C;}
</style>
<g>
	<defs>
		<rect id="SVGID_1_" x="7.2" y="9.6" width="17.9" height="12.4"/>
	</defs>
	<clipPath id="SVGID_2_">
		<use xlink:href="#SVGID_1_"  style="overflow:visible;"/>
	</clipPath>
	<g class="st0">
		<path class="st1" d="M24.7,11.5c-0.2-0.8-0.8-1.4-1.6-1.6c-1.4-0.4-7-0.4-7-0.4s-5.6,0-7,0.4c-0.8,0.2-1.4,0.8-1.6,1.6
			c-0.4,1.4-0.4,4.3-0.4,4.3s0,2.9,0.4,4.3c0.2,0.8,0.8,1.3,1.6,1.5c1.4,0.4,7,0.4,7,0.4s5.6,0,7-0.4c0.8-0.2,1.4-0.8,1.6-1.5
			c0.4-1.4,0.4-4.3,0.4-4.3S25.1,12.9,24.7,11.5L24.7,11.5z M14.3,18.4v-5.2l4.7,2.6L14.3,18.4L14.3,18.4z"/>
	</g>
</g>
</svg>
